<?xml version="1.0" encoding="utf-8"?>
<!-- Generator: Adobe Illustrator 24.3.0, SVG Export Plug-In . SVG Version: 6.00 Build 0)  -->
<svg version="1.1" id="Camada_1" xmlns="http://www.w3.org/2000/svg" xmlns:xlink="http://www.w3.org/1999/xlink" x="0px" y="0px"
	 viewBox="0 0 315 635" style="enable-background:new 0 0 315 635;" xml:space="preserve">
<style type="text/css">
	.st0{fill:#FFFFFF;}
	.st1{fill:#148260;}
	.st2{enable-background:new    ;}
	.st3{fill:#727D83;}
	.st4{fill:none;stroke:#B9C3C9;}
</style>
<rect y="0" class="st0" width="315" height="635"/>
<g>
	<g>
		<path class="st1" d="M163.2,243.7v-39.1l5.8-0.6v33.8l11.4-1.2v5.2L163.2,243.7z"/>
		<path class="st1" d="M197.3,240.1l-10.3,1.1c-2.1,0.2-3.2-0.7-3.2-2.8v-18.9c0-2,1.1-3.2,3.2-3.4l10.3-1.1
			c2.1-0.2,3.2,0.7,3.2,2.8v18.9C200.5,238.7,199.4,239.8,197.3,240.1z M194.9,219.8l-5.5,0.5v15.7l5.5-0.5V219.8z"/>
		<path class="st1" d="M218.1,249.6l-9.8,1.1c-2.1,0.2-3.2-0.7-3.2-2.8v-4.1l5.6-0.5v3l5-0.5V238l-5.9,0.6c-1.6,0.2-2.9-0.1-3.9-1
			s-1.4-2-1.4-3.5v-15.4c0-1.5,0.4-2.7,1.2-3.5c0.9-0.9,1.9-1.4,3.3-1.6c0.3,0,0.6-0.1,1.1-0.1c0.3,0,0.7,0,1.1,0l4.3,0.3v-1
			l5.8-0.6v33.8C221.3,248.2,220.2,249.4,218.1,249.6z M215.6,217.9h-2.4c-0.2,0-0.3,0-0.5,0s-0.4,0-0.5,0.1c-1.2,0.1-1.8,0.7-1.8,2
			v12.1c0,1.3,0.6,1.8,1.8,1.7l3.4-0.3V217.9z"/>
		<path class="st1" d="M178.4,282.5c-1,1-2.2,1.6-3.9,1.8l-11.7,1.2v-39.1l5.8-0.6v14.8l6.1-1.5c0.3-0.1,0.6-0.2,1-0.2
			c0.3-0.1,0.6-0.1,0.9-0.1c2-0.2,3.1,0.7,3.1,2.8v17.2C179.8,280.3,179.3,281.6,178.4,282.5z M174,263.9l-5.3,0.6v15.6l3.5-0.3
			c1.2-0.1,1.8-0.9,1.8-2V263.9z"/>
		<path class="st1" d="M197.3,282l-10.3,1.1c-2.1,0.2-3.2-0.7-3.2-2.8v-18.9c0-2,1.1-3.2,3.2-3.4l10.3-1.1c2.1-0.2,3.2,0.7,3.2,2.8
			v18.9C200.5,280.6,199.4,281.8,197.3,282z M194.8,261.8l-5.5,0.5V278l5.5-0.5V261.8z"/>
		<path class="st1" d="M218.1,279.8l-10.3,1.1c-2.1,0.2-3.2-0.7-3.2-2.8v-18.9c0-2,1.1-3.2,3.2-3.4l10.3-1.1
			c2.1-0.2,3.2,0.7,3.2,2.8v18.9C221.3,278.4,220.2,279.5,218.1,279.8z M215.7,259.5l-5.5,0.5v15.7l5.5-0.5V259.5z"/>
		<path class="st1" d="M236.1,277.9l-5-11v11.6l-5.8,0.6v-39.1l5.8-0.6v23.4l4.5-10.1l6-0.6v0.1l-5.8,12.1l6.4,12.8v0.1L236.1,277.9
			z"/>
		<g>
			<path class="st1" d="M143.2,287.7l-51.8,5.5c-2.5,0.2-4.6-1.6-4.6-4.1v-76.4l65.7-7v71.7C152.5,282.5,148.3,287.1,143.2,287.7z
				 M91.7,216.9v71.6l51.5-5.7c2.5-0.2,4.5-2.5,4.5-4.9v-66.8L91.7,216.9z"/>
		</g>
		<path class="st1" d="M128.3,198.4L75.2,204c-1.4,0.1-2.5,1.4-2.5,2.7v76.8c0,1.6,0.9,3,2.2,3.6l45.4,22v-19.7l-4.8,0.5v11.2
			l-37.9-18.2v-70.6l10.1,5l2.5-4.4l-9.4-4.7l47.5-5L128.3,198.4L128.3,198.4z"/>
		<g>
			<path class="st1" d="M94.8,292.5l21.6-1.9l-0.4,7c0,0,1.3,5,0.4,5S94.8,292.5,94.8,292.5z"/>
		</g>
		<polygon class="st1" points="225.3,223.4 231.1,222.7 231.1,228.5 225.3,229 		"/>
		<polygon class="st1" points="112.2,258.5 108.4,255 135.7,224.9 139.6,228.3 		"/>
		<polygon class="st1" points="97.6,245.4 101.5,241 116.2,254.2 112.2,258.5 		"/>
		<polygon class="st1" points="132.5,241.6 136.4,245.1 118.9,264.5 115,260.9 		"/>
		<polygon class="st1" points="130.3,257.2 134.3,260.7 125.5,270.3 121.7,266.8 		"/>
		<polygon class="st1" points="82,209.5 129.8,204.3 131.8,204.9 83.1,210.1 		"/>
		<polygon class="st1" points="84.3,211.2 134.7,205.8 136.4,206.4 85.4,211.8 		"/>
	</g>
</g>
<g class="st2">
	<path class="st3" d="M95,372.4c0,0,0,0.1,0,0.1s0,0.1-0.1,0.1c0,0-0.1,0-0.2,0.1s-0.2,0-0.3,0c-0.1,0-0.2,0-0.3,0
		c-0.1,0-0.1,0-0.2-0.1c-0.1,0-0.1-0.1-0.1-0.1c0,0-0.1-0.1-0.1-0.2l-1.2-3.1c-0.1-0.3-0.3-0.7-0.4-1c-0.2-0.3-0.3-0.6-0.6-0.8
		c-0.2-0.2-0.5-0.4-0.8-0.5c-0.3-0.1-0.7-0.2-1.1-0.2h-1.3v5.7c0,0,0,0.1,0,0.1c0,0-0.1,0.1-0.1,0.1s-0.1,0-0.2,0
		c-0.1,0-0.2,0-0.3,0c-0.1,0-0.2,0-0.3,0c-0.1,0-0.1,0-0.2,0c0,0-0.1,0-0.1-0.1c0,0,0-0.1,0-0.1v-11.9c0-0.2,0.1-0.4,0.2-0.5
		c0.1-0.1,0.2-0.1,0.4-0.1H90c0.3,0,0.6,0,0.8,0c0.2,0,0.4,0,0.6,0.1c0.5,0.1,0.9,0.2,1.3,0.4c0.4,0.2,0.7,0.4,0.9,0.7
		c0.2,0.3,0.4,0.6,0.5,0.9c0.1,0.4,0.2,0.7,0.2,1.1c0,0.4-0.1,0.8-0.2,1.1s-0.3,0.6-0.5,0.9c-0.2,0.3-0.5,0.5-0.8,0.7
		c-0.3,0.2-0.6,0.3-1,0.5c0.2,0.1,0.4,0.2,0.6,0.4c0.2,0.1,0.3,0.3,0.5,0.5c0.1,0.2,0.3,0.4,0.4,0.7c0.1,0.3,0.3,0.6,0.4,0.9l1.2,3
		c0.1,0.2,0.1,0.4,0.2,0.5S95,372.4,95,372.4z M92.9,363.3c0-0.5-0.1-1-0.4-1.4s-0.6-0.6-1.2-0.8c-0.2-0.1-0.4-0.1-0.6-0.1
		s-0.5,0-0.9,0h-1.6v4.7h1.8c0.5,0,0.9-0.1,1.3-0.2c0.4-0.1,0.6-0.3,0.9-0.5c0.2-0.2,0.4-0.5,0.5-0.7S92.9,363.6,92.9,363.3z"/>
	<path class="st3" d="M104.6,372.1c0,0.1,0,0.2,0,0.2s0,0.1-0.1,0.2c0,0-0.1,0.1-0.1,0.1c0,0-0.1,0-0.1,0h-6c-0.1,0-0.2,0-0.4-0.1
		c-0.1-0.1-0.2-0.3-0.2-0.5v-11.5c0-0.2,0.1-0.4,0.2-0.5c0.1-0.1,0.2-0.1,0.4-0.1h5.9c0,0,0.1,0,0.1,0c0,0,0.1,0.1,0.1,0.1
		s0,0.1,0.1,0.2c0,0.1,0,0.1,0,0.2c0,0.1,0,0.2,0,0.2s0,0.1-0.1,0.2c0,0-0.1,0.1-0.1,0.1c0,0-0.1,0-0.1,0H99v4.5h4.5
		c0.1,0,0.1,0,0.1,0c0,0,0.1,0.1,0.1,0.1c0,0,0,0.1,0.1,0.2c0,0.1,0,0.1,0,0.2c0,0.1,0,0.2,0,0.2c0,0.1,0,0.1-0.1,0.2
		c0,0-0.1,0.1-0.1,0.1c0,0-0.1,0-0.1,0H99v5.1h5.3c0,0,0.1,0,0.1,0c0,0,0.1,0.1,0.1,0.1c0,0,0.1,0.1,0.1,0.2
		C104.6,371.9,104.6,372,104.6,372.1z"/>
	<path class="st3" d="M116.7,361.5c0,0.1,0,0.2,0,0.2s0,0.1-0.1,0.2c0,0-0.1,0.1-0.1,0.1s-0.1,0-0.1,0c-0.1,0-0.2-0.1-0.4-0.2
		c-0.2-0.1-0.4-0.3-0.7-0.4c-0.3-0.2-0.7-0.3-1.1-0.4c-0.4-0.1-0.9-0.2-1.5-0.2c-0.8,0-1.4,0.1-2,0.4c-0.6,0.3-1.1,0.7-1.5,1.1
		c-0.4,0.5-0.7,1.1-0.9,1.7s-0.3,1.4-0.3,2.2c0,0.9,0.1,1.6,0.4,2.3c0.2,0.7,0.6,1.2,1,1.7c0.4,0.5,0.9,0.8,1.5,1.1
		c0.6,0.2,1.2,0.4,1.9,0.4c0.5,0,0.9-0.1,1.4-0.2s0.9-0.3,1.3-0.5v-4.1h-3.2c-0.1,0-0.2,0-0.2-0.1c-0.1-0.1-0.1-0.2-0.1-0.4
		c0-0.1,0-0.2,0-0.2c0-0.1,0-0.1,0.1-0.2c0,0,0.1-0.1,0.1-0.1c0,0,0.1,0,0.1,0h3.9c0.1,0,0.1,0,0.2,0c0.1,0,0.1,0.1,0.2,0.1
		c0.1,0,0.1,0.1,0.1,0.2c0,0.1,0,0.2,0,0.3v4.7c0,0.2,0,0.3-0.1,0.4c0,0.1-0.2,0.2-0.3,0.3c-0.2,0.1-0.4,0.2-0.7,0.3
		c-0.3,0.1-0.6,0.2-0.9,0.3c-0.3,0.1-0.6,0.1-0.9,0.2c-0.3,0-0.6,0.1-0.9,0.1c-1,0-1.8-0.2-2.6-0.5c-0.8-0.3-1.4-0.8-1.9-1.3
		c-0.5-0.6-0.9-1.2-1.2-2c-0.3-0.8-0.4-1.6-0.4-2.6c0-1,0.1-1.9,0.4-2.7c0.3-0.8,0.7-1.5,1.3-2.1s1.2-1,1.9-1.3
		c0.8-0.3,1.6-0.5,2.5-0.5c0.5,0,0.9,0,1.3,0.1c0.4,0.1,0.8,0.2,1.1,0.3c0.3,0.1,0.6,0.3,0.8,0.4c0.2,0.1,0.4,0.3,0.5,0.3
		c0.1,0.1,0.1,0.2,0.2,0.2C116.6,361.2,116.7,361.4,116.7,361.5z"/>
	<path class="st3" d="M121.3,372.4c0,0,0,0.1,0,0.1c0,0-0.1,0.1-0.1,0.1c0,0-0.1,0-0.2,0c-0.1,0-0.2,0-0.3,0c-0.1,0-0.2,0-0.3,0
		c-0.1,0-0.1,0-0.2,0s-0.1,0-0.1-0.1c0,0,0-0.1,0-0.1v-12.3c0,0,0-0.1,0-0.1s0.1-0.1,0.1-0.1c0,0,0.1,0,0.2,0c0.1,0,0.2,0,0.3,0
		c0.1,0,0.2,0,0.3,0c0.1,0,0.1,0,0.2,0c0,0,0.1,0,0.1,0.1s0,0.1,0,0.1V372.4z"/>
	<path class="st3" d="M131.5,369.2c0,0.6-0.1,1.1-0.3,1.5s-0.5,0.8-0.9,1.1c-0.4,0.3-0.8,0.5-1.3,0.7s-1.1,0.2-1.7,0.2
		c-0.4,0-0.8,0-1.2-0.1c-0.4-0.1-0.7-0.2-1-0.3c-0.3-0.1-0.5-0.2-0.7-0.3c-0.2-0.1-0.3-0.2-0.4-0.3c-0.1-0.1-0.1-0.2-0.2-0.3
		s0-0.2,0-0.4c0-0.1,0-0.2,0-0.3c0-0.1,0-0.1,0.1-0.2c0,0,0.1-0.1,0.1-0.1c0,0,0.1,0,0.1,0c0.1,0,0.2,0.1,0.4,0.2
		c0.2,0.1,0.4,0.2,0.6,0.4c0.3,0.1,0.6,0.3,1,0.4c0.4,0.1,0.8,0.2,1.3,0.2c0.4,0,0.8-0.1,1.1-0.2c0.3-0.1,0.6-0.3,0.9-0.5
		c0.2-0.2,0.4-0.5,0.6-0.8c0.1-0.3,0.2-0.6,0.2-1c0-0.4-0.1-0.7-0.3-1c-0.2-0.3-0.4-0.5-0.7-0.7c-0.3-0.2-0.6-0.4-0.9-0.6
		c-0.4-0.2-0.7-0.3-1.1-0.5c-0.4-0.2-0.7-0.4-1.1-0.6s-0.7-0.4-0.9-0.7s-0.5-0.6-0.7-1c-0.2-0.4-0.3-0.8-0.3-1.3
		c0-0.5,0.1-0.9,0.3-1.3c0.2-0.4,0.4-0.7,0.7-1c0.3-0.3,0.7-0.5,1.2-0.6c0.4-0.1,0.9-0.2,1.5-0.2c0.3,0,0.5,0,0.8,0.1
		s0.5,0.1,0.8,0.2c0.2,0.1,0.5,0.2,0.7,0.3c0.2,0.1,0.3,0.2,0.4,0.2s0.1,0.1,0.1,0.1c0,0,0,0.1,0,0.1c0,0,0,0.1,0,0.2s0,0.1,0,0.2
		c0,0.1,0,0.2,0,0.2c0,0.1,0,0.1,0,0.2c0,0,0,0.1-0.1,0.1c0,0-0.1,0-0.1,0c-0.1,0-0.2,0-0.3-0.1c-0.1-0.1-0.3-0.2-0.6-0.3
		c-0.2-0.1-0.5-0.2-0.8-0.3c-0.3-0.1-0.7-0.1-1.1-0.1c-0.4,0-0.7,0.1-1,0.2c-0.3,0.1-0.5,0.2-0.7,0.4c-0.2,0.2-0.3,0.4-0.4,0.6
		c-0.1,0.2-0.1,0.5-0.1,0.8c0,0.4,0.1,0.7,0.3,1c0.2,0.3,0.4,0.5,0.7,0.7c0.3,0.2,0.6,0.4,1,0.6c0.4,0.2,0.7,0.3,1.1,0.5
		c0.4,0.2,0.7,0.4,1.1,0.6c0.4,0.2,0.7,0.4,1,0.7c0.3,0.3,0.5,0.6,0.7,1C131.4,368.3,131.5,368.7,131.5,369.2z"/>
	<path class="st3" d="M141.8,360.5c0,0.1,0,0.2,0,0.2s0,0.1-0.1,0.2c0,0-0.1,0.1-0.1,0.1c0,0-0.1,0-0.1,0h-3.8v11.5c0,0,0,0.1,0,0.1
		c0,0-0.1,0.1-0.1,0.1c0,0-0.1,0-0.2,0s-0.2,0-0.3,0c-0.1,0-0.2,0-0.3,0c-0.1,0-0.1,0-0.2,0c0,0-0.1,0-0.1-0.1c0,0,0-0.1,0-0.1V361
		h-3.8c-0.1,0-0.1,0-0.1,0c0,0-0.1-0.1-0.1-0.1c0,0,0-0.1-0.1-0.2s0-0.1,0-0.2c0-0.1,0-0.2,0-0.2c0-0.1,0-0.1,0.1-0.2
		s0.1-0.1,0.1-0.1c0,0,0.1,0,0.1,0h8.8c0,0,0.1,0,0.1,0c0,0,0.1,0.1,0.1,0.1c0,0,0,0.1,0.1,0.2C141.8,360.3,141.8,360.4,141.8,360.5
		z"/>
	<path class="st3" d="M151.8,372.4c0,0,0,0.1,0,0.1c0,0,0,0.1-0.1,0.1c0,0-0.1,0-0.2,0.1c-0.1,0-0.2,0-0.3,0c-0.1,0-0.2,0-0.3,0
		c-0.1,0-0.1,0-0.2-0.1c-0.1,0-0.1-0.1-0.1-0.1c0,0-0.1-0.1-0.1-0.2l-1.2-3.1c-0.1-0.3-0.3-0.7-0.4-1c-0.2-0.3-0.3-0.6-0.6-0.8
		c-0.2-0.2-0.5-0.4-0.8-0.5c-0.3-0.1-0.7-0.2-1.1-0.2H145v5.7c0,0,0,0.1,0,0.1c0,0-0.1,0.1-0.1,0.1c0,0-0.1,0-0.2,0
		c-0.1,0-0.2,0-0.3,0c-0.1,0-0.2,0-0.3,0s-0.1,0-0.2,0s-0.1,0-0.1-0.1c0,0,0-0.1,0-0.1v-11.9c0-0.2,0.1-0.4,0.2-0.5
		c0.1-0.1,0.2-0.1,0.4-0.1h2.4c0.3,0,0.6,0,0.8,0c0.2,0,0.4,0,0.6,0.1c0.5,0.1,0.9,0.2,1.3,0.4c0.4,0.2,0.7,0.4,0.9,0.7
		s0.4,0.6,0.5,0.9c0.1,0.4,0.2,0.7,0.2,1.1c0,0.4-0.1,0.8-0.2,1.1c-0.1,0.3-0.3,0.6-0.5,0.9c-0.2,0.3-0.5,0.5-0.8,0.7
		c-0.3,0.2-0.6,0.3-1,0.5c0.2,0.1,0.4,0.2,0.6,0.4c0.2,0.1,0.3,0.3,0.5,0.5c0.1,0.2,0.3,0.4,0.4,0.7c0.1,0.3,0.3,0.6,0.4,0.9l1.2,3
		c0.1,0.2,0.1,0.4,0.2,0.5C151.8,372.3,151.8,372.4,151.8,372.4z M149.6,363.3c0-0.5-0.1-1-0.4-1.4s-0.6-0.6-1.2-0.8
		c-0.2-0.1-0.4-0.1-0.6-0.1s-0.5,0-0.9,0H145v4.7h1.8c0.5,0,0.9-0.1,1.3-0.2c0.4-0.1,0.6-0.3,0.9-0.5c0.2-0.2,0.4-0.5,0.5-0.7
		C149.6,364,149.6,363.6,149.6,363.3z"/>
	<path class="st3" d="M161.3,372.1c0,0.1,0,0.2,0,0.2s0,0.1-0.1,0.2c0,0-0.1,0.1-0.1,0.1c0,0-0.1,0-0.1,0h-6c-0.1,0-0.2,0-0.4-0.1
		c-0.1-0.1-0.2-0.3-0.2-0.5v-11.5c0-0.2,0.1-0.4,0.2-0.5c0.1-0.1,0.2-0.1,0.4-0.1h5.9c0,0,0.1,0,0.1,0c0,0,0.1,0.1,0.1,0.1
		s0,0.1,0.1,0.2c0,0.1,0,0.1,0,0.2c0,0.1,0,0.2,0,0.2s0,0.1-0.1,0.2c0,0-0.1,0.1-0.1,0.1c0,0-0.1,0-0.1,0h-5.2v4.5h4.5
		c0.1,0,0.1,0,0.1,0c0,0,0.1,0.1,0.1,0.1c0,0,0,0.1,0.1,0.2c0,0.1,0,0.1,0,0.2c0,0.1,0,0.2,0,0.2c0,0.1,0,0.1-0.1,0.2
		s-0.1,0.1-0.1,0.1s-0.1,0-0.1,0h-4.5v5.1h5.3c0,0,0.1,0,0.1,0c0,0,0.1,0.1,0.1,0.1c0,0,0.1,0.1,0.1,0.2
		C161.3,371.9,161.3,372,161.3,372.1z"/>
</g>
<g class="st2">
	<path class="st3" d="M95.4,397.2c0,0.1,0,0.1,0,0.1c0,0-0.1,0.1-0.1,0.1c-0.1,0-0.2,0-0.3,0.1s-0.3,0-0.5,0c-0.2,0-0.3,0-0.4,0
		s-0.2,0-0.3-0.1c-0.1,0-0.1-0.1-0.2-0.1c0-0.1-0.1-0.1-0.1-0.2l-1.2-3c-0.1-0.3-0.3-0.7-0.4-0.9c-0.1-0.3-0.3-0.5-0.5-0.7
		c-0.2-0.2-0.4-0.4-0.7-0.5c-0.3-0.1-0.6-0.2-1-0.2h-1.1v5.4c0,0.1,0,0.1,0,0.1c0,0-0.1,0.1-0.1,0.1c-0.1,0-0.1,0-0.3,0.1
		c-0.1,0-0.2,0-0.4,0c-0.2,0-0.3,0-0.4,0c-0.1,0-0.2,0-0.3-0.1c-0.1,0-0.1-0.1-0.1-0.1c0,0,0-0.1,0-0.1v-11.8c0-0.3,0.1-0.4,0.2-0.5
		c0.1-0.1,0.3-0.2,0.4-0.2h2.7c0.3,0,0.6,0,0.8,0c0.2,0,0.4,0,0.6,0.1c0.5,0.1,0.9,0.2,1.3,0.4c0.4,0.2,0.7,0.4,0.9,0.7
		c0.3,0.3,0.4,0.6,0.6,1c0.1,0.4,0.2,0.8,0.2,1.2c0,0.4-0.1,0.8-0.2,1.1c-0.1,0.3-0.3,0.6-0.5,0.9s-0.5,0.5-0.8,0.7
		c-0.3,0.2-0.6,0.4-1,0.5c0.2,0.1,0.4,0.2,0.6,0.3c0.2,0.1,0.3,0.3,0.5,0.5c0.1,0.2,0.3,0.4,0.4,0.7c0.1,0.3,0.3,0.5,0.4,0.9
		l1.1,2.8c0.1,0.2,0.2,0.4,0.2,0.5C95.4,397.1,95.4,397.2,95.4,397.2z M92.8,388.3c0-0.5-0.1-0.9-0.3-1.3c-0.2-0.3-0.6-0.6-1.1-0.7
		c-0.2,0-0.3-0.1-0.6-0.1s-0.5,0-0.8,0h-1.4v4.3h1.7c0.4,0,0.8-0.1,1.2-0.2c0.3-0.1,0.6-0.3,0.8-0.5c0.2-0.2,0.4-0.4,0.5-0.7
		C92.8,388.9,92.8,388.6,92.8,388.3z"/>
	<path class="st3" d="M104.9,396.8c0,0.1,0,0.2,0,0.3c0,0.1,0,0.2-0.1,0.2s-0.1,0.1-0.1,0.1c0,0-0.1,0-0.1,0h-6.1
		c-0.2,0-0.3-0.1-0.4-0.2c-0.1-0.1-0.2-0.3-0.2-0.5v-11.4c0-0.3,0.1-0.4,0.2-0.5c0.1-0.1,0.3-0.2,0.4-0.2h6c0.1,0,0.1,0,0.1,0
		c0,0,0.1,0.1,0.1,0.1c0,0.1,0,0.1,0.1,0.2c0,0.1,0,0.2,0,0.3c0,0.1,0,0.2,0,0.3c0,0.1,0,0.2-0.1,0.2c0,0.1-0.1,0.1-0.1,0.1
		c0,0-0.1,0-0.1,0h-5v4h4.3c0.1,0,0.1,0,0.1,0c0,0,0.1,0.1,0.1,0.1c0,0.1,0.1,0.1,0.1,0.2s0,0.2,0,0.3c0,0.1,0,0.2,0,0.3
		s0,0.2-0.1,0.2c0,0.1-0.1,0.1-0.1,0.1c0,0-0.1,0-0.1,0h-4.3v4.6h5c0.1,0,0.1,0,0.1,0c0,0,0.1,0.1,0.1,0.1c0,0.1,0.1,0.1,0.1,0.2
		C104.9,396.6,104.9,396.7,104.9,396.8z"/>
	<path class="st3" d="M114.3,396.8c0,0.1,0,0.2,0,0.3c0,0.1,0,0.2-0.1,0.2c0,0.1-0.1,0.1-0.1,0.1c0,0-0.1,0-0.2,0h-5.6
		c-0.2,0-0.3-0.1-0.4-0.2c-0.1-0.1-0.2-0.3-0.2-0.5V385c0-0.1,0-0.1,0-0.1c0,0,0.1-0.1,0.1-0.1c0.1,0,0.2,0,0.3-0.1
		c0.1,0,0.2,0,0.4,0c0.2,0,0.3,0,0.4,0c0.1,0,0.2,0,0.3,0.1c0.1,0,0.1,0.1,0.1,0.1c0,0,0,0.1,0,0.1v11h4.6c0.1,0,0.1,0,0.2,0
		c0,0,0.1,0.1,0.1,0.1s0.1,0.1,0.1,0.2C114.3,396.5,114.3,396.6,114.3,396.8z"/>
	<path class="st3" d="M123.2,396.8c0,0.1,0,0.2,0,0.3c0,0.1,0,0.2-0.1,0.2c0,0.1-0.1,0.1-0.1,0.1c0,0-0.1,0-0.1,0h-6.1
		c-0.2,0-0.3-0.1-0.4-0.2c-0.1-0.1-0.2-0.3-0.2-0.5v-11.4c0-0.3,0.1-0.4,0.2-0.5c0.1-0.1,0.3-0.2,0.4-0.2h6c0.1,0,0.1,0,0.1,0
		c0,0,0.1,0.1,0.1,0.1c0,0.1,0,0.1,0.1,0.2c0,0.1,0,0.2,0,0.3c0,0.1,0,0.2,0,0.3c0,0.1,0,0.2-0.1,0.2c0,0.1-0.1,0.1-0.1,0.1
		c0,0-0.1,0-0.1,0h-5v4h4.3c0.1,0,0.1,0,0.1,0c0,0,0.1,0.1,0.1,0.1c0,0.1,0.1,0.1,0.1,0.2s0,0.2,0,0.3c0,0.1,0,0.2,0,0.3
		s0,0.2-0.1,0.2c0,0.1-0.1,0.1-0.1,0.1c0,0-0.1,0-0.1,0h-4.3v4.6h5c0.1,0,0.1,0,0.1,0c0,0,0.1,0.1,0.1,0.1c0,0.1,0.1,0.1,0.1,0.2
		C123.2,396.6,123.2,396.7,123.2,396.8z"/>
	<path class="st3" d="M139.9,397.2c0,0.1,0,0.1,0,0.1c0,0-0.1,0.1-0.1,0.1c-0.1,0-0.2,0-0.3,0.1c-0.1,0-0.2,0-0.4,0
		c-0.2,0-0.3,0-0.4,0c-0.1,0-0.2,0-0.3-0.1c-0.1,0-0.1-0.1-0.1-0.1c0,0,0-0.1,0-0.1v-11.1h0l-4.5,11.1c0,0,0,0.1-0.1,0.1
		s-0.1,0.1-0.2,0.1c-0.1,0-0.2,0-0.2,0c-0.1,0-0.2,0-0.3,0c-0.1,0-0.3,0-0.4,0c-0.1,0-0.2,0-0.2-0.1c-0.1,0-0.1-0.1-0.2-0.1
		c0,0-0.1-0.1-0.1-0.1l-4.3-11.1h0v11.1c0,0.1,0,0.1,0,0.1c0,0-0.1,0.1-0.1,0.1c-0.1,0-0.2,0-0.3,0.1c-0.1,0-0.2,0-0.4,0
		c-0.2,0-0.3,0-0.4,0c-0.1,0-0.2,0-0.3-0.1c-0.1,0-0.1-0.1-0.1-0.1c0,0,0-0.1,0-0.1v-11.7c0-0.3,0.1-0.5,0.2-0.6
		c0.1-0.1,0.3-0.2,0.5-0.2h1c0.2,0,0.4,0,0.6,0.1c0.2,0,0.3,0.1,0.4,0.2c0.1,0.1,0.2,0.2,0.3,0.3c0.1,0.1,0.1,0.3,0.2,0.5l3.6,9.2h0
		l3.8-9.2c0.1-0.2,0.2-0.4,0.2-0.5c0.1-0.1,0.2-0.2,0.3-0.3c0.1-0.1,0.2-0.1,0.3-0.2c0.1,0,0.3-0.1,0.4-0.1h1.1c0.1,0,0.2,0,0.3,0
		c0.1,0,0.2,0.1,0.2,0.1c0.1,0.1,0.1,0.1,0.2,0.2c0,0.1,0.1,0.2,0.1,0.3V397.2z"/>
	<path class="st3" d="M151.6,393.8c0,0.4-0.1,0.8-0.2,1.1c-0.1,0.3-0.2,0.6-0.4,0.9c-0.2,0.3-0.4,0.5-0.7,0.7
		c-0.3,0.2-0.6,0.4-0.9,0.5c-0.3,0.1-0.7,0.2-1,0.3c-0.4,0.1-0.8,0.1-1.3,0.1h-3.3c-0.2,0-0.3-0.1-0.4-0.2c-0.1-0.1-0.2-0.3-0.2-0.5
		v-11.4c0-0.3,0.1-0.4,0.2-0.5c0.1-0.1,0.3-0.2,0.4-0.2h2.9c0.8,0,1.4,0.1,1.9,0.2c0.5,0.1,0.9,0.4,1.2,0.6c0.3,0.3,0.6,0.6,0.7,1
		s0.2,0.9,0.2,1.4c0,0.3,0,0.6-0.1,0.9c-0.1,0.3-0.2,0.5-0.3,0.8c-0.1,0.2-0.3,0.4-0.5,0.6c-0.2,0.2-0.5,0.3-0.7,0.5
		c0.3,0.1,0.7,0.2,1,0.4s0.6,0.4,0.8,0.7c0.2,0.3,0.4,0.6,0.5,0.9C151.6,393,151.6,393.4,151.6,393.8z M149.1,388.1
		c0-0.3,0-0.6-0.1-0.8c-0.1-0.2-0.2-0.5-0.4-0.6c-0.2-0.2-0.4-0.3-0.7-0.4c-0.3-0.1-0.7-0.1-1.2-0.1h-1.7v4.1h1.9
		c0.4,0,0.8-0.1,1.1-0.2c0.3-0.1,0.5-0.3,0.7-0.5c0.2-0.2,0.3-0.4,0.4-0.7C149,388.7,149.1,388.4,149.1,388.1z M149.9,393.9
		c0-0.4-0.1-0.7-0.2-1c-0.1-0.3-0.3-0.5-0.5-0.7c-0.2-0.2-0.5-0.3-0.9-0.4c-0.4-0.1-0.8-0.2-1.3-0.2h-2v4.5h2.5c0.4,0,0.7,0,1-0.1
		c0.3-0.1,0.5-0.2,0.8-0.4c0.2-0.2,0.4-0.4,0.5-0.7C149.8,394.6,149.9,394.3,149.9,393.9z"/>
	<path class="st3" d="M162.7,397.2c0,0.1,0,0.1,0,0.1c0,0-0.1,0.1-0.1,0.1c-0.1,0-0.2,0-0.3,0.1c-0.1,0-0.3,0-0.5,0
		c-0.2,0-0.3,0-0.4,0c-0.1,0-0.2,0-0.3-0.1c-0.1,0-0.1-0.1-0.2-0.1c0-0.1-0.1-0.1-0.1-0.2l-1.2-3c-0.1-0.3-0.3-0.7-0.4-0.9
		c-0.1-0.3-0.3-0.5-0.5-0.7c-0.2-0.2-0.4-0.4-0.7-0.5s-0.6-0.2-1-0.2h-1.1v5.4c0,0.1,0,0.1,0,0.1c0,0-0.1,0.1-0.1,0.1
		c-0.1,0-0.1,0-0.3,0.1c-0.1,0-0.2,0-0.4,0c-0.2,0-0.3,0-0.4,0c-0.1,0-0.2,0-0.3-0.1c-0.1,0-0.1-0.1-0.1-0.1c0,0,0-0.1,0-0.1v-11.8
		c0-0.3,0.1-0.4,0.2-0.5c0.1-0.1,0.3-0.2,0.4-0.2h2.7c0.3,0,0.6,0,0.8,0c0.2,0,0.4,0,0.6,0.1c0.5,0.1,0.9,0.2,1.3,0.4
		c0.4,0.2,0.7,0.4,1,0.7c0.3,0.3,0.4,0.6,0.6,1c0.1,0.4,0.2,0.8,0.2,1.2c0,0.4-0.1,0.8-0.2,1.1c-0.1,0.3-0.3,0.6-0.5,0.9
		s-0.5,0.5-0.8,0.7c-0.3,0.2-0.6,0.4-1,0.5c0.2,0.1,0.4,0.2,0.6,0.3c0.2,0.1,0.3,0.3,0.5,0.5c0.1,0.2,0.3,0.4,0.4,0.7
		c0.1,0.3,0.3,0.5,0.4,0.9l1.1,2.8c0.1,0.2,0.2,0.4,0.2,0.5C162.7,397.1,162.7,397.2,162.7,397.2z M160.1,388.3
		c0-0.5-0.1-0.9-0.3-1.3c-0.2-0.3-0.6-0.6-1.1-0.7c-0.2,0-0.3-0.1-0.6-0.1c-0.2,0-0.5,0-0.8,0h-1.4v4.3h1.7c0.4,0,0.8-0.1,1.2-0.2
		c0.3-0.1,0.6-0.3,0.8-0.5c0.2-0.2,0.4-0.4,0.5-0.7C160.1,388.9,160.1,388.6,160.1,388.3z"/>
	<path class="st3" d="M172.2,396.8c0,0.1,0,0.2,0,0.3c0,0.1,0,0.2-0.1,0.2s-0.1,0.1-0.1,0.1c0,0-0.1,0-0.1,0h-6.1
		c-0.2,0-0.3-0.1-0.4-0.2c-0.1-0.1-0.2-0.3-0.2-0.5v-11.4c0-0.3,0.1-0.4,0.2-0.5c0.1-0.1,0.3-0.2,0.4-0.2h6c0.1,0,0.1,0,0.1,0
		c0,0,0.1,0.1,0.1,0.1s0,0.1,0.1,0.2c0,0.1,0,0.2,0,0.3c0,0.1,0,0.2,0,0.3c0,0.1,0,0.2-0.1,0.2s-0.1,0.1-0.1,0.1c0,0-0.1,0-0.1,0h-5
		v4h4.3c0.1,0,0.1,0,0.1,0c0,0,0.1,0.1,0.1,0.1c0,0.1,0.1,0.1,0.1,0.2s0,0.2,0,0.3c0,0.1,0,0.2,0,0.3s0,0.2-0.1,0.2
		c0,0.1-0.1,0.1-0.1,0.1c0,0-0.1,0-0.1,0h-4.3v4.6h5c0.1,0,0.1,0,0.1,0c0,0,0.1,0.1,0.1,0.1c0,0.1,0.1,0.1,0.1,0.2
		C172.2,396.6,172.2,396.7,172.2,396.8z"/>
</g>
<g class="st2">
	<path class="st3" d="M97,421.4c0.1,0.2,0.1,0.4,0.1,0.6s0,0.2-0.1,0.3c-0.1,0.1-0.2,0.1-0.4,0.1c-0.2,0-0.4,0-0.8,0
		c-0.3,0-0.6,0-0.8,0c-0.2,0-0.3,0-0.4-0.1c-0.1,0-0.2-0.1-0.2-0.1c0-0.1-0.1-0.1-0.1-0.2l-0.9-2.6h-4.8l-0.8,2.5
		c0,0.1-0.1,0.2-0.1,0.2c0,0.1-0.1,0.1-0.2,0.1c-0.1,0-0.2,0.1-0.4,0.1c-0.2,0-0.4,0-0.7,0c-0.3,0-0.5,0-0.7,0
		c-0.2,0-0.3-0.1-0.4-0.1c-0.1-0.1-0.1-0.2-0.1-0.3c0-0.1,0.1-0.3,0.1-0.6l3.9-11.3c0-0.1,0.1-0.2,0.1-0.3c0.1-0.1,0.1-0.1,0.3-0.2
		s0.3-0.1,0.5-0.1c0.2,0,0.5,0,0.8,0c0.4,0,0.7,0,0.9,0c0.2,0,0.4,0,0.5,0.1s0.2,0.1,0.3,0.2c0.1,0.1,0.1,0.2,0.1,0.3L97,421.4z
		 M91.2,412.1L91.2,412.1l-1.8,5.4H93L91.2,412.1z"/>
	<path class="st3" d="M107.5,413.5c0,0.7-0.1,1.3-0.3,1.9c-0.2,0.6-0.5,1-1,1.4c-0.4,0.4-0.9,0.7-1.6,0.9c-0.6,0.2-1.4,0.3-2.2,0.3
		h-1.1v4.1c0,0.1,0,0.1-0.1,0.2s-0.1,0.1-0.2,0.1s-0.2,0.1-0.4,0.1c-0.2,0-0.4,0-0.6,0c-0.2,0-0.5,0-0.6,0c-0.2,0-0.3,0-0.4-0.1
		c-0.1,0-0.2-0.1-0.2-0.1c0-0.1-0.1-0.1-0.1-0.2v-11.5c0-0.3,0.1-0.5,0.2-0.7c0.2-0.2,0.4-0.2,0.6-0.2h3c0.3,0,0.6,0,0.9,0
		c0.3,0,0.6,0.1,1,0.1c0.4,0.1,0.8,0.2,1.2,0.4c0.4,0.2,0.7,0.5,1,0.8c0.3,0.3,0.5,0.7,0.6,1.1C107.5,412.5,107.5,413,107.5,413.5z
		 M104.8,413.7c0-0.4-0.1-0.8-0.2-1.1c-0.2-0.3-0.4-0.5-0.6-0.6c-0.2-0.1-0.5-0.2-0.7-0.3c-0.3,0-0.5-0.1-0.8-0.1h-1.1v4.3h1.2
		c0.4,0,0.8-0.1,1-0.2c0.3-0.1,0.5-0.3,0.7-0.5c0.2-0.2,0.3-0.4,0.4-0.7S104.8,414,104.8,413.7z"/>
	<path class="st3" d="M119,422c0,0.1,0,0.1,0,0.2c0,0-0.1,0.1-0.2,0.1s-0.2,0.1-0.4,0.1c-0.2,0-0.4,0-0.8,0c-0.3,0-0.5,0-0.7,0
		c-0.2,0-0.3,0-0.4-0.1c-0.1,0-0.2-0.1-0.2-0.1s-0.1-0.1-0.1-0.2l-1.1-2.8c-0.1-0.3-0.3-0.6-0.4-0.9c-0.1-0.2-0.3-0.5-0.4-0.6
		c-0.2-0.2-0.3-0.3-0.6-0.4c-0.2-0.1-0.5-0.1-0.7-0.1h-0.8v4.9c0,0.1,0,0.1-0.1,0.2c0,0.1-0.1,0.1-0.2,0.1s-0.2,0.1-0.4,0.1
		c-0.2,0-0.4,0-0.6,0c-0.2,0-0.5,0-0.6,0c-0.2,0-0.3,0-0.4-0.1s-0.2-0.1-0.2-0.1c0-0.1-0.1-0.1-0.1-0.2v-11.6c0-0.3,0.1-0.5,0.2-0.6
		c0.1-0.1,0.3-0.2,0.5-0.2h3.3c0.3,0,0.6,0,0.8,0s0.4,0,0.6,0c0.5,0.1,1,0.2,1.4,0.4c0.4,0.2,0.8,0.4,1,0.7c0.3,0.3,0.5,0.6,0.7,1
		c0.2,0.4,0.2,0.8,0.2,1.3c0,0.4-0.1,0.8-0.2,1.2c-0.1,0.4-0.3,0.7-0.5,0.9c-0.2,0.3-0.5,0.5-0.8,0.7c-0.3,0.2-0.7,0.4-1.1,0.5
		c0.2,0.1,0.4,0.2,0.5,0.3c0.2,0.1,0.3,0.3,0.5,0.5c0.1,0.2,0.3,0.4,0.4,0.6c0.1,0.2,0.3,0.5,0.4,0.8l1.1,2.5
		c0.1,0.2,0.2,0.4,0.2,0.5S119,422,119,422z M115.7,413.4c0-0.4-0.1-0.8-0.3-1.1c-0.2-0.3-0.5-0.5-0.9-0.6c-0.1,0-0.3-0.1-0.4-0.1
		c-0.2,0-0.4,0-0.7,0h-1.2v3.6h1.3c0.4,0,0.7,0,1-0.1c0.3-0.1,0.5-0.2,0.7-0.4c0.2-0.2,0.3-0.4,0.4-0.6
		C115.6,413.9,115.7,413.7,115.7,413.4z"/>
	<path class="st3" d="M128.4,421.3c0,0.2,0,0.3,0,0.5c0,0.1,0,0.2-0.1,0.3c0,0.1-0.1,0.1-0.1,0.2c0,0-0.1,0.1-0.2,0.1h-6.4
		c-0.2,0-0.4-0.1-0.5-0.2c-0.1-0.1-0.2-0.3-0.2-0.6v-11.1c0-0.3,0.1-0.5,0.2-0.6c0.1-0.1,0.3-0.2,0.5-0.2h6.4c0.1,0,0.1,0,0.2,0
		c0,0,0.1,0.1,0.1,0.2c0,0.1,0.1,0.2,0.1,0.3c0,0.1,0,0.3,0,0.5c0,0.2,0,0.3,0,0.5c0,0.1,0,0.2-0.1,0.3s-0.1,0.1-0.1,0.2
		c0,0-0.1,0.1-0.2,0.1h-4.5v3.1h3.8c0.1,0,0.1,0,0.2,0.1c0,0,0.1,0.1,0.1,0.2c0,0.1,0.1,0.2,0.1,0.3c0,0.1,0,0.3,0,0.5
		c0,0.2,0,0.3,0,0.5c0,0.1,0,0.2-0.1,0.3c0,0.1-0.1,0.1-0.1,0.2c0,0-0.1,0-0.2,0h-3.8v3.6h4.6c0.1,0,0.1,0,0.2,0.1
		c0,0,0.1,0.1,0.1,0.2s0.1,0.2,0.1,0.3C128.4,421,128.4,421.2,128.4,421.3z"/>
	<path class="st3" d="M141.2,421.5c0,0.2,0,0.3-0.1,0.4s-0.1,0.2-0.2,0.3c-0.1,0.1-0.2,0.1-0.3,0.2c-0.1,0-0.2,0.1-0.4,0.1h-1.1
		c-0.2,0-0.4,0-0.6-0.1c-0.2,0-0.3-0.1-0.5-0.3c-0.1-0.1-0.3-0.3-0.4-0.5c-0.1-0.2-0.3-0.5-0.4-0.8l-3.2-6c-0.2-0.4-0.4-0.7-0.6-1.1
		c-0.2-0.4-0.4-0.8-0.5-1.2h0c0,0.5,0,0.9,0.1,1.4c0,0.5,0,1,0,1.5v6.7c0,0.1,0,0.1-0.1,0.2c0,0.1-0.1,0.1-0.2,0.1
		c-0.1,0-0.2,0.1-0.4,0.1c-0.2,0-0.3,0-0.6,0c-0.2,0-0.4,0-0.6,0c-0.2,0-0.3,0-0.4-0.1c-0.1,0-0.1-0.1-0.2-0.1c0-0.1,0-0.1,0-0.2
		v-11.4c0-0.3,0.1-0.5,0.3-0.7c0.2-0.2,0.4-0.2,0.7-0.2h1.4c0.2,0,0.5,0,0.6,0.1s0.3,0.1,0.5,0.2c0.1,0.1,0.3,0.2,0.4,0.4
		c0.1,0.2,0.2,0.4,0.4,0.6l2.5,4.7c0.1,0.3,0.3,0.6,0.4,0.8c0.1,0.3,0.3,0.5,0.4,0.8c0.1,0.3,0.3,0.5,0.4,0.8
		c0.1,0.3,0.2,0.5,0.4,0.8h0c0-0.5,0-0.9,0-1.4c0-0.5,0-1,0-1.4v-6c0-0.1,0-0.1,0.1-0.2s0.1-0.1,0.2-0.1c0.1,0,0.2-0.1,0.4-0.1
		c0.2,0,0.3,0,0.6,0c0.2,0,0.4,0,0.6,0c0.2,0,0.3,0,0.3,0.1c0.1,0,0.1,0.1,0.2,0.1c0,0.1,0,0.1,0,0.2V421.5z"/>
	<path class="st3" d="M154.6,415.8c0,1.2-0.2,2.2-0.5,3c-0.3,0.8-0.7,1.5-1.3,2c-0.6,0.5-1.3,0.9-2.1,1.2c-0.8,0.2-1.8,0.4-2.9,0.4
		h-3c-0.2,0-0.4-0.1-0.5-0.2c-0.1-0.1-0.2-0.3-0.2-0.6v-11.1c0-0.3,0.1-0.5,0.2-0.6c0.1-0.1,0.3-0.2,0.5-0.2h3.3
		c1.1,0,2.1,0.1,2.9,0.4c0.8,0.3,1.5,0.7,2,1.2c0.5,0.5,1,1.2,1.2,1.9C154.4,413.9,154.6,414.8,154.6,415.8z M151.9,415.9
		c0-0.6-0.1-1.2-0.2-1.7c-0.1-0.5-0.4-1-0.7-1.3c-0.3-0.4-0.7-0.7-1.2-0.9c-0.5-0.2-1.1-0.3-1.9-0.3h-1.3v8.7h1.3
		c0.7,0,1.3-0.1,1.8-0.3c0.5-0.2,0.9-0.5,1.2-0.8c0.3-0.4,0.6-0.8,0.7-1.4C151.8,417.3,151.9,416.6,151.9,415.9z"/>
	<path class="st3" d="M166.7,421.4c0.1,0.2,0.1,0.4,0.1,0.6s0,0.2-0.1,0.3c-0.1,0.1-0.2,0.1-0.4,0.1c-0.2,0-0.4,0-0.8,0
		c-0.3,0-0.6,0-0.8,0c-0.2,0-0.3,0-0.4-0.1c-0.1,0-0.2-0.1-0.2-0.1c0-0.1-0.1-0.1-0.1-0.2l-0.9-2.6h-4.8l-0.8,2.5
		c0,0.1-0.1,0.2-0.1,0.2c0,0.1-0.1,0.1-0.2,0.1c-0.1,0-0.2,0.1-0.4,0.1c-0.2,0-0.4,0-0.7,0c-0.3,0-0.5,0-0.7,0
		c-0.2,0-0.3-0.1-0.4-0.1c-0.1-0.1-0.1-0.2-0.1-0.3c0-0.1,0.1-0.3,0.1-0.6l3.9-11.3c0-0.1,0.1-0.2,0.1-0.3c0.1-0.1,0.1-0.1,0.3-0.2
		c0.1,0,0.3-0.1,0.5-0.1c0.2,0,0.5,0,0.8,0c0.4,0,0.7,0,0.9,0c0.2,0,0.4,0,0.5,0.1c0.1,0,0.2,0.1,0.3,0.2c0.1,0.1,0.1,0.2,0.1,0.3
		L166.7,421.4z M160.8,412.1L160.8,412.1l-1.8,5.4h3.6L160.8,412.1z"/>
</g>
<line id="Linha_2" class="st4" x1="74.6" y1="350.4" x2="74.6" y2="562.4"/>
</svg>
