<?xml version="1.0" encoding="utf-8"?>
<!-- Generator: Adobe Illustrator 24.3.0, SVG Export Plug-In . SVG Version: 6.00 Build 0)  -->
<svg version="1.1" id="Camada_1" xmlns="http://www.w3.org/2000/svg" xmlns:xlink="http://www.w3.org/1999/xlink" x="0px" y="0px"
	 viewBox="0 0 315 635" style="enable-background:new 0 0 315 635;" xml:space="preserve">
<style type="text/css">
	.st0{fill:#E5ECF0;}
	.st1{fill:none;}
	.st2{fill:#727D83;}
	.st3{fill:#EEFFF9;}
	.st4{fill:#DDF2EC;}
	.st5{fill:#FFFFFF;}
	.st6{fill:#148260;}
	.st7{fill:url(#SVGID_1_);}
	.st8{fill:#FFFFFF;stroke:#E8EBED;stroke-miterlimit:10;}
	.st9{fill:#2CBA8D;}
	.st10{fill:#C7CFD3;}
	.st11{fill:#E8EBED;}
	.st12{fill:#1CAE81;}
	.st13{fill:#FFFFFF;stroke:#E5ECF0;stroke-miterlimit:10;}
	.st14{fill:#FFCF8C;}
	.st15{fill:#B9C3C9;}
	.st16{fill:#E4EBF0;}
	.st17{fill:#3BB18A;}
	.st18{fill:#128260;}
	.st19{fill:#B9C2C8;}
	.st20{fill:#F9BE6D;}
	.st21{fill:#106449;}
	.st22{fill:#FCCE8C;}
	.st23{fill:#7F5018;}
	.st24{fill:none;stroke:#0B8360;stroke-width:4;stroke-miterlimit:10;}
	.st25{fill:#21AC80;}
	.st26{fill:#FABE6D;}
	.st27{fill:#E84B4D;}
	.st28{fill:#D9D9D9;}
	.st29{fill:#F6C3AC;}
	.st30{fill:#EA6F42;}
	.st31{fill:#DB9880;}
	.st32{fill:#ED8045;}
	.st33{fill:#AD5E4E;}
	.st34{fill:#9B4E41;}
	.st35{fill:#372736;}
	.st36{fill:#FF4848;}
	.st37{fill:#704E43;}
	.st38{fill:#FFFFFF;stroke:#B9C3C9;stroke-miterlimit:10;}
	.st39{fill:#F6BFA3;}
	.st40{fill:#E29F81;}
	.st41{fill:#44261B;}
	.st42{fill:#404040;}
</style>
<linearGradient id="SVGID_1_" gradientUnits="userSpaceOnUse" x1="171.321" y1="205.6046" x2="142.5409" y2="3.3861">
	<stop  offset="0" style="stop-color:#209E76"/>
	<stop  offset="6.139398e-02" style="stop-color:#1D9670"/>
	<stop  offset="0.21" style="stop-color:#188B67"/>
	<stop  offset="0.4192" style="stop-color:#158461"/>
	<stop  offset="1" style="stop-color:#148260"/>
</linearGradient>
<path class="st7" d="M0,217c0,0,6.2-27.6,33.5-30.2S315,157.2,315,157.2V0H0V217z"/>
<g>
	<path class="st5" d="M163.6,92V60.7l4.7-0.5v27.1l9.1-1v4.2L163.6,92z"/>
	<path class="st5" d="M190.9,89.1l-8.2,0.9c-1.7,0.2-2.6-0.6-2.6-2.2V72.6c0-1.7,0.9-2.6,2.6-2.8l8.2-0.9c1.7-0.2,2.5,0.6,2.5,2.2
		v15.2C193.5,88,192.6,89,190.9,89.1z M189,72.9l-4.3,0.5V86l4.3-0.5V72.9z"/>
	<path class="st5" d="M207.6,96.7l-7.9,0.8c-1.7,0.2-2.6-0.6-2.6-2.2v-3.2l4.4-0.5V94l4.1-0.4v-6.1l-4.7,0.5
		c-1.3,0.1-2.3-0.1-3.1-0.8c-0.7-0.7-1.1-1.6-1.1-2.8V72c0-1.2,0.3-2.1,1-2.9c0.7-0.7,1.6-1.1,2.7-1.3c0.3,0,0.6,0,0.9,0
		c0.3,0,0.6,0,0.9,0l3.5,0.3v-0.7l4.6-0.5v27C210.2,95.6,209.3,96.6,207.6,96.7z M205.6,71.4l-1.9,0c-0.1,0-0.3,0-0.5,0
		c-0.2,0-0.3,0-0.5,0c-1,0.1-1.4,0.6-1.4,1.6v9.7c0,1,0.5,1.5,1.5,1.4l2.8-0.3V71.4z"/>
	<path class="st5" d="M175.7,123.2c-0.7,0.8-1.8,1.3-3.1,1.4l-9.3,1V94.3l4.6-0.5v11.9l4.9-1.2c0.2-0.1,0.5-0.2,0.8-0.2
		c0.3-0.1,0.5-0.1,0.7-0.1c1.7-0.2,2.5,0.6,2.5,2.2v13.8C176.8,121.4,176.5,122.4,175.7,123.2z M172.3,108.3l-4.3,0.5v12.5l2.8-0.3
		c1-0.1,1.5-0.7,1.5-1.7V108.3z"/>
	<path class="st5" d="M190.9,122.7l-8.2,0.9c-1.7,0.2-2.6-0.6-2.6-2.2v-15.2c0-1.7,0.9-2.6,2.6-2.8l8.2-0.9c1.7-0.2,2.5,0.6,2.5,2.2
		V120C193.5,121.6,192.6,122.5,190.9,122.7z M189,106.5l-4.3,0.5v12.6l4.3-0.5V106.5z"/>
	<path class="st5" d="M207.6,121l-8.2,0.9c-1.7,0.2-2.6-0.6-2.6-2.2v-15.2c0-1.7,0.9-2.6,2.6-2.8l8.2-0.9c1.7-0.2,2.5,0.6,2.5,2.2
		v15.2C210.1,119.9,209.3,120.8,207.6,121z M205.6,104.8l-4.3,0.5v12.6l4.3-0.5V104.8z"/>
	<path class="st5" d="M222,119.5l-4-8.8v9.3l-4.6,0.5V89l4.6-0.5v18.8l3.6-8.1l4.8-0.5v0.1l-4.7,9.7l5.2,10.3v0.1L222,119.5z"/>
	<g>
		<path class="st5" d="M147.5,127.3l-41.5,4.4c-2,0.2-3.7-1.3-3.7-3.3V67.1l52.6-5.5V119C155,123.2,151.6,126.9,147.5,127.3z
			 M106.2,70.6V128l41.3-4.6c2-0.2,3.6-2,3.6-3.9V65.9L106.2,70.6z"/>
	</g>
	<path class="st5" d="M135.6,55.7L93,60.2c-1.1,0.1-2,1.1-2,2.2v61.5c0,1.3,0.7,2.4,1.8,2.9l36.4,17.6v-15.8l-3.9,0.4v9L95,123.5
		V66.9l8.1,4l2-3.5l-7.5-3.7l38.1-4V55.7z"/>
	<g>
		<path class="st5" d="M108.7,131.2l17.3-1.6l-0.3,5.6c0,0,1,4,0.3,4S108.7,131.2,108.7,131.2z"/>
	</g>
	<polygon class="st5" points="213.4,75.7 218,75.3 218,79.8 213.4,80.3 	"/>
	<polygon class="st5" points="122.8,103.9 119.6,101.1 141.5,76.9 144.6,79.7 	"/>
	<polygon class="st5" points="111,93.4 114.1,89.9 125.9,100.4 122.8,103.9 	"/>
	<polygon class="st5" points="138.9,90.3 142.1,93.2 128.1,108.7 124.9,105.8 	"/>
	<polygon class="st5" points="137.2,102.9 140.4,105.7 133.4,113.4 130.2,110.6 	"/>
	<polygon class="st5" points="98.4,64.6 136.8,60.5 138.4,60.9 99.4,65.1 	"/>
	<polygon class="st5" points="100.3,66 140.8,61.7 142.1,62.1 101.2,66.5 	"/>
</g>
<rect x="33.3" y="255" class="st8" width="248.5" height="36.2"/>
<g>
	<g>
		<path class="st2" d="M42.1,246.2c0,0.2,0,0.3,0,0.5c0,0.1,0,0.2-0.1,0.3c0,0.1-0.1,0.1-0.1,0.2s-0.1,0.1-0.2,0.1h-6.3
			c-0.2,0-0.4-0.1-0.5-0.2s-0.2-0.3-0.2-0.6v-11c0-0.3,0.1-0.5,0.2-0.6s0.3-0.2,0.5-0.2h6.3c0.1,0,0.1,0,0.2,0c0,0,0.1,0.1,0.1,0.2
			c0,0.1,0.1,0.2,0.1,0.3c0,0.1,0,0.3,0,0.5c0,0.2,0,0.3,0,0.5c0,0.1,0,0.2-0.1,0.3c0,0.1-0.1,0.1-0.1,0.2c0,0-0.1,0.1-0.2,0.1h-4.5
			v3.1H41c0.1,0,0.1,0,0.2,0.1s0.1,0.1,0.1,0.2c0,0.1,0.1,0.2,0.1,0.3c0,0.1,0,0.3,0,0.5c0,0.2,0,0.3,0,0.5c0,0.1,0,0.2-0.1,0.3
			c0,0.1-0.1,0.1-0.1,0.2s-0.1,0-0.2,0h-3.8v3.6h4.6c0.1,0,0.1,0,0.2,0.1s0.1,0.1,0.1,0.2c0,0.1,0.1,0.2,0.1,0.3
			C42.1,245.9,42.1,246.1,42.1,246.2z"/>
		<path class="st2" d="M48.2,242.3c0,0.4,0,0.6-0.1,0.8c-0.1,0.1-0.2,0.2-0.3,0.2h-4.1c-0.2,0-0.3-0.1-0.4-0.2
			c-0.1-0.2-0.1-0.4-0.1-0.8c0-0.4,0-0.6,0.1-0.8c0.1-0.1,0.2-0.2,0.4-0.2h4.1c0.1,0,0.1,0,0.2,0c0.1,0,0.1,0.1,0.1,0.2
			s0.1,0.2,0.1,0.3C48.2,242,48.2,242.2,48.2,242.3z"/>
		<path class="st2" d="M63.8,246.9c0,0.1,0,0.1-0.1,0.2s-0.1,0.1-0.2,0.1c-0.1,0-0.2,0.1-0.4,0.1s-0.4,0-0.6,0c-0.2,0-0.4,0-0.6,0
			s-0.3,0-0.4-0.1c-0.1,0-0.2-0.1-0.2-0.1c0,0-0.1-0.1-0.1-0.2v-5.2c0-0.3,0-0.6-0.1-0.8c-0.1-0.2-0.1-0.4-0.3-0.6
			c-0.1-0.2-0.3-0.3-0.4-0.4c-0.2-0.1-0.4-0.1-0.6-0.1c-0.3,0-0.6,0.1-0.9,0.3c-0.3,0.2-0.6,0.6-1,1v5.8c0,0.1,0,0.1-0.1,0.2
			s-0.1,0.1-0.2,0.1c-0.1,0-0.2,0.1-0.4,0.1s-0.4,0-0.6,0c-0.2,0-0.4,0-0.6,0s-0.3,0-0.4-0.1c-0.1,0-0.2-0.1-0.2-0.1
			s-0.1-0.1-0.1-0.2v-5.2c0-0.3,0-0.6-0.1-0.8c-0.1-0.2-0.1-0.4-0.2-0.6c-0.1-0.2-0.3-0.3-0.4-0.4s-0.4-0.1-0.6-0.1
			c-0.3,0-0.6,0.1-0.9,0.3c-0.3,0.2-0.6,0.6-1,1v5.8c0,0.1,0,0.1-0.1,0.2s-0.1,0.1-0.2,0.1c-0.1,0-0.2,0.1-0.4,0.1s-0.4,0-0.6,0
			c-0.2,0-0.4,0-0.6,0s-0.3,0-0.4-0.1c-0.1,0-0.2-0.1-0.2-0.1S50,247,50,246.9v-8.7c0-0.1,0-0.1,0-0.2c0,0,0.1-0.1,0.2-0.1
			c0.1,0,0.2-0.1,0.3-0.1c0.1,0,0.3,0,0.5,0c0.2,0,0.4,0,0.5,0s0.2,0,0.3,0.1c0.1,0,0.1,0.1,0.2,0.1c0,0,0,0.1,0,0.2v1
			c0.5-0.5,1-0.9,1.4-1.2s1-0.4,1.5-0.4c0.4,0,0.7,0,1,0.1c0.3,0.1,0.5,0.2,0.8,0.3s0.4,0.3,0.6,0.5c0.2,0.2,0.3,0.4,0.4,0.7
			c0.3-0.3,0.5-0.5,0.8-0.7c0.3-0.2,0.5-0.4,0.7-0.5s0.5-0.2,0.7-0.3s0.5-0.1,0.7-0.1c0.6,0,1.1,0.1,1.5,0.3c0.4,0.2,0.7,0.5,1,0.8
			s0.4,0.7,0.5,1.2c0.1,0.4,0.2,0.9,0.2,1.4V246.9z"/>
		<path class="st2" d="M73.7,247c0,0.1,0,0.2-0.1,0.2c-0.1,0.1-0.2,0.1-0.3,0.1c-0.1,0-0.3,0-0.6,0c-0.3,0-0.5,0-0.6,0
			c-0.1,0-0.2-0.1-0.3-0.1c-0.1-0.1-0.1-0.1-0.1-0.2v-0.7c-0.4,0.4-0.8,0.7-1.2,0.9s-1,0.3-1.5,0.3c-0.5,0-0.9-0.1-1.3-0.2
			c-0.4-0.1-0.7-0.3-1-0.5s-0.5-0.5-0.7-0.9s-0.2-0.8-0.2-1.2c0-0.5,0.1-0.9,0.3-1.3c0.2-0.4,0.5-0.7,0.9-0.9
			c0.4-0.2,0.9-0.4,1.5-0.5s1.3-0.2,2-0.2h0.8v-0.5c0-0.3,0-0.5-0.1-0.7c-0.1-0.2-0.1-0.4-0.3-0.5s-0.3-0.2-0.5-0.3
			c-0.2-0.1-0.5-0.1-0.8-0.1c-0.4,0-0.8,0-1.1,0.1s-0.6,0.2-0.9,0.3c-0.2,0.1-0.5,0.2-0.6,0.3s-0.3,0.1-0.4,0.1
			c-0.1,0-0.1,0-0.2-0.1c-0.1,0-0.1-0.1-0.1-0.2c0-0.1-0.1-0.2-0.1-0.3s0-0.3,0-0.4c0-0.2,0-0.4,0-0.5c0-0.1,0.1-0.2,0.2-0.3
			c0.1-0.1,0.3-0.2,0.5-0.3c0.2-0.1,0.5-0.2,0.8-0.3c0.3-0.1,0.6-0.2,1-0.2s0.7-0.1,1.1-0.1c0.7,0,1.3,0.1,1.8,0.2
			c0.5,0.1,0.9,0.3,1.2,0.6s0.5,0.6,0.7,1.1c0.1,0.4,0.2,1,0.2,1.6V247z M71.3,243.2h-0.9c-0.4,0-0.7,0-1,0.1
			c-0.3,0.1-0.5,0.1-0.7,0.3s-0.3,0.3-0.4,0.4c-0.1,0.2-0.1,0.4-0.1,0.6c0,0.4,0.1,0.7,0.3,0.9c0.2,0.2,0.6,0.3,1,0.3
			c0.3,0,0.7-0.1,1-0.3c0.3-0.2,0.6-0.4,0.9-0.8V243.2z"/>
		<path class="st2" d="M78.8,235.3c0,0.5-0.1,0.8-0.3,1c-0.2,0.2-0.6,0.3-1.1,0.3c-0.6,0-0.9-0.1-1.1-0.3c-0.2-0.2-0.3-0.5-0.3-1
			c0-0.5,0.1-0.8,0.3-1c0.2-0.2,0.6-0.3,1.1-0.3c0.5,0,0.9,0.1,1.1,0.3S78.8,234.8,78.8,235.3z M78.6,246.9c0,0.1,0,0.1-0.1,0.2
			s-0.1,0.1-0.2,0.1c-0.1,0-0.2,0.1-0.4,0.1s-0.4,0-0.6,0c-0.2,0-0.4,0-0.6,0s-0.3,0-0.4-0.1c-0.1,0-0.2-0.1-0.2-0.1
			s-0.1-0.1-0.1-0.2v-8.7c0-0.1,0-0.1,0.1-0.2s0.1-0.1,0.2-0.1c0.1,0,0.2-0.1,0.4-0.1s0.4,0,0.6,0c0.2,0,0.4,0,0.6,0s0.3,0,0.4,0.1
			c0.1,0,0.2,0.1,0.2,0.1s0.1,0.1,0.1,0.2V246.9z"/>
		<path class="st2" d="M83.5,246.9c0,0.1,0,0.1-0.1,0.2s-0.1,0.1-0.2,0.1c-0.1,0-0.2,0.1-0.4,0.1s-0.4,0-0.6,0c-0.2,0-0.4,0-0.6,0
			s-0.3,0-0.4-0.1c-0.1,0-0.2-0.1-0.2-0.1S81,247,81,246.9v-12.8c0-0.1,0-0.1,0.1-0.2s0.1-0.1,0.2-0.1c0.1,0,0.2-0.1,0.4-0.1
			s0.4,0,0.6,0c0.2,0,0.4,0,0.6,0s0.3,0,0.4,0.1c0.1,0,0.2,0.1,0.2,0.1s0.1,0.1,0.1,0.2V246.9z"/>
	</g>
</g>
<rect x="33.3" y="324" class="st8" width="248.5" height="36.2"/>
<g>
	<g>
		<path class="st2" d="M43.3,307.4c0,0.7-0.1,1.3-0.3,1.9c-0.2,0.5-0.5,1-1,1.4c-0.4,0.4-0.9,0.7-1.6,0.9s-1.3,0.3-2.2,0.3h-1.1v4
			c0,0.1,0,0.1-0.1,0.2c0,0.1-0.1,0.1-0.2,0.1s-0.2,0.1-0.4,0.1c-0.2,0-0.4,0-0.6,0c-0.2,0-0.5,0-0.6,0s-0.3,0-0.4-0.1
			s-0.2-0.1-0.2-0.1s-0.1-0.1-0.1-0.2v-11.4c0-0.3,0.1-0.5,0.2-0.7c0.2-0.2,0.4-0.2,0.6-0.2h3c0.3,0,0.6,0,0.9,0
			c0.3,0,0.6,0.1,1,0.1c0.4,0.1,0.8,0.2,1.1,0.4c0.4,0.2,0.7,0.5,1,0.8s0.5,0.7,0.6,1.1C43.2,306.4,43.3,306.9,43.3,307.4z
			 M40.6,307.6c0-0.4-0.1-0.8-0.2-1.1s-0.3-0.5-0.6-0.6c-0.2-0.1-0.5-0.2-0.7-0.3c-0.3,0-0.5-0.1-0.8-0.1h-1.1v4.3h1.2
			c0.4,0,0.8-0.1,1-0.2c0.3-0.1,0.5-0.3,0.7-0.5s0.3-0.4,0.4-0.7C40.6,308.2,40.6,307.9,40.6,307.6z"/>
		<path class="st2" d="M52.2,315.9c0,0.1,0,0.2-0.1,0.2c-0.1,0.1-0.2,0.1-0.3,0.1c-0.1,0-0.3,0-0.6,0c-0.3,0-0.5,0-0.6,0
			c-0.1,0-0.2-0.1-0.3-0.1c-0.1-0.1-0.1-0.1-0.1-0.2v-0.7c-0.4,0.4-0.8,0.7-1.2,0.9s-1,0.3-1.5,0.3c-0.5,0-0.9-0.1-1.3-0.2
			c-0.4-0.1-0.7-0.3-1-0.5s-0.5-0.5-0.7-0.9s-0.2-0.8-0.2-1.2c0-0.5,0.1-0.9,0.3-1.3c0.2-0.4,0.5-0.7,0.9-0.9
			c0.4-0.2,0.9-0.4,1.5-0.5s1.3-0.2,2-0.2h0.8v-0.5c0-0.3,0-0.5-0.1-0.7c-0.1-0.2-0.1-0.4-0.3-0.5s-0.3-0.2-0.5-0.3
			c-0.2-0.1-0.5-0.1-0.8-0.1c-0.4,0-0.8,0-1.1,0.1s-0.6,0.2-0.9,0.3c-0.2,0.1-0.5,0.2-0.6,0.3s-0.3,0.1-0.4,0.1
			c-0.1,0-0.1,0-0.2-0.1c-0.1,0-0.1-0.1-0.1-0.2c0-0.1-0.1-0.2-0.1-0.3s0-0.3,0-0.4c0-0.2,0-0.4,0-0.5c0-0.1,0.1-0.2,0.2-0.3
			c0.1-0.1,0.3-0.2,0.5-0.3c0.2-0.1,0.5-0.2,0.8-0.3c0.3-0.1,0.6-0.2,1-0.2s0.7-0.1,1.1-0.1c0.7,0,1.3,0.1,1.8,0.2
			c0.5,0.1,0.9,0.3,1.2,0.6s0.5,0.6,0.7,1.1c0.1,0.4,0.2,1,0.2,1.6V315.9z M49.8,312.2h-0.9c-0.4,0-0.7,0-1,0.1
			c-0.3,0.1-0.5,0.1-0.7,0.3s-0.3,0.3-0.4,0.4c-0.1,0.2-0.1,0.4-0.1,0.6c0,0.4,0.1,0.7,0.3,0.9c0.2,0.2,0.6,0.3,1,0.3
			c0.3,0,0.7-0.1,1-0.3c0.3-0.2,0.6-0.4,0.9-0.8V312.2z"/>
		<path class="st2" d="M60.8,313.4c0,0.5-0.1,0.9-0.3,1.3s-0.4,0.7-0.8,0.9c-0.3,0.3-0.7,0.4-1.2,0.6c-0.5,0.1-1,0.2-1.5,0.2
			c-0.3,0-0.6,0-0.9-0.1c-0.3,0-0.6-0.1-0.8-0.2s-0.4-0.2-0.6-0.2s-0.3-0.2-0.3-0.2c-0.1-0.1-0.1-0.2-0.2-0.3s-0.1-0.4-0.1-0.6
			c0-0.2,0-0.3,0-0.5c0-0.1,0-0.2,0.1-0.3c0-0.1,0.1-0.1,0.1-0.1s0.1,0,0.1,0c0.1,0,0.2,0,0.3,0.1c0.1,0.1,0.3,0.2,0.5,0.3
			c0.2,0.1,0.5,0.2,0.7,0.3c0.3,0.1,0.6,0.1,0.9,0.1c0.2,0,0.4,0,0.6-0.1c0.2,0,0.3-0.1,0.4-0.2s0.2-0.2,0.3-0.3
			c0.1-0.1,0.1-0.3,0.1-0.4c0-0.2-0.1-0.4-0.2-0.5c-0.1-0.1-0.3-0.3-0.5-0.4c-0.2-0.1-0.4-0.2-0.7-0.3c-0.3-0.1-0.5-0.2-0.8-0.3
			s-0.5-0.2-0.8-0.4c-0.3-0.1-0.5-0.3-0.7-0.5c-0.2-0.2-0.4-0.5-0.5-0.8c-0.1-0.3-0.2-0.6-0.2-1.1c0-0.4,0.1-0.8,0.2-1.1
			c0.2-0.3,0.4-0.6,0.7-0.9c0.3-0.2,0.7-0.4,1.1-0.6s0.9-0.2,1.5-0.2c0.3,0,0.5,0,0.8,0.1c0.3,0,0.5,0.1,0.7,0.1
			c0.2,0.1,0.4,0.1,0.5,0.2c0.1,0.1,0.2,0.1,0.3,0.2c0.1,0,0.1,0.1,0.1,0.1c0,0,0,0.1,0.1,0.2c0,0.1,0,0.2,0,0.3s0,0.2,0,0.4
			c0,0.2,0,0.3,0,0.4s0,0.2,0,0.3c0,0.1-0.1,0.1-0.1,0.1s-0.1,0-0.1,0c-0.1,0-0.1,0-0.3-0.1c-0.1-0.1-0.3-0.1-0.5-0.2
			s-0.4-0.2-0.6-0.2s-0.5-0.1-0.8-0.1c-0.2,0-0.4,0-0.6,0.1c-0.2,0-0.3,0.1-0.4,0.2c-0.1,0.1-0.2,0.2-0.2,0.3
			c-0.1,0.1-0.1,0.2-0.1,0.4c0,0.2,0.1,0.4,0.2,0.5c0.1,0.1,0.3,0.3,0.5,0.4c0.2,0.1,0.4,0.2,0.7,0.3c0.3,0.1,0.5,0.2,0.8,0.3
			s0.5,0.2,0.8,0.4c0.3,0.1,0.5,0.3,0.7,0.5c0.2,0.2,0.4,0.5,0.5,0.7C60.7,312.7,60.8,313,60.8,313.4z"/>
		<path class="st2" d="M68.7,313.4c0,0.5-0.1,0.9-0.3,1.3s-0.4,0.7-0.8,0.9c-0.3,0.3-0.7,0.4-1.2,0.6c-0.5,0.1-1,0.2-1.5,0.2
			c-0.3,0-0.6,0-0.9-0.1c-0.3,0-0.6-0.1-0.8-0.2s-0.4-0.2-0.6-0.2s-0.3-0.2-0.3-0.2c-0.1-0.1-0.1-0.2-0.2-0.3s-0.1-0.4-0.1-0.6
			c0-0.2,0-0.3,0-0.5c0-0.1,0-0.2,0.1-0.3c0-0.1,0.1-0.1,0.1-0.1s0.1,0,0.1,0c0.1,0,0.2,0,0.3,0.1c0.1,0.1,0.3,0.2,0.5,0.3
			c0.2,0.1,0.5,0.2,0.7,0.3c0.3,0.1,0.6,0.1,0.9,0.1c0.2,0,0.4,0,0.6-0.1c0.2,0,0.3-0.1,0.4-0.2s0.2-0.2,0.3-0.3
			c0.1-0.1,0.1-0.3,0.1-0.4c0-0.2-0.1-0.4-0.2-0.5c-0.1-0.1-0.3-0.3-0.5-0.4c-0.2-0.1-0.4-0.2-0.7-0.3c-0.3-0.1-0.5-0.2-0.8-0.3
			s-0.5-0.2-0.8-0.4c-0.3-0.1-0.5-0.3-0.7-0.5c-0.2-0.2-0.4-0.5-0.5-0.8c-0.1-0.3-0.2-0.6-0.2-1.1c0-0.4,0.1-0.8,0.2-1.1
			c0.2-0.3,0.4-0.6,0.7-0.9c0.3-0.2,0.7-0.4,1.1-0.6s0.9-0.2,1.5-0.2c0.3,0,0.5,0,0.8,0.1c0.3,0,0.5,0.1,0.7,0.1
			c0.2,0.1,0.4,0.1,0.5,0.2c0.1,0.1,0.2,0.1,0.3,0.2c0.1,0,0.1,0.1,0.1,0.1c0,0,0,0.1,0.1,0.2c0,0.1,0,0.2,0,0.3s0,0.2,0,0.4
			c0,0.2,0,0.3,0,0.4s0,0.2,0,0.3c0,0.1-0.1,0.1-0.1,0.1s-0.1,0-0.1,0c-0.1,0-0.1,0-0.3-0.1c-0.1-0.1-0.3-0.1-0.5-0.2
			s-0.4-0.2-0.6-0.2s-0.5-0.1-0.8-0.1c-0.2,0-0.4,0-0.6,0.1c-0.2,0-0.3,0.1-0.4,0.2c-0.1,0.1-0.2,0.2-0.2,0.3
			c-0.1,0.1-0.1,0.2-0.1,0.4c0,0.2,0.1,0.4,0.2,0.5c0.1,0.1,0.3,0.3,0.5,0.4c0.2,0.1,0.4,0.2,0.7,0.3c0.3,0.1,0.5,0.2,0.8,0.3
			s0.5,0.2,0.8,0.4c0.3,0.1,0.5,0.3,0.7,0.5c0.2,0.2,0.4,0.5,0.5,0.7C68.7,312.7,68.7,313,68.7,313.4z"/>
		<path class="st2" d="M83.8,307.1c0,0.1,0,0.2,0,0.3s-0.1,0.3-0.1,0.4l-2.3,7.9c0,0.1-0.1,0.2-0.1,0.3c-0.1,0.1-0.1,0.1-0.2,0.2
			s-0.3,0.1-0.5,0.1c-0.2,0-0.5,0-0.8,0c-0.3,0-0.6,0-0.8,0c-0.2,0-0.4,0-0.5-0.1c-0.1,0-0.2-0.1-0.2-0.2c-0.1-0.1-0.1-0.2-0.1-0.3
			l-1.5-5.3l0-0.1l0,0.1l-1.3,5.3c0,0.1-0.1,0.2-0.1,0.3s-0.1,0.1-0.2,0.2s-0.3,0.1-0.5,0.1c-0.2,0-0.5,0-0.8,0c-0.3,0-0.6,0-0.8,0
			c-0.2,0-0.4,0-0.5-0.1c-0.1,0-0.2-0.1-0.2-0.2c-0.1-0.1-0.1-0.2-0.1-0.3l-2.3-7.9c-0.1-0.2-0.1-0.3-0.1-0.4c0-0.1,0-0.2,0-0.3
			c0-0.1,0-0.1,0.1-0.2c0,0,0.1-0.1,0.2-0.1c0.1,0,0.2-0.1,0.4-0.1c0.2,0,0.4,0,0.6,0c0.3,0,0.5,0,0.6,0c0.2,0,0.3,0,0.4,0.1
			c0.1,0,0.2,0.1,0.2,0.1c0,0.1,0.1,0.1,0.1,0.2l1.7,6.4l0,0.1l0-0.1l1.6-6.4c0-0.1,0.1-0.1,0.1-0.2c0-0.1,0.1-0.1,0.2-0.1
			c0.1,0,0.2-0.1,0.4-0.1c0.2,0,0.4,0,0.6,0c0.2,0,0.4,0,0.6,0c0.2,0,0.3,0,0.4,0.1s0.2,0.1,0.2,0.1c0,0,0.1,0.1,0.1,0.2l1.7,6.4
			l0,0.1l0-0.1l1.7-6.4c0-0.1,0-0.1,0.1-0.2s0.1-0.1,0.2-0.1c0.1,0,0.2-0.1,0.4-0.1s0.4,0,0.6,0c0.2,0,0.4,0,0.6,0
			c0.2,0,0.3,0,0.4,0.1s0.1,0.1,0.2,0.1C83.8,307,83.8,307.1,83.8,307.1z"/>
		<path class="st2" d="M94,311.4c0,0.7-0.1,1.4-0.3,2s-0.5,1.1-0.9,1.6c-0.4,0.4-0.9,0.8-1.5,1c-0.6,0.2-1.3,0.4-2.1,0.4
			c-0.8,0-1.4-0.1-2-0.3c-0.6-0.2-1-0.5-1.4-0.9c-0.4-0.4-0.7-0.9-0.8-1.5c-0.2-0.6-0.3-1.3-0.3-2.1c0-0.7,0.1-1.4,0.3-2
			c0.2-0.6,0.5-1.1,0.9-1.6c0.4-0.4,0.9-0.8,1.5-1s1.3-0.4,2.1-0.4c0.8,0,1.5,0.1,2,0.3c0.6,0.2,1,0.5,1.4,0.9
			c0.4,0.4,0.7,0.9,0.8,1.5C93.9,309.9,94,310.6,94,311.4z M91.5,311.5c0-0.4,0-0.8-0.1-1.2s-0.2-0.7-0.3-0.9
			c-0.2-0.3-0.4-0.5-0.6-0.6c-0.3-0.1-0.6-0.2-1-0.2c-0.4,0-0.7,0.1-1,0.2s-0.5,0.3-0.7,0.6s-0.3,0.6-0.4,0.9s-0.1,0.8-0.1,1.2
			c0,0.4,0,0.8,0.1,1.2c0.1,0.4,0.2,0.7,0.3,0.9c0.2,0.3,0.4,0.5,0.6,0.6s0.6,0.2,1,0.2c0.4,0,0.7-0.1,1-0.2s0.5-0.3,0.7-0.6
			s0.3-0.6,0.4-0.9C91.5,312.4,91.5,312,91.5,311.5z"/>
		<path class="st2" d="M101.6,308c0,0.2,0,0.4,0,0.6c0,0.1,0,0.3-0.1,0.4c0,0.1-0.1,0.1-0.1,0.2c0,0-0.1,0-0.2,0c-0.1,0-0.1,0-0.2,0
			c-0.1,0-0.1,0-0.2-0.1c-0.1,0-0.2-0.1-0.3-0.1s-0.2,0-0.3,0c-0.1,0-0.3,0-0.4,0.1s-0.3,0.1-0.4,0.3s-0.3,0.3-0.5,0.5
			c-0.2,0.2-0.3,0.4-0.5,0.7v5.4c0,0.1,0,0.1-0.1,0.2s-0.1,0.1-0.2,0.1c-0.1,0-0.2,0.1-0.4,0.1s-0.4,0-0.6,0c-0.2,0-0.4,0-0.6,0
			s-0.3,0-0.4-0.1c-0.1,0-0.2-0.1-0.2-0.1s-0.1-0.1-0.1-0.2v-8.7c0-0.1,0-0.1,0-0.2c0,0,0.1-0.1,0.2-0.1c0.1,0,0.2-0.1,0.3-0.1
			c0.1,0,0.3,0,0.5,0c0.2,0,0.4,0,0.5,0s0.2,0,0.3,0.1c0.1,0,0.1,0.1,0.2,0.1c0,0,0,0.1,0,0.2v1.1c0.2-0.3,0.4-0.6,0.6-0.8
			c0.2-0.2,0.4-0.4,0.6-0.5c0.2-0.1,0.4-0.2,0.5-0.3c0.2,0,0.4-0.1,0.5-0.1c0.1,0,0.2,0,0.3,0s0.2,0,0.3,0c0.1,0,0.2,0,0.3,0.1
			s0.1,0.1,0.2,0.1c0,0,0.1,0.1,0.1,0.1c0,0,0,0.1,0,0.2c0,0.1,0,0.2,0,0.3C101.6,307.5,101.6,307.7,101.6,308z"/>
		<path class="st2" d="M111.1,315.9c0,0.1,0,0.1,0,0.2c0,0-0.1,0.1-0.2,0.1s-0.2,0.1-0.3,0.1c-0.1,0-0.3,0-0.5,0c-0.2,0-0.4,0-0.5,0
			c-0.1,0-0.2,0-0.3-0.1c-0.1,0-0.1-0.1-0.2-0.1c0,0-0.1-0.1-0.1-0.2v-1c-0.4,0.5-0.9,0.9-1.4,1.1c-0.5,0.3-1,0.4-1.6,0.4
			c-0.7,0-1.2-0.1-1.7-0.4s-0.8-0.6-1.1-1c-0.3-0.4-0.5-0.9-0.6-1.5c-0.1-0.6-0.2-1.2-0.2-1.8c0-0.8,0.1-1.5,0.2-2.1
			s0.4-1.1,0.7-1.6c0.3-0.4,0.7-0.8,1.2-1c0.5-0.2,1-0.4,1.6-0.4c0.5,0,0.9,0.1,1.3,0.3c0.4,0.2,0.8,0.5,1.2,0.9V303
			c0-0.1,0-0.1,0.1-0.2c0-0.1,0.1-0.1,0.2-0.1c0.1,0,0.2-0.1,0.4-0.1s0.4,0,0.6,0c0.2,0,0.4,0,0.6,0s0.3,0,0.4,0.1
			c0.1,0,0.2,0.1,0.2,0.1s0.1,0.1,0.1,0.2V315.9z M108.7,310c-0.4-0.4-0.7-0.8-1-1s-0.7-0.4-1-0.4c-0.3,0-0.6,0.1-0.8,0.2
			c-0.2,0.2-0.4,0.4-0.6,0.6c-0.1,0.3-0.2,0.6-0.3,0.9s-0.1,0.7-0.1,1c0,0.4,0,0.7,0.1,1.1s0.2,0.7,0.3,0.9c0.1,0.3,0.3,0.5,0.5,0.6
			c0.2,0.2,0.5,0.2,0.8,0.2c0.2,0,0.3,0,0.5-0.1c0.2,0,0.3-0.1,0.5-0.2s0.3-0.3,0.5-0.4s0.4-0.4,0.6-0.7V310z"/>
	</g>
</g>
<g>
	<g>
		<path class="st9" d="M223.3,377.3c0,0.2,0,0.3,0,0.5c0,0.1,0,0.2-0.1,0.3c0,0.1-0.1,0.1-0.1,0.2c0,0-0.1,0.1-0.2,0.1h-6.3
			c-0.2,0-0.4-0.1-0.5-0.2s-0.2-0.3-0.2-0.6v-11c0-0.3,0.1-0.5,0.2-0.6s0.3-0.2,0.5-0.2h6.3c0.1,0,0.1,0,0.2,0c0,0,0.1,0.1,0.1,0.2
			c0,0.1,0.1,0.2,0.1,0.3c0,0.1,0,0.3,0,0.5c0,0.2,0,0.3,0,0.5c0,0.1,0,0.2-0.1,0.3c0,0.1-0.1,0.1-0.1,0.2c0,0-0.1,0.1-0.2,0.1h-4.5
			v3.1h3.8c0.1,0,0.1,0,0.2,0.1c0,0,0.1,0.1,0.1,0.2c0,0.1,0.1,0.2,0.1,0.3c0,0.1,0,0.3,0,0.5c0,0.2,0,0.3,0,0.5
			c0,0.1,0,0.2-0.1,0.3c0,0.1-0.1,0.1-0.1,0.2c0,0-0.1,0-0.2,0h-3.8v3.6h4.6c0.1,0,0.1,0,0.2,0.1c0,0,0.1,0.1,0.1,0.2
			c0,0.1,0.1,0.2,0.1,0.3C223.3,376.9,223.3,377.1,223.3,377.3z"/>
		<path class="st9" d="M231.6,375.5c0,0.5-0.1,0.9-0.3,1.3c-0.2,0.4-0.4,0.7-0.8,0.9c-0.3,0.3-0.7,0.4-1.2,0.6
			c-0.5,0.1-1,0.2-1.5,0.2c-0.3,0-0.6,0-0.9-0.1c-0.3,0-0.6-0.1-0.8-0.2c-0.2-0.1-0.4-0.2-0.6-0.2s-0.3-0.2-0.3-0.2
			c-0.1-0.1-0.1-0.2-0.2-0.3s-0.1-0.4-0.1-0.6c0-0.2,0-0.3,0-0.5c0-0.1,0-0.2,0.1-0.3c0-0.1,0.1-0.1,0.1-0.1c0,0,0.1,0,0.1,0
			c0.1,0,0.2,0,0.3,0.1c0.1,0.1,0.3,0.2,0.5,0.3c0.2,0.1,0.5,0.2,0.7,0.3c0.3,0.1,0.6,0.1,0.9,0.1c0.2,0,0.4,0,0.6-0.1
			c0.2,0,0.3-0.1,0.4-0.2c0.1-0.1,0.2-0.2,0.3-0.3c0.1-0.1,0.1-0.3,0.1-0.4c0-0.2-0.1-0.4-0.2-0.5c-0.1-0.1-0.3-0.3-0.5-0.4
			c-0.2-0.1-0.4-0.2-0.7-0.3c-0.3-0.1-0.5-0.2-0.8-0.3c-0.3-0.1-0.5-0.2-0.8-0.4c-0.3-0.1-0.5-0.3-0.7-0.5c-0.2-0.2-0.4-0.5-0.5-0.8
			c-0.1-0.3-0.2-0.6-0.2-1.1c0-0.4,0.1-0.8,0.2-1.1c0.2-0.3,0.4-0.6,0.7-0.9c0.3-0.2,0.7-0.4,1.1-0.6s0.9-0.2,1.5-0.2
			c0.3,0,0.5,0,0.8,0.1c0.3,0,0.5,0.1,0.7,0.1c0.2,0.1,0.4,0.1,0.5,0.2c0.1,0.1,0.2,0.1,0.3,0.2c0.1,0,0.1,0.1,0.1,0.1
			c0,0,0,0.1,0.1,0.2c0,0.1,0,0.2,0,0.3c0,0.1,0,0.2,0,0.4c0,0.2,0,0.3,0,0.4c0,0.1,0,0.2,0,0.3c0,0.1-0.1,0.1-0.1,0.1
			c0,0-0.1,0-0.1,0c-0.1,0-0.1,0-0.3-0.1c-0.1-0.1-0.3-0.1-0.5-0.2s-0.4-0.2-0.6-0.2s-0.5-0.1-0.8-0.1c-0.2,0-0.4,0-0.6,0.1
			c-0.2,0-0.3,0.1-0.4,0.2c-0.1,0.1-0.2,0.2-0.2,0.3c-0.1,0.1-0.1,0.2-0.1,0.4c0,0.2,0.1,0.4,0.2,0.5c0.1,0.1,0.3,0.3,0.5,0.4
			c0.2,0.1,0.4,0.2,0.7,0.3c0.3,0.1,0.5,0.2,0.8,0.3s0.5,0.2,0.8,0.4c0.3,0.1,0.5,0.3,0.7,0.5c0.2,0.2,0.4,0.5,0.5,0.7
			C231.5,374.8,231.6,375.1,231.6,375.5z"/>
		<path class="st9" d="M241.7,381.4c0,0.1,0,0.1-0.1,0.2c0,0.1-0.1,0.1-0.2,0.1c-0.1,0-0.2,0.1-0.4,0.1s-0.4,0-0.6,0
			c-0.2,0-0.4,0-0.6,0s-0.3,0-0.4-0.1c-0.1,0-0.2-0.1-0.2-0.1c0-0.1-0.1-0.1-0.1-0.2v-4.1c-0.2,0.2-0.5,0.4-0.7,0.6
			c-0.2,0.2-0.4,0.3-0.7,0.4c-0.2,0.1-0.4,0.2-0.7,0.2c-0.2,0-0.5,0.1-0.7,0.1c-0.6,0-1.2-0.1-1.6-0.4c-0.4-0.3-0.8-0.6-1.1-1
			c-0.3-0.4-0.5-0.9-0.6-1.5c-0.1-0.6-0.2-1.2-0.2-1.8c0-0.8,0.1-1.5,0.3-2.1c0.2-0.6,0.4-1.1,0.7-1.6c0.3-0.4,0.7-0.8,1.2-1
			c0.5-0.2,1-0.4,1.7-0.4c0.2,0,0.5,0,0.7,0.1c0.2,0,0.4,0.1,0.7,0.3c0.2,0.1,0.5,0.3,0.7,0.5c0.2,0.2,0.5,0.4,0.8,0.7v-0.9
			c0-0.1,0-0.1,0.1-0.2c0,0,0.1-0.1,0.2-0.1c0.1,0,0.2-0.1,0.3-0.1c0.1,0,0.3,0,0.5,0c0.2,0,0.4,0,0.5,0c0.1,0,0.2,0,0.3,0.1
			c0.1,0,0.1,0.1,0.2,0.1c0,0,0,0.1,0,0.2V381.4z M239.2,372.1c-0.4-0.4-0.7-0.8-1-1s-0.7-0.4-1-0.4c-0.3,0-0.6,0.1-0.8,0.2
			c-0.2,0.2-0.4,0.4-0.6,0.6c-0.1,0.3-0.2,0.6-0.3,0.9c-0.1,0.3-0.1,0.7-0.1,1c0,0.4,0,0.7,0.1,1.1c0.1,0.3,0.2,0.7,0.3,0.9
			c0.1,0.3,0.3,0.5,0.5,0.6c0.2,0.2,0.5,0.2,0.8,0.2c0.2,0,0.3,0,0.5-0.1c0.2,0,0.3-0.1,0.5-0.2c0.2-0.1,0.3-0.3,0.5-0.4
			c0.2-0.2,0.4-0.4,0.6-0.7V372.1z"/>
		<path class="st9" d="M252.4,378c0,0.1,0,0.1,0,0.2c0,0-0.1,0.1-0.2,0.1c-0.1,0-0.2,0.1-0.3,0.1c-0.1,0-0.3,0-0.5,0
			c-0.2,0-0.4,0-0.5,0c-0.1,0-0.2,0-0.3-0.1c-0.1,0-0.1-0.1-0.2-0.1c0,0,0-0.1,0-0.2v-1c-0.5,0.5-1,0.9-1.5,1.2
			c-0.5,0.3-1,0.4-1.5,0.4c-0.6,0-1.1-0.1-1.5-0.3c-0.4-0.2-0.7-0.5-1-0.8c-0.3-0.3-0.4-0.7-0.5-1.2c-0.1-0.4-0.2-1-0.2-1.7v-5.3
			c0-0.1,0-0.1,0.1-0.2c0,0,0.1-0.1,0.2-0.1c0.1,0,0.2-0.1,0.4-0.1c0.2,0,0.4,0,0.6,0c0.2,0,0.4,0,0.6,0c0.2,0,0.3,0,0.4,0.1
			c0.1,0,0.2,0.1,0.2,0.1s0.1,0.1,0.1,0.2v4.9c0,0.5,0,0.8,0.1,1c0.1,0.2,0.1,0.4,0.3,0.6c0.1,0.2,0.3,0.3,0.5,0.4
			c0.2,0.1,0.4,0.1,0.6,0.1c0.3,0,0.6-0.1,0.9-0.3c0.3-0.2,0.7-0.6,1-1v-5.8c0-0.1,0-0.1,0.1-0.2c0,0,0.1-0.1,0.2-0.1
			c0.1,0,0.2-0.1,0.4-0.1c0.2,0,0.4,0,0.6,0c0.2,0,0.4,0,0.6,0c0.2,0,0.3,0,0.4,0.1c0.1,0,0.2,0.1,0.2,0.1s0.1,0.1,0.1,0.2V378z"/>
		<path class="st9" d="M262.9,373.3c0,0.3-0.1,0.5-0.2,0.7c-0.1,0.1-0.3,0.2-0.6,0.2h-5.3c0,0.4,0,0.7,0.1,1s0.2,0.6,0.4,0.8
			c0.2,0.2,0.4,0.4,0.7,0.5c0.3,0.1,0.7,0.2,1.1,0.2c0.4,0,0.8,0,1.1-0.1c0.3-0.1,0.6-0.1,0.8-0.2c0.2-0.1,0.4-0.1,0.6-0.2
			c0.2-0.1,0.3-0.1,0.4-0.1c0.1,0,0.1,0,0.1,0c0,0,0.1,0.1,0.1,0.1c0,0.1,0,0.1,0.1,0.2s0,0.2,0,0.4c0,0.1,0,0.3,0,0.4
			c0,0.1,0,0.2,0,0.3c0,0.1,0,0.1-0.1,0.2c0,0-0.1,0.1-0.1,0.1c0,0-0.2,0.1-0.3,0.2c-0.2,0.1-0.4,0.2-0.7,0.2
			c-0.3,0.1-0.6,0.1-1,0.2c-0.4,0.1-0.8,0.1-1.2,0.1c-0.8,0-1.5-0.1-2-0.3c-0.6-0.2-1.1-0.5-1.5-0.9c-0.4-0.4-0.7-0.9-0.9-1.5
			c-0.2-0.6-0.3-1.3-0.3-2.1c0-0.8,0.1-1.5,0.3-2.1c0.2-0.6,0.5-1.1,0.9-1.6c0.4-0.4,0.9-0.8,1.4-1c0.6-0.2,1.2-0.3,1.9-0.3
			c0.7,0,1.4,0.1,1.9,0.3s0.9,0.5,1.3,0.9s0.6,0.8,0.7,1.4c0.2,0.5,0.2,1.1,0.2,1.7V373.3z M260.5,372.6c0-0.7-0.1-1.2-0.4-1.6
			c-0.3-0.4-0.8-0.6-1.4-0.6c-0.3,0-0.6,0.1-0.8,0.2c-0.2,0.1-0.4,0.3-0.6,0.5c-0.2,0.2-0.3,0.4-0.4,0.7c-0.1,0.3-0.1,0.6-0.1,0.9
			H260.5z"/>
		<path class="st9" d="M271.5,376.6c0,0.2,0,0.3,0,0.4c0,0.1,0,0.2,0,0.3c0,0.1,0,0.1-0.1,0.2c0,0-0.1,0.1-0.2,0.2
			c-0.1,0.1-0.2,0.2-0.4,0.3c-0.2,0.1-0.4,0.2-0.6,0.3c-0.2,0.1-0.5,0.2-0.8,0.2c-0.3,0.1-0.6,0.1-0.9,0.1c-0.7,0-1.3-0.1-1.8-0.3
			c-0.5-0.2-1-0.5-1.3-0.9c-0.4-0.4-0.6-0.9-0.8-1.5c-0.2-0.6-0.3-1.3-0.3-2c0-0.9,0.1-1.6,0.3-2.3c0.2-0.6,0.5-1.2,0.9-1.6
			c0.4-0.4,0.9-0.7,1.4-0.9c0.5-0.2,1.1-0.3,1.8-0.3c0.3,0,0.5,0,0.8,0.1c0.3,0,0.5,0.1,0.7,0.2c0.2,0.1,0.4,0.2,0.6,0.3
			c0.2,0.1,0.3,0.2,0.4,0.3c0.1,0.1,0.1,0.1,0.2,0.2s0.1,0.1,0.1,0.2c0,0.1,0,0.2,0,0.3c0,0.1,0,0.3,0,0.4c0,0.4,0,0.6-0.1,0.8
			c-0.1,0.2-0.1,0.2-0.3,0.2c-0.1,0-0.2,0-0.4-0.1c-0.1-0.1-0.3-0.2-0.4-0.3c-0.2-0.1-0.4-0.2-0.6-0.3c-0.2-0.1-0.5-0.1-0.8-0.1
			c-0.6,0-1.1,0.2-1.5,0.7c-0.3,0.5-0.5,1.2-0.5,2.2c0,0.5,0,0.9,0.1,1.2c0.1,0.4,0.2,0.7,0.4,0.9c0.2,0.2,0.4,0.4,0.6,0.5
			c0.3,0.1,0.5,0.2,0.9,0.2c0.3,0,0.6,0,0.9-0.2c0.2-0.1,0.5-0.2,0.6-0.3c0.2-0.1,0.3-0.2,0.5-0.3c0.1-0.1,0.2-0.2,0.3-0.2
			c0.1,0,0.1,0,0.1,0c0,0,0.1,0.1,0.1,0.2c0,0.1,0,0.2,0.1,0.3C271.5,376.2,271.5,376.4,271.5,376.6z"/>
		<path class="st9" d="M276,366.3c0,0.5-0.1,0.8-0.3,1c-0.2,0.2-0.6,0.3-1.1,0.3c-0.6,0-0.9-0.1-1.1-0.3c-0.2-0.2-0.3-0.5-0.3-1
			c0-0.5,0.1-0.8,0.3-1c0.2-0.2,0.6-0.3,1.1-0.3c0.5,0,0.9,0.1,1.1,0.3S276,365.8,276,366.3z M275.8,378c0,0.1,0,0.1-0.1,0.2
			s-0.1,0.1-0.2,0.1c-0.1,0-0.2,0.1-0.4,0.1c-0.2,0-0.4,0-0.6,0c-0.2,0-0.4,0-0.6,0c-0.2,0-0.3,0-0.4-0.1c-0.1,0-0.2-0.1-0.2-0.1
			s-0.1-0.1-0.1-0.2v-8.7c0-0.1,0-0.1,0.1-0.2s0.1-0.1,0.2-0.1c0.1,0,0.2-0.1,0.4-0.1s0.4,0,0.6,0c0.2,0,0.4,0,0.6,0s0.3,0,0.4,0.1
			c0.1,0,0.2,0.1,0.2,0.1s0.1,0.1,0.1,0.2V378z"/>
		<path class="st9" d="M282,377c0,0.3,0,0.5-0.1,0.7c0,0.2-0.1,0.3-0.2,0.4c-0.1,0.1-0.2,0.2-0.4,0.2s-0.4,0.1-0.7,0.1
			c-0.3,0-0.5,0-0.7-0.1c-0.2,0-0.3-0.1-0.4-0.2c-0.1-0.1-0.2-0.3-0.2-0.4c0-0.2-0.1-0.4-0.1-0.7c0-0.3,0-0.5,0.1-0.7
			c0-0.2,0.1-0.3,0.2-0.4c0.1-0.1,0.2-0.2,0.4-0.2c0.2,0,0.4-0.1,0.7-0.1c0.3,0,0.5,0,0.7,0.1s0.3,0.1,0.4,0.2
			c0.1,0.1,0.2,0.3,0.2,0.4C282,376.5,282,376.7,282,377z M281.7,374.1c0,0.1,0,0.1-0.1,0.2c0,0.1-0.1,0.1-0.2,0.1
			c-0.1,0-0.2,0.1-0.3,0.1c-0.1,0-0.3,0-0.5,0c-0.2,0-0.4,0-0.5,0s-0.2,0-0.3-0.1c-0.1,0-0.1-0.1-0.2-0.1c0-0.1-0.1-0.1-0.1-0.2
			l-0.3-8.9c0-0.1,0-0.2,0.1-0.2c0-0.1,0.1-0.1,0.2-0.2c0.1,0,0.2-0.1,0.4-0.1c0.2,0,0.4,0,0.6,0c0.3,0,0.5,0,0.6,0
			c0.2,0,0.3,0.1,0.4,0.1c0.1,0,0.2,0.1,0.2,0.2c0,0.1,0.1,0.1,0.1,0.2L281.7,374.1z"/>
	</g>
</g>
<g>
	<g>
		<path class="st10" d="M129.7,506.5c0,0.1,0,0.3-0.1,0.4c-0.1,0.1-0.1,0.2-0.2,0.3s-0.2,0.1-0.3,0.2c-0.1,0-0.2,0.1-0.4,0.1h-1.1
			c-0.2,0-0.4,0-0.6-0.1c-0.2,0-0.3-0.1-0.5-0.2c-0.1-0.1-0.3-0.3-0.4-0.5c-0.1-0.2-0.3-0.5-0.4-0.8l-3.1-5.9
			c-0.2-0.4-0.4-0.7-0.6-1.1c-0.2-0.4-0.4-0.8-0.5-1.2h0c0,0.5,0,0.9,0.1,1.4c0,0.5,0,0.9,0,1.4v6.6c0,0.1,0,0.1-0.1,0.2
			c0,0.1-0.1,0.1-0.2,0.1c-0.1,0-0.2,0.1-0.4,0.1c-0.2,0-0.3,0-0.6,0c-0.2,0-0.4,0-0.6,0c-0.2,0-0.3,0-0.4-0.1
			c-0.1,0-0.1-0.1-0.2-0.1c0-0.1,0-0.1,0-0.2v-11.4c0-0.3,0.1-0.5,0.3-0.7c0.2-0.2,0.4-0.2,0.7-0.2h1.4c0.2,0,0.5,0,0.6,0.1
			c0.2,0,0.3,0.1,0.5,0.2c0.1,0.1,0.3,0.2,0.4,0.4c0.1,0.2,0.2,0.4,0.4,0.6l2.5,4.6c0.1,0.3,0.3,0.6,0.4,0.8
			c0.1,0.3,0.3,0.5,0.4,0.8c0.1,0.3,0.3,0.5,0.4,0.8c0.1,0.3,0.2,0.5,0.4,0.8h0c0-0.5,0-0.9,0-1.4c0-0.5,0-1,0-1.4v-5.9
			c0-0.1,0-0.1,0.1-0.2c0-0.1,0.1-0.1,0.2-0.1c0.1,0,0.2-0.1,0.4-0.1c0.1,0,0.3,0,0.6,0c0.2,0,0.4,0,0.6,0c0.1,0,0.3,0,0.3,0.1
			c0.1,0,0.1,0.1,0.2,0.1c0,0.1,0,0.1,0,0.2V506.5z"/>
		<path class="st10" d="M141.2,502.6c0,0.7-0.1,1.4-0.3,2c-0.2,0.6-0.5,1.1-0.9,1.6c-0.4,0.4-0.9,0.8-1.5,1
			c-0.6,0.2-1.3,0.4-2.1,0.4c-0.8,0-1.4-0.1-2-0.3c-0.6-0.2-1-0.5-1.4-0.9c-0.4-0.4-0.7-0.9-0.8-1.5c-0.2-0.6-0.3-1.3-0.3-2.1
			c0-0.7,0.1-1.4,0.3-2c0.2-0.6,0.5-1.1,0.9-1.6c0.4-0.4,0.9-0.8,1.5-1c0.6-0.2,1.3-0.4,2.1-0.4c0.8,0,1.5,0.1,2,0.3
			c0.6,0.2,1,0.5,1.4,0.9c0.4,0.4,0.7,0.9,0.8,1.5C141.1,501.1,141.2,501.8,141.2,502.6z M138.6,502.7c0-0.4,0-0.8-0.1-1.2
			s-0.2-0.7-0.3-0.9c-0.2-0.3-0.4-0.5-0.6-0.6c-0.3-0.2-0.6-0.2-1-0.2c-0.4,0-0.7,0.1-1,0.2c-0.3,0.1-0.5,0.3-0.7,0.6
			c-0.2,0.3-0.3,0.6-0.4,0.9s-0.1,0.8-0.1,1.2c0,0.4,0,0.8,0.1,1.2c0.1,0.4,0.2,0.7,0.3,0.9c0.2,0.3,0.4,0.5,0.6,0.6s0.6,0.2,1,0.2
			c0.4,0,0.7-0.1,1-0.2c0.3-0.1,0.5-0.3,0.7-0.6s0.3-0.6,0.4-0.9C138.6,503.6,138.6,503.2,138.6,502.7z"/>
		<path class="st10" d="M151.1,498.3c0,0,0,0.1,0,0.1c0,0,0,0.1,0,0.2c0,0.1,0,0.1,0,0.2c0,0.1,0,0.2-0.1,0.2l-2.6,7.9
			c0,0.1-0.1,0.2-0.1,0.3c-0.1,0.1-0.1,0.1-0.3,0.2s-0.3,0.1-0.5,0.1c-0.2,0-0.5,0-0.9,0c-0.3,0-0.6,0-0.8,0c-0.2,0-0.4,0-0.5-0.1
			c-0.1,0-0.2-0.1-0.3-0.2c-0.1-0.1-0.1-0.2-0.1-0.3l-2.6-7.9c0-0.1-0.1-0.2-0.1-0.4c0-0.1,0-0.2,0-0.2c0,0,0-0.1,0-0.1
			c0-0.1,0-0.1,0.1-0.2c0,0,0.1-0.1,0.2-0.1c0.1,0,0.2-0.1,0.4-0.1c0.2,0,0.4,0,0.6,0c0.3,0,0.5,0,0.6,0c0.2,0,0.3,0,0.4,0.1
			c0.1,0,0.2,0.1,0.2,0.1c0,0.1,0.1,0.1,0.1,0.2l2,6.4l0.1,0.2l0.1-0.2l2-6.4c0-0.1,0-0.1,0.1-0.2c0-0.1,0.1-0.1,0.2-0.1
			c0.1,0,0.2-0.1,0.4-0.1c0.2,0,0.4,0,0.6,0c0.2,0,0.4,0,0.6,0c0.2,0,0.3,0,0.4,0.1c0.1,0,0.1,0.1,0.2,0.1
			C151,498.2,151.1,498.3,151.1,498.3z"/>
		<path class="st10" d="M161.1,502.6c0,0.7-0.1,1.4-0.3,2c-0.2,0.6-0.5,1.1-0.9,1.6c-0.4,0.4-0.9,0.8-1.5,1
			c-0.6,0.2-1.3,0.4-2.1,0.4c-0.8,0-1.4-0.1-2-0.3c-0.6-0.2-1-0.5-1.4-0.9c-0.4-0.4-0.7-0.9-0.8-1.5c-0.2-0.6-0.3-1.3-0.3-2.1
			c0-0.7,0.1-1.4,0.3-2c0.2-0.6,0.5-1.1,0.9-1.6c0.4-0.4,0.9-0.8,1.5-1c0.6-0.2,1.3-0.4,2.1-0.4c0.8,0,1.5,0.1,2,0.3
			c0.6,0.2,1,0.5,1.4,0.9c0.4,0.4,0.7,0.9,0.8,1.5C161,501.1,161.1,501.8,161.1,502.6z M158.6,502.7c0-0.4,0-0.8-0.1-1.2
			s-0.2-0.7-0.3-0.9c-0.2-0.3-0.4-0.5-0.6-0.6c-0.3-0.2-0.6-0.2-1-0.2c-0.4,0-0.7,0.1-1,0.2c-0.3,0.1-0.5,0.3-0.7,0.6
			c-0.2,0.3-0.3,0.6-0.4,0.9s-0.1,0.8-0.1,1.2c0,0.4,0,0.8,0.1,1.2c0.1,0.4,0.2,0.7,0.3,0.9c0.2,0.3,0.4,0.5,0.6,0.6s0.6,0.2,1,0.2
			c0.4,0,0.7-0.1,1-0.2c0.3-0.1,0.5-0.3,0.7-0.6s0.3-0.6,0.4-0.9C158.6,503.6,158.6,503.2,158.6,502.7z"/>
		<path class="st10" d="M175,507.1c0,0.1,0,0.2-0.1,0.2c-0.1,0.1-0.2,0.1-0.3,0.1c-0.1,0-0.3,0-0.6,0c-0.3,0-0.5,0-0.6,0
			c-0.1,0-0.2-0.1-0.3-0.1c-0.1-0.1-0.1-0.1-0.1-0.2v-0.7c-0.4,0.4-0.8,0.7-1.2,0.9s-1,0.3-1.5,0.3c-0.5,0-0.9-0.1-1.3-0.2
			c-0.4-0.1-0.7-0.3-1-0.5c-0.3-0.2-0.5-0.5-0.7-0.9s-0.2-0.8-0.2-1.2c0-0.5,0.1-0.9,0.3-1.3c0.2-0.4,0.5-0.7,0.9-0.9
			c0.4-0.2,0.9-0.4,1.5-0.5s1.3-0.2,2-0.2h0.8v-0.5c0-0.3,0-0.5-0.1-0.7c-0.1-0.2-0.1-0.4-0.3-0.5s-0.3-0.2-0.5-0.3
			c-0.2-0.1-0.5-0.1-0.8-0.1c-0.4,0-0.8,0-1.1,0.1c-0.3,0.1-0.6,0.2-0.9,0.3c-0.2,0.1-0.5,0.2-0.6,0.3c-0.2,0.1-0.3,0.1-0.4,0.1
			c-0.1,0-0.1,0-0.2-0.1c-0.1,0-0.1-0.1-0.1-0.2c0-0.1-0.1-0.2-0.1-0.3c0-0.1,0-0.3,0-0.4c0-0.2,0-0.4,0-0.5c0-0.1,0.1-0.2,0.2-0.3
			c0.1-0.1,0.3-0.2,0.5-0.3c0.2-0.1,0.5-0.2,0.8-0.3c0.3-0.1,0.6-0.2,1-0.2c0.4-0.1,0.7-0.1,1.1-0.1c0.7,0,1.3,0.1,1.8,0.2
			c0.5,0.1,0.9,0.3,1.2,0.6c0.3,0.3,0.5,0.6,0.7,1.1c0.1,0.4,0.2,1,0.2,1.6V507.1z M172.6,503.3h-0.9c-0.4,0-0.7,0-1,0.1
			c-0.3,0.1-0.5,0.1-0.7,0.3s-0.3,0.3-0.4,0.4c-0.1,0.2-0.1,0.4-0.1,0.6c0,0.4,0.1,0.7,0.3,0.9c0.2,0.2,0.6,0.3,1,0.3
			c0.3,0,0.7-0.1,1-0.3c0.3-0.2,0.6-0.4,0.9-0.8V503.3z"/>
		<path class="st10" d="M185.7,510.5c0,0.1,0,0.1-0.1,0.2c0,0.1-0.1,0.1-0.2,0.1c-0.1,0-0.2,0.1-0.4,0.1s-0.4,0-0.6,0
			c-0.2,0-0.4,0-0.6,0s-0.3,0-0.4-0.1c-0.1,0-0.2-0.1-0.2-0.1c0-0.1-0.1-0.1-0.1-0.2v-4.1c-0.2,0.2-0.5,0.4-0.7,0.6
			c-0.2,0.2-0.4,0.3-0.7,0.4c-0.2,0.1-0.4,0.2-0.7,0.2c-0.2,0-0.5,0.1-0.7,0.1c-0.6,0-1.2-0.1-1.6-0.4c-0.4-0.3-0.8-0.6-1.1-1
			c-0.3-0.4-0.5-0.9-0.6-1.5c-0.1-0.6-0.2-1.2-0.2-1.8c0-0.8,0.1-1.5,0.3-2.1c0.2-0.6,0.4-1.1,0.7-1.6c0.3-0.4,0.7-0.8,1.2-1
			c0.5-0.2,1-0.4,1.7-0.4c0.2,0,0.5,0,0.7,0.1c0.2,0,0.4,0.1,0.7,0.3c0.2,0.1,0.5,0.3,0.7,0.5c0.2,0.2,0.5,0.4,0.8,0.7v-0.9
			c0-0.1,0-0.1,0.1-0.2c0,0,0.1-0.1,0.2-0.1c0.1,0,0.2-0.1,0.3-0.1c0.1,0,0.3,0,0.5,0c0.2,0,0.4,0,0.5,0c0.1,0,0.2,0,0.3,0.1
			c0.1,0,0.1,0.1,0.2,0.1c0,0,0,0.1,0,0.2V510.5z M183.3,501.2c-0.4-0.4-0.7-0.8-1-1s-0.7-0.4-1-0.4c-0.3,0-0.6,0.1-0.8,0.2
			c-0.2,0.2-0.4,0.4-0.6,0.6c-0.1,0.3-0.2,0.6-0.3,0.9c-0.1,0.3-0.1,0.7-0.1,1c0,0.4,0,0.7,0.1,1.1c0.1,0.3,0.2,0.7,0.3,0.9
			c0.1,0.3,0.3,0.5,0.5,0.6c0.2,0.2,0.5,0.2,0.8,0.2c0.2,0,0.3,0,0.5-0.1c0.2,0,0.3-0.1,0.5-0.2c0.2-0.1,0.3-0.3,0.5-0.4
			c0.2-0.2,0.4-0.4,0.6-0.7V501.2z"/>
		<path class="st10" d="M196.5,507c0,0.1,0,0.1,0,0.2c0,0-0.1,0.1-0.2,0.1c-0.1,0-0.2,0.1-0.3,0.1c-0.1,0-0.3,0-0.5,0
			c-0.2,0-0.4,0-0.5,0c-0.1,0-0.2,0-0.3-0.1c-0.1,0-0.1-0.1-0.2-0.1c0,0,0-0.1,0-0.2v-1c-0.5,0.5-1,0.9-1.5,1.2
			c-0.5,0.3-1,0.4-1.5,0.4c-0.6,0-1.1-0.1-1.5-0.3c-0.4-0.2-0.7-0.5-1-0.8c-0.3-0.3-0.4-0.7-0.5-1.2c-0.1-0.4-0.2-1-0.2-1.7v-5.3
			c0-0.1,0-0.1,0.1-0.2c0,0,0.1-0.1,0.2-0.1c0.1,0,0.2-0.1,0.4-0.1c0.2,0,0.4,0,0.6,0c0.2,0,0.4,0,0.6,0c0.2,0,0.3,0,0.4,0.1
			c0.1,0,0.2,0.1,0.2,0.1s0.1,0.1,0.1,0.2v4.9c0,0.5,0,0.8,0.1,1c0.1,0.2,0.1,0.4,0.3,0.6c0.1,0.2,0.3,0.3,0.5,0.4
			c0.2,0.1,0.4,0.1,0.6,0.1c0.3,0,0.6-0.1,0.9-0.3c0.3-0.2,0.7-0.6,1-1v-5.8c0-0.1,0-0.1,0.1-0.2c0,0,0.1-0.1,0.2-0.1
			c0.1,0,0.2-0.1,0.4-0.1c0.2,0,0.4,0,0.6,0c0.2,0,0.4,0,0.6,0c0.2,0,0.3,0,0.4,0.1c0.1,0,0.2,0.1,0.2,0.1s0.1,0.1,0.1,0.2V507z"/>
		<path class="st10" d="M201.6,495.4c0,0.5-0.1,0.8-0.3,1c-0.2,0.2-0.6,0.3-1.1,0.3c-0.6,0-0.9-0.1-1.1-0.3c-0.2-0.2-0.3-0.5-0.3-1
			c0-0.5,0.1-0.8,0.3-1c0.2-0.2,0.6-0.3,1.1-0.3c0.5,0,0.9,0.1,1.1,0.3S201.6,494.9,201.6,495.4z M201.4,507c0,0.1,0,0.1-0.1,0.2
			s-0.1,0.1-0.2,0.1c-0.1,0-0.2,0.1-0.4,0.1c-0.2,0-0.4,0-0.6,0c-0.2,0-0.4,0-0.6,0c-0.2,0-0.3,0-0.4-0.1c-0.1,0-0.2-0.1-0.2-0.1
			s-0.1-0.1-0.1-0.2v-8.7c0-0.1,0-0.1,0.1-0.2s0.1-0.1,0.2-0.1c0.1,0,0.2-0.1,0.4-0.1s0.4,0,0.6,0c0.2,0,0.4,0,0.6,0s0.3,0,0.4,0.1
			c0.1,0,0.2,0.1,0.2,0.1s0.1,0.1,0.1,0.2V507z"/>
		<path class="st10" d="M211.1,497.7c0,0.5-0.1,1-0.2,1.4c-0.2,0.4-0.4,0.8-0.6,1.1c-0.3,0.3-0.6,0.6-1,0.8
			c-0.4,0.2-0.8,0.3-1.3,0.4l-0.1,1.9c0,0.1-0.1,0.2-0.3,0.3c-0.2,0.1-0.4,0.1-0.8,0.1c-0.2,0-0.4,0-0.5,0s-0.3,0-0.3-0.1
			c-0.1,0-0.1-0.1-0.2-0.1c0,0-0.1-0.1-0.1-0.2l-0.1-2.3c0-0.2,0-0.4,0-0.5c0-0.1,0.1-0.2,0.1-0.3s0.2-0.1,0.3-0.2
			c0.1,0,0.2,0,0.4,0h0.1c0.3,0,0.6-0.1,0.9-0.2c0.3-0.1,0.5-0.3,0.6-0.4c0.2-0.2,0.3-0.4,0.4-0.6c0.1-0.2,0.1-0.5,0.1-0.8
			c0-0.3,0-0.6-0.1-0.9c-0.1-0.3-0.2-0.5-0.4-0.7c-0.2-0.2-0.4-0.3-0.7-0.4c-0.3-0.1-0.6-0.2-1-0.2c-0.3,0-0.6,0-0.9,0.1
			c-0.3,0.1-0.5,0.1-0.7,0.2c-0.2,0.1-0.3,0.1-0.5,0.2c-0.1,0.1-0.2,0.1-0.3,0.1c0,0-0.1,0-0.1,0s-0.1-0.1-0.1-0.2
			c0-0.1,0-0.2-0.1-0.3c0-0.1,0-0.3,0-0.5c0-0.2,0-0.4,0-0.5c0-0.1,0.1-0.2,0.1-0.3c0.1-0.1,0.2-0.1,0.4-0.2
			c0.2-0.1,0.4-0.2,0.7-0.2c0.3-0.1,0.5-0.1,0.8-0.2c0.3-0.1,0.6-0.1,1-0.1c0.8,0,1.4,0.1,2,0.3c0.5,0.2,1,0.5,1.3,0.9
			c0.3,0.4,0.6,0.8,0.8,1.2C211,496.7,211.1,497.2,211.1,497.7z M208.2,506.1c0,0.3,0,0.5-0.1,0.7c0,0.2-0.1,0.3-0.2,0.4
			c-0.1,0.1-0.3,0.2-0.4,0.2c-0.2,0-0.4,0.1-0.7,0.1c-0.3,0-0.5,0-0.7-0.1s-0.3-0.1-0.4-0.2c-0.1-0.1-0.2-0.3-0.2-0.4
			c0-0.2-0.1-0.4-0.1-0.7c0-0.3,0-0.5,0.1-0.7c0-0.2,0.1-0.3,0.2-0.4c0.1-0.1,0.2-0.2,0.4-0.2s0.4-0.1,0.7-0.1c0.3,0,0.5,0,0.7,0.1
			c0.2,0,0.3,0.1,0.4,0.2c0.1,0.1,0.2,0.3,0.2,0.4C208.2,505.6,208.2,505.8,208.2,506.1z"/>
	</g>
</g>
<path class="st11" d="M274.7,441.4H34.3v-35.8c0-3.9,3.1-7,7-7h233.4c3.9,0,7,3.1,7,7v28.8C281.7,438.3,278.6,441.4,274.7,441.4z"/>
<path class="st12" d="M274.7,436H34.3v-35.8c0-3.9,3.1-7,7-7h233.4c3.9,0,7,3.1,7,7V429C281.7,432.9,278.6,436,274.7,436z"/>
<g>
	<path class="st5" d="M140.8,421c0,0.2,0,0.4,0,0.6c0,0.2-0.1,0.3-0.1,0.4c0,0.1-0.1,0.2-0.2,0.2c-0.1,0-0.1,0.1-0.2,0.1h-7.9
		c-0.3,0-0.5-0.1-0.7-0.2c-0.2-0.2-0.3-0.4-0.3-0.8v-13.8c0-0.4,0.1-0.6,0.3-0.8c0.2-0.2,0.4-0.2,0.7-0.2h7.9c0.1,0,0.1,0,0.2,0.1
		c0.1,0,0.1,0.1,0.1,0.2c0,0.1,0.1,0.2,0.1,0.4c0,0.2,0,0.4,0,0.6c0,0.2,0,0.4,0,0.6c0,0.2-0.1,0.3-0.1,0.4s-0.1,0.2-0.1,0.2
		c-0.1,0-0.1,0.1-0.2,0.1h-5.6v3.9h4.8c0.1,0,0.1,0,0.2,0.1c0.1,0,0.1,0.1,0.2,0.2c0,0.1,0.1,0.2,0.1,0.4c0,0.2,0,0.4,0,0.6
		c0,0.2,0,0.4,0,0.6c0,0.2-0.1,0.3-0.1,0.4s-0.1,0.2-0.2,0.2c-0.1,0-0.1,0.1-0.2,0.1h-4.8v4.5h5.7c0.1,0,0.1,0,0.2,0.1
		c0.1,0,0.1,0.1,0.2,0.2c0,0.1,0.1,0.2,0.1,0.4C140.8,420.5,140.8,420.7,140.8,421z"/>
	<path class="st5" d="M153.8,421.8c0,0.1,0,0.2-0.1,0.2c0,0.1-0.1,0.1-0.2,0.2s-0.3,0.1-0.5,0.1c-0.2,0-0.4,0-0.7,0
		c-0.3,0-0.6,0-0.8,0c-0.2,0-0.4-0.1-0.5-0.1c-0.1,0-0.2-0.1-0.2-0.2c0-0.1-0.1-0.1-0.1-0.2v-6.2c0-0.5,0-0.9-0.1-1.2
		c-0.1-0.3-0.2-0.6-0.3-0.8s-0.3-0.4-0.6-0.5c-0.2-0.1-0.5-0.2-0.8-0.2c-0.4,0-0.8,0.1-1.2,0.4c-0.4,0.3-0.8,0.7-1.2,1.2v7.2
		c0,0.1,0,0.2-0.1,0.2c0,0.1-0.1,0.1-0.3,0.2s-0.3,0.1-0.5,0.1c-0.2,0-0.4,0-0.7,0s-0.5,0-0.7,0c-0.2,0-0.4-0.1-0.5-0.1
		c-0.1,0-0.2-0.1-0.3-0.2c0-0.1-0.1-0.1-0.1-0.2v-10.9c0-0.1,0-0.2,0.1-0.2c0-0.1,0.1-0.1,0.2-0.2c0.1,0,0.2-0.1,0.4-0.1
		c0.2,0,0.4,0,0.6,0c0.3,0,0.5,0,0.6,0c0.2,0,0.3,0.1,0.4,0.1s0.2,0.1,0.2,0.2c0,0.1,0.1,0.1,0.1,0.2v1.3c0.6-0.7,1.2-1.1,1.8-1.5
		c0.6-0.3,1.3-0.5,1.9-0.5c0.7,0,1.4,0.1,1.9,0.4c0.5,0.2,0.9,0.6,1.2,1c0.3,0.4,0.5,0.9,0.7,1.5c0.1,0.6,0.2,1.2,0.2,2V421.8z"/>
	<path class="st5" d="M163.1,420.7c0,0.4,0,0.6-0.1,0.8c0,0.2-0.1,0.3-0.2,0.4c-0.1,0.1-0.2,0.1-0.3,0.2c-0.1,0.1-0.3,0.1-0.5,0.2
		c-0.2,0-0.4,0.1-0.6,0.1c-0.2,0-0.5,0-0.7,0c-0.6,0-1.1-0.1-1.6-0.2c-0.4-0.2-0.8-0.4-1.1-0.7c-0.3-0.3-0.5-0.7-0.6-1.2
		s-0.2-1.1-0.2-1.7V413h-1.3c-0.2,0-0.3-0.1-0.4-0.3c-0.1-0.2-0.1-0.5-0.1-1c0-0.2,0-0.4,0-0.6c0-0.2,0.1-0.3,0.1-0.4
		c0-0.1,0.1-0.2,0.2-0.2c0.1,0,0.1-0.1,0.2-0.1h1.3v-2.4c0-0.1,0-0.2,0.1-0.2c0-0.1,0.1-0.1,0.2-0.2c0.1,0,0.3-0.1,0.5-0.1
		s0.4,0,0.7,0c0.3,0,0.6,0,0.8,0s0.4,0.1,0.5,0.1s0.2,0.1,0.2,0.2c0,0.1,0.1,0.1,0.1,0.2v2.4h2.4c0.1,0,0.2,0,0.2,0.1
		c0.1,0,0.1,0.1,0.2,0.2s0.1,0.2,0.1,0.4c0,0.2,0,0.4,0,0.6c0,0.4,0,0.8-0.1,1c-0.1,0.2-0.2,0.3-0.4,0.3h-2.4v5.1
		c0,0.6,0.1,1,0.3,1.3c0.2,0.3,0.5,0.4,1,0.4c0.2,0,0.3,0,0.4,0c0.1,0,0.2-0.1,0.3-0.1c0.1,0,0.2-0.1,0.3-0.1c0.1,0,0.1,0,0.2,0
		c0,0,0.1,0,0.1,0s0.1,0.1,0.1,0.2c0,0.1,0,0.2,0.1,0.3S163.1,420.5,163.1,420.7z"/>
	<path class="st5" d="M172.3,411.9c0,0.3,0,0.5,0,0.7c0,0.2,0,0.3-0.1,0.4c0,0.1-0.1,0.2-0.1,0.2c-0.1,0-0.1,0.1-0.2,0.1
		c-0.1,0-0.1,0-0.2,0s-0.2-0.1-0.3-0.1s-0.2-0.1-0.3-0.1c-0.1,0-0.3,0-0.4,0c-0.2,0-0.3,0-0.5,0.1s-0.3,0.2-0.5,0.3
		c-0.2,0.1-0.4,0.3-0.6,0.6c-0.2,0.2-0.4,0.5-0.6,0.9v6.8c0,0.1,0,0.2-0.1,0.2c0,0.1-0.1,0.1-0.3,0.2s-0.3,0.1-0.5,0.1
		c-0.2,0-0.4,0-0.7,0s-0.5,0-0.7,0c-0.2,0-0.4-0.1-0.5-0.1c-0.1,0-0.2-0.1-0.3-0.2c0-0.1-0.1-0.1-0.1-0.2v-10.9c0-0.1,0-0.2,0.1-0.2
		c0-0.1,0.1-0.1,0.2-0.2c0.1,0,0.2-0.1,0.4-0.1c0.2,0,0.4,0,0.6,0c0.3,0,0.5,0,0.6,0c0.2,0,0.3,0.1,0.4,0.1s0.2,0.1,0.2,0.2
		c0,0.1,0.1,0.1,0.1,0.2v1.4c0.3-0.4,0.6-0.7,0.8-1c0.3-0.3,0.5-0.5,0.7-0.6c0.2-0.2,0.5-0.3,0.7-0.3c0.2-0.1,0.5-0.1,0.7-0.1
		c0.1,0,0.2,0,0.3,0c0.1,0,0.2,0,0.4,0.1c0.1,0,0.2,0.1,0.3,0.1c0.1,0,0.2,0.1,0.2,0.1c0,0,0.1,0.1,0.1,0.1c0,0,0,0.1,0.1,0.2
		c0,0.1,0,0.2,0,0.4S172.3,411.6,172.3,411.9z"/>
	<path class="st5" d="M182.9,421.8c0,0.1,0,0.2-0.1,0.3c-0.1,0.1-0.2,0.1-0.4,0.1s-0.4,0-0.8,0c-0.4,0-0.6,0-0.8,0
		c-0.2,0-0.3-0.1-0.4-0.1c-0.1-0.1-0.1-0.2-0.1-0.3V421c-0.4,0.5-1,0.9-1.5,1.1c-0.6,0.3-1.2,0.4-1.9,0.4c-0.6,0-1.1-0.1-1.6-0.2
		c-0.5-0.2-0.9-0.4-1.3-0.7c-0.4-0.3-0.6-0.7-0.8-1.1s-0.3-1-0.3-1.5c0-0.6,0.1-1.2,0.4-1.7c0.2-0.5,0.6-0.9,1.1-1.2
		c0.5-0.3,1.1-0.5,1.8-0.7s1.6-0.2,2.6-0.2h1.1v-0.7c0-0.3,0-0.6-0.1-0.9c-0.1-0.3-0.2-0.5-0.3-0.6c-0.2-0.2-0.4-0.3-0.6-0.4
		s-0.6-0.1-1-0.1c-0.5,0-1,0.1-1.4,0.2c-0.4,0.1-0.8,0.2-1.1,0.4c-0.3,0.1-0.6,0.3-0.8,0.4c-0.2,0.1-0.4,0.2-0.5,0.2
		c-0.1,0-0.2,0-0.2-0.1c-0.1-0.1-0.1-0.1-0.2-0.2c0-0.1-0.1-0.2-0.1-0.4c0-0.2,0-0.3,0-0.5c0-0.3,0-0.5,0.1-0.6s0.1-0.3,0.2-0.4
		c0.1-0.1,0.3-0.2,0.6-0.4s0.6-0.3,1-0.4c0.4-0.1,0.8-0.2,1.3-0.3c0.5-0.1,0.9-0.1,1.4-0.1c0.9,0,1.6,0.1,2.2,0.3
		c0.6,0.2,1.1,0.4,1.5,0.8c0.4,0.3,0.7,0.8,0.9,1.3c0.2,0.5,0.3,1.2,0.3,1.9V421.8z M179.9,417.2h-1.2c-0.5,0-0.9,0-1.3,0.1
		s-0.6,0.2-0.9,0.3s-0.4,0.3-0.5,0.5c-0.1,0.2-0.2,0.4-0.2,0.7c0,0.5,0.1,0.8,0.4,1.1c0.3,0.3,0.7,0.4,1.2,0.4
		c0.4,0,0.8-0.1,1.2-0.3s0.7-0.5,1.1-1V417.2z"/>
	<path class="st5" d="M193,411.9c0,0.3,0,0.5,0,0.7c0,0.2,0,0.3-0.1,0.4c0,0.1-0.1,0.2-0.1,0.2s-0.1,0.1-0.2,0.1c-0.1,0-0.1,0-0.2,0
		s-0.2-0.1-0.3-0.1s-0.2-0.1-0.3-0.1c-0.1,0-0.3,0-0.4,0c-0.2,0-0.3,0-0.5,0.1s-0.3,0.2-0.5,0.3c-0.2,0.1-0.4,0.3-0.6,0.6
		c-0.2,0.2-0.4,0.5-0.6,0.9v6.8c0,0.1,0,0.2-0.1,0.2c0,0.1-0.1,0.1-0.3,0.2s-0.3,0.1-0.5,0.1c-0.2,0-0.4,0-0.7,0s-0.5,0-0.7,0
		c-0.2,0-0.4-0.1-0.5-0.1c-0.1,0-0.2-0.1-0.3-0.2c0-0.1-0.1-0.1-0.1-0.2v-10.9c0-0.1,0-0.2,0.1-0.2c0-0.1,0.1-0.1,0.2-0.2
		c0.1,0,0.2-0.1,0.4-0.1c0.2,0,0.4,0,0.6,0c0.3,0,0.5,0,0.6,0c0.2,0,0.3,0.1,0.4,0.1s0.2,0.1,0.2,0.2c0,0.1,0.1,0.1,0.1,0.2v1.4
		c0.3-0.4,0.6-0.7,0.8-1c0.3-0.3,0.5-0.5,0.7-0.6c0.2-0.2,0.5-0.3,0.7-0.3c0.2-0.1,0.5-0.1,0.7-0.1c0.1,0,0.2,0,0.3,0
		c0.1,0,0.2,0,0.4,0.1c0.1,0,0.2,0.1,0.3,0.1c0.1,0,0.2,0.1,0.2,0.1c0,0,0.1,0.1,0.1,0.1s0,0.1,0.1,0.2c0,0.1,0,0.2,0,0.4
		S193,411.6,193,411.9z"/>
</g>
<path class="st0" d="M274.7,562H34.3v-35.8c0-3.9,3.1-7,7-7h233.4c3.9,0,7,3.1,7,7V555C281.7,558.9,278.6,562,274.7,562z"/>
<path class="st13" d="M274.7,556.6H34.3v-35.8c0-3.9,3.1-7,7-7h233.4c3.9,0,7,3.1,7,7v28.8C281.7,553.5,278.6,556.6,274.7,556.6z"/>
<g>
	<g>
		<path class="st6" d="M121.4,541.4c0,0.2,0,0.4,0,0.5c0,0.1,0,0.3-0.1,0.4c0,0.1-0.1,0.2-0.1,0.3c0,0.1-0.1,0.2-0.2,0.3
			c-0.1,0.1-0.3,0.2-0.5,0.4c-0.3,0.1-0.6,0.3-0.9,0.4c-0.4,0.1-0.8,0.2-1.3,0.3c-0.5,0.1-1,0.1-1.5,0.1c-1.1,0-2.1-0.2-2.9-0.5
			c-0.9-0.3-1.6-0.8-2.2-1.5s-1.1-1.5-1.4-2.5s-0.5-2.1-0.5-3.5c0-1.3,0.2-2.5,0.5-3.6c0.4-1,0.9-1.9,1.5-2.6
			c0.6-0.7,1.4-1.2,2.3-1.6c0.9-0.4,1.9-0.5,3-0.5c0.4,0,0.9,0,1.3,0.1s0.8,0.2,1.1,0.3c0.3,0.1,0.7,0.3,0.9,0.4
			c0.3,0.2,0.5,0.3,0.6,0.4c0.1,0.1,0.2,0.2,0.2,0.3c0,0.1,0.1,0.2,0.1,0.3c0,0.1,0,0.2,0.1,0.4c0,0.2,0,0.3,0,0.6
			c0,0.2,0,0.5,0,0.6c0,0.2,0,0.3-0.1,0.4s-0.1,0.2-0.1,0.2s-0.1,0.1-0.2,0.1c-0.1,0-0.3-0.1-0.5-0.2s-0.4-0.3-0.7-0.5
			c-0.3-0.2-0.7-0.3-1.1-0.5s-0.9-0.2-1.5-0.2c-0.6,0-1.2,0.1-1.7,0.4c-0.5,0.3-0.9,0.6-1.3,1.1c-0.3,0.5-0.6,1.1-0.8,1.7
			c-0.2,0.7-0.3,1.4-0.3,2.3c0,0.9,0.1,1.7,0.3,2.4s0.5,1.2,0.8,1.7c0.4,0.4,0.8,0.8,1.3,1c0.5,0.2,1.1,0.3,1.7,0.3
			c0.6,0,1.1-0.1,1.5-0.2c0.4-0.1,0.8-0.3,1.1-0.4c0.3-0.2,0.5-0.3,0.7-0.4c0.2-0.1,0.3-0.2,0.4-0.2c0.1,0,0.1,0,0.2,0
			c0,0,0.1,0.1,0.1,0.2c0,0.1,0.1,0.2,0.1,0.4C121.4,540.9,121.4,541.1,121.4,541.4z"/>
		<path class="st6" d="M132.8,543.4c0,0.1,0,0.2-0.1,0.3c-0.1,0.1-0.2,0.1-0.4,0.1s-0.4,0-0.8,0c-0.4,0-0.6,0-0.8,0
			c-0.2,0-0.3-0.1-0.4-0.1c-0.1-0.1-0.1-0.2-0.1-0.3v-0.9c-0.4,0.5-1,0.9-1.5,1.1c-0.6,0.3-1.2,0.4-1.9,0.4c-0.6,0-1.1-0.1-1.6-0.2
			c-0.5-0.2-0.9-0.4-1.3-0.7c-0.4-0.3-0.6-0.7-0.8-1.1s-0.3-1-0.3-1.5c0-0.6,0.1-1.2,0.4-1.7c0.2-0.5,0.6-0.9,1.1-1.2
			c0.5-0.3,1.1-0.5,1.8-0.7s1.6-0.2,2.6-0.2h1.1v-0.7c0-0.3,0-0.6-0.1-0.9c-0.1-0.3-0.2-0.5-0.3-0.6c-0.2-0.2-0.4-0.3-0.6-0.4
			s-0.6-0.1-1-0.1c-0.5,0-1,0.1-1.4,0.2c-0.4,0.1-0.8,0.2-1.1,0.4c-0.3,0.1-0.6,0.3-0.8,0.4c-0.2,0.1-0.4,0.2-0.5,0.2
			c-0.1,0-0.2,0-0.2-0.1c-0.1-0.1-0.1-0.1-0.2-0.2c0-0.1-0.1-0.2-0.1-0.4c0-0.2,0-0.3,0-0.5c0-0.3,0-0.5,0.1-0.6s0.1-0.3,0.2-0.4
			c0.1-0.1,0.3-0.2,0.6-0.4s0.6-0.3,1-0.4c0.4-0.1,0.8-0.2,1.3-0.3c0.5-0.1,0.9-0.1,1.4-0.1c0.9,0,1.6,0.1,2.2,0.3
			c0.6,0.2,1.1,0.4,1.5,0.8c0.4,0.3,0.7,0.8,0.9,1.3c0.2,0.5,0.3,1.2,0.3,1.9V543.4z M129.8,538.8h-1.2c-0.5,0-0.9,0-1.3,0.1
			s-0.6,0.2-0.9,0.3s-0.4,0.3-0.5,0.5c-0.1,0.2-0.2,0.4-0.2,0.7c0,0.5,0.1,0.8,0.4,1.1c0.3,0.3,0.7,0.4,1.2,0.4
			c0.4,0,0.8-0.1,1.2-0.3s0.7-0.5,1.1-1V538.8z"/>
		<path class="st6" d="M146.2,543.4c0,0.1,0,0.2-0.1,0.2c0,0.1-0.1,0.1-0.2,0.2c-0.1,0-0.2,0.1-0.4,0.1s-0.4,0-0.6,0
			c-0.3,0-0.5,0-0.6,0c-0.2,0-0.3,0-0.4-0.1c-0.1,0-0.2-0.1-0.2-0.2c0-0.1-0.1-0.1-0.1-0.2v-1.2c-0.6,0.6-1.1,1.1-1.8,1.4
			c-0.6,0.3-1.3,0.5-2,0.5c-0.8,0-1.5-0.2-2.1-0.5c-0.6-0.3-1-0.8-1.4-1.3c-0.4-0.5-0.6-1.2-0.8-1.9c-0.2-0.7-0.2-1.5-0.2-2.3
			c0-1,0.1-1.8,0.3-2.6c0.2-0.8,0.5-1.4,0.9-2c0.4-0.5,0.9-1,1.5-1.3c0.6-0.3,1.3-0.4,2.1-0.4c0.6,0,1.2,0.1,1.7,0.4
			c0.5,0.2,1,0.6,1.5,1.1v-5.9c0-0.1,0-0.2,0.1-0.2s0.1-0.1,0.2-0.2c0.1,0,0.3-0.1,0.5-0.1s0.4,0,0.7,0c0.3,0,0.5,0,0.7,0
			s0.3,0.1,0.5,0.1c0.1,0,0.2,0.1,0.2,0.2s0.1,0.1,0.1,0.2V543.4z M143.1,536.1c-0.4-0.6-0.9-1-1.3-1.3c-0.4-0.3-0.8-0.4-1.3-0.4
			c-0.4,0-0.7,0.1-1,0.3c-0.3,0.2-0.5,0.5-0.7,0.8s-0.3,0.7-0.4,1.1c-0.1,0.4-0.1,0.8-0.1,1.3c0,0.5,0,0.9,0.1,1.3s0.2,0.8,0.4,1.2
			c0.2,0.3,0.4,0.6,0.7,0.8c0.3,0.2,0.6,0.3,1,0.3c0.2,0,0.4,0,0.6-0.1c0.2-0.1,0.4-0.2,0.6-0.3c0.2-0.1,0.4-0.3,0.6-0.5
			s0.5-0.5,0.7-0.8V536.1z"/>
		<path class="st6" d="M158.6,543.4c0,0.1,0,0.2-0.1,0.3c-0.1,0.1-0.2,0.1-0.4,0.1s-0.4,0-0.8,0c-0.4,0-0.6,0-0.8,0
			c-0.2,0-0.3-0.1-0.4-0.1c-0.1-0.1-0.1-0.2-0.1-0.3v-0.9c-0.4,0.5-1,0.9-1.5,1.1c-0.6,0.3-1.2,0.4-1.9,0.4c-0.6,0-1.1-0.1-1.6-0.2
			c-0.5-0.2-0.9-0.4-1.3-0.7c-0.4-0.3-0.6-0.7-0.8-1.1s-0.3-1-0.3-1.5c0-0.6,0.1-1.2,0.4-1.7c0.2-0.5,0.6-0.9,1.1-1.2
			c0.5-0.3,1.1-0.5,1.8-0.7s1.6-0.2,2.6-0.2h1.1v-0.7c0-0.3,0-0.6-0.1-0.9c-0.1-0.3-0.2-0.5-0.3-0.6c-0.2-0.2-0.4-0.3-0.6-0.4
			s-0.6-0.1-1-0.1c-0.5,0-1,0.1-1.4,0.2c-0.4,0.1-0.8,0.2-1.1,0.4c-0.3,0.1-0.6,0.3-0.8,0.4c-0.2,0.1-0.4,0.2-0.5,0.2
			c-0.1,0-0.2,0-0.2-0.1c-0.1-0.1-0.1-0.1-0.2-0.2c0-0.1-0.1-0.2-0.1-0.4c0-0.2,0-0.3,0-0.5c0-0.3,0-0.5,0.1-0.6s0.1-0.3,0.2-0.4
			c0.1-0.1,0.3-0.2,0.6-0.4s0.6-0.3,1-0.4c0.4-0.1,0.8-0.2,1.3-0.3c0.5-0.1,0.9-0.1,1.4-0.1c0.9,0,1.6,0.1,2.2,0.3
			c0.6,0.2,1.1,0.4,1.5,0.8c0.4,0.3,0.7,0.8,0.9,1.3c0.2,0.5,0.3,1.2,0.3,1.9V543.4z M155.5,538.8h-1.2c-0.5,0-0.9,0-1.3,0.1
			s-0.6,0.2-0.9,0.3s-0.4,0.3-0.5,0.5c-0.1,0.2-0.2,0.4-0.2,0.7c0,0.5,0.1,0.8,0.4,1.1c0.3,0.3,0.7,0.4,1.2,0.4
			c0.4,0,0.8-0.1,1.2-0.3s0.7-0.5,1.1-1V538.8z"/>
		<path class="st6" d="M169.3,540.3c0,0.6-0.1,1.2-0.3,1.6c-0.2,0.5-0.6,0.9-1,1.2c-0.4,0.3-0.9,0.6-1.5,0.7
			c-0.6,0.2-1.2,0.2-1.9,0.2c-0.4,0-0.8,0-1.2-0.1c-0.4-0.1-0.7-0.1-1-0.2c-0.3-0.1-0.5-0.2-0.7-0.3s-0.3-0.2-0.4-0.3
			c-0.1-0.1-0.2-0.2-0.2-0.4c0-0.2-0.1-0.5-0.1-0.8c0-0.2,0-0.4,0-0.6c0-0.1,0-0.3,0.1-0.3c0-0.1,0.1-0.1,0.1-0.2c0,0,0.1,0,0.2,0
			c0.1,0,0.2,0.1,0.4,0.2c0.2,0.1,0.4,0.2,0.7,0.3c0.3,0.1,0.6,0.2,0.9,0.3c0.3,0.1,0.7,0.2,1.2,0.2c0.3,0,0.5,0,0.7-0.1
			c0.2-0.1,0.4-0.1,0.6-0.2c0.2-0.1,0.3-0.2,0.4-0.4c0.1-0.2,0.1-0.3,0.1-0.6c0-0.2-0.1-0.5-0.2-0.6c-0.2-0.2-0.3-0.3-0.6-0.5
			c-0.2-0.1-0.5-0.3-0.8-0.4c-0.3-0.1-0.6-0.2-1-0.4c-0.3-0.1-0.7-0.3-1-0.5c-0.3-0.2-0.6-0.4-0.8-0.7c-0.2-0.3-0.4-0.6-0.6-0.9
			c-0.2-0.4-0.2-0.8-0.2-1.3c0-0.5,0.1-1,0.3-1.4c0.2-0.4,0.5-0.8,0.9-1.1c0.4-0.3,0.8-0.5,1.4-0.7c0.5-0.2,1.2-0.3,1.8-0.3
			c0.3,0,0.7,0,1,0.1c0.3,0,0.6,0.1,0.9,0.2s0.5,0.2,0.7,0.2c0.2,0.1,0.3,0.2,0.4,0.2c0.1,0.1,0.1,0.1,0.2,0.2
			c0,0.1,0.1,0.1,0.1,0.2c0,0.1,0,0.2,0,0.3c0,0.1,0,0.3,0,0.5c0,0.2,0,0.4,0,0.5c0,0.1,0,0.2-0.1,0.3s-0.1,0.1-0.1,0.2
			s-0.1,0-0.2,0c-0.1,0-0.2,0-0.3-0.1c-0.2-0.1-0.3-0.2-0.6-0.3c-0.2-0.1-0.5-0.2-0.8-0.3c-0.3-0.1-0.7-0.1-1-0.1
			c-0.3,0-0.5,0-0.7,0.1s-0.4,0.1-0.5,0.2c-0.1,0.1-0.2,0.2-0.3,0.4c-0.1,0.1-0.1,0.3-0.1,0.5c0,0.3,0.1,0.5,0.2,0.6
			s0.4,0.3,0.6,0.5c0.3,0.1,0.5,0.3,0.9,0.4c0.3,0.1,0.6,0.2,1,0.4c0.3,0.1,0.7,0.3,1,0.5c0.3,0.2,0.6,0.4,0.9,0.7
			c0.3,0.3,0.5,0.6,0.6,0.9C169.2,539.4,169.3,539.8,169.3,540.3z"/>
		<path class="st6" d="M177.8,542.3c0,0.4,0,0.6-0.1,0.8s-0.1,0.3-0.2,0.4c-0.1,0.1-0.2,0.1-0.3,0.2c-0.1,0.1-0.3,0.1-0.5,0.2
			s-0.4,0.1-0.6,0.1c-0.2,0-0.5,0-0.7,0c-0.6,0-1.1-0.1-1.6-0.2c-0.4-0.2-0.8-0.4-1.1-0.7c-0.3-0.3-0.5-0.7-0.6-1.2
			s-0.2-1.1-0.2-1.7v-5.6h-1.3c-0.2,0-0.3-0.1-0.4-0.3c-0.1-0.2-0.1-0.5-0.1-1c0-0.2,0-0.4,0-0.6c0-0.2,0.1-0.3,0.1-0.4
			c0-0.1,0.1-0.2,0.2-0.2c0.1,0,0.1-0.1,0.2-0.1h1.3v-2.4c0-0.1,0-0.2,0.1-0.2c0-0.1,0.1-0.1,0.2-0.2s0.3-0.1,0.5-0.1
			c0.2,0,0.4,0,0.7,0c0.3,0,0.6,0,0.8,0c0.2,0,0.4,0.1,0.5,0.1s0.2,0.1,0.2,0.2c0,0.1,0.1,0.1,0.1,0.2v2.4h2.4c0.1,0,0.2,0,0.2,0.1
			c0.1,0,0.1,0.1,0.2,0.2s0.1,0.2,0.1,0.4c0,0.2,0,0.4,0,0.6c0,0.4,0,0.8-0.1,1c-0.1,0.2-0.2,0.3-0.4,0.3h-2.4v5.1
			c0,0.6,0.1,1,0.3,1.3c0.2,0.3,0.5,0.4,1,0.4c0.2,0,0.3,0,0.4,0c0.1,0,0.2-0.1,0.3-0.1c0.1,0,0.2-0.1,0.3-0.1s0.1,0,0.2,0
			c0,0,0.1,0,0.1,0c0,0,0.1,0.1,0.1,0.2c0,0.1,0,0.2,0.1,0.3C177.7,541.9,177.8,542.1,177.8,542.3z"/>
		<path class="st6" d="M187,533.5c0,0.3,0,0.5,0,0.7c0,0.2,0,0.3-0.1,0.4c0,0.1-0.1,0.2-0.1,0.2s-0.1,0.1-0.2,0.1
			c-0.1,0-0.1,0-0.2,0s-0.2-0.1-0.3-0.1c-0.1,0-0.2-0.1-0.3-0.1c-0.1,0-0.3,0-0.4,0c-0.2,0-0.3,0-0.5,0.1c-0.2,0.1-0.3,0.2-0.5,0.3
			c-0.2,0.1-0.4,0.3-0.6,0.6s-0.4,0.5-0.6,0.9v6.8c0,0.1,0,0.2-0.1,0.2c0,0.1-0.1,0.1-0.3,0.2c-0.1,0-0.3,0.1-0.5,0.1
			c-0.2,0-0.4,0-0.7,0s-0.5,0-0.7,0c-0.2,0-0.4-0.1-0.5-0.1s-0.2-0.1-0.3-0.2c0-0.1-0.1-0.1-0.1-0.2v-10.9c0-0.1,0-0.2,0.1-0.2
			c0-0.1,0.1-0.1,0.2-0.2c0.1,0,0.2-0.1,0.4-0.1c0.2,0,0.4,0,0.6,0c0.3,0,0.5,0,0.6,0c0.2,0,0.3,0.1,0.4,0.1c0.1,0,0.2,0.1,0.2,0.2
			c0,0.1,0.1,0.1,0.1,0.2v1.4c0.3-0.4,0.6-0.7,0.8-1c0.3-0.3,0.5-0.5,0.7-0.6c0.2-0.2,0.5-0.3,0.7-0.3c0.2-0.1,0.5-0.1,0.7-0.1
			c0.1,0,0.2,0,0.3,0c0.1,0,0.2,0,0.4,0.1c0.1,0,0.2,0.1,0.3,0.1c0.1,0,0.2,0.1,0.2,0.1c0,0,0.1,0.1,0.1,0.1s0,0.1,0.1,0.2
			c0,0.1,0,0.2,0,0.4S187,533.2,187,533.5z"/>
		<path class="st6" d="M197.6,543.4c0,0.1,0,0.2-0.1,0.3c-0.1,0.1-0.2,0.1-0.4,0.1s-0.4,0-0.8,0c-0.4,0-0.6,0-0.8,0
			c-0.2,0-0.3-0.1-0.4-0.1c-0.1-0.1-0.1-0.2-0.1-0.3v-0.9c-0.4,0.5-1,0.9-1.5,1.1c-0.6,0.3-1.2,0.4-1.9,0.4c-0.6,0-1.1-0.1-1.6-0.2
			c-0.5-0.2-0.9-0.4-1.3-0.7c-0.4-0.3-0.6-0.7-0.8-1.1s-0.3-1-0.3-1.5c0-0.6,0.1-1.2,0.4-1.7c0.2-0.5,0.6-0.9,1.1-1.2
			c0.5-0.3,1.1-0.5,1.8-0.7s1.6-0.2,2.6-0.2h1.1v-0.7c0-0.3,0-0.6-0.1-0.9c-0.1-0.3-0.2-0.5-0.3-0.6c-0.2-0.2-0.4-0.3-0.6-0.4
			s-0.6-0.1-1-0.1c-0.5,0-1,0.1-1.4,0.2c-0.4,0.1-0.8,0.2-1.1,0.4c-0.3,0.1-0.6,0.3-0.8,0.4c-0.2,0.1-0.4,0.2-0.5,0.2
			c-0.1,0-0.2,0-0.2-0.1c-0.1-0.1-0.1-0.1-0.2-0.2c0-0.1-0.1-0.2-0.1-0.4c0-0.2,0-0.3,0-0.5c0-0.3,0-0.5,0.1-0.6
			c0-0.1,0.1-0.3,0.2-0.4s0.3-0.2,0.6-0.4c0.3-0.1,0.6-0.3,1-0.4c0.4-0.1,0.8-0.2,1.3-0.3c0.5-0.1,0.9-0.1,1.4-0.1
			c0.9,0,1.6,0.1,2.2,0.3c0.6,0.2,1.1,0.4,1.5,0.8c0.4,0.3,0.7,0.8,0.9,1.3s0.3,1.2,0.3,1.9V543.4z M194.6,538.8h-1.2
			c-0.5,0-0.9,0-1.3,0.1c-0.4,0.1-0.6,0.2-0.9,0.3c-0.2,0.1-0.4,0.3-0.5,0.5c-0.1,0.2-0.2,0.4-0.2,0.7c0,0.5,0.1,0.8,0.4,1.1
			c0.3,0.3,0.7,0.4,1.2,0.4c0.4,0,0.8-0.1,1.2-0.3s0.7-0.5,1.1-1V538.8z"/>
		<path class="st6" d="M207.7,533.5c0,0.3,0,0.5,0,0.7c0,0.2,0,0.3-0.1,0.4c0,0.1-0.1,0.2-0.1,0.2s-0.1,0.1-0.2,0.1
			c-0.1,0-0.1,0-0.2,0s-0.2-0.1-0.3-0.1c-0.1,0-0.2-0.1-0.3-0.1c-0.1,0-0.3,0-0.4,0c-0.2,0-0.3,0-0.5,0.1c-0.2,0.1-0.3,0.2-0.5,0.3
			c-0.2,0.1-0.4,0.3-0.6,0.6s-0.4,0.5-0.6,0.9v6.8c0,0.1,0,0.2-0.1,0.2c0,0.1-0.1,0.1-0.3,0.2c-0.1,0-0.3,0.1-0.5,0.1
			c-0.2,0-0.4,0-0.7,0s-0.5,0-0.7,0c-0.2,0-0.4-0.1-0.5-0.1s-0.2-0.1-0.3-0.2c0-0.1-0.1-0.1-0.1-0.2v-10.9c0-0.1,0-0.2,0.1-0.2
			c0-0.1,0.1-0.1,0.2-0.2c0.1,0,0.2-0.1,0.4-0.1c0.2,0,0.4,0,0.6,0c0.3,0,0.5,0,0.6,0c0.2,0,0.3,0.1,0.4,0.1c0.1,0,0.2,0.1,0.2,0.2
			c0,0.1,0.1,0.1,0.1,0.2v1.4c0.3-0.4,0.6-0.7,0.8-1c0.3-0.3,0.5-0.5,0.7-0.6c0.2-0.2,0.5-0.3,0.7-0.3c0.2-0.1,0.5-0.1,0.7-0.1
			c0.1,0,0.2,0,0.3,0c0.1,0,0.2,0,0.4,0.1c0.1,0,0.2,0.1,0.3,0.1c0.1,0,0.2,0.1,0.2,0.1c0,0,0.1,0.1,0.1,0.1s0,0.1,0.1,0.2
			c0,0.1,0,0.2,0,0.4S207.7,533.2,207.7,533.5z"/>
	</g>
</g>
<line class="st13" x1="102.6" y1="469.1" x2="214.5" y2="469.1"/>
<g>
	<path class="st5" d="M288.2,17.9h-1.1v-1.5c0-0.4-0.3-0.7-0.7-0.7h-13.3c-0.4,0-0.7,0.3-0.7,0.7v5.7c0,0.4,0.3,0.7,0.7,0.7h13.3
		c0.4,0,0.7-0.3,0.7-0.7v-1.5h1.1V17.9z M285.7,21.3h-5.9v-4.2h5.9V21.3z"/>
	<rect x="262.9" y="12.9" class="st5" width="2.1" height="9.8"/>
	<rect x="259.1" y="14.9" class="st5" width="2.1" height="7.9"/>
	<rect x="255.3" y="17.1" class="st5" width="2.1" height="5.6"/>
	<rect x="251.5" y="19.5" class="st5" width="2.1" height="3.3"/>
</g>
<g>
	<path class="st5" d="M29.9,21.5c0,0.1,0,0.2,0,0.3c0,0.1,0,0.1,0,0.2c0,0,0,0.1-0.1,0.1c0,0-0.1,0-0.1,0h-4.1c0,0-0.1,0-0.1,0
		c0,0-0.1-0.1-0.1-0.1c0,0,0-0.1,0-0.2s0-0.2,0-0.3c0-0.1,0-0.2,0-0.3s0-0.1,0-0.2c0,0,0-0.1,0.1-0.1c0,0,0.1,0,0.1,0h1.4v-4.9
		l-1.2,0.7c-0.1,0-0.2,0.1-0.2,0.1c-0.1,0-0.1,0-0.1,0c0,0-0.1-0.1-0.1-0.2c0-0.1,0-0.2,0-0.3c0-0.1,0-0.2,0-0.2s0-0.1,0-0.2
		c0,0,0-0.1,0.1-0.1c0,0,0.1-0.1,0.1-0.1l1.6-1c0,0,0,0,0.1,0c0,0,0.1,0,0.1,0c0,0,0.1,0,0.2,0s0.2,0,0.3,0c0.1,0,0.3,0,0.4,0
		s0.2,0,0.2,0c0,0,0.1,0,0.1,0.1c0,0,0,0.1,0,0.1V21h1.2c0,0,0.1,0,0.1,0c0,0,0.1,0.1,0.1,0.1s0,0.1,0,0.2S29.9,21.4,29.9,21.5z"/>
	<path class="st5" d="M35.9,21.5c0,0.1,0,0.2,0,0.3c0,0.1,0,0.1,0,0.2s0,0.1-0.1,0.1c0,0-0.1,0-0.1,0h-4.3c-0.1,0-0.2,0-0.2,0
		c-0.1,0-0.1,0-0.2-0.1c0,0-0.1-0.1-0.1-0.2s0-0.2,0-0.3c0-0.1,0-0.2,0-0.3s0-0.2,0.1-0.2s0.1-0.1,0.1-0.2c0-0.1,0.1-0.1,0.2-0.2
		l1.3-1.4c0.3-0.3,0.5-0.5,0.6-0.7s0.3-0.4,0.4-0.6c0.1-0.2,0.1-0.4,0.2-0.5c0-0.2,0-0.3,0-0.4c0-0.1,0-0.2-0.1-0.4
		c0-0.1-0.1-0.2-0.2-0.3S33.4,16,33.3,16c-0.1,0-0.3-0.1-0.4-0.1c-0.2,0-0.4,0-0.6,0.1c-0.2,0.1-0.3,0.1-0.5,0.2s-0.2,0.1-0.3,0.2
		c-0.1,0.1-0.2,0.1-0.2,0.1c0,0-0.1,0-0.1,0c0,0,0-0.1-0.1-0.1c0-0.1,0-0.1,0-0.2s0-0.2,0-0.3c0-0.1,0-0.2,0-0.2c0-0.1,0-0.1,0-0.2
		c0,0,0-0.1,0-0.1s0.1-0.1,0.1-0.1c0,0,0.1-0.1,0.3-0.2s0.3-0.1,0.5-0.2c0.2-0.1,0.4-0.1,0.6-0.2s0.5-0.1,0.7-0.1c0.4,0,0.7,0,1,0.1
		s0.5,0.2,0.7,0.4c0.2,0.2,0.3,0.4,0.4,0.6s0.1,0.5,0.1,0.8c0,0.2,0,0.5-0.1,0.7c0,0.2-0.1,0.5-0.3,0.8c-0.1,0.3-0.4,0.6-0.6,0.9
		c-0.3,0.3-0.6,0.7-1.1,1.1l-0.9,0.9h2.9c0,0,0.1,0,0.1,0c0,0,0.1,0.1,0.1,0.1c0,0,0,0.1,0.1,0.2C35.9,21.3,35.9,21.4,35.9,21.5z"/>
	<path class="st5" d="M39,17.6c0,0.2,0,0.3,0,0.4c0,0.1-0.1,0.2-0.1,0.3s-0.1,0.1-0.3,0.1c-0.1,0-0.2,0-0.4,0c-0.2,0-0.3,0-0.4,0
		c-0.1,0-0.2-0.1-0.3-0.1s-0.1-0.2-0.1-0.3c0-0.1,0-0.2,0-0.4c0-0.2,0-0.3,0-0.4c0-0.1,0.1-0.2,0.1-0.3s0.1-0.1,0.3-0.2
		c0.1,0,0.2,0,0.4,0c0.2,0,0.3,0,0.4,0c0.1,0,0.2,0.1,0.3,0.2s0.1,0.2,0.1,0.3C39,17.3,39,17.4,39,17.6z M39,21.3c0,0.2,0,0.3,0,0.4
		c0,0.1-0.1,0.2-0.1,0.3s-0.1,0.1-0.3,0.1c-0.1,0-0.2,0-0.4,0c-0.2,0-0.3,0-0.4,0c-0.1,0-0.2-0.1-0.3-0.1s-0.1-0.2-0.1-0.3
		c0-0.1,0-0.2,0-0.4s0-0.3,0-0.4c0-0.1,0.1-0.2,0.1-0.3s0.1-0.1,0.3-0.1c0.1,0,0.2,0,0.4,0c0.2,0,0.3,0,0.4,0c0.1,0,0.2,0.1,0.3,0.1
		s0.1,0.2,0.1,0.3C39,21,39,21.2,39,21.3z"/>
	<path class="st5" d="M45.4,18.4c0,0.6,0,1.1-0.1,1.6c-0.1,0.5-0.3,0.9-0.5,1.2c-0.2,0.3-0.5,0.6-0.9,0.8c-0.3,0.2-0.8,0.3-1.3,0.3
		c-0.5,0-0.9-0.1-1.3-0.3c-0.3-0.2-0.6-0.4-0.8-0.8c-0.2-0.3-0.3-0.7-0.4-1.2C40,19.6,40,19,40,18.4c0-0.6,0-1.1,0.1-1.6
		c0.1-0.5,0.3-0.9,0.5-1.2c0.2-0.3,0.5-0.6,0.9-0.8c0.3-0.2,0.8-0.3,1.3-0.3c0.5,0,0.9,0.1,1.3,0.3c0.3,0.2,0.6,0.4,0.8,0.8
		c0.2,0.3,0.3,0.7,0.4,1.2C45.3,17.2,45.4,17.8,45.4,18.4z M43.8,18.4c0-0.4,0-0.7,0-0.9c0-0.3,0-0.5-0.1-0.7c0-0.2-0.1-0.4-0.2-0.5
		c-0.1-0.1-0.1-0.2-0.2-0.3c-0.1-0.1-0.2-0.1-0.3-0.2c-0.1,0-0.2-0.1-0.4-0.1c-0.2,0-0.4,0.1-0.6,0.2c-0.1,0.1-0.3,0.3-0.4,0.5
		c-0.1,0.2-0.1,0.5-0.2,0.8c0,0.3-0.1,0.7-0.1,1.1c0,0.5,0,1,0.1,1.3c0,0.3,0.1,0.6,0.2,0.8s0.2,0.4,0.4,0.4
		c0.1,0.1,0.3,0.1,0.5,0.1c0.2,0,0.3,0,0.4-0.1c0.1,0,0.2-0.1,0.3-0.2c0.1-0.1,0.2-0.2,0.2-0.4s0.1-0.3,0.1-0.5
		c0-0.2,0.1-0.4,0.1-0.7S43.8,18.7,43.8,18.4z"/>
	<path class="st5" d="M51.4,18.4c0,0.6,0,1.1-0.1,1.6c-0.1,0.5-0.3,0.9-0.5,1.2c-0.2,0.3-0.5,0.6-0.9,0.8c-0.3,0.2-0.8,0.3-1.3,0.3
		c-0.5,0-0.9-0.1-1.3-0.3c-0.3-0.2-0.6-0.4-0.8-0.8c-0.2-0.3-0.3-0.7-0.4-1.2C46,19.6,46,19,46,18.4c0-0.6,0-1.1,0.1-1.6
		c0.1-0.5,0.3-0.9,0.5-1.2c0.2-0.3,0.5-0.6,0.9-0.8c0.3-0.2,0.8-0.3,1.3-0.3c0.5,0,0.9,0.1,1.3,0.3c0.3,0.2,0.6,0.4,0.8,0.8
		c0.2,0.3,0.3,0.7,0.4,1.2C51.3,17.2,51.4,17.8,51.4,18.4z M49.8,18.4c0-0.4,0-0.7,0-0.9c0-0.3,0-0.5-0.1-0.7c0-0.2-0.1-0.4-0.2-0.5
		c-0.1-0.1-0.1-0.2-0.2-0.3c-0.1-0.1-0.2-0.1-0.3-0.2c-0.1,0-0.2-0.1-0.4-0.1c-0.2,0-0.4,0.1-0.6,0.2c-0.1,0.1-0.3,0.3-0.4,0.5
		c-0.1,0.2-0.1,0.5-0.2,0.8c0,0.3-0.1,0.7-0.1,1.1c0,0.5,0,1,0.1,1.3c0,0.3,0.1,0.6,0.2,0.8s0.2,0.4,0.4,0.4
		c0.1,0.1,0.3,0.1,0.5,0.1c0.2,0,0.3,0,0.4-0.1c0.1,0,0.2-0.1,0.3-0.2c0.1-0.1,0.2-0.2,0.2-0.4s0.1-0.3,0.1-0.5
		c0-0.2,0.1-0.4,0.1-0.7S49.8,18.7,49.8,18.4z"/>
</g>
</svg>
