<?xml version="1.0" encoding="utf-8"?>
<!-- Generator: Adobe Illustrator 24.3.0, SVG Export Plug-In . SVG Version: 6.00 Build 0)  -->
<svg version="1.1" id="Camada_1" xmlns="http://www.w3.org/2000/svg" xmlns:xlink="http://www.w3.org/1999/xlink" x="0px" y="0px"
	 viewBox="0 0 315 635" style="enable-background:new 0 0 315 635;" xml:space="preserve">
<style type="text/css">
	.st0{fill:#E5ECF0;}
	.st1{fill:none;}
	.st2{fill:#727D83;}
	.st3{fill:#EEFFF9;}
	.st4{fill:#DDF2EC;}
	.st5{fill:#FFFFFF;}
	.st6{fill:#148260;}
	.st7{fill:url(#SVGID_1_);}
	.st8{fill:#FFFFFF;stroke:#E8EBED;stroke-miterlimit:10;}
	.st9{fill:#2CBA8D;}
	.st10{fill:#C7CFD3;}
	.st11{fill:#E8EBED;}
	.st12{fill:#1CAE81;}
	.st13{fill:#FFFFFF;stroke:#E5ECF0;stroke-miterlimit:10;}
	.st14{fill:#FFCF8C;}
	.st15{fill:#B9C3C9;}
	.st16{fill:#E4EBF0;}
	.st17{fill:#3BB18A;}
	.st18{fill:#128260;}
	.st19{fill:#B9C2C8;}
	.st20{fill:#F9BE6D;}
	.st21{fill:#106449;}
	.st22{fill:#FCCE8C;}
	.st23{fill:#7F5018;}
	.st24{fill:none;stroke:#0B8360;stroke-width:4;stroke-miterlimit:10;}
	.st25{fill:#21AC80;}
	.st26{fill:#FABE6D;}
	.st27{fill:#E84B4D;}
	.st28{fill:#D9D9D9;}
	.st29{fill:#F6C3AC;}
	.st30{fill:#EA6F42;}
	.st31{fill:#DB9880;}
	.st32{fill:#ED8045;}
	.st33{fill:#AD5E4E;}
	.st34{fill:#9B4E41;}
	.st35{fill:#372736;}
	.st36{fill:#FF4848;}
	.st37{fill:#704E43;}
	.st38{fill:#FFFFFF;stroke:#B9C3C9;stroke-miterlimit:10;}
	.st39{fill:#F6BFA3;}
	.st40{fill:#E29F81;}
	.st41{fill:#44261B;}
	.st42{fill:#404040;}
</style>
<rect class="st5" width="315" height="635"/>
<g>
	<g>
		<path class="st6" d="M170.9,299.8v-36.5l5.4-0.6v31.6l10.7-1.1v4.9L170.9,299.8z"/>
		<path class="st6" d="M202.8,296.4l-9.6,1c-2,0.2-3-0.7-3-2.6v-17.7c0-1.9,1-3,3-3.2l9.6-1c2-0.2,3,0.7,3,2.6v17.7
			C205.8,295.1,204.8,296.2,202.8,296.4z M200.6,277.5l-5.1,0.5v14.7l5.1-0.5V277.5z"/>
		<path class="st6" d="M222.2,305.3l-9.2,1c-2,0.2-3-0.7-3-2.6v-3.8l5.2-0.5v2.8l4.7-0.5v-7.2l-5.5,0.6c-1.5,0.2-2.7-0.1-3.6-0.9
			c-0.9-0.8-1.3-1.9-1.3-3.3v-14.4c0-1.4,0.4-2.5,1.1-3.3c0.8-0.8,1.8-1.3,3.1-1.5c0.3,0,0.6-0.1,1-0.1c0.3,0,0.7,0,1,0l4,0.3v-0.9
			l5.4-0.6V302C225.2,304,224.2,305.1,222.2,305.3z M219.9,275.7l-2.2,0c-0.2,0-0.3,0-0.5,0c-0.2,0-0.4,0-0.5,0.1
			c-1.1,0.1-1.7,0.7-1.7,1.9v11.3c0,1.2,0.6,1.7,1.7,1.6l3.2-0.3V275.7z"/>
		<path class="st6" d="M185.1,336.1c-0.9,0.9-2.1,1.5-3.6,1.7l-10.9,1.1v-36.5l5.4-0.6v13.8l5.7-1.4c0.3-0.1,0.6-0.2,0.9-0.2
			c0.3-0.1,0.6-0.1,0.8-0.1c1.9-0.2,2.9,0.7,2.9,2.6v16.1C186.4,334,186,335.2,185.1,336.1z M181,318.7l-5,0.6v14.6l3.3-0.3
			c1.1-0.1,1.7-0.8,1.7-1.9V318.7z"/>
		<path class="st6" d="M202.8,335.6l-9.6,1c-2,0.2-3-0.7-3-2.6v-17.7c0-1.9,1-3,3-3.2l9.6-1c2-0.2,3,0.7,3,2.6v17.7
			C205.8,334.3,204.8,335.4,202.8,335.6z M200.5,316.7l-5.1,0.5v14.7l5.1-0.5V316.7z"/>
		<path class="st6" d="M222.2,333.5l-9.6,1c-2,0.2-3-0.7-3-2.6v-17.7c0-1.9,1-3,3-3.2l9.6-1c2-0.2,3,0.7,3,2.6v17.7
			C225.2,332.2,224.2,333.3,222.2,333.5z M220,314.6l-5.1,0.5v14.7l5.1-0.5V314.6z"/>
		<path class="st6" d="M239.1,331.8l-4.7-10.3v10.8l-5.4,0.6v-36.5l5.4-0.6v21.9l4.2-9.4l5.6-0.6v0.1l-5.4,11.3l6,12v0.1
			L239.1,331.8z"/>
		<g>
			<path class="st6" d="M152.2,340.9l-48.4,5.1c-2.3,0.2-4.3-1.5-4.3-3.8v-71.4l61.4-6.5v67C160.9,336.1,157,340.4,152.2,340.9z
				 M104.1,274.8v66.9l48.1-5.3c2.3-0.2,4.2-2.3,4.2-4.6v-62.4L104.1,274.8z"/>
		</g>
		<path class="st6" d="M138.3,257.5l-49.6,5.2c-1.3,0.1-2.3,1.3-2.3,2.5V337c0,1.5,0.8,2.8,2.1,3.4l42.4,20.6v-18.4l-4.5,0.5v10.5
			l-35.4-17v-66l9.4,4.7l2.3-4.1l-8.8-4.4l44.4-4.7V257.5z"/>
		<g>
			<path class="st6" d="M107,345.4l20.2-1.8l-0.4,6.5c0,0,1.2,4.7,0.4,4.7S107,345.4,107,345.4z"/>
		</g>
		<polygon class="st6" points="229,280.8 234.4,280.2 234.4,285.6 229,286.1 		"/>
		<polygon class="st6" points="123.3,313.6 119.7,310.4 145.2,282.2 148.9,285.4 		"/>
		<polygon class="st6" points="109.6,301.4 113.3,297.3 127,309.6 123.3,313.6 		"/>
		<polygon class="st6" points="142.2,297.8 145.9,301.1 129.5,319.2 125.9,315.9 		"/>
		<polygon class="st6" points="140.2,312.4 143.9,315.7 135.7,324.7 132.1,321.4 		"/>
		<polygon class="st6" points="95,267.8 139.7,263 141.6,263.5 96.1,268.4 		"/>
		<polygon class="st6" points="97.2,269.4 144.3,264.4 145.9,264.9 98.2,270 		"/>
	</g>
</g>
<g>
	<g>
		<path class="st15" d="M49.4,396.3v1.2c0,1.7-0.7,2.6-2.2,2.8c1.5,0.2,2.2,1.2,2.2,2.6v2.1c0,0.5,0.1,1.2,0.4,1.6h-0.2
			c-0.3-0.4-0.3-1.1-0.3-1.6v-2.1c0-2-1.3-2.5-3.1-2.5h-1.7v6.2h-0.2v-13.2h2.5C48.6,393.3,49.4,394.5,49.4,396.3z M49.2,397.5v-1.2
			c0-1.7-0.7-2.8-2.5-2.8h-2.4v6.6h1.7C48,400.1,49.2,399.6,49.2,397.5z"/>
		<path class="st15" d="M56.1,399.9h-4v6.4h4.8v0.2h-4.9v-13.2h4.9v0.2h-4.8v6.2h4V399.9z"/>
		<path class="st15" d="M64.4,396.5v0.8h-0.2v-0.8c0-1.7-0.6-3.1-2.5-3.1s-2.5,1.5-2.5,3.1v6.7c0,1.7,0.6,3.1,2.5,3.1
			s2.5-1.5,2.5-3.1v-3.1H62V400h2.4v3.3c0,1.8-0.7,3.3-2.7,3.3S59,405,59,403.3v-6.7c0-1.8,0.7-3.3,2.7-3.3S64.4,394.8,64.4,396.5z"
			/>
		<path class="st15" d="M66.7,406.5h-0.2v-13.2h0.2V406.5z"/>
		<path class="st15" d="M74.2,396.5v0.2h-0.2v-0.2c0-1.7-0.6-3.1-2.5-3.1s-2.5,1.4-2.5,3.1c0,3.5,5.2,3.3,5.2,6.8
			c0,1.8-0.7,3.3-2.7,3.3s-2.7-1.5-2.7-3.3v-0.6H69v0.6c0,1.7,0.6,3.1,2.5,3.1s2.5-1.4,2.5-3.1c0-3.4-5.2-3.2-5.2-6.8
			c0-1.9,0.8-3.2,2.7-3.3C73.5,393.2,74.2,394.7,74.2,396.5z"/>
		<path class="st15" d="M79.1,393.5h-3v-0.2h6.1v0.2h-3v13h-0.2V393.5z"/>
		<path class="st15" d="M89.4,396.3v1.2c0,1.7-0.7,2.6-2.2,2.8c1.5,0.2,2.2,1.2,2.2,2.6v2.1c0,0.5,0.1,1.2,0.4,1.6h-0.2
			c-0.3-0.4-0.3-1.1-0.3-1.6v-2.1c0-2-1.3-2.5-3.1-2.5h-1.7v6.2h-0.2v-13.2h2.5C88.6,393.3,89.4,394.5,89.4,396.3z M89.2,397.5v-1.2
			c0-1.7-0.7-2.8-2.5-2.8h-2.4v6.6h1.7C88,400.1,89.2,399.6,89.2,397.5z"/>
		<path class="st15" d="M96.1,399.9h-4v6.4h4.8v0.2h-4.9v-13.2h4.9v0.2H92v6.2h4V399.9z"/>
		<path class="st15" d="M109.8,406.5h-0.2v-13.2h0.2V406.5z"/>
		<path class="st15" d="M128.4,396.3v1.1c0,1.5-0.5,2.4-1.6,2.7c1.2,0.4,1.7,1.3,1.7,2.8v2.1c0,0.6,0,1.1,0.3,1.6h-1.5
			c-0.2-0.4-0.2-0.7-0.2-1.6v-2.1c0-1.5-0.7-2-1.9-2h-1v5.6h-1.5v-13.2h2.9C127.5,393.3,128.4,394.4,128.4,396.3z M127,397.7v-1.3
			c0-1.2-0.4-1.8-1.5-1.8H124v4.9h1.1C126.3,399.5,127,399.1,127,397.7z"/>
		<path class="st15" d="M135.3,400.5h-3.2v4.7h4v1.3h-5.4v-13.2h5.4v1.3h-4v4.5h3.2V400.5z"/>
		<path class="st15" d="M138,393.3h1.5v11.9h3.8v1.3H138V393.3z"/>
		<path class="st15" d="M149.7,400.5h-3.2v4.7h4v1.3H145v-13.2h5.4v1.3h-4v4.5h3.2V400.5z"/>
		<path class="st15" d="M155.8,406.5l-2.2-10.5v10.5h-1.3v-13.2h2.1l2.2,10.5l2.1-10.5h2.1v13.2h-1.4v-10.6l-2.1,10.6H155.8z"/>
		<path class="st15" d="M168.7,396.2v0.6c0,1.4-0.4,2.3-1.5,2.6c1.3,0.4,1.8,1.4,1.8,2.8v1.1c0,2-1,3.1-3,3.1h-3v-13.2h3
			C167.9,393.3,168.7,394.3,168.7,396.2z M167.2,397.1v-0.8c0-1.2-0.4-1.7-1.5-1.7h-1.5v4.3h1.1
			C166.6,398.9,167.2,398.5,167.2,397.1z M167.5,403.4v-1.2c0-1.5-0.6-2-1.8-2h-1.3v4.9h1.6C167,405.2,167.5,404.6,167.5,403.4z"/>
		<path class="st15" d="M176.8,396.3v1.1c0,1.5-0.5,2.4-1.6,2.7c1.2,0.4,1.7,1.3,1.7,2.8v2.1c0,0.6,0,1.1,0.3,1.6h-1.5
			c-0.2-0.4-0.2-0.7-0.2-1.6v-2.1c0-1.5-0.7-2-1.9-2h-1v5.6h-1.5v-13.2h2.9C175.9,393.3,176.8,394.4,176.8,396.3z M175.3,397.7v-1.3
			c0-1.2-0.4-1.8-1.5-1.8h-1.4v4.9h1.1C174.6,399.5,175.3,399.1,175.3,397.7z"/>
		<path class="st15" d="M183.6,400.5h-3.2v4.7h4v1.3h-5.4v-13.2h5.4v1.3h-4v4.5h3.2V400.5z"/>
		<path class="st15" d="M197.2,406.5H197v-13.2h0.2V406.5z"/>
		<path class="st15" d="M214.6,406.5l-0.4-2.4h-2.5l-0.4,2.4h-1.9l2.1-13.2h3l2.1,13.2H214.6z M213.9,402.3l-1-6.7l-1,6.7H213.9z"/>
		<path class="st15" d="M224.4,396.6v1.7c0,2.1-1,3.3-3.1,3.3h-1v5h-2.1v-13.2h3.1C223.4,393.3,224.4,394.5,224.4,396.6z
			 M220.3,399.7h1c0.7,0,1-0.3,1-1.2v-2c0-0.9-0.4-1.2-1-1.2h-1V399.7z"/>
		<path class="st15" d="M230.2,404.9v-2.1c0-1.2-0.4-1.7-1.4-1.7h-0.7v5.4h-2.1v-13.2h3.1c2.2,0,3.1,1,3.1,3v1
			c0,1.4-0.4,2.2-1.4,2.7c1,0.4,1.4,1.4,1.4,2.8v2c0,0.6,0,1.1,0.2,1.6h-2.1C230.3,406.2,230.2,406,230.2,404.9z M228.1,399.2h0.8
			c0.8,0,1.2-0.3,1.2-1.4v-1.3c0-0.9-0.3-1.4-1.1-1.4h-1V399.2z"/>
		<path class="st15" d="M239.2,398.9v1.9h-2.8v3.9h3.6v1.9h-5.7v-13.2h5.7v1.9h-3.6v3.7H239.2z"/>
		<path class="st15" d="M243.7,406.5h-1.9v-13.2h2.6l2.1,7.9v-7.9h1.8v13.2h-2.1l-2.6-9.6V406.5z"/>
		<path class="st15" d="M253.8,393.3c2.1,0,3.1,1.2,3.1,3.3v6.7c0,2.1-1,3.3-3.1,3.3h-3.3v-13.2H253.8z M252.6,404.6h1.2
			c0.7,0,1.1-0.3,1.1-1.3v-6.9c0-0.9-0.4-1.3-1.1-1.3h-1.2V404.6z"/>
		<path class="st15" d="M263.4,406.5l-0.4-2.4h-2.5l-0.4,2.4h-1.9l2.1-13.2h3l2.1,13.2H263.4z M262.8,402.3l-1-6.7l-1,6.7H262.8z"/>
	</g>
</g>
</svg>
