<?xml version="1.0" encoding="utf-8"?>
<!-- Generator: Adobe Illustrator 24.3.0, SVG Export Plug-In . SVG Version: 6.00 Build 0)  -->
<svg version="1.1" id="Camada_1" xmlns="http://www.w3.org/2000/svg" xmlns:xlink="http://www.w3.org/1999/xlink" x="0px" y="0px"
	 viewBox="0 0 500 500" style="enable-background:new 0 0 500 500;" xml:space="preserve">
<style type="text/css">
	.st0{fill:#66A577;}
	.st1{fill:#727D83;}
	.st2{fill:#050705;}
	.st3{fill:none;stroke:#000000;stroke-width:0.5;stroke-linecap:round;stroke-linejoin:round;stroke-miterlimit:10;}
	.st4{fill:#1F3865;}
	.st5{fill:#C07A61;}
	.st6{fill:#DDF2EC;}
	.st7{fill:#B9C2C8;}
	.st8{fill:#F3F3F3;}
	.st9{fill:#1CAE81;}
	.st10{fill:#E5ECF0;}
	.st11{fill-rule:evenodd;clip-rule:evenodd;fill:#C07A61;}
	.st12{fill-rule:evenodd;clip-rule:evenodd;fill:#FFC16B;}
	.st13{fill-rule:evenodd;clip-rule:evenodd;fill:#FCB45E;}
	.st14{fill-rule:evenodd;clip-rule:evenodd;fill:#995C42;}
	.st15{fill-rule:evenodd;clip-rule:evenodd;fill:#3E3B3A;}
	.st16{fill:#35252B;}
	.st17{fill:#402A2E;}
	.st18{opacity:0.61;fill:#995C42;}
	.st19{fill:none;stroke:#000000;stroke-width:0.4775;stroke-linecap:round;stroke-linejoin:round;stroke-miterlimit:10;}
	.st20{opacity:0.61;fill-rule:evenodd;clip-rule:evenodd;fill:#995C42;}
	.st21{fill:#FFFFFF;stroke:#DDF2EC;stroke-width:2;stroke-miterlimit:10;}
	.st22{fill:#F8BD9B;}
	.st23{opacity:0.46;fill:#F4A288;}
	.st24{fill:#44241A;}
	.st25{fill:#552E23;}
	.st26{fill-rule:evenodd;clip-rule:evenodd;fill:#C3E0D6;}
	.st27{fill:#1A0806;}
	.st28{fill:none;stroke:#000000;stroke-linecap:round;stroke-linejoin:round;stroke-miterlimit:10;}
	.st29{fill:#FFFFFF;}
	.st30{fill:#263239;}
	.st31{opacity:0.3;}
	.st32{opacity:0.39;}
	.st33{fill:#F4A288;}
	.st34{fill:#EC9A6E;}
	.st35{opacity:0.46;}
	.st36{fill:none;stroke:#000000;stroke-width:2;stroke-linecap:round;stroke-linejoin:round;stroke-miterlimit:10;}
	.st37{fill:none;stroke:#F4A389;stroke-width:2;stroke-linecap:round;stroke-linejoin:round;stroke-miterlimit:10;}
	.st38{fill:#128260;}
	.st39{fill:#21AC80;}
	.st40{clip-path:url(#SVGID_4_);fill-rule:evenodd;clip-rule:evenodd;fill:#C3E0D6;}
	.st41{fill:#B9C3C9;}
	.st42{fill:#5B3127;}
	.st43{opacity:0.2;fill:#B9C2C8;}
	.st44{fill:#CECDCE;}
	.st45{fill:#869095;}
	.st46{fill:#868686;}
	.st47{fill:#D2D2D2;}
	.st48{opacity:0.6;fill:#995C42;}
	.st49{fill:#FFC16B;}
	.st50{fill:#FCB45E;}
	.st51{fill:#2B1C1F;}
	.st52{opacity:0.26;fill:#2CBA8D;}
	.st53{fill:#E5F2EE;}
	.st54{fill:#FABE6D;}
	.st55{fill:#FCCE8C;}
	.st56{fill:#E4EBF0;}
	.st57{fill:none;stroke:#D1D1D1;stroke-width:0.5;stroke-miterlimit:10;}
	.st58{fill:#3BB18A;}
	
		.st59{opacity:0.43;fill:none;stroke:#1C3C6A;stroke-width:0.4775;stroke-linecap:round;stroke-linejoin:round;stroke-miterlimit:10;}
	.st60{fill:#DFDFDF;}
	.st61{opacity:0.6;fill-rule:evenodd;clip-rule:evenodd;fill:#995C42;}
	.st62{fill:#2B1A1E;}
	.st63{fill:#995C42;}
	.st64{opacity:0.58;fill:#995C42;}
	.st65{fill:#EF8274;}
	.st66{opacity:0.53;fill-rule:evenodd;clip-rule:evenodd;fill:#B9C3C9;}
	.st67{fill:#F8BC9E;}
	.st68{fill:#22264F;}
	.st69{fill:#26316A;}
	.st70{fill:#DFDBEF;}
	.st71{fill-rule:evenodd;clip-rule:evenodd;fill:#66A577;}
	.st72{fill-rule:evenodd;clip-rule:evenodd;fill:#4D8254;}
	.st73{fill-rule:evenodd;clip-rule:evenodd;fill:#6DB985;}
	.st74{fill-rule:evenodd;clip-rule:evenodd;fill:#90D2EB;}
	.st75{clip-path:url(#SVGID_10_);fill-rule:evenodd;clip-rule:evenodd;fill:#9ED7F0;}
	.st76{opacity:0.26;}
	.st77{fill:#E0E0E0;}
	.st78{fill:#30323D;}
	.st79{fill:#6DB985;}
	.st80{fill:none;stroke:#254559;stroke-width:0.4775;stroke-linecap:round;stroke-linejoin:round;stroke-miterlimit:10;}
	.st81{fill:#D9E9E0;}
	.st82{fill:#74B28D;}
	.st83{fill:#EAF4ED;}
	.st84{opacity:8.000000e-02;}
	.st85{opacity:0.4;}
	.st86{fill:#FFFFFF;stroke:#263239;stroke-width:0.5;stroke-miterlimit:10;}
	.st87{opacity:0.59;fill-rule:evenodd;clip-rule:evenodd;fill:#995C42;}
	.st88{fill:#724941;}
	.st89{fill-rule:evenodd;clip-rule:evenodd;fill:#D2D2D2;}
	.st90{fill-rule:evenodd;clip-rule:evenodd;fill:#777778;}
	.st91{opacity:0.17;fill:#3D3548;}
	.st92{fill:#D88774;}
	.st93{clip-path:url(#SVGID_12_);}
	.st94{fill:none;stroke:#B7B6B6;stroke-miterlimit:10;}
	.st95{fill:#F9BD6D;}
	.st96{fill:#148260;}
	.st97{fill:#FFFFFF;stroke:#B9C2C8;stroke-miterlimit:10;}
	.st98{fill:#FFFFFF;stroke:#E4EBF0;stroke-miterlimit:10;}
	.st99{fill:#0D8260;}
	.st100{fill:#FFFFFF;stroke:#B9C2C8;stroke-width:0.25;stroke-miterlimit:10;}
	.st101{fill:#727D82;}
	.st102{fill:#FFFFFF;stroke:#E4EBF0;stroke-width:0.5;stroke-miterlimit:10;}
	.st103{fill:#3DB18A;}
	.st104{fill-rule:evenodd;clip-rule:evenodd;fill:#E5ECF0;}
	.st105{opacity:0.58;fill-rule:evenodd;clip-rule:evenodd;fill:#B9C3C9;}
	.st106{fill-rule:evenodd;clip-rule:evenodd;fill:#FFFFFF;}
	.st107{fill-rule:evenodd;clip-rule:evenodd;fill:#1CAE81;}
	.st108{fill-rule:evenodd;clip-rule:evenodd;fill:#148260;}
</style>
<path class="st6" d="M14.1,362.6c0-130.4,208.6-35.7,288.5-229.5c49.7-120.6,241.9,112.7,183.9,229.5
	C403.8,529.2,14.1,397.3,14.1,362.6z"/>
<path class="st7" d="M463.1,357.5H86.8c-4.4,0-8-3.6-8-8V131.7c0-4.4,3.6-8,8-8h376.3c4.4,0,8,3.6,8,8v217.9
	C471.1,354,467.5,357.5,463.1,357.5z"/>
<rect x="84" y="129.6" class="st8" width="380.7" height="222.6"/>
<g>
	<g>
		<path class="st1" d="M267.7,179.8l-2.9,2.5l-0.4-0.3c0-0.1,0-0.3,0-0.6c0-0.3,0-0.4,0-0.6c0-1.6,0.3-3.4,0.8-5.3
			c0.5-1.9,1.3-3.9,2.3-6c1.9-4,4.1-7.2,6.5-9.6s4.6-3.7,6.4-3.7c1.3,0,2.2,0.4,2.9,1.3c0.7,0.9,1,2.2,1,3.8c0,1.4-0.2,3.1-0.6,5.1
			c-0.4,2.1-1.1,4.5-1.9,7.4c-1.2,3.8-2.4,7.1-3.7,10.1c-1.3,3-2.8,5.7-4.4,8.2c-2.7,4.2-5.5,7.5-8.3,9.9c-2.9,2.4-5.4,3.6-7.6,3.6
			c-0.8,0-1.5-0.1-2.2-0.4c-0.7-0.3-1.4-0.7-2.1-1.2l1.5-2.6c0.5,0.4,1,0.7,1.5,0.8c0.5,0.2,1,0.3,1.4,0.3c1.4,0,3.3-1,5.6-3.1
			c2.3-2.1,4.6-4.8,6.9-8.3c1.5-2.3,2.9-4.7,4.1-7.2c1.2-2.5,2.3-5.1,3.3-7.9c1.2-3.3,2.1-6.4,2.8-9.2c0.7-2.8,1-4.7,1-5.8
			c0-0.7-0.2-1.2-0.5-1.6c-0.3-0.4-0.8-0.6-1.3-0.6c-1.1,0-2.6,1.1-4.3,3.2c-1.8,2.1-3.5,4.9-5.1,8.3c-0.8,1.7-1.4,3.4-1.9,4.9
			C268.1,176.8,267.8,178.3,267.7,179.8z"/>
		<path class="st1" d="M297.5,157.6h4.9l-7.5,11.2h-2.1L297.5,157.6z"/>
		<path class="st1" d="M337.1,193.4v2c0,0.5-0.2,0.9-0.6,1.2l-1,0.8c-7.1,5.5-11.4,8.3-12.9,8.3c-0.6,0-1-0.2-1.2-0.5
			c-0.3-0.3-0.4-0.8-0.4-1.5c0-0.3,0-0.7,0.2-1.1c0.1-0.4,0.2-0.8,0.4-1.1l6.8-14.2c0.2-0.5,0.4-0.9,0.5-1.2
			c0.1-0.3,0.2-0.6,0.2-0.9c0,0,0-0.1,0-0.1c0,0,0,0,0,0c-0.2,0-1.1,0.8-2.8,2.3c-1.6,1.6-3.5,3.5-5.7,5.8c-1.9,1.9-4,4.4-6.5,7.3
			c-2.9,3.4-4.7,5-5.6,5c-0.4,0-0.7-0.1-0.9-0.3c-0.2-0.2-0.4-0.5-0.4-0.8c0-0.5,0.2-1.2,0.6-2.1c0.1-0.2,0.2-0.3,0.2-0.4l6.2-13.4
			c0.4-0.9,0.8-1.7,1-2.3c0.2-0.6,0.3-0.9,0.3-1.1c0,0,0-0.1,0-0.1c0,0-0.1,0-0.1,0c-0.3,0-1.1,0.6-2.4,1.8s-2.9,2.9-4.9,5
			c-1.7,1.8-3.7,4.2-6.2,7c-3.8,4.4-6.2,6.6-7.4,6.6c-0.4,0-0.7-0.2-1-0.5c-0.3-0.3-0.4-0.8-0.4-1.3c0-0.6,0.9-2.5,2.7-5.7
			c1.1-2,2-3.7,2.7-4.9c-0.8,0.8-1.7,1.5-2.4,2.1c-0.8,0.6-1.5,1.1-2.2,1.5l0-0.9c0-1.2,0.5-2.3,1.4-3c1.2-0.9,2.3-1.9,3.2-2.9
			c1.3-1.3,2.2-2.3,2.5-2.9l2.2-4.5c0.5-1,1.6-1.7,2.7-1.7h1l-8.2,17.3c5.1-5.7,9.3-10.1,12.7-13.2c3.4-3.1,5.7-4.6,6.8-4.6
			c0.4,0,0.8,0.1,1,0.3c0.2,0.2,0.4,0.5,0.4,0.9c0,0.3-0.1,0.7-0.2,1.2c-0.1,0.5-0.4,1.1-0.7,1.8l-5.9,13.3c5-5.6,9.1-9.9,12.4-12.9
			c3.3-3,5.5-4.5,6.7-4.5c0.4,0,0.8,0.1,1,0.3c0.2,0.2,0.4,0.5,0.4,0.9c0,0.4-0.1,0.8-0.2,1.3c-0.2,0.5-0.4,1.1-0.7,1.7l-7.1,15.4
			c-0.2,0.4-0.3,0.6-0.3,0.8c-0.1,0.2-0.1,0.3-0.1,0.3c0,0.2,0,0.3,0.1,0.4c0.1,0.1,0.2,0.2,0.3,0.2c0.4,0,1.6-0.8,3.7-2.3
			C331,198.1,333.7,196,337.1,193.4z"/>
	</g>
</g>
<g>
	<g>
		<path class="st9" d="M177.9,243.3c-2.8,2.7-5.2,4.9-7.4,6.7c-0.9,0.7-1.7,1.4-2.6,2.1c-1.4,1.1-3.4,0-3.4-1.7l0,0
			c0-0.6,0.3-1.1,0.7-1.5c3.9-3,7.5-6,10.5-8.9c3.3-3.1,5-5,5.3-5.6l3.4-8.5h5.1l-4.9,13.2c4.2-5.3,7.7-9,10.7-11.2
			c3-2.1,5.8-3.2,8.7-3.2c2.8,0,5.1,1,6.9,3.1c1.8,2,2.7,4.7,2.7,7.9c0,4.8-1.5,9.7-4.4,14.8c-2.9,5.1-7.1,9.9-12.4,14.4
			c3-0.2,6.4-1.4,10.4-3.6c3.9-2.2,9.8-6.6,17.8-13.1v5c-6.8,5.7-12.5,9.6-17,11.7c-4.5,2.2-9.1,3.2-13.7,3.2c-0.2,0-0.5,0-0.9-0.1
			c-0.4,0-0.7-0.1-0.9-0.1c-1.9,0.8-3.5,1.5-4.9,1.9c-1.4,0.4-2.6,0.6-3.6,0.6c-1.8,0-3.4-0.4-4.7-1.3c-1.3-0.8-1.9-1.8-1.9-2.9
			c0-0.8,0.3-1.4,0.9-1.9c0.6-0.5,1.4-0.8,2.3-0.8c0.8,0,2.1,0.1,3.7,0.4c1.6,0.3,2.8,0.4,3.5,0.4c2,0,4-0.7,6.1-2.1
			c2.1-1.4,4.2-3.5,6.3-6.3c2.6-3.4,4.6-7,6.2-10.8c1.5-3.8,2.3-7.2,2.3-10.1c0-1.5-0.5-2.9-1.5-4s-2.2-1.7-3.6-1.7
			c-2,0-4.1,0.7-6.2,2.1c-2.1,1.4-4.6,3.8-7.6,7.1c-3.5,4.1-6.6,8.4-9.2,12.8c-2.6,4.5-4.8,9.2-6.5,14.1c-0.7,2.1-1.8,6-3.1,11.7
			c-1.3,5.6-2.7,11.8-4,18.6l-0.1,0.7c-1.2,6.3-2.8,9.4-4.6,9.4c-0.6,0-1.2-0.3-1.6-0.9c-0.4-0.6-0.6-1.4-0.6-2.3
			c0-1.3,0.6-4.5,1.8-9.7c1.2-5.2,2.8-11.3,4.7-18.2c2.1-7.5,4-13.7,5.7-18.6C174.2,251.4,176,247.1,177.9,243.3z"/>
		<path class="st9" d="M246.6,260.4c-0.2,0.4-0.3,0.8-0.4,1.2c-0.1,0.4-0.2,0.7-0.2,0.8c0,0.3,0.1,0.5,0.2,0.8
			c0.1,0.2,0.3,0.4,0.5,0.4c0.6,0,2.8-1.3,6.6-4s8.7-6.5,14.8-11.4v5l-2.9,2.2c-13.4,10.4-21.4,15.5-24.2,15.5c-0.7,0-1.3-0.3-1.7-1
			c-0.4-0.6-0.7-1.5-0.7-2.5c0-0.4,0.1-1.1,0.4-1.8c0.2-0.8,0.6-1.7,1-2.7l10.4-23.3c0.3-0.7,0.8-1.7,1.3-2.9
			c1.1-2.3,1.6-3.7,1.6-4.1c0-1.1-1.8-1.7-5.3-2c-1.7-0.1-3.1-0.2-4.2-0.4c-2.5,4.9-5.4,9.4-8.8,13.4c-3.4,4-7.4,7.6-11.8,10.8v-5
			c3.4-2.4,6.6-5.4,9.5-9c2.9-3.6,5.3-7.4,7.3-11.7c-0.8-0.5-1.4-1-1.7-1.7c-0.3-0.6-0.5-1.4-0.5-2.4c0-1.6,0.4-2.9,1.2-3.9
			c0.8-1,1.8-1.5,3.1-1.5c1.1,0,1.9,0.4,2.6,1.1c0.7,0.7,1,1.6,1,2.7c0,0.5,0,1-0.1,1.5c-0.1,0.4-0.2,0.9-0.4,1.4c1,0,2,0,3.1-0.1
			c0.3,0,0.5-0.1,0.6-0.1c3.4,0,5.8,0.5,7.3,1.4c1.5,0.9,2.2,2.4,2.2,4.5c0,0.7-0.2,1.6-0.5,2.7c-0.4,1.1-1.2,3.1-2.6,6.1
			L246.6,260.4z"/>
		<path class="st9" d="M311.5,247.7v4.9c-3.4,2.7-6.1,4.5-8.3,5.6c-2.2,1.1-4.2,1.6-6,1.6c-0.3,0-0.9,0-1.8-0.1
			c-0.3,0-0.6-0.1-0.8-0.1c-3.2,3.7-6.2,6.4-9,8.2c-2.8,1.8-5.5,2.7-8.2,2.7c-3.4,0-6.2-1.3-8.2-3.9c-2-2.6-3.1-6.1-3.1-10.6
			c0-5.1,1.3-10.1,4-14.9c2.7-4.8,6.4-8.9,11.2-12.4c2.1-1.5,4.5-2.8,7-3.9c2.5-1.1,4.3-1.6,5.5-1.6c0.5,0,0.9,0.2,1.2,0.6
			c0.3,0.4,0.5,0.9,0.5,1.4c0,1-1.3,2.1-3.8,3.2c-2.5,1.1-4.6,2.2-6.3,3.3c-4.1,2.7-7.5,6.4-10.1,11c-2.7,4.6-4,9-4,13.2
			c0,2.8,0.7,5.2,2.1,7.1c1.4,1.9,3.1,2.9,5,2.9c1.8,0,3.7-0.7,5.8-2.2c2.1-1.5,4.5-3.8,7.1-6.9c-1-1.7-1.8-3.3-2.2-4.9
			c-0.5-1.6-0.7-3.2-0.7-4.9c0-4.3,1.2-8.1,3.6-11.7c2.4-3.5,4.8-5.3,7.3-5.3c1.5,0,2.7,0.7,3.7,2c1,1.3,1.5,3,1.5,5
			c0,2.4-0.6,5.3-1.9,8.6c-1.2,3.3-2.9,6.5-5.1,9.7h0.2c1.4,0,3-0.5,5-1.6C304.8,252.6,307.7,250.6,311.5,247.7z M294.4,252.6
			c1.9-3.3,3.3-6.3,4.3-8.8c1-2.6,1.5-4.5,1.5-6c0-0.6-0.2-1.2-0.6-1.6c-0.4-0.5-0.8-0.7-1.3-0.7c-1.1,0-2.3,1.2-3.5,3.6
			c-1.2,2.4-1.8,5-1.8,7.8c0,1,0.2,1.9,0.4,2.8C293.5,250.6,293.9,251.6,294.4,252.6z"/>
		<path class="st9" d="M345.4,260.4c-0.2,0.4-0.4,0.8-0.5,1.1c-0.1,0.3-0.2,0.5-0.2,0.7c0,0.3,0.1,0.5,0.2,0.8
			c0.1,0.2,0.3,0.4,0.5,0.4c0.6,0,2.7-1.3,6.2-3.8c3.5-2.5,8.6-6.4,15.2-11.5v5c-8.5,6.7-14.7,11.3-18.6,13.8
			c-3.9,2.5-6.7,3.8-8.4,3.8c-0.7,0-1.3-0.3-1.7-1c-0.4-0.6-0.7-1.5-0.7-2.5c0-0.4,0.1-1.1,0.4-1.9c0.2-0.8,0.6-1.7,1-2.6l11.2-24
			c-9.3,9.8-17.4,17.5-24.4,23.2c-7,5.7-11.6,8.6-14,8.6c-0.9,0-1.6-0.3-2-0.8c-0.5-0.6-0.7-1.4-0.7-2.6c0-0.6,0.1-1.3,0.3-2.1
			c0.2-0.8,0.5-1.6,0.9-2.4l7.4-14.6c-1.4,1.3-2.8,2.4-4.2,3.5c-1.4,1.1-2.8,2.1-4.2,2.9v-5c3.2-2.3,6.1-4.7,8.6-7.2
			c2.5-2.4,3.9-4.1,4.4-5.2l4.6-9.4c0.5-1.1,1.6-1.8,2.8-1.8l0,0c1.6,0,2.6,1.6,1.9,3l-14,29.3c-0.2,0.5-0.4,0.9-0.5,1.2
			c-0.1,0.3-0.2,0.6-0.2,0.8c0,0.6,0.1,1.1,0.2,1.3c0.2,0.3,0.4,0.4,0.6,0.4c1.5,0,6.2-3.6,14-10.7c7.5-6.9,15.3-15,23.2-24.4
			c0.6-0.7,1.5-1.1,2.4-1.1h0.4c1.6,0,2.7,1.7,2,3.1L345.4,260.4z"/>
		<path class="st9" d="M423.4,250.9v0.8c0,0.9-0.4,1.8-1.2,2.4l-2.3,1.7c-12.7,9.8-20.4,14.8-23.1,14.8c-1.8,0-3.2-0.7-4.1-2.2
			c-0.9-1.5-1.4-3.7-1.4-6.6v-1.2c-3.5,3.4-6.5,6-9.2,7.6c-2.6,1.6-5,2.4-7.1,2.4c-3.4,0-6-1.3-7.9-4c-1.9-2.7-2.9-6.3-2.9-10.9
			c0-8.5,3.4-16,10.1-22.3c6.7-6.4,14.8-9.5,24.3-9.5h0.2c4.5-13.3,8.9-24,13.3-32.2c4.4-8.1,7.9-12.2,10.5-12.2
			c0.8,0,1.4,0.5,1.9,1.6c0.4,1.1,0.6,2.5,0.6,4.4c0,3.2-0.8,7.6-2.2,13.3c-1.5,5.6-3.6,12.1-6.4,19.2c-2.9,7.4-6,14.2-9.4,20.5
			c-3.3,6.2-6.9,11.8-10.5,16.7c-0.2,0.8-0.3,1.7-0.4,2.5c-0.1,0.8-0.1,1.6-0.1,2.4c0,1.5,0.3,2.8,0.8,3.8s1.2,1.5,1.9,1.5
			c1.9,0,8.4-4.4,19.6-13.2l2.6-2C422.1,249.1,423.4,249.8,423.4,250.9z M392.4,252.6c0.3-3,0.9-6.3,1.7-10c0.8-3.6,2-8.4,3.6-14.1
			h-0.2c-7.2,0-13.7,2.8-19.4,8.3c-5.7,5.5-8.5,11.6-8.5,18.3c0,3.1,0.6,5.6,1.9,7.5s2.8,2.8,4.8,2.8c1.7,0,3.8-1,6.3-3
			C385.1,260.3,388.4,257.1,392.4,252.6z M398.4,244.8c6.4-10.5,11.6-21.1,15.5-31.8c4-10.7,6-19.2,6.2-25.4
			c-4.1,5.7-8.1,13.6-11.9,23.7C404.3,221.4,401.1,232.5,398.4,244.8z"/>
	</g>
</g>
<g>
	<g>
		<path class="st9" d="M182.9,293.6c26.6-6.6,54-9,81.4-10.3c27.7-1.3,55.5-1.8,83.3-1.7c15.8,0.1,31.7,0.4,47.5,1
			c1.4,0.1,1.4-2.2,0-2.2c-28.4-1-56.9-1.3-85.3-0.8c-27.6,0.5-55.3,1.2-82.8,4.2c-15,1.6-30,4-44.6,7.7
			C181,291.9,181.5,294,182.9,293.6L182.9,293.6z"/>
	</g>
</g>
<g>
	<g>
		<path class="st1" d="M307.1,309.5v1.8c-1.2,1-2.3,1.6-3.1,2c-0.8,0.4-1.5,0.6-2.2,0.6c-0.1,0-0.3,0-0.7,0c-0.1,0-0.2,0-0.3,0
			c-1.2,1.3-2.3,2.3-3.3,3c-1,0.6-2,1-3,1c-1.3,0-2.3-0.5-3-1.4c-0.7-0.9-1.1-2.2-1.1-3.8c0-1.8,0.5-3.6,1.5-5.3
			c1-1.7,2.3-3.2,4.1-4.4c0.8-0.6,1.6-1,2.6-1.4s1.6-0.6,2-0.6c0.2,0,0.3,0.1,0.4,0.2c0.1,0.1,0.2,0.3,0.2,0.5
			c0,0.4-0.5,0.7-1.4,1.1c-0.9,0.4-1.7,0.8-2.3,1.2c-1.5,1-2.7,2.3-3.7,3.9c-1,1.6-1.5,3.2-1.5,4.7c0,1,0.3,1.8,0.8,2.5
			c0.5,0.7,1.1,1,1.8,1c0.7,0,1.4-0.3,2.1-0.8c0.8-0.5,1.6-1.4,2.6-2.5c-0.4-0.6-0.6-1.2-0.8-1.7c-0.2-0.6-0.3-1.1-0.3-1.7
			c0-1.5,0.4-2.9,1.3-4.2c0.9-1.3,1.8-1.9,2.7-1.9c0.5,0,1,0.2,1.4,0.7c0.4,0.5,0.5,1.1,0.5,1.8c0,0.9-0.2,1.9-0.7,3.1
			c-0.5,1.2-1.1,2.3-1.9,3.5h0.1c0.5,0,1.1-0.2,1.8-0.6C304.7,311.3,305.7,310.6,307.1,309.5z M300.8,311.3c0.7-1.2,1.2-2.2,1.6-3.2
			s0.5-1.6,0.5-2.1c0-0.2-0.1-0.4-0.2-0.6s-0.3-0.3-0.5-0.3c-0.4,0-0.8,0.4-1.3,1.3s-0.6,1.8-0.6,2.8c0,0.3,0.1,0.7,0.1,1
			C300.5,310.5,300.6,310.9,300.8,311.3z"/>
		<path class="st1" d="M318.8,309.5v1.8c-0.9,0.8-1.8,1.6-2.7,2.2c-0.9,0.7-1.8,1.3-2.7,1.9c-0.2,4.1-1.2,7.7-2.9,10.6
			c-1.7,3-3.3,4.5-5.1,4.5c-0.7,0-1.2-0.2-1.5-0.7s-0.5-1.1-0.5-2c0-0.5,0.1-1.1,0.2-1.8c0.2-0.7,0.4-1.4,0.6-2.2l5.4-14.9
			c-0.4,0.4-0.9,0.9-1.4,1.3c-0.5,0.5-1.2,1-2,1.7v-1.8c1.4-1.2,2.4-2.2,3.1-2.9s1.3-1.5,1.7-2.1l4.7-12.7c0.3-0.7,0.6-1.6,1-2.8
			c1.1-3.1,1.9-4.6,2.5-4.6c0.3,0,0.5,0.1,0.7,0.3c0.2,0.2,0.3,0.5,0.3,0.7c0,0.3-0.8,2.5-2.5,6.6c-1.6,4-3.1,7.9-4.4,11.5
			l-7.1,19.6l-0.1,0.3c-0.6,1.7-0.9,2.8-0.9,3.4c0,0.3,0.1,0.5,0.2,0.7c0.1,0.2,0.3,0.3,0.5,0.3c1,0,2.2-1.5,3.6-4.4
			c1.4-2.9,2.2-6.1,2.3-9.6c1.2-0.7,2.4-1.5,3.6-2.3C316.5,311.4,317.7,310.5,318.8,309.5z"/>
		<path class="st1" d="M331.3,309.6c-0.6,0.5-1.1,1-1.6,1.3s-1,0.7-1.4,1v-1.8c1.2-0.9,2.3-1.8,3.2-2.6c0.9-0.9,1.4-1.5,1.6-1.8
			l1.9-4h2l-4.8,11.3c0,0.1-0.1,0.2-0.2,0.4c-0.3,0.5-0.4,0.9-0.4,1.1c0,0.1,0,0.1,0.1,0.2c0,0,0.1,0,0.1,0c0.6,0,2.3-1.3,5-3.8
			c2.7-2.6,5.5-5.6,8.4-9.2h1.9l-7.1,15.5l0.5-0.4c4.1-3.4,7.1-5.8,8.9-7v1.8c-2.9,2.2-5.3,4.1-7.2,5.7s-3.3,2.9-4.2,3.9
			c-1.1,3.2-2.1,5.5-2.9,7.1c-0.9,1.5-1.7,2.3-2.4,2.3c-0.3,0-0.5-0.1-0.6-0.3c-0.2-0.2-0.2-0.5-0.2-0.9c0-1.2,0.5-2.7,1.4-4.5
			c1-1.8,2.2-3.5,3.8-5.1l5.9-13c-3.5,3.8-6.4,6.6-8.5,8.4c-2.1,1.8-3.7,2.7-4.7,2.7c-0.4,0-0.6-0.1-0.8-0.2s-0.2-0.3-0.2-0.7
			c0-0.2,0.1-0.5,0.2-0.8c0.1-0.4,0.3-0.8,0.5-1.4L331.3,309.6z"/>
		<path class="st1" d="M365.1,309.5v1.8c-1.2,1-2.3,1.6-3.1,2c-0.8,0.4-1.5,0.6-2.2,0.6c-0.1,0-0.3,0-0.7,0c-0.1,0-0.2,0-0.3,0
			c-1.2,1.3-2.3,2.3-3.3,3c-1,0.6-2,1-3,1c-1.3,0-2.3-0.5-3-1.4c-0.7-0.9-1.1-2.2-1.1-3.8c0-1.8,0.5-3.6,1.5-5.3
			c1-1.7,2.3-3.2,4.1-4.4c0.8-0.6,1.6-1,2.6-1.4s1.6-0.6,2-0.6c0.2,0,0.3,0.1,0.4,0.2c0.1,0.1,0.2,0.3,0.2,0.5
			c0,0.4-0.5,0.7-1.4,1.1c-0.9,0.4-1.7,0.8-2.3,1.2c-1.5,1-2.7,2.3-3.7,3.9c-1,1.6-1.5,3.2-1.5,4.7c0,1,0.3,1.8,0.8,2.5
			c0.5,0.7,1.1,1,1.8,1c0.7,0,1.4-0.3,2.1-0.8c0.8-0.5,1.6-1.4,2.6-2.5c-0.4-0.6-0.6-1.2-0.8-1.7c-0.2-0.6-0.3-1.1-0.3-1.7
			c0-1.5,0.4-2.9,1.3-4.2c0.9-1.3,1.8-1.9,2.7-1.9c0.5,0,1,0.2,1.4,0.7c0.4,0.5,0.5,1.1,0.5,1.8c0,0.9-0.2,1.9-0.7,3.1
			c-0.5,1.2-1.1,2.3-1.9,3.5h0.1c0.5,0,1.1-0.2,1.8-0.6C362.6,311.3,363.7,310.6,365.1,309.5z M358.8,311.3c0.7-1.2,1.2-2.2,1.6-3.2
			s0.5-1.6,0.5-2.1c0-0.2-0.1-0.4-0.2-0.6s-0.3-0.3-0.5-0.3c-0.4,0-0.8,0.4-1.3,1.3s-0.6,1.8-0.6,2.8c0,0.3,0.1,0.7,0.1,1
			C358.5,310.5,358.6,310.9,358.8,311.3z"/>
		<path class="st1" d="M377.5,314c-0.1,0.2-0.1,0.3-0.2,0.4s-0.1,0.2-0.1,0.3c0,0.1,0,0.2,0.1,0.3c0.1,0.1,0.1,0.1,0.2,0.1
			c0.2,0,1-0.5,2.3-1.4c1.3-0.9,3.1-2.3,5.6-4.1v1.8c-3.1,2.4-5.4,4.1-6.8,5s-2.5,1.4-3.1,1.4c-0.3,0-0.5-0.1-0.6-0.3
			c-0.2-0.2-0.2-0.5-0.2-0.9c0-0.2,0-0.4,0.1-0.7c0.1-0.3,0.2-0.6,0.4-0.9l4.1-8.6c-3.4,3.5-6.4,6.3-9,8.3c-2.6,2.1-4.3,3.1-5.1,3.1
			c-0.3,0-0.6-0.1-0.7-0.3s-0.3-0.5-0.3-0.9c0-0.2,0-0.5,0.1-0.8c0.1-0.3,0.2-0.6,0.3-0.9l2.7-5.3c-0.5,0.5-1,0.9-1.5,1.3
			c-0.5,0.4-1,0.7-1.5,1v-1.8c1.2-0.8,2.2-1.7,3.1-2.6c0.9-0.9,1.4-1.5,1.6-1.9l2-4h2l-5.7,11.6c-0.1,0.2-0.1,0.3-0.2,0.4
			c0,0.1-0.1,0.2-0.1,0.3c0,0.2,0,0.4,0.1,0.5s0.1,0.2,0.2,0.2c0.6,0,2.3-1.3,5.1-3.8s5.8-5.6,8.9-9.2h2L377.5,314z"/>
		<path class="st1" d="M386.7,317.7c-0.3,0-0.6-0.1-0.7-0.3c-0.2-0.2-0.3-0.4-0.3-0.8c0-0.6,0.2-1.2,0.6-1.7
			c0.4-0.5,0.9-0.8,1.4-0.8c0.3,0,0.6,0.1,0.7,0.3c0.2,0.2,0.3,0.4,0.3,0.8c0,0.6-0.2,1.2-0.6,1.7
			C387.6,317.4,387.1,317.7,386.7,317.7z M388.1,311.8l7.2-19.2c0.3-0.7,0.5-1.2,0.7-1.5c0.2-0.3,0.4-0.4,0.7-0.4
			c0.3,0,0.6,0.1,0.8,0.2c0.2,0.2,0.3,0.3,0.3,0.6c0,0.1,0,0.3-0.1,0.5c-0.1,0.3-0.2,0.6-0.4,1l-7.8,18.9L388.1,311.8z"/>
	</g>
</g>
<g>
	<path class="st10" d="M269.6,36c-19.5,0-35.3,15.8-35.3,35.4s15.8,35.4,35.3,35.4s35.3-15.8,35.3-35.4S289.1,36,269.6,36z
		 M271.5,101.6c-16.7,1-31-11.6-32.1-28.3s11.6-31.1,28.3-32.1c16.7-1,31,11.6,32.1,28.3C300.8,86.2,288.2,100.6,271.5,101.6z"/>
	<g>
		<rect x="237.1" y="70.8" class="st10" width="11.1" height="0.9"/>
		<rect x="291.1" y="70.8" class="st10" width="11.1" height="0.9"/>
		<rect x="269.1" y="39" class="st10" width="0.9" height="11.2"/>
		<rect x="269.1" y="92.9" class="st10" width="0.9" height="11.2"/>
		<path class="st10" d="M270.5,71.4c0,0.5-0.4,0.9-0.9,0.9c-0.5,0-0.9-0.4-0.9-0.9c0-0.5,0.4-0.9,0.9-0.9
			C270.1,70.4,270.5,70.9,270.5,71.4z"/>
		<g>
			<path class="st10" d="M269.6,71.8c-0.1,0-0.2,0-0.3-0.1l-16.6-16.6c-0.2-0.2-0.2-0.4,0-0.6c0.2-0.2,0.4-0.2,0.6,0l16.6,16.6
				c0.2,0.2,0.2,0.4,0,0.6C269.8,71.7,269.7,71.8,269.6,71.8z"/>
		</g>
		<g>
			<path class="st10" d="M274.9,88.2c-0.1,0-0.1-0.1-0.2-0.2l-5.4-16.2c-0.1-0.2,0-0.3,0.2-0.4c0.2-0.1,0.3,0,0.4,0.2l5.4,16.2
				c0.1,0.2,0,0.3-0.2,0.4C275.1,88.2,275,88.2,274.9,88.2z"/>
		</g>
	</g>
</g>
<path class="st11" d="M173.5,391.6c-4.1,3.8-22.8-6.8-16.1-19c11.5-21.1,70.1-43.1,70.1-43.1l5.6,8.8L173.5,391.6z"/>
<path class="st11" d="M131.3,282.4c4.3-0.3,9.7-11.3,25.6,23.6c15.9,34.9,27.7,46.8,27.7,46.8c-7,0-27.6,24.2-27.2,30.4
	c0,0-34.9-69.2-32.9-78C127.8,291.3,127,282.7,131.3,282.4L131.3,282.4z"/>
<path class="st12" d="M47.4,429.3c11.7-1.4,29.5-6.5,54.1-1.9c3.2,0.6-15,5.9-12.5,7.7c8.7,6.6,59.5-2.9,70.4-3
	C153.5,354,149.1,302,138.5,281c-1.2-2.4-28.9-11.1-46.3-10.7c-22.6,0.5-35.7,2.6-56.7,8.4C50.9,347.6,49.3,366.4,47.4,429.3z"/>
<path class="st13" d="M64.1,351.2c3.7-23.3-2.4-44.3-9.1-77.2c-6,1.2-12.2,2.8-19.4,4.7c15.4,68.8,13.8,87.6,11.8,150.5
	c11.7-1.4,29.5-6.5,54.1-1.9c3.2,0.6-15,5.9-12.5,7.7c8.7,6.6,59.5-2.9,70.4-3c-0.5-7.2-0.6-8.5-1.2-15.3
	C138.9,419.3,50,439.5,64.1,351.2z"/>
<path class="st11" d="M91.6,270.3c7.8-0.1,17.7,1.5,26.4,3.6c3.7,5.9,8.1,14.8,5.9,21.9c-3.7,11.7-31.5,11.9-49.9-0.7
	c-11.4-7.8-17.4-15.9-20.3-21.1C65.5,271.7,76.3,270.7,91.6,270.3L91.6,270.3z"/>
<path class="st11" d="M231.4,316.9c1-0.4,2.9-2.9,9.6-2.5c6.6,0.4,14.1,5.3,14.7,6.3c0.6,1-3.8,11.6-6,13.5
	c-2.1,1.9-16.9,4.2-16.9,4.2l-7.9-7.9L231.4,316.9z"/>
<path class="st11" d="M224.9,330.6c0.8-2.2,4.9-17.9,6-18.6c1-0.7,9.5-2.8,13.3-3.9c3.8-1,3.8-1,3.8-1s0.4,1.3-1.6,4
	c-2,2.7-11.5,5.6-11.5,5.6c0.7,3.6,2.2,5.9,0.2,10.9c-1.3,3.4-4.6,5.4-7.2,4.1C225.4,330.4,224.9,330.6,224.9,330.6L224.9,330.6z"/>
<path class="st14" d="M245.7,307.6c2.2-0.6,2.2-0.5,2.2-0.5s0.4,1.3-1.6,4c-2,2.7-11.5,5.6-11.5,5.6c0.7,3.6,2.2,5.9,0.2,10.9
	c-0.3,0.9-0.8,1.7-1.4,2.4c-0.5,0.5-0.8,0.8-0.8,0.8l0,0c0,0,1.7-5,1.6-7.2c0-2.2-1.2-8.5-1.2-8.5s7.7-2,9.5-3.8
	C243.9,310.1,245,308.7,245.7,307.6L245.7,307.6z"/>
<path class="st11" d="M257.6,321c-0.6-1.3-6-11.4-6.5-13.1c-0.5-1.7-0.4-2.3-0.9-2.1c-0.5,0.2-1.9,1.6-2.1,5
	c-0.1,3.4,2.6,9.6,4.3,12.1c1.8,2.5,3.4,3.7,4.9,2.5C259,324.2,257.6,321,257.6,321L257.6,321z"/>
<path class="st14" d="M251,307.5c-0.4-1.4-0.3-1.9-0.8-1.7c-0.5,0.2-1.9,1.6-2.1,5c-0.1,3.4,2.6,9.6,4.3,12.1
	c1.8,2.5,3.4,3.7,4.9,2.5c0.6-2-0.7-3.2-1.2-4.3c-0.4-1.1-2.2-2.4-3.6-3.5c-1.4-1.2-2.9-6-2.7-7.5C250,309.5,250.4,308.5,251,307.5
	L251,307.5z"/>
<path class="st15" d="M234.6,326.2c0,0,2.4,1.9,2.4,1.4c0-0.5,63.2-99,63.2-99l-1.1-0.6C277.4,260.5,256.4,293.6,234.6,326.2
	L234.6,326.2z"/>
<path class="st11" d="M256.5,322.2c1.8,1.6,1,4.6-1.8,4.8c-2.8,0.2-9.2-6.6-11.5-8.8c-2.3-2.2,0.6-4.9,2.3-4.1
	C249.3,315.8,254.7,320.6,256.5,322.2L256.5,322.2z"/>
<path class="st14" d="M257.1,325.7c-0.4,0.7-1.3,1.2-2.4,1.3c-2.8,0.2-9.2-6.6-11.5-8.8c-2.3-2.2,0.6-4.9,2.3-4.1l0.1,0
	c-1,0.3-1.9,0.7-1.8,1.5c0.1,1.5,6.9,8.2,8.3,9C253.1,325.1,255.7,325.4,257.1,325.7L257.1,325.7z"/>
<path class="st11" d="M253.7,325.9c2.1,1.2,1.9,4.3-0.7,5.1c-2.7,0.8-10.3-4.5-13-6.2c-2.7-1.6-0.6-5,1.3-4.6
	C245.4,321.1,251.6,324.7,253.7,325.9L253.7,325.9z"/>
<path class="st14" d="M241.5,324c2.2,1.3,7.5,5,10.9,6c0.8,0.3,1.5,0.3,2,0.2c-0.3,0.4-0.8,0.6-1.4,0.8c-0.3,0.1-0.7,0.1-1.2,0
	c-0.4,0-1-0.2-1.5-0.4c-0.4-0.2-1-0.4-1.6-0.7c-3.2-1.5-7-4-8.7-5.1c-0.3-0.2-0.6-0.4-0.8-0.7c-1.2-1.6,0.2-3.8,1.7-3.9
	c-0.4,0.6-0.7,1.3-0.6,2.1C240.4,322.9,240.7,323.5,241.5,324L241.5,324z"/>
<path class="st11" d="M250.9,329.9c1.8,0.8,2,3.4-0.1,4.3c-2.1,0.9-9-2.7-11.3-3.8c-2.4-1.1-0.9-4.1,0.6-4
	C243.5,326.8,249.1,329.1,250.9,329.9L250.9,329.9z"/>
<path class="st14" d="M239.4,328.5c0.6,1.2,8.6,5,10.8,5c0.1,0,0.2,0,0.3,0c0.6,0,1.2-0.1,1.6-0.2c-0.2,0.4-0.6,0.7-1.2,1
	c-0.3,0.1-0.7,0.2-1.3,0.1c-2.8-0.3-8.1-3.1-10.1-4c-2.2-1-1.2-3.5,0.2-3.9C239.3,327.1,239,327.8,239.4,328.5L239.4,328.5z"/>
<ellipse transform="matrix(0.7071 -0.7071 0.7071 0.7071 -102.0989 82.3561)" class="st16" cx="48.4" cy="164.4" rx="27.2" ry="27.2"/>
<path class="st17" d="M57.1,170.5c0,0-13.6,0.2-22,12.2c-8.4,12.1-3.1,45.3,18.3,52L57.1,170.5z"/>
<path class="st17" d="M40.8,170.7c-2.2-20.4,115-57.7,80.2,43.4C121,214.1,43,191.1,40.8,170.7z"/>
<path class="st17" d="M122.2,209.4c0.3,22.9-16.1,41.6-39.7,41.9c-23.7,0.3-43.1-17.9-43.4-40.8c-0.3-22.9,18.6-41.7,42.3-42
	C104.9,168.2,121.8,186.5,122.2,209.4z"/>
<polygon class="st5" points="74.4,204 63.7,273.8 91.5,281.3 102.2,272.9 97.3,210.7 "/>
<path class="st18" d="M70.9,246.5c2,4.3,13.7,19,20.4,22.1c3.6,1.7,7.8,0.7,10.4-2.3l0,0l-4.4-55.6l-16.9-5
	C80.5,205.7,65.5,235,70.9,246.5z"/>
<path class="st5" d="M74.3,172.9c7.5-2.2,15.5-2.7,23.2-1.2c10.4,2,23.8,8.4,25.7,27.3c3.2,31.6-6.6,53.5-22.1,60.9
	c-11.9,5.7-38.5-16.1-40-22.2l-6.2-16.8C54.9,220.9,38.3,183.3,74.3,172.9z"/>
<path class="st17" d="M60.7,230.1c0,0,20.1-36.7-3.1-48.4c0,0-10.6-7.2-14.4,12.6C37.1,226,60.7,230.1,60.7,230.1z"/>
<path class="st17" d="M57.1,183.5c0,0,6.3,15.7,38,0c17.4-8.6,27.8,7.6,27.8,7.6s-6.2-25.6-35.2-23.6
	C58.7,169.5,57.1,183.5,57.1,183.5z"/>
<ellipse class="st5" cx="59.1" cy="224.6" rx="8" ry="12.8"/>
<path class="st17" d="M96.3,178.5c0,0-9.6,9.8-25.9,14.2c0,0,29.3-5.6,34.8-18.7C110.8,161,96.3,178.5,96.3,178.5z"/>
<path class="st17" d="M124.7,205.1c-0.8-1.3-3.7-5.1-9-5c-6.4,0.1-5.5,2.9-5.5,2.9s3.4-1.4,7.5-0.8c3.3,0.5,6.1,2.4,7,3.1
	C124.7,205.2,124.7,205.1,124.7,205.1z"/>
<path class="st17" d="M84.1,205.2c0,0,3.9-5.3,10.2-4.8c6.3,0.5,4.9,3.2,4.9,3.2s-3.2-1.6-7.3-1.2C87.8,202.8,84.1,205.2,84.1,205.2
	z"/>
<path class="st19" d="M109.2,213.4l2.8,8.3c0.9,2.8-0.9,5.7-3.7,6.1"/>
<path class="st20" d="M227.3,337.4c-3.5,0.4-24.8,18.9-40.7,30.6c-6.7,5-12.5,8.7-15.5,9.3c-4.9,0.9-10.4-0.9-14.8-3
	c-0.3-0.1-0.6-0.3-0.9-0.4c-0.1,1-0.2,1.9-0.1,2.9c0.9,10.4,14.7,18.1,18.3,14.8l10.6-9.5l47.6-43.1c0,0,14.8-2.3,17.5-4.2
	c-0.3,0-0.5-0.1-0.9-0.2c-4.2,0.6-12.3,1.8-17.4,2.5c-0.4,0-0.7,0.1-1,0.1C228.9,337.2,228,337.4,227.3,337.4L227.3,337.4z"/>
<path class="st50" d="M95,401.3c-0.3-1.9-2.4-3.6-6.2-2.3c-3.8,1.3-8.6,6.3-8.6,6.3l-1.3,2.8l1.2-2.7c0,0,0.5-6.7-1.1-10.2
	c-1.6-3.5-4.5-3.7-6.1-2.6c-3.2,2.1-5.6,8.6,2.3,14.8c0,0-2.8,0.5-3.5,2.2c-0.8,2.2,2.9,3.8,6.5,0.1l0-0.1c-0.2,4.8,3.4,6.2,4.5,4.1
	c0.9-1.6-0.7-3.9-0.7-3.9C92.2,411.1,95.6,404.9,95,401.3z"/>
<path class="st50" d="M141.5,362.2c-1.6-0.9-4.3-0.3-5.5,3.5c-1.2,3.9-0.1,10.6-0.1,10.6l1.4,2.8l-1.4-2.5c0,0-5-4.4-8.8-5.3
	c-3.8-0.8-5.7,1.3-5.8,3.3c-0.3,3.8,3.5,9.7,13.2,7.1c0,0-1.3,2.6-0.4,4.1c1.2,2,4.7,0,4-5.1l0-0.1c3.7,3.1,7,1,6-1.1
	c-0.8-1.7-3.5-1.8-3.5-1.8C147.5,370.4,144.7,364,141.5,362.2z"/>
<path class="st50" d="M132.5,293.1c-1.8-0.4-4.2,0.9-4.3,4.9c-0.1,4,2.8,10.3,2.8,10.3l2.1,2.2l-2.1-2c0,0-6-2.9-9.9-2.6
	c-3.9,0.3-5.1,2.8-4.7,4.7c0.8,3.8,6.1,8.3,14.7,3.1c0,0-0.6,2.8,0.8,4.1c1.7,1.6,4.5-1.3,2.5-6l0,0c4.4,2,7-1,5.5-2.7
	c-1.2-1.4-3.9-0.7-3.9-0.7C140.6,299.2,136.1,293.9,132.5,293.1z"/>
<path class="st50" d="M83.8,319.8c-0.6-1.8-2.9-3.2-6.4-1.3c-3.6,1.9-7.5,7.6-7.5,7.6l-0.9,3l0.7-2.8c0,0-0.5-6.7-2.7-9.9
	c-2.2-3.2-5-3-6.4-1.7c-2.9,2.6-4.2,9.4,4.6,14.3c0,0-2.7,0.9-3.1,2.7c-0.5,2.3,3.4,3.3,6.4-0.9l0-0.1c0.5,4.8,4.4,5.6,5.1,3.4
	c0.6-1.7-1.3-3.7-1.3-3.7C82.5,329.8,84.9,323.3,83.8,319.8z"/>
<path class="st50" d="M72.7,344.5c-1.7-0.7-4.3,0.1-5.2,4c-0.9,3.9,0.8,10.6,0.8,10.6l1.7,2.6l-1.6-2.4c0,0-5.4-4-9.2-4.5
	c-3.9-0.5-5.5,1.8-5.5,3.7c0.1,3.9,4.3,9.3,13.8,5.9c0,0-1.1,2.7,0,4.1c1.4,1.9,4.7-0.4,3.6-5.4l0,0c4,2.8,7.1,0.4,5.9-1.6
	c-0.9-1.6-3.7-1.5-3.7-1.5C79.4,352.1,76.1,346,72.7,344.5z"/>
<path class="st11" d="M53.5,324.5c8.2-29.1-7.1-47.1-16.8-46c-17.1,1.9-39.1,94.8-30.9,110c8.2,15.2,22.5,17.3,29.1,6.6
	C41.4,384.5,53.5,324.5,53.5,324.5L53.5,324.5z"/>
<path class="st106" d="M90.2,304.8c0.3-1.2-0.4-10.1-0.4-10.1l7.6-3.8l38.3,19.9l17.9-11.6l4.7,3.4l-36,71l-25,2.9l-24.7-15.7
	L90.2,304.8z"/>
<polygon class="st107" points="89.8,294.7 136.3,316 107.1,386.6 60.6,365.2 "/>
<path class="st108" d="M136.3,316c0,0,23.1-14.7,22.1-13.3c-1,1.4-29.3,76.7-29.3,76.7l-22,7.1L136.3,316z"/>
<path class="st11" d="M92.3,397.5c-1-0.3-6.6-0.2-6-5.3c0.6-5,5.3-12.8,5.3-12.8l7.5,3.5c0,0,9.4-10.2,11.9-10.8
	c2.5-0.7,1.8,3.2,1.8,3.2s4.1-2.7,4.7-0.9c0.6,1.9-0.5,5.1-0.5,5.1s1.3-1,1.2,1.3c-0.1,2.2-6.2,9.6-9.2,12.2
	C106,395.6,92.3,397.5,92.3,397.5L92.3,397.5z"/>
<path class="st20" d="M36.2,351.8c-3.4,6.2-6.8,10.9-10.6,14.5h0c6,0.1,11.9,4.6,16.8,6.6c2.2-8.3,4.3-17.4,6.2-25.6
	c2.8-12.7,4.9-22.8,4.9-22.8c5.8-20.5-1.1-36-9-42.6c1.1,3.7,2.5,9.3,3.8,16.8c1.6,9.6,1.2,19.5-2.6,31.5
	C43.7,336.7,40.6,343.8,36.2,351.8L36.2,351.8z"/>
<path class="st11" d="M22.4,405.6c-5.5,0.7-10.5-3.1-11.3-8.6c-0.7-4.7-3.4-23.2-1.1-29.1c4.7-12.5,78.7,17,78.7,17l2.3,12.4
	L22.4,405.6z"/>
<path class="st20" d="M113.9,387.7c-4.6,1.5-11.8,3.5-18.4,3.6c-1.3,0-3.2,0.1-5.6,0.3c-1.1,0-2.4-0.1-3.6,0.2
	c-69,17.3-82-9.8-82-9.8c0.7,6.2,2.9,12.7,6.5,18.4c2.4,3.8,6.8,5.8,11.2,5.3l30.7-3.8l38.2-4.7c0.6,0.1,1.1,0.1,1.3,0.2
	c0,0,13.7-1.8,16.7-4.4C110.3,391.9,112.2,389.8,113.9,387.7L113.9,387.7z"/>
<path class="st50" d="M157.5,407.3c-0.3-4-0.6-7.9-0.9-11.7c-1.3-0.2-3,0.5-4.5,2.5c-2.4,3.3-3.5,10-3.5,10l0.5,3.1l-0.5-2.9
	c0,0-3.3-5.8-6.6-7.8c-3.3-2-5.8-0.6-6.5,1.2c-1.5,3.6,0.2,10.3,10.3,10.9c0,0-2.1,2-1.7,3.8c0.5,2.3,4.5,1.5,5.4-3.5l0-0.1
	c2.5,4.1,6.3,3.2,6.1,0.9c-0.2-1.8-2.8-2.8-2.8-2.8C154.8,409.9,156.3,408.6,157.5,407.3z"/>
<g>
	<path class="st29" d="M93.5,234.8c0,0,0,0.5,0.1,1.3c0.2,1.2,0.6,3.1,2,4.8c1.3,1.6,3.3,3.1,6.5,3.6c2.9,0.5,5.1,0,6.8-1
		c2.4-1.4,3.8-3.7,4.5-5.3c0.5-1.1,0.7-2,0.7-2C104.8,238.4,93.5,234.8,93.5,234.8z"/>
	<path class="st29" d="M95.6,240.9c1.3,1.6,3.3,3.1,6.5,3.6c2.9,0.5,5.1,0,6.8-1c-1.3-1.4-3.7-2.9-7.1-3.3
		C98.9,239.9,97.2,240.5,95.6,240.9z"/>
	<path class="st29" d="M93.5,234.8c0,0,0,0.5,0.1,1.3c7.5,4,16.3,2.8,19.8,2.1c0.5-1.1,0.7-2,0.7-2
		C104.8,238.4,93.5,234.8,93.5,234.8z"/>
</g>
<path class="st17" d="M116.1,210.2c0.9,0,1.8,0.3,2.6,0.9c0-1.6-1.2-3-2.6-3s-2.6,1.3-2.6,3C114.3,210.6,115.2,210.2,116.1,210.2z"
	/>
<path class="st17" d="M93,210.2c0.9,0,1.8,0.3,2.6,0.9c0-1.6-1.2-3-2.6-3c-1.4,0-2.6,1.3-2.6,3C91.1,210.6,92,210.2,93,210.2z"/>
<path class="st63" d="M60.8,221.1c0,0-4.7,3.4-0.5,6c0.9,0.5,0.1,6.2-2.1,4.7c-2.1-1.6-5.7-9.6-1.3-13.5
	C61.3,214.6,62.1,220.9,60.8,221.1z"/>
</svg>
