<?xml version="1.0" encoding="utf-8"?>
<!-- Generator: Adobe Illustrator 24.3.0, SVG Export Plug-In . SVG Version: 6.00 Build 0)  -->
<svg version="1.1" id="Camada_1" xmlns="http://www.w3.org/2000/svg" xmlns:xlink="http://www.w3.org/1999/xlink" x="0px" y="0px"
	 viewBox="0 0 500 500" style="enable-background:new 0 0 500 500;" xml:space="preserve">
<style type="text/css">
	.st0{fill:#66A577;}
	.st1{fill:#727D83;}
	.st2{fill:#050705;}
	.st3{fill:none;stroke:#000000;stroke-width:0.5;stroke-linecap:round;stroke-linejoin:round;stroke-miterlimit:10;}
	.st4{fill:#1F3865;}
	.st5{fill:#C07A61;}
	.st6{fill:#DDF2EC;}
	.st7{fill:#B9C2C8;}
	.st8{fill:#F3F3F3;}
	.st9{fill:#1CAE81;}
	.st10{fill:#E5ECF0;}
	.st11{fill-rule:evenodd;clip-rule:evenodd;fill:#C07A61;}
	.st12{fill-rule:evenodd;clip-rule:evenodd;fill:#FFC16B;}
	.st13{fill-rule:evenodd;clip-rule:evenodd;fill:#FCB45E;}
	.st14{fill-rule:evenodd;clip-rule:evenodd;fill:#995C42;}
	.st15{fill-rule:evenodd;clip-rule:evenodd;fill:#3E3B3A;}
	.st16{fill:#35252B;}
	.st17{fill:#402A2E;}
	.st18{opacity:0.61;fill:#995C42;}
	.st19{fill:none;stroke:#000000;stroke-width:0.4775;stroke-linecap:round;stroke-linejoin:round;stroke-miterlimit:10;}
	.st20{opacity:0.61;fill-rule:evenodd;clip-rule:evenodd;fill:#995C42;}
	.st21{fill:#FFFFFF;stroke:#DDF2EC;stroke-width:2;stroke-miterlimit:10;}
	.st22{fill:#F8BD9B;}
	.st23{opacity:0.46;fill:#F4A288;}
	.st24{fill:#44241A;}
	.st25{fill:#552E23;}
	.st26{fill-rule:evenodd;clip-rule:evenodd;fill:#C3E0D6;}
	.st27{fill:#1A0806;}
	.st28{fill:none;stroke:#000000;stroke-linecap:round;stroke-linejoin:round;stroke-miterlimit:10;}
	.st29{fill:#FFFFFF;}
	.st30{fill:#263239;}
	.st31{opacity:0.3;}
	.st32{opacity:0.39;}
	.st33{fill:#F4A288;}
	.st34{fill:#EC9A6E;}
	.st35{opacity:0.46;}
	.st36{fill:none;stroke:#000000;stroke-width:2;stroke-linecap:round;stroke-linejoin:round;stroke-miterlimit:10;}
	.st37{fill:none;stroke:#F4A389;stroke-width:2;stroke-linecap:round;stroke-linejoin:round;stroke-miterlimit:10;}
	.st38{fill:#128260;}
	.st39{fill:#21AC80;}
	.st40{clip-path:url(#SVGID_4_);fill-rule:evenodd;clip-rule:evenodd;fill:#C3E0D6;}
	.st41{fill:#B9C3C9;}
	.st42{fill:#5B3127;}
	.st43{opacity:0.2;fill:#B9C2C8;}
	.st44{fill:#CECDCE;}
	.st45{fill:#869095;}
	.st46{fill:#868686;}
	.st47{fill:#D2D2D2;}
	.st48{opacity:0.6;fill:#995C42;}
	.st49{fill:#FFC16B;}
	.st50{fill:#FCB45E;}
	.st51{fill:#2B1C1F;}
	.st52{opacity:0.26;fill:#2CBA8D;}
	.st53{fill:#E5F2EE;}
	.st54{fill:#FABE6D;}
	.st55{fill:#FCCE8C;}
	.st56{fill:#E4EBF0;}
	.st57{fill:none;stroke:#D1D1D1;stroke-width:0.5;stroke-miterlimit:10;}
	.st58{fill:#3BB18A;}
	
		.st59{opacity:0.43;fill:none;stroke:#1C3C6A;stroke-width:0.4775;stroke-linecap:round;stroke-linejoin:round;stroke-miterlimit:10;}
	.st60{fill:#DFDFDF;}
	.st61{opacity:0.6;fill-rule:evenodd;clip-rule:evenodd;fill:#995C42;}
	.st62{fill:#2B1A1E;}
	.st63{fill:#995C42;}
	.st64{opacity:0.58;fill:#995C42;}
	.st65{fill:#EF8274;}
	.st66{opacity:0.53;fill-rule:evenodd;clip-rule:evenodd;fill:#B9C3C9;}
	.st67{fill:#F8BC9E;}
	.st68{fill:#22264F;}
	.st69{fill:#26316A;}
	.st70{fill:#DFDBEF;}
	.st71{fill-rule:evenodd;clip-rule:evenodd;fill:#66A577;}
	.st72{fill-rule:evenodd;clip-rule:evenodd;fill:#4D8254;}
	.st73{fill-rule:evenodd;clip-rule:evenodd;fill:#6DB985;}
	.st74{fill-rule:evenodd;clip-rule:evenodd;fill:#90D2EB;}
	.st75{clip-path:url(#SVGID_10_);fill-rule:evenodd;clip-rule:evenodd;fill:#9ED7F0;}
	.st76{opacity:0.26;}
	.st77{fill:#E0E0E0;}
	.st78{fill:#30323D;}
	.st79{fill:#6DB985;}
	.st80{fill:none;stroke:#254559;stroke-width:0.4775;stroke-linecap:round;stroke-linejoin:round;stroke-miterlimit:10;}
	.st81{fill:#D9E9E0;}
	.st82{fill:#74B28D;}
	.st83{fill:#EAF4ED;}
	.st84{opacity:8.000000e-02;}
	.st85{opacity:0.4;}
	.st86{fill:#FFFFFF;stroke:#263239;stroke-width:0.5;stroke-miterlimit:10;}
	.st87{opacity:0.59;fill-rule:evenodd;clip-rule:evenodd;fill:#995C42;}
	.st88{fill:#724941;}
	.st89{fill-rule:evenodd;clip-rule:evenodd;fill:#D2D2D2;}
	.st90{fill-rule:evenodd;clip-rule:evenodd;fill:#777778;}
	.st91{opacity:0.17;fill:#3D3548;}
	.st92{fill:#D88774;}
	.st93{clip-path:url(#SVGID_12_);}
	.st94{fill:none;stroke:#B7B6B6;stroke-miterlimit:10;}
	.st95{fill:#F9BD6D;}
	.st96{fill:#148260;}
	.st97{fill:#FFFFFF;stroke:#B9C2C8;stroke-miterlimit:10;}
	.st98{fill:#FFFFFF;stroke:#E4EBF0;stroke-miterlimit:10;}
	.st99{fill:#0D8260;}
	.st100{fill:#FFFFFF;stroke:#B9C2C8;stroke-width:0.25;stroke-miterlimit:10;}
	.st101{fill:#727D82;}
	.st102{fill:#FFFFFF;stroke:#E4EBF0;stroke-width:0.5;stroke-miterlimit:10;}
	.st103{fill:#3DB18A;}
	.st104{fill-rule:evenodd;clip-rule:evenodd;fill:#E5ECF0;}
	.st105{opacity:0.58;fill-rule:evenodd;clip-rule:evenodd;fill:#B9C3C9;}
	.st106{fill-rule:evenodd;clip-rule:evenodd;fill:#FFFFFF;}
	.st107{fill-rule:evenodd;clip-rule:evenodd;fill:#1CAE81;}
	.st108{fill-rule:evenodd;clip-rule:evenodd;fill:#148260;}
</style>
<path class="st10" d="M108,436.7c0,16.4,274.9,3.8,179.3,29.8c-31,8.4,179.3-13.3,179.3-29.8c0-16.4-80.3-29.8-179.3-29.8
	C188.3,406.9,108,420.2,108,436.7z"/>
<path class="st21" d="M162.3,79.8H12.3c-5.8,0-10.4,4.7-10.4,10.4v54.5c0,5.8,4.7,10.4,10.4,10.4h115.3c0.4,6.8,5.9,12.1,12.8,12.1
	c6.9,0,12.4-5.4,12.8-12.1h9.1c5.8,0,10.4-4.7,10.4-10.4V90.2C172.7,84.5,168.1,79.8,162.3,79.8z"/>
<path class="st6" d="M41.3,331.3c-15.3-116.1,187.3-32.1,259-206.1c44.6-108.3,217.2,101.2,165.1,206.1
	C391.2,480.9,47.7,379.5,41.3,331.3z"/>
<path class="st22" d="M282.4,264.2v20.5c0,4.7,3.2,8.7,7.8,9.7l5.2,1.2l0,0c-12.4,27.5-50.7,29.5-65.8,3.3l-1.6-2.8l6.7-2.3
	c3.9-1.3,3.1-8.9,3.2-13l5.5-51.1L282.4,264.2z"/>
<path class="st22" d="M228.6,214.4c0,0,8.5,55.1,50.8,47.7c42.3-7.4,28.5-66.7,28.5-66.7s4.5-56.6-37.6-48
	C228.3,156.1,224.2,174.6,228.6,214.4z"/>
<path class="st23" d="M287.2,262.5c-0.3,0.1-0.5,0.2-0.8,0.2c-19.7,5.1-35.8-5.4-44.9-16.5c0,1.2-1.2,8.3-1.1,10.5
	c7.7,8.8,22.7,16.3,38.7,13.5c3.8-0.7,7.1-1.7,10-3.1C288.6,265.6,287.9,264,287.2,262.5z"/>
<path class="st24" d="M228.8,215.3c0,0,5.1-4.3,4.7-12.1c-0.5-7.8,20.8-14.4,6.9-40.5c0,0,60.4,21.2,64.4,4.1c0,0,2.6,9.5,2.7,17.5
	c0,5.3,0.6,3.6,0.6,3.6s25.5-47.3-29.5-60.9c-36.2-9-54.5,25.1-54.5,25.1S196.9,172.4,228.8,215.3z"/>
<g>
	<path class="st25" d="M240.4,170.4c2.5,4.6,3.8,8.6,4.4,12.2c0.6-3.1,0.5-6.7-0.7-10.9C241.8,170.9,240.4,170.4,240.4,170.4z"/>
	<path class="st25" d="M224.2,159.8c0,0,18.2-34.1,54.5-25.1c26,6.4,34,20.4,35.2,33.3c1.3-14.6-4-33.2-35.2-41
		c-36.2-9-54.5,25.1-54.5,25.1s-12.5,9.3-10.6,28.7C215,166.6,224.2,159.8,224.2,159.8z"/>
</g>
<g>
	<path class="st26" d="M447.4,363c2.7-6.3,25.2-34.3,3.1-61.5c-7.9-9.7-26.8-2.4-25.2,8.5c1.4,8.7,5.8,17.6,16,39.7
		C443.1,353.4,447.4,363,447.4,363z"/>
	<path class="st26" d="M446.5,365.7c0.2,0.2,0.5,0.3,0.7,0.5c0,0,0.1,0,0.1,0c0.9-3.2,1.3-6.7,1.7-10.1c1.5-13.3,0.9-27.3-3.5-39.7
		c-1.3-3.9-3.1-7.6-5.3-11c-0.1,0-0.2,0-0.3-0.1l-0.1,0.3c6.6,10.3,8.9,23.2,9.1,35.6C449.1,349.5,448.6,357.9,446.5,365.7z"/>
	<path class="st26" d="M450.4,310.6c0.3,3.4-1.9,6.7-3.9,9.5l-0.1,0.1c-4.1-3.8-8.5-7.5-13.8-9.3l-0.2,0.1c0,0,0.1,0.2,0.3,0.3
		c5,1.9,9.3,5.6,13.1,9.2c0.7,0.7,0.7,0.2,0.7,0.2c2.2-3.1,4.3-6.6,3.9-10C450.6,310.7,450.6,310.3,450.4,310.6z"/>
	<path class="st26" d="M454.5,323.6c-0.6,3.9-3,7.2-5.5,10.1c0,0-0.7-0.9-1.6-1.8c-2.1-2.4-4.6-4.4-7.5-5.8l-0.2,0.1l0.1,0.2
		c3.4,1.7,6.3,4.7,8.8,7.7c0,0,0.1,0.1,0.1,0.1c0.1,0.1-0.1,0.1,0.3,0.1c0.1,0,0.2-0.1,0.3-0.2c2.6-3,4.9-6.4,5.4-10.4
		C454.8,323.7,454.8,323.3,454.5,323.6z"/>
	<path class="st26" d="M454,340.4c0,1.1-0.7,2.1-1.3,3.1c-1,1.8-2.3,3.4-3.5,5c0,0-0.4-0.8-0.8-1.4c-1.4-2.1-3.4-3.9-5.6-5.1
		l-0.2,0.1c0,0,1.1,0.8,2,1.5c1.8,1.4,3.2,3.3,4.3,5.3c0.4,0.7,0.4,0.2,0.7-0.2c1.8-2.4,4-4.9,4.6-7.9c0-0.2,0.1-0.4,0.1-0.6
		C454.2,340.4,454.2,340.2,454,340.4z"/>
	<path class="st26" d="M479.8,316c-30.9,8.4-30.3,40.9-31.2,50.5c0.5,0.2,1.1,0.4,1.6,0.6c2.8-1.6,8.1-4.8,10.5-6.2
		c20.5-11.9,29-16.5,34.9-22.8C503.1,330.2,491.6,312.8,479.8,316z"/>
	<path class="st26" d="M486.2,325.4c-3.7,1.5-7.2,3.4-10.4,5.8c-10.4,7.6-18.6,18.6-24.8,30.4c-0.8,1.6-1.7,3.3-2.4,4.9
		c0.2,0.1,0.5,0.1,0.7,0.2c2.6-6.1,6.1-11.9,9.9-17.3c7-10,16-19.2,27.1-23.6l0.1-0.3C486.4,325.5,486.3,325.5,486.2,325.4z"/>
	<path class="st26" d="M475,323.6c-2.1,2.6-2.2,6.6-2.1,10.1l0,0.1c5.4-0.7,11.1-1.1,16.4,0.7l0.1,0.2c0,0-0.2,0.1-0.4,0
		c-5.1-1.5-10.7-1.1-15.8-0.4c-0.9,0.1-0.7-0.2-0.7-0.2c-0.1-3.8,0.1-8,2.3-10.6C474.7,323.5,475,323.2,475,323.6z"/>
	<path class="st26" d="M464.5,331.7c-1.7,3.5-1.5,7.7-1.1,11.5c0,0,1.1-0.3,2.3-0.6c3.1-0.6,6.2-0.8,9.3-0.2l0.1,0.2l-0.2,0.1
		c-3.8-0.6-7.7,0-11.4,1c-0.1,0-0.1,0-0.2,0c-0.2,0,0,0.2-0.3,0c-0.1-0.1-0.1-0.2-0.1-0.4c-0.5-4-0.5-8.2,1.3-11.7
		C464.2,331.6,464.3,331.3,464.5,331.7z"/>
	<path class="st26" d="M455.6,345.8c-0.6,0.9-0.6,2.1-0.7,3.3c-0.1,2.1,0,4.2,0.1,6.2c0,0,0.8-0.4,1.4-0.6c2.3-0.9,4.9-1.1,7.4-0.8
		l0.1,0.2c0,0-1.3,0-2.5,0.1c-2.2,0.1-4.4,0.8-6.4,1.8c-0.7,0.4-0.5-0.1-0.5-0.5c-0.2-3.1-0.6-6.4,0.6-9.2c0.1-0.2,0.2-0.4,0.3-0.5
		C455.4,345.6,455.5,345.4,455.6,345.8z"/>
	<g>
		<path class="st26" d="M449.6,366.9c-1-7.8,1.8-42.9-30.4-52.3c-11.7-3.4-23.5,13.8-16.3,21.8c5.8,6.4,14.2,11.2,34.5,23.5
			c2.5,1.5,8,4.9,10.7,6.6C448.6,366.5,449.1,366.7,449.6,366.9z"/>
		<path class="st26" d="M449.1,366.7c0.3,0.1,0.7,0.2,1,0.4c-0.9-2.2-1.9-4.3-2.9-6.3c-5.9-11.9-13.9-23.1-24.2-30.8
			c-3.2-2.4-6.7-4.5-10.3-6c-0.1,0-0.2,0.1-0.2,0.1l0.1,0.3c11,4.7,19.8,14,26.7,24.1C443.1,354.1,446.6,360.2,449.1,366.7z"/>
		<path class="st26" d="M423.9,322.2c2.1,2.6,2.1,6.6,1.9,10.1l0,0.1c-5.4-0.8-11-1.3-16.4,0.4l-0.1,0.2c0,0,0.2,0.1,0.4,0
			c5.1-1.4,10.7-0.9,15.8-0.1c0.9,0.1,0.7-0.2,0.7-0.2c0.1-3.8,0-8-2.1-10.6C424.2,322.1,423.9,321.8,423.9,322.2z"/>
		<path class="st26" d="M434.3,330.5c1.6,3.6,1.4,7.7,0.9,11.6c0,0-1.1-0.3-2.3-0.6c-3-0.7-6.2-0.9-9.3-0.4l-0.1,0.2l0.2,0.1
			c3.8-0.6,7.7,0.2,11.4,1.2c0.1,0,0.1,0,0.2,0c0.2,0,0,0.2,0.3,0c0.1-0.1,0.1-0.2,0.1-0.4c0.5-4,0.7-8.2-1.1-11.8
			C434.6,330.5,434.4,330.1,434.3,330.5z"/>
		<path class="st26" d="M442.9,344.8c0.6,0.9,0.6,2.1,0.6,3.3c0.1,2.1,0,4.2-0.2,6.2c0,0-0.7-0.4-1.4-0.7c-2.3-0.9-4.9-1.2-7.3-1
			l-0.1,0.2c0,0,1.3,0,2.5,0.1c2.2,0.1,4.4,0.9,6.4,1.9c0.7,0.4,0.5-0.1,0.5-0.5c0.2-3.1,0.7-6.4-0.4-9.2c-0.1-0.2-0.2-0.4-0.3-0.5
			C443.1,344.6,443,344.4,442.9,344.8z"/>
	</g>
</g>
<g>
	
		<ellipse transform="matrix(0.9961 -8.790272e-02 8.790272e-02 0.9961 -17.5933 20.8493)" class="st22" cx="227.9" cy="210.2" rx="8.2" ry="14.3"/>
</g>
<ellipse class="st27" cx="271.7" cy="200.7" rx="3" ry="4.7"/>
<path class="st27" d="M304.6,200.7c0,2.6-1.4,4.7-3,4.7s-3-2.1-3-4.7s1.4-4.7,3-4.7S304.6,198.1,304.6,200.7z"/>
<path class="st28" d="M290.8,202.5l4.5,13.4c0.8,2.4-0.8,5-3.3,5.4l-6.8,1.1"/>
<path class="st29" d="M153.6,362.9c0,0,23.1-67.2,27.3-70.3c13.5-10.2,57.2-18,57.2-18s11,28.9,31.1,28.7
	c20.3-0.2,26.9-21.9,26.9-21.9s28.9-1.2,40.6,4.4c4.7,2.2,35.7,63.4,35.7,63.4l-33.9,13.6l9.5,69.3l-170.4,0.1l1.6-68.7L153.6,362.9
	z"/>
<g>
	<path class="st30" d="M194.4,311.1c-0.1,0.1-3-2.6-6.5-6c-3.5-3.4-6.3-6.2-6.2-6.3c0.1-0.1,3,2.6,6.5,6
		C191.7,308.1,194.5,311,194.4,311.1z"/>
</g>
<g>
	<path class="st30" d="M242.2,283.6c0,0.1-1,0.5-2.2,1.1c-1.2,0.6-2,1.4-2.1,1.3c-0.1-0.1,0.7-1,1.9-1.7
		C241,283.7,242.2,283.5,242.2,283.6z"/>
</g>
<g>
	<path class="st30" d="M244.5,295.6c-0.1,0,0-1.2,0.9-2.2c0.9-1.1,2-1.4,2-1.3c0.1,0.1-0.9,0.6-1.7,1.6
		C245,294.6,244.6,295.6,244.5,295.6z"/>
</g>
<g>
	<path class="st30" d="M250.3,301.4c-0.1-0.1,0.3-1,1-2c0.6-1,1.2-1.8,1.3-1.8c0.1,0.1-0.3,1-1,2C251,300.7,250.4,301.5,250.3,301.4
		z"/>
</g>
<g>
	<path class="st30" d="M261.1,306.1c-0.1,0-0.1-0.9,0.1-1.9c0.2-1,0.4-1.9,0.5-1.9c0.1,0,0.1,0.9-0.1,1.9
		C261.5,305.3,261.2,306.1,261.1,306.1z"/>
</g>
<g>
	<path class="st30" d="M271,307.8c-0.1,0-0.2-1.2-0.6-2.5c-0.4-1.4-0.9-2.4-0.7-2.5c0.1-0.1,0.8,0.9,1.2,2.4
		C271.2,306.6,271.1,307.8,271,307.8z"/>
</g>
<g>
	<path class="st30" d="M282.1,306.1c-0.1,0-0.3-1.3-0.8-2.8c-0.5-1.5-1-2.7-0.9-2.7c0.1-0.1,0.9,1,1.3,2.6
		C282.2,304.7,282.2,306.1,282.1,306.1z"/>
</g>
<g>
	<path class="st30" d="M290.3,300.3c-0.1,0-0.3-1.3-1.1-2.7c-0.8-1.4-1.9-2.2-1.8-2.3c0-0.1,1.3,0.6,2.2,2.1
		C290.4,298.8,290.4,300.3,290.3,300.3z"/>
</g>
<g class="st31">
	<path class="st10" d="M201.2,332.7c-1.6,19.8-2.9,39.2-5,59l1.1,0.2C203.6,373.1,203,352.5,201.2,332.7z"/>
</g>
<g>
	<path class="st30" d="M201.4,325.3c0.1,0-0.4,10.3-1.2,23c-0.8,12.7-1.5,22.9-1.7,22.9c-0.1,0,0.4-10.3,1.2-23
		C200.6,335.6,201.3,325.3,201.4,325.3z"/>
</g>
<g>
	<path class="st10" d="M329.5,374c-6.4-21-14.4-41.5-22.5-62c-1.2-3.2-2.5-6.4-4.6-9c-2.1-2.7-5.2-4.7-8.6-4.8l0.6,4.3
		c7.5,17.9,10.8,37.2,16.2,55.8c5.4,18.6,13.3,37.3,27.8,50.2C335.9,396.9,332.9,385.4,329.5,374z"/>
</g>
<g>
	<g>
		<path class="st22" d="M328.8,400.9c-4,0-27.2,8.5-27.2,8.5s-75.8-12.7-105.5-17.6l2.6-27.6l-38.7-1l-7.9,32.9l-0.1,0.4
			c-2.4,9.2-1.3,19,3.3,27.2c2.6,4.7,6.8,9.6,11.1,9.6c22.8,0,142.4,0.1,142.4,0.1L328,433c4-3.1,1.3-0.9,4.8-0.4
			c3.5,0.4,15-0.4,15-0.4s6.6-0.4,8.8-4c2.2-3.5,5.3-12.3,5.3-13.6C361.8,413.2,332.8,400.9,328.8,400.9z"/>
	</g>
	<path class="st22" d="M343.4,419.9c0,0-0.2,0.2-0.7,0.4c-0.4,0.3-1.1,0.6-1.9,1.1c-1.6,0.9-3.8,2.1-6.2,3.4
		c-1.2,0.7-2.4,1.2-3.3,1.9c-0.9,0.7-1.5,1.6-1.7,2.5c-0.1,0.9,0.1,1.6,0.4,2c0.3,0.4,0.5,0.5,0.5,0.6c0,0-0.1,0-0.2-0.1
		c-0.1-0.1-0.3-0.2-0.4-0.4c-0.3-0.4-0.6-1.2-0.5-2.1c0.1-0.5,0.2-1,0.5-1.4c0.3-0.5,0.7-0.9,1.2-1.3c1-0.8,2.2-1.3,3.4-2
		c2.4-1.3,4.6-2.4,6.2-3.3c0.8-0.4,1.5-0.7,1.9-1C343.1,420,343.4,419.9,343.4,419.9z"/>
	<path class="st22" d="M348.4,422.5c0,0-0.4,0.1-0.9,0.1c-0.6,0-1.4-0.2-2.2-0.7c-0.8-0.4-1.4-1-1.7-1.5c-0.3-0.5-0.5-0.8-0.4-0.8
		c0.1-0.1,0.8,1.2,2.3,2C347,422.4,348.4,422.3,348.4,422.5z"/>
</g>
<g class="st32">
	<path class="st33" d="M180.3,422.5c-4.3,0-8.5-4.9-11.1-9.6c-4.6-8.3-5.6-18.1-3.3-27.2l0.1-0.4l5.2-21.9l-11.2-0.3l-7.9,32.9
		l-0.1,0.4c-2.4,9.2-1.3,19,3.3,27.2c2.6,4.7,6.8,9.6,11.1,9.6c16.1,0,80.4,0,116.8,0.1C281.5,432.8,190.9,422.5,180.3,422.5z"/>
</g>
<g>
	<path class="st34" d="M196.7,391.7c0,0.1-1.7,0.3-4.2,0.9c-1.3,0.3-2.8,0.8-4.5,1.5c-1.6,0.7-3.4,1.6-5.1,2.6
		c-1.7,1.1-3.3,2.3-4.6,3.4c-1.3,1.2-2.4,2.3-3.3,3.3c-1.8,2-2.6,3.4-2.7,3.4c0,0,0.2-0.4,0.6-1c0.2-0.3,0.5-0.7,0.8-1.1
		c0.3-0.4,0.7-0.9,1.1-1.4c0.9-1.1,2-2.2,3.3-3.4c1.3-1.2,2.9-2.4,4.7-3.5c1.8-1.1,3.5-1.9,5.2-2.6c1.7-0.7,3.2-1.1,4.5-1.4
		c0.7-0.2,1.3-0.3,1.8-0.4c0.5-0.1,1-0.2,1.4-0.2C196.3,391.7,196.7,391.7,196.7,391.7z"/>
</g>
<path class="st22" d="M303.9,268.7c-8.2-4.1-27-17.3-31.5-19.3c-4.6-2-11.7,2-5.6,6.9c6,4.9,10.9,9.3,10.9,9.3
	c-5.8-3.5-9.1-3.9-10.9-0.9c-1.8,3,0.6,7.3,5.4,12.3c-2.7,0.8-5.2,5.1-2.7,8.5c-4,0.8-2.9,5.8,1,9.9c3.9,4.1,22.4,21.8,32.8,23.4
	c10.3,1.7,19-7.4,20.4-17.9c1-7.4,1.3-18.6-3.9-22.1C312.2,273.8,307.3,270.4,303.9,268.7z"/>
<g class="st35">
	<path class="st33" d="M269.3,262.7c2-0.7,4.8,0.2,8.9,2.7c0,0-4.9-4.4-10.9-9.3c-3.7-3.1-2.4-5.8,0.2-6.9c-0.4-0.2-0.7-0.4-1-0.5
		c-4.6-2-11.7,2-5.6,6.9C264.3,258.4,267.3,261,269.3,262.7z"/>
	<path class="st33" d="M271.1,295.2c-3.9-4.1-5-9.1-1-9.9c-2.6-3.4,0-7.8,2.7-8.5c-4.9-5-7.2-9.3-5.4-12.3c0.3-0.6,0.7-1,1.1-1.3
		c-3.8-1.7-6.1-1.5-7.5,0.9c-1.8,3,0.6,7.3,5.4,12.3c-2.7,0.8-5.2,5.1-2.7,8.5c-4,0.8-2.9,5.8,1,9.9c3.9,4.1,22.4,21.8,32.8,23.4
		c1.6,0.3,3.1,0.2,4.6,0C291.5,315.1,274.8,299.1,271.1,295.2z"/>
</g>
<path class="st22" d="M302.3,258.1c0.8-4.5,3.4-7.8,6.3-6.7c3,1.1-0.1,7.4,4.7,13.3c4.8,5.9,8.7,12.4,7.2,18.6
	S299.5,273.9,302.3,258.1z"/>
<path class="st22" d="M323.8,301.3c13,29,58.3,75.7,65,96.9c6.7,21.3-10.1,39.1-31.1,33.2c-21-6-31.6-52.3-36.8-71.3
	c-5.2-18.9-11.7-36.5-16.6-41.2C305.7,309.4,316.5,302,323.8,301.3z"/>
<path class="st36" d="M291.4,188.4c0,0-0.4,7.2,6.1,4.2s11.2-2.4,11.2-2.4"/>
<path class="st36" d="M260,188.5c0,0,4.5-12.5,17.4,0.6"/>
<path class="st37" d="M268.3,230.7c0,0,12.5,1.8,18.1,12.1"/>
<path class="st33" d="M230.8,217.7l-0.4,2.9c0,0-8.3-7.5-6.1-14.5c1.7-5.4,4.1-3.6,5.2-2.5c0.3,0.3,0.5,0.7,0.6,1.2l0.6,2.2
	c0,0-3.4,0.9-3.5,3c-0.1,1.5,2.2,4.7,3.2,6.1C230.8,216.5,230.9,217.1,230.8,217.7z"/>
<g>
	<path class="st38" d="M47.3,112.4c0,1.4-0.2,2.7-0.7,3.8s-1.1,2-1.9,2.8c-0.8,0.7-1.9,1.3-3.1,1.7s-2.7,0.6-4.3,0.6h-2.1v8.1
		c0,0.1,0,0.2-0.1,0.4c-0.1,0.1-0.2,0.2-0.4,0.3c-0.2,0.1-0.5,0.1-0.8,0.2s-0.7,0.1-1.3,0.1c-0.5,0-0.9,0-1.2-0.1s-0.6-0.1-0.8-0.2
		c-0.2-0.1-0.3-0.1-0.4-0.3c-0.1-0.1-0.1-0.2-0.1-0.4v-22.7c0-0.6,0.2-1.1,0.5-1.4c0.3-0.3,0.7-0.5,1.3-0.5h6c0.6,0,1.2,0,1.7,0.1
		c0.5,0,1.2,0.1,1.9,0.3c0.8,0.1,1.5,0.4,2.3,0.8c0.8,0.4,1.4,0.9,2,1.5c0.5,0.6,1,1.3,1.3,2.2C47.1,110.4,47.3,111.3,47.3,112.4z
		 M41.9,112.7c0-0.9-0.2-1.6-0.5-2.2c-0.3-0.6-0.7-1-1.2-1.3s-0.9-0.4-1.4-0.5c-0.5-0.1-1-0.1-1.6-0.1h-2.2v8.6h2.3
		c0.8,0,1.5-0.1,2.1-0.3c0.6-0.2,1-0.5,1.4-0.9c0.4-0.4,0.6-0.9,0.8-1.4C41.8,114,41.9,113.4,41.9,112.7z"/>
	<path class="st38" d="M62.1,113.5c0,0.5,0,0.9,0,1.2c0,0.3-0.1,0.5-0.1,0.7c-0.1,0.2-0.1,0.3-0.2,0.4c-0.1,0.1-0.2,0.1-0.3,0.1
		c-0.1,0-0.2,0-0.4-0.1c-0.1,0-0.3-0.1-0.4-0.1c-0.2-0.1-0.3-0.1-0.5-0.1c-0.2,0-0.4-0.1-0.6-0.1c-0.3,0-0.5,0.1-0.8,0.2
		c-0.3,0.1-0.6,0.3-0.8,0.5s-0.6,0.5-0.9,0.9s-0.7,0.9-1,1.4v10.9c0,0.1,0,0.2-0.1,0.3s-0.2,0.2-0.4,0.2c-0.2,0.1-0.4,0.1-0.8,0.1
		c-0.3,0-0.7,0-1.2,0s-0.9,0-1.2,0c-0.3,0-0.6-0.1-0.8-0.1c-0.2-0.1-0.3-0.1-0.4-0.2s-0.1-0.2-0.1-0.3v-17.4c0-0.1,0-0.2,0.1-0.3
		s0.2-0.2,0.4-0.2c0.2-0.1,0.4-0.1,0.7-0.1c0.3,0,0.6,0,1,0c0.4,0,0.8,0,1,0c0.3,0,0.5,0.1,0.6,0.1c0.1,0.1,0.3,0.1,0.3,0.2
		s0.1,0.2,0.1,0.3v2.2c0.5-0.7,0.9-1.2,1.3-1.6c0.4-0.4,0.8-0.8,1.2-1c0.4-0.2,0.7-0.4,1.1-0.5s0.7-0.1,1.1-0.1c0.2,0,0.4,0,0.5,0
		s0.4,0.1,0.6,0.1c0.2,0,0.4,0.1,0.5,0.2s0.3,0.1,0.3,0.2c0.1,0.1,0.1,0.1,0.2,0.2s0.1,0.2,0.1,0.3s0,0.3,0.1,0.6
		S62.1,113,62.1,113.5z"/>
	<path class="st38" d="M82.3,120.4c0,1.5-0.2,2.8-0.6,4.1c-0.4,1.2-1,2.3-1.8,3.2c-0.8,0.9-1.8,1.6-3,2.1s-2.6,0.7-4.2,0.7
		c-1.5,0-2.9-0.2-4-0.6s-2.1-1.1-2.9-1.9s-1.3-1.8-1.7-3c-0.4-1.2-0.5-2.6-0.5-4.1c0-1.5,0.2-2.8,0.6-4.1s1-2.3,1.8-3.2s1.8-1.6,3-2
		c1.2-0.5,2.6-0.7,4.2-0.7c1.6,0,2.9,0.2,4.1,0.6c1.1,0.4,2.1,1,2.8,1.9s1.3,1.8,1.7,3C82.1,117.5,82.3,118.9,82.3,120.4z
		 M77.2,120.6c0-0.9-0.1-1.7-0.2-2.4s-0.4-1.4-0.7-1.9c-0.3-0.5-0.8-1-1.3-1.3c-0.5-0.3-1.2-0.4-2-0.4c-0.7,0-1.4,0.1-1.9,0.4
		c-0.5,0.3-1,0.7-1.3,1.2c-0.4,0.5-0.6,1.1-0.8,1.9s-0.3,1.5-0.3,2.5c0,0.9,0.1,1.7,0.2,2.4s0.4,1.4,0.7,1.9
		c0.3,0.5,0.8,0.9,1.3,1.2s1.2,0.4,2,0.4c0.7,0,1.4-0.1,1.9-0.4c0.5-0.3,1-0.7,1.3-1.2s0.6-1.1,0.8-1.8S77.2,121.5,77.2,120.6z"/>
	<path class="st38" d="M102.7,129.3c0,0.1,0,0.2-0.1,0.3s-0.2,0.2-0.3,0.2c-0.2,0.1-0.4,0.1-0.6,0.1c-0.3,0-0.6,0-1,0
		c-0.4,0-0.8,0-1,0c-0.3,0-0.5-0.1-0.6-0.1c-0.2-0.1-0.3-0.1-0.3-0.2s-0.1-0.2-0.1-0.3v-2c-1,1-1.9,1.8-2.9,2.3s-2,0.8-3.1,0.8
		c-1.2,0-2.2-0.2-3-0.6s-1.5-0.9-2-1.6c-0.5-0.7-0.9-1.5-1.1-2.4c-0.2-0.9-0.3-2-0.3-3.3v-10.7c0-0.1,0-0.2,0.1-0.3s0.2-0.2,0.4-0.2
		c0.2-0.1,0.4-0.1,0.8-0.1c0.3,0,0.7,0,1.2,0c0.5,0,0.9,0,1.2,0c0.3,0,0.6,0.1,0.8,0.1c0.2,0.1,0.3,0.1,0.4,0.2s0.1,0.2,0.1,0.3v9.8
		c0,0.9,0.1,1.6,0.2,2.1c0.1,0.5,0.3,0.9,0.5,1.2c0.2,0.3,0.5,0.6,0.9,0.8c0.4,0.2,0.8,0.3,1.3,0.3c0.6,0,1.3-0.2,1.9-0.7
		c0.6-0.5,1.3-1.1,2-2v-11.6c0-0.1,0-0.2,0.1-0.3s0.2-0.2,0.4-0.2c0.2-0.1,0.4-0.1,0.8-0.1c0.3,0,0.7,0,1.2,0s0.9,0,1.2,0
		c0.3,0,0.6,0.1,0.7,0.1c0.2,0.1,0.3,0.1,0.4,0.2s0.1,0.2,0.1,0.3V129.3z"/>
	<path class="st38" d="M124.2,129.3c0,0.1,0,0.3-0.1,0.4s-0.2,0.2-0.3,0.2s-0.4,0.1-0.6,0.1c-0.3,0-0.6,0-1,0c-0.4,0-0.8,0-1,0
		c-0.3,0-0.5-0.1-0.6-0.1s-0.3-0.1-0.4-0.2s-0.1-0.2-0.1-0.4v-1.9c-0.9,1-1.8,1.7-2.8,2.2s-2.1,0.8-3.3,0.8c-1.3,0-2.5-0.3-3.4-0.8
		s-1.7-1.2-2.2-2.1c-0.6-0.9-1-1.9-1.3-3.1c-0.3-1.2-0.4-2.4-0.4-3.7c0-1.5,0.2-2.9,0.5-4.2c0.3-1.2,0.8-2.3,1.5-3.2
		c0.6-0.9,1.4-1.5,2.4-2s2-0.7,3.3-0.7c1,0,1.9,0.2,2.7,0.6c0.8,0.4,1.6,1,2.4,1.7v-9.4c0-0.1,0-0.2,0.1-0.4
		c0.1-0.1,0.2-0.2,0.4-0.3c0.2-0.1,0.4-0.1,0.8-0.2s0.7-0.1,1.2-0.1s0.9,0,1.2,0.1s0.6,0.1,0.7,0.2c0.2,0.1,0.3,0.2,0.4,0.3
		c0.1,0.1,0.1,0.2,0.1,0.4V129.3z M119.3,117.7c-0.7-0.9-1.4-1.6-2-2s-1.3-0.7-2-0.7c-0.6,0-1.2,0.2-1.7,0.5
		c-0.5,0.3-0.8,0.7-1.1,1.3c-0.3,0.5-0.5,1.1-0.6,1.8c-0.1,0.7-0.2,1.3-0.2,2c0,0.7,0.1,1.4,0.2,2.1c0.1,0.7,0.3,1.3,0.6,1.8
		c0.3,0.5,0.6,1,1.1,1.3c0.4,0.3,1,0.5,1.7,0.5c0.3,0,0.7,0,1-0.1s0.6-0.3,1-0.5c0.3-0.2,0.7-0.5,1-0.9c0.4-0.4,0.7-0.8,1.2-1.3
		V117.7z"/>
	<path class="st38" d="M143.6,110.7c0,1.1-0.2,2-0.5,2.9s-0.7,1.6-1.3,2.2s-1.2,1.1-2,1.5c-0.8,0.4-1.6,0.6-2.6,0.7l-0.2,3.8
		c0,0.2-0.2,0.4-0.6,0.5s-0.9,0.2-1.6,0.2c-0.4,0-0.8,0-1.1,0s-0.5-0.1-0.7-0.1c-0.2-0.1-0.3-0.1-0.4-0.2c-0.1-0.1-0.1-0.2-0.1-0.4
		l-0.2-4.6c0-0.4,0-0.8,0.1-1c0.1-0.3,0.1-0.5,0.3-0.6s0.3-0.3,0.5-0.3s0.5-0.1,0.7-0.1h0.3c0.7,0,1.3-0.1,1.8-0.3
		c0.5-0.2,0.9-0.5,1.2-0.9c0.3-0.4,0.6-0.8,0.7-1.3c0.1-0.5,0.2-1,0.2-1.6c0-0.6-0.1-1.2-0.3-1.7c-0.2-0.5-0.4-1-0.8-1.3
		c-0.4-0.4-0.8-0.7-1.3-0.9c-0.5-0.2-1.2-0.3-1.9-0.3c-0.7,0-1.3,0.1-1.8,0.2c-0.5,0.1-0.9,0.3-1.3,0.4s-0.7,0.3-0.9,0.4
		c-0.2,0.1-0.4,0.2-0.6,0.2c-0.1,0-0.2,0-0.3-0.1s-0.1-0.2-0.2-0.3s-0.1-0.4-0.1-0.7c0-0.3,0-0.7,0-1.1c0-0.5,0-0.8,0.1-1
		c0-0.2,0.1-0.4,0.3-0.5c0.1-0.1,0.4-0.3,0.7-0.5s0.8-0.3,1.3-0.5c0.5-0.1,1.1-0.3,1.7-0.4c0.6-0.1,1.3-0.2,2-0.2
		c1.5,0,2.9,0.2,3.9,0.6c1.1,0.4,2,1,2.7,1.7c0.7,0.7,1.2,1.5,1.5,2.5C143.4,108.7,143.6,109.6,143.6,110.7z M137.8,127.4
		c0,0.5,0,1-0.1,1.3c-0.1,0.4-0.2,0.7-0.4,0.9c-0.2,0.2-0.5,0.4-0.9,0.5s-0.8,0.1-1.3,0.1c-0.5,0-1,0-1.3-0.1s-0.6-0.3-0.8-0.5
		c-0.2-0.2-0.4-0.5-0.4-0.9c-0.1-0.4-0.1-0.8-0.1-1.3c0-0.5,0-1,0.1-1.4s0.2-0.7,0.4-0.9c0.2-0.2,0.5-0.4,0.8-0.5s0.8-0.1,1.3-0.1
		c0.5,0,1,0,1.3,0.1s0.6,0.3,0.9,0.5c0.2,0.2,0.4,0.5,0.4,0.9S137.8,126.9,137.8,127.4z"/>
</g>
<circle class="st21" cx="163.8" cy="185.3" r="10.2"/>
<path class="st21" d="M186.2,206.3c-3.3,0-6,2.7-6,6c0,3.3,2.7,6,6,6c3.3,0,6-2.7,6-6C192.2,209,189.5,206.3,186.2,206.3z"/>
</svg>
