<?xml version="1.0" encoding="utf-8"?>
<!-- Generator: Adobe Illustrator 24.3.0, SVG Export Plug-In . SVG Version: 6.00 Build 0)  -->
<svg version="1.1" id="Camada_1" xmlns="http://www.w3.org/2000/svg" xmlns:xlink="http://www.w3.org/1999/xlink" x="0px" y="0px"
	 viewBox="0 0 300 138.71" style="enable-background:new 0 0 300 138.71;" xml:space="preserve">
<style type="text/css">
	.st0{fill:#F6BFA3;}
	.st1{fill:#E4EBF0;}
	.st2{fill:#E29F81;}
	.st3{fill:#44261B;}
	.st4{fill:#B9C2C8;}
	.st5{fill:#404040;}
	.st6{fill:#727D82;}
	.st7{fill:#F6C3AC;}
	.st8{fill:#EA6F42;}
	.st9{fill:#DB9880;}
	.st10{fill:#ED8045;}
</style>
<g>
	<path class="st0" d="M241.73,77.32v5.38l-10.84,4.03c0,0,9.41,12.02,21.43,12.02c12.02,0,20.59-12.18,20.59-12.18l-8.32-3.95v-5.97
		h-22.85L241.73,77.32L241.73,77.32z"/>
	<path class="st1" d="M264.58,82.61l27.31,11.2c1.33,0.47,2.29,1.63,2.5,3.03l3.51,22.58l-40.44,8.2c-3.94,0.8-7.99,0.8-11.93,0
		l-40.35-8.2l3.52-22.6c0.21-1.38,1.17-2.53,2.48-3l30.54-11.13c0,0-8.94,1.6,3.47,11.01c3.99,3.03,16.69,2.58,19.99-1.18
		C272.25,84.48,264.58,82.61,264.58,82.61z"/>
	<path class="st2" d="M241.82,77.86l-0.09,3.68c0,0,4.5,5.5,11.39,5.5c6.89,0,11.46-6.04,11.46-6.04v-3.62h-22.47L241.82,77.86z"/>
	<path class="st0" d="M253.41,21.03c-21.51-0.34-25.43-4.26-24.98,32.6c0.22,18.43,12.6,30.38,24.98,30.38
		c12.38,0,24.76-11.95,24.98-30.38C278.84,16.77,274.92,20.69,253.41,21.03z"/>
	<path class="st3" d="M253.71,29.45c3.98,0,10.03-2.8,17.09-2.58s7.39,27.84,7.39,27.84s12.5-43.08-5.71-43.08c0,0-5.6-7-18.77-7
		c-33.11,0-31.31,32.52-24.48,50.08c0,0,0.34-27.62,7.39-27.84C243.68,26.65,249.73,29.45,253.71,29.45"/>
	<path class="st4" d="M255.16,95.66c2.78-0.94,12.2-5.84,11.25-13.18c2.84,3.21,5.13,13.06-3.15,20.09
		C260.97,99.24,257.55,96.67,255.16,95.66z"/>
	<path class="st4" d="M251.08,95.66c-2.78-0.94-12.2-5.84-11.25-13.18c-2.84,3.21-5.13,13.06,3.15,20.09
		C245.28,99.24,248.69,96.67,251.08,95.66z"/>
	<g>
		<path class="st5" d="M255.87,48.06c-0.33-0.38-1.09-0.44-2.46-0.44v-1.19c1.29,0,2.89,0,3.75,0.95L255.87,48.06z"/>
		<g>
			<path class="st5" d="M274.52,53.92h-14.2c-2.73,0-3.59-3.49-4.46-5.56c-0.31-0.73-0.06-1.6,0.65-2.34
				c0.84-0.89,2.15-1.39,3.58-1.39h14.31c1.24,0,2.26,0.29,2.95,0.84c0.79,0.65,1.15,1.6,1.06,2.83
				C278.15,51.92,276.77,53.92,274.52,53.92z M260.09,45.82c-0.93,0-1.77,0.32-2.32,0.89c-0.4,0.43-0.57,0.93-0.42,1.28
				c1.37,3.27,1.98,4.74,2.97,4.74h14.2c1.49,0,2.18-2.31,2.33-4.49c0.07-0.89-0.15-1.53-0.63-1.93c-0.4-0.32-1.01-0.48-1.82-0.48
				L260.09,45.82L260.09,45.82z"/>
			<path class="st5" d="M246.49,53.92h-14.2c-2.25,0-3.62-1.99-3.88-5.62c-0.09-1.23,0.27-2.18,1.06-2.83
				c0.7-0.55,1.71-0.84,2.95-0.84h14.31c1.44,0,2.74,0.5,3.58,1.39c0.72,0.74,0.95,1.62,0.65,2.34
				C250.08,50.43,249.22,53.92,246.49,53.92z M232.42,45.82c-0.81,0-1.43,0.16-1.82,0.48c-0.48,0.4-0.69,1.04-0.63,1.93
				c0.15,2.18,0.85,4.49,2.33,4.49h14.2c1,0,1.61-1.47,2.98-4.74c0.14-0.35-0.02-0.85-0.43-1.28c-0.55-0.56-1.39-0.89-2.32-0.89
				L232.42,45.82L232.42,45.82z"/>
			<path class="st5" d="M250.94,48.06l-1.28-0.69c0.86-0.95,2.46-0.95,3.74-0.95v1.19C252.04,47.62,251.28,47.68,250.94,48.06z"/>
		</g>
	</g>
</g>
<path class="st6" d="M140.17,5.95V64.3c0,1.17,0.95,2.12,2.12,2.12h32.6c1.17,0,2.12-0.95,2.12-2.12V5.95
	c0-1.17-0.95-2.12-2.12-2.12h-32.6C141.12,3.83,140.17,4.78,140.17,5.95z M142.09,8.01c0-1.17,0.95-2.12,2.12-2.12h8.93v0.24
	c0,0.54,0.44,0.98,0.98,0.98h8.95c0.54,0,0.98-0.44,0.98-0.98V5.89h8.93c1.17,0,2.12,0.95,2.12,2.12v54.2
	c0,1.17-0.95,2.12-2.12,2.12h-28.77c-1.17,0-2.12-0.95-2.12-2.12V8.01z"/>
<rect x="134.31" y="32.71" class="st6" width="4.46" height="0.84"/>
<path class="st6" d="M96.05,5.95V64.3c0,1.17,0.95,2.12,2.12,2.12h32.6c1.17,0,2.12-0.95,2.12-2.12V5.95c0-1.17-0.95-2.12-2.12-2.12
	h-32.6C97,3.83,96.05,4.78,96.05,5.95z M97.97,8.01c0-1.17,0.95-2.12,2.12-2.12h8.93v0.24c0,0.54,0.44,0.98,0.98,0.98h8.95
	c0.54,0,0.98-0.44,0.98-0.98V5.89h8.93c1.17,0,2.12,0.95,2.12,2.12v54.2c0,1.17-0.95,2.12-2.12,2.12h-28.77
	c-1.17,0-2.12-0.95-2.12-2.12L97.97,8.01L97.97,8.01z"/>
<rect x="90.18" y="32.71" class="st6" width="4.46" height="0.84"/>
<path class="st6" d="M51.94,5.95V64.3c0,1.17,0.95,2.12,2.12,2.12h32.6c1.17,0,2.12-0.95,2.12-2.12V5.95c0-1.17-0.95-2.12-2.12-2.12
	h-32.6C52.89,3.83,51.94,4.78,51.94,5.95z M53.85,8.01c0-1.17,0.95-2.12,2.12-2.12h8.93v0.24c0,0.54,0.44,0.98,0.98,0.98h8.95
	c0.54,0,0.98-0.44,0.98-0.98V5.89h8.93c1.17,0,2.12,0.95,2.12,2.12v54.2c0,1.17-0.95,2.12-2.12,2.12H55.97
	c-1.17,0-2.12-0.95-2.12-2.12V8.01z"/>
<rect x="46.07" y="32.71" class="st6" width="4.46" height="0.84"/>
<path class="st6" d="M7.82,5.95V64.3c0,1.17,0.95,2.12,2.12,2.12h32.6c1.17,0,2.12-0.95,2.12-2.12V5.95c0-1.17-0.95-2.12-2.12-2.12
	H9.94C8.77,3.83,7.82,4.78,7.82,5.95z M9.74,8.01c0-1.17,0.95-2.12,2.12-2.12h8.93v0.24c0,0.54,0.44,0.98,0.98,0.98h8.95
	c0.54,0,0.98-0.44,0.98-0.98V5.89h8.93c1.17,0,2.12,0.95,2.12,2.12v54.2c0,1.17-0.95,2.12-2.12,2.12H11.86
	c-1.17,0-2.12-0.95-2.12-2.12L9.74,8.01L9.74,8.01z"/>
<rect x="1.95" y="32.71" class="st6" width="4.46" height="0.84"/>
<path class="st6" d="M140.17,74.7v58.35c0,1.17,0.95,2.12,2.12,2.12h32.6c1.17,0,2.12-0.95,2.12-2.12V74.7
	c0-1.17-0.95-2.12-2.12-2.12h-32.6C141.12,72.59,140.17,73.53,140.17,74.7z M142.09,76.76c0-1.17,0.95-2.12,2.12-2.12h8.93v0.24
	c0,0.54,0.44,0.98,0.98,0.98h8.95c0.54,0,0.98-0.44,0.98-0.98v-0.24h8.93c1.17,0,2.12,0.95,2.12,2.12v54.2
	c0,1.17-0.95,2.12-2.12,2.12h-28.77c-1.17,0-2.12-0.95-2.12-2.12V76.76z"/>
<rect x="134.31" y="101.46" class="st6" width="4.46" height="0.84"/>
<rect x="186.55" y="67.16" class="st6" width="8.47" height="0.84"/>
<path class="st6" d="M96.05,74.7v58.35c0,1.17,0.95,2.12,2.12,2.12h32.6c1.17,0,2.12-0.95,2.12-2.12V74.7
	c0-1.17-0.95-2.12-2.12-2.12h-32.6C97,72.59,96.05,73.53,96.05,74.7z M97.97,76.76c0-1.17,0.95-2.12,2.12-2.12h8.93v0.24
	c0,0.54,0.44,0.98,0.98,0.98h8.95c0.54,0,0.98-0.44,0.98-0.98v-0.24h8.93c1.17,0,2.12,0.95,2.12,2.12v54.2
	c0,1.17-0.95,2.12-2.12,2.12h-28.77c-1.17,0-2.12-0.95-2.12-2.12L97.97,76.76L97.97,76.76z"/>
<rect x="90.18" y="101.46" class="st6" width="4.46" height="0.84"/>
<path class="st6" d="M51.94,74.7v58.35c0,1.17,0.95,2.12,2.12,2.12h32.6c1.17,0,2.12-0.95,2.12-2.12V74.7
	c0-1.17-0.95-2.12-2.12-2.12h-32.6C52.89,72.59,51.94,73.53,51.94,74.7z M53.85,76.76c0-1.17,0.95-2.12,2.12-2.12h8.93v0.24
	c0,0.54,0.44,0.98,0.98,0.98h8.95c0.54,0,0.98-0.44,0.98-0.98v-0.24h8.93c1.17,0,2.12,0.95,2.12,2.12v54.2
	c0,1.17-0.95,2.12-2.12,2.12H55.97c-1.17,0-2.12-0.95-2.12-2.12V76.76z"/>
<rect x="46.07" y="101.46" class="st6" width="4.46" height="0.84"/>
<path class="st6" d="M7.82,74.7v58.35c0,1.17,0.95,2.12,2.12,2.12h32.6c1.17,0,2.12-0.95,2.12-2.12V74.7c0-1.17-0.95-2.12-2.12-2.12
	H9.94C8.77,72.59,7.82,73.53,7.82,74.7z M9.74,76.76c0-1.17,0.95-2.12,2.12-2.12h8.93v0.24c0,0.54,0.44,0.98,0.98,0.98h8.95
	c0.54,0,0.98-0.44,0.98-0.98v-0.24h8.93c1.17,0,2.12,0.95,2.12,2.12v54.2c0,1.17-0.95,2.12-2.12,2.12H11.86
	c-1.17,0-2.12-0.95-2.12-2.12L9.74,76.76L9.74,76.76z"/>
<rect x="1.95" y="101.46" class="st6" width="4.46" height="0.84"/>
<rect x="1.12" y="32.72" class="st6" width="0.84" height="69.59"/>
<rect x="181.68" y="32.72" class="st6" width="4.46" height="0.84"/>
<rect x="181.68" y="101.47" class="st6" width="4.46" height="0.84"/>
<rect x="186.14" y="32.72" class="st6" width="0.84" height="69.59"/>
<rect x="145.54" y="31.31" class="st1" width="26.19" height="2.83"/>
<rect x="101.38" y="35.45" class="st1" width="26.19" height="2.83"/>
<rect x="101.38" y="41.74" class="st1" width="26.19" height="2.83"/>
<rect x="101.38" y="48.02" class="st1" width="26.19" height="2.83"/>
<rect x="101.38" y="54.3" class="st1" width="26.19" height="2.83"/>
<rect x="57.26" y="35.45" class="st1" width="26.19" height="2.83"/>
<rect x="57.26" y="41.74" class="st1" width="26.19" height="2.83"/>
<rect x="57.26" y="48.02" class="st1" width="26.19" height="2.83"/>
<rect x="57.26" y="54.3" class="st1" width="26.19" height="2.83"/>
<rect x="145.5" y="84.32" class="st1" width="26.19" height="2.83"/>
<rect x="147.53" y="90.04" class="st1" width="22.15" height="2.83"/>
<rect x="145.5" y="95.77" class="st1" width="26.19" height="2.83"/>
<rect x="147.53" y="101.49" class="st1" width="22.15" height="2.83"/>
<rect x="145.5" y="107.2" class="st1" width="26.19" height="2.83"/>
<rect x="147.53" y="112.92" class="st1" width="22.15" height="2.83"/>
<rect x="145.5" y="118.65" class="st1" width="26.19" height="2.83"/>
<rect x="147.53" y="124.37" class="st1" width="22.15" height="2.83"/>
<rect x="57.26" y="84.32" class="st1" width="26.19" height="2.83"/>
<rect x="59.28" y="90.04" class="st1" width="22.15" height="2.83"/>
<rect x="57.26" y="95.77" class="st1" width="26.19" height="2.83"/>
<rect x="59.28" y="101.49" class="st1" width="22.15" height="2.83"/>
<rect x="57.26" y="107.2" class="st1" width="26.19" height="2.83"/>
<rect x="59.28" y="112.92" class="st1" width="22.15" height="2.83"/>
<rect x="57.26" y="118.65" class="st1" width="26.19" height="2.83"/>
<rect x="59.28" y="124.37" class="st1" width="22.15" height="2.83"/>
<rect x="13.15" y="35.02" class="st1" width="26.19" height="23"/>
<rect x="101.38" y="103.27" class="st1" width="26.19" height="26.19"/>
<rect x="13.15" y="25.21" class="st1" width="26.19" height="7.51"/>
<rect x="101.38" y="79.41" class="st1" width="26.19" height="7.51"/>
<rect x="101.38" y="88.91" class="st1" width="26.19" height="12.37"/>
<rect x="13.15" y="11.22" class="st1" width="26.19" height="11.67"/>
<rect x="57.26" y="10.34" class="st1" width="26.19" height="2.83"/>
<rect x="57.26" y="16.62" class="st1" width="26.19" height="2.83"/>
<rect x="57.26" y="22.91" class="st1" width="26.19" height="2.83"/>
<rect x="57.26" y="29.18" class="st1" width="26.19" height="2.83"/>
<rect x="145.54" y="37.87" class="st1" width="26.19" height="2.83"/>
<rect x="145.54" y="46.3" class="st1" width="26.19" height="2.83"/>
<circle class="st1" cx="158.59" cy="17.48" r="5.35"/>
<circle class="st1" cx="114.47" cy="20.33" r="8.79"/>
<rect x="13.15" y="104.4" class="st1" width="26.19" height="2.83"/>
<rect x="13.15" y="110.68" class="st1" width="26.19" height="2.83"/>
<rect x="13.15" y="116.96" class="st1" width="26.19" height="2.83"/>
<rect x="13.15" y="123.25" class="st1" width="26.19" height="2.83"/>
<circle class="st1" cx="26.24" cy="89.27" r="8.79"/>
</svg>
