<?xml version="1.0" encoding="utf-8"?>
<!-- Generator: Adobe Illustrator 24.2.1, SVG Export Plug-In . SVG Version: 6.00 Build 0)  -->
<svg version="1.1" id="Layer_1" xmlns="http://www.w3.org/2000/svg" xmlns:xlink="http://www.w3.org/1999/xlink" x="0px" y="0px"
	 viewBox="0 0 198.43 97.43" style="enable-background:new 0 0 198.43 97.43;" xml:space="preserve">
<style type="text/css">
	.st0{fill:#48AE4D;}
	.st1{fill:#54B14F;}
	.st2{fill:#67B655;}
	.st3{fill:#8CC47C;}
</style>
<path class="st0" d="M92.51,7.19L85.32,0L32.16,53.16L10.27,31.27c-1.7-1.7-4.45-1.7-6.15,0L0,35.38l32.16,32.16l7.19-7.19l0,0
	L92.51,7.19z"/>
<path class="st1" d="M42.78,78.15l-7.19-7.19l33.77-33.77l1.78,1.78c2.99,2.99,2.99,7.83,0,10.82L42.78,78.15z"/>
<path class="st2" d="M52.46,87.83l-7.19-7.19l24.3-24.3l1.78,1.78c2.99,2.99,2.99,7.83,0,10.82L52.46,87.83z"/>
<path class="st3" d="M61.93,97.3l-7.19-7.19l14.93-14.93l1.78,1.78c2.99,2.99,2.99,7.83,0,10.82L61.93,97.3z"/>
<g>
	<path class="st0" d="M110.19,81.97H97.26c-2.44,0-3.66-1.48-3.66-4.45V37.83c0-2.97,1.24-4.45,3.72-4.45h12.87
		c2.51,0,3.77,1.47,3.77,4.41v5.84c0,2.49-2.02,4.5-4.5,4.5h-1.69v-8.59h-8.02V75.8h8.02V62.13h-4.58v-6.17h10.77v21.56
		C113.96,80.48,112.7,81.97,110.19,81.97z"/>
	<path class="st0" d="M132.7,81.97h-10.77c-2.26,0-3.39-1.29-3.39-3.88V54.49c0-2.59,1.13-3.88,3.39-3.88h10.77
		c2.23,0,3.34,1.29,3.34,3.88v23.59C136.04,80.67,134.92,81.97,132.7,81.97z M130.17,56.53h-5.71v19.52h5.71V56.53z"/>
	<path class="st0" d="M145.22,81.97c-2.25,0-3.37-1.29-3.37-3.88V56.66H139v-6.04h2.85v-8.52h1.67c2.41,0,4.37,1.95,4.37,4.37v4.16
		h3.88v6.04h-3.88v19.27h4.04v6.04H145.22z"/>
	<path class="st0" d="M166.41,46.1v-4.02c0-1.82,1.48-3.3,3.3-3.3h2.73v7.31H166.41z M166.46,81.97V50.61h5.92v31.35H166.46z"/>
	<path class="st0" d="M181.68,81.97c-2.25,0-3.37-1.29-3.37-3.88V56.66h-2.85v-6.04h2.85v-2.49c0-3.33,2.7-6.03,6.03-6.03l0,0v8.52
		h3.88v6.04h-3.88v19.27h4.04v6.04H181.68z"/>
	<path class="st0" d="M197.7,70.65h-4.85l-0.86-37.27h0.73c3.2,0,5.78,2.64,5.7,5.84L197.7,70.65z M192.2,81.97v-7.44h6.09v2.98
		c0,2.46-1.99,4.46-4.46,4.46H192.2z"/>
</g>
</svg>
