<?xml version="1.0" encoding="utf-8"?>
<!-- Generator: Adobe Illustrator 24.3.0, SVG Export Plug-In . SVG Version: 6.00 Build 0)  -->
<svg version="1.1" id="Camada_1" xmlns="http://www.w3.org/2000/svg" xmlns:xlink="http://www.w3.org/1999/xlink" x="0px" y="0px"
	 viewBox="0 0 841.9 595.3" style="enable-background:new 0 0 841.9 595.3;" xml:space="preserve">
<style type="text/css">
	.st0{fill:none;stroke:#232323;stroke-width:0.5;stroke-miterlimit:10;}
	.st1{fill:#05FFED;}
</style>
<rect y="0" width="841.9" height="595.3"/>
<g>
	<line class="st0" x1="0.3" y1="49.2" x2="0.3" y2="595.3"/>
	<line class="st0" x1="9.2" y1="49.2" x2="9.2" y2="595.3"/>
	<line class="st0" x1="18.2" y1="49.2" x2="18.2" y2="595.3"/>
	<line class="st0" x1="27.2" y1="49.2" x2="27.2" y2="595.3"/>
	<line class="st0" x1="36.2" y1="49.2" x2="36.2" y2="595.3"/>
	<line class="st0" x1="45.1" y1="49.2" x2="45.1" y2="595.3"/>
	<line class="st0" x1="54.1" y1="49.2" x2="54.1" y2="595.3"/>
	<line class="st0" x1="63" y1="49.2" x2="63" y2="595.3"/>
	<line class="st0" x1="71.9" y1="49.2" x2="71.9" y2="595.3"/>
	<line class="st0" x1="80.9" y1="49.2" x2="80.9" y2="595.3"/>
	<line class="st0" x1="89.9" y1="49.2" x2="89.9" y2="595.3"/>
	<line class="st0" x1="98.9" y1="49.2" x2="98.9" y2="595.3"/>
	<line class="st0" x1="107.8" y1="49.2" x2="107.8" y2="595.3"/>
	<line class="st0" x1="116.8" y1="49.2" x2="116.8" y2="595.3"/>
	<line class="st0" x1="125.8" y1="49.2" x2="125.8" y2="595.3"/>
	<line class="st0" x1="134.8" y1="49.2" x2="134.8" y2="595.3"/>
	<line class="st0" x1="143.7" y1="49.2" x2="143.7" y2="595.3"/>
	<line class="st0" x1="152.7" y1="49.2" x2="152.7" y2="595.3"/>
	<line class="st0" x1="161.7" y1="49.2" x2="161.7" y2="595.3"/>
	<line class="st0" x1="170.6" y1="49.2" x2="170.6" y2="595.3"/>
	<line class="st0" x1="179.5" y1="49.2" x2="179.5" y2="595.3"/>
	<line class="st0" x1="188.5" y1="49.2" x2="188.5" y2="595.3"/>
	<line class="st0" x1="197.5" y1="49.2" x2="197.5" y2="595.3"/>
	<line class="st0" x1="206.4" y1="49.2" x2="206.4" y2="595.3"/>
	<line class="st0" x1="215.4" y1="49.2" x2="215.4" y2="595.3"/>
	<line class="st0" x1="224.4" y1="49.2" x2="224.4" y2="595.3"/>
	<line class="st0" x1="233.4" y1="49.2" x2="233.4" y2="595.3"/>
	<line class="st0" x1="242.3" y1="49.2" x2="242.3" y2="595.3"/>
	<line class="st0" x1="251.3" y1="49.2" x2="251.3" y2="595.3"/>
	<line class="st0" x1="260.3" y1="49.2" x2="260.3" y2="595.3"/>
	<line class="st0" x1="269.2" y1="49.2" x2="269.2" y2="595.3"/>
	<line class="st0" x1="278.2" y1="49.2" x2="278.2" y2="595.3"/>
	<line class="st0" x1="287.1" y1="49.2" x2="287.1" y2="595.3"/>
	<line class="st0" x1="296.1" y1="49.2" x2="296.1" y2="595.3"/>
	<line class="st0" x1="305" y1="49.2" x2="305" y2="595.3"/>
	<line class="st0" x1="314" y1="49.2" x2="314" y2="595.3"/>
	<line class="st0" x1="323" y1="49.2" x2="323" y2="595.3"/>
	<line class="st0" x1="332" y1="49.2" x2="332" y2="595.3"/>
	<line class="st0" x1="340.9" y1="49.2" x2="340.9" y2="595.3"/>
	<line class="st0" x1="349.9" y1="49.2" x2="349.9" y2="595.3"/>
	<line class="st0" x1="358.9" y1="49.2" x2="358.9" y2="595.3"/>
	<line class="st0" x1="367.8" y1="49.2" x2="367.8" y2="595.3"/>
	<line class="st0" x1="376.8" y1="49.2" x2="376.8" y2="595.3"/>
	<line class="st0" x1="385.7" y1="49.2" x2="385.7" y2="595.3"/>
	<line class="st0" x1="394.7" y1="49.2" x2="394.7" y2="595.3"/>
	<line class="st0" x1="403.6" y1="49.2" x2="403.6" y2="595.3"/>
	<line class="st0" x1="412.6" y1="49.2" x2="412.6" y2="595.3"/>
	<line class="st0" x1="421.6" y1="49.2" x2="421.6" y2="595.3"/>
	<line class="st0" x1="430.6" y1="49.2" x2="430.6" y2="595.3"/>
	<line class="st0" x1="439.5" y1="49.2" x2="439.5" y2="595.3"/>
	<line class="st0" x1="448.5" y1="49.2" x2="448.5" y2="595.3"/>
	<line class="st0" x1="457.5" y1="49.2" x2="457.5" y2="595.3"/>
	<line class="st0" x1="466.4" y1="49.2" x2="466.4" y2="595.3"/>
	<line class="st0" x1="475.4" y1="49.2" x2="475.4" y2="595.3"/>
	<line class="st0" x1="484.4" y1="49.2" x2="484.4" y2="595.3"/>
	<line class="st0" x1="493.3" y1="49.2" x2="493.3" y2="595.3"/>
	<line class="st0" x1="502.2" y1="49.2" x2="502.2" y2="595.3"/>
	<line class="st0" x1="511.2" y1="49.2" x2="511.2" y2="595.3"/>
	<line class="st0" x1="520.2" y1="49.2" x2="520.2" y2="595.3"/>
	<line class="st0" x1="529.1" y1="49.2" x2="529.1" y2="595.3"/>
	<line class="st0" x1="538.1" y1="49.2" x2="538.1" y2="595.3"/>
	<line class="st0" x1="547.1" y1="49.2" x2="547.1" y2="595.3"/>
	<line class="st0" x1="556.1" y1="49.2" x2="556.1" y2="595.3"/>
	<line class="st0" x1="565" y1="49.2" x2="565" y2="595.3"/>
	<line class="st0" x1="574" y1="49.2" x2="574" y2="595.3"/>
	<line class="st0" x1="583" y1="49.2" x2="583" y2="595.3"/>
	<line class="st0" x1="592" y1="49.2" x2="592" y2="595.3"/>
	<line class="st0" x1="600.9" y1="49.2" x2="600.9" y2="595.3"/>
	<line class="st0" x1="609.8" y1="49.2" x2="609.8" y2="595.3"/>
	<line class="st0" x1="618.8" y1="49.2" x2="618.8" y2="595.3"/>
	<line class="st0" x1="627.7" y1="49.2" x2="627.7" y2="595.3"/>
</g>
<line class="st0" x1="636.8" y1="49.2" x2="636.8" y2="595.2"/>
<line class="st0" x1="645.7" y1="49.2" x2="645.7" y2="595.2"/>
<line class="st0" x1="654.7" y1="49.2" x2="654.7" y2="595.2"/>
<line class="st0" x1="663.7" y1="49.2" x2="663.7" y2="595.2"/>
<line class="st0" x1="672.6" y1="49.2" x2="672.6" y2="595.2"/>
<line class="st0" x1="681.6" y1="49.2" x2="681.6" y2="595.2"/>
<line class="st0" x1="690.6" y1="49.2" x2="690.6" y2="595.2"/>
<line class="st0" x1="699.6" y1="49.2" x2="699.6" y2="595.2"/>
<line class="st0" x1="708.5" y1="49.2" x2="708.5" y2="595.2"/>
<line class="st0" x1="717.4" y1="49.2" x2="717.4" y2="595.2"/>
<line class="st0" x1="726.4" y1="49.2" x2="726.4" y2="595.2"/>
<line class="st0" x1="735.4" y1="49.2" x2="735.4" y2="595.2"/>
<line class="st0" x1="744.3" y1="49.2" x2="744.3" y2="595.2"/>
<line class="st0" x1="753.3" y1="49.2" x2="753.3" y2="595.2"/>
<line class="st0" x1="762.3" y1="49.2" x2="762.3" y2="595.2"/>
<line class="st0" x1="771.2" y1="49.2" x2="771.2" y2="595.2"/>
<line class="st0" x1="780.1" y1="49.2" x2="780.1" y2="595.2"/>
<line class="st0" x1="789" y1="49.2" x2="789" y2="595.2"/>
<line class="st0" x1="797.9" y1="49.2" x2="797.9" y2="595.2"/>
<line class="st0" x1="806.8" y1="49.2" x2="806.8" y2="595.2"/>
<line class="st0" x1="772.2" y1="58.2" x2="0.3" y2="58.2"/>
<line class="st0" x1="772.2" y1="67.1" x2="0.3" y2="67.1"/>
<line class="st0" x1="772.2" y1="76.1" x2="0.3" y2="76.1"/>
<line class="st0" x1="772.2" y1="85.1" x2="0.3" y2="85.1"/>
<line class="st0" x1="772.2" y1="94.1" x2="0.3" y2="94.1"/>
<line class="st0" x1="772.2" y1="103" x2="0.3" y2="103"/>
<line class="st0" x1="772.2" y1="112" x2="0.3" y2="112"/>
<line class="st0" x1="772.2" y1="121" x2="0.3" y2="121"/>
<line class="st0" x1="772.2" y1="130" x2="0.3" y2="130"/>
<line class="st0" x1="772.2" y1="138.9" x2="0.3" y2="138.9"/>
<line class="st0" x1="772.2" y1="147.8" x2="0.3" y2="147.8"/>
<line class="st0" x1="772.2" y1="156.8" x2="0.3" y2="156.8"/>
<line class="st0" x1="772.2" y1="165.7" x2="0.3" y2="165.7"/>
<line class="st0" x1="772.2" y1="174.7" x2="0.3" y2="174.7"/>
<line class="st0" x1="772.2" y1="183.7" x2="0.3" y2="183.7"/>
<line class="st0" x1="772.2" y1="192.7" x2="0.3" y2="192.7"/>
<line class="st0" x1="772.2" y1="201.6" x2="0.3" y2="201.6"/>
<line class="st0" x1="772.2" y1="210.6" x2="0.3" y2="210.6"/>
<line class="st0" x1="772.2" y1="219.6" x2="0.3" y2="219.6"/>
<line class="st0" x1="772.2" y1="228.6" x2="0.3" y2="228.6"/>
<line class="st0" x1="772.2" y1="237.5" x2="0.3" y2="237.5"/>
<line class="st0" x1="772.2" y1="246.5" x2="0.3" y2="246.5"/>
<line class="st0" x1="772.2" y1="255.4" x2="0.3" y2="255.4"/>
<line class="st0" x1="772.2" y1="264.3" x2="0.3" y2="264.3"/>
<line class="st0" x1="772.2" y1="273.3" x2="0.3" y2="273.3"/>
<line class="st0" x1="772.2" y1="282.3" x2="0.3" y2="282.3"/>
<line class="st0" x1="772.2" y1="291.3" x2="0.3" y2="291.3"/>
<line class="st0" x1="772.2" y1="300.2" x2="0.3" y2="300.2"/>
<line class="st0" x1="772.2" y1="309.2" x2="0.3" y2="309.2"/>
<line class="st0" x1="772.2" y1="318.2" x2="0.3" y2="318.2"/>
<line class="st0" x1="772.3" y1="327.2" x2="0.4" y2="327.2"/>
<line class="st0" x1="772.3" y1="336.2" x2="0.4" y2="336.2"/>
<line class="st0" x1="772.3" y1="345.1" x2="0.4" y2="345.1"/>
<line class="st0" x1="772.3" y1="354" x2="0.4" y2="354"/>
<line class="st0" x1="772.3" y1="363" x2="0.4" y2="363"/>
<line class="st0" x1="772.3" y1="371.9" x2="0.4" y2="371.9"/>
<line class="st0" x1="772.3" y1="380.9" x2="0.4" y2="380.9"/>
<line class="st0" x1="772.3" y1="389.9" x2="0.4" y2="389.9"/>
<line class="st0" x1="772.3" y1="398.9" x2="0.4" y2="398.9"/>
<line class="st0" x1="772.3" y1="407.8" x2="0.4" y2="407.8"/>
<line class="st0" x1="772.3" y1="416.8" x2="0.4" y2="416.8"/>
<line class="st0" x1="772.3" y1="425.8" x2="0.4" y2="425.8"/>
<line class="st0" x1="772.3" y1="434.8" x2="0.4" y2="434.8"/>
<line class="st0" x1="772.3" y1="443.7" x2="0.4" y2="443.7"/>
<line class="st0" x1="772.3" y1="452.7" x2="0.4" y2="452.7"/>
<line class="st0" x1="772.3" y1="461.6" x2="0.4" y2="461.6"/>
<line class="st0" x1="772.3" y1="470.5" x2="0.4" y2="470.5"/>
<line class="st0" x1="772.3" y1="479.5" x2="0.4" y2="479.5"/>
<line class="st0" x1="772.3" y1="488.5" x2="0.4" y2="488.5"/>
<line class="st0" x1="772.3" y1="497.5" x2="0.4" y2="497.5"/>
<line class="st0" x1="772.3" y1="506.4" x2="0.4" y2="506.4"/>
<line class="st0" x1="772.3" y1="515.4" x2="0.4" y2="515.4"/>
<line class="st0" x1="772.3" y1="524.4" x2="0.4" y2="524.4"/>
<line class="st0" x1="772.3" y1="533.4" x2="0.4" y2="533.4"/>
<line class="st0" x1="772.3" y1="542.3" x2="0.4" y2="542.3"/>
<line class="st0" x1="772.3" y1="551.3" x2="0.4" y2="551.3"/>
<line class="st0" x1="772.3" y1="560.3" x2="0.4" y2="560.3"/>
<line class="st0" x1="772.3" y1="569.2" x2="0.4" y2="569.2"/>
<line class="st0" x1="772.3" y1="578.1" x2="0.4" y2="578.1"/>
<line class="st0" x1="772.3" y1="587.1" x2="0.4" y2="587.1"/>
<rect x="771.2" y="51.1" class="st1" width="8.9" height="8.9"/>
<rect x="780.1" y="51.1" class="st1" width="8.9" height="8.9"/>
</svg>
