<?xml version="1.0" encoding="utf-8"?>
<!-- Generator: Adobe Illustrator 24.3.0, SVG Export Plug-In . SVG Version: 6.00 Build 0)  -->
<svg version="1.1" id="Camada_1" xmlns="http://www.w3.org/2000/svg" xmlns:xlink="http://www.w3.org/1999/xlink" x="0px" y="0px"
	 viewBox="0 0 841.9 595.3" style="enable-background:new 0 0 841.9 595.3;" xml:space="preserve">
<style type="text/css">
	.st0{fill:none;stroke:#232323;stroke-width:0.5;stroke-miterlimit:10;}
</style>
<rect y="0" width="841.9" height="595.3"/>
<line class="st0" x1="0.2" y1="0" x2="0.2" y2="595.3"/>
<line class="st0" x1="8.5" y1="0" x2="8.5" y2="595.3"/>
<line class="st0" x1="16.8" y1="0" x2="16.8" y2="595.3"/>
<line class="st0" x1="25.2" y1="0" x2="25.2" y2="595.3"/>
<line class="st0" x1="33.5" y1="0" x2="33.5" y2="595.3"/>
<line class="st0" x1="41.8" y1="0" x2="41.8" y2="595.3"/>
<line class="st0" x1="50.2" y1="0" x2="50.2" y2="595.3"/>
<line class="st0" x1="58.5" y1="0" x2="58.5" y2="595.3"/>
<line class="st0" x1="66.8" y1="0" x2="66.8" y2="595.3"/>
<line class="st0" x1="75.2" y1="0" x2="75.2" y2="595.3"/>
<line class="st0" x1="83.5" y1="0" x2="83.5" y2="595.3"/>
<line class="st0" x1="91.8" y1="0" x2="91.8" y2="595.3"/>
<line class="st0" x1="100.2" y1="0" x2="100.2" y2="595.3"/>
<line class="st0" x1="108.5" y1="0" x2="108.5" y2="595.3"/>
<line class="st0" x1="116.8" y1="0" x2="116.8" y2="595.3"/>
<line class="st0" x1="125.2" y1="0" x2="125.2" y2="595.3"/>
<line class="st0" x1="133.5" y1="0" x2="133.5" y2="595.3"/>
<line class="st0" x1="141.8" y1="0" x2="141.8" y2="595.3"/>
<line class="st0" x1="150.2" y1="0" x2="150.2" y2="595.3"/>
<line class="st0" x1="158.5" y1="0" x2="158.5" y2="595.3"/>
<line class="st0" x1="166.8" y1="0" x2="166.8" y2="595.3"/>
<line class="st0" x1="175.2" y1="0" x2="175.2" y2="595.3"/>
<line class="st0" x1="183.5" y1="0" x2="183.5" y2="595.3"/>
<line class="st0" x1="191.8" y1="0" x2="191.8" y2="595.3"/>
<line class="st0" x1="200.2" y1="0" x2="200.2" y2="595.3"/>
<line class="st0" x1="208.5" y1="0" x2="208.5" y2="595.3"/>
<line class="st0" x1="216.8" y1="0" x2="216.8" y2="595.3"/>
<line class="st0" x1="225.2" y1="0" x2="225.2" y2="595.3"/>
<line class="st0" x1="233.5" y1="0" x2="233.5" y2="595.3"/>
<line class="st0" x1="241.8" y1="0" x2="241.8" y2="595.3"/>
<line class="st0" x1="250.2" y1="0" x2="250.2" y2="595.3"/>
<line class="st0" x1="258.5" y1="0" x2="258.5" y2="595.3"/>
<line class="st0" x1="266.8" y1="0" x2="266.8" y2="595.3"/>
<line class="st0" x1="275.2" y1="0" x2="275.2" y2="595.3"/>
<line class="st0" x1="283.5" y1="0" x2="283.5" y2="595.3"/>
<line class="st0" x1="291.8" y1="0" x2="291.8" y2="595.3"/>
<line class="st0" x1="300.2" y1="0" x2="300.2" y2="595.3"/>
<line class="st0" x1="308.5" y1="0" x2="308.5" y2="595.3"/>
<line class="st0" x1="316.8" y1="0" x2="316.8" y2="595.3"/>
<line class="st0" x1="325.2" y1="0" x2="325.2" y2="595.3"/>
<line class="st0" x1="333.5" y1="0" x2="333.5" y2="595.3"/>
<line class="st0" x1="341.9" y1="0" x2="341.9" y2="595.3"/>
<line class="st0" x1="350.2" y1="0" x2="350.2" y2="595.3"/>
<line class="st0" x1="358.5" y1="0" x2="358.5" y2="595.3"/>
<line class="st0" x1="366.9" y1="0" x2="366.9" y2="595.3"/>
<line class="st0" x1="375.2" y1="0" x2="375.2" y2="595.3"/>
<line class="st0" x1="383.5" y1="0" x2="383.5" y2="595.3"/>
<line class="st0" x1="391.9" y1="0" x2="391.9" y2="595.3"/>
<line class="st0" x1="400.2" y1="0" x2="400.2" y2="595.3"/>
<line class="st0" x1="408.5" y1="0" x2="408.5" y2="595.3"/>
<line class="st0" x1="416.9" y1="0" x2="416.9" y2="595.3"/>
<line class="st0" x1="425.2" y1="0" x2="425.2" y2="595.3"/>
<line class="st0" x1="433.5" y1="0" x2="433.5" y2="595.3"/>
<line class="st0" x1="441.9" y1="0" x2="441.9" y2="595.3"/>
<line class="st0" x1="450.2" y1="0" x2="450.2" y2="595.3"/>
<line class="st0" x1="458.5" y1="0" x2="458.5" y2="595.3"/>
<line class="st0" x1="466.9" y1="0" x2="466.9" y2="595.3"/>
<line class="st0" x1="475.2" y1="0" x2="475.2" y2="595.3"/>
<line class="st0" x1="483.5" y1="0" x2="483.5" y2="595.3"/>
<line class="st0" x1="491.9" y1="0" x2="491.9" y2="595.3"/>
<line class="st0" x1="500.2" y1="0" x2="500.2" y2="595.3"/>
<line class="st0" x1="508.5" y1="0" x2="508.5" y2="595.3"/>
<line class="st0" x1="516.9" y1="0" x2="516.9" y2="595.3"/>
<line class="st0" x1="525.2" y1="0" x2="525.2" y2="595.3"/>
<line class="st0" x1="533.5" y1="0" x2="533.5" y2="595.3"/>
<line class="st0" x1="541.9" y1="0" x2="541.9" y2="595.3"/>
<line class="st0" x1="550.2" y1="0" x2="550.2" y2="595.3"/>
<line class="st0" x1="558.5" y1="0" x2="558.5" y2="595.3"/>
<line class="st0" x1="566.9" y1="0" x2="566.9" y2="595.3"/>
<line class="st0" x1="575.2" y1="0" x2="575.2" y2="595.3"/>
<line class="st0" x1="583.5" y1="0" x2="583.5" y2="595.3"/>
<line class="st0" x1="591.9" y1="0" x2="591.9" y2="595.3"/>
<line class="st0" x1="600.2" y1="0" x2="600.2" y2="595.3"/>
<line class="st0" x1="608.5" y1="0" x2="608.5" y2="595.3"/>
<line class="st0" x1="616.9" y1="0" x2="616.9" y2="595.3"/>
<line class="st0" x1="625.2" y1="0" x2="625.2" y2="595.3"/>
<line class="st0" x1="633.5" y1="0" x2="633.5" y2="595.3"/>
<line class="st0" x1="641.9" y1="0" x2="641.9" y2="595.3"/>
<line class="st0" x1="650.2" y1="0" x2="650.2" y2="595.3"/>
<line class="st0" x1="658.5" y1="0" x2="658.5" y2="595.3"/>
<line class="st0" x1="666.9" y1="0" x2="666.9" y2="595.3"/>
<line class="st0" x1="675.2" y1="0" x2="675.2" y2="595.3"/>
<line class="st0" x1="683.6" y1="0" x2="683.6" y2="595.3"/>
<line class="st0" x1="691.9" y1="0" x2="691.9" y2="595.3"/>
<line class="st0" x1="700.2" y1="0" x2="700.2" y2="595.3"/>
<line class="st0" x1="708.6" y1="0" x2="708.6" y2="595.3"/>
<line class="st0" x1="716.9" y1="0" x2="716.9" y2="595.3"/>
<line class="st0" x1="725.2" y1="0" x2="725.2" y2="595.3"/>
<line class="st0" x1="733.6" y1="0" x2="733.6" y2="595.3"/>
<line class="st0" x1="741.9" y1="0" x2="741.9" y2="595.3"/>
<line class="st0" x1="750.2" y1="0" x2="750.2" y2="595.3"/>
<line class="st0" x1="758.6" y1="0" x2="758.6" y2="595.3"/>
<line class="st0" x1="766.9" y1="0" x2="766.9" y2="595.3"/>
<line class="st0" x1="775.2" y1="0" x2="775.2" y2="595.3"/>
<line class="st0" x1="783.6" y1="0" x2="783.6" y2="595.3"/>
<line class="st0" x1="791.9" y1="0" x2="791.9" y2="595.3"/>
<line class="st0" x1="800.2" y1="0" x2="800.2" y2="595.3"/>
<line class="st0" x1="808.6" y1="0" x2="808.6" y2="595.3"/>
<line class="st0" x1="816.9" y1="0" x2="816.9" y2="595.3"/>
<line class="st0" x1="825.2" y1="0" x2="825.2" y2="595.3"/>
<line class="st0" x1="833.6" y1="0" x2="833.6" y2="595.3"/>
<line class="st0" x1="841.9" y1="0" x2="841.9" y2="595.3"/>
<line class="st0" x1="841.9" y1="0.4" x2="0" y2="0.4"/>
<line class="st0" x1="841.9" y1="8.7" x2="0" y2="8.7"/>
<line class="st0" x1="841.9" y1="16.9" x2="0" y2="16.9"/>
<line class="st0" x1="841.9" y1="25.2" x2="0" y2="25.2"/>
<line class="st0" x1="841.9" y1="33.5" x2="0" y2="33.5"/>
<line class="st0" x1="841.9" y1="41.7" x2="0" y2="41.7"/>
<line class="st0" x1="841.9" y1="50" x2="0" y2="50"/>
<line class="st0" x1="841.9" y1="58.2" x2="0" y2="58.2"/>
<line class="st0" x1="841.9" y1="66.5" x2="0" y2="66.5"/>
<line class="st0" x1="841.9" y1="74.7" x2="0" y2="74.7"/>
<line class="st0" x1="841.9" y1="83" x2="0" y2="83"/>
<line class="st0" x1="841.9" y1="91.3" x2="0" y2="91.3"/>
<line class="st0" x1="841.9" y1="99.5" x2="0" y2="99.5"/>
<line class="st0" x1="841.9" y1="107.8" x2="0" y2="107.8"/>
<line class="st0" x1="841.9" y1="116" x2="0" y2="116"/>
<line class="st0" x1="841.9" y1="124.3" x2="0" y2="124.3"/>
<line class="st0" x1="841.9" y1="132.5" x2="0" y2="132.5"/>
<line class="st0" x1="841.9" y1="140.8" x2="0" y2="140.8"/>
<line class="st0" x1="841.9" y1="149.1" x2="0" y2="149.1"/>
<line class="st0" x1="841.9" y1="157.3" x2="0" y2="157.3"/>
<line class="st0" x1="841.9" y1="165.6" x2="0" y2="165.6"/>
<line class="st0" x1="841.9" y1="173.8" x2="0" y2="173.8"/>
<line class="st0" x1="841.9" y1="182.1" x2="0" y2="182.1"/>
<line class="st0" x1="841.9" y1="190.4" x2="0" y2="190.4"/>
<line class="st0" x1="841.9" y1="198.6" x2="0" y2="198.6"/>
<line class="st0" x1="841.9" y1="206.9" x2="0" y2="206.9"/>
<line class="st0" x1="841.9" y1="215.1" x2="0" y2="215.1"/>
<line class="st0" x1="841.9" y1="223.4" x2="0" y2="223.4"/>
<line class="st0" x1="841.9" y1="231.6" x2="0" y2="231.6"/>
<line class="st0" x1="841.9" y1="239.9" x2="0" y2="239.9"/>
<line class="st0" x1="841.9" y1="248.2" x2="0" y2="248.2"/>
<line class="st0" x1="841.9" y1="256.4" x2="0" y2="256.4"/>
<line class="st0" x1="841.9" y1="264.7" x2="0" y2="264.7"/>
<line class="st0" x1="841.9" y1="272.9" x2="0" y2="272.9"/>
<line class="st0" x1="841.9" y1="281.2" x2="0" y2="281.2"/>
<line class="st0" x1="841.9" y1="289.5" x2="0" y2="289.5"/>
<line class="st0" x1="841.9" y1="297.7" x2="0" y2="297.7"/>
<line class="st0" x1="841.9" y1="306" x2="0" y2="306"/>
<line class="st0" x1="841.9" y1="314.2" x2="0" y2="314.2"/>
<line class="st0" x1="841.9" y1="322.5" x2="0" y2="322.5"/>
<line class="st0" x1="841.9" y1="330.7" x2="0" y2="330.7"/>
<line class="st0" x1="841.9" y1="339" x2="0" y2="339"/>
<line class="st0" x1="841.9" y1="347.3" x2="0" y2="347.3"/>
<line class="st0" x1="841.9" y1="355.5" x2="0" y2="355.5"/>
<line class="st0" x1="841.9" y1="363.8" x2="0" y2="363.8"/>
<line class="st0" x1="841.9" y1="372" x2="0" y2="372"/>
<line class="st0" x1="841.9" y1="380.3" x2="0" y2="380.3"/>
<line class="st0" x1="841.9" y1="388.5" x2="0" y2="388.5"/>
<line class="st0" x1="841.9" y1="396.8" x2="0" y2="396.8"/>
<line class="st0" x1="841.9" y1="405.1" x2="0" y2="405.1"/>
<line class="st0" x1="841.9" y1="413.3" x2="0" y2="413.3"/>
<line class="st0" x1="841.9" y1="421.6" x2="0" y2="421.6"/>
<line class="st0" x1="841.9" y1="429.8" x2="0" y2="429.8"/>
<line class="st0" x1="841.9" y1="438.1" x2="0" y2="438.1"/>
<line class="st0" x1="841.9" y1="446.4" x2="0" y2="446.4"/>
<line class="st0" x1="841.9" y1="454.6" x2="0" y2="454.6"/>
<line class="st0" x1="841.9" y1="462.9" x2="0" y2="462.9"/>
<line class="st0" x1="841.9" y1="471.1" x2="0" y2="471.1"/>
<line class="st0" x1="841.9" y1="479.4" x2="0" y2="479.4"/>
<line class="st0" x1="841.9" y1="487.6" x2="0" y2="487.6"/>
<line class="st0" x1="841.9" y1="495.9" x2="0" y2="495.9"/>
<line class="st0" x1="841.9" y1="504.2" x2="0" y2="504.2"/>
<line class="st0" x1="841.9" y1="512.4" x2="0" y2="512.4"/>
<line class="st0" x1="841.9" y1="520.7" x2="0" y2="520.7"/>
<line class="st0" x1="841.9" y1="528.9" x2="0" y2="528.9"/>
<line class="st0" x1="841.9" y1="537.2" x2="0" y2="537.2"/>
<line class="st0" x1="841.9" y1="545.5" x2="0" y2="545.5"/>
<line class="st0" x1="841.9" y1="553.7" x2="0" y2="553.7"/>
<line class="st0" x1="841.9" y1="562" x2="0" y2="562"/>
<line class="st0" x1="841.9" y1="570.2" x2="0" y2="570.2"/>
<line class="st0" x1="841.9" y1="578.5" x2="0" y2="578.5"/>
<line class="st0" x1="841.9" y1="586.7" x2="0" y2="586.7"/>
<line class="st0" x1="841.9" y1="595" x2="0" y2="595"/>
</svg>
