<?xml version="1.0" encoding="utf-8"?>
<!-- Generator: Adobe Illustrator 24.3.0, SVG Export Plug-In . SVG Version: 6.00 Build 0)  -->
<svg version="1.1" id="Camada_1" xmlns="http://www.w3.org/2000/svg" xmlns:xlink="http://www.w3.org/1999/xlink" x="0px" y="0px"
	 viewBox="0 0 841.9 595.3" style="enable-background:new 0 0 841.9 595.3;" xml:space="preserve">
<style type="text/css">
	.st0{fill:none;stroke:#232323;stroke-width:0.5;stroke-miterlimit:10;}
</style>
<rect y="0" width="841.9" height="595.3"/>
<g>
	<line class="st0" x1="0.3" y1="0" x2="0.3" y2="595.3"/>
	<line class="st0" x1="10" y1="0" x2="10" y2="595.3"/>
	<line class="st0" x1="19.8" y1="0" x2="19.8" y2="595.3"/>
	<line class="st0" x1="29.6" y1="0" x2="29.6" y2="595.3"/>
	<line class="st0" x1="39.4" y1="0" x2="39.4" y2="595.3"/>
	<line class="st0" x1="49.1" y1="0" x2="49.1" y2="595.3"/>
	<line class="st0" x1="58.9" y1="0" x2="58.9" y2="595.3"/>
	<line class="st0" x1="68.7" y1="0" x2="68.7" y2="595.3"/>
	<line class="st0" x1="78.4" y1="0" x2="78.4" y2="595.3"/>
	<line class="st0" x1="88.2" y1="0" x2="88.2" y2="595.3"/>
	<line class="st0" x1="98" y1="0" x2="98" y2="595.3"/>
	<line class="st0" x1="107.8" y1="0" x2="107.8" y2="595.3"/>
	<line class="st0" x1="117.5" y1="0" x2="117.5" y2="595.3"/>
	<line class="st0" x1="127.3" y1="0" x2="127.3" y2="595.3"/>
	<line class="st0" x1="137.1" y1="0" x2="137.1" y2="595.3"/>
	<line class="st0" x1="146.9" y1="0" x2="146.9" y2="595.3"/>
	<line class="st0" x1="156.6" y1="0" x2="156.6" y2="595.3"/>
	<line class="st0" x1="166.4" y1="0" x2="166.4" y2="595.3"/>
	<line class="st0" x1="176.2" y1="0" x2="176.2" y2="595.3"/>
	<line class="st0" x1="185.9" y1="0" x2="185.9" y2="595.3"/>
	<line class="st0" x1="195.7" y1="0" x2="195.7" y2="595.3"/>
	<line class="st0" x1="205.5" y1="0" x2="205.5" y2="595.3"/>
	<line class="st0" x1="215.3" y1="0" x2="215.3" y2="595.3"/>
	<line class="st0" x1="225" y1="0" x2="225" y2="595.3"/>
	<line class="st0" x1="234.8" y1="0" x2="234.8" y2="595.3"/>
	<line class="st0" x1="244.6" y1="0" x2="244.6" y2="595.3"/>
	<line class="st0" x1="254.4" y1="0" x2="254.4" y2="595.3"/>
	<line class="st0" x1="264.1" y1="0" x2="264.1" y2="595.3"/>
	<line class="st0" x1="273.9" y1="0" x2="273.9" y2="595.3"/>
	<line class="st0" x1="283.7" y1="0" x2="283.7" y2="595.3"/>
	<line class="st0" x1="293.4" y1="0" x2="293.4" y2="595.3"/>
	<line class="st0" x1="303.2" y1="0" x2="303.2" y2="595.3"/>
	<line class="st0" x1="313" y1="0" x2="313" y2="595.3"/>
	<line class="st0" x1="322.8" y1="0" x2="322.8" y2="595.3"/>
	<line class="st0" x1="332.5" y1="0" x2="332.5" y2="595.3"/>
	<line class="st0" x1="342.3" y1="0" x2="342.3" y2="595.3"/>
	<line class="st0" x1="352.1" y1="0" x2="352.1" y2="595.3"/>
	<line class="st0" x1="361.9" y1="0" x2="361.9" y2="595.3"/>
	<line class="st0" x1="371.6" y1="0" x2="371.6" y2="595.3"/>
	<line class="st0" x1="381.4" y1="0" x2="381.4" y2="595.3"/>
	<line class="st0" x1="391.2" y1="0" x2="391.2" y2="595.3"/>
	<line class="st0" x1="400.9" y1="0" x2="400.9" y2="595.3"/>
	<line class="st0" x1="410.7" y1="0" x2="410.7" y2="595.3"/>
	<line class="st0" x1="420.5" y1="0" x2="420.5" y2="595.3"/>
	<line class="st0" x1="430.3" y1="0" x2="430.3" y2="595.3"/>
	<line class="st0" x1="440" y1="0" x2="440" y2="595.3"/>
	<line class="st0" x1="449.8" y1="0" x2="449.8" y2="595.3"/>
	<line class="st0" x1="459.6" y1="0" x2="459.6" y2="595.3"/>
	<line class="st0" x1="469.4" y1="0" x2="469.4" y2="595.3"/>
	<line class="st0" x1="479.1" y1="0" x2="479.1" y2="595.3"/>
	<line class="st0" x1="488.9" y1="0" x2="488.9" y2="595.3"/>
	<line class="st0" x1="498.7" y1="0" x2="498.7" y2="595.3"/>
	<line class="st0" x1="508.4" y1="0" x2="508.4" y2="595.3"/>
	<line class="st0" x1="518.2" y1="0" x2="518.2" y2="595.3"/>
	<line class="st0" x1="528" y1="0" x2="528" y2="595.3"/>
	<line class="st0" x1="537.8" y1="0" x2="537.8" y2="595.3"/>
	<line class="st0" x1="547.5" y1="0" x2="547.5" y2="595.3"/>
	<line class="st0" x1="557.3" y1="0" x2="557.3" y2="595.3"/>
	<line class="st0" x1="567.1" y1="0" x2="567.1" y2="595.3"/>
	<line class="st0" x1="576.8" y1="0" x2="576.8" y2="595.3"/>
	<line class="st0" x1="586.6" y1="0" x2="586.6" y2="595.3"/>
	<line class="st0" x1="596.4" y1="0" x2="596.4" y2="595.3"/>
	<line class="st0" x1="606.2" y1="0" x2="606.2" y2="595.3"/>
	<line class="st0" x1="615.9" y1="0" x2="615.9" y2="595.3"/>
	<line class="st0" x1="625.7" y1="0" x2="625.7" y2="595.3"/>
	<line class="st0" x1="635.5" y1="0" x2="635.5" y2="595.3"/>
	<line class="st0" x1="645.3" y1="0" x2="645.3" y2="595.3"/>
	<line class="st0" x1="655" y1="0" x2="655" y2="595.3"/>
	<line class="st0" x1="664.8" y1="0" x2="664.8" y2="595.3"/>
	<line class="st0" x1="674.6" y1="0" x2="674.6" y2="595.3"/>
	<line class="st0" x1="684.3" y1="0" x2="684.3" y2="595.3"/>
</g>
<line class="st0" x1="694.2" y1="0" x2="694.2" y2="595.2"/>
<line class="st0" x1="703.9" y1="0" x2="703.9" y2="595.2"/>
<line class="st0" x1="713.7" y1="0" x2="713.7" y2="595.2"/>
<line class="st0" x1="723.5" y1="0" x2="723.5" y2="595.2"/>
<line class="st0" x1="733.2" y1="0" x2="733.2" y2="595.2"/>
<line class="st0" x1="743" y1="0" x2="743" y2="595.2"/>
<line class="st0" x1="752.8" y1="0" x2="752.8" y2="595.2"/>
<line class="st0" x1="762.6" y1="0" x2="762.6" y2="595.2"/>
<line class="st0" x1="772.3" y1="0" x2="772.3" y2="595.2"/>
<line class="st0" x1="782.1" y1="0" x2="782.1" y2="595.2"/>
<line class="st0" x1="791.9" y1="0" x2="791.9" y2="595.2"/>
<line class="st0" x1="801.7" y1="0" x2="801.7" y2="595.2"/>
<line class="st0" x1="811.4" y1="0" x2="811.4" y2="595.2"/>
<line class="st0" x1="821.2" y1="0" x2="821.2" y2="595.2"/>
<line class="st0" x1="831" y1="0" x2="831" y2="595.2"/>
<line class="st0" x1="840.7" y1="0" x2="840.7" y2="595.2"/>
<line class="st0" x1="841.8" y1="0" x2="0.3" y2="0"/>
<line class="st0" x1="841.8" y1="9.8" x2="0.3" y2="9.8"/>
<line class="st0" x1="841.8" y1="19.5" x2="0.3" y2="19.5"/>
<line class="st0" x1="841.8" y1="29.3" x2="0.3" y2="29.3"/>
<line class="st0" x1="841.8" y1="39.1" x2="0.3" y2="39.1"/>
<line class="st0" x1="841.8" y1="48.9" x2="0.3" y2="48.9"/>
<line class="st0" x1="841.8" y1="58.6" x2="0.3" y2="58.6"/>
<line class="st0" x1="841.8" y1="68.4" x2="0.3" y2="68.4"/>
<line class="st0" x1="841.8" y1="78.2" x2="0.3" y2="78.2"/>
<line class="st0" x1="841.8" y1="88" x2="0.3" y2="88"/>
<line class="st0" x1="841.8" y1="97.7" x2="0.3" y2="97.7"/>
<line class="st0" x1="841.8" y1="107.5" x2="0.3" y2="107.5"/>
<line class="st0" x1="841.8" y1="117.3" x2="0.3" y2="117.3"/>
<line class="st0" x1="841.8" y1="127" x2="0.3" y2="127"/>
<line class="st0" x1="841.8" y1="136.8" x2="0.3" y2="136.8"/>
<line class="st0" x1="841.8" y1="146.6" x2="0.3" y2="146.6"/>
<line class="st0" x1="841.8" y1="156.4" x2="0.3" y2="156.4"/>
<line class="st0" x1="841.8" y1="166.1" x2="0.3" y2="166.1"/>
<line class="st0" x1="841.8" y1="175.9" x2="0.3" y2="175.9"/>
<line class="st0" x1="841.8" y1="185.7" x2="0.3" y2="185.7"/>
<line class="st0" x1="841.8" y1="195.5" x2="0.3" y2="195.5"/>
<line class="st0" x1="841.8" y1="205.2" x2="0.3" y2="205.2"/>
<line class="st0" x1="841.8" y1="215" x2="0.3" y2="215"/>
<line class="st0" x1="841.8" y1="224.8" x2="0.3" y2="224.8"/>
<line class="st0" x1="841.8" y1="234.5" x2="0.3" y2="234.5"/>
<line class="st0" x1="841.8" y1="244.3" x2="0.3" y2="244.3"/>
<line class="st0" x1="841.8" y1="254.1" x2="0.3" y2="254.1"/>
<line class="st0" x1="841.8" y1="263.9" x2="0.3" y2="263.9"/>
<line class="st0" x1="841.8" y1="273.6" x2="0.3" y2="273.6"/>
<line class="st0" x1="841.8" y1="283.4" x2="0.3" y2="283.4"/>
<line class="st0" x1="841.8" y1="293.2" x2="0.3" y2="293.2"/>
<line class="st0" x1="841.9" y1="303" x2="0.4" y2="303"/>
<line class="st0" x1="841.9" y1="312.8" x2="0.4" y2="312.8"/>
<line class="st0" x1="841.9" y1="322.5" x2="0.4" y2="322.5"/>
<line class="st0" x1="841.9" y1="332.3" x2="0.4" y2="332.3"/>
<line class="st0" x1="841.9" y1="342.1" x2="0.4" y2="342.1"/>
<line class="st0" x1="841.9" y1="351.8" x2="0.4" y2="351.8"/>
<line class="st0" x1="841.9" y1="361.6" x2="0.4" y2="361.6"/>
<line class="st0" x1="841.9" y1="371.4" x2="0.4" y2="371.4"/>
<line class="st0" x1="841.9" y1="381.2" x2="0.4" y2="381.2"/>
<line class="st0" x1="841.9" y1="390.9" x2="0.4" y2="390.9"/>
<line class="st0" x1="841.9" y1="400.7" x2="0.4" y2="400.7"/>
<line class="st0" x1="841.9" y1="410.5" x2="0.4" y2="410.5"/>
<line class="st0" x1="841.9" y1="420.3" x2="0.4" y2="420.3"/>
<line class="st0" x1="841.9" y1="430" x2="0.4" y2="430"/>
<line class="st0" x1="841.9" y1="439.8" x2="0.4" y2="439.8"/>
<line class="st0" x1="841.9" y1="449.6" x2="0.4" y2="449.6"/>
<line class="st0" x1="841.9" y1="459.3" x2="0.4" y2="459.3"/>
<line class="st0" x1="841.9" y1="469.1" x2="0.4" y2="469.1"/>
<line class="st0" x1="841.9" y1="478.9" x2="0.4" y2="478.9"/>
<line class="st0" x1="841.9" y1="488.7" x2="0.4" y2="488.7"/>
<line class="st0" x1="841.9" y1="498.4" x2="0.4" y2="498.4"/>
<line class="st0" x1="841.9" y1="508.2" x2="0.4" y2="508.2"/>
<line class="st0" x1="841.9" y1="518" x2="0.4" y2="518"/>
<line class="st0" x1="841.9" y1="527.8" x2="0.4" y2="527.8"/>
<line class="st0" x1="841.9" y1="537.5" x2="0.4" y2="537.5"/>
<line class="st0" x1="841.9" y1="547.3" x2="0.4" y2="547.3"/>
<line class="st0" x1="841.9" y1="557.1" x2="0.4" y2="557.1"/>
<line class="st0" x1="841.9" y1="566.8" x2="0.4" y2="566.8"/>
<line class="st0" x1="841.9" y1="576.6" x2="0.4" y2="576.6"/>
<line class="st0" x1="841.9" y1="586.4" x2="0.4" y2="586.4"/>
</svg>
