<?xml version="1.0" encoding="utf-8"?>
<!-- Generator: Adobe Illustrator 24.2.1, SVG Export Plug-In . SVG Version: 6.00 Build 0)  -->
<svg version="1.1" id="Layer_1" xmlns="http://www.w3.org/2000/svg" xmlns:xlink="http://www.w3.org/1999/xlink" x="0px" y="0px"
	 viewBox="0 0 283.5 187.5" style="enable-background:new 0 0 283.5 187.5;" xml:space="preserve">
<style type="text/css">
	.st0{fill:#068442;}
	.st1{fill:#068442;stroke:#588107;stroke-miterlimit:10;}
</style>
<path class="st0" d="M151.3,78V12.7l9.8-1v56.7l19.1-2V75L151.3,78z"/>
<path class="st0" d="M208.4,72l-17.1,1.8c-3.6,0.4-5.4-1.2-5.4-4.7V37.4c0-3.5,1.8-5.4,5.4-5.8l17.1-1.8c3.5-0.4,5.3,1.2,5.3,4.7
	v31.8C213.7,69.7,211.9,71.7,208.4,72z M204.4,38.2l-9.1,1v26.3l9.1-1V38.2z"/>
<path class="st0" d="M243.2,87.9l-16.5,1.7c-3.6,0.4-5.4-1.2-5.4-4.7v-6.8l9.2-1v5l8.5-0.9V68.6l-9.8,1c-2.7,0.3-4.9-0.3-6.4-1.6
	c-1.5-1.4-2.3-3.4-2.3-5.9V36.2c0-2.4,0.7-4.4,2-5.9c1.4-1.5,3.2-2.4,5.6-2.6c0.6-0.1,1.2-0.1,1.8-0.1s1.2,0,1.8,0.1l7.2,0.6v-1.5
	l9.6-1v56.4C248.5,85.5,246.7,87.5,243.2,87.9z M238.9,34.9H235c-0.3,0-0.6,0-1,0s-0.7,0.1-1,0.1c-2,0.2-3,1.3-3,3.4v20.2
	c0,2.1,1,3.1,3.1,2.8l5.8-0.6L238.9,34.9L238.9,34.9z"/>
<path class="st0" d="M176.7,143.1c-1.5,1.7-3.7,2.7-6.4,3l-19.4,2V82.8l9.6-1v24.7l10.3-2.4c0.5-0.2,1-0.3,1.6-0.4
	c0.5-0.1,1-0.2,1.5-0.2c3.5-0.4,5.2,1.2,5.2,4.6v28.8C179,139.3,178.2,141.4,176.7,143.1z M169.4,112l-9,1.1v26.1l5.9-0.6
	c2.1-0.2,3.1-1.4,3.1-3.5V112z"/>
<path class="st0" d="M208.3,142.1l-17.1,1.8c-3.6,0.4-5.4-1.2-5.4-4.7v-31.8c0-3.5,1.8-5.4,5.4-5.8l17.1-1.8
	c3.5-0.4,5.3,1.2,5.3,4.7v31.8C213.6,139.8,211.9,141.7,208.3,142.1z M204.3,108.3l-9.1,1v26.3l9.1-1V108.3z"/>
<path class="st0" d="M243.1,138.4l-17.1,1.8c-3.6,0.4-5.4-1.2-5.4-4.7v-31.8c0-3.5,1.8-5.4,5.4-5.8l17.1-1.8
	c3.5-0.4,5.3,1.2,5.3,4.7v31.8C248.4,136.1,246.6,138.1,243.1,138.4z M239.1,104.6l-9.1,1v26.3l9.1-1V104.6z"/>
<path class="st0" d="M273.3,135.3l-8.4-18.5v19.3l-9.6,1V71.8l9.6-1V110l7.5-16.9l10-1.1v0.2l-9.8,20.2l10.8,21.5v0.2L273.3,135.3z"
	/>
<g>
	<path class="st0" d="M117.8,151.6l-86.7,9.1c-4.2,0.4-7.6-2.6-7.6-6.8V26.1l109.9-11.5v119.9C133.4,143,126.4,150.7,117.8,151.6z
		 M31.6,33.4V153l86.2-9.6c4.1-0.4,7.4-4.1,7.4-8.2V23.5L31.6,33.4z"/>
</g>
<g>
	<path class="st1" d="M22.9,29.8"/>
</g>
<path class="st0" d="M92.9,2.3L4.1,11.6C1.8,11.9,0,13.9,0,16.2v128.4c0,2.6,1.4,5,3.7,6.1l76,36.8v-32.9l-8.1,0.9v18.7L8.1,143.7
	V25.6L24.9,34l4.2-7.4l-15.7-7.8l79.4-8.3L92.9,2.3L92.9,2.3z"/>
<g>
	<path class="st0" d="M36.9,158.5l36.2-3.5l-0.7,12.5c0,0,2.1,9,0.7,8.9C71.6,176.5,36.9,158.5,36.9,158.5z"/>
</g>
<polygon class="st0" points="255.3,44 264.9,43 264.9,52.6 255.3,53.6 "/>
<polygon class="st0" points="66.1,102.8 59.5,97 105.2,46.5 111.8,52.4 "/>
<polygon class="st0" points="41.5,80.9 48.1,73.6 72.7,95.6 66.1,102.8 "/>
<polygon class="st0" points="99.9,74.5 106.5,80.4 77.2,112.8 70.6,106.9 "/>
<polygon class="st0" points="96.3,100.7 102.9,106.5 88.3,122.7 81.7,116.8 "/>
</svg>
