<?xml version="1.0" encoding="utf-8"?>
<!-- Generator: Adobe Illustrator 24.2.1, SVG Export Plug-In . SVG Version: 6.00 Build 0)  -->
<svg version="1.1" id="Layer_1" xmlns="http://www.w3.org/2000/svg" xmlns:xlink="http://www.w3.org/1999/xlink" x="0px" y="0px"
	 viewBox="0 0 198.43 107.29" style="enable-background:new 0 0 198.43 107.29;" xml:space="preserve">
<style type="text/css">
	.st0{fill:#FFFFFF;}
</style>
<path class="st0" d="M139.82,58.56v16.03c0,4.82-2.85,7.75-7.49,7.75c-4.64,0-7.49-2.93-7.49-7.75V58.56c0-4.82,2.85-7.75,7.49-7.75
	C136.98,50.8,139.82,53.74,139.82,58.56z M129.49,58.6v15.94c0,2.28,1.01,3.5,2.85,3.5c1.84,0,2.85-1.23,2.85-3.5V58.6
	c0-2.28-1.01-3.5-2.85-3.5C130.49,55.1,129.49,56.32,129.49,58.6z"/>
<path class="st0" d="M150.08,77.52h7.75v4.38h-12.39V51.24h4.64V77.52z"/>
<path class="st0" d="M175.3,55.62h-4.95V81.9h-4.64V55.62h-4.95v-4.38h14.54V55.62z"/>
<path class="st0" d="M196.35,55.1l-8.54,22.51h8.54v4.29h-13.58v-3.85l8.54-22.51h-8.1v-4.29h13.14V55.1z"/>
<path class="st0" d="M132.57,43.63h-4.64V12.97h4.64V43.63z"/>
<path class="st0" d="M155.01,17.35h-4.95v26.28h-4.64V17.35h-4.95v-4.38h14.54V17.35z"/>
<path class="st0" d="M175.52,20.29v16.03c0,4.82-2.85,7.75-7.49,7.75c-4.64,0-7.49-2.93-7.49-7.75V20.29c0-4.82,2.85-7.75,7.49-7.75
	C172.67,12.53,175.52,15.47,175.52,20.29z M165.18,20.33v15.94c0,2.28,1.01,3.5,2.85,3.5c1.84,0,2.85-1.23,2.85-3.5V20.33
	c0-2.28-1.01-3.5-2.85-3.5C166.19,16.83,165.18,18.05,165.18,20.33z"/>
<path class="st0" d="M192.79,43.63l-3.68-12.96h-2.15v12.96h-4.64V12.97h6.7c4.99,0,7.71,2.72,7.71,7.75v2.19
	c0,3.24-1.14,5.52-3.29,6.74l4.25,13.97H192.79z M186.96,17.26v9.11h1.88c2.23,0,3.24-1.18,3.24-3.77v-1.58
	c0-2.58-1.01-3.77-3.24-3.77H186.96z"/>
<polygon class="st0" points="134.53,4.54 129.78,4.54 127.98,9.29 132.74,9.29 "/>
<polygon class="st0" points="82.41,81.99 82.41,10.32 82.41,2.3 68.93,9.47 68.93,56.16 68.93,69.53 68.93,86.5 68.93,87.82 
	68.93,89.16 "/>
<polygon class="st0" points="34.77,107.29 48.25,100.12 48.25,77.49 48.25,64.11 48.25,23.97 48.25,20.43 34.77,27.6 34.77,69.76 
	34.77,83.13 34.77,100.15 34.77,101.47 "/>
<polygon class="st0" points="27.16,103.84 27.16,86.71 14.09,77.75 14.09,2 0.61,9.17 0.61,85.59 "/>
<polygon class="st0" points="34.77,72.74 34.77,88.09 61.29,73.9 61.3,58.57 "/>
<path class="st0" d="M107.66,51.46v16.95l6.83-2.01V51.46H119v30.53h-4.51V70.95l-6.83,1.97v9.06h-4.51V51.46H107.66z"/>
<path class="st0" d="M103.09,37.7V13.33h4.51v22.13l3.42,2.76l3.42-2.76V13.33h4.51V37.7l-7.93,6.17L103.09,37.7z"/>
</svg>
