<?xml version="1.0" encoding="utf-8"?>
<!-- Generator: Adobe Illustrator 24.2.1, SVG Export Plug-In . SVG Version: 6.00 Build 0)  -->
<svg version="1.1" id="Layer_1" xmlns="http://www.w3.org/2000/svg" xmlns:xlink="http://www.w3.org/1999/xlink" x="0px" y="0px"
	 viewBox="0 0 1090 635.8" style="enable-background:new 0 0 1090 635.8;" xml:space="preserve">
<style type="text/css">
	.st0{fill:none;stroke:#FFFFFF;stroke-width:5;stroke-linecap:round;stroke-linejoin:round;stroke-miterlimit:10;}
</style>
<path class="st0" d="M57.4,489.9c82.4-60.2,146.9-156.6,146.9-156.6l-57.5,282.8c0,0,174.2-465,166.7-507.9
	c-7.6-42.9-64.5,120.9-53.1,113.1C271.8,213.4,391.6,66.2,402.7,48"/>
<line class="st0" x1="278.8" y1="401.7" x2="297.6" y2="380.2"/>
<path class="st0" d="M263.8,446.4c0,0,5.6,60.5,25.8,7.7c20.3-52.8,69.5-232.4,69.5-232.4"/>
<path class="st0" d="M228,458.8c0,0,4.4,26.5,15.5,23.8c8.5-2.1,28.8-60,28.8-64.4"/>
<path class="st0" d="M299,429.3c0,0-2.2,35.8,7.2,32.7c9.4-3.1,22.8-47.2,23.2-51.7c0.3-4.5-10.4,2.2-3.1,31.5
	c7.2,29.3,26.7,13.6,32.3-6.6c5.5-20.1,9.2-46.1-7.4-50.6c-7.7-2.2-16.4,36.3,2.3,37.9c18.7,1.7,35.7-47.2,29.4-56.9
	c0,0,14.6-4.1,32.2-17.4c0,0-40.9,106.9,14.9,145.8s119.5-10.5,123.2-86.1c3.3-68.4-51.9-100.1-89.3-76.2
	c-36.1,22.1-56.8,84.3-13.9,107.7c41.9,22.6,67.6-26.1,54-50.3c-9.2-16.1-31.8-13.1-32.7-6.5"/>
<line class="st0" x1="226.8" y1="338.5" x2="426.4" y2="273.5"/>
<path class="st0" d="M412.5,189.4C596.6,204.9,706,120.7,681.4,36.8c-39.8-124.6-70.5,553.1-162.2,496.3
	c-55.9-34.9,79.4-205,99.9-226.7c4.1-5.9,109.7-111.7,92-153.1c-20.6-40.8-57.5,181-59.2,198.5c-0.6,6.1-0.9,12.3-0.7,18.4
	c3.1,66.8,40.7-0.4,43.8-27.9c0,0-4.5,54,16.3,42.4c20.6-11.5,19.6-63.2,6.6-71.8c-29.5,0.7,9.5,56.3,33.5,27.4
	s65.4-186.1,62.2-198.4c-3.1-12.2-22.2,27.1-32,59.7c-9.6,32.6-36.6,139.2-22.2,179.5c14.3,40.2,88.5-165,101.1-246.9
	c0,0-56.5,192-49.9,208.5c0,0,45.2-72.8,60.8-63.3c17.4,10.3,0,51.2-11.8,65c0,0,71.9,1.1,10.3,114.2s-99,120.3-98.2,103.5
	c0.7-16.9,113.8-271,300.2-367.7"/>
<line class="st0" x1="782.7" y1="226.6" x2="969.2" y2="165.2"/>
<path class="st0" d="M929.9,378.4c47.1-7.6,95.1-12.6,142-19.5"/>
<path class="st0" d="M622.5,426.8c16.5-4,32.5-6,48.5-9c56-9,108-18,162.6-25.9"/>
<path class="st0" d="M214.2,513.9c52.8-13.1,105.8-26.1,158.5-36.8"/>
<path class="st0" d="M23.1,568.9c13.2-4.9,95.9-29.1,117.4-35.5"/>
</svg>
