<?xml version="1.0" encoding="utf-8"?>
<!-- Generator: Adobe Illustrator 24.3.0, SVG Export Plug-In . SVG Version: 6.00 Build 0)  -->
<svg version="1.1" id="Camada_1" xmlns="http://www.w3.org/2000/svg" xmlns:xlink="http://www.w3.org/1999/xlink" x="0px" y="0px"
	 viewBox="0 0 194.34 83.65" style="enable-background:new 0 0 194.34 83.65;" xml:space="preserve">
<style type="text/css">
	.st0{fill:#36506B;}
	.st1{fill:#F6BFA3;}
	.st2{fill:#E29F81;}
	.st3{fill:#44261B;}
	.st4{fill:#E4EBF0;}
	.st5{fill:#F6C3AC;}
	.st6{fill:#EA6F42;}
	.st7{fill:#DB9880;}
	.st8{fill:#ED8045;}
	.st9{fill:#AD5E4E;}
	.st10{fill:#9B4E41;}
	.st11{fill:#372736;}
	.st12{fill:#B9C2C8;}
	.st13{fill:#250D09;}
	.st14{fill:#FCC643;}
	.st15{fill:#404040;}
	.st16{fill:#F5B12D;}
	.st17{fill:#A66B23;}
	.st18{fill:#F8B134;}
	.st19{fill:#03AFC1;}
</style>
<g>
	<path class="st0" d="M128.95,48.04l-6.35,2.27c-0.57,0.2-0.99,0.7-1.08,1.3L120,61.45l17.56,3.57c1.71,0.35,3.48,0.35,5.19,0
		l17.6-3.57l-1.53-9.83c-0.09-0.61-0.51-1.11-1.09-1.32l-6.34-2.27"/>
	<path class="st1" d="M135.9,43.12v2.34l-4.72,1.76c0,0,4.1,5.23,9.33,5.23c5.23,0,8.96-5.3,8.96-5.3l-3.62-1.72v-2.6h-9.95V43.12z"
		/>
	<path class="st2" d="M135.94,43.36l-0.04,1.6c0,0,1.96,2.39,4.96,2.39c3,0,4.99-2.63,4.99-2.63v-1.58h-9.78L135.94,43.36z"/>
	<path class="st1" d="M140.98,18.62c-9.36-0.15-11.07-1.85-10.87,14.19c0.1,8.02,5.49,13.22,10.87,13.22
		c5.39,0,10.78-5.2,10.87-13.22C152.05,16.77,150.34,18.48,140.98,18.62z"/>
	<path class="st3" d="M141.11,22.29c1.73,0,4.36-1.22,7.44-1.12s3.22,12.12,3.22,12.12s3.97-7.97,2.66-14.92
		c0,0-1.29-3.61-5.14-3.83c0,0-2.44-3.05-8.17-3.05c-5.73,0-7.97,4.93-15.09,2.44c0,0-0.74,2.5,2.51,4.73c0,0-1.05,6.99,1.93,14.63
		c0,0,0.15-12.02,3.22-12.12S139.38,22.29,141.11,22.29"/>
	<path class="st4" d="M128.6,47.47l2.17-0.88c0,0,4.12,5.61,9.39,5.61s9.17-5.61,9.17-5.61l2.39,0.98c0,0-4.34,7.12-11.56,7.12
		S128.6,47.47,128.6,47.47z"/>
</g>
<g>
	<path class="st5" d="M93.65,51.04l-8.43-4.56v-1.89h-7.22v0.21v1.7l-10.26,4.58c-0.54,0.2-0.97,0.62-1.18,1.16l-3.66,9.23
		l17.88,5.16l14.51-4.02l2.66-0.75l-3.17-9.6C94.58,51.71,94.18,51.27,93.65,51.04z"/>
	<circle class="st6" cx="88.69" cy="11.05" r="5.75"/>
	<path class="st7" d="M78.09,44.33l-0.03,1.14c0,0,1.39,1.7,3.52,1.7c2.13,0,3.55-1.87,3.55-1.87v-1.12h-6.95L78.09,44.33z"/>
	<path class="st5" d="M93.45,32.9c0-5.24-1.55-10.01-2.78-14.98c-2.48-0.55-5.77-0.4-9.46-0.34c-3.69-0.06-6.98-0.21-9.46,0.34
		c-1.24,4.97-2.78,9.74-2.78,14.98c0,1.53,6.02,12.78,12.05,13.24v0.02c0.06,0,0.13-0.01,0.19-0.01c0.06,0,0.13,0.01,0.19,0.01
		v-0.02C87.43,45.67,93.45,34.43,93.45,32.9z"/>
	<path class="st8" d="M68.64,32.06c0,0-5.16-14.44,4.85-19.08c0,0,5.27-6.21,14.38-1.68c7.23,3.59,8.51,12.42,5.55,21.92l-3.72-5.33
		c0,0-13.89-2.54-16.79-8.8c0,0-4.31,8.14-3.95,14.13"/>
	<path class="st4" d="M97.94,61.86l-3.17-9.6c-0.18-0.55-0.59-0.99-1.11-1.22l-3.01-1.63c0,0-4.46,8.51-9.52,8.51
		c-5.06,0-9.64-8.51-9.64-8.51l0,0l-3.74,1.67c-0.54,0.2-0.97,0.62-1.18,1.16l-3.66,9.23l17.88,5.16l14.51-4.02L97.94,61.86z"/>
</g>
<path class="st4" d="M95.25,57.91l-7.66,2.74c-0.69,0.25-1.19,0.85-1.3,1.57l-1.85,11.86l21.19,4.3c2.07,0.42,4.2,0.42,6.26,0
	l21.23-4.31l-1.84-11.85c-0.11-0.73-0.62-1.34-1.31-1.59l-7.64-2.73"/>
<path class="st9" d="M103.63,51.99v2.82l-5.69,2.12c0,0,4.94,6.31,11.25,6.31s10.81-6.4,10.81-6.4l-4.37-2.07v-3.13h-12V51.99z"/>
<path class="st10" d="M103.68,52.77l-0.05,1.93c0,0,2.36,2.89,5.98,2.89s6.02-3.17,6.02-3.17v-1.9h-11.8L103.68,52.77z"/>
<path class="st9" d="M122.83,38.53c0.49-5.49-1.62-10.52-2.93-15.75c-2.65-0.59-6.18-0.41-10.14-0.35v0.43
	c-3.72-0.2-8.1-0.53-10.14-0.07c-1.3,5.23-3.42,10.26-2.93,15.75c0.04,0.4,0.03,0.78-0.01,1.13c2.82,8.73,6.82,15.54,13.08,15.79
	v0.05c6.47,0,10.2-6.94,13.08-15.84C122.8,39.31,122.79,38.93,122.83,38.53z"/>
<path class="st11" d="M109.81,26.69c2.1,0,5.31-1.48,9.04-1.36c3.73,0.12,3.91,14.73,3.91,14.73s5.51-24.33-12.95-24.33
	c-13.9,0-16.57,15.04-12.95,24.33c0,0,0.18-14.61,3.91-14.73S107.71,26.69,109.81,26.69"/>
<path class="st12" d="M95.05,57.59l2.63-1.1c0,0,4.72,6.45,11.08,6.45s10.84-6.47,10.84-6.47l2.84,1.27c0,0-4.97,8.19-13.68,8.19
	S95.05,57.59,95.05,57.59z"/>
<g>
	<g>
		<path class="st13" d="M21.77,8.17C6.85,2.06-0.03,16.11,5.23,27.51c2.19,4.76,2.41,7.81,2.2,10.87c-0.21,3.05-0.34,6.31,3.77,6.87
			c0.61,0.08,1.84,1.26,2.65,2.13c1.43,1.55,4.92,0.31,4.92,0.31s1.24-2.73,3-6.59c1.76,3.86,3,6.59,3,6.59s3.49,1.24,4.92-0.31
			c0.8-0.88,2.04-2.05,2.65-2.13c4.12-0.56,3.98-3.82,3.77-6.87c-0.21-3.05,0.01-6.11,2.2-10.87C43.57,16.11,36.69,2.06,21.77,8.17z
			"/>
		<rect x="16.09" y="41.91" class="st9" width="11.38" height="9.38"/>
		<path class="st9" d="M34.86,29.12c0-2.21-0.61-4.34-1.49-6.28l-0.31-2.2l-1.71-1.37c-2.24-3.29-4.71-5.44-4.71-5.44l-4.86,0.34
			l-4.86-0.34c0,0-2.48,2.16-4.71,5.44l-1.71,1.37l-0.31,2.2c-0.88,1.94-1.49,4.07-1.49,6.28c0,7.79,5.39,16.91,12.15,17.73
			c0.3,0.05,0.6,0.08,0.91,0.08c0.01,0,0.02,0,0.03,0c0.01,0,0.02,0,0.03,0c0.31,0,0.61-0.03,0.91-0.08
			C29.46,46.03,34.86,36.91,34.86,29.12z"/>
		<path class="st10" d="M27.45,44.68c-1.84,1.53-3.94,2.47-6.18,2.47c-1.91,0-3.64-0.96-5.18-2.35v2.43
			c1.53,1.39,3.27,2.35,5.18,2.35c2.23,0,4.33-0.93,6.18-2.45V44.68z"/>
		<path class="st9" d="M11.94,50.57l-5.81,2.08c-0.52,0.19-0.9,0.64-0.99,1.19l-1.4,9l16.07,3.27c1.57,0.32,3.18,0.32,4.75,0
			l16.1-3.27l-1.4-8.99c-0.09-0.55-0.47-1.02-1-1.2l-5.8-2.07H11.94"/>
		<path class="st13" d="M20.8,20.13c0,0,2.76,5.38,11.35,7.83s0.9-14.96-9.28-15.72C12.7,11.47,8.62,13.89,8.5,18.03
			s-0.32,7.7-0.32,7.7v2.43c0,0,2.55-2.82,2.87-3.45c0,0,0.21,1.41-1.5,2.65c-0.73,0.53,9.13-1.46,11.55-7.21"/>
		<path class="st9" d="M11.94,50.57"/>
		<path class="st14" d="M39.27,53.85c-0.09-0.55-0.47-1.02-1-1.2l-5.8-2.07h-1.31c-1.15,2.75-4.4,5.87-6.05,6.69
			c0.27,0.79,0.53,1.77,0.76,2.91c0.32,1.59,0.59,3.49,0.79,5.5l14-2.84L39.27,53.85z"/>
		<path class="st14" d="M6.14,52.65c-0.52,0.19-0.9,0.64-0.99,1.19l-1.4,9l14,2.84c0.21-2.02,0.48-3.91,0.79-5.51
			c0.08-0.37,0.16-0.72,0.23-1.05c0.17-0.7,0.34-1.32,0.53-1.86c-1.64-0.82-4.9-3.95-6.06-6.69h-1.3L6.14,52.65z"/>
	</g>
	<g>
		<path class="st1" d="M45.19,52.74v2.77l-5.59,2.08c0,0,4.85,6.19,11.04,6.19s10.61-6.28,10.61-6.28l-4.29-2.04V52.4H45.19V52.74z"
			/>
		<path class="st4" d="M56.97,55.47l14.07,5.77c0.68,0.24,1.18,0.84,1.29,1.56l1.81,11.63L53.3,78.66c-2.03,0.41-4.12,0.41-6.15,0
			l-20.79-4.23l1.81-11.64c0.11-0.71,0.6-1.3,1.28-1.54l15.74-5.73c0,0-4.61,0.82,1.79,5.68c2.06,1.56,8.6,1.33,10.3-0.61
			C60.92,56.43,56.97,55.47,56.97,55.47z"/>
		<path class="st2" d="M45.24,53.02l-0.05,1.89c0,0,2.32,2.83,5.87,2.83c3.55,0,5.91-3.11,5.91-3.11v-1.87H45.39L45.24,53.02z"/>
		<path class="st1" d="M51.21,23.74c-11.08-0.17-13.11-2.19-12.87,16.8c0.12,9.5,6.49,15.66,12.87,15.66s12.76-6.16,12.87-15.66
			C64.32,21.54,62.3,23.56,51.21,23.74z"/>
		<path class="st3" d="M51.37,28.08c2.05,0,5.17-1.44,8.8-1.33c3.64,0.12,3.81,14.35,3.81,14.35s6.44-22.2-2.94-22.2
			c0,0-2.89-3.61-9.67-3.61c-17.06,0-16.14,16.76-12.61,25.81c0,0,0.17-14.23,3.81-14.35C46.2,26.63,49.32,28.08,51.37,28.08"/>
		<path class="st12" d="M52.12,62.2c1.43-0.49,6.29-3.01,5.8-6.79c1.46,1.65,2.65,6.73-1.62,10.35
			C55.11,64.04,53.35,62.72,52.12,62.2z"/>
		<path class="st12" d="M50.01,62.2c-1.43-0.49-6.29-3.01-5.8-6.79c-1.46,1.65-2.65,6.73,1.62,10.35
			C47.02,64.04,48.78,62.72,50.01,62.2z"/>
		<g>
			<path class="st15" d="M52.48,37.67c-0.17-0.2-0.56-0.23-1.27-0.23v-0.61c0.66,0,1.49,0,1.93,0.49L52.48,37.67z"/>
			<g>
				<path class="st15" d="M62.09,40.68h-7.32c-1.41,0-1.85-1.8-2.3-2.87c-0.16-0.37-0.03-0.82,0.33-1.21
					c0.43-0.46,1.11-0.72,1.85-0.72h7.37c0.64,0,1.17,0.15,1.52,0.44c0.41,0.33,0.59,0.82,0.55,1.46
					C63.96,39.66,63.25,40.68,62.09,40.68z M54.66,36.51c-0.48,0-0.91,0.16-1.2,0.46c-0.21,0.22-0.29,0.48-0.22,0.66
					c0.7,1.69,1.02,2.44,1.53,2.44h7.32c0.77,0,1.12-1.19,1.2-2.32c0.03-0.46-0.08-0.79-0.33-0.99c-0.21-0.16-0.52-0.25-0.94-0.25
					H54.66z"/>
				<path class="st15" d="M47.65,40.68h-7.32c-1.16,0-1.87-1.03-2-2.89c-0.05-0.64,0.14-1.13,0.55-1.46
					c0.36-0.28,0.88-0.44,1.52-0.44h7.37c0.74,0,1.41,0.26,1.84,0.72c0.37,0.38,0.49,0.83,0.33,1.21
					C49.5,38.89,49.06,40.68,47.65,40.68z M40.4,36.51c-0.42,0-0.74,0.08-0.94,0.25c-0.25,0.2-0.36,0.54-0.33,0.99
					c0.08,1.12,0.44,2.32,1.2,2.32h7.32c0.51,0,0.83-0.76,1.54-2.44c0.07-0.18-0.01-0.44-0.22-0.66c-0.28-0.29-0.72-0.46-1.2-0.46
					H40.4z"/>
				<path class="st15" d="M49.94,37.67l-0.66-0.36c0.45-0.49,1.27-0.49,1.93-0.49v0.61C50.51,37.44,50.11,37.47,49.94,37.67z"/>
			</g>
		</g>
	</g>
</g>
<g>
	<path class="st16" d="M156.21,42.5c0,0-0.75,17.47,2.79,21.36l2.7-1.11c0,0-3.47-11.79-2.36-16.09S156.21,42.5,156.21,42.5z"/>
	<path class="st17" d="M158.56,42.5c0,0-1.25,17.47,4.66,21.36l4.52-1.11c0,0-5.8-11.79-3.94-16.09
		C165.65,42.36,158.56,42.5,158.56,42.5z"/>
	<path class="st17" d="M179.93,68.04c0,0,8.54-18.44,1.55-25.67l-6.92-1.08c0,0,3.77,15.81-0.55,19.56
		C169.69,64.59,179.93,68.04,179.93,68.04z"/>
	<rect x="164.24" y="52.63" class="st1" width="12.27" height="10.12"/>
	<path class="st1" d="M156.78,43.54c0,0,5.27,14.49,13.04,14.49s14.15-10.4,14.15-19.21s-8.88-16.5-8.88-16.5l-9.01,0.62l-8.39,6.73
		l-0.9,6.38V43.54z"/>
	<path class="st1" d="M157.06,44.27c0,0-2.03-2.1-2.35-4.21c-0.32-2.11,0.97-2.77,1.83-1.96c0.86,0.81,1.33,5.32,1.22,5.6
		C157.64,43.99,157.06,44.27,157.06,44.27z"/>
	<path class="st18" d="M179.48,21.31c-11.74-6.29-16.27,0.46-16.27,0.46s-9.15,4.98-6.52,15.99v0.56l2.5-4.58
		c0,0,5.18,1.12,11.5,1.25l0.6-5.09l0.81,5.1c1.66-0.01,3.37-0.09,5.08-0.28l0.43-3.66l0.56,3.54c1.41-0.2,2.81-0.47,4.14-0.86
		c0,0-1.16,35.18-0.74,36.5c0.42,1.32,0.74,2.63,0.74,2.63s4.32,0.07,4.25-5.62C186.48,61.57,191.22,27.59,179.48,21.31z"/>
	<path class="st2" d="M176.49,55.21c-1.99,1.65-4.25,2.66-6.66,2.66c-2.06,0-3.93-1.04-5.58-2.53v2.62c1.65,1.5,3.53,2.53,5.58,2.53
		c2.4,0,4.67-1,6.66-2.65V55.21z"/>
	<path class="st1" d="M159.76,61.97l-6.26,2.24c-0.56,0.2-0.97,0.7-1.06,1.29l-1.51,9.71l17.34,3.52c1.69,0.34,3.43,0.34,5.12,0
		l17.37-3.52l-1.51-9.7c-0.09-0.6-0.51-1.1-1.07-1.3l-6.25-2.24"/>
	<path class="st19" d="M184.73,74.61c-0.39-3.56-0.07-10.38-0.01-11.64l-2.6-0.93c-0.02,0.01-0.05,0.01-0.07,0.02
		c-0.92,0.82-11.21,13.23-11.21,13.23s-10.29-12.4-11.21-13.23c-0.02-0.01-0.05-0.01-0.07-0.02l-2.6,0.93
		c0.06,1.26,0.38,8.08-0.01,11.64c-0.09,0.84,0.49,1.54,1.46,2.12l9.85,2c1.69,0.34,3.43,0.34,5.12,0l9.89-2.01
		C184.24,76.14,184.82,75.45,184.73,74.61z"/>
</g>
<g>
</g>
<g>
</g>
<g>
</g>
<g>
</g>
<g>
</g>
<g>
</g>
</svg>
