<?xml version="1.0" encoding="utf-8"?>
<!-- Generator: Adobe Illustrator 24.3.0, SVG Export Plug-In . SVG Version: 6.00 Build 0)  -->
<svg version="1.1" id="Camada_1" xmlns="http://www.w3.org/2000/svg" xmlns:xlink="http://www.w3.org/1999/xlink" x="0px" y="0px"
	 viewBox="0 0 300 138.71" style="enable-background:new 0 0 300 138.71;" xml:space="preserve">
<style type="text/css">
	.st0{fill:#F6BFA3;}
	.st1{fill:#E4EBF0;}
	.st2{fill:#E29F81;}
	.st3{fill:#44261B;}
	.st4{fill:#B9C2C8;}
	.st5{fill:#404040;}
	.st6{fill:#727D82;}
	.st7{fill:#F6C3AC;}
	.st8{fill:#EA6F42;}
	.st9{fill:#DB9880;}
	.st10{fill:#ED8045;}
</style>
<g>
	<path class="st7" d="M72.51,97.83l-17.88-9.67v-4H39.32v0.45v3.6l-21.75,9.7c-1.15,0.43-2.06,1.32-2.51,2.46L7.3,119.94
		l37.91,10.94l30.75-8.52l5.65-1.6l-6.73-20.35C74.49,99.26,73.63,98.32,72.51,97.83z"/>
	<circle class="st8" cx="61.99" cy="13.04" r="12.18"/>
	<path class="st9" d="M39.52,83.62l-0.06,2.41c0,0,2.95,3.61,7.47,3.61s7.52-3.96,7.52-3.96V83.3H39.71L39.52,83.62z"/>
	<path class="st7" d="M72.08,59.36c0-11.11-3.28-21.21-5.9-31.76c-5.26-1.17-12.22-0.85-20.05-0.72
		c-7.83-0.13-14.79-0.45-20.05,0.72c-2.62,10.54-5.9,20.65-5.9,31.76c0,3.25,12.76,27.09,25.55,28.07v0.05
		c0.13,0,0.27-0.02,0.4-0.02c0.13,0.01,0.27,0.02,0.4,0.02v-0.05C59.32,86.45,72.08,62.62,72.08,59.36z"/>
	<path class="st10" d="M19.5,57.59c0,0-10.94-30.62,10.29-40.45c0,0,11.17-13.17,30.49-3.57c15.34,7.62,18.04,26.34,11.77,46.46
		l-7.9-11.29c0,0-29.44-5.39-35.6-18.67c0,0-9.13,17.26-8.36,29.96"/>
	<path class="st1" d="M81.6,120.77l-6.73-20.35c-0.38-1.16-1.24-2.1-2.36-2.59l-6.39-3.45c0,0-9.47,18.04-20.19,18.04
		S25.5,94.38,25.5,94.38l0,0l-7.93,3.54c-1.15,0.43-2.06,1.32-2.51,2.46L7.3,119.95l37.91,10.94l30.75-8.52L81.6,120.77z"/>
</g>
<path class="st6" d="M147.19,4.16h-33.04c-1.19,0-2.15,0.96-2.15,2.15v59.15c0,1.19,0.96,2.15,2.15,2.15h33.04
	c1.19,0,2.15-0.96,2.15-2.15V6.31C149.34,5.13,148.38,4.16,147.19,4.16z M147.4,63.33c0,1.19-0.96,2.15-2.15,2.15h-29.16
	c-1.19,0-2.15-0.96-2.15-2.15V8.39c0-1.19,0.96-2.15,2.15-2.15h9.05v0.25c0,0.55,0.44,0.99,0.99,0.99h9.07
	c0.55,0,0.99-0.44,0.99-0.99V6.25h9.05c1.19,0,2.15,0.96,2.15,2.15L147.4,63.33L147.4,63.33z"/>
<rect x="150.77" y="33.44" class="st6" width="4.52" height="0.85"/>
<path class="st6" d="M191.91,4.16h-33.04c-1.19,0-2.15,0.96-2.15,2.15v59.15c0,1.19,0.96,2.15,2.15,2.15h33.04
	c1.19,0,2.15-0.96,2.15-2.15V6.31C194.06,5.13,193.1,4.16,191.91,4.16z M192.12,63.33c0,1.19-0.96,2.15-2.15,2.15h-29.16
	c-1.19,0-2.15-0.96-2.15-2.15V8.39c0-1.19,0.96-2.15,2.15-2.15h9.05v0.25c0,0.55,0.44,0.99,0.99,0.99h9.07
	c0.55,0,0.99-0.44,0.99-0.99V6.25h9.05c1.19,0,2.15,0.96,2.15,2.15L192.12,63.33L192.12,63.33z"/>
<rect x="195.49" y="33.44" class="st6" width="4.52" height="0.85"/>
<path class="st6" d="M236.63,4.16h-33.04c-1.19,0-2.15,0.96-2.15,2.15v59.15c0,1.19,0.96,2.15,2.15,2.15h33.04
	c1.19,0,2.15-0.96,2.15-2.15V6.31C238.78,5.13,237.82,4.16,236.63,4.16z M236.84,63.33c0,1.19-0.96,2.15-2.15,2.15h-29.16
	c-1.19,0-2.15-0.96-2.15-2.15V8.39c0-1.19,0.96-2.15,2.15-2.15h9.05v0.25c0,0.55,0.44,0.99,0.99,0.99h9.07
	c0.55,0,0.99-0.44,0.99-0.99V6.25h9.05c1.19,0,2.15,0.96,2.15,2.15L236.84,63.33L236.84,63.33z"/>
<rect x="240.21" y="33.44" class="st6" width="4.52" height="0.85"/>
<path class="st6" d="M281.35,4.16h-33.04c-1.19,0-2.15,0.96-2.15,2.15v59.15c0,1.19,0.96,2.15,2.15,2.15h33.04
	c1.19,0,2.15-0.96,2.15-2.15V6.31C283.5,5.13,282.54,4.16,281.35,4.16z M281.56,63.33c0,1.19-0.96,2.15-2.15,2.15h-29.16
	c-1.19,0-2.15-0.96-2.15-2.15V8.39c0-1.19,0.96-2.15,2.15-2.15h9.05v0.25c0,0.55,0.44,0.99,0.99,0.99h9.07
	c0.55,0,0.99-0.44,0.99-0.99V6.25h9.05c1.19,0,2.15,0.96,2.15,2.15v54.93H281.56z"/>
<rect x="284.93" y="33.44" class="st6" width="4.52" height="0.85"/>
<path class="st6" d="M147.19,73.85h-33.04c-1.19,0-2.15,0.96-2.15,2.15v59.15c0,1.19,0.96,2.15,2.15,2.15h33.04
	c1.19,0,2.15-0.96,2.15-2.15V76C149.34,74.81,148.38,73.85,147.19,73.85z M147.4,133.02c0,1.19-0.96,2.15-2.15,2.15h-29.16
	c-1.19,0-2.15-0.96-2.15-2.15V78.08c0-1.19,0.96-2.15,2.15-2.15h9.05v0.25c0,0.55,0.44,0.99,0.99,0.99h9.07
	c0.55,0,0.99-0.44,0.99-0.99v-0.25h9.05c1.19,0,2.15,0.96,2.15,2.15L147.4,133.02L147.4,133.02z"/>
<rect x="150.77" y="103.13" class="st6" width="4.52" height="0.85"/>
<rect x="93.75" y="68.35" class="st6" width="8.58" height="0.85"/>
<path class="st6" d="M191.91,73.85h-33.04c-1.19,0-2.15,0.96-2.15,2.15v59.15c0,1.19,0.96,2.15,2.15,2.15h33.04
	c1.19,0,2.15-0.96,2.15-2.15V76C194.06,74.81,193.1,73.85,191.91,73.85z M192.12,133.02c0,1.19-0.96,2.15-2.15,2.15h-29.16
	c-1.19,0-2.15-0.96-2.15-2.15V78.08c0-1.19,0.96-2.15,2.15-2.15h9.05v0.25c0,0.55,0.44,0.99,0.99,0.99h9.07
	c0.55,0,0.99-0.44,0.99-0.99v-0.25h9.05c1.19,0,2.15,0.96,2.15,2.15L192.12,133.02L192.12,133.02z"/>
<rect x="195.49" y="103.13" class="st6" width="4.52" height="0.85"/>
<path class="st6" d="M236.63,73.85h-33.04c-1.19,0-2.15,0.96-2.15,2.15v59.15c0,1.19,0.96,2.15,2.15,2.15h33.04
	c1.19,0,2.15-0.96,2.15-2.15V76C238.78,74.81,237.82,73.85,236.63,73.85z M236.84,133.02c0,1.19-0.96,2.15-2.15,2.15h-29.16
	c-1.19,0-2.15-0.96-2.15-2.15V78.08c0-1.19,0.96-2.15,2.15-2.15h9.05v0.25c0,0.55,0.44,0.99,0.99,0.99h9.07
	c0.55,0,0.99-0.44,0.99-0.99v-0.25h9.05c1.19,0,2.15,0.96,2.15,2.15L236.84,133.02L236.84,133.02z"/>
<rect x="240.21" y="103.13" class="st6" width="4.52" height="0.85"/>
<path class="st6" d="M281.35,73.85h-33.04c-1.19,0-2.15,0.96-2.15,2.15v59.15c0,1.19,0.96,2.15,2.15,2.15h33.04
	c1.19,0,2.15-0.96,2.15-2.15V76C283.5,74.81,282.54,73.85,281.35,73.85z M281.56,133.02c0,1.19-0.96,2.15-2.15,2.15h-29.16
	c-1.19,0-2.15-0.96-2.15-2.15V78.08c0-1.19,0.96-2.15,2.15-2.15h9.05v0.25c0,0.55,0.44,0.99,0.99,0.99h9.07
	c0.55,0,0.99-0.44,0.99-0.99v-0.25h9.05c1.19,0,2.15,0.96,2.15,2.15v54.94H281.56z"/>
<rect x="284.93" y="103.13" class="st6" width="4.52" height="0.85"/>
<rect x="289.45" y="33.44" class="st6" width="0.85" height="70.53"/>
<rect x="102.75" y="33.44" class="st6" width="4.52" height="0.85"/>
<rect x="102.75" y="103.12" class="st6" width="4.52" height="0.85"/>
<rect x="101.91" y="33.44" class="st6" width="0.85" height="70.53"/>
<rect x="117.36" y="32.01" class="st1" width="26.54" height="2.87"/>
<rect x="162.12" y="36.22" class="st1" width="26.54" height="2.87"/>
<rect x="162.12" y="42.58" class="st1" width="26.54" height="2.87"/>
<rect x="162.12" y="48.95" class="st1" width="26.54" height="2.87"/>
<rect x="162.12" y="55.32" class="st1" width="26.54" height="2.87"/>
<rect x="206.84" y="36.22" class="st1" width="26.54" height="2.87"/>
<rect x="206.84" y="42.58" class="st1" width="26.54" height="2.87"/>
<rect x="206.84" y="48.95" class="st1" width="26.54" height="2.87"/>
<rect x="206.84" y="55.32" class="st1" width="26.54" height="2.87"/>
<rect x="117.4" y="85.75" class="st1" width="26.54" height="2.87"/>
<rect x="119.44" y="91.55" class="st1" width="22.46" height="2.87"/>
<rect x="117.4" y="97.34" class="st1" width="26.54" height="2.87"/>
<rect x="119.44" y="103.14" class="st1" width="22.46" height="2.87"/>
<rect x="117.4" y="108.94" class="st1" width="26.54" height="2.87"/>
<rect x="119.44" y="114.74" class="st1" width="22.46" height="2.87"/>
<rect x="117.4" y="120.54" class="st1" width="26.54" height="2.87"/>
<rect x="119.44" y="126.34" class="st1" width="22.46" height="2.87"/>
<rect x="206.84" y="85.75" class="st1" width="26.54" height="2.87"/>
<rect x="208.88" y="91.55" class="st1" width="22.46" height="2.87"/>
<rect x="206.84" y="97.34" class="st1" width="26.54" height="2.87"/>
<rect x="208.88" y="103.14" class="st1" width="22.46" height="2.87"/>
<rect x="206.84" y="108.94" class="st1" width="26.54" height="2.87"/>
<rect x="208.88" y="114.74" class="st1" width="22.46" height="2.87"/>
<rect x="206.84" y="120.54" class="st1" width="26.54" height="2.87"/>
<rect x="208.88" y="126.34" class="st1" width="22.46" height="2.87"/>
<rect x="251.56" y="35.77" class="st1" width="26.54" height="23.31"/>
<rect x="162.12" y="104.96" class="st1" width="26.54" height="26.54"/>
<rect x="251.56" y="25.82" class="st1" width="26.54" height="7.61"/>
<rect x="162.12" y="80.77" class="st1" width="26.54" height="7.61"/>
<rect x="162.12" y="90.4" class="st1" width="26.54" height="12.53"/>
<rect x="251.56" y="11.66" class="st1" width="26.54" height="11.83"/>
<rect x="206.84" y="10.76" class="st1" width="26.54" height="2.87"/>
<rect x="206.84" y="17.13" class="st1" width="26.54" height="2.87"/>
<rect x="206.84" y="23.49" class="st1" width="26.54" height="2.87"/>
<rect x="206.84" y="29.86" class="st1" width="26.54" height="2.87"/>
<rect x="117.36" y="38.67" class="st1" width="26.54" height="2.87"/>
<rect x="117.36" y="47.2" class="st1" width="26.54" height="2.87"/>
<circle class="st1" cx="130.67" cy="18" r="5.43"/>
<circle class="st1" cx="175.39" cy="20.88" r="8.91"/>
<rect x="251.56" y="106.1" class="st1" width="26.54" height="2.87"/>
<rect x="251.56" y="112.46" class="st1" width="26.54" height="2.87"/>
<rect x="251.56" y="118.83" class="st1" width="26.54" height="2.87"/>
<rect x="251.56" y="125.2" class="st1" width="26.54" height="2.87"/>
<circle class="st1" cx="264.83" cy="90.76" r="8.91"/>
</svg>
