<?xml version="1.0" encoding="utf-8"?>
<!-- Generator: Adobe Illustrator 24.3.0, SVG Export Plug-In . SVG Version: 6.00 Build 0)  -->
<svg version="1.1" id="Camada_1" xmlns="http://www.w3.org/2000/svg" xmlns:xlink="http://www.w3.org/1999/xlink" x="0px" y="0px"
	 viewBox="0 0 315 635" style="enable-background:new 0 0 315 635;" xml:space="preserve">
<style type="text/css">
	.st0{fill:#E5ECF0;}
	.st1{fill:none;}
	.st2{fill:#727D83;}
	.st3{fill:#EEFFF9;}
	.st4{fill:#DDF2EC;}
	.st5{fill:#FFFFFF;}
	.st6{fill:#148260;}
	.st7{fill:url(#SVGID_1_);}
	.st8{fill:#FFFFFF;stroke:#E8EBED;stroke-miterlimit:10;}
	.st9{fill:#2CBA8D;}
	.st10{fill:#C7CFD3;}
	.st11{fill:#E8EBED;}
	.st12{fill:url(#SVGID_2_);}
	.st13{fill:#FFFFFF;stroke:#E5ECF0;stroke-miterlimit:10;}
	.st14{fill:#1CAE81;}
	.st15{fill:#FFCF8C;}
	.st16{fill:#B9C3C9;}
	.st17{fill:#E4EBF0;}
	.st18{fill:#3BB18A;}
	.st19{fill:#128260;}
	.st20{fill:#B9C2C8;}
	.st21{fill:#F9BE6D;}
	.st22{fill:#106449;}
	.st23{fill:#FCCE8C;}
	.st24{fill:#7F5018;}
	.st25{fill:none;stroke:#0B8360;stroke-width:4;stroke-miterlimit:10;}
	.st26{fill:#21AC80;}
	.st27{fill:#FABE6D;}
	.st28{fill:#E84B4D;}
	.st29{fill:#D9D9D9;}
	.st30{fill:#F6C3AC;}
	.st31{fill:#EA6F42;}
	.st32{fill:#DB9880;}
	.st33{fill:#ED8045;}
	.st34{fill:#AD5E4E;}
	.st35{fill:#9B4E41;}
	.st36{fill:#372736;}
	.st37{fill:#FF4848;}
	.st38{fill:#704E43;}
	.st39{fill:#FFFFFF;stroke:#B9C3C9;stroke-miterlimit:10;}
</style>
<linearGradient id="SVGID_1_" gradientUnits="userSpaceOnUse" x1="171.321" y1="205.6046" x2="142.5409" y2="3.3861">
	<stop  offset="0" style="stop-color:#209E76"/>
	<stop  offset="0.0614" style="stop-color:#1D9670"/>
	<stop  offset="0.21" style="stop-color:#188B67"/>
	<stop  offset="0.4192" style="stop-color:#158461"/>
	<stop  offset="1" style="stop-color:#148260"/>
</linearGradient>
<path class="st7" d="M0,216.99c0,0,6.18-27.59,33.53-30.24S315,157.22,315,157.22V0H0V216.99z"/>
<g>
	<path class="st5" d="M163.59,92.02V60.69l4.68-0.49v27.15l9.14-0.96v4.18L163.59,92.02z"/>
	<path class="st5" d="M190.93,89.15l-8.2,0.86c-1.72,0.18-2.58-0.56-2.58-2.23V72.57c0-1.67,0.86-2.59,2.58-2.77l8.2-0.86
		c1.69-0.18,2.54,0.57,2.54,2.23v15.22C193.47,88.05,192.62,88.97,190.93,89.15z M189,72.95l-4.35,0.46v12.59l4.35-0.46V72.95z"/>
	<path class="st5" d="M207.6,96.73l-7.93,0.83c-1.72,0.18-2.58-0.56-2.58-2.23V92.1l4.43-0.47v2.42l4.06-0.43v-6.13l-4.69,0.49
		c-1.31,0.14-2.33-0.13-3.06-0.78c-0.74-0.66-1.1-1.61-1.1-2.84V71.97c0-1.17,0.33-2.12,0.98-2.85c0.66-0.72,1.55-1.15,2.7-1.27
		c0.27-0.03,0.56-0.05,0.86-0.05c0.3-0.01,0.59,0.01,0.86,0.03l3.47,0.29v-0.74l4.59-0.48v27.05
		C210.16,95.63,209.31,96.55,207.6,96.73z M205.57,71.37l-1.89-0.01c-0.14-0.01-0.29-0.01-0.46,0.01c-0.17,0.02-0.33,0.03-0.46,0.05
		c-0.97,0.1-1.45,0.64-1.45,1.63v9.68c0,1.01,0.49,1.46,1.49,1.36l2.77-0.29V71.37z"/>
	<path class="st5" d="M175.74,123.21c-0.74,0.81-1.77,1.29-3.08,1.43l-9.31,0.98V94.29l4.59-0.48v11.85l4.92-1.17
		c0.25-0.08,0.5-0.15,0.76-0.2c0.26-0.06,0.5-0.09,0.71-0.12c1.67-0.18,2.5,0.56,2.5,2.2v13.78
		C176.84,121.37,176.48,122.39,175.74,123.21z M172.25,108.28l-4.31,0.53v12.51l2.83-0.3c0.98-0.1,1.48-0.66,1.48-1.67V108.28z"/>
	<path class="st5" d="M190.91,122.72l-8.2,0.86c-1.72,0.18-2.58-0.56-2.58-2.23v-15.22c0-1.67,0.86-2.59,2.58-2.77l8.2-0.86
		c1.69-0.18,2.54,0.57,2.54,2.23v15.22C193.45,121.62,192.6,122.55,190.91,122.72z M188.98,106.52l-4.35,0.46v12.59l4.35-0.46
		V106.52z"/>
	<path class="st5" d="M207.56,120.97l-8.2,0.86c-1.72,0.18-2.58-0.56-2.58-2.23v-15.22c0-1.67,0.86-2.59,2.58-2.77l8.2-0.86
		c1.69-0.18,2.54,0.57,2.54,2.23v15.22C210.1,119.87,209.25,120.8,207.56,120.97z M205.63,104.77l-4.35,0.46v12.59l4.35-0.46V104.77
		z"/>
	<path class="st5" d="M222.04,119.45l-4.02-8.85v9.27l-4.59,0.48V89.03l4.59-0.48v18.82l3.61-8.09l4.8-0.5v0.09l-4.68,9.68
		l5.16,10.33v0.08L222.04,119.45z"/>
	<g>
		<path class="st5" d="M147.53,127.28L106,131.65c-2.01,0.21-3.65-1.25-3.65-3.27V67.13l52.64-5.53v57.45
			C154.99,123.16,151.64,126.85,147.53,127.28z M106.24,70.61v57.36l41.3-4.58c1.96-0.21,3.56-1.97,3.56-3.94V65.9L106.24,70.61z"/>
	</g>
	<path class="st5" d="M135.59,55.74l-42.55,4.47c-1.09,0.11-1.97,1.09-1.97,2.17v61.54c0,1.27,0.67,2.38,1.77,2.93l36.41,17.65
		v-15.77l-3.89,0.41v8.97l-30.4-14.6V66.9l8.06,4.01l2.01-3.54l-7.51-3.74l38.07-4V55.74z"/>
	<g>
		<path class="st5" d="M108.75,131.17l17.34-1.56l-0.34,5.62c0,0,1.03,4.01,0.34,4S108.75,131.17,108.75,131.17z"/>
	</g>
	<polygon class="st5" points="213.43,75.74 218.02,75.26 218.02,79.82 213.43,80.31 	"/>
	<polygon class="st5" points="122.76,103.92 119.61,101.09 141.5,76.9 144.65,79.73 	"/>
	<polygon class="st5" points="110.98,93.38 114.14,89.89 125.91,100.43 122.76,103.92 	"/>
	<polygon class="st5" points="138.95,90.35 142.1,93.17 128.07,108.67 124.92,105.85 	"/>
	<polygon class="st5" points="137.23,102.86 140.39,105.69 133.39,113.43 130.23,110.6 	"/>
	<polygon class="st5" points="98.45,64.58 136.82,60.51 138.43,60.94 99.37,65.13 	"/>
	<polygon class="st5" points="100.29,65.95 140.75,61.66 142.1,62.12 101.21,66.5 	"/>
</g>
<rect x="33.26" y="255.04" class="st8" width="248.47" height="36.24"/>
<g>
	<g>
		<path class="st2" d="M42.13,246.25c0,0.19-0.01,0.35-0.02,0.47c-0.02,0.13-0.04,0.23-0.07,0.31c-0.03,0.08-0.07,0.14-0.12,0.17
			s-0.1,0.05-0.16,0.05H35.4c-0.21,0-0.4-0.06-0.54-0.19s-0.22-0.33-0.22-0.62v-11.02c0-0.29,0.07-0.49,0.22-0.62
			s0.33-0.19,0.54-0.19h6.31c0.06,0,0.11,0.02,0.16,0.05c0.05,0.03,0.08,0.09,0.12,0.17c0.03,0.08,0.06,0.19,0.07,0.31
			c0.02,0.13,0.02,0.29,0.02,0.48c0,0.18-0.01,0.34-0.02,0.46c-0.02,0.13-0.04,0.23-0.07,0.31c-0.03,0.08-0.07,0.14-0.12,0.17
			c-0.04,0.04-0.1,0.05-0.16,0.05H37.2v3.09h3.82c0.06,0,0.11,0.02,0.16,0.05s0.09,0.09,0.12,0.17c0.03,0.07,0.06,0.18,0.07,0.3
			c0.02,0.13,0.02,0.28,0.02,0.46c0,0.19-0.01,0.35-0.02,0.47c-0.02,0.12-0.04,0.22-0.07,0.3c-0.03,0.07-0.07,0.13-0.12,0.16
			s-0.1,0.05-0.16,0.05H37.2v3.56h4.55c0.06,0,0.11,0.02,0.16,0.05s0.09,0.09,0.12,0.17c0.03,0.08,0.06,0.18,0.07,0.31
			C42.12,245.9,42.13,246.06,42.13,246.25z"/>
		<path class="st2" d="M48.18,242.34c0,0.38-0.04,0.64-0.11,0.79c-0.07,0.15-0.19,0.22-0.34,0.22h-4.06c-0.16,0-0.28-0.08-0.35-0.23
			c-0.07-0.15-0.11-0.42-0.11-0.79c0-0.36,0.04-0.62,0.11-0.77c0.07-0.15,0.19-0.22,0.35-0.22h4.06c0.08,0,0.15,0.02,0.2,0.05
			c0.06,0.03,0.1,0.09,0.14,0.17s0.07,0.18,0.08,0.31C48.17,242,48.18,242.16,48.18,242.34z"/>
		<path class="st2" d="M63.84,246.92c0,0.06-0.02,0.12-0.06,0.17s-0.1,0.09-0.2,0.12c-0.09,0.03-0.21,0.06-0.37,0.07
			s-0.35,0.02-0.6,0.02c-0.25,0-0.45-0.01-0.61-0.02s-0.28-0.04-0.38-0.07c-0.09-0.03-0.16-0.07-0.2-0.12
			c-0.04-0.05-0.05-0.11-0.05-0.17v-5.17c0-0.29-0.03-0.56-0.08-0.8c-0.05-0.24-0.14-0.45-0.25-0.62c-0.11-0.17-0.26-0.31-0.43-0.4
			c-0.17-0.09-0.38-0.14-0.62-0.14c-0.29,0-0.59,0.11-0.89,0.34c-0.3,0.23-0.63,0.56-0.98,1v5.79c0,0.06-0.02,0.12-0.06,0.17
			s-0.11,0.09-0.2,0.12c-0.09,0.03-0.22,0.06-0.38,0.07s-0.35,0.02-0.59,0.02c-0.24,0-0.44-0.01-0.6-0.02s-0.28-0.04-0.38-0.07
			c-0.09-0.03-0.16-0.07-0.2-0.12s-0.06-0.11-0.06-0.17v-5.17c0-0.29-0.03-0.56-0.08-0.8c-0.05-0.24-0.14-0.45-0.25-0.62
			c-0.11-0.17-0.25-0.31-0.43-0.4s-0.38-0.14-0.62-0.14c-0.3,0-0.6,0.11-0.9,0.34c-0.3,0.23-0.62,0.56-0.97,1v5.79
			c0,0.06-0.02,0.12-0.06,0.17s-0.11,0.09-0.2,0.12c-0.09,0.03-0.22,0.06-0.38,0.07s-0.35,0.02-0.6,0.02c-0.24,0-0.44-0.01-0.6-0.02
			s-0.28-0.04-0.38-0.07c-0.09-0.03-0.16-0.07-0.2-0.12s-0.06-0.11-0.06-0.17v-8.71c0-0.06,0.02-0.12,0.05-0.17
			c0.03-0.05,0.09-0.09,0.18-0.12c0.08-0.03,0.19-0.06,0.33-0.07c0.13-0.02,0.3-0.02,0.5-0.02c0.21,0,0.38,0.01,0.52,0.02
			s0.24,0.04,0.32,0.07c0.08,0.03,0.13,0.07,0.16,0.12c0.03,0.05,0.05,0.11,0.05,0.17v1.01c0.48-0.52,0.96-0.91,1.44-1.17
			s0.98-0.39,1.5-0.39c0.36,0,0.68,0.04,0.97,0.11c0.29,0.07,0.54,0.18,0.77,0.32s0.42,0.31,0.58,0.5c0.16,0.2,0.3,0.41,0.41,0.65
			c0.26-0.28,0.52-0.52,0.77-0.72c0.25-0.2,0.5-0.37,0.74-0.49s0.49-0.22,0.73-0.28s0.49-0.09,0.75-0.09c0.58,0,1.07,0.1,1.46,0.29
			c0.4,0.2,0.72,0.46,0.96,0.8s0.42,0.73,0.52,1.18c0.1,0.45,0.16,0.92,0.16,1.43V246.92z"/>
		<path class="st2" d="M73.67,246.95c0,0.09-0.03,0.16-0.1,0.21c-0.06,0.05-0.17,0.09-0.31,0.11c-0.14,0.02-0.35,0.03-0.62,0.03
			c-0.29,0-0.51-0.01-0.64-0.03c-0.13-0.02-0.23-0.06-0.28-0.11c-0.05-0.05-0.08-0.12-0.08-0.21v-0.69
			c-0.36,0.38-0.77,0.68-1.23,0.9s-0.97,0.32-1.53,0.32c-0.46,0-0.89-0.06-1.27-0.18c-0.39-0.12-0.72-0.3-1.01-0.54
			s-0.5-0.53-0.66-0.88s-0.23-0.76-0.23-1.23c0-0.51,0.1-0.95,0.3-1.32c0.2-0.37,0.5-0.68,0.89-0.93c0.39-0.24,0.88-0.42,1.47-0.54
			s1.27-0.18,2.04-0.18h0.85v-0.53c0-0.27-0.03-0.51-0.08-0.72c-0.05-0.21-0.15-0.38-0.27-0.51s-0.3-0.24-0.51-0.3
			c-0.21-0.06-0.47-0.1-0.79-0.1c-0.41,0-0.78,0.05-1.1,0.14s-0.61,0.19-0.85,0.3c-0.25,0.11-0.45,0.21-0.62,0.3
			s-0.3,0.14-0.41,0.14c-0.07,0-0.13-0.02-0.19-0.07c-0.05-0.05-0.1-0.11-0.14-0.2c-0.04-0.08-0.06-0.19-0.08-0.31
			s-0.03-0.26-0.03-0.41c0-0.2,0.02-0.36,0.05-0.48c0.03-0.12,0.09-0.22,0.19-0.32c0.09-0.09,0.25-0.2,0.48-0.31
			c0.23-0.11,0.5-0.22,0.8-0.32c0.31-0.1,0.64-0.18,1-0.24s0.73-0.09,1.12-0.09c0.68,0,1.27,0.07,1.75,0.2
			c0.49,0.13,0.88,0.34,1.2,0.62s0.54,0.63,0.68,1.07c0.14,0.44,0.21,0.95,0.21,1.55V246.95z M71.26,243.22h-0.94
			c-0.4,0-0.74,0.03-1.02,0.09c-0.28,0.06-0.51,0.15-0.68,0.26s-0.3,0.26-0.39,0.42c-0.08,0.17-0.12,0.36-0.12,0.57
			c0,0.36,0.12,0.65,0.35,0.86c0.23,0.21,0.55,0.31,0.96,0.31c0.35,0,0.66-0.09,0.95-0.26c0.29-0.18,0.58-0.43,0.88-0.77V243.22z"/>
		<path class="st2" d="M78.77,235.26c0,0.49-0.1,0.84-0.3,1.03c-0.2,0.19-0.58,0.28-1.12,0.28c-0.55,0-0.93-0.09-1.12-0.27
			c-0.19-0.18-0.29-0.51-0.29-0.99c0-0.49,0.1-0.84,0.3-1.03c0.2-0.19,0.58-0.29,1.13-0.29c0.55,0,0.92,0.09,1.11,0.28
			S78.77,234.79,78.77,235.26z M78.59,246.92c0,0.06-0.02,0.12-0.06,0.17s-0.11,0.09-0.2,0.12c-0.09,0.03-0.22,0.06-0.38,0.07
			s-0.35,0.02-0.6,0.02c-0.24,0-0.44-0.01-0.6-0.02s-0.28-0.04-0.38-0.07c-0.09-0.03-0.16-0.07-0.2-0.12s-0.06-0.11-0.06-0.17v-8.69
			c0-0.06,0.02-0.12,0.06-0.17s0.11-0.09,0.2-0.13c0.09-0.04,0.22-0.06,0.38-0.08s0.36-0.03,0.6-0.03c0.24,0,0.44,0.01,0.6,0.03
			s0.28,0.05,0.38,0.08c0.09,0.04,0.16,0.08,0.2,0.13s0.06,0.11,0.06,0.17V246.92z"/>
		<path class="st2" d="M83.5,246.92c0,0.06-0.02,0.12-0.06,0.17s-0.11,0.09-0.2,0.12c-0.09,0.03-0.22,0.06-0.38,0.07
			s-0.35,0.02-0.6,0.02c-0.24,0-0.44-0.01-0.6-0.02s-0.28-0.04-0.38-0.07c-0.09-0.03-0.16-0.07-0.2-0.12s-0.06-0.11-0.06-0.17
			v-12.84c0-0.06,0.02-0.12,0.06-0.18s0.11-0.1,0.2-0.13c0.09-0.04,0.22-0.06,0.38-0.08s0.36-0.03,0.6-0.03
			c0.24,0,0.44,0.01,0.6,0.03s0.28,0.05,0.38,0.08c0.09,0.04,0.16,0.08,0.2,0.13s0.06,0.11,0.06,0.18V246.92z"/>
	</g>
</g>
<rect x="33.26" y="323.97" class="st8" width="248.47" height="36.24"/>
<g>
	<g>
		<path class="st2" d="M43.29,307.39c0,0.71-0.11,1.34-0.33,1.88c-0.22,0.55-0.54,1.01-0.97,1.38c-0.42,0.37-0.94,0.66-1.56,0.85
			s-1.34,0.29-2.17,0.29h-1.05v4.03c0,0.06-0.02,0.12-0.06,0.18c-0.04,0.05-0.11,0.09-0.21,0.13s-0.23,0.06-0.39,0.08
			c-0.16,0.02-0.37,0.03-0.63,0.03c-0.25,0-0.45-0.01-0.62-0.03s-0.3-0.05-0.4-0.08s-0.17-0.07-0.21-0.13s-0.06-0.11-0.06-0.18
			v-11.37c0-0.31,0.08-0.54,0.24-0.69c0.16-0.15,0.37-0.23,0.63-0.23h2.98c0.3,0,0.58,0.01,0.85,0.03c0.27,0.02,0.59,0.07,0.97,0.15
			c0.38,0.07,0.76,0.21,1.15,0.42c0.39,0.2,0.72,0.46,0.99,0.77s0.48,0.67,0.63,1.08C43.22,306.41,43.29,306.87,43.29,307.39z
			 M40.61,307.57c0-0.44-0.08-0.81-0.23-1.09s-0.35-0.5-0.58-0.63c-0.23-0.14-0.47-0.22-0.72-0.26c-0.25-0.04-0.51-0.05-0.78-0.05
			h-1.09v4.29h1.15c0.41,0,0.75-0.06,1.03-0.17c0.28-0.11,0.5-0.27,0.68-0.46s0.31-0.44,0.4-0.71
			C40.56,308.2,40.61,307.9,40.61,307.57z"/>
		<path class="st2" d="M52.17,315.88c0,0.09-0.03,0.16-0.1,0.21c-0.06,0.05-0.17,0.09-0.31,0.11c-0.14,0.02-0.35,0.03-0.62,0.03
			c-0.29,0-0.51-0.01-0.64-0.03c-0.13-0.02-0.23-0.06-0.28-0.11c-0.05-0.05-0.08-0.12-0.08-0.21v-0.69
			c-0.36,0.38-0.77,0.68-1.23,0.9s-0.97,0.32-1.53,0.32c-0.46,0-0.89-0.06-1.27-0.18c-0.39-0.12-0.72-0.3-1.01-0.54
			s-0.5-0.53-0.66-0.88s-0.23-0.76-0.23-1.23c0-0.51,0.1-0.95,0.3-1.32c0.2-0.37,0.5-0.68,0.89-0.93c0.39-0.24,0.88-0.42,1.47-0.54
			s1.27-0.18,2.04-0.18h0.85v-0.53c0-0.27-0.03-0.51-0.08-0.72c-0.05-0.21-0.15-0.38-0.27-0.51s-0.3-0.24-0.51-0.3
			c-0.21-0.06-0.47-0.1-0.79-0.1c-0.41,0-0.78,0.05-1.1,0.14s-0.61,0.19-0.85,0.3c-0.25,0.11-0.45,0.21-0.62,0.3
			s-0.3,0.14-0.41,0.14c-0.07,0-0.13-0.02-0.19-0.07c-0.05-0.05-0.1-0.11-0.14-0.2c-0.04-0.08-0.06-0.19-0.08-0.31
			s-0.03-0.26-0.03-0.41c0-0.2,0.02-0.36,0.05-0.48c0.03-0.12,0.09-0.22,0.19-0.32c0.09-0.09,0.25-0.2,0.48-0.31
			c0.23-0.11,0.5-0.22,0.8-0.32c0.31-0.1,0.64-0.18,1-0.24s0.73-0.09,1.12-0.09c0.68,0,1.27,0.07,1.75,0.2
			c0.49,0.13,0.88,0.34,1.2,0.62s0.54,0.63,0.68,1.07c0.14,0.44,0.21,0.95,0.21,1.55V315.88z M49.76,312.15h-0.94
			c-0.4,0-0.74,0.03-1.02,0.09c-0.28,0.06-0.51,0.15-0.68,0.26s-0.3,0.26-0.39,0.42c-0.08,0.17-0.12,0.36-0.12,0.57
			c0,0.36,0.12,0.65,0.35,0.86c0.23,0.21,0.55,0.31,0.96,0.31c0.35,0,0.66-0.09,0.95-0.26c0.29-0.18,0.58-0.43,0.88-0.77V312.15z"/>
		<path class="st2" d="M60.75,313.39c0,0.49-0.09,0.93-0.28,1.31s-0.45,0.69-0.79,0.95c-0.34,0.25-0.74,0.44-1.2,0.57
			c-0.46,0.13-0.96,0.19-1.5,0.19c-0.33,0-0.64-0.02-0.93-0.07c-0.3-0.05-0.56-0.11-0.8-0.19s-0.43-0.15-0.59-0.23
			s-0.27-0.15-0.34-0.22c-0.07-0.07-0.13-0.18-0.17-0.32s-0.06-0.36-0.06-0.65c0-0.19,0.01-0.34,0.02-0.45
			c0.01-0.11,0.03-0.21,0.06-0.27c0.03-0.07,0.06-0.11,0.1-0.14s0.09-0.03,0.15-0.03c0.07,0,0.18,0.04,0.32,0.12
			c0.14,0.08,0.31,0.17,0.52,0.27c0.21,0.1,0.45,0.19,0.73,0.27c0.28,0.08,0.59,0.13,0.94,0.13c0.22,0,0.42-0.02,0.59-0.07
			c0.17-0.05,0.32-0.11,0.45-0.2s0.22-0.19,0.29-0.32c0.07-0.13,0.1-0.28,0.1-0.45c0-0.2-0.06-0.36-0.18-0.5
			c-0.12-0.14-0.28-0.26-0.48-0.37c-0.2-0.1-0.42-0.2-0.67-0.29c-0.25-0.09-0.51-0.19-0.77-0.3s-0.52-0.24-0.77-0.38
			c-0.25-0.14-0.47-0.32-0.67-0.53c-0.2-0.21-0.36-0.46-0.48-0.75c-0.12-0.29-0.18-0.64-0.18-1.05c0-0.42,0.08-0.8,0.24-1.15
			c0.16-0.35,0.4-0.65,0.7-0.89c0.31-0.25,0.68-0.44,1.12-0.58s0.93-0.21,1.48-0.21c0.27,0,0.54,0.02,0.8,0.06
			c0.26,0.04,0.49,0.09,0.7,0.15c0.21,0.06,0.38,0.12,0.53,0.19c0.14,0.07,0.25,0.13,0.31,0.18c0.06,0.05,0.11,0.1,0.13,0.15
			c0.03,0.05,0.05,0.11,0.06,0.18c0.01,0.07,0.02,0.15,0.03,0.25s0.01,0.23,0.01,0.38c0,0.18,0,0.32-0.01,0.43s-0.03,0.2-0.05,0.26
			c-0.02,0.06-0.05,0.11-0.09,0.13s-0.08,0.03-0.14,0.03c-0.06,0-0.15-0.03-0.27-0.1c-0.12-0.07-0.28-0.14-0.46-0.22
			s-0.4-0.15-0.64-0.22s-0.52-0.1-0.83-0.1c-0.22,0-0.41,0.02-0.58,0.07c-0.16,0.05-0.3,0.11-0.4,0.2c-0.1,0.08-0.18,0.18-0.23,0.3
			c-0.05,0.11-0.08,0.24-0.08,0.37c0,0.2,0.06,0.37,0.19,0.51c0.12,0.14,0.29,0.26,0.49,0.36c0.2,0.1,0.43,0.2,0.69,0.29
			c0.26,0.09,0.52,0.19,0.78,0.3s0.52,0.23,0.78,0.38c0.26,0.14,0.49,0.32,0.69,0.53c0.2,0.21,0.37,0.46,0.49,0.75
			C60.69,312.65,60.75,313,60.75,313.39z"/>
		<path class="st2" d="M68.73,313.39c0,0.49-0.09,0.93-0.28,1.31s-0.45,0.69-0.79,0.95c-0.34,0.25-0.74,0.44-1.2,0.57
			c-0.46,0.13-0.96,0.19-1.5,0.19c-0.33,0-0.64-0.02-0.93-0.07c-0.3-0.05-0.56-0.11-0.8-0.19s-0.43-0.15-0.59-0.23
			s-0.27-0.15-0.34-0.22c-0.07-0.07-0.13-0.18-0.17-0.32s-0.06-0.36-0.06-0.65c0-0.19,0.01-0.34,0.02-0.45
			c0.01-0.11,0.03-0.21,0.06-0.27c0.03-0.07,0.06-0.11,0.1-0.14s0.09-0.03,0.15-0.03c0.07,0,0.18,0.04,0.32,0.12
			c0.14,0.08,0.31,0.17,0.52,0.27c0.21,0.1,0.45,0.19,0.73,0.27c0.28,0.08,0.59,0.13,0.94,0.13c0.22,0,0.42-0.02,0.59-0.07
			c0.17-0.05,0.32-0.11,0.45-0.2s0.22-0.19,0.29-0.32c0.07-0.13,0.1-0.28,0.1-0.45c0-0.2-0.06-0.36-0.18-0.5
			c-0.12-0.14-0.28-0.26-0.48-0.37c-0.2-0.1-0.42-0.2-0.67-0.29c-0.25-0.09-0.51-0.19-0.77-0.3s-0.52-0.24-0.77-0.38
			c-0.25-0.14-0.47-0.32-0.67-0.53c-0.2-0.21-0.36-0.46-0.48-0.75c-0.12-0.29-0.18-0.64-0.18-1.05c0-0.42,0.08-0.8,0.24-1.15
			c0.16-0.35,0.4-0.65,0.7-0.89c0.31-0.25,0.68-0.44,1.12-0.58s0.93-0.21,1.48-0.21c0.27,0,0.54,0.02,0.8,0.06
			c0.26,0.04,0.49,0.09,0.7,0.15c0.21,0.06,0.38,0.12,0.53,0.19c0.14,0.07,0.25,0.13,0.31,0.18c0.06,0.05,0.11,0.1,0.13,0.15
			c0.03,0.05,0.05,0.11,0.06,0.18c0.01,0.07,0.02,0.15,0.03,0.25s0.01,0.23,0.01,0.38c0,0.18,0,0.32-0.01,0.43s-0.03,0.2-0.05,0.26
			c-0.02,0.06-0.05,0.11-0.09,0.13s-0.08,0.03-0.14,0.03c-0.06,0-0.15-0.03-0.27-0.1c-0.12-0.07-0.28-0.14-0.46-0.22
			s-0.4-0.15-0.64-0.22s-0.52-0.1-0.83-0.1c-0.22,0-0.41,0.02-0.58,0.07c-0.16,0.05-0.3,0.11-0.4,0.2c-0.1,0.08-0.18,0.18-0.23,0.3
			c-0.05,0.11-0.08,0.24-0.08,0.37c0,0.2,0.06,0.37,0.19,0.51c0.12,0.14,0.29,0.26,0.49,0.36c0.2,0.1,0.43,0.2,0.69,0.29
			c0.26,0.09,0.52,0.19,0.78,0.3s0.52,0.23,0.78,0.38c0.26,0.14,0.49,0.32,0.69,0.53c0.2,0.21,0.37,0.46,0.49,0.75
			C68.67,312.65,68.73,313,68.73,313.39z"/>
		<path class="st2" d="M83.81,307.12c0,0.07-0.01,0.16-0.03,0.26s-0.05,0.25-0.11,0.45l-2.32,7.88c-0.03,0.11-0.07,0.2-0.13,0.27
			c-0.05,0.07-0.13,0.12-0.24,0.16s-0.26,0.06-0.46,0.08c-0.2,0.01-0.46,0.02-0.78,0.02c-0.32,0-0.58-0.01-0.78-0.02
			c-0.2-0.02-0.36-0.04-0.47-0.08c-0.11-0.04-0.2-0.09-0.25-0.16c-0.05-0.07-0.09-0.15-0.12-0.26l-1.46-5.29l-0.02-0.09l-0.02,0.09
			l-1.35,5.29c-0.03,0.11-0.06,0.2-0.11,0.27s-0.13,0.12-0.25,0.16s-0.28,0.06-0.48,0.08c-0.2,0.01-0.46,0.02-0.78,0.02
			c-0.33,0-0.59-0.01-0.79-0.02c-0.2-0.02-0.35-0.04-0.47-0.08c-0.11-0.04-0.2-0.09-0.25-0.16c-0.05-0.07-0.09-0.15-0.12-0.26
			l-2.3-7.88c-0.06-0.19-0.1-0.34-0.11-0.44c-0.02-0.11-0.02-0.2-0.02-0.27c0-0.06,0.02-0.12,0.05-0.17c0.04-0.05,0.1-0.09,0.2-0.12
			c0.09-0.03,0.22-0.05,0.38-0.06c0.16-0.01,0.36-0.02,0.6-0.02c0.26,0,0.47,0.01,0.63,0.02c0.16,0.01,0.29,0.04,0.38,0.07
			c0.09,0.03,0.16,0.08,0.19,0.13c0.04,0.06,0.06,0.12,0.08,0.2l1.73,6.4l0.02,0.12l0.02-0.12l1.62-6.4
			c0.02-0.08,0.05-0.15,0.09-0.2c0.04-0.06,0.11-0.1,0.19-0.13c0.08-0.03,0.2-0.06,0.36-0.07c0.15-0.01,0.35-0.02,0.59-0.02
			c0.24,0,0.44,0.01,0.59,0.02c0.15,0.02,0.27,0.04,0.36,0.07s0.15,0.07,0.19,0.12c0.04,0.05,0.06,0.11,0.08,0.17l1.74,6.45
			l0.03,0.11l0.02-0.12l1.66-6.4c0.01-0.08,0.04-0.15,0.08-0.2s0.1-0.1,0.2-0.13c0.09-0.03,0.21-0.06,0.37-0.07s0.36-0.02,0.6-0.02
			c0.24,0,0.44,0.01,0.59,0.02c0.15,0.01,0.27,0.03,0.36,0.06s0.15,0.07,0.18,0.12C83.8,307,83.81,307.06,83.81,307.12z"/>
		<path class="st2" d="M94.03,311.41c0,0.74-0.1,1.42-0.29,2.03s-0.49,1.14-0.89,1.58c-0.4,0.44-0.89,0.78-1.49,1.03
			c-0.6,0.24-1.3,0.36-2.1,0.36c-0.77,0-1.45-0.11-2.02-0.32c-0.57-0.21-1.05-0.53-1.43-0.94c-0.38-0.41-0.66-0.91-0.84-1.51
			c-0.18-0.6-0.27-1.28-0.27-2.05c0-0.74,0.1-1.42,0.3-2.04c0.2-0.62,0.5-1.14,0.89-1.58c0.4-0.44,0.89-0.78,1.49-1.02
			s1.29-0.36,2.09-0.36c0.78,0,1.46,0.11,2.03,0.32c0.57,0.21,1.05,0.52,1.42,0.93c0.38,0.41,0.65,0.91,0.83,1.51
			C93.94,309.95,94.03,310.64,94.03,311.41z M91.5,311.51c0-0.43-0.03-0.83-0.1-1.19s-0.18-0.68-0.35-0.94
			c-0.16-0.27-0.38-0.48-0.65-0.63c-0.27-0.15-0.61-0.22-1.02-0.22c-0.36,0-0.68,0.07-0.96,0.2s-0.5,0.33-0.67,0.59
			s-0.31,0.57-0.4,0.93s-0.13,0.77-0.13,1.24c0,0.43,0.04,0.83,0.11,1.19c0.07,0.36,0.19,0.68,0.35,0.94
			c0.16,0.27,0.38,0.47,0.65,0.62s0.61,0.22,1.02,0.22c0.37,0,0.69-0.07,0.97-0.2s0.5-0.33,0.67-0.58s0.31-0.56,0.39-0.92
			C91.46,312.38,91.5,311.97,91.5,311.51z"/>
		<path class="st2" d="M101.57,307.95c0,0.23-0.01,0.43-0.02,0.58c-0.01,0.15-0.03,0.27-0.06,0.35c-0.03,0.08-0.06,0.14-0.1,0.18
			c-0.04,0.03-0.1,0.05-0.16,0.05c-0.05,0-0.11-0.01-0.18-0.03c-0.06-0.02-0.14-0.05-0.22-0.07c-0.08-0.03-0.17-0.05-0.27-0.07
			s-0.21-0.03-0.32-0.03c-0.14,0-0.27,0.03-0.41,0.08s-0.28,0.14-0.42,0.26s-0.3,0.27-0.46,0.47c-0.16,0.2-0.33,0.44-0.51,0.72v5.43
			c0,0.06-0.02,0.12-0.06,0.17s-0.11,0.09-0.2,0.12c-0.09,0.03-0.22,0.06-0.38,0.07s-0.35,0.02-0.6,0.02c-0.24,0-0.44-0.01-0.6-0.02
			s-0.28-0.04-0.38-0.07c-0.09-0.03-0.16-0.07-0.2-0.12s-0.06-0.11-0.06-0.17v-8.71c0-0.06,0.02-0.12,0.05-0.17
			c0.03-0.05,0.09-0.09,0.18-0.12c0.08-0.03,0.19-0.06,0.33-0.07c0.13-0.02,0.3-0.02,0.5-0.02c0.21,0,0.38,0.01,0.52,0.02
			s0.24,0.04,0.32,0.07c0.08,0.03,0.13,0.07,0.16,0.12c0.03,0.05,0.05,0.11,0.05,0.17v1.08c0.23-0.33,0.44-0.59,0.64-0.81
			c0.2-0.21,0.39-0.38,0.58-0.5c0.18-0.12,0.37-0.21,0.55-0.26c0.18-0.05,0.37-0.07,0.55-0.07c0.08,0,0.18,0,0.27,0.01
			s0.2,0.03,0.3,0.05c0.1,0.02,0.2,0.05,0.27,0.08s0.14,0.06,0.17,0.09c0.04,0.03,0.06,0.07,0.08,0.11
			c0.02,0.04,0.03,0.09,0.04,0.16c0.01,0.07,0.02,0.17,0.03,0.31C101.56,307.53,101.57,307.72,101.57,307.95z"/>
		<path class="st2" d="M111.1,315.85c0,0.07-0.02,0.13-0.05,0.18c-0.03,0.05-0.09,0.09-0.17,0.12s-0.18,0.06-0.32,0.07
			c-0.13,0.01-0.3,0.02-0.49,0.02c-0.21,0-0.38-0.01-0.51-0.02c-0.13-0.01-0.24-0.04-0.32-0.07c-0.08-0.03-0.14-0.07-0.18-0.12
			c-0.04-0.05-0.05-0.11-0.05-0.18v-0.97c-0.45,0.48-0.92,0.86-1.41,1.12c-0.49,0.27-1.04,0.4-1.64,0.4c-0.66,0-1.23-0.13-1.68-0.39
			s-0.83-0.6-1.12-1.04c-0.29-0.44-0.5-0.95-0.63-1.53c-0.13-0.58-0.2-1.2-0.2-1.84c0-0.77,0.08-1.47,0.25-2.09s0.41-1.15,0.73-1.58
			c0.32-0.44,0.72-0.77,1.19-1.01c0.48-0.23,1.02-0.35,1.64-0.35c0.49,0,0.93,0.1,1.33,0.3c0.4,0.2,0.79,0.49,1.18,0.87v-4.72
			c0-0.06,0.02-0.12,0.05-0.18c0.04-0.05,0.1-0.1,0.2-0.13c0.09-0.04,0.22-0.06,0.38-0.08s0.36-0.03,0.6-0.03
			c0.24,0,0.44,0.01,0.6,0.03s0.28,0.05,0.37,0.08c0.09,0.04,0.16,0.08,0.2,0.13s0.06,0.11,0.06,0.18V315.85z M108.66,310.03
			c-0.35-0.44-0.69-0.78-1.01-1.02s-0.66-0.35-1.01-0.35c-0.32,0-0.59,0.08-0.83,0.24c-0.23,0.16-0.42,0.37-0.56,0.64
			c-0.14,0.27-0.24,0.56-0.31,0.89s-0.1,0.67-0.1,1.01c0,0.36,0.03,0.72,0.09,1.06s0.16,0.65,0.29,0.92
			c0.13,0.27,0.31,0.49,0.53,0.65c0.22,0.16,0.5,0.24,0.84,0.24c0.17,0,0.33-0.02,0.49-0.07c0.16-0.05,0.32-0.13,0.49-0.24
			s0.34-0.26,0.51-0.43s0.37-0.4,0.58-0.66V310.03z"/>
	</g>
</g>
<g>
	<g>
		<path class="st9" d="M223.32,377.28c0,0.19-0.01,0.35-0.02,0.47c-0.02,0.13-0.04,0.23-0.07,0.31c-0.03,0.08-0.07,0.14-0.12,0.17
			c-0.05,0.04-0.1,0.05-0.16,0.05h-6.35c-0.21,0-0.4-0.06-0.54-0.19s-0.22-0.33-0.22-0.62v-11.02c0-0.29,0.07-0.49,0.22-0.62
			s0.33-0.19,0.54-0.19h6.31c0.06,0,0.11,0.02,0.16,0.05c0.05,0.03,0.08,0.09,0.12,0.17c0.03,0.08,0.06,0.19,0.07,0.31
			c0.02,0.13,0.02,0.29,0.02,0.48c0,0.18-0.01,0.34-0.02,0.46c-0.02,0.13-0.04,0.23-0.07,0.31c-0.03,0.08-0.07,0.14-0.12,0.17
			c-0.04,0.04-0.1,0.05-0.16,0.05h-4.51v3.09h3.82c0.06,0,0.11,0.02,0.16,0.05c0.05,0.04,0.09,0.09,0.12,0.17
			c0.03,0.08,0.06,0.18,0.07,0.3c0.02,0.13,0.02,0.28,0.02,0.46c0,0.19-0.01,0.35-0.02,0.47c-0.02,0.12-0.04,0.22-0.07,0.3
			c-0.03,0.08-0.07,0.13-0.12,0.16c-0.05,0.03-0.1,0.05-0.16,0.05h-3.82v3.56h4.55c0.06,0,0.11,0.02,0.16,0.05
			c0.05,0.04,0.09,0.09,0.12,0.17c0.03,0.08,0.06,0.18,0.07,0.31C223.31,376.93,223.32,377.09,223.32,377.28z"/>
		<path class="st9" d="M231.57,375.49c0,0.5-0.09,0.93-0.28,1.31c-0.19,0.38-0.45,0.69-0.79,0.95c-0.34,0.25-0.74,0.44-1.2,0.57
			c-0.46,0.13-0.96,0.19-1.5,0.19c-0.33,0-0.64-0.02-0.93-0.07c-0.3-0.05-0.56-0.11-0.8-0.19c-0.23-0.07-0.43-0.15-0.59-0.23
			s-0.27-0.15-0.34-0.22c-0.07-0.07-0.13-0.18-0.17-0.32s-0.06-0.36-0.06-0.65c0-0.19,0.01-0.34,0.02-0.45
			c0.01-0.11,0.03-0.21,0.06-0.27c0.03-0.07,0.06-0.11,0.1-0.14c0.04-0.02,0.09-0.03,0.15-0.03c0.07,0,0.18,0.04,0.32,0.12
			c0.14,0.08,0.31,0.17,0.52,0.27c0.21,0.1,0.45,0.19,0.73,0.27c0.28,0.08,0.59,0.13,0.94,0.13c0.22,0,0.42-0.02,0.59-0.07
			c0.17-0.04,0.32-0.11,0.45-0.2c0.13-0.08,0.22-0.19,0.29-0.32c0.07-0.13,0.1-0.28,0.1-0.45c0-0.2-0.06-0.36-0.18-0.5
			c-0.12-0.14-0.28-0.26-0.48-0.37c-0.2-0.1-0.42-0.2-0.67-0.29c-0.25-0.09-0.51-0.19-0.77-0.3c-0.26-0.11-0.52-0.24-0.77-0.38
			c-0.25-0.14-0.47-0.32-0.67-0.53c-0.2-0.21-0.36-0.46-0.48-0.75c-0.12-0.29-0.18-0.64-0.18-1.05c0-0.42,0.08-0.8,0.24-1.15
			c0.16-0.35,0.4-0.65,0.7-0.89c0.31-0.25,0.68-0.44,1.12-0.58s0.93-0.21,1.48-0.21c0.27,0,0.54,0.02,0.8,0.06
			c0.26,0.04,0.49,0.09,0.7,0.15c0.21,0.06,0.38,0.12,0.53,0.19c0.14,0.07,0.25,0.13,0.31,0.18c0.06,0.05,0.11,0.1,0.13,0.15
			c0.03,0.05,0.05,0.11,0.06,0.18c0.01,0.07,0.02,0.15,0.03,0.25c0.01,0.1,0.01,0.23,0.01,0.38c0,0.18,0,0.32-0.01,0.43
			c-0.01,0.11-0.03,0.2-0.05,0.26c-0.02,0.07-0.05,0.11-0.09,0.13c-0.04,0.02-0.08,0.03-0.14,0.03c-0.06,0-0.15-0.03-0.27-0.1
			c-0.12-0.07-0.28-0.14-0.46-0.22s-0.4-0.15-0.64-0.22s-0.52-0.1-0.83-0.1c-0.22,0-0.41,0.02-0.58,0.07
			c-0.16,0.05-0.3,0.11-0.4,0.2c-0.1,0.08-0.18,0.18-0.23,0.3c-0.05,0.11-0.08,0.24-0.08,0.37c0,0.2,0.06,0.37,0.19,0.51
			c0.12,0.14,0.29,0.26,0.49,0.36c0.2,0.1,0.43,0.2,0.69,0.29c0.26,0.09,0.52,0.19,0.78,0.3s0.52,0.23,0.78,0.38
			c0.26,0.14,0.49,0.32,0.69,0.53c0.2,0.21,0.37,0.46,0.49,0.75C231.51,374.75,231.57,375.1,231.57,375.49z"/>
		<path class="st9" d="M241.68,381.41c0,0.07-0.02,0.12-0.06,0.18c-0.04,0.05-0.1,0.1-0.2,0.13c-0.09,0.04-0.21,0.06-0.37,0.08
			s-0.35,0.03-0.6,0.03c-0.24,0-0.44-0.01-0.6-0.03s-0.28-0.05-0.38-0.08c-0.09-0.04-0.16-0.08-0.2-0.13
			c-0.04-0.05-0.05-0.11-0.05-0.18v-4.14c-0.23,0.21-0.46,0.4-0.68,0.56c-0.22,0.16-0.44,0.29-0.66,0.39
			c-0.22,0.1-0.45,0.17-0.68,0.22c-0.23,0.05-0.48,0.07-0.74,0.07c-0.64,0-1.18-0.13-1.63-0.39c-0.45-0.26-0.82-0.6-1.1-1.04
			c-0.28-0.44-0.49-0.95-0.62-1.53c-0.13-0.58-0.2-1.2-0.2-1.84c0-0.77,0.08-1.47,0.25-2.09c0.17-0.62,0.42-1.15,0.74-1.58
			c0.33-0.44,0.73-0.77,1.2-1.01c0.48-0.23,1.03-0.35,1.65-0.35c0.24,0,0.47,0.02,0.69,0.07c0.22,0.05,0.44,0.13,0.66,0.25
			c0.22,0.12,0.45,0.28,0.69,0.47c0.24,0.19,0.5,0.43,0.79,0.71v-0.95c0-0.06,0.02-0.12,0.05-0.17c0.04-0.05,0.09-0.09,0.18-0.12
			c0.08-0.03,0.19-0.06,0.32-0.07c0.13-0.02,0.3-0.02,0.51-0.02c0.2,0,0.36,0.01,0.49,0.02c0.13,0.02,0.24,0.04,0.32,0.07
			c0.08,0.03,0.13,0.07,0.17,0.12c0.03,0.05,0.05,0.11,0.05,0.17V381.41z M239.24,372.13c-0.35-0.44-0.69-0.78-1.01-1.02
			s-0.66-0.35-1.01-0.35c-0.32,0-0.59,0.08-0.83,0.24c-0.23,0.16-0.42,0.37-0.56,0.64c-0.14,0.27-0.24,0.57-0.31,0.89
			c-0.07,0.33-0.1,0.67-0.1,1.01c0,0.37,0.03,0.72,0.09,1.07c0.06,0.35,0.16,0.66,0.29,0.92c0.13,0.27,0.31,0.48,0.53,0.64
			c0.22,0.16,0.5,0.24,0.84,0.24c0.17,0,0.33-0.02,0.49-0.07c0.16-0.05,0.32-0.13,0.49-0.24c0.17-0.11,0.34-0.25,0.51-0.43
			c0.18-0.18,0.37-0.4,0.58-0.66V372.13z"/>
		<path class="st9" d="M252.41,377.95c0,0.07-0.02,0.12-0.05,0.17c-0.03,0.05-0.09,0.09-0.17,0.12c-0.08,0.03-0.19,0.06-0.32,0.07
			c-0.13,0.02-0.3,0.02-0.5,0.02c-0.21,0-0.39-0.01-0.52-0.02c-0.13-0.02-0.24-0.04-0.32-0.07c-0.08-0.03-0.13-0.07-0.17-0.12
			c-0.03-0.05-0.05-0.11-0.05-0.17v-1.01c-0.48,0.52-0.97,0.91-1.47,1.17c-0.5,0.26-1.01,0.39-1.55,0.39c-0.6,0-1.1-0.1-1.51-0.29
			c-0.41-0.2-0.74-0.46-0.99-0.8c-0.25-0.34-0.43-0.73-0.54-1.18c-0.11-0.45-0.16-1-0.16-1.67v-5.33c0-0.06,0.02-0.12,0.05-0.17
			c0.04-0.05,0.1-0.09,0.2-0.12c0.09-0.03,0.22-0.06,0.38-0.07c0.16-0.02,0.36-0.02,0.59-0.02c0.24,0,0.44,0.01,0.6,0.02
			c0.16,0.02,0.28,0.04,0.38,0.07c0.09,0.03,0.16,0.07,0.2,0.12s0.06,0.11,0.06,0.17v4.92c0,0.46,0.03,0.8,0.09,1.04
			c0.06,0.24,0.15,0.45,0.27,0.62c0.12,0.17,0.27,0.31,0.46,0.4c0.19,0.09,0.4,0.14,0.65,0.14c0.31,0,0.63-0.11,0.94-0.34
			c0.32-0.23,0.65-0.56,1.01-1v-5.79c0-0.06,0.02-0.12,0.05-0.17c0.04-0.05,0.1-0.09,0.2-0.12c0.09-0.03,0.22-0.06,0.38-0.07
			c0.16-0.02,0.36-0.02,0.6-0.02c0.24,0,0.44,0.01,0.6,0.02c0.16,0.02,0.28,0.04,0.37,0.07c0.09,0.03,0.16,0.07,0.2,0.12
			s0.06,0.11,0.06,0.17V377.95z"/>
		<path class="st9" d="M262.93,373.34c0,0.3-0.07,0.52-0.2,0.66c-0.13,0.14-0.32,0.21-0.55,0.21h-5.3c0,0.37,0.04,0.71,0.13,1.01
			s0.23,0.56,0.42,0.77c0.19,0.21,0.44,0.37,0.74,0.48c0.3,0.11,0.67,0.17,1.09,0.17c0.43,0,0.81-0.03,1.13-0.09
			c0.33-0.06,0.61-0.13,0.84-0.21c0.24-0.07,0.43-0.14,0.59-0.21c0.16-0.06,0.28-0.09,0.38-0.09c0.06,0,0.11,0.01,0.15,0.03
			c0.04,0.02,0.07,0.06,0.1,0.12c0.03,0.06,0.04,0.14,0.05,0.25s0.01,0.24,0.01,0.41c0,0.14,0,0.27-0.01,0.37
			c-0.01,0.1-0.02,0.19-0.03,0.26c-0.01,0.07-0.03,0.13-0.06,0.18c-0.03,0.05-0.06,0.1-0.1,0.14c-0.04,0.05-0.16,0.11-0.35,0.19
			c-0.19,0.08-0.43,0.16-0.72,0.23c-0.29,0.08-0.63,0.14-1.01,0.2c-0.38,0.06-0.78,0.08-1.21,0.08c-0.77,0-1.45-0.1-2.04-0.29
			c-0.58-0.2-1.07-0.49-1.46-0.89c-0.39-0.4-0.68-0.9-0.87-1.5c-0.19-0.61-0.29-1.31-0.29-2.13c0-0.77,0.1-1.47,0.3-2.09
			c0.2-0.62,0.5-1.15,0.88-1.58c0.38-0.43,0.85-0.76,1.4-0.99c0.55-0.23,1.17-0.34,1.86-0.34c0.73,0,1.35,0.11,1.87,0.32
			s0.94,0.51,1.27,0.89s0.58,0.83,0.73,1.35c0.16,0.52,0.23,1.09,0.23,1.7V373.34z M260.54,372.64c0.02-0.69-0.12-1.23-0.42-1.63
			c-0.3-0.39-0.75-0.59-1.37-0.59c-0.31,0-0.58,0.06-0.82,0.18c-0.23,0.12-0.42,0.28-0.58,0.47c-0.15,0.2-0.27,0.43-0.35,0.7
			c-0.08,0.27-0.13,0.56-0.14,0.86H260.54z"/>
		<path class="st9" d="M271.54,376.57c0,0.17,0,0.31-0.01,0.42c-0.01,0.11-0.02,0.21-0.04,0.29c-0.02,0.08-0.04,0.14-0.06,0.19
			c-0.02,0.05-0.07,0.11-0.15,0.19c-0.08,0.08-0.21,0.17-0.4,0.27c-0.19,0.11-0.4,0.2-0.64,0.29c-0.24,0.08-0.5,0.15-0.79,0.21
			c-0.28,0.05-0.57,0.08-0.87,0.08c-0.67,0-1.26-0.1-1.78-0.31c-0.52-0.21-0.95-0.52-1.3-0.92c-0.35-0.41-0.62-0.9-0.8-1.49
			c-0.18-0.59-0.27-1.26-0.27-2.01c0-0.87,0.11-1.63,0.33-2.26c0.22-0.63,0.52-1.16,0.91-1.58c0.39-0.42,0.85-0.73,1.39-0.93
			c0.53-0.2,1.12-0.3,1.76-0.3c0.26,0,0.52,0.02,0.77,0.07c0.25,0.05,0.49,0.11,0.7,0.19c0.22,0.08,0.41,0.17,0.59,0.26
			c0.17,0.1,0.29,0.18,0.37,0.25c0.07,0.07,0.12,0.13,0.15,0.18s0.05,0.11,0.07,0.19c0.02,0.08,0.03,0.17,0.04,0.29
			c0.01,0.11,0.01,0.25,0.01,0.42c0,0.38-0.03,0.64-0.1,0.8c-0.06,0.15-0.15,0.23-0.25,0.23c-0.11,0-0.23-0.04-0.35-0.14
			c-0.12-0.09-0.27-0.19-0.44-0.3c-0.17-0.11-0.37-0.21-0.61-0.3c-0.23-0.09-0.51-0.14-0.84-0.14c-0.64,0-1.13,0.25-1.46,0.74
			c-0.34,0.49-0.51,1.21-0.51,2.16c0,0.47,0.04,0.88,0.13,1.24c0.08,0.36,0.21,0.66,0.38,0.9c0.17,0.24,0.38,0.42,0.63,0.54
			c0.25,0.12,0.54,0.18,0.87,0.18c0.34,0,0.63-0.05,0.87-0.15c0.24-0.1,0.46-0.21,0.64-0.34c0.18-0.12,0.34-0.24,0.46-0.34
			c0.12-0.1,0.23-0.15,0.31-0.15c0.06,0,0.11,0.02,0.15,0.05c0.04,0.03,0.07,0.09,0.09,0.18c0.02,0.09,0.04,0.2,0.05,0.34
			C271.53,376.18,271.54,376.35,271.54,376.57z"/>
		<path class="st9" d="M275.96,366.29c0,0.5-0.1,0.84-0.3,1.03c-0.2,0.19-0.58,0.28-1.12,0.28c-0.55,0-0.93-0.09-1.12-0.27
			c-0.19-0.18-0.29-0.51-0.29-0.99c0-0.49,0.1-0.84,0.3-1.03c0.2-0.19,0.58-0.29,1.13-0.29c0.55,0,0.92,0.09,1.11,0.28
			S275.96,365.82,275.96,366.29z M275.78,377.95c0,0.07-0.02,0.12-0.06,0.17s-0.11,0.09-0.2,0.12c-0.09,0.03-0.22,0.06-0.38,0.07
			c-0.16,0.02-0.35,0.02-0.6,0.02c-0.24,0-0.44-0.01-0.6-0.02c-0.16-0.02-0.28-0.04-0.38-0.07c-0.09-0.03-0.16-0.07-0.2-0.12
			s-0.06-0.11-0.06-0.17v-8.69c0-0.06,0.02-0.12,0.06-0.17s0.11-0.09,0.2-0.13c0.09-0.04,0.22-0.06,0.38-0.08s0.36-0.03,0.6-0.03
			c0.24,0,0.44,0.01,0.6,0.03s0.28,0.05,0.38,0.08c0.09,0.04,0.16,0.08,0.2,0.13s0.06,0.11,0.06,0.17V377.95z"/>
		<path class="st9" d="M282,377.01c0,0.27-0.02,0.49-0.06,0.67c-0.04,0.18-0.12,0.33-0.22,0.44c-0.11,0.11-0.25,0.19-0.42,0.24
			s-0.4,0.07-0.66,0.07c-0.27,0-0.49-0.02-0.67-0.07c-0.18-0.05-0.32-0.13-0.42-0.24c-0.1-0.11-0.18-0.26-0.22-0.44
			c-0.04-0.18-0.06-0.41-0.06-0.67c0-0.27,0.02-0.5,0.06-0.69c0.04-0.19,0.12-0.33,0.22-0.45c0.1-0.11,0.25-0.2,0.42-0.24
			c0.18-0.05,0.4-0.07,0.67-0.07c0.27,0,0.49,0.02,0.66,0.07s0.32,0.13,0.42,0.24c0.11,0.11,0.18,0.26,0.22,0.45
			C281.98,376.5,282,376.73,282,377.01z M281.7,374.14c-0.01,0.07-0.03,0.12-0.06,0.18c-0.03,0.05-0.09,0.1-0.17,0.13
			c-0.08,0.04-0.19,0.06-0.33,0.08c-0.14,0.02-0.31,0.03-0.51,0.03c-0.21,0-0.38-0.01-0.52-0.03s-0.25-0.05-0.33-0.08
			c-0.08-0.04-0.14-0.08-0.17-0.13c-0.03-0.05-0.05-0.11-0.06-0.18l-0.25-8.87c0-0.08,0.02-0.16,0.06-0.22
			c0.04-0.06,0.11-0.12,0.21-0.16c0.1-0.04,0.24-0.07,0.41-0.09c0.17-0.02,0.39-0.03,0.65-0.03c0.26,0,0.48,0.01,0.64,0.03
			c0.17,0.02,0.3,0.06,0.41,0.1c0.1,0.04,0.17,0.09,0.21,0.16c0.04,0.06,0.06,0.14,0.06,0.22L281.7,374.14z"/>
	</g>
</g>
<g>
	<g>
		<path class="st10" d="M129.74,506.48c0,0.15-0.03,0.28-0.08,0.4c-0.05,0.12-0.12,0.21-0.21,0.29s-0.19,0.13-0.31,0.17
			c-0.12,0.04-0.24,0.05-0.37,0.05h-1.09c-0.23,0-0.42-0.02-0.59-0.07c-0.17-0.05-0.32-0.13-0.46-0.25
			c-0.14-0.12-0.28-0.28-0.41-0.49c-0.13-0.21-0.28-0.47-0.44-0.8l-3.14-5.91c-0.18-0.35-0.37-0.73-0.56-1.14
			c-0.19-0.41-0.36-0.8-0.51-1.19h-0.02c0.03,0.47,0.04,0.94,0.06,1.4c0.01,0.46,0.02,0.95,0.02,1.44v6.61
			c0,0.06-0.02,0.12-0.05,0.18c-0.04,0.05-0.1,0.1-0.19,0.13c-0.09,0.04-0.21,0.06-0.36,0.08c-0.15,0.02-0.34,0.03-0.58,0.03
			c-0.23,0-0.42-0.01-0.57-0.03c-0.15-0.02-0.27-0.05-0.35-0.08c-0.08-0.04-0.14-0.08-0.18-0.13c-0.03-0.05-0.05-0.11-0.05-0.18
			v-11.36c0-0.31,0.09-0.54,0.27-0.69c0.18-0.15,0.4-0.23,0.66-0.23h1.38c0.25,0,0.46,0.02,0.63,0.06c0.17,0.04,0.32,0.11,0.45,0.21
			c0.13,0.1,0.26,0.23,0.38,0.41c0.12,0.17,0.24,0.39,0.36,0.64l2.46,4.62c0.14,0.28,0.28,0.55,0.42,0.83
			c0.14,0.27,0.27,0.54,0.41,0.81c0.13,0.27,0.26,0.54,0.38,0.8c0.12,0.26,0.24,0.52,0.36,0.78h0.01c-0.02-0.46-0.03-0.93-0.04-1.43
			c-0.01-0.5-0.01-0.97-0.01-1.42v-5.93c0-0.07,0.02-0.12,0.06-0.18c0.04-0.05,0.1-0.1,0.2-0.14c0.09-0.04,0.21-0.07,0.36-0.08
			c0.15-0.02,0.34-0.02,0.58-0.02c0.22,0,0.41,0.01,0.56,0.02c0.15,0.02,0.26,0.04,0.35,0.08c0.08,0.04,0.14,0.08,0.17,0.14
			c0.03,0.05,0.05,0.11,0.05,0.18V506.48z"/>
		<path class="st10" d="M141.15,502.61c0,0.74-0.1,1.42-0.29,2.03c-0.2,0.61-0.49,1.14-0.89,1.58c-0.4,0.44-0.9,0.78-1.49,1.03
			c-0.6,0.24-1.3,0.36-2.1,0.36c-0.78,0-1.45-0.11-2.02-0.32c-0.57-0.21-1.05-0.53-1.43-0.94c-0.38-0.41-0.66-0.92-0.84-1.51
			c-0.18-0.6-0.27-1.28-0.27-2.05c0-0.74,0.1-1.42,0.3-2.04c0.2-0.62,0.5-1.14,0.89-1.58c0.4-0.44,0.89-0.78,1.49-1.02
			c0.6-0.24,1.29-0.36,2.09-0.36c0.78,0,1.46,0.11,2.03,0.32c0.57,0.21,1.05,0.52,1.42,0.93c0.37,0.41,0.65,0.91,0.83,1.51
			C141.06,501.14,141.15,501.83,141.15,502.61z M138.62,502.7c0-0.43-0.03-0.83-0.1-1.19s-0.18-0.68-0.35-0.94
			c-0.16-0.27-0.38-0.48-0.65-0.63c-0.27-0.15-0.61-0.22-1.02-0.22c-0.37,0-0.68,0.07-0.96,0.2c-0.27,0.13-0.5,0.33-0.67,0.59
			c-0.18,0.26-0.31,0.57-0.4,0.93s-0.13,0.77-0.13,1.24c0,0.43,0.04,0.83,0.11,1.19c0.07,0.36,0.19,0.67,0.35,0.94
			c0.16,0.27,0.38,0.47,0.65,0.62s0.61,0.22,1.02,0.22c0.37,0,0.69-0.07,0.97-0.2c0.27-0.13,0.5-0.33,0.67-0.58s0.31-0.56,0.39-0.92
			C138.58,503.58,138.62,503.17,138.62,502.7z"/>
		<path class="st10" d="M151.05,498.33c0,0.03,0,0.07,0,0.12c0,0.04-0.01,0.1-0.02,0.15c-0.01,0.05-0.02,0.12-0.04,0.19
			c-0.02,0.07-0.04,0.15-0.06,0.24l-2.62,7.88c-0.03,0.11-0.08,0.2-0.13,0.27c-0.06,0.07-0.15,0.12-0.27,0.16s-0.3,0.06-0.52,0.08
			c-0.22,0.01-0.5,0.02-0.85,0.02c-0.35,0-0.63-0.01-0.84-0.02c-0.22-0.02-0.39-0.04-0.51-0.08c-0.12-0.04-0.21-0.09-0.27-0.16
			c-0.06-0.07-0.1-0.16-0.13-0.26l-2.62-7.88c-0.04-0.13-0.07-0.25-0.09-0.35c-0.02-0.1-0.04-0.18-0.04-0.22c0-0.05,0-0.09,0-0.13
			c0-0.07,0.02-0.12,0.05-0.17c0.04-0.05,0.1-0.09,0.19-0.12c0.09-0.03,0.22-0.06,0.38-0.07c0.16-0.01,0.36-0.02,0.6-0.02
			c0.27,0,0.48,0.01,0.64,0.02c0.16,0.02,0.29,0.04,0.39,0.07c0.09,0.03,0.16,0.07,0.2,0.13c0.04,0.05,0.07,0.12,0.1,0.2l1.98,6.4
			l0.06,0.24l0.06-0.24l1.95-6.4c0.02-0.08,0.05-0.15,0.09-0.2c0.04-0.06,0.11-0.1,0.2-0.13c0.09-0.03,0.21-0.05,0.37-0.07
			c0.15-0.02,0.35-0.02,0.6-0.02c0.24,0,0.44,0.01,0.59,0.02c0.15,0.01,0.27,0.04,0.36,0.07c0.08,0.03,0.14,0.07,0.18,0.12
			C151.04,498.21,151.05,498.26,151.05,498.33z"/>
		<path class="st10" d="M161.12,502.61c0,0.74-0.1,1.42-0.29,2.03c-0.2,0.61-0.49,1.14-0.89,1.58c-0.4,0.44-0.9,0.78-1.49,1.03
			c-0.6,0.24-1.3,0.36-2.1,0.36c-0.78,0-1.45-0.11-2.02-0.32c-0.57-0.21-1.05-0.53-1.43-0.94c-0.38-0.41-0.66-0.92-0.84-1.51
			c-0.18-0.6-0.27-1.28-0.27-2.05c0-0.74,0.1-1.42,0.3-2.04c0.2-0.62,0.5-1.14,0.89-1.58c0.4-0.44,0.89-0.78,1.49-1.02
			c0.6-0.24,1.29-0.36,2.09-0.36c0.78,0,1.46,0.11,2.03,0.32c0.57,0.21,1.05,0.52,1.42,0.93c0.37,0.41,0.65,0.91,0.83,1.51
			C161.03,501.14,161.12,501.83,161.12,502.61z M158.59,502.7c0-0.43-0.03-0.83-0.1-1.19s-0.18-0.68-0.35-0.94
			c-0.16-0.27-0.38-0.48-0.65-0.63c-0.27-0.15-0.61-0.22-1.02-0.22c-0.37,0-0.68,0.07-0.96,0.2c-0.27,0.13-0.5,0.33-0.67,0.59
			c-0.18,0.26-0.31,0.57-0.4,0.93s-0.13,0.77-0.13,1.24c0,0.43,0.04,0.83,0.11,1.19c0.07,0.36,0.19,0.67,0.35,0.94
			c0.16,0.27,0.38,0.47,0.65,0.62s0.61,0.22,1.02,0.22c0.37,0,0.69-0.07,0.97-0.2c0.27-0.13,0.5-0.33,0.67-0.58s0.31-0.56,0.39-0.92
			C158.55,503.58,158.59,503.17,158.59,502.7z"/>
		<path class="st10" d="M175.01,507.08c0,0.09-0.03,0.16-0.1,0.21c-0.07,0.05-0.17,0.09-0.31,0.11c-0.14,0.02-0.35,0.03-0.62,0.03
			c-0.29,0-0.51-0.01-0.64-0.03c-0.13-0.02-0.23-0.06-0.28-0.11c-0.06-0.05-0.08-0.12-0.08-0.21v-0.69
			c-0.36,0.38-0.77,0.68-1.23,0.9s-0.97,0.32-1.53,0.32c-0.46,0-0.89-0.06-1.27-0.18c-0.39-0.12-0.72-0.3-1.01-0.54
			c-0.28-0.24-0.5-0.53-0.66-0.88s-0.23-0.76-0.23-1.23c0-0.51,0.1-0.95,0.3-1.32c0.2-0.38,0.49-0.68,0.89-0.93
			c0.39-0.24,0.88-0.42,1.47-0.54s1.27-0.18,2.04-0.18h0.85v-0.53c0-0.27-0.03-0.51-0.08-0.72c-0.06-0.21-0.15-0.38-0.27-0.51
			s-0.3-0.24-0.51-0.3c-0.21-0.07-0.47-0.1-0.79-0.1c-0.41,0-0.78,0.04-1.1,0.14c-0.32,0.09-0.61,0.19-0.85,0.3
			c-0.25,0.11-0.45,0.21-0.62,0.3c-0.17,0.09-0.3,0.14-0.41,0.14c-0.07,0-0.14-0.02-0.19-0.07c-0.06-0.05-0.1-0.11-0.14-0.2
			c-0.04-0.08-0.06-0.19-0.08-0.31c-0.02-0.12-0.03-0.26-0.03-0.41c0-0.2,0.02-0.36,0.05-0.48c0.03-0.12,0.09-0.22,0.19-0.32
			c0.09-0.09,0.25-0.2,0.48-0.31c0.23-0.11,0.49-0.22,0.8-0.32c0.31-0.1,0.64-0.18,1-0.24c0.36-0.06,0.73-0.09,1.12-0.09
			c0.68,0,1.27,0.07,1.75,0.2c0.48,0.13,0.88,0.34,1.2,0.62c0.31,0.28,0.54,0.63,0.68,1.07c0.14,0.44,0.21,0.95,0.21,1.55V507.08z
			 M172.6,503.35h-0.94c-0.4,0-0.74,0.03-1.02,0.09c-0.28,0.06-0.51,0.15-0.68,0.26s-0.3,0.26-0.39,0.42
			c-0.08,0.17-0.12,0.36-0.12,0.57c0,0.36,0.12,0.65,0.35,0.86c0.23,0.21,0.55,0.31,0.96,0.31c0.34,0,0.66-0.09,0.95-0.26
			c0.29-0.18,0.58-0.43,0.88-0.77V503.35z"/>
		<path class="st10" d="M185.72,510.51c0,0.06-0.02,0.12-0.06,0.18c-0.04,0.05-0.1,0.1-0.2,0.13c-0.09,0.04-0.21,0.06-0.37,0.08
			s-0.36,0.03-0.6,0.03c-0.24,0-0.44-0.01-0.6-0.03s-0.28-0.05-0.38-0.08c-0.09-0.04-0.16-0.08-0.2-0.13
			c-0.04-0.05-0.05-0.11-0.05-0.18v-4.14c-0.23,0.21-0.46,0.4-0.68,0.56c-0.22,0.16-0.44,0.29-0.66,0.39
			c-0.22,0.1-0.45,0.17-0.68,0.22c-0.23,0.04-0.48,0.07-0.74,0.07c-0.64,0-1.18-0.13-1.63-0.39c-0.45-0.26-0.82-0.6-1.1-1.04
			c-0.28-0.44-0.49-0.95-0.62-1.53c-0.13-0.58-0.2-1.2-0.2-1.84c0-0.78,0.08-1.47,0.25-2.09c0.17-0.62,0.42-1.15,0.74-1.58
			c0.33-0.44,0.73-0.77,1.2-1.01c0.47-0.23,1.03-0.35,1.65-0.35c0.24,0,0.47,0.02,0.69,0.07c0.22,0.05,0.44,0.13,0.66,0.25
			c0.22,0.12,0.45,0.28,0.69,0.47c0.24,0.19,0.5,0.43,0.79,0.71v-0.95c0-0.07,0.02-0.12,0.05-0.17c0.04-0.05,0.09-0.09,0.18-0.12
			c0.08-0.03,0.19-0.06,0.32-0.07c0.13-0.02,0.3-0.02,0.51-0.02c0.2,0,0.36,0.01,0.49,0.02c0.13,0.02,0.24,0.04,0.32,0.07
			c0.08,0.03,0.13,0.07,0.17,0.12c0.03,0.05,0.05,0.11,0.05,0.17V510.51z M183.28,501.23c-0.35-0.44-0.69-0.78-1.01-1.02
			s-0.66-0.35-1.01-0.35c-0.32,0-0.59,0.08-0.83,0.24c-0.23,0.16-0.42,0.37-0.56,0.64c-0.14,0.27-0.24,0.56-0.31,0.89
			c-0.07,0.33-0.1,0.67-0.1,1.01c0,0.36,0.03,0.72,0.09,1.07c0.06,0.35,0.15,0.66,0.29,0.92c0.13,0.27,0.31,0.48,0.53,0.64
			c0.22,0.16,0.5,0.24,0.84,0.24c0.17,0,0.33-0.02,0.49-0.07c0.16-0.05,0.32-0.13,0.49-0.24c0.17-0.11,0.34-0.26,0.51-0.43
			c0.18-0.18,0.37-0.4,0.58-0.66V501.23z"/>
		<path class="st10" d="M196.46,507.05c0,0.06-0.02,0.12-0.05,0.17c-0.03,0.05-0.09,0.09-0.17,0.12c-0.08,0.03-0.19,0.06-0.32,0.07
			c-0.13,0.02-0.3,0.02-0.5,0.02c-0.21,0-0.39-0.01-0.52-0.02c-0.13-0.02-0.24-0.04-0.32-0.07c-0.08-0.03-0.13-0.07-0.17-0.12
			c-0.03-0.05-0.05-0.11-0.05-0.17v-1.01c-0.48,0.52-0.97,0.91-1.47,1.17c-0.5,0.26-1.01,0.39-1.55,0.39c-0.6,0-1.1-0.1-1.51-0.29
			c-0.41-0.2-0.74-0.46-0.99-0.8c-0.25-0.34-0.43-0.73-0.54-1.18c-0.11-0.45-0.16-1-0.16-1.67v-5.33c0-0.07,0.02-0.12,0.05-0.17
			c0.04-0.05,0.1-0.09,0.2-0.12c0.09-0.03,0.22-0.06,0.38-0.07c0.16-0.02,0.36-0.02,0.59-0.02c0.24,0,0.44,0.01,0.6,0.02
			c0.16,0.02,0.28,0.04,0.38,0.07c0.09,0.03,0.16,0.07,0.2,0.12s0.06,0.11,0.06,0.17v4.92c0,0.46,0.03,0.8,0.09,1.04
			c0.06,0.24,0.15,0.45,0.27,0.62c0.12,0.17,0.27,0.31,0.46,0.4c0.19,0.09,0.4,0.14,0.65,0.14c0.31,0,0.63-0.11,0.94-0.34
			c0.32-0.23,0.65-0.56,1.01-1v-5.79c0-0.07,0.02-0.12,0.05-0.17c0.04-0.05,0.1-0.09,0.2-0.12c0.09-0.03,0.22-0.06,0.38-0.07
			c0.16-0.02,0.35-0.02,0.6-0.02c0.24,0,0.44,0.01,0.6,0.02c0.16,0.02,0.28,0.04,0.37,0.07c0.09,0.03,0.16,0.07,0.2,0.12
			s0.06,0.11,0.06,0.17V507.05z"/>
		<path class="st10" d="M201.57,495.39c0,0.49-0.1,0.84-0.3,1.03c-0.2,0.19-0.58,0.28-1.12,0.28c-0.55,0-0.93-0.09-1.12-0.27
			c-0.19-0.18-0.29-0.51-0.29-0.99c0-0.5,0.1-0.84,0.3-1.03c0.2-0.19,0.57-0.29,1.13-0.29c0.55,0,0.92,0.09,1.11,0.28
			S201.57,494.91,201.57,495.39z M201.39,507.05c0,0.06-0.02,0.12-0.06,0.17s-0.11,0.09-0.2,0.12c-0.09,0.03-0.22,0.06-0.38,0.07
			c-0.16,0.02-0.36,0.02-0.6,0.02c-0.24,0-0.44-0.01-0.6-0.02c-0.16-0.02-0.28-0.04-0.38-0.07c-0.09-0.03-0.16-0.07-0.2-0.12
			s-0.06-0.11-0.06-0.17v-8.69c0-0.07,0.02-0.12,0.06-0.17s0.11-0.09,0.2-0.13c0.09-0.04,0.22-0.06,0.38-0.08s0.35-0.03,0.6-0.03
			c0.24,0,0.44,0.01,0.6,0.03s0.28,0.05,0.38,0.08c0.09,0.04,0.16,0.08,0.2,0.13s0.06,0.11,0.06,0.17V507.05z"/>
		<path class="st10" d="M211.06,497.73c0,0.53-0.08,1.02-0.23,1.45c-0.15,0.43-0.37,0.8-0.64,1.11c-0.28,0.31-0.61,0.56-1,0.75
			c-0.39,0.19-0.82,0.31-1.28,0.36l-0.08,1.9c-0.01,0.12-0.1,0.21-0.28,0.26c-0.18,0.06-0.44,0.09-0.78,0.09
			c-0.21,0-0.4,0-0.54-0.01s-0.26-0.03-0.35-0.05c-0.08-0.03-0.15-0.06-0.19-0.11c-0.04-0.05-0.06-0.1-0.07-0.18l-0.09-2.3
			c-0.01-0.21,0-0.38,0.03-0.51c0.03-0.13,0.07-0.23,0.14-0.31s0.15-0.13,0.26-0.16c0.1-0.03,0.23-0.04,0.37-0.04h0.14
			c0.34,0,0.64-0.06,0.89-0.17c0.25-0.11,0.46-0.26,0.62-0.44c0.16-0.18,0.28-0.4,0.36-0.64c0.07-0.25,0.11-0.51,0.11-0.79
			c0-0.31-0.04-0.6-0.13-0.86c-0.09-0.26-0.22-0.49-0.4-0.67c-0.18-0.19-0.4-0.33-0.67-0.43c-0.27-0.1-0.59-0.15-0.95-0.15
			c-0.33,0-0.63,0.03-0.88,0.1c-0.25,0.06-0.47,0.14-0.65,0.21c-0.18,0.08-0.33,0.15-0.45,0.21c-0.12,0.06-0.21,0.1-0.28,0.1
			c-0.05,0-0.09-0.01-0.13-0.04s-0.07-0.08-0.1-0.16c-0.03-0.08-0.05-0.19-0.06-0.33c-0.02-0.14-0.02-0.33-0.02-0.55
			c0-0.23,0.01-0.39,0.03-0.5c0.02-0.1,0.06-0.19,0.13-0.25c0.06-0.07,0.19-0.14,0.37-0.23c0.18-0.09,0.4-0.17,0.65-0.24
			c0.25-0.08,0.54-0.14,0.85-0.19c0.31-0.05,0.64-0.08,0.98-0.08c0.77,0,1.43,0.11,1.97,0.32c0.55,0.21,0.99,0.5,1.34,0.85
			c0.35,0.36,0.6,0.77,0.77,1.23C210.98,496.73,211.06,497.22,211.06,497.73z M208.17,506.1c0,0.27-0.02,0.49-0.06,0.67
			c-0.04,0.18-0.12,0.33-0.22,0.44c-0.11,0.11-0.25,0.19-0.43,0.24c-0.18,0.05-0.4,0.07-0.66,0.07c-0.27,0-0.5-0.02-0.67-0.07
			s-0.32-0.13-0.42-0.24c-0.11-0.11-0.18-0.26-0.22-0.44c-0.04-0.18-0.06-0.41-0.06-0.67c0-0.27,0.02-0.5,0.06-0.69
			c0.04-0.19,0.12-0.34,0.22-0.45c0.11-0.11,0.25-0.2,0.42-0.24s0.4-0.07,0.67-0.07c0.26,0,0.48,0.02,0.66,0.07
			c0.18,0.05,0.32,0.13,0.43,0.24c0.11,0.11,0.18,0.26,0.22,0.45C208.15,505.6,208.17,505.83,208.17,506.1z"/>
	</g>
</g>
<path class="st11" d="M274.71,441.42H34.3v-35.8c0-3.88,3.15-7.03,7.03-7.03h233.38c3.88,0,7.03,3.15,7.03,7.03v28.77
	C281.74,438.28,278.59,441.42,274.71,441.42z"/>
<linearGradient id="SVGID_2_" gradientUnits="userSpaceOnUse" x1="34.2996" y1="414.6011" x2="281.7353" y2="414.6011">
	<stop  offset="0" style="stop-color:#209E76"/>
	<stop  offset="0.0614" style="stop-color:#1D9670"/>
	<stop  offset="0.21" style="stop-color:#188B67"/>
	<stop  offset="0.4192" style="stop-color:#158461"/>
	<stop  offset="1" style="stop-color:#148260"/>
</linearGradient>
<path class="st12" d="M274.71,436.01H34.3v-35.8c0-3.88,3.15-7.03,7.03-7.03h233.38c3.88,0,7.03,3.15,7.03,7.03v28.77
	C281.74,432.87,278.59,436.01,274.71,436.01z"/>
<g>
	<path class="st5" d="M140.78,420.95c0,0.24-0.01,0.43-0.03,0.59c-0.02,0.16-0.05,0.29-0.09,0.38c-0.04,0.1-0.09,0.17-0.15,0.21
		c-0.06,0.04-0.13,0.07-0.2,0.07h-7.93c-0.27,0-0.49-0.08-0.68-0.24c-0.18-0.16-0.28-0.42-0.28-0.78v-13.77
		c0-0.36,0.09-0.62,0.28-0.77c0.18-0.16,0.41-0.24,0.68-0.24h7.89c0.07,0,0.14,0.02,0.2,0.06c0.06,0.04,0.11,0.11,0.15,0.21
		c0.04,0.1,0.07,0.23,0.09,0.39c0.02,0.16,0.03,0.36,0.03,0.6c0,0.23-0.01,0.42-0.03,0.58c-0.02,0.16-0.05,0.29-0.09,0.38
		s-0.09,0.17-0.15,0.21c-0.06,0.04-0.12,0.07-0.2,0.07h-5.64v3.86h4.77c0.07,0,0.14,0.02,0.2,0.07c0.06,0.04,0.11,0.11,0.15,0.21
		c0.04,0.09,0.07,0.22,0.09,0.38c0.02,0.16,0.03,0.35,0.03,0.58c0,0.24-0.01,0.43-0.03,0.59c-0.02,0.16-0.05,0.28-0.09,0.37
		s-0.09,0.16-0.15,0.2c-0.06,0.04-0.13,0.06-0.2,0.06h-4.77v4.46h5.69c0.07,0,0.14,0.02,0.2,0.07c0.06,0.04,0.11,0.12,0.15,0.21
		c0.04,0.1,0.07,0.23,0.09,0.38C140.77,420.52,140.78,420.72,140.78,420.95z"/>
	<path class="st5" d="M153.83,421.79c0,0.08-0.02,0.15-0.07,0.21c-0.05,0.06-0.13,0.11-0.24,0.15s-0.27,0.07-0.47,0.09
		c-0.2,0.02-0.45,0.03-0.74,0.03c-0.3,0-0.55-0.01-0.75-0.03c-0.2-0.02-0.36-0.05-0.47-0.09c-0.11-0.04-0.2-0.09-0.24-0.15
		c-0.05-0.06-0.07-0.13-0.07-0.21v-6.21c0-0.53-0.04-0.94-0.12-1.24c-0.08-0.3-0.19-0.56-0.34-0.78s-0.34-0.38-0.57-0.5
		c-0.23-0.12-0.5-0.18-0.81-0.18c-0.39,0-0.79,0.14-1.18,0.43c-0.4,0.28-0.81,0.7-1.25,1.24v7.24c0,0.08-0.02,0.15-0.07,0.21
		c-0.05,0.06-0.13,0.11-0.25,0.15s-0.27,0.07-0.47,0.09c-0.2,0.02-0.44,0.03-0.75,0.03s-0.55-0.01-0.74-0.03
		c-0.2-0.02-0.35-0.05-0.47-0.09c-0.12-0.04-0.2-0.09-0.25-0.15c-0.05-0.06-0.07-0.13-0.07-0.21v-10.89c0-0.08,0.02-0.15,0.06-0.21
		c0.04-0.06,0.11-0.11,0.22-0.15c0.11-0.04,0.24-0.07,0.41-0.09c0.17-0.02,0.38-0.03,0.63-0.03c0.26,0,0.48,0.01,0.65,0.03
		c0.17,0.02,0.3,0.05,0.4,0.09s0.16,0.09,0.2,0.15c0.04,0.06,0.06,0.13,0.06,0.21v1.26c0.6-0.65,1.21-1.14,1.84-1.46
		c0.62-0.33,1.27-0.49,1.95-0.49c0.74,0,1.37,0.12,1.87,0.37c0.51,0.24,0.92,0.58,1.23,0.99c0.31,0.42,0.54,0.91,0.68,1.47
		c0.14,0.56,0.21,1.24,0.21,2.03V421.79z"/>
	<path class="st5" d="M163.06,420.72c0,0.36-0.02,0.63-0.07,0.82c-0.04,0.19-0.1,0.33-0.18,0.4c-0.07,0.08-0.18,0.15-0.32,0.21
		c-0.14,0.06-0.31,0.11-0.5,0.16c-0.19,0.04-0.4,0.08-0.62,0.1c-0.22,0.03-0.45,0.04-0.68,0.04c-0.61,0-1.14-0.08-1.59-0.23
		c-0.45-0.15-0.82-0.39-1.11-0.71c-0.29-0.32-0.51-0.73-0.65-1.21s-0.21-1.07-0.21-1.73v-5.58h-1.31c-0.15,0-0.27-0.1-0.35-0.29
		c-0.08-0.19-0.12-0.51-0.12-0.96c0-0.24,0.01-0.44,0.03-0.6c0.02-0.16,0.05-0.29,0.09-0.38c0.04-0.09,0.09-0.16,0.15-0.2
		c0.06-0.04,0.13-0.06,0.21-0.06h1.29v-2.43c0-0.08,0.02-0.15,0.07-0.22c0.04-0.07,0.13-0.12,0.24-0.17
		c0.12-0.04,0.28-0.08,0.48-0.1s0.45-0.03,0.74-0.03c0.3,0,0.55,0.01,0.75,0.03s0.36,0.05,0.47,0.1s0.2,0.1,0.24,0.17
		c0.05,0.06,0.07,0.14,0.07,0.22v2.43h2.37c0.08,0,0.15,0.02,0.21,0.06c0.06,0.04,0.11,0.11,0.15,0.2s0.07,0.22,0.09,0.38
		c0.02,0.16,0.03,0.36,0.03,0.6c0,0.45-0.04,0.77-0.12,0.96c-0.08,0.19-0.2,0.29-0.35,0.29h-2.38v5.12c0,0.59,0.09,1.04,0.28,1.34
		c0.19,0.3,0.52,0.45,1,0.45c0.16,0,0.31-0.01,0.44-0.04c0.13-0.03,0.25-0.06,0.35-0.1c0.1-0.04,0.19-0.07,0.26-0.1
		c0.07-0.03,0.13-0.04,0.19-0.04c0.05,0,0.1,0.01,0.14,0.04s0.08,0.08,0.1,0.17c0.02,0.08,0.05,0.2,0.07,0.35
		S163.06,420.49,163.06,420.72z"/>
	<path class="st5" d="M172.28,411.92c0,0.29-0.01,0.53-0.02,0.72c-0.02,0.19-0.04,0.33-0.07,0.44c-0.03,0.11-0.08,0.18-0.13,0.22
		c-0.05,0.04-0.12,0.06-0.2,0.06c-0.07,0-0.14-0.01-0.22-0.04s-0.17-0.06-0.27-0.09s-0.21-0.06-0.34-0.09
		c-0.12-0.03-0.26-0.04-0.4-0.04c-0.17,0-0.34,0.04-0.51,0.1s-0.35,0.18-0.53,0.32c-0.18,0.15-0.37,0.34-0.57,0.59
		c-0.2,0.24-0.41,0.54-0.64,0.9v6.79c0,0.08-0.02,0.15-0.07,0.21c-0.05,0.06-0.13,0.11-0.25,0.15s-0.27,0.07-0.47,0.09
		c-0.2,0.02-0.44,0.03-0.75,0.03s-0.55-0.01-0.74-0.03c-0.2-0.02-0.35-0.05-0.47-0.09c-0.12-0.04-0.2-0.09-0.25-0.15
		c-0.05-0.06-0.07-0.13-0.07-0.21v-10.89c0-0.08,0.02-0.15,0.06-0.21c0.04-0.06,0.11-0.11,0.22-0.15c0.11-0.04,0.24-0.07,0.41-0.09
		c0.17-0.02,0.38-0.03,0.63-0.03c0.26,0,0.48,0.01,0.65,0.03c0.17,0.02,0.3,0.05,0.4,0.09s0.16,0.09,0.2,0.15
		c0.04,0.06,0.06,0.13,0.06,0.21v1.35c0.28-0.41,0.55-0.74,0.81-1.01c0.25-0.26,0.49-0.47,0.72-0.63c0.23-0.16,0.46-0.26,0.68-0.32
		c0.23-0.06,0.46-0.09,0.68-0.09c0.11,0,0.22,0.01,0.34,0.02c0.12,0.01,0.25,0.03,0.38,0.06c0.13,0.03,0.24,0.06,0.34,0.1
		c0.1,0.04,0.17,0.08,0.21,0.12c0.04,0.04,0.08,0.09,0.1,0.13c0.02,0.05,0.04,0.12,0.06,0.2c0.02,0.09,0.03,0.21,0.04,0.38
		S172.28,411.63,172.28,411.92z"/>
	<path class="st5" d="M182.9,421.83c0,0.11-0.04,0.2-0.12,0.27c-0.08,0.06-0.21,0.11-0.38,0.14s-0.43,0.04-0.78,0.04
		c-0.37,0-0.63-0.01-0.8-0.04c-0.17-0.03-0.29-0.08-0.35-0.14c-0.07-0.07-0.1-0.16-0.1-0.27v-0.87c-0.45,0.48-0.96,0.85-1.53,1.12
		c-0.57,0.27-1.21,0.4-1.91,0.4c-0.58,0-1.11-0.08-1.59-0.23c-0.48-0.15-0.9-0.37-1.26-0.67c-0.35-0.3-0.63-0.67-0.82-1.1
		s-0.29-0.95-0.29-1.54c0-0.63,0.12-1.19,0.37-1.65c0.25-0.47,0.62-0.85,1.11-1.16c0.49-0.3,1.1-0.53,1.84-0.68s1.58-0.22,2.55-0.22
		h1.06v-0.66c0-0.34-0.03-0.64-0.1-0.9c-0.07-0.26-0.18-0.47-0.34-0.64c-0.16-0.17-0.37-0.3-0.63-0.38s-0.59-0.12-0.98-0.12
		c-0.51,0-0.97,0.06-1.37,0.17c-0.4,0.11-0.76,0.24-1.07,0.38c-0.31,0.14-0.57,0.26-0.78,0.38c-0.21,0.11-0.38,0.17-0.51,0.17
		c-0.09,0-0.17-0.03-0.24-0.08c-0.07-0.06-0.13-0.14-0.17-0.24c-0.04-0.11-0.08-0.24-0.1-0.39c-0.02-0.16-0.04-0.33-0.04-0.51
		c0-0.25,0.02-0.45,0.06-0.6s0.12-0.28,0.23-0.4c0.11-0.12,0.31-0.25,0.6-0.39s0.62-0.28,1-0.4c0.38-0.12,0.8-0.22,1.25-0.3
		c0.45-0.08,0.92-0.12,1.4-0.12c0.85,0,1.58,0.08,2.19,0.25c0.61,0.17,1.1,0.42,1.5,0.77c0.39,0.35,0.67,0.79,0.85,1.34
		c0.18,0.54,0.27,1.19,0.27,1.94V421.83z M179.88,417.17h-1.17c-0.5,0-0.92,0.04-1.27,0.11s-0.63,0.18-0.85,0.33
		s-0.38,0.32-0.48,0.53c-0.1,0.21-0.15,0.45-0.15,0.71c0,0.46,0.14,0.81,0.43,1.07c0.29,0.26,0.69,0.39,1.2,0.39
		c0.43,0,0.83-0.11,1.19-0.33s0.73-0.54,1.1-0.96V417.17z"/>
	<path class="st5" d="M192.95,411.92c0,0.29-0.01,0.53-0.03,0.72c-0.02,0.19-0.04,0.33-0.07,0.44c-0.03,0.11-0.08,0.18-0.13,0.22
		s-0.12,0.06-0.2,0.06c-0.07,0-0.14-0.01-0.22-0.04s-0.17-0.06-0.27-0.09s-0.21-0.06-0.34-0.09c-0.12-0.03-0.26-0.04-0.4-0.04
		c-0.17,0-0.34,0.04-0.51,0.1s-0.35,0.18-0.53,0.32c-0.18,0.15-0.37,0.34-0.57,0.59c-0.2,0.24-0.41,0.54-0.64,0.9v6.79
		c0,0.08-0.02,0.15-0.07,0.21c-0.05,0.06-0.13,0.11-0.25,0.15s-0.27,0.07-0.47,0.09c-0.2,0.02-0.44,0.03-0.75,0.03
		s-0.55-0.01-0.74-0.03c-0.2-0.02-0.35-0.05-0.47-0.09c-0.12-0.04-0.2-0.09-0.25-0.15c-0.05-0.06-0.07-0.13-0.07-0.21v-10.89
		c0-0.08,0.02-0.15,0.06-0.21c0.04-0.06,0.11-0.11,0.22-0.15c0.11-0.04,0.24-0.07,0.41-0.09c0.17-0.02,0.38-0.03,0.63-0.03
		c0.26,0,0.48,0.01,0.65,0.03c0.17,0.02,0.3,0.05,0.4,0.09s0.16,0.09,0.2,0.15c0.04,0.06,0.06,0.13,0.06,0.21v1.35
		c0.28-0.41,0.55-0.74,0.81-1.01c0.25-0.26,0.49-0.47,0.72-0.63c0.23-0.16,0.46-0.26,0.68-0.32c0.23-0.06,0.46-0.09,0.68-0.09
		c0.11,0,0.22,0.01,0.34,0.02c0.12,0.01,0.25,0.03,0.38,0.06c0.13,0.03,0.24,0.06,0.34,0.1c0.1,0.04,0.17,0.08,0.21,0.12
		c0.04,0.04,0.08,0.09,0.1,0.13s0.04,0.12,0.06,0.2c0.02,0.09,0.03,0.21,0.04,0.38S192.95,411.63,192.95,411.92z"/>
</g>
<path class="st0" d="M274.71,562.03H34.3v-35.8c0-3.88,3.15-7.03,7.03-7.03h233.38c3.88,0,7.03,3.15,7.03,7.03V555
	C281.74,558.88,278.59,562.03,274.71,562.03z"/>
<path class="st13" d="M274.71,556.62H34.3v-35.8c0-3.88,3.15-7.03,7.03-7.03h233.38c3.88,0,7.03,3.15,7.03,7.03v28.77
	C281.74,553.47,278.59,556.62,274.71,556.62z"/>
<g>
	<g>
		<path class="st6" d="M121.4,541.42c0,0.2-0.01,0.38-0.02,0.52c-0.01,0.14-0.03,0.26-0.05,0.37c-0.02,0.1-0.06,0.19-0.1,0.26
			c-0.04,0.07-0.11,0.16-0.2,0.25c-0.09,0.09-0.26,0.21-0.52,0.36c-0.26,0.15-0.57,0.29-0.94,0.42c-0.37,0.13-0.79,0.25-1.27,0.34
			c-0.48,0.09-0.99,0.13-1.54,0.13c-1.08,0-2.06-0.17-2.93-0.5c-0.87-0.33-1.61-0.83-2.22-1.5s-1.08-1.49-1.4-2.48
			s-0.49-2.15-0.49-3.47c0-1.34,0.18-2.54,0.54-3.58c0.36-1.04,0.86-1.92,1.5-2.62c0.64-0.71,1.41-1.25,2.31-1.61
			c0.9-0.37,1.89-0.55,2.97-0.55c0.44,0,0.86,0.04,1.27,0.11s0.78,0.17,1.13,0.29c0.35,0.12,0.66,0.25,0.93,0.41
			c0.28,0.15,0.47,0.29,0.58,0.4c0.11,0.11,0.18,0.2,0.23,0.27c0.04,0.07,0.07,0.17,0.1,0.28c0.02,0.11,0.04,0.25,0.05,0.4
			c0.01,0.15,0.02,0.35,0.02,0.57c0,0.24-0.01,0.45-0.02,0.62c-0.02,0.17-0.04,0.31-0.09,0.42s-0.09,0.18-0.15,0.23
			s-0.12,0.07-0.2,0.07c-0.12,0-0.28-0.07-0.46-0.21s-0.43-0.3-0.73-0.48c-0.3-0.17-0.65-0.33-1.06-0.48s-0.9-0.21-1.47-0.21
			c-0.63,0-1.19,0.13-1.68,0.38c-0.49,0.26-0.91,0.62-1.26,1.1c-0.35,0.48-0.61,1.05-0.79,1.73c-0.18,0.68-0.27,1.44-0.27,2.28
			c0,0.93,0.1,1.73,0.29,2.41s0.46,1.24,0.82,1.68c0.35,0.44,0.78,0.77,1.28,0.98c0.5,0.22,1.06,0.32,1.69,0.32
			c0.57,0,1.06-0.07,1.48-0.2c0.42-0.13,0.77-0.28,1.07-0.45c0.3-0.16,0.54-0.31,0.73-0.44c0.19-0.13,0.34-0.2,0.45-0.2
			c0.08,0,0.15,0.02,0.2,0.05c0.05,0.03,0.09,0.1,0.12,0.2c0.03,0.1,0.06,0.23,0.07,0.41C121.39,540.89,121.4,541.13,121.4,541.42z"
			/>
		<path class="st6" d="M132.8,543.43c0,0.11-0.04,0.2-0.12,0.27c-0.08,0.06-0.21,0.11-0.38,0.14s-0.43,0.04-0.78,0.04
			c-0.37,0-0.63-0.01-0.8-0.04c-0.17-0.03-0.29-0.08-0.35-0.14c-0.07-0.07-0.1-0.16-0.1-0.27v-0.87c-0.45,0.48-0.96,0.85-1.53,1.12
			c-0.57,0.27-1.21,0.4-1.91,0.4c-0.58,0-1.11-0.08-1.59-0.23c-0.48-0.15-0.9-0.37-1.26-0.67c-0.35-0.3-0.63-0.67-0.82-1.1
			s-0.29-0.95-0.29-1.54c0-0.63,0.12-1.19,0.37-1.65c0.25-0.47,0.62-0.85,1.11-1.16c0.49-0.3,1.1-0.53,1.84-0.68
			s1.58-0.22,2.55-0.22h1.06v-0.66c0-0.34-0.03-0.64-0.1-0.9c-0.07-0.26-0.18-0.47-0.34-0.64c-0.16-0.17-0.37-0.3-0.63-0.38
			s-0.59-0.12-0.98-0.12c-0.51,0-0.97,0.06-1.37,0.17c-0.4,0.11-0.76,0.24-1.07,0.38c-0.31,0.14-0.57,0.26-0.78,0.38
			c-0.21,0.11-0.38,0.17-0.51,0.17c-0.09,0-0.17-0.03-0.24-0.08c-0.07-0.06-0.13-0.14-0.17-0.24c-0.04-0.11-0.08-0.24-0.1-0.39
			c-0.02-0.16-0.04-0.33-0.04-0.51c0-0.25,0.02-0.45,0.06-0.6s0.12-0.28,0.23-0.4c0.11-0.12,0.31-0.25,0.6-0.39s0.62-0.28,1-0.4
			c0.38-0.12,0.8-0.22,1.25-0.3c0.45-0.08,0.92-0.12,1.4-0.12c0.85,0,1.58,0.08,2.19,0.25c0.61,0.17,1.1,0.42,1.5,0.77
			c0.39,0.35,0.67,0.79,0.85,1.34c0.18,0.54,0.27,1.19,0.27,1.94V543.43z M129.78,538.77h-1.17c-0.5,0-0.92,0.04-1.27,0.11
			s-0.63,0.18-0.85,0.33s-0.38,0.32-0.48,0.53c-0.1,0.21-0.15,0.45-0.15,0.71c0,0.46,0.14,0.81,0.43,1.07
			c0.29,0.26,0.69,0.39,1.2,0.39c0.43,0,0.83-0.11,1.19-0.33s0.73-0.54,1.1-0.96V538.77z"/>
		<path class="st6" d="M146.19,543.4c0,0.09-0.02,0.17-0.06,0.23c-0.04,0.06-0.11,0.11-0.21,0.15c-0.1,0.04-0.23,0.07-0.4,0.09
			s-0.37,0.02-0.62,0.02c-0.26,0-0.47-0.01-0.63-0.02c-0.16-0.02-0.29-0.04-0.4-0.09c-0.1-0.04-0.17-0.09-0.22-0.15
			c-0.04-0.06-0.07-0.14-0.07-0.23v-1.21c-0.56,0.6-1.15,1.07-1.76,1.4c-0.61,0.33-1.3,0.5-2.04,0.5c-0.83,0-1.53-0.16-2.11-0.48
			c-0.57-0.32-1.04-0.75-1.4-1.3c-0.36-0.54-0.63-1.18-0.79-1.91c-0.16-0.73-0.24-1.5-0.24-2.3c0-0.97,0.1-1.84,0.31-2.61
			c0.21-0.77,0.51-1.43,0.91-1.98c0.4-0.54,0.89-0.96,1.49-1.26c0.59-0.29,1.28-0.44,2.05-0.44c0.61,0,1.16,0.13,1.66,0.37
			c0.5,0.25,0.99,0.61,1.48,1.09v-5.9c0-0.08,0.02-0.15,0.07-0.22s0.13-0.12,0.24-0.17c0.12-0.04,0.27-0.08,0.47-0.1
			s0.44-0.04,0.75-0.04c0.3,0,0.55,0.01,0.74,0.04s0.35,0.06,0.46,0.1c0.11,0.04,0.2,0.1,0.24,0.17s0.07,0.14,0.07,0.22V543.4z
			 M143.14,536.12c-0.44-0.55-0.86-0.98-1.26-1.27c-0.4-0.29-0.82-0.44-1.26-0.44c-0.4,0-0.74,0.1-1.03,0.3
			c-0.29,0.2-0.52,0.47-0.7,0.8s-0.31,0.71-0.39,1.12c-0.09,0.41-0.13,0.83-0.13,1.26c0,0.46,0.04,0.9,0.11,1.33
			s0.19,0.82,0.36,1.15c0.17,0.34,0.39,0.61,0.67,0.81c0.28,0.2,0.63,0.31,1.05,0.31c0.21,0,0.42-0.03,0.62-0.09
			c0.2-0.06,0.4-0.16,0.61-0.3c0.21-0.14,0.42-0.32,0.64-0.54s0.46-0.5,0.72-0.82V536.12z"/>
		<path class="st6" d="M158.55,543.43c0,0.11-0.04,0.2-0.12,0.27c-0.08,0.06-0.21,0.11-0.38,0.14s-0.43,0.04-0.78,0.04
			c-0.37,0-0.63-0.01-0.8-0.04c-0.17-0.03-0.29-0.08-0.35-0.14c-0.07-0.07-0.1-0.16-0.1-0.27v-0.87c-0.45,0.48-0.96,0.85-1.53,1.12
			c-0.57,0.27-1.21,0.4-1.91,0.4c-0.58,0-1.11-0.08-1.59-0.23c-0.48-0.15-0.9-0.37-1.26-0.67c-0.35-0.3-0.63-0.67-0.82-1.1
			s-0.29-0.95-0.29-1.54c0-0.63,0.12-1.19,0.37-1.65c0.25-0.47,0.62-0.85,1.11-1.16c0.49-0.3,1.1-0.53,1.84-0.68
			s1.58-0.22,2.55-0.22h1.06v-0.66c0-0.34-0.03-0.64-0.1-0.9c-0.07-0.26-0.18-0.47-0.34-0.64c-0.16-0.17-0.37-0.3-0.63-0.38
			s-0.59-0.12-0.98-0.12c-0.51,0-0.97,0.06-1.37,0.17c-0.4,0.11-0.76,0.24-1.07,0.38c-0.31,0.14-0.57,0.26-0.78,0.38
			c-0.21,0.11-0.38,0.17-0.51,0.17c-0.09,0-0.17-0.03-0.24-0.08c-0.07-0.06-0.13-0.14-0.17-0.24c-0.04-0.11-0.08-0.24-0.1-0.39
			c-0.02-0.16-0.04-0.33-0.04-0.51c0-0.25,0.02-0.45,0.06-0.6s0.12-0.28,0.23-0.4c0.11-0.12,0.31-0.25,0.6-0.39s0.62-0.28,1-0.4
			c0.38-0.12,0.8-0.22,1.25-0.3c0.45-0.08,0.92-0.12,1.4-0.12c0.85,0,1.58,0.08,2.19,0.25c0.61,0.17,1.1,0.42,1.5,0.77
			c0.39,0.35,0.67,0.79,0.85,1.34c0.18,0.54,0.27,1.19,0.27,1.94V543.43z M155.54,538.77h-1.17c-0.5,0-0.92,0.04-1.27,0.11
			s-0.63,0.18-0.85,0.33s-0.38,0.32-0.48,0.53c-0.1,0.21-0.15,0.45-0.15,0.71c0,0.46,0.14,0.81,0.43,1.07
			c0.29,0.26,0.69,0.39,1.2,0.39c0.43,0,0.83-0.11,1.19-0.33s0.73-0.54,1.1-0.96V538.77z"/>
		<path class="st6" d="M169.28,540.32c0,0.62-0.12,1.16-0.35,1.64c-0.23,0.47-0.56,0.87-0.98,1.18c-0.42,0.32-0.92,0.56-1.5,0.71
			c-0.58,0.16-1.2,0.24-1.88,0.24c-0.41,0-0.79-0.03-1.17-0.09c-0.37-0.06-0.7-0.14-0.99-0.23c-0.29-0.09-0.54-0.19-0.73-0.29
			s-0.34-0.19-0.43-0.27c-0.09-0.08-0.16-0.22-0.21-0.4c-0.05-0.18-0.07-0.45-0.07-0.81c0-0.24,0.01-0.43,0.02-0.57
			c0.02-0.14,0.04-0.26,0.07-0.34c0.03-0.08,0.07-0.14,0.12-0.17c0.05-0.03,0.11-0.04,0.18-0.04c0.09,0,0.22,0.05,0.4,0.15
			c0.18,0.1,0.39,0.21,0.65,0.34c0.26,0.12,0.56,0.24,0.91,0.34c0.35,0.11,0.74,0.16,1.18,0.16c0.28,0,0.52-0.03,0.74-0.09
			c0.22-0.06,0.4-0.14,0.56-0.24c0.16-0.11,0.28-0.24,0.36-0.4c0.08-0.16,0.12-0.35,0.12-0.56c0-0.24-0.08-0.45-0.23-0.63
			c-0.15-0.17-0.35-0.33-0.6-0.46c-0.25-0.13-0.53-0.25-0.84-0.37c-0.31-0.11-0.63-0.24-0.96-0.38c-0.33-0.14-0.65-0.3-0.96-0.48
			c-0.31-0.18-0.59-0.4-0.84-0.66c-0.25-0.26-0.45-0.57-0.6-0.94c-0.15-0.37-0.23-0.81-0.23-1.32c0-0.52,0.1-1,0.31-1.43
			c0.2-0.43,0.5-0.81,0.88-1.12c0.38-0.31,0.85-0.55,1.4-0.72c0.55-0.17,1.17-0.26,1.85-0.26c0.34,0,0.67,0.03,0.99,0.07
			c0.32,0.05,0.61,0.11,0.87,0.18s0.48,0.15,0.66,0.24c0.18,0.08,0.31,0.16,0.38,0.22c0.08,0.06,0.13,0.12,0.17,0.18
			c0.03,0.06,0.06,0.13,0.07,0.22c0.02,0.09,0.03,0.19,0.04,0.32c0.01,0.13,0.02,0.28,0.02,0.47c0,0.22-0.01,0.4-0.02,0.54
			c-0.01,0.14-0.03,0.25-0.06,0.33s-0.07,0.14-0.12,0.17s-0.11,0.04-0.17,0.04c-0.07,0-0.19-0.04-0.34-0.13
			c-0.15-0.08-0.35-0.18-0.58-0.27c-0.23-0.1-0.5-0.19-0.81-0.27c-0.3-0.09-0.65-0.13-1.04-0.13c-0.28,0-0.52,0.03-0.72,0.08
			s-0.37,0.14-0.5,0.24c-0.13,0.11-0.23,0.23-0.29,0.37c-0.07,0.14-0.1,0.29-0.1,0.46c0,0.25,0.08,0.46,0.23,0.63
			s0.36,0.32,0.61,0.45c0.25,0.13,0.54,0.25,0.86,0.37c0.32,0.11,0.65,0.24,0.98,0.37c0.33,0.13,0.66,0.29,0.98,0.47
			c0.32,0.18,0.61,0.4,0.86,0.66c0.25,0.26,0.46,0.57,0.61,0.93C169.21,539.4,169.28,539.83,169.28,540.32z"/>
		<path class="st6" d="M177.76,542.32c0,0.36-0.02,0.63-0.07,0.82s-0.1,0.33-0.18,0.4c-0.07,0.08-0.18,0.15-0.32,0.21
			c-0.14,0.06-0.31,0.11-0.5,0.16s-0.4,0.08-0.62,0.1c-0.22,0.03-0.45,0.04-0.68,0.04c-0.61,0-1.14-0.08-1.59-0.23
			c-0.45-0.15-0.82-0.39-1.11-0.71c-0.29-0.32-0.51-0.73-0.65-1.21s-0.21-1.07-0.21-1.73v-5.58h-1.31c-0.15,0-0.27-0.1-0.35-0.29
			c-0.08-0.19-0.12-0.51-0.12-0.96c0-0.24,0.01-0.44,0.03-0.6c0.02-0.16,0.05-0.29,0.09-0.38c0.04-0.09,0.09-0.16,0.15-0.2
			c0.06-0.04,0.13-0.06,0.21-0.06h1.29v-2.43c0-0.08,0.02-0.15,0.07-0.22c0.04-0.07,0.13-0.12,0.24-0.17s0.28-0.08,0.48-0.1
			c0.2-0.02,0.45-0.03,0.74-0.03c0.3,0,0.55,0.01,0.75,0.03c0.2,0.02,0.36,0.05,0.47,0.1s0.2,0.1,0.24,0.17
			c0.05,0.06,0.07,0.14,0.07,0.22v2.43h2.37c0.08,0,0.15,0.02,0.21,0.06c0.06,0.04,0.11,0.11,0.15,0.2s0.07,0.22,0.09,0.38
			c0.02,0.16,0.03,0.36,0.03,0.6c0,0.45-0.04,0.77-0.12,0.96c-0.08,0.19-0.2,0.29-0.35,0.29h-2.38v5.12c0,0.59,0.09,1.04,0.28,1.34
			c0.19,0.3,0.52,0.45,1,0.45c0.16,0,0.31-0.01,0.44-0.04c0.13-0.03,0.25-0.06,0.35-0.1c0.1-0.04,0.19-0.07,0.26-0.1
			s0.13-0.04,0.19-0.04c0.05,0,0.1,0.01,0.14,0.04c0.04,0.03,0.08,0.08,0.1,0.17c0.02,0.08,0.05,0.2,0.07,0.35
			C177.75,541.91,177.76,542.1,177.76,542.32z"/>
		<path class="st6" d="M186.97,533.52c0,0.29-0.01,0.53-0.03,0.72c-0.02,0.19-0.04,0.33-0.07,0.44c-0.03,0.11-0.08,0.18-0.13,0.22
			s-0.12,0.06-0.2,0.06c-0.07,0-0.14-0.01-0.22-0.04s-0.17-0.06-0.27-0.09c-0.1-0.03-0.21-0.06-0.34-0.09
			c-0.12-0.03-0.26-0.04-0.4-0.04c-0.17,0-0.34,0.04-0.51,0.1c-0.17,0.07-0.35,0.18-0.53,0.32c-0.18,0.15-0.38,0.34-0.57,0.59
			s-0.41,0.54-0.64,0.9v6.79c0,0.08-0.02,0.15-0.07,0.21c-0.05,0.06-0.13,0.11-0.25,0.15c-0.12,0.04-0.28,0.07-0.47,0.09
			c-0.2,0.02-0.44,0.03-0.74,0.03s-0.55-0.01-0.74-0.03c-0.2-0.02-0.35-0.05-0.47-0.09s-0.2-0.09-0.25-0.15
			c-0.05-0.06-0.07-0.13-0.07-0.21v-10.89c0-0.08,0.02-0.15,0.06-0.21c0.04-0.06,0.11-0.11,0.22-0.15c0.11-0.04,0.24-0.07,0.41-0.09
			c0.17-0.02,0.38-0.03,0.63-0.03c0.26,0,0.48,0.01,0.65,0.03c0.17,0.02,0.3,0.05,0.4,0.09c0.09,0.04,0.16,0.09,0.2,0.15
			c0.04,0.06,0.06,0.13,0.06,0.21v1.35c0.29-0.41,0.55-0.74,0.81-1.01c0.25-0.26,0.49-0.47,0.72-0.63c0.23-0.16,0.46-0.26,0.68-0.32
			c0.23-0.06,0.46-0.09,0.68-0.09c0.11,0,0.22,0.01,0.34,0.02c0.12,0.01,0.25,0.03,0.38,0.06c0.13,0.03,0.24,0.06,0.34,0.1
			c0.1,0.04,0.17,0.08,0.21,0.12c0.04,0.04,0.08,0.09,0.1,0.13s0.04,0.12,0.06,0.2c0.02,0.09,0.03,0.21,0.04,0.38
			S186.97,533.23,186.97,533.52z"/>
		<path class="st6" d="M197.59,543.43c0,0.11-0.04,0.2-0.12,0.27c-0.08,0.06-0.21,0.11-0.38,0.14s-0.43,0.04-0.78,0.04
			c-0.37,0-0.63-0.01-0.8-0.04c-0.17-0.03-0.29-0.08-0.35-0.14c-0.07-0.07-0.1-0.16-0.1-0.27v-0.87c-0.45,0.48-0.96,0.85-1.53,1.12
			c-0.57,0.27-1.21,0.4-1.91,0.4c-0.58,0-1.11-0.08-1.59-0.23c-0.48-0.15-0.9-0.37-1.26-0.67c-0.35-0.3-0.63-0.67-0.82-1.1
			s-0.29-0.95-0.29-1.54c0-0.63,0.12-1.19,0.37-1.65c0.25-0.47,0.62-0.85,1.11-1.16c0.49-0.3,1.11-0.53,1.84-0.68
			s1.58-0.22,2.55-0.22h1.06v-0.66c0-0.34-0.04-0.64-0.1-0.9c-0.07-0.26-0.18-0.47-0.34-0.64c-0.16-0.17-0.37-0.3-0.63-0.38
			s-0.59-0.12-0.98-0.12c-0.51,0-0.97,0.06-1.37,0.17c-0.4,0.11-0.76,0.24-1.07,0.38c-0.31,0.14-0.57,0.26-0.78,0.38
			c-0.21,0.11-0.38,0.17-0.51,0.17c-0.09,0-0.17-0.03-0.24-0.08c-0.07-0.06-0.13-0.14-0.17-0.24c-0.04-0.11-0.08-0.24-0.1-0.39
			c-0.03-0.16-0.04-0.33-0.04-0.51c0-0.25,0.02-0.45,0.06-0.6c0.04-0.15,0.12-0.28,0.23-0.4s0.31-0.25,0.6-0.39
			c0.29-0.14,0.62-0.28,1-0.4c0.38-0.12,0.8-0.22,1.25-0.3c0.45-0.08,0.92-0.12,1.4-0.12c0.85,0,1.58,0.08,2.19,0.25
			c0.61,0.17,1.1,0.42,1.5,0.77c0.39,0.35,0.68,0.79,0.85,1.34s0.27,1.19,0.27,1.94V543.43z M194.58,538.77h-1.17
			c-0.5,0-0.92,0.04-1.27,0.11c-0.35,0.07-0.63,0.18-0.86,0.33c-0.22,0.15-0.38,0.32-0.48,0.53c-0.1,0.21-0.15,0.45-0.15,0.71
			c0,0.46,0.14,0.81,0.43,1.07c0.29,0.26,0.69,0.39,1.2,0.39c0.43,0,0.83-0.11,1.19-0.33s0.73-0.54,1.11-0.96V538.77z"/>
		<path class="st6" d="M207.65,533.52c0,0.29-0.01,0.53-0.03,0.72c-0.02,0.19-0.04,0.33-0.07,0.44c-0.03,0.11-0.08,0.18-0.13,0.22
			s-0.12,0.06-0.2,0.06c-0.07,0-0.14-0.01-0.22-0.04s-0.17-0.06-0.27-0.09c-0.1-0.03-0.21-0.06-0.34-0.09
			c-0.12-0.03-0.26-0.04-0.4-0.04c-0.17,0-0.34,0.04-0.51,0.1c-0.17,0.07-0.35,0.18-0.53,0.32c-0.18,0.15-0.38,0.34-0.57,0.59
			s-0.41,0.54-0.64,0.9v6.79c0,0.08-0.02,0.15-0.07,0.21c-0.05,0.06-0.13,0.11-0.25,0.15c-0.12,0.04-0.28,0.07-0.47,0.09
			c-0.2,0.02-0.44,0.03-0.74,0.03s-0.55-0.01-0.74-0.03c-0.2-0.02-0.35-0.05-0.47-0.09s-0.2-0.09-0.25-0.15
			c-0.05-0.06-0.07-0.13-0.07-0.21v-10.89c0-0.08,0.02-0.15,0.06-0.21c0.04-0.06,0.11-0.11,0.22-0.15c0.11-0.04,0.24-0.07,0.41-0.09
			c0.17-0.02,0.38-0.03,0.63-0.03c0.26,0,0.48,0.01,0.65,0.03c0.17,0.02,0.3,0.05,0.4,0.09c0.09,0.04,0.16,0.09,0.2,0.15
			c0.04,0.06,0.06,0.13,0.06,0.21v1.35c0.29-0.41,0.55-0.74,0.81-1.01c0.25-0.26,0.49-0.47,0.72-0.63c0.23-0.16,0.46-0.26,0.68-0.32
			c0.23-0.06,0.46-0.09,0.68-0.09c0.11,0,0.22,0.01,0.34,0.02c0.12,0.01,0.25,0.03,0.38,0.06c0.13,0.03,0.24,0.06,0.34,0.1
			c0.1,0.04,0.17,0.08,0.21,0.12c0.04,0.04,0.08,0.09,0.1,0.13s0.04,0.12,0.06,0.2c0.02,0.09,0.03,0.21,0.04,0.38
			S207.65,533.23,207.65,533.52z"/>
	</g>
</g>
<line class="st13" x1="102.65" y1="469.1" x2="214.45" y2="469.1"/>
<g>
	<path class="st5" d="M288.22,17.92h-1.14v-1.55c0-0.37-0.3-0.67-0.67-0.67h-13.27c-0.37,0-0.67,0.3-0.67,0.67v5.73
		c0,0.37,0.3,0.67,0.67,0.67h13.27c0.37,0,0.67-0.3,0.67-0.67v-1.55h1.14V17.92z M285.65,21.33h-5.86v-4.19h5.86V21.33z"/>
	<rect x="262.92" y="12.95" class="st5" width="2.06" height="9.83"/>
	<rect x="259.11" y="14.92" class="st5" width="2.06" height="7.85"/>
	<rect x="255.29" y="17.15" class="st5" width="2.06" height="5.62"/>
	<rect x="251.48" y="19.45" class="st5" width="2.06" height="3.32"/>
</g>
<g>
	<path class="st5" d="M29.86,21.55c0,0.11-0.01,0.2-0.02,0.27c-0.01,0.08-0.03,0.13-0.05,0.18c-0.02,0.04-0.04,0.08-0.07,0.09
		c-0.03,0.02-0.06,0.03-0.09,0.03H25.5c-0.03,0-0.06-0.01-0.09-0.03c-0.03-0.02-0.05-0.05-0.07-0.09c-0.02-0.04-0.04-0.1-0.05-0.18
		s-0.02-0.17-0.02-0.27c0-0.11,0-0.21,0.01-0.28s0.03-0.14,0.05-0.18c0.02-0.05,0.05-0.08,0.07-0.1c0.03-0.02,0.06-0.03,0.09-0.03
		h1.39v-4.87l-1.2,0.67c-0.09,0.04-0.16,0.07-0.22,0.08c-0.06,0.01-0.1,0-0.13-0.04c-0.03-0.03-0.05-0.09-0.07-0.17
		c-0.01-0.08-0.02-0.19-0.02-0.34c0-0.09,0-0.17,0.01-0.23s0.01-0.11,0.03-0.15c0.02-0.04,0.04-0.08,0.06-0.1
		c0.03-0.03,0.06-0.06,0.11-0.09l1.61-1.04c0.02-0.02,0.04-0.03,0.07-0.04c0.03-0.01,0.07-0.02,0.11-0.02
		c0.05-0.01,0.11-0.01,0.18-0.01s0.17,0,0.29,0c0.15,0,0.26,0,0.36,0.01s0.16,0.02,0.21,0.03c0.05,0.01,0.08,0.03,0.09,0.06
		c0.02,0.02,0.02,0.05,0.02,0.09v6.18h1.22c0.04,0,0.07,0.01,0.1,0.03c0.03,0.02,0.05,0.06,0.08,0.1s0.04,0.11,0.05,0.18
		S29.86,21.44,29.86,21.55z"/>
	<path class="st5" d="M35.93,21.51c0,0.11,0,0.21-0.01,0.29c-0.01,0.08-0.02,0.14-0.04,0.19s-0.04,0.09-0.08,0.11
		c-0.03,0.02-0.07,0.03-0.1,0.03h-4.3c-0.08,0-0.16-0.01-0.22-0.02c-0.06-0.01-0.11-0.04-0.15-0.09c-0.04-0.04-0.07-0.11-0.08-0.19
		s-0.03-0.19-0.03-0.33c0-0.13,0.01-0.24,0.02-0.33s0.03-0.17,0.06-0.24s0.07-0.14,0.12-0.21c0.05-0.07,0.11-0.14,0.19-0.22
		l1.29-1.39c0.26-0.27,0.47-0.52,0.63-0.74s0.28-0.42,0.37-0.61c0.09-0.18,0.15-0.35,0.18-0.51c0.03-0.15,0.05-0.3,0.05-0.44
		c0-0.13-0.02-0.25-0.06-0.36c-0.04-0.11-0.1-0.21-0.18-0.3s-0.18-0.15-0.3-0.2c-0.12-0.05-0.26-0.07-0.42-0.07
		c-0.23,0-0.43,0.03-0.6,0.09c-0.18,0.06-0.33,0.12-0.46,0.19s-0.24,0.14-0.33,0.2c-0.09,0.06-0.16,0.09-0.21,0.09
		c-0.04,0-0.07-0.01-0.09-0.04c-0.03-0.02-0.05-0.06-0.06-0.12c-0.02-0.05-0.03-0.13-0.04-0.22s-0.01-0.2-0.01-0.33
		c0-0.09,0-0.16,0.01-0.22c0.01-0.06,0.01-0.11,0.03-0.16c0.01-0.04,0.03-0.08,0.05-0.12s0.05-0.07,0.1-0.12
		c0.05-0.05,0.14-0.11,0.27-0.18s0.29-0.14,0.48-0.21c0.19-0.07,0.4-0.13,0.62-0.17s0.46-0.07,0.71-0.07c0.39,0,0.73,0.05,1.02,0.15
		s0.53,0.24,0.73,0.41c0.19,0.18,0.34,0.38,0.43,0.63s0.14,0.5,0.14,0.78c0,0.24-0.02,0.48-0.07,0.72
		c-0.05,0.24-0.14,0.49-0.29,0.76c-0.15,0.27-0.35,0.57-0.62,0.9c-0.27,0.33-0.62,0.71-1.06,1.15l-0.87,0.9h2.95
		c0.04,0,0.07,0.01,0.11,0.03c0.03,0.02,0.06,0.06,0.08,0.11c0.02,0.05,0.04,0.11,0.05,0.19C35.93,21.31,35.93,21.4,35.93,21.51z"/>
	<path class="st5" d="M38.96,17.56c0,0.16-0.01,0.3-0.04,0.4c-0.03,0.11-0.07,0.2-0.14,0.27s-0.15,0.12-0.25,0.15
		c-0.1,0.03-0.24,0.04-0.39,0.04c-0.16,0-0.29-0.01-0.39-0.04c-0.1-0.03-0.19-0.08-0.25-0.15s-0.11-0.16-0.13-0.27
		c-0.02-0.11-0.04-0.24-0.04-0.4c0-0.17,0.01-0.3,0.04-0.42c0.02-0.11,0.07-0.2,0.13-0.27s0.15-0.12,0.25-0.15
		c0.1-0.03,0.24-0.05,0.39-0.05c0.16,0,0.29,0.02,0.39,0.05c0.1,0.03,0.19,0.08,0.25,0.15s0.11,0.16,0.14,0.27
		C38.95,17.25,38.96,17.39,38.96,17.56z M38.96,21.33c0,0.16-0.01,0.3-0.04,0.41c-0.03,0.11-0.07,0.2-0.14,0.27
		s-0.15,0.12-0.25,0.15c-0.1,0.03-0.24,0.04-0.39,0.04c-0.16,0-0.29-0.01-0.39-0.04c-0.1-0.03-0.19-0.08-0.25-0.15
		s-0.11-0.16-0.13-0.27c-0.02-0.11-0.04-0.25-0.04-0.41s0.01-0.3,0.04-0.41c0.02-0.11,0.07-0.21,0.13-0.27s0.15-0.12,0.25-0.15
		c0.1-0.03,0.24-0.04,0.39-0.04c0.16,0,0.29,0.01,0.39,0.04c0.1,0.03,0.19,0.08,0.25,0.15s0.11,0.16,0.14,0.27
		C38.95,21.04,38.96,21.17,38.96,21.33z"/>
	<path class="st5" d="M45.35,18.36c0,0.6-0.05,1.14-0.14,1.62c-0.1,0.48-0.25,0.89-0.47,1.23c-0.22,0.34-0.5,0.6-0.85,0.78
		c-0.35,0.18-0.78,0.27-1.28,0.27c-0.51,0-0.94-0.09-1.27-0.26c-0.34-0.18-0.6-0.43-0.8-0.76c-0.2-0.33-0.33-0.73-0.41-1.21
		c-0.08-0.48-0.12-1.01-0.12-1.62c0-0.59,0.05-1.13,0.15-1.62c0.1-0.48,0.26-0.9,0.47-1.23c0.22-0.34,0.5-0.6,0.85-0.78
		c0.35-0.18,0.77-0.27,1.27-0.27c0.51,0,0.94,0.09,1.28,0.26c0.34,0.18,0.6,0.43,0.8,0.76c0.2,0.33,0.33,0.73,0.41,1.21
		C45.32,17.22,45.35,17.75,45.35,18.36z M43.82,18.43c0-0.35-0.01-0.67-0.03-0.94c-0.02-0.27-0.05-0.51-0.09-0.71
		c-0.04-0.2-0.09-0.37-0.15-0.51c-0.06-0.14-0.13-0.25-0.22-0.33c-0.08-0.08-0.18-0.14-0.29-0.18c-0.11-0.03-0.23-0.05-0.36-0.05
		c-0.23,0-0.42,0.05-0.56,0.17c-0.15,0.11-0.27,0.27-0.35,0.49c-0.09,0.22-0.15,0.49-0.18,0.82c-0.03,0.33-0.05,0.71-0.05,1.14
		c0,0.53,0.02,0.97,0.06,1.32c0.04,0.35,0.11,0.63,0.2,0.83s0.21,0.35,0.35,0.43c0.14,0.08,0.31,0.13,0.51,0.13
		c0.15,0,0.28-0.02,0.4-0.07c0.12-0.05,0.22-0.12,0.3-0.22c0.09-0.1,0.16-0.22,0.22-0.36s0.11-0.32,0.14-0.51
		c0.04-0.19,0.06-0.41,0.08-0.65S43.82,18.72,43.82,18.43z"/>
	<path class="st5" d="M51.36,18.36c0,0.6-0.05,1.14-0.14,1.62c-0.1,0.48-0.25,0.89-0.47,1.23c-0.22,0.34-0.5,0.6-0.85,0.78
		c-0.35,0.18-0.78,0.27-1.28,0.27c-0.51,0-0.94-0.09-1.27-0.26c-0.34-0.18-0.6-0.43-0.8-0.76c-0.2-0.33-0.33-0.73-0.41-1.21
		c-0.08-0.48-0.12-1.01-0.12-1.62c0-0.59,0.05-1.13,0.15-1.62c0.1-0.48,0.26-0.9,0.47-1.23c0.22-0.34,0.5-0.6,0.85-0.78
		c0.35-0.18,0.77-0.27,1.27-0.27c0.51,0,0.94,0.09,1.28,0.26c0.34,0.18,0.6,0.43,0.8,0.76c0.2,0.33,0.33,0.73,0.41,1.21
		C51.32,17.22,51.36,17.75,51.36,18.36z M49.83,18.43c0-0.35-0.01-0.67-0.03-0.94c-0.02-0.27-0.05-0.51-0.09-0.71
		c-0.04-0.2-0.09-0.37-0.15-0.51c-0.06-0.14-0.13-0.25-0.22-0.33c-0.08-0.08-0.18-0.14-0.29-0.18c-0.11-0.03-0.23-0.05-0.36-0.05
		c-0.23,0-0.42,0.05-0.56,0.17c-0.15,0.11-0.27,0.27-0.35,0.49c-0.09,0.22-0.15,0.49-0.18,0.82c-0.03,0.33-0.05,0.71-0.05,1.14
		c0,0.53,0.02,0.97,0.06,1.32c0.04,0.35,0.11,0.63,0.2,0.83s0.21,0.35,0.35,0.43c0.14,0.08,0.31,0.13,0.51,0.13
		c0.15,0,0.28-0.02,0.4-0.07c0.12-0.05,0.22-0.12,0.3-0.22c0.09-0.1,0.16-0.22,0.22-0.36s0.11-0.32,0.14-0.51
		c0.04-0.19,0.06-0.41,0.08-0.65S49.83,18.72,49.83,18.43z"/>
</g>
</svg>
