<?xml version="1.0" encoding="utf-8"?>
<!-- Generator: Adobe Illustrator 24.3.0, SVG Export Plug-In . SVG Version: 6.00 Build 0)  -->
<svg version="1.1" id="Camada_1" xmlns="http://www.w3.org/2000/svg" xmlns:xlink="http://www.w3.org/1999/xlink" x="0px" y="0px"
	 viewBox="0 0 315 635" style="enable-background:new 0 0 315 635;" xml:space="preserve">
<style type="text/css">
	.st0{fill:#E5ECF0;}
	.st1{fill:none;}
	.st2{fill:#727D83;}
	.st3{fill:#EEFFF9;}
	.st4{fill:#DDF2EC;}
	.st5{fill:#FFFFFF;}
	.st6{fill:#148260;}
	.st7{fill:url(#SVGID_1_);}
	.st8{fill:#FFFFFF;stroke:#E8EBED;stroke-miterlimit:10;}
	.st9{fill:#2CBA8D;}
	.st10{fill:#C7CFD3;}
	.st11{fill:#E8EBED;}
	.st12{fill:url(#SVGID_2_);}
	.st13{fill:#FFFFFF;stroke:#E5ECF0;stroke-miterlimit:10;}
	.st14{fill:#1CAE81;}
	.st15{fill:#FFCF8C;}
	.st16{fill:#B9C3C9;}
	.st17{fill:#E4EBF0;}
	.st18{fill:#3BB18A;}
	.st19{fill:#128260;}
	.st20{fill:#B9C2C8;}
	.st21{fill:#F9BE6D;}
	.st22{fill:#106449;}
	.st23{fill:#FCCE8C;}
	.st24{fill:#7F5018;}
	.st25{fill:none;stroke:#0B8360;stroke-width:4;stroke-miterlimit:10;}
	.st26{fill:#21AC80;}
	.st27{fill:#FABE6D;}
	.st28{fill:#E84B4D;}
	.st29{fill:#D9D9D9;}
	.st30{fill:#F6C3AC;}
	.st31{fill:#EA6F42;}
	.st32{fill:#DB9880;}
	.st33{fill:#ED8045;}
	.st34{fill:#AD5E4E;}
	.st35{fill:#9B4E41;}
	.st36{fill:#372736;}
	.st37{fill:#FF4848;}
	.st38{fill:#704E43;}
	.st39{fill:#FFFFFF;stroke:#B9C3C9;stroke-miterlimit:10;}
</style>
<rect class="st5" width="315" height="635"/>
<g>
	<g>
		<path class="st6" d="M170.95,299.78v-36.52l5.45-0.57v31.65l10.66-1.12v4.87L170.95,299.78z"/>
		<path class="st6" d="M202.81,296.43l-9.56,1c-2.01,0.21-3.01-0.66-3.01-2.6V277.1c0-1.94,1-3.02,3.01-3.23l9.56-1
			c1.97-0.21,2.97,0.66,2.97,2.6v17.74C205.78,295.15,204.79,296.23,202.81,296.43z M200.57,277.55l-5.07,0.53v14.67l5.07-0.53
			V277.55z"/>
		<path class="st6" d="M222.24,305.27l-9.24,0.97c-2.01,0.21-3.01-0.66-3.01-2.6v-3.77l5.16-0.54v2.82l4.73-0.5v-7.15l-5.47,0.57
			c-1.52,0.16-2.71-0.15-3.57-0.91c-0.86-0.77-1.28-1.87-1.28-3.31v-14.44c0-1.37,0.38-2.48,1.14-3.32
			c0.76-0.84,1.81-1.34,3.14-1.48c0.32-0.03,0.65-0.05,1-0.06c0.35-0.01,0.68,0.01,1,0.04l4.04,0.34v-0.86l5.36-0.56v31.53
			C225.24,303.98,224.24,305.06,222.24,305.27z M219.88,275.71l-2.2-0.01c-0.16-0.01-0.34-0.01-0.54,0.01
			c-0.2,0.02-0.38,0.04-0.54,0.06c-1.13,0.12-1.69,0.75-1.69,1.9v11.28c0,1.18,0.58,1.7,1.74,1.58l3.23-0.34V275.71z"/>
		<path class="st6" d="M185.1,336.14c-0.86,0.95-2.06,1.51-3.59,1.67l-10.85,1.14v-36.52l5.35-0.56v13.82l5.74-1.37
			c0.29-0.09,0.58-0.18,0.89-0.24c0.3-0.07,0.58-0.11,0.83-0.14c1.94-0.2,2.92,0.65,2.92,2.56v16.07
			C186.39,334,185.96,335.19,185.1,336.14z M181.04,318.74l-5.02,0.62v14.58l3.3-0.35c1.15-0.12,1.72-0.77,1.72-1.95V318.74z"/>
		<path class="st6" d="M202.79,335.57l-9.56,1c-2.01,0.21-3.01-0.66-3.01-2.6v-17.74c0-1.94,1-3.02,3.01-3.23l9.56-1
			c1.97-0.21,2.97,0.66,2.97,2.6v17.74C205.76,334.29,204.76,335.37,202.79,335.57z M200.54,316.69l-5.07,0.53v14.67l5.07-0.53
			V316.69z"/>
		<path class="st6" d="M222.2,333.53l-9.56,1c-2.01,0.21-3.01-0.66-3.01-2.6V314.2c0-1.94,1-3.02,3.01-3.23l9.56-1
			c1.97-0.21,2.97,0.66,2.97,2.6v17.74C225.17,332.25,224.17,333.33,222.2,333.53z M219.95,314.65l-5.07,0.53v14.67l5.07-0.53
			V314.65z"/>
		<path class="st6" d="M239.08,331.76l-4.69-10.31v10.81l-5.35,0.56v-36.52l5.35-0.56v21.94l4.21-9.43l5.59-0.59v0.1l-5.45,11.28
			l6.02,12.04v0.09L239.08,331.76z"/>
		<g>
			<path class="st6" d="M152.22,340.89l-48.42,5.09c-2.35,0.25-4.26-1.46-4.26-3.81v-71.4l61.37-6.45v66.97
				C160.92,336.08,157.02,340.38,152.22,340.89z M104.08,274.82v66.87l48.14-5.34c2.29-0.24,4.16-2.3,4.16-4.59v-62.43
				L104.08,274.82z"/>
		</g>
		<path class="st6" d="M138.3,257.48L88.7,262.7c-1.27,0.13-2.29,1.27-2.29,2.53v71.74c0,1.48,0.78,2.78,2.06,3.42l42.44,20.57
			v-18.38l-4.54,0.48v10.45l-35.43-17.02v-66l9.4,4.68l2.34-4.13l-8.76-4.36l44.38-4.66V257.48z"/>
		<g>
			<path class="st6" d="M107.01,345.42l20.21-1.82l-0.4,6.55c0,0,1.2,4.68,0.4,4.66S107.01,345.42,107.01,345.42z"/>
		</g>
		<polygon class="st6" points="229.04,280.8 234.39,280.24 234.39,285.56 229.04,286.12 		"/>
		<polygon class="st6" points="123.35,313.65 119.67,310.36 145.19,282.16 148.86,285.45 		"/>
		<polygon class="st6" points="109.61,301.36 113.29,297.3 127.02,309.59 123.35,313.65 		"/>
		<polygon class="st6" points="142.21,297.83 145.89,301.12 129.54,319.19 125.86,315.9 		"/>
		<polygon class="st6" points="140.22,312.42 143.9,315.71 135.73,324.73 132.05,321.44 		"/>
		<polygon class="st6" points="95,267.79 139.74,263.04 141.61,263.55 96.08,268.43 		"/>
		<polygon class="st6" points="97.16,269.39 144.32,264.39 145.89,264.92 98.23,270.03 		"/>
	</g>
</g>
<g>
	<g>
		<path class="st16" d="M49.37,396.26v1.19c0,1.66-0.68,2.56-2.21,2.79c1.53,0.21,2.21,1.15,2.21,2.62v2.07
			c0,0.49,0.06,1.17,0.38,1.57h-0.23c-0.28-0.43-0.34-1.06-0.34-1.57v-2.07c0-2.04-1.28-2.55-3.11-2.55h-1.74v6.19h-0.19v-13.2h2.55
			C48.64,393.3,49.37,394.47,49.37,396.26z M49.18,397.45v-1.19c0-1.7-0.66-2.77-2.49-2.77h-2.36v6.64h1.74
			C48.03,400.13,49.18,399.64,49.18,397.45z"/>
		<path class="st16" d="M56.09,399.9h-4.02v6.41h4.75v0.19h-4.94v-13.2h4.94v0.19h-4.75v6.22h4.02V399.9z"/>
		<path class="st16" d="M64.38,396.55v0.83H64.2v-0.83c0-1.68-0.64-3.15-2.53-3.15s-2.53,1.47-2.53,3.15v6.71
			c0,1.68,0.64,3.15,2.53,3.15s2.53-1.47,2.53-3.15v-3.07h-2.23V400h2.41v3.26c0,1.77-0.72,3.34-2.72,3.34s-2.72-1.57-2.72-3.34
			v-6.71c0-1.77,0.72-3.34,2.72-3.34S64.38,394.77,64.38,396.55z"/>
		<path class="st16" d="M66.7,406.5h-0.19v-13.2h0.19V406.5z"/>
		<path class="st16" d="M74.25,396.49v0.23h-0.19v-0.23c0-1.66-0.62-3.09-2.49-3.09c-1.87,0-2.49,1.41-2.49,3.07
			c0,3.47,5.19,3.28,5.19,6.85c0,1.79-0.72,3.28-2.72,3.28s-2.72-1.49-2.72-3.28v-0.62h0.19v0.62c0,1.7,0.64,3.09,2.53,3.09
			s2.53-1.4,2.53-3.09c0-3.41-5.19-3.22-5.19-6.85c0-1.91,0.77-3.24,2.68-3.26C73.55,393.21,74.25,394.72,74.25,396.49z"/>
		<path class="st16" d="M79.08,393.49H76.1v-0.19h6.15v0.19h-2.98v13.01h-0.19V393.49z"/>
		<path class="st16" d="M89.35,396.26v1.19c0,1.66-0.68,2.56-2.21,2.79c1.53,0.21,2.21,1.15,2.21,2.62v2.07
			c0,0.49,0.06,1.17,0.38,1.57H89.5c-0.28-0.43-0.34-1.06-0.34-1.57v-2.07c0-2.04-1.28-2.55-3.11-2.55h-1.74v6.19h-0.19v-13.2h2.55
			C88.62,393.3,89.35,394.47,89.35,396.26z M89.17,397.45v-1.19c0-1.7-0.66-2.77-2.49-2.77h-2.36v6.64h1.74
			C88.01,400.13,89.17,399.64,89.17,397.45z"/>
		<path class="st16" d="M96.07,399.9h-4.02v6.41h4.75v0.19h-4.94v-13.2h4.94v0.19h-4.75v6.22h4.02V399.9z"/>
		<path class="st16" d="M109.76,406.5h-0.19v-13.2h0.19V406.5z"/>
		<path class="st16" d="M128.41,396.32v1.08c0,1.45-0.51,2.36-1.64,2.72c1.21,0.36,1.66,1.34,1.66,2.75v2.06
			c0,0.58,0.02,1.13,0.26,1.58h-1.49c-0.17-0.38-0.25-0.72-0.25-1.6v-2.07c0-1.49-0.7-1.96-1.92-1.96H124v5.64h-1.47v-13.2h2.94
			C127.54,393.3,128.41,394.36,128.41,396.32z M126.96,397.71v-1.26c0-1.19-0.43-1.81-1.53-1.81H124v4.88h1.09
			C126.26,399.53,126.96,399.15,126.96,397.71z"/>
		<path class="st16" d="M135.28,400.47h-3.22v4.7h3.96v1.34h-5.43v-13.2h5.43v1.34h-3.96v4.51h3.22V400.47z"/>
		<path class="st16" d="M137.99,393.3h1.47v11.86h3.77v1.34h-5.24V393.3z"/>
		<path class="st16" d="M149.67,400.47h-3.22v4.7h3.96v1.34h-5.43v-13.2h5.43v1.34h-3.96v4.51h3.22V400.47z"/>
		<path class="st16" d="M155.83,406.49l-2.19-10.5v10.52h-1.28v-13.2h2.06l2.17,10.54l2.09-10.54h2.06v13.2h-1.4v-10.62l-2.09,10.6
			H155.83z"/>
		<path class="st16" d="M168.7,396.23v0.62c0,1.4-0.4,2.26-1.55,2.62c1.28,0.36,1.77,1.38,1.77,2.83v1.11
			c0,1.98-0.96,3.09-3.02,3.09h-3.04v-13.2h2.96C167.88,393.3,168.7,394.28,168.7,396.23z M167.24,397.15v-0.77
			c0-1.17-0.4-1.74-1.45-1.74h-1.45v4.26h1.13C166.64,398.9,167.24,398.53,167.24,397.15z M167.47,403.37v-1.17
			c0-1.47-0.58-1.96-1.85-1.96h-1.28v4.92h1.57C166.98,405.17,167.47,404.6,167.47,403.37z"/>
		<path class="st16" d="M176.77,396.32v1.08c0,1.45-0.51,2.36-1.64,2.72c1.21,0.36,1.66,1.34,1.66,2.75v2.06
			c0,0.58,0.02,1.13,0.26,1.58h-1.49c-0.17-0.38-0.25-0.72-0.25-1.6v-2.07c0-1.49-0.7-1.96-1.92-1.96h-1.04v5.64h-1.47v-13.2h2.94
			C175.9,393.3,176.77,394.36,176.77,396.32z M175.31,397.71v-1.26c0-1.19-0.43-1.81-1.53-1.81h-1.43v4.88h1.09
			C174.62,399.53,175.31,399.15,175.31,397.71z"/>
		<path class="st16" d="M183.63,400.47h-3.22v4.7h3.96v1.34h-5.43v-13.2h5.43v1.34h-3.96v4.51h3.22V400.47z"/>
		<path class="st16" d="M197.17,406.5h-0.19v-13.2h0.19V406.5z"/>
		<path class="st16" d="M214.56,406.5l-0.36-2.4h-2.55l-0.36,2.4h-1.91l2.11-13.2h3.04l2.11,13.2H214.56z M213.92,402.32l-1-6.68
			l-1,6.68H213.92z"/>
		<path class="st16" d="M224.39,396.56v1.72c0,2.11-1.02,3.26-3.09,3.26h-0.98v4.96h-2.07v-13.2h3.05
			C223.37,393.3,224.39,394.45,224.39,396.56z M220.31,399.66h0.98c0.66,0,1.02-0.3,1.02-1.25v-1.98c0-0.94-0.36-1.25-1.02-1.25
			h-0.98V399.66z"/>
		<path class="st16" d="M230.21,404.88v-2.07c0-1.23-0.42-1.68-1.36-1.68h-0.72v5.38h-2.07v-13.2h3.13c2.15,0,3.07,1,3.07,3.04v1.04
			c0,1.36-0.43,2.24-1.36,2.68c1.04,0.43,1.38,1.43,1.38,2.81v2.04c0,0.64,0.02,1.11,0.23,1.6h-2.11
			C230.29,406.16,230.21,405.96,230.21,404.88z M228.14,399.24h0.81c0.77,0,1.25-0.34,1.25-1.4v-1.3c0-0.94-0.32-1.36-1.06-1.36h-1
			V399.24z"/>
		<path class="st16" d="M239.19,398.87v1.89h-2.85v3.87h3.58v1.89h-5.66v-13.2h5.66v1.89h-3.58v3.68H239.19z"/>
		<path class="st16" d="M243.68,406.5h-1.87v-13.2h2.6l2.13,7.9v-7.9h1.85v13.2h-2.13l-2.58-9.56V406.5z"/>
		<path class="st16" d="M253.79,393.3c2.07,0,3.09,1.15,3.09,3.26v6.68c0,2.11-1.02,3.26-3.09,3.26h-3.28v-13.2H253.79z
			 M252.58,404.62h1.17c0.66,0,1.06-0.34,1.06-1.28v-6.87c0-0.94-0.4-1.28-1.06-1.28h-1.17V404.62z"/>
		<path class="st16" d="M263.44,406.5l-0.36-2.4h-2.55l-0.36,2.4h-1.91l2.11-13.2h3.04l2.11,13.2H263.44z M262.8,402.32l-1-6.68
			l-1,6.68H262.8z"/>
	</g>
</g>
</svg>
