<?xml version="1.0" encoding="utf-8"?>
<!-- Generator: Adobe Illustrator 24.3.0, SVG Export Plug-In . SVG Version: 6.00 Build 0)  -->
<svg version="1.1" id="Camada_1" xmlns="http://www.w3.org/2000/svg" xmlns:xlink="http://www.w3.org/1999/xlink" x="0px" y="0px"
	 viewBox="0 0 500 425.8" style="enable-background:new 0 0 500 425.8;" xml:space="preserve">
<style type="text/css">
	.st0{fill:none;stroke:#BAC3C9;stroke-miterlimit:10;}
	.st1{fill:#128360;}
	.st2{fill:#FFFFFF;}
	.st3{fill:#7C7C7C;}
</style>
<g>
	<polyline class="st0" points="416.5,196 416.5,230.6 173.8,230.6 83.5,230.6 83.5,196 	"/>
	<line class="st0" x1="255.3" y1="229.9" x2="255.3" y2="248.8"/>
</g>
<circle class="st1" cx="92.7" cy="90.7" r="89.7"/>
<g>
	<g>
		<path class="st2" d="M37.9,86.7c0,0.8-0.1,1.6-0.4,2.3s-0.7,1.2-1.2,1.7s-1.1,0.8-1.9,1S32.8,92,31.9,92h-1.3v4.8
			c0,0.1,0,0.2-0.1,0.2s-0.1,0.1-0.3,0.2s-0.3,0.1-0.5,0.1s-0.5,0-0.8,0s-0.5,0-0.7,0s-0.4-0.1-0.5-0.1s-0.2-0.1-0.3-0.2
			s-0.1-0.1-0.1-0.2V83.2c0-0.4,0.1-0.6,0.3-0.8s0.4-0.3,0.8-0.3h3.6c0.4,0,0.7,0,1,0s0.7,0.1,1.2,0.2s0.9,0.3,1.4,0.5
			s0.9,0.6,1.2,0.9s0.6,0.8,0.8,1.3S37.9,86.1,37.9,86.7z M34.7,86.9c0-0.5-0.1-1-0.3-1.3S34,85,33.7,84.8s-0.6-0.3-0.9-0.3
			s-0.6-0.1-0.9-0.1h-1.3v5.1H32c0.5,0,0.9-0.1,1.2-0.2s0.6-0.3,0.8-0.6s0.4-0.5,0.5-0.9S34.7,87.3,34.7,86.9z"/>
		<path class="st2" d="M46.8,87.4c0,0.3,0,0.5,0,0.7s0,0.3-0.1,0.4s-0.1,0.2-0.1,0.2s-0.1,0.1-0.2,0.1c-0.1,0-0.1,0-0.2,0
			S46,88.7,46,88.6s-0.2-0.1-0.3-0.1s-0.3,0-0.4,0c-0.2,0-0.3,0-0.5,0.1s-0.3,0.2-0.5,0.3s-0.4,0.3-0.5,0.6s-0.4,0.5-0.6,0.9v6.5
			c0,0.1,0,0.2-0.1,0.2s-0.1,0.1-0.2,0.2s-0.3,0.1-0.5,0.1s-0.4,0-0.7,0s-0.5,0-0.7,0s-0.3-0.1-0.5-0.1s-0.2-0.1-0.2-0.2
			s-0.1-0.1-0.1-0.2V86.4c0-0.1,0-0.2,0.1-0.2s0.1-0.1,0.2-0.2s0.2-0.1,0.4-0.1s0.4,0,0.6,0c0.3,0,0.5,0,0.6,0s0.3,0.1,0.4,0.1
			s0.2,0.1,0.2,0.2s0.1,0.1,0.1,0.2v1.3c0.3-0.4,0.5-0.7,0.8-1s0.5-0.5,0.7-0.6s0.4-0.3,0.7-0.3s0.4-0.1,0.7-0.1c0.1,0,0.2,0,0.3,0
			s0.2,0,0.4,0.1s0.2,0.1,0.3,0.1s0.2,0.1,0.2,0.1s0.1,0.1,0.1,0.1s0,0.1,0,0.2s0,0.2,0,0.4S46.8,87.1,46.8,87.4z"/>
		<path class="st2" d="M58.9,91.5c0,0.9-0.1,1.7-0.3,2.4s-0.6,1.4-1.1,1.9s-1.1,0.9-1.8,1.2s-1.6,0.4-2.5,0.4
			c-0.9,0-1.7-0.1-2.4-0.4S49.5,96.5,49,96s-0.8-1.1-1-1.8s-0.3-1.5-0.3-2.5c0-0.9,0.1-1.7,0.4-2.4s0.6-1.4,1.1-1.9s1.1-0.9,1.8-1.2
			s1.5-0.4,2.5-0.4c0.9,0,1.8,0.1,2.4,0.4s1.3,0.6,1.7,1.1s0.8,1.1,1,1.8S58.9,90.6,58.9,91.5z M55.9,91.6c0-0.5,0-1-0.1-1.4
			s-0.2-0.8-0.4-1.1s-0.5-0.6-0.8-0.8s-0.7-0.3-1.2-0.3c-0.4,0-0.8,0.1-1.2,0.2s-0.6,0.4-0.8,0.7s-0.4,0.7-0.5,1.1s-0.2,0.9-0.2,1.5
			c0,0.5,0,1,0.1,1.4s0.2,0.8,0.4,1.1s0.5,0.6,0.8,0.7s0.7,0.3,1.2,0.3c0.5,0,0.8-0.1,1.2-0.2s0.6-0.4,0.8-0.7s0.4-0.7,0.5-1.1
			S55.9,92.2,55.9,91.6z"/>
		<path class="st2" d="M67.4,95.8c0,0.3,0,0.6-0.1,0.8s-0.1,0.3-0.2,0.4s-0.2,0.1-0.3,0.2s-0.3,0.1-0.5,0.2s-0.4,0.1-0.6,0.1
			s-0.4,0-0.7,0c-0.6,0-1.1-0.1-1.5-0.2s-0.8-0.4-1.1-0.7s-0.5-0.7-0.6-1.2s-0.2-1-0.2-1.7v-5.4h-1.3c-0.2,0-0.3-0.1-0.3-0.3
			S60,87.6,60,87.2c0-0.2,0-0.4,0-0.6s0-0.3,0.1-0.4s0.1-0.2,0.2-0.2s0.1-0.1,0.2-0.1h1.2v-2.3c0-0.1,0-0.2,0.1-0.2s0.1-0.1,0.2-0.2
			s0.3-0.1,0.5-0.1s0.4,0,0.7,0c0.3,0,0.5,0,0.7,0c0.2,0,0.3,0.1,0.5,0.1s0.2,0.1,0.2,0.2s0.1,0.1,0.1,0.2V86H67
			c0.1,0,0.2,0,0.2,0.1s0.1,0.1,0.2,0.2s0.1,0.2,0.1,0.4s0,0.3,0,0.6c0,0.4,0,0.7-0.1,0.9s-0.2,0.3-0.3,0.3h-2.3v4.9
			c0,0.6,0.1,1,0.3,1.3s0.5,0.4,1,0.4c0.2,0,0.3,0,0.4,0s0.2-0.1,0.3-0.1s0.2-0.1,0.3-0.1s0.1,0,0.2,0s0.1,0,0.1,0s0.1,0.1,0.1,0.2
			s0,0.2,0.1,0.3S67.4,95.6,67.4,95.8z"/>
		<path class="st2" d="M79.9,91.5c0,0.9-0.1,1.7-0.3,2.4s-0.6,1.4-1.1,1.9s-1.1,0.9-1.8,1.2s-1.6,0.4-2.5,0.4
			c-0.9,0-1.7-0.1-2.4-0.4S70.5,96.5,70,96s-0.8-1.1-1-1.8s-0.3-1.5-0.3-2.5c0-0.9,0.1-1.7,0.4-2.4s0.6-1.4,1.1-1.9s1.1-0.9,1.8-1.2
			s1.6-0.4,2.5-0.4c0.9,0,1.8,0.1,2.4,0.4s1.3,0.6,1.7,1.1s0.8,1.1,1,1.8S79.9,90.6,79.9,91.5z M76.9,91.6c0-0.5,0-1-0.1-1.4
			s-0.2-0.8-0.4-1.1s-0.5-0.6-0.8-0.8s-0.7-0.3-1.2-0.3c-0.4,0-0.8,0.1-1.2,0.2s-0.6,0.4-0.8,0.7s-0.4,0.7-0.5,1.1s-0.2,0.9-0.2,1.5
			c0,0.5,0,1,0.1,1.4s0.2,0.8,0.4,1.1s0.4,0.6,0.8,0.7s0.7,0.3,1.2,0.3c0.4,0,0.8-0.1,1.2-0.2s0.6-0.4,0.8-0.7s0.4-0.7,0.5-1.1
			S76.9,92.2,76.9,91.6z"/>
		<path class="st2" d="M92.4,86c0.3,0,0.6,0.1,0.7,0.2s0.2,0.3,0.2,0.6v10c0,0.1,0,0.2-0.1,0.2s-0.1,0.1-0.2,0.2s-0.3,0.1-0.4,0.1
			s-0.4,0-0.7,0c-0.3,0-0.5,0-0.7,0s-0.3-0.1-0.4-0.1s-0.2-0.1-0.2-0.2s-0.1-0.1-0.1-0.2v-8.5h-4.7v4.9c0,0.6,0.1,1,0.3,1.3
			s0.5,0.4,1,0.4c0.2,0,0.3,0,0.4,0s0.2-0.1,0.3-0.1s0.2-0.1,0.3-0.1s0.1,0,0.2,0s0.1,0,0.1,0s0.1,0.1,0.1,0.2s0,0.2,0.1,0.3
			s0,0.3,0,0.5c0,0.3,0,0.6-0.1,0.8s-0.1,0.3-0.2,0.4s-0.2,0.2-0.3,0.2s-0.3,0.1-0.5,0.2s-0.4,0.1-0.6,0.1s-0.4,0-0.7,0
			c-0.6,0-1.1-0.1-1.5-0.2s-0.8-0.4-1.1-0.7s-0.5-0.7-0.6-1.2s-0.2-1-0.2-1.7v-5.4h-1.3c-0.2,0-0.3-0.1-0.3-0.3S81,87.6,81,87.2
			c0-0.2,0-0.4,0-0.6s0.1-0.3,0.1-0.4s0.1-0.2,0.2-0.2s0.1-0.1,0.2-0.1h1.2v-2.3c0-0.1,0-0.2,0.1-0.2s0.1-0.1,0.2-0.2
			s0.3-0.1,0.5-0.1s0.4,0,0.7,0c0.3,0,0.5,0,0.7,0s0.3,0.1,0.4,0.1s0.2,0.1,0.2,0.2s0.1,0.1,0.1,0.2V86H92.4z M93.6,82.9
			c0,0.6-0.1,1-0.4,1.2s-0.7,0.3-1.3,0.3c-0.7,0-1.1-0.1-1.3-0.3s-0.3-0.6-0.3-1.2c0-0.6,0.1-1,0.4-1.2s0.7-0.3,1.3-0.3
			c0.7,0,1.1,0.1,1.3,0.3S93.6,82.3,93.6,82.9z"/>
		<path class="st2" d="M106.8,91.5c0,0.9-0.1,1.8-0.3,2.5s-0.5,1.4-0.9,1.9s-0.9,0.9-1.4,1.2s-1.2,0.4-2,0.4c-0.3,0-0.6,0-0.8-0.1
			s-0.5-0.2-0.7-0.3s-0.5-0.3-0.7-0.4s-0.5-0.4-0.7-0.6v4.9c0,0.1,0,0.2-0.1,0.2s-0.1,0.1-0.2,0.2s-0.3,0.1-0.4,0.1s-0.4,0-0.7,0
			s-0.5,0-0.7,0s-0.3-0.1-0.4-0.1s-0.2-0.1-0.2-0.2s-0.1-0.1-0.1-0.2V86.4c0-0.1,0-0.2,0.1-0.2s0.1-0.1,0.2-0.2S96.8,86,97,86
			s0.4,0,0.6,0c0.2,0,0.4,0,0.6,0s0.3,0.1,0.4,0.1s0.2,0.1,0.2,0.2s0.1,0.1,0.1,0.2v1.2c0.3-0.3,0.6-0.6,0.9-0.8s0.6-0.4,0.9-0.6
			s0.6-0.3,0.9-0.4s0.7-0.1,1-0.1c0.8,0,1.4,0.2,2,0.4s1,0.7,1.3,1.2s0.6,1.1,0.7,1.8S106.8,90.7,106.8,91.5z M103.7,91.7
			c0-0.4,0-0.9-0.1-1.3s-0.2-0.8-0.3-1.1s-0.4-0.6-0.6-0.8s-0.6-0.3-1-0.3c-0.2,0-0.4,0-0.6,0.1s-0.4,0.2-0.6,0.3s-0.4,0.3-0.6,0.5
			s-0.4,0.5-0.7,0.8v3.4c0.4,0.5,0.8,0.9,1.2,1.2s0.8,0.4,1.2,0.4c0.4,0,0.7-0.1,1-0.3s0.5-0.4,0.7-0.8s0.3-0.7,0.4-1.1
			S103.7,92.1,103.7,91.7z"/>
		<path class="st2" d="M118.1,96.9c0,0.1,0,0.2-0.1,0.3s-0.2,0.1-0.4,0.1s-0.4,0-0.7,0c-0.3,0-0.6,0-0.8,0s-0.3-0.1-0.3-0.1
			s-0.1-0.2-0.1-0.3v-0.8c-0.4,0.5-0.9,0.8-1.5,1.1s-1.2,0.4-1.8,0.4c-0.6,0-1.1-0.1-1.5-0.2s-0.9-0.4-1.2-0.6s-0.6-0.6-0.8-1.1
			s-0.3-0.9-0.3-1.5c0-0.6,0.1-1.1,0.4-1.6s0.6-0.8,1.1-1.1s1.1-0.5,1.8-0.7s1.5-0.2,2.4-0.2h1v-0.6c0-0.3,0-0.6-0.1-0.9
			s-0.2-0.4-0.3-0.6s-0.4-0.3-0.6-0.4s-0.6-0.1-0.9-0.1c-0.5,0-0.9,0.1-1.3,0.2s-0.7,0.2-1,0.4s-0.5,0.3-0.7,0.4s-0.4,0.2-0.5,0.2
			c-0.1,0-0.2,0-0.2-0.1s-0.1-0.1-0.2-0.2s-0.1-0.2-0.1-0.4s0-0.3,0-0.5c0-0.2,0-0.4,0.1-0.6s0.1-0.3,0.2-0.4s0.3-0.2,0.6-0.4
			s0.6-0.3,1-0.4s0.8-0.2,1.2-0.3s0.9-0.1,1.3-0.1c0.8,0,1.5,0.1,2.1,0.2s1.1,0.4,1.4,0.7s0.7,0.8,0.8,1.3s0.3,1.1,0.3,1.9
			L118.1,96.9L118.1,96.9z M115.2,92.4H114c-0.5,0-0.9,0-1.2,0.1s-0.6,0.2-0.8,0.3s-0.4,0.3-0.5,0.5s-0.2,0.4-0.2,0.7
			c0,0.4,0.1,0.8,0.4,1s0.7,0.4,1.2,0.4c0.4,0,0.8-0.1,1.1-0.3s0.7-0.5,1.1-0.9L115.2,92.4L115.2,92.4z"/>
		<path class="st2" d="M128.9,95.2c0,0.2,0,0.4,0,0.5s0,0.3-0.1,0.3s0,0.2-0.1,0.2s-0.1,0.1-0.2,0.2s-0.3,0.2-0.5,0.3
			s-0.5,0.3-0.8,0.4s-0.7,0.2-1,0.2l0.3,0.6c0.1,0.3,0.2,0.6,0.3,0.8s0.1,0.4,0.1,0.7c0,0.4-0.1,0.7-0.2,0.9s-0.3,0.5-0.5,0.6
			s-0.5,0.3-0.8,0.4s-0.6,0.1-1,0.1c-0.3,0-0.7,0-1-0.1s-0.5-0.1-0.7-0.2s-0.3-0.1-0.4-0.1s-0.1-0.1-0.2-0.2s-0.1-0.1-0.1-0.2
			s0-0.2,0-0.4c0-0.3,0-0.5,0.1-0.7s0.2-0.2,0.3-0.2h1.4c0.2,0,0.4-0.1,0.5-0.2s0.2-0.2,0.2-0.4c0-0.1,0-0.2-0.1-0.3
			s-0.1-0.2-0.1-0.4l-0.5-1c-0.8-0.2-1.4-0.5-1.9-1s-0.9-1.1-1.1-1.8s-0.4-1.6-0.4-2.6c0-1.1,0.1-1.9,0.4-2.7s0.6-1.4,1.1-1.9
			s1-0.9,1.7-1.1s1.3-0.4,2.1-0.4c0.3,0,0.6,0,0.9,0.1s0.6,0.1,0.8,0.2s0.5,0.2,0.7,0.3c0.2,0.1,0.4,0.2,0.4,0.3s0.1,0.2,0.2,0.2
			s0.1,0.1,0.1,0.2s0,0.2,0.1,0.3s0,0.3,0,0.5c0,0.4,0,0.8-0.1,1s-0.2,0.3-0.3,0.3c-0.1,0-0.3-0.1-0.4-0.2s-0.3-0.2-0.5-0.4
			s-0.4-0.3-0.7-0.4s-0.6-0.2-1-0.2c-0.8,0-1.3,0.3-1.8,0.9s-0.6,1.5-0.6,2.6c0,0.6,0.1,1.1,0.2,1.5s0.3,0.8,0.4,1.1
			s0.4,0.5,0.8,0.7s0.7,0.2,1.1,0.2c0.4,0,0.8-0.1,1.1-0.2s0.6-0.3,0.8-0.4s0.4-0.3,0.5-0.4s0.3-0.2,0.4-0.2c0.1,0,0.1,0,0.2,0.1
			s0.1,0.1,0.1,0.2s0.1,0.2,0.1,0.4S128.9,94.9,128.9,95.2z"/>
		<path class="st2" d="M139.8,96.9c0,0.1,0,0.2-0.1,0.3s-0.2,0.1-0.4,0.1s-0.4,0-0.7,0c-0.4,0-0.6,0-0.8,0s-0.3-0.1-0.3-0.1
			s-0.1-0.2-0.1-0.3v-0.8c-0.4,0.5-0.9,0.8-1.5,1.1s-1.2,0.4-1.8,0.4c-0.6,0-1.1-0.1-1.5-0.2s-0.9-0.4-1.2-0.6s-0.6-0.6-0.8-1.1
			s-0.3-0.9-0.3-1.5c0-0.6,0.1-1.1,0.4-1.6s0.6-0.8,1.1-1.1s1.1-0.5,1.8-0.7s1.5-0.2,2.4-0.2h1v-0.6c0-0.3,0-0.6-0.1-0.9
			s-0.2-0.4-0.3-0.6s-0.4-0.3-0.6-0.4s-0.6-0.1-0.9-0.1c-0.5,0-0.9,0.1-1.3,0.2s-0.7,0.2-1,0.4s-0.5,0.3-0.7,0.4s-0.4,0.2-0.5,0.2
			c-0.1,0-0.2,0-0.2-0.1s-0.1-0.1-0.2-0.2s-0.1-0.2-0.1-0.4s0-0.3,0-0.5c0-0.2,0-0.4,0.1-0.6s0.1-0.3,0.2-0.4s0.3-0.2,0.6-0.4
			s0.6-0.3,1-0.4s0.8-0.2,1.2-0.3s0.9-0.1,1.3-0.1c0.8,0,1.5,0.1,2.1,0.2s1.1,0.4,1.4,0.7s0.6,0.8,0.8,1.3s0.3,1.1,0.3,1.9
			L139.8,96.9L139.8,96.9z M139.6,81.6c0,0.9-0.2,1.7-0.7,2.2s-1.1,0.8-1.9,0.8c-0.3,0-0.6,0-0.8-0.1s-0.4-0.1-0.6-0.3
			s-0.4-0.2-0.5-0.3s-0.3-0.2-0.4-0.3s-0.3-0.2-0.4-0.3s-0.3-0.1-0.4-0.1c-0.3,0-0.4,0.1-0.6,0.3s-0.2,0.4-0.2,0.7
			c0,0.1,0,0.1,0,0.2s-0.1,0.1-0.1,0.1s-0.2,0-0.3,0.1s-0.3,0-0.5,0c-0.2,0-0.3,0-0.4,0s-0.2,0-0.3-0.1s-0.1-0.1-0.1-0.2
			s-0.1-0.1-0.1-0.3c0-0.9,0.2-1.6,0.7-2.1s1.1-0.8,1.9-0.8c0.4,0,0.8,0.1,1.1,0.2s0.6,0.3,0.8,0.5s0.5,0.3,0.7,0.5s0.4,0.2,0.6,0.2
			c0.2,0,0.4-0.1,0.5-0.3s0.2-0.4,0.2-0.7c0-0.1,0.1-0.2,0.2-0.3s0.4-0.1,0.7-0.1s0.6,0,0.7,0.1S139.6,81.4,139.6,81.6z M136.9,92.4
			h-1.1c-0.5,0-0.9,0-1.2,0.1s-0.6,0.2-0.8,0.3s-0.4,0.3-0.5,0.5s-0.1,0.4-0.1,0.7c0,0.4,0.1,0.8,0.4,1s0.7,0.4,1.1,0.4
			c0.4,0,0.8-0.1,1.1-0.3s0.7-0.5,1.1-0.9L136.9,92.4L136.9,92.4z"/>
		<path class="st2" d="M153.3,91.5c0,0.9-0.1,1.7-0.4,2.4s-0.6,1.4-1.1,1.9s-1.1,0.9-1.8,1.2s-1.6,0.4-2.5,0.4
			c-0.9,0-1.7-0.1-2.4-0.4s-1.3-0.6-1.7-1.1s-0.8-1.1-1-1.8s-0.3-1.5-0.3-2.5c0-0.9,0.1-1.7,0.4-2.4s0.6-1.4,1.1-1.9
			s1.1-0.9,1.8-1.2s1.6-0.4,2.5-0.4c0.9,0,1.8,0.1,2.4,0.4s1.3,0.6,1.7,1.1s0.8,1.1,1,1.8S153.3,90.6,153.3,91.5z M150.3,91.6
			c0-0.5,0-1-0.1-1.4s-0.2-0.8-0.4-1.1s-0.5-0.6-0.8-0.8s-0.7-0.3-1.2-0.3c-0.4,0-0.8,0.1-1.1,0.2s-0.6,0.4-0.8,0.7
			s-0.4,0.7-0.5,1.1s-0.2,0.9-0.2,1.5c0,0.5,0,1,0.1,1.4s0.2,0.8,0.4,1.1s0.4,0.6,0.8,0.7s0.7,0.3,1.2,0.3c0.4,0,0.8-0.1,1.2-0.2
			s0.6-0.4,0.8-0.7s0.4-0.7,0.5-1.1S150.3,92.2,150.3,91.6z"/>
	</g>
</g>
<path class="st3" d="M150.9,268.2c0,0.6-0.1,1.2-0.3,1.7c-0.2,0.5-0.5,0.9-0.9,1.3c-0.4,0.4-0.9,0.6-1.4,0.8c-0.6,0.2-1.2,0.3-2,0.3
	h-1.4v4.5c0,0,0,0.1,0,0.1s-0.1,0.1-0.1,0.1c-0.1,0-0.1,0-0.3,0.1s-0.2,0-0.4,0c-0.2,0-0.3,0-0.4,0s-0.2,0-0.3-0.1
	c-0.1,0-0.1,0-0.1-0.1s0-0.1,0-0.1v-11.7c0-0.3,0.1-0.5,0.2-0.6s0.3-0.2,0.5-0.2h2.7c0.3,0,0.5,0,0.8,0s0.6,0.1,0.9,0.1
	s0.7,0.2,1,0.4c0.4,0.2,0.7,0.5,0.9,0.8c0.3,0.3,0.4,0.6,0.6,1C150.8,267.3,150.9,267.7,150.9,268.2z M149.1,268.3
	c0-0.5-0.1-0.9-0.3-1.3c-0.2-0.3-0.4-0.6-0.7-0.8s-0.6-0.3-0.9-0.3s-0.6-0.1-0.9-0.1h-1.6v5.1h1.5c0.5,0,0.9-0.1,1.3-0.2
	c0.3-0.1,0.6-0.3,0.8-0.5c0.2-0.2,0.4-0.5,0.5-0.8S149.1,268.7,149.1,268.3z"/>
<path class="st3" d="M158.1,268.6c0,0.1,0,0.3,0,0.4c0,0.1,0,0.2,0,0.2s0,0.1-0.1,0.1s-0.1,0-0.1,0c-0.1,0-0.1,0-0.2,0
	c-0.1,0-0.2-0.1-0.3-0.1s-0.2-0.1-0.3-0.1s-0.2,0-0.4,0c-0.2,0-0.3,0-0.5,0.1s-0.3,0.2-0.5,0.3s-0.4,0.4-0.5,0.6
	c-0.2,0.3-0.4,0.5-0.6,0.9v5.8c0,0,0,0.1,0,0.1c0,0-0.1,0.1-0.1,0.1s-0.1,0-0.2,0.1s-0.2,0-0.4,0c-0.2,0-0.3,0-0.4,0
	c-0.1,0-0.2,0-0.3-0.1s-0.1-0.1-0.1-0.1c0,0,0-0.1,0-0.1v-8.8c0,0,0-0.1,0-0.1s0.1-0.1,0.1-0.1s0.1,0,0.2-0.1s0.2,0,0.4,0
	c0.1,0,0.3,0,0.4,0c0.1,0,0.2,0,0.2,0.1s0.1,0.1,0.1,0.1s0,0.1,0,0.1v1.3c0.2-0.4,0.5-0.6,0.7-0.9c0.2-0.2,0.4-0.4,0.6-0.5
	c0.2-0.1,0.4-0.2,0.6-0.3s0.4-0.1,0.6-0.1c0.1,0,0.2,0,0.3,0s0.2,0,0.3,0s0.2,0.1,0.3,0.1c0.1,0,0.2,0.1,0.2,0.1s0.1,0.1,0.1,0.1
	c0,0,0,0.1,0,0.1s0,0.1,0,0.2C158.1,268.4,158.1,268.5,158.1,268.6z"/>
<path class="st3" d="M167.9,272.4c0,0.7-0.1,1.4-0.3,2s-0.5,1.1-0.8,1.6s-0.8,0.8-1.4,1c-0.6,0.2-1.2,0.4-2,0.4
	c-0.7,0-1.4-0.1-1.9-0.3s-1-0.5-1.3-0.9s-0.6-0.9-0.8-1.5s-0.3-1.3-0.3-2c0-0.7,0.1-1.4,0.3-2s0.5-1.1,0.8-1.6
	c0.4-0.4,0.8-0.8,1.4-1c0.6-0.2,1.2-0.4,2-0.4c0.7,0,1.4,0.1,1.9,0.3s1,0.5,1.3,0.9c0.4,0.4,0.6,0.9,0.8,1.5
	C167.8,271,167.9,271.6,167.9,272.4z M166.3,272.5c0-0.5,0-0.9-0.1-1.4s-0.2-0.8-0.4-1.1c-0.2-0.3-0.5-0.6-0.8-0.8s-0.8-0.3-1.3-0.3
	c-0.5,0-0.9,0.1-1.2,0.3s-0.6,0.4-0.9,0.7s-0.4,0.7-0.5,1.1s-0.2,0.9-0.2,1.4c0,0.5,0,0.9,0.1,1.4c0.1,0.4,0.2,0.8,0.4,1.1
	c0.2,0.3,0.5,0.6,0.8,0.8s0.8,0.3,1.3,0.3c0.5,0,0.9-0.1,1.2-0.3c0.4-0.2,0.6-0.4,0.9-0.7s0.4-0.7,0.5-1.1
	C166.2,273.5,166.3,273,166.3,272.5z"/>
<path class="st3" d="M174.7,276.2c0,0.2,0,0.3,0,0.5c0,0.1-0.1,0.2-0.1,0.2c-0.1,0-0.1,0.1-0.2,0.1c-0.1,0-0.2,0.1-0.4,0.1
	c-0.1,0-0.3,0-0.4,0.1c-0.1,0-0.3,0-0.4,0c-0.5,0-0.9-0.1-1.2-0.2c-0.3-0.1-0.6-0.3-0.8-0.5c-0.2-0.2-0.4-0.5-0.4-0.9
	c-0.1-0.4-0.1-0.8-0.1-1.3v-5.1h-1.2c-0.1,0-0.2,0-0.2-0.2s-0.1-0.3-0.1-0.5c0-0.1,0-0.2,0-0.3c0-0.1,0-0.1,0.1-0.2
	c0-0.1,0.1-0.1,0.1-0.1c0,0,0.1,0,0.1,0h1.2v-2.1c0,0,0-0.1,0-0.1s0.1-0.1,0.1-0.1c0.1,0,0.1,0,0.3-0.1c0.1,0,0.2,0,0.4,0
	s0.3,0,0.4,0c0.1,0,0.2,0,0.2,0.1s0.1,0.1,0.1,0.1s0,0.1,0,0.1v2.1h2.3c0.1,0,0.1,0,0.1,0s0.1,0.1,0.1,0.1s0.1,0.1,0.1,0.2
	s0,0.2,0,0.3c0,0.2,0,0.4-0.1,0.5s-0.1,0.2-0.2,0.2h-2.3v4.9c0,0.6,0.1,1.1,0.3,1.4c0.2,0.3,0.5,0.5,1,0.5c0.1,0,0.3,0,0.4,0
	s0.2-0.1,0.3-0.1s0.2-0.1,0.2-0.1s0.1,0,0.2,0c0,0,0.1,0,0.1,0s0.1,0,0.1,0.1c0,0,0,0.1,0,0.2C174.7,276,174.7,276.1,174.7,276.2z"
	/>
<path class="st3" d="M184.7,272.4c0,0.7-0.1,1.4-0.3,2s-0.5,1.1-0.8,1.6s-0.8,0.8-1.4,1c-0.6,0.2-1.2,0.4-2,0.4
	c-0.7,0-1.4-0.1-1.9-0.3s-1-0.5-1.3-0.9s-0.6-0.9-0.8-1.5s-0.3-1.3-0.3-2c0-0.7,0.1-1.4,0.3-2s0.5-1.1,0.8-1.6
	c0.4-0.4,0.8-0.8,1.4-1c0.6-0.2,1.2-0.4,2-0.4c0.7,0,1.4,0.1,1.9,0.3s1,0.5,1.3,0.9c0.4,0.4,0.6,0.9,0.8,1.5
	C184.6,271,184.7,271.6,184.7,272.4z M183.1,272.5c0-0.5,0-0.9-0.1-1.4s-0.2-0.8-0.4-1.1c-0.2-0.3-0.5-0.6-0.8-0.8s-0.8-0.3-1.3-0.3
	c-0.5,0-0.9,0.1-1.2,0.3s-0.6,0.4-0.9,0.7s-0.4,0.7-0.5,1.1s-0.2,0.9-0.2,1.4c0,0.5,0,0.9,0.1,1.4c0.1,0.4,0.2,0.8,0.4,1.1
	c0.2,0.3,0.5,0.6,0.8,0.8s0.8,0.3,1.3,0.3c0.5,0,0.9-0.1,1.2-0.3c0.4-0.2,0.6-0.4,0.9-0.7s0.4-0.7,0.5-1.1
	C183,273.5,183.1,273,183.1,272.5z M181.1,263.8c0-0.1,0.1-0.1,0.1-0.2c0.1,0,0.1-0.1,0.2-0.1c0.1,0,0.2,0,0.3-0.1s0.2,0,0.4,0
	c0.2,0,0.3,0,0.4,0s0.2,0.1,0.2,0.1s0.1,0.1,0.1,0.1c0,0.1,0,0.1-0.1,0.2l-1.8,2.3c-0.1,0.1-0.1,0.1-0.1,0.2s-0.1,0.1-0.1,0.1
	c-0.1,0-0.1,0-0.2,0s-0.2,0-0.3,0c-0.1,0-0.3,0-0.3,0s-0.1,0-0.2-0.1s-0.1-0.1,0-0.1s0-0.1,0.1-0.2L181.1,263.8z"/>
<path class="st3" d="M194.6,267.8c0.2,0,0.3,0,0.4,0.1c0.1,0.1,0.1,0.2,0.1,0.4v8.5c0,0,0,0.1,0,0.1c0,0-0.1,0.1-0.1,0.1
	c-0.1,0-0.1,0-0.3,0.1c-0.1,0-0.2,0-0.4,0c-0.2,0-0.3,0-0.4,0c-0.1,0-0.2,0-0.3-0.1s-0.1-0.1-0.1-0.1c0,0,0-0.1,0-0.1v-7.7H189v4.9
	c0,0.6,0.1,1.1,0.3,1.4c0.2,0.3,0.5,0.5,1,0.5c0.1,0,0.3,0,0.4,0s0.2-0.1,0.3-0.1s0.2-0.1,0.2-0.1c0.1,0,0.1,0,0.2,0
	c0,0,0.1,0,0.1,0s0.1,0,0.1,0.1c0,0,0,0.1,0,0.2c0,0.1,0,0.2,0,0.3c0,0.2,0,0.3,0,0.4c0,0.1-0.1,0.2-0.1,0.2
	c-0.1,0.1-0.1,0.1-0.2,0.1c-0.1,0-0.2,0.1-0.4,0.1c-0.1,0-0.3,0-0.4,0.1c-0.1,0-0.3,0-0.4,0c-0.5,0-0.9-0.1-1.2-0.2
	c-0.3-0.1-0.6-0.3-0.8-0.5c-0.2-0.2-0.4-0.5-0.4-0.9c-0.1-0.4-0.1-0.8-0.1-1.3v-5.1h-1.2c-0.1,0-0.2,0-0.2-0.2s-0.1-0.3-0.1-0.5
	c0-0.1,0-0.2,0-0.3c0-0.1,0-0.1,0.1-0.2c0-0.1,0.1-0.1,0.1-0.1c0,0,0.1,0,0.1,0h1.2v-2.1c0,0,0-0.1,0-0.1s0.1-0.1,0.1-0.1
	s0.1,0,0.3-0.1s0.2,0,0.4,0s0.3,0,0.4,0c0.1,0,0.2,0,0.2,0.1s0.1,0.1,0.1,0.1s0,0.1,0,0.1v2.1L194.6,267.8L194.6,267.8z
	 M195.3,265.1c0,0.4-0.1,0.6-0.2,0.8c-0.1,0.1-0.4,0.2-0.8,0.2c-0.4,0-0.6-0.1-0.8-0.2s-0.2-0.4-0.2-0.8c0-0.4,0.1-0.6,0.2-0.8
	c0.1-0.1,0.4-0.2,0.8-0.2c0.4,0,0.6,0.1,0.8,0.2C195.2,264.5,195.3,264.7,195.3,265.1z"/>
<path class="st3" d="M206,272.3c0,0.8-0.1,1.5-0.3,2.1s-0.4,1.1-0.7,1.6s-0.7,0.8-1.2,1c-0.5,0.2-1,0.4-1.6,0.4
	c-0.3,0-0.5,0-0.7-0.1s-0.4-0.1-0.6-0.2c-0.2-0.1-0.4-0.3-0.6-0.4s-0.4-0.4-0.7-0.6v4.4c0,0,0,0.1,0,0.1s-0.1,0.1-0.1,0.1
	s-0.1,0-0.2,0.1s-0.2,0-0.4,0c-0.2,0-0.3,0-0.4,0c-0.1,0-0.2,0-0.3-0.1s-0.1-0.1-0.1-0.1c0,0,0-0.1,0-0.1v-12.3c0-0.1,0-0.1,0-0.1
	s0.1-0.1,0.1-0.1s0.1,0,0.2,0c0.1,0,0.2,0,0.3,0c0.1,0,0.3,0,0.3,0s0.2,0,0.2,0s0.1,0.1,0.1,0.1c0,0,0,0.1,0,0.1v1.2
	c0.3-0.3,0.5-0.5,0.8-0.7c0.3-0.2,0.5-0.4,0.8-0.5s0.5-0.2,0.8-0.3s0.5-0.1,0.8-0.1c0.6,0,1.2,0.1,1.6,0.4s0.8,0.6,1.1,1
	s0.5,0.9,0.6,1.5C205.9,271.1,206,271.7,206,272.3z M204.3,272.5c0-0.5,0-0.9-0.1-1.3s-0.2-0.8-0.4-1.1s-0.4-0.6-0.7-0.8
	c-0.3-0.2-0.6-0.3-1.1-0.3c-0.2,0-0.4,0-0.6,0.1s-0.4,0.2-0.6,0.3c-0.2,0.1-0.4,0.3-0.7,0.5s-0.5,0.5-0.7,0.8v3.5
	c0.4,0.5,0.9,1,1.3,1.2s0.8,0.4,1.3,0.4c0.4,0,0.8-0.1,1.1-0.3s0.5-0.5,0.7-0.8c0.2-0.3,0.3-0.7,0.4-1.1S204.3,272.9,204.3,272.5z"
	/>
<path class="st3" d="M216.6,272.4c0,0.7-0.1,1.4-0.3,2s-0.5,1.1-0.8,1.6s-0.8,0.8-1.4,1c-0.6,0.2-1.2,0.4-2,0.4
	c-0.7,0-1.4-0.1-1.9-0.3s-1-0.5-1.3-0.9s-0.6-0.9-0.8-1.5s-0.3-1.3-0.3-2c0-0.7,0.1-1.4,0.3-2s0.5-1.1,0.8-1.6
	c0.4-0.4,0.8-0.8,1.4-1c0.6-0.2,1.2-0.4,2-0.4c0.7,0,1.4,0.1,1.9,0.3s1,0.5,1.3,0.9c0.4,0.4,0.6,0.9,0.8,1.5
	C216.5,271,216.6,271.6,216.6,272.4z M214.9,272.5c0-0.5,0-0.9-0.1-1.4s-0.2-0.8-0.4-1.1c-0.2-0.3-0.5-0.6-0.8-0.8s-0.8-0.3-1.3-0.3
	c-0.5,0-0.9,0.1-1.2,0.3s-0.6,0.4-0.9,0.7s-0.4,0.7-0.5,1.1s-0.2,0.9-0.2,1.4c0,0.5,0,0.9,0.1,1.4c0.1,0.4,0.2,0.8,0.4,1.1
	c0.2,0.3,0.5,0.6,0.8,0.8s0.8,0.3,1.3,0.3c0.5,0,0.9-0.1,1.2-0.3c0.4-0.2,0.6-0.4,0.9-0.7s0.4-0.7,0.5-1.1
	C214.9,273.5,214.9,273,214.9,272.5z"/>
<path class="st3" d="M231,276.9c0,0,0,0.1,0,0.1s-0.1,0.1-0.1,0.1c-0.1,0-0.1,0-0.2,0c-0.1,0-0.2,0-0.3,0c-0.1,0-0.3,0-0.3,0
	c-0.1,0-0.2,0-0.2,0s-0.1,0-0.1-0.1s0-0.1,0-0.1v-1.2c-0.5,0.5-0.9,0.9-1.4,1.2s-1,0.4-1.6,0.4c-0.6,0-1.2-0.1-1.6-0.4
	c-0.5-0.3-0.8-0.6-1.1-1s-0.5-0.9-0.6-1.5c-0.1-0.6-0.2-1.2-0.2-1.8c0-0.8,0.1-1.4,0.2-2s0.4-1.1,0.7-1.6s0.7-0.8,1.2-1
	c0.5-0.2,1-0.4,1.6-0.4c0.5,0,1,0.1,1.4,0.3c0.4,0.2,0.9,0.5,1.3,1v-5.1c0,0,0-0.1,0-0.1s0.1-0.1,0.1-0.1c0.1,0,0.1,0,0.3-0.1
	s0.2,0,0.4,0s0.3,0,0.4,0c0.1,0,0.2,0,0.2,0.1s0.1,0.1,0.1,0.1s0,0.1,0,0.1L231,276.9L231,276.9z M229.4,270.7
	c-0.4-0.5-0.9-1-1.3-1.2c-0.4-0.3-0.8-0.4-1.3-0.4c-0.4,0-0.8,0.1-1,0.3c-0.3,0.2-0.5,0.5-0.7,0.8c-0.2,0.3-0.3,0.7-0.4,1.1
	s-0.1,0.8-0.1,1.2c0,0.4,0,0.9,0.1,1.3s0.2,0.8,0.4,1.1c0.2,0.3,0.4,0.6,0.7,0.8s0.6,0.3,1.1,0.3c0.2,0,0.4,0,0.6-0.1
	s0.4-0.2,0.6-0.3c0.2-0.1,0.4-0.3,0.6-0.5c0.2-0.2,0.5-0.5,0.7-0.8L229.4,270.7L229.4,270.7z"/>
<path class="st3" d="M241.4,272.1c0,0.3-0.1,0.4-0.2,0.5c-0.1,0.1-0.3,0.2-0.4,0.2h-5.8c0,0.5,0.1,0.9,0.1,1.3
	c0.1,0.4,0.3,0.7,0.5,1c0.2,0.3,0.5,0.5,0.9,0.6s0.8,0.2,1.3,0.2c0.4,0,0.8,0,1.1-0.1s0.6-0.1,0.9-0.2c0.2-0.1,0.4-0.2,0.6-0.2
	s0.3-0.1,0.4-0.1c0.1,0,0.1,0,0.1,0c0,0,0.1,0.1,0.1,0.1s0,0.1,0,0.2s0,0.2,0,0.3c0,0.1,0,0.2,0,0.2s0,0.1,0,0.2s0,0.1-0.1,0.1
	s-0.1,0.1-0.1,0.1c0,0-0.1,0.1-0.3,0.2s-0.4,0.2-0.7,0.2s-0.6,0.1-1,0.2s-0.8,0.1-1.2,0.1c-0.7,0-1.4-0.1-1.9-0.3
	c-0.5-0.2-1-0.5-1.4-0.9s-0.6-0.9-0.8-1.5c-0.2-0.6-0.3-1.3-0.3-2.1c0-0.8,0.1-1.4,0.3-2s0.5-1.1,0.8-1.5c0.4-0.4,0.8-0.7,1.3-1
	c0.5-0.2,1.1-0.3,1.8-0.3c0.7,0,1.3,0.1,1.8,0.3c0.5,0.2,0.9,0.5,1.2,0.9s0.5,0.8,0.7,1.3s0.2,1,0.2,1.6L241.4,272.1L241.4,272.1z
	 M239.7,271.6c0-0.9-0.2-1.5-0.6-2c-0.4-0.5-1-0.7-1.8-0.7c-0.4,0-0.8,0.1-1.1,0.2c-0.3,0.1-0.6,0.4-0.8,0.6s-0.4,0.5-0.5,0.9
	s-0.2,0.7-0.2,1H239.7z"/>
<path class="st3" d="M254.9,276.9c0,0.1,0,0.1-0.1,0.2s-0.1,0.1-0.2,0.1s-0.2,0-0.4,0c-0.2,0-0.3,0-0.4,0s-0.2,0-0.2-0.1
	s-0.1-0.1-0.1-0.2V276c-0.4,0.4-0.8,0.7-1.3,1s-1,0.3-1.5,0.3c-0.5,0-0.9-0.1-1.3-0.2s-0.7-0.3-1-0.5s-0.5-0.5-0.6-0.8
	s-0.2-0.7-0.2-1.1c0-0.5,0.1-0.9,0.3-1.3c0.2-0.4,0.5-0.7,0.9-0.9c0.4-0.2,0.8-0.4,1.4-0.5s1.2-0.2,1.9-0.2h1.2V271
	c0-0.3,0-0.6-0.1-0.9s-0.2-0.5-0.4-0.6s-0.4-0.3-0.6-0.4s-0.6-0.1-0.9-0.1c-0.4,0-0.8,0-1.1,0.1c-0.3,0.1-0.6,0.2-0.8,0.3
	s-0.4,0.2-0.6,0.3s-0.3,0.1-0.4,0.1c-0.1,0-0.1,0-0.1,0s-0.1-0.1-0.1-0.1s-0.1-0.1-0.1-0.2c0-0.1,0-0.2,0-0.3c0-0.2,0-0.3,0-0.4
	c0-0.1,0.1-0.2,0.2-0.3s0.2-0.2,0.4-0.3s0.5-0.2,0.7-0.3s0.6-0.2,0.9-0.2s0.7-0.1,1-0.1c0.6,0,1.2,0.1,1.6,0.2s0.8,0.4,1.1,0.6
	s0.5,0.6,0.6,1s0.2,0.9,0.2,1.4L254.9,276.9L254.9,276.9z M253.3,272.9H252c-0.4,0-0.8,0-1.1,0.1s-0.6,0.2-0.8,0.3s-0.4,0.3-0.5,0.5
	s-0.1,0.4-0.1,0.7c0,0.5,0.1,0.8,0.4,1.1c0.3,0.3,0.7,0.4,1.2,0.4c0.4,0,0.8-0.1,1.2-0.3s0.7-0.5,1.1-1L253.3,272.9L253.3,272.9z"/>
<path class="st3" d="M259.3,276.9c0,0,0,0.1,0,0.1s-0.1,0.1-0.1,0.1s-0.1,0-0.2,0.1s-0.2,0-0.4,0s-0.3,0-0.4,0s-0.2,0-0.3-0.1
	s-0.1-0.1-0.1-0.1s0-0.1,0-0.1v-13c0,0,0-0.1,0-0.1s0.1-0.1,0.1-0.1s0.1,0,0.3-0.1s0.2,0,0.4,0s0.3,0,0.4,0s0.2,0,0.2,0.1
	s0.1,0.1,0.1,0.1s0,0.1,0,0.1V276.9z"/>
<path class="st3" d="M266.8,276.2c0,0.2,0,0.3,0,0.5s-0.1,0.2-0.1,0.2s-0.1,0.1-0.2,0.1s-0.2,0.1-0.4,0.1s-0.3,0-0.4,0.1
	s-0.3,0-0.5,0c-0.5,0-0.9-0.1-1.2-0.2s-0.6-0.3-0.8-0.5s-0.4-0.5-0.5-0.9s-0.1-0.8-0.1-1.3v-5.1h-1.2c-0.1,0-0.2,0-0.2-0.2
	s-0.1-0.3-0.1-0.5c0-0.1,0-0.2,0-0.3s0-0.1,0.1-0.2s0.1-0.1,0.1-0.1s0.1,0,0.1,0h1.2v-2.1c0,0,0-0.1,0-0.1s0.1-0.1,0.1-0.1
	s0.1,0,0.3-0.1s0.2,0,0.4,0s0.3,0,0.4,0s0.2,0,0.2,0.1s0.1,0.1,0.1,0.1s0,0.1,0,0.1v2.1h2.3c0,0,0.1,0,0.1,0s0.1,0.1,0.1,0.1
	s0,0.1,0.1,0.2s0,0.2,0,0.3c0,0.2,0,0.4-0.1,0.5s-0.1,0.2-0.2,0.2h-2.3v4.9c0,0.6,0.1,1.1,0.3,1.4s0.5,0.5,1,0.5c0.1,0,0.3,0,0.4,0
	s0.2-0.1,0.3-0.1s0.2-0.1,0.2-0.1s0.1,0,0.2,0c0,0,0.1,0,0.1,0s0,0,0.1,0.1s0,0.1,0,0.2S266.8,276.1,266.8,276.2z"/>
<path class="st3" d="M275.5,276.9c0,0.1,0,0.1-0.1,0.2s-0.1,0.1-0.2,0.1s-0.2,0-0.4,0c-0.2,0-0.3,0-0.4,0s-0.2,0-0.2-0.1
	s-0.1-0.1-0.1-0.2V276c-0.4,0.4-0.8,0.7-1.3,1s-1,0.3-1.5,0.3c-0.5,0-0.9-0.1-1.3-0.2s-0.7-0.3-1-0.5s-0.5-0.5-0.6-0.8
	s-0.2-0.7-0.2-1.1c0-0.5,0.1-0.9,0.3-1.3s0.5-0.7,0.9-0.9s0.8-0.4,1.4-0.5s1.2-0.2,1.9-0.2h1.2V271c0-0.3,0-0.6-0.1-0.9
	s-0.2-0.5-0.4-0.6s-0.4-0.3-0.6-0.4s-0.6-0.1-0.9-0.1c-0.4,0-0.8,0-1.1,0.1s-0.6,0.2-0.8,0.3s-0.4,0.2-0.6,0.3s-0.3,0.1-0.4,0.1
	c0,0-0.1,0-0.1,0s-0.1-0.1-0.1-0.1s0-0.1-0.1-0.2s0-0.2,0-0.3c0-0.2,0-0.3,0-0.4s0.1-0.2,0.2-0.3s0.2-0.2,0.5-0.3s0.5-0.2,0.7-0.3
	s0.6-0.2,0.9-0.2s0.7-0.1,1-0.1c0.6,0,1.2,0.1,1.6,0.2s0.8,0.4,1.1,0.6s0.5,0.6,0.6,1s0.2,0.9,0.2,1.4L275.5,276.9L275.5,276.9z
	 M273.9,272.9h-1.4c-0.4,0-0.8,0-1.1,0.1s-0.6,0.2-0.8,0.3s-0.4,0.3-0.5,0.5s-0.1,0.4-0.1,0.7c0,0.5,0.1,0.8,0.4,1.1
	s0.7,0.4,1.2,0.4c0.4,0,0.8-0.1,1.2-0.3s0.7-0.5,1.1-1L273.9,272.9L273.9,272.9z"/>
<path class="st3" d="M290.6,276.9c0,0,0,0.1,0,0.1s-0.1,0.1-0.1,0.1s-0.1,0-0.3,0.1s-0.2,0-0.4,0s-0.3,0-0.4,0s-0.2,0-0.3-0.1
	S289,277,289,277s0-0.1,0-0.1v-7.7H285v7.7c0,0,0,0.1,0,0.1s-0.1,0.1-0.1,0.1s-0.1,0-0.3,0.1s-0.2,0-0.4,0s-0.3,0-0.4,0
	s-0.2,0-0.3-0.1s-0.1-0.1-0.1-0.1s0-0.1,0-0.1v-7.7h-1.2c-0.1,0-0.2,0-0.2-0.2s-0.1-0.3-0.1-0.5c0-0.1,0-0.2,0-0.3s0-0.1,0.1-0.2
	s0.1-0.1,0.1-0.1s0.1,0,0.1,0h1.2v-1c0-0.6,0.1-1.1,0.2-1.6s0.3-0.8,0.5-1.1s0.5-0.5,0.9-0.6s0.7-0.2,1.2-0.2c0.1,0,0.3,0,0.4,0
	s0.3,0,0.4,0.1s0.2,0,0.3,0.1s0.1,0.1,0.2,0.1s0.1,0.1,0.1,0.1s0,0.1,0,0.1s0,0.1,0,0.2s0,0.2,0,0.3c0,0.2,0,0.4,0,0.5
	s-0.1,0.1-0.2,0.1c0,0-0.1,0-0.2,0s-0.1,0-0.2-0.1s-0.2,0-0.3-0.1s-0.3,0-0.5,0c-0.5,0-0.8,0.2-1,0.5s-0.3,0.9-0.3,1.6v1h5.1
	c0.2,0,0.3,0,0.4,0.1s0.1,0.2,0.1,0.4L290.6,276.9L290.6,276.9z M290.7,265.1c0,0.2,0,0.3,0,0.5s-0.1,0.2-0.1,0.3s-0.2,0.1-0.3,0.2
	s-0.3,0-0.5,0s-0.4,0-0.5,0s-0.2-0.1-0.3-0.2s-0.1-0.2-0.2-0.3s0-0.3,0-0.5s0-0.3,0-0.5s0.1-0.2,0.2-0.3s0.2-0.1,0.3-0.2
	s0.3,0,0.5,0c0.2,0,0.4,0,0.5,0s0.2,0.1,0.3,0.2s0.1,0.2,0.1,0.3S290.7,264.9,290.7,265.1z"/>
<path class="st3" d="M301,276.9c0,0,0,0.1,0,0.1s-0.1,0.1-0.1,0.1s-0.1,0-0.2,0s-0.2,0-0.3,0c-0.1,0-0.3,0-0.3,0s-0.2,0-0.2,0
	s-0.1,0-0.1-0.1s0-0.1,0-0.1v-1.2c-0.5,0.5-0.9,0.9-1.4,1.2s-1,0.4-1.6,0.4c-0.6,0-1.2-0.1-1.6-0.4s-0.8-0.6-1.1-1s-0.5-0.9-0.6-1.5
	s-0.2-1.2-0.2-1.8c0-0.8,0.1-1.4,0.2-2s0.4-1.1,0.7-1.6s0.7-0.8,1.2-1s1-0.4,1.6-0.4c0.5,0,1,0.1,1.4,0.3s0.9,0.5,1.3,1v-5.1
	c0,0,0-0.1,0-0.1s0.1-0.1,0.1-0.1s0.1,0,0.3-0.1s0.2,0,0.4,0s0.3,0,0.4,0s0.2,0,0.2,0.1s0.1,0.1,0.1,0.1s0,0.1,0,0.1L301,276.9
	L301,276.9z M299.4,270.7c-0.4-0.5-0.9-1-1.3-1.2s-0.8-0.4-1.3-0.4c-0.4,0-0.8,0.1-1,0.3s-0.5,0.5-0.7,0.8s-0.3,0.7-0.4,1.1
	s-0.1,0.8-0.1,1.2c0,0.4,0,0.9,0.1,1.3s0.2,0.8,0.4,1.1s0.4,0.6,0.7,0.8s0.6,0.3,1,0.3c0.2,0,0.4,0,0.6-0.1s0.4-0.2,0.6-0.3
	s0.4-0.3,0.6-0.5s0.5-0.5,0.7-0.8L299.4,270.7L299.4,270.7z"/>
<path class="st3" d="M311.3,272.1c0,0.3-0.1,0.4-0.2,0.5s-0.3,0.2-0.4,0.2h-5.8c0,0.5,0,0.9,0.1,1.3s0.3,0.7,0.5,1
	c0.2,0.3,0.5,0.5,0.9,0.6c0.4,0.1,0.8,0.2,1.3,0.2c0.4,0,0.8,0,1.1-0.1s0.6-0.1,0.9-0.2c0.2-0.1,0.4-0.2,0.6-0.2
	c0.1-0.1,0.3-0.1,0.4-0.1c0,0,0.1,0,0.1,0s0.1,0.1,0.1,0.1s0,0.1,0,0.2s0,0.2,0,0.3c0,0.1,0,0.2,0,0.2s0,0.1,0,0.2s0,0.1,0,0.1
	s0,0.1-0.1,0.1s-0.1,0.1-0.3,0.2s-0.4,0.2-0.7,0.2s-0.6,0.1-1,0.2s-0.8,0.1-1.2,0.1c-0.7,0-1.4-0.1-1.9-0.3s-1-0.5-1.4-0.9
	s-0.6-0.9-0.8-1.5s-0.3-1.3-0.3-2.1c0-0.8,0.1-1.4,0.3-2s0.5-1.1,0.8-1.5s0.8-0.7,1.3-1s1.1-0.3,1.8-0.3c0.7,0,1.3,0.1,1.8,0.3
	s0.9,0.5,1.2,0.9s0.5,0.8,0.7,1.3s0.2,1,0.2,1.6L311.3,272.1L311.3,272.1z M309.7,271.6c0-0.9-0.2-1.5-0.6-2c-0.4-0.5-1-0.7-1.8-0.7
	c-0.4,0-0.8,0.1-1,0.2c-0.3,0.1-0.5,0.4-0.8,0.6s-0.4,0.5-0.5,0.9s-0.2,0.7-0.2,1H309.7z"/>
<path class="st3" d="M315.2,276.9c0,0,0,0.1,0,0.1s-0.1,0.1-0.1,0.1s-0.1,0-0.2,0.1s-0.2,0-0.4,0s-0.3,0-0.4,0s-0.2,0-0.3-0.1
	s-0.1-0.1-0.1-0.1s0-0.1,0-0.1v-13c0,0,0-0.1,0-0.1s0.1-0.1,0.1-0.1s0.1,0,0.3-0.1s0.2,0,0.4,0s0.3,0,0.4,0s0.2,0,0.2,0.1
	s0.1,0.1,0.1,0.1s0,0.1,0,0.1V276.9z"/>
<path class="st3" d="M319.7,265.1c0,0.4-0.1,0.6-0.2,0.8s-0.4,0.2-0.8,0.2s-0.6-0.1-0.8-0.2s-0.2-0.4-0.2-0.8c0-0.4,0.1-0.6,0.2-0.8
	s0.4-0.2,0.8-0.2s0.6,0.1,0.8,0.2S319.7,264.7,319.7,265.1z M319.6,276.9c0,0,0,0.1,0,0.1s-0.1,0.1-0.1,0.1s-0.1,0-0.2,0.1
	s-0.2,0-0.4,0s-0.3,0-0.4,0s-0.2,0-0.3-0.1S318,277,318,277s0-0.1,0-0.1v-8.8c0,0,0-0.1,0-0.1s0.1-0.1,0.1-0.1s0.1,0,0.3-0.1
	s0.2,0,0.4,0s0.3,0,0.4,0s0.2,0,0.2,0.1s0.1,0.1,0.1,0.1s0,0.1,0,0.1V276.9z"/>
<path class="st3" d="M329.9,276.9c0,0,0,0.1,0,0.1s-0.1,0.1-0.1,0.1s-0.1,0-0.2,0s-0.2,0-0.3,0c-0.1,0-0.3,0-0.3,0s-0.2,0-0.2,0
	s-0.1,0-0.1-0.1s0-0.1,0-0.1v-1.2c-0.5,0.5-0.9,0.9-1.4,1.2s-1,0.4-1.6,0.4c-0.6,0-1.2-0.1-1.6-0.4s-0.8-0.6-1.1-1s-0.5-0.9-0.6-1.5
	s-0.2-1.2-0.2-1.8c0-0.8,0.1-1.4,0.2-2s0.4-1.1,0.7-1.6s0.7-0.8,1.2-1s1-0.4,1.6-0.4c0.5,0,1,0.1,1.4,0.3s0.9,0.5,1.3,1v-5.1
	c0,0,0-0.1,0-0.1s0.1-0.1,0.1-0.1s0.1,0,0.3-0.1s0.2,0,0.4,0s0.3,0,0.4,0s0.2,0,0.2,0.1s0.1,0.1,0.1,0.1s0,0.1,0,0.1L329.9,276.9
	L329.9,276.9z M328.3,270.7c-0.4-0.5-0.9-1-1.3-1.2s-0.8-0.4-1.3-0.4c-0.4,0-0.8,0.1-1,0.3s-0.5,0.5-0.7,0.8s-0.3,0.7-0.4,1.1
	s-0.1,0.8-0.1,1.2c0,0.4,0,0.9,0.1,1.3s0.2,0.8,0.4,1.1s0.4,0.6,0.7,0.8s0.6,0.3,1,0.3c0.2,0,0.4,0,0.6-0.1s0.4-0.2,0.6-0.3
	s0.4-0.3,0.6-0.5s0.5-0.5,0.7-0.8L328.3,270.7L328.3,270.7z"/>
<path class="st3" d="M339.3,276.9c0,0.1,0,0.1-0.1,0.2s-0.1,0.1-0.2,0.1s-0.2,0-0.4,0c-0.2,0-0.3,0-0.4,0s-0.2,0-0.2-0.1
	s-0.1-0.1-0.1-0.2V276c-0.4,0.4-0.8,0.7-1.3,1s-1,0.3-1.5,0.3c-0.5,0-0.9-0.1-1.3-0.2s-0.7-0.3-1-0.5s-0.5-0.5-0.6-0.8
	s-0.2-0.7-0.2-1.1c0-0.5,0.1-0.9,0.3-1.3s0.5-0.7,0.9-0.9s0.8-0.4,1.4-0.5s1.2-0.2,1.9-0.2h1.2V271c0-0.3,0-0.6-0.1-0.9
	s-0.2-0.5-0.4-0.6s-0.4-0.3-0.6-0.4s-0.6-0.1-0.9-0.1c-0.4,0-0.8,0-1.1,0.1s-0.6,0.2-0.8,0.3s-0.4,0.2-0.6,0.3s-0.3,0.1-0.4,0.1
	c0,0-0.1,0-0.1,0s-0.1-0.1-0.1-0.1s0-0.1-0.1-0.2s0-0.2,0-0.3c0-0.2,0-0.3,0-0.4s0.1-0.2,0.2-0.3s0.2-0.2,0.5-0.3s0.5-0.2,0.7-0.3
	s0.6-0.2,0.9-0.2s0.7-0.1,1-0.1c0.6,0,1.2,0.1,1.6,0.2s0.8,0.4,1.1,0.6s0.5,0.6,0.6,1s0.2,0.9,0.2,1.4L339.3,276.9L339.3,276.9z
	 M337.7,272.9h-1.4c-0.4,0-0.8,0-1.1,0.1s-0.6,0.2-0.8,0.3s-0.4,0.3-0.5,0.5s-0.1,0.4-0.1,0.7c0,0.5,0.1,0.8,0.4,1.1
	s0.7,0.4,1.2,0.4c0.4,0,0.8-0.1,1.2-0.3s0.7-0.5,1.1-1L337.7,272.9L337.7,272.9z"/>
<path class="st3" d="M349.6,276.9c0,0,0,0.1,0,0.1s-0.1,0.1-0.1,0.1s-0.1,0-0.2,0s-0.2,0-0.3,0c-0.1,0-0.3,0-0.3,0s-0.2,0-0.2,0
	s-0.1,0-0.1-0.1s0-0.1,0-0.1v-1.2c-0.5,0.5-0.9,0.9-1.4,1.2s-1,0.4-1.6,0.4c-0.6,0-1.2-0.1-1.6-0.4s-0.8-0.6-1.1-1s-0.5-0.9-0.6-1.5
	s-0.2-1.2-0.2-1.8c0-0.8,0.1-1.4,0.2-2s0.4-1.1,0.7-1.6s0.7-0.8,1.2-1s1-0.4,1.6-0.4c0.5,0,1,0.1,1.4,0.3s0.9,0.5,1.3,1v-5.1
	c0,0,0-0.1,0-0.1s0.1-0.1,0.1-0.1s0.1,0,0.3-0.1s0.2,0,0.4,0s0.3,0,0.4,0s0.2,0,0.2,0.1s0.1,0.1,0.1,0.1s0,0.1,0,0.1L349.6,276.9
	L349.6,276.9z M348,270.7c-0.4-0.5-0.9-1-1.3-1.2s-0.8-0.4-1.3-0.4c-0.4,0-0.8,0.1-1,0.3s-0.5,0.5-0.7,0.8s-0.3,0.7-0.4,1.1
	s-0.1,0.8-0.1,1.2c0,0.4,0,0.9,0.1,1.3s0.2,0.8,0.4,1.1s0.4,0.6,0.7,0.8s0.6,0.3,1,0.3c0.2,0,0.4,0,0.6-0.1s0.4-0.2,0.6-0.3
	s0.4-0.3,0.6-0.5s0.5-0.5,0.7-0.8L348,270.7L348,270.7z"/>
<path class="st3" d="M360,272.1c0,0.3-0.1,0.4-0.2,0.5s-0.3,0.2-0.4,0.2h-5.8c0,0.5,0,0.9,0.1,1.3s0.3,0.7,0.5,1
	c0.2,0.3,0.5,0.5,0.9,0.6c0.4,0.1,0.8,0.2,1.3,0.2c0.4,0,0.8,0,1.1-0.1s0.6-0.1,0.9-0.2c0.2-0.1,0.4-0.2,0.6-0.2
	c0.1-0.1,0.3-0.1,0.4-0.1c0,0,0.1,0,0.1,0s0.1,0.1,0.1,0.1s0,0.1,0,0.2s0,0.2,0,0.3c0,0.1,0,0.2,0,0.2s0,0.1,0,0.2s0,0.1,0,0.1
	s0,0.1-0.1,0.1s-0.1,0.1-0.3,0.2s-0.4,0.2-0.7,0.2s-0.6,0.1-1,0.2s-0.8,0.1-1.2,0.1c-0.7,0-1.4-0.1-1.9-0.3s-1-0.5-1.4-0.9
	s-0.6-0.9-0.8-1.5s-0.3-1.3-0.3-2.1c0-0.8,0.1-1.4,0.3-2s0.5-1.1,0.8-1.5s0.8-0.7,1.3-1s1.1-0.3,1.8-0.3c0.7,0,1.3,0.1,1.8,0.3
	s0.9,0.5,1.2,0.9s0.5,0.8,0.7,1.3s0.2,1,0.2,1.6L360,272.1L360,272.1z M358.4,271.6c0-0.9-0.2-1.5-0.6-2c-0.4-0.5-1-0.7-1.8-0.7
	c-0.4,0-0.8,0.1-1,0.2c-0.3,0.1-0.5,0.4-0.8,0.6s-0.4,0.5-0.5,0.9s-0.2,0.7-0.2,1H358.4z"/>
<path class="st3" d="M180.6,298.2c0,0.1,0,0.2,0,0.3c0,0.1,0,0.2-0.1,0.2s-0.1,0.1-0.1,0.1c0,0-0.1,0-0.1,0h-3.6v11c0,0,0,0.1,0,0.1
	s-0.1,0.1-0.1,0.1c-0.1,0-0.1,0-0.3,0.1s-0.2,0-0.4,0c-0.2,0-0.3,0-0.4,0c-0.1,0-0.2,0-0.3-0.1s-0.1,0-0.1-0.1s0-0.1,0-0.1v-11h-3.6
	c-0.1,0-0.1,0-0.1,0s-0.1-0.1-0.1-0.1c0-0.1-0.1-0.1-0.1-0.2c0-0.1,0-0.2,0-0.3s0-0.2,0-0.3c0-0.1,0-0.2,0.1-0.2
	c0-0.1,0.1-0.1,0.1-0.1c0,0,0.1,0,0.1,0h8.8c0.1,0,0.1,0,0.1,0s0.1,0.1,0.1,0.1s0.1,0.1,0.1,0.2C180.6,298,180.6,298.1,180.6,298.2z
	"/>
<path class="st3" d="M188.3,305.1c0,0.3-0.1,0.4-0.2,0.5c-0.1,0.1-0.3,0.2-0.4,0.2h-5.8c0,0.5,0.1,0.9,0.1,1.3
	c0.1,0.4,0.3,0.7,0.5,1c0.2,0.3,0.5,0.5,0.9,0.6s0.8,0.2,1.3,0.2c0.4,0,0.8,0,1.1-0.1s0.6-0.1,0.9-0.2c0.2-0.1,0.4-0.2,0.6-0.2
	s0.3-0.1,0.4-0.1c0.1,0,0.1,0,0.1,0c0,0,0.1,0.1,0.1,0.1s0,0.1,0,0.2s0,0.2,0,0.3c0,0.1,0,0.2,0,0.2s0,0.1,0,0.2s0,0.1-0.1,0.1
	s-0.1,0.1-0.1,0.1c0,0-0.1,0.1-0.3,0.2s-0.4,0.2-0.7,0.2s-0.6,0.1-1,0.2s-0.8,0.1-1.2,0.1c-0.7,0-1.4-0.1-1.9-0.3
	c-0.5-0.2-1-0.5-1.4-0.9s-0.6-0.9-0.8-1.5c-0.2-0.6-0.3-1.3-0.3-2.1c0-0.8,0.1-1.4,0.3-2s0.5-1.1,0.8-1.5c0.4-0.4,0.8-0.7,1.3-1
	c0.5-0.2,1.1-0.3,1.8-0.3c0.7,0,1.3,0.1,1.8,0.3c0.5,0.2,0.9,0.5,1.2,0.9s0.5,0.8,0.7,1.3s0.2,1,0.2,1.6L188.3,305.1L188.3,305.1z
	 M186.7,304.6c0-0.9-0.2-1.5-0.6-2c-0.4-0.5-1-0.7-1.8-0.7c-0.4,0-0.8,0.1-1.1,0.2c-0.3,0.1-0.6,0.4-0.8,0.6s-0.4,0.5-0.5,0.9
	s-0.2,0.7-0.2,1H186.7z"/>
<path class="st3" d="M196.1,307.5c0,0.5-0.1,0.9-0.3,1.2s-0.4,0.6-0.7,0.9c-0.3,0.2-0.7,0.4-1.1,0.5c-0.4,0.1-0.9,0.2-1.4,0.2
	c-0.3,0-0.6,0-0.9-0.1s-0.5-0.1-0.8-0.2s-0.4-0.1-0.6-0.2s-0.3-0.1-0.3-0.2c-0.1-0.1-0.1-0.2-0.2-0.3c0-0.1-0.1-0.3-0.1-0.5
	c0-0.1,0-0.2,0-0.3c0-0.1,0-0.1,0.1-0.2s0.1-0.1,0.1-0.1c0,0,0.1,0,0.1,0c0.1,0,0.2,0,0.3,0.1c0.1,0.1,0.3,0.2,0.5,0.3
	s0.4,0.2,0.7,0.3s0.6,0.1,1,0.1c0.3,0,0.5,0,0.7-0.1s0.4-0.1,0.6-0.3c0.2-0.1,0.3-0.3,0.4-0.4s0.1-0.4,0.1-0.6s-0.1-0.5-0.2-0.6
	s-0.3-0.3-0.5-0.5s-0.4-0.3-0.7-0.4s-0.5-0.2-0.8-0.3c-0.3-0.1-0.6-0.2-0.8-0.4s-0.5-0.3-0.7-0.5s-0.4-0.4-0.5-0.7s-0.2-0.6-0.2-1
	c0-0.3,0.1-0.7,0.2-1c0.1-0.3,0.3-0.6,0.6-0.8s0.6-0.4,1-0.6s0.9-0.2,1.4-0.2c0.2,0,0.5,0,0.7,0.1s0.4,0.1,0.6,0.1
	c0.2,0.1,0.4,0.1,0.5,0.2c0.1,0.1,0.2,0.1,0.3,0.2s0.1,0.1,0.1,0.1c0,0,0,0.1,0.1,0.1s0,0.1,0,0.2s0,0.2,0,0.3c0,0.1,0,0.2,0,0.3
	s0,0.1-0.1,0.2c0,0-0.1,0.1-0.1,0.1s-0.1,0-0.1,0c-0.1,0-0.1,0-0.3-0.1c-0.1-0.1-0.3-0.1-0.4-0.2s-0.4-0.2-0.6-0.2
	c-0.2-0.1-0.5-0.1-0.8-0.1c-0.3,0-0.5,0-0.7,0.1s-0.4,0.1-0.5,0.3c-0.1,0.1-0.2,0.3-0.3,0.4s-0.1,0.3-0.1,0.5c0,0.3,0.1,0.5,0.2,0.6
	c0.1,0.2,0.3,0.3,0.5,0.5c0.2,0.1,0.4,0.3,0.7,0.4c0.3,0.1,0.5,0.2,0.8,0.3c0.3,0.1,0.6,0.2,0.8,0.4c0.3,0.1,0.5,0.3,0.7,0.5
	s0.4,0.4,0.5,0.7S196.1,307.1,196.1,307.5z"/>
<path class="st3" d="M203,309.2c0,0.2,0,0.3,0,0.5c0,0.1-0.1,0.2-0.1,0.2c-0.1,0-0.1,0.1-0.2,0.1c-0.1,0-0.2,0.1-0.4,0.1
	c-0.1,0-0.3,0-0.4,0.1c-0.1,0-0.3,0-0.4,0c-0.5,0-0.9-0.1-1.2-0.2c-0.3-0.1-0.6-0.3-0.8-0.5c-0.2-0.2-0.4-0.5-0.4-0.9
	c-0.1-0.4-0.1-0.8-0.1-1.3v-5.1h-1.2c-0.1,0-0.2,0-0.2-0.2s-0.1-0.3-0.1-0.5c0-0.1,0-0.2,0-0.3c0-0.1,0-0.1,0.1-0.2
	c0-0.1,0.1-0.1,0.1-0.1c0,0,0.1,0,0.1,0h1.2v-2.1c0,0,0-0.1,0-0.1s0.1-0.1,0.1-0.1c0.1,0,0.1,0,0.3-0.1c0.1,0,0.2,0,0.4,0
	s0.3,0,0.4,0c0.1,0,0.2,0,0.2,0.1s0.1,0.1,0.1,0.1s0,0.1,0,0.1v2.1h2.3c0.1,0,0.1,0,0.1,0s0.1,0.1,0.1,0.1s0.1,0.1,0.1,0.2
	s0,0.2,0,0.3c0,0.2,0,0.4-0.1,0.5s-0.1,0.2-0.2,0.2h-2.3v4.9c0,0.6,0.1,1.1,0.3,1.4c0.2,0.3,0.5,0.5,1,0.5c0.1,0,0.3,0,0.4,0
	s0.2-0.1,0.3-0.1s0.2-0.1,0.2-0.1s0.1,0,0.2,0c0,0,0.1,0,0.1,0s0.1,0,0.1,0.1c0,0,0,0.1,0,0.2C203,309,203,309.1,203,309.2z"/>
<path class="st3" d="M212.3,305.1c0,0.3-0.1,0.4-0.2,0.5c-0.1,0.1-0.3,0.2-0.4,0.2h-5.8c0,0.5,0.1,0.9,0.1,1.3
	c0.1,0.4,0.3,0.7,0.5,1c0.2,0.3,0.5,0.5,0.9,0.6s0.8,0.2,1.3,0.2c0.4,0,0.8,0,1.1-0.1s0.6-0.1,0.9-0.2c0.2-0.1,0.4-0.2,0.6-0.2
	c0.1-0.1,0.3-0.1,0.4-0.1c0,0,0.1,0,0.1,0s0.1,0.1,0.1,0.1s0,0.1,0,0.2s0,0.2,0,0.3c0,0.1,0,0.2,0,0.2s0,0.1,0,0.2s0,0.1-0.1,0.1
	s-0.1,0.1-0.1,0.1c0,0-0.1,0.1-0.3,0.2s-0.4,0.2-0.7,0.2s-0.6,0.1-1,0.2s-0.8,0.1-1.2,0.1c-0.7,0-1.4-0.1-1.9-0.3
	c-0.5-0.2-1-0.5-1.4-0.9s-0.6-0.9-0.8-1.5c-0.2-0.6-0.3-1.3-0.3-2.1c0-0.8,0.1-1.4,0.3-2s0.5-1.1,0.8-1.5c0.4-0.4,0.8-0.7,1.3-1
	c0.5-0.2,1.1-0.3,1.8-0.3c0.7,0,1.3,0.1,1.8,0.3s0.9,0.5,1.2,0.9s0.5,0.8,0.7,1.3s0.2,1,0.2,1.6L212.3,305.1L212.3,305.1z
	 M210.7,304.6c0-0.9-0.2-1.5-0.6-2s-1-0.7-1.8-0.7c-0.4,0-0.8,0.1-1.1,0.2c-0.3,0.1-0.6,0.4-0.8,0.6s-0.4,0.5-0.5,0.9
	s-0.2,0.7-0.2,1H210.7z"/>
<path class="st3" d="M226.8,309.9c0,0,0,0.1,0,0.1s-0.1,0.1-0.1,0.1s-0.1,0-0.2,0c-0.1,0-0.2,0-0.3,0c-0.1,0-0.3,0-0.3,0
	c-0.1,0-0.2,0-0.2,0s-0.1,0-0.1-0.1s0-0.1,0-0.1v-1.2c-0.5,0.5-0.9,0.9-1.4,1.2s-1,0.4-1.6,0.4c-0.6,0-1.2-0.1-1.6-0.4
	c-0.5-0.3-0.8-0.6-1.1-1s-0.5-0.9-0.6-1.5c-0.1-0.6-0.2-1.2-0.2-1.8c0-0.8,0.1-1.4,0.2-2s0.4-1.1,0.7-1.6s0.7-0.8,1.2-1
	c0.5-0.2,1-0.4,1.6-0.4c0.5,0,1,0.1,1.4,0.3c0.4,0.2,0.9,0.5,1.3,1v-5.1c0,0,0-0.1,0-0.1s0.1-0.1,0.1-0.1c0.1,0,0.1,0,0.3-0.1
	s0.2,0,0.4,0s0.3,0,0.4,0c0.1,0,0.2,0,0.2,0.1s0.1,0.1,0.1,0.1s0,0.1,0,0.1L226.8,309.9L226.8,309.9z M225.2,303.7
	c-0.4-0.5-0.9-1-1.3-1.2c-0.4-0.3-0.8-0.4-1.3-0.4c-0.4,0-0.8,0.1-1,0.3c-0.3,0.2-0.5,0.5-0.7,0.8c-0.2,0.3-0.3,0.7-0.4,1.1
	s-0.1,0.8-0.1,1.2c0,0.4,0,0.9,0.1,1.3s0.2,0.8,0.4,1.1c0.2,0.3,0.4,0.6,0.7,0.8s0.6,0.3,1.1,0.3c0.2,0,0.4,0,0.6-0.1
	s0.4-0.2,0.6-0.3c0.2-0.1,0.4-0.3,0.6-0.5c0.2-0.2,0.5-0.5,0.7-0.8L225.2,303.7L225.2,303.7z"/>
<path class="st3" d="M237.2,305.1c0,0.3-0.1,0.4-0.2,0.5c-0.1,0.1-0.3,0.2-0.4,0.2h-5.8c0,0.5,0.1,0.9,0.1,1.3
	c0.1,0.4,0.3,0.7,0.5,1c0.2,0.3,0.5,0.5,0.9,0.6s0.8,0.2,1.3,0.2c0.4,0,0.8,0,1.1-0.1s0.6-0.1,0.9-0.2c0.2-0.1,0.4-0.2,0.6-0.2
	c0.1-0.1,0.3-0.1,0.4-0.1c0,0,0.1,0,0.1,0s0.1,0.1,0.1,0.1s0,0.1,0,0.2s0,0.2,0,0.3c0,0.1,0,0.2,0,0.2s0,0.1,0,0.2s0,0.1-0.1,0.1
	s-0.1,0.1-0.1,0.1c0,0-0.1,0.1-0.3,0.2s-0.4,0.2-0.7,0.2s-0.6,0.1-1,0.2s-0.8,0.1-1.2,0.1c-0.7,0-1.4-0.1-1.9-0.3
	c-0.5-0.2-1-0.5-1.4-0.9s-0.6-0.9-0.8-1.5c-0.2-0.6-0.3-1.3-0.3-2.1c0-0.8,0.1-1.4,0.3-2s0.5-1.1,0.8-1.5c0.4-0.4,0.8-0.7,1.3-1
	c0.5-0.2,1.1-0.3,1.8-0.3c0.7,0,1.3,0.1,1.8,0.3s0.9,0.5,1.2,0.9s0.5,0.8,0.7,1.3s0.2,1,0.2,1.6L237.2,305.1L237.2,305.1z
	 M235.6,304.6c0-0.9-0.2-1.5-0.6-2s-1-0.7-1.8-0.7c-0.4,0-0.8,0.1-1.1,0.2c-0.3,0.1-0.6,0.4-0.8,0.6s-0.4,0.5-0.5,0.9
	s-0.2,0.7-0.2,1H235.6z"/>
<path class="st3" d="M251.7,309.9c0,0,0,0.1,0,0.1c0,0-0.1,0.1-0.1,0.1s-0.1,0-0.2,0.1c-0.1,0-0.2,0-0.4,0c-0.1,0-0.3,0-0.4,0
	c-0.1,0-0.2,0-0.2-0.1s-0.1-0.1-0.1-0.1s0-0.1,0-0.1v-1.2c-0.5,0.5-1,1-1.5,1.2s-1,0.4-1.5,0.4c-0.6,0-1.1-0.1-1.5-0.3
	s-0.7-0.5-1-0.8c-0.3-0.3-0.4-0.7-0.5-1.2s-0.2-1-0.2-1.6v-5.3c0,0,0-0.1,0-0.1c0,0,0.1-0.1,0.1-0.1s0.1,0,0.3-0.1s0.2,0,0.4,0
	s0.3,0,0.4,0s0.2,0,0.3,0.1s0.1,0.1,0.1,0.1c0,0,0,0.1,0,0.1v5.1c0,0.5,0,0.9,0.1,1.2s0.2,0.6,0.3,0.8s0.4,0.4,0.6,0.5
	s0.5,0.2,0.8,0.2c0.4,0,0.8-0.1,1.2-0.4s0.8-0.7,1.3-1.3v-6.1c0,0,0-0.1,0-0.1c0,0,0.1-0.1,0.1-0.1s0.1,0,0.3-0.1s0.2,0,0.4,0
	c0.2,0,0.3,0,0.4,0s0.2,0,0.2,0.1s0.1,0.1,0.1,0.1s0,0.1,0,0.1L251.7,309.9L251.7,309.9z"/>
<path class="st3" d="M260,307.5c0,0.5-0.1,0.9-0.3,1.2s-0.4,0.6-0.7,0.9s-0.7,0.4-1.1,0.5s-0.9,0.2-1.4,0.2c-0.3,0-0.6,0-0.9-0.1
	s-0.5-0.1-0.8-0.2s-0.4-0.1-0.6-0.2s-0.3-0.1-0.3-0.2s-0.1-0.2-0.2-0.3s-0.1-0.3-0.1-0.5c0-0.1,0-0.2,0-0.3s0-0.1,0.1-0.2
	s0.1-0.1,0.1-0.1s0.1,0,0.1,0c0.1,0,0.2,0,0.3,0.1s0.3,0.2,0.5,0.3c0.2,0.1,0.5,0.2,0.7,0.3s0.6,0.1,1,0.1c0.3,0,0.5,0,0.7-0.1
	s0.4-0.1,0.6-0.3s0.3-0.3,0.4-0.4s0.1-0.4,0.1-0.6s-0.1-0.5-0.2-0.6s-0.3-0.3-0.5-0.5s-0.4-0.3-0.7-0.4s-0.5-0.2-0.8-0.3
	s-0.5-0.2-0.8-0.4s-0.5-0.3-0.7-0.5s-0.4-0.4-0.5-0.7s-0.2-0.6-0.2-1c0-0.3,0.1-0.7,0.2-1s0.3-0.6,0.6-0.8c0.3-0.2,0.6-0.4,1-0.6
	s0.9-0.2,1.4-0.2c0.2,0,0.5,0,0.7,0.1s0.5,0.1,0.6,0.1s0.4,0.1,0.5,0.2s0.2,0.1,0.3,0.2s0.1,0.1,0.1,0.1s0,0.1,0,0.1s0,0.1,0,0.2
	s0,0.2,0,0.3c0,0.1,0,0.2,0,0.3s0,0.1,0,0.2s0,0.1-0.1,0.1s-0.1,0-0.1,0c-0.1,0-0.1,0-0.3-0.1s-0.3-0.1-0.4-0.2s-0.4-0.2-0.6-0.2
	s-0.5-0.1-0.8-0.1c-0.3,0-0.5,0-0.7,0.1s-0.4,0.1-0.5,0.3s-0.2,0.3-0.3,0.4s-0.1,0.3-0.1,0.5c0,0.3,0.1,0.5,0.2,0.6s0.3,0.3,0.5,0.5
	s0.5,0.3,0.7,0.4s0.5,0.2,0.8,0.3s0.5,0.2,0.8,0.4s0.5,0.3,0.7,0.5s0.4,0.4,0.5,0.7S260,307.1,260,307.5z"/>
<path class="st3" d="M268.9,309.9c0,0.1,0,0.1-0.1,0.2s-0.1,0.1-0.2,0.1s-0.2,0-0.4,0c-0.2,0-0.3,0-0.4,0s-0.2,0-0.2-0.1
	s-0.1-0.1-0.1-0.2V309c-0.4,0.4-0.8,0.7-1.3,1s-1,0.3-1.5,0.3c-0.5,0-0.9-0.1-1.3-0.2s-0.7-0.3-1-0.5s-0.5-0.5-0.6-0.8
	s-0.2-0.7-0.2-1.1c0-0.5,0.1-0.9,0.3-1.3s0.5-0.7,0.9-0.9s0.8-0.4,1.4-0.5s1.2-0.2,1.9-0.2h1.2V304c0-0.3,0-0.6-0.1-0.9
	s-0.2-0.5-0.4-0.6s-0.4-0.3-0.6-0.4s-0.6-0.1-0.9-0.1c-0.4,0-0.8,0-1.1,0.1s-0.6,0.2-0.8,0.3s-0.4,0.2-0.6,0.3s-0.3,0.1-0.4,0.1
	c0,0-0.1,0-0.1,0s-0.1-0.1-0.1-0.1s0-0.1-0.1-0.2s0-0.2,0-0.3c0-0.2,0-0.3,0-0.4s0.1-0.2,0.2-0.3s0.2-0.2,0.5-0.3s0.5-0.2,0.7-0.3
	s0.6-0.2,0.9-0.2s0.7-0.1,1-0.1c0.6,0,1.2,0.1,1.6,0.2s0.8,0.4,1.1,0.6s0.5,0.6,0.6,1s0.2,0.9,0.2,1.4L268.9,309.9L268.9,309.9z
	 M267.3,305.9h-1.4c-0.4,0-0.8,0-1.1,0.1s-0.6,0.2-0.8,0.3s-0.4,0.3-0.5,0.5s-0.1,0.4-0.1,0.7c0,0.5,0.1,0.8,0.4,1.1
	s0.7,0.4,1.2,0.4c0.4,0,0.8-0.1,1.2-0.3s0.7-0.5,1.1-1L267.3,305.9L267.3,305.9z"/>
<path class="st3" d="M279.7,305.4c0,0.8-0.1,1.5-0.3,2.1s-0.4,1.1-0.7,1.6s-0.7,0.8-1.2,1s-1,0.3-1.6,0.3c-0.3,0-0.5,0-0.8-0.1
	s-0.5-0.1-0.7-0.3s-0.5-0.3-0.7-0.5s-0.5-0.4-0.7-0.7v1.1c0,0,0,0.1,0,0.1s-0.1,0.1-0.1,0.1s-0.1,0-0.2,0s-0.2,0-0.3,0
	c-0.1,0-0.2,0-0.3,0s-0.2,0-0.2,0s-0.1,0-0.1-0.1s0-0.1,0-0.1v-13c0,0,0-0.1,0-0.1s0.1-0.1,0.1-0.1s0.1,0,0.3-0.1s0.2,0,0.4,0
	s0.3,0,0.4,0s0.2,0,0.2,0.1s0.1,0.1,0.1,0.1s0,0.1,0,0.1v5.3c0.3-0.3,0.5-0.5,0.8-0.7s0.5-0.3,0.7-0.4s0.5-0.2,0.7-0.3
	s0.5-0.1,0.7-0.1c0.6,0,1.2,0.1,1.6,0.4s0.8,0.6,1.1,1s0.5,0.9,0.6,1.5S279.7,304.7,279.7,305.4z M278.1,305.5c0-0.5,0-0.9-0.1-1.3
	c-0.1-0.4-0.2-0.8-0.4-1.1s-0.4-0.6-0.7-0.8s-0.6-0.3-1-0.3c-0.2,0-0.4,0-0.6,0.1c-0.2,0.1-0.4,0.2-0.6,0.3
	c-0.2,0.1-0.4,0.3-0.6,0.5c-0.2,0.2-0.5,0.5-0.7,0.8v3.5c0.5,0.5,0.9,1,1.3,1.2s0.8,0.4,1.3,0.4c0.4,0,0.8-0.1,1-0.3
	c0.3-0.2,0.5-0.5,0.7-0.8c0.2-0.3,0.3-0.7,0.4-1.1S278.1,306,278.1,305.5z"/>
<path class="st3" d="M288.1,309.9c0,0,0,0.1,0,0.1s-0.1,0.1-0.1,0.1s-0.1,0-0.2,0.1s-0.2,0-0.4,0s-0.3,0-0.4,0s-0.2,0-0.3-0.1
	s-0.1-0.1-0.1-0.1s0-0.1,0-0.1v-13c0,0,0-0.1,0-0.1s0.1-0.1,0.1-0.1s0.1,0,0.3-0.1s0.2,0,0.4,0s0.3,0,0.4,0s0.2,0,0.2,0.1
	s0.1,0.1,0.1,0.1s0,0.1,0,0.1V309.9z"/>
<path class="st3" d="M292.7,298.1c0,0.4-0.1,0.6-0.2,0.8s-0.4,0.2-0.8,0.2s-0.6-0.1-0.8-0.2s-0.2-0.4-0.2-0.8c0-0.4,0.1-0.6,0.2-0.8
	s0.4-0.2,0.8-0.2s0.6,0.1,0.8,0.2S292.7,297.7,292.7,298.1z M292.5,309.9c0,0,0,0.1,0,0.1s-0.1,0.1-0.1,0.1s-0.1,0-0.2,0.1
	s-0.2,0-0.4,0s-0.3,0-0.4,0s-0.2,0-0.3-0.1s-0.1-0.1-0.1-0.1s0-0.1,0-0.1v-8.8c0,0,0-0.1,0-0.1s0.1-0.1,0.1-0.1s0.1,0,0.3-0.1
	s0.2,0,0.4,0s0.3,0,0.4,0s0.2,0,0.2,0.1s0.1,0.1,0.1,0.1s0,0.1,0,0.1V309.9z"/>
<path class="st3" d="M284.1,298.1c0,0.4-0.1,0.6-0.2,0.8s-0.4,0.2-0.8,0.2s-0.6-0.1-0.8-0.2s-0.2-0.4-0.2-0.8c0-0.4,0.1-0.6,0.2-0.8
	s0.4-0.2,0.8-0.2s0.6,0.1,0.8,0.2S284.1,297.7,284.1,298.1z M284,309.9c0,0,0,0.1,0,0.1s-0.1,0.1-0.1,0.1s-0.1,0-0.2,0.1
	s-0.2,0-0.4,0s-0.3,0-0.4,0s-0.2,0-0.3-0.1s-0.1-0.1-0.1-0.1s0-0.1,0-0.1v-8.8c0,0,0-0.1,0-0.1s0.1-0.1,0.1-0.1s0.1,0,0.3-0.1
	s0.2,0,0.4,0s0.3,0,0.4,0s0.2,0,0.2,0.1s0.1,0.1,0.1,0.1s0,0.1,0,0.1V309.9z"/>
<path class="st3" d="M302.8,309.9c0,0,0,0.1,0,0.1s-0.1,0.1-0.1,0.1s-0.1,0-0.2,0s-0.2,0-0.3,0c-0.1,0-0.3,0-0.3,0s-0.2,0-0.2,0
	s-0.1,0-0.1-0.1s0-0.1,0-0.1v-1.2c-0.5,0.5-0.9,0.9-1.4,1.2s-1,0.4-1.6,0.4c-0.6,0-1.2-0.1-1.6-0.4s-0.8-0.6-1.1-1s-0.5-0.9-0.6-1.5
	s-0.2-1.2-0.2-1.8c0-0.8,0.1-1.4,0.2-2s0.4-1.1,0.7-1.6s0.7-0.8,1.2-1s1-0.4,1.6-0.4c0.5,0,1,0.1,1.4,0.3s0.9,0.5,1.3,1v-5.1
	c0,0,0-0.1,0-0.1s0.1-0.1,0.1-0.1s0.1,0,0.3-0.1s0.2,0,0.4,0s0.3,0,0.4,0s0.2,0,0.2,0.1s0.1,0.1,0.1,0.1s0,0.1,0,0.1L302.8,309.9
	L302.8,309.9z M301.2,303.7c-0.4-0.5-0.9-1-1.3-1.2s-0.8-0.4-1.3-0.4c-0.4,0-0.8,0.1-1,0.3s-0.5,0.5-0.7,0.8s-0.3,0.7-0.4,1.1
	s-0.1,0.8-0.1,1.2c0,0.4,0,0.9,0.1,1.3s0.2,0.8,0.4,1.1s0.4,0.6,0.7,0.8s0.6,0.3,1,0.3c0.2,0,0.4,0,0.6-0.1s0.4-0.2,0.6-0.3
	s0.4-0.3,0.6-0.5s0.5-0.5,0.7-0.8L301.2,303.7L301.2,303.7z"/>
<path class="st3" d="M312.2,309.9c0,0.1,0,0.1-0.1,0.2s-0.1,0.1-0.2,0.1s-0.2,0-0.4,0c-0.2,0-0.3,0-0.4,0s-0.2,0-0.2-0.1
	s-0.1-0.1-0.1-0.2V309c-0.4,0.4-0.8,0.7-1.3,1s-1,0.3-1.5,0.3c-0.5,0-0.9-0.1-1.3-0.2s-0.7-0.3-1-0.5s-0.5-0.5-0.6-0.8
	s-0.2-0.7-0.2-1.1c0-0.5,0.1-0.9,0.3-1.3s0.5-0.7,0.9-0.9s0.8-0.4,1.4-0.5s1.2-0.2,1.9-0.2h1.2V304c0-0.3,0-0.6-0.1-0.9
	s-0.2-0.5-0.4-0.6s-0.4-0.3-0.6-0.4s-0.6-0.1-0.9-0.1c-0.4,0-0.8,0-1.1,0.1s-0.6,0.2-0.8,0.3s-0.4,0.2-0.6,0.3s-0.3,0.1-0.4,0.1
	c0,0-0.1,0-0.1,0s-0.1-0.1-0.1-0.1s0-0.1-0.1-0.2s0-0.2,0-0.3c0-0.2,0-0.3,0-0.4s0.1-0.2,0.2-0.3s0.2-0.2,0.5-0.3s0.5-0.2,0.7-0.3
	s0.6-0.2,0.9-0.2s0.7-0.1,1-0.1c0.6,0,1.2,0.1,1.6,0.2s0.8,0.4,1.1,0.6s0.5,0.6,0.6,1s0.2,0.9,0.2,1.4L312.2,309.9L312.2,309.9z
	 M310.6,305.9h-1.4c-0.4,0-0.8,0-1.1,0.1s-0.6,0.2-0.8,0.3s-0.4,0.3-0.5,0.5s-0.1,0.4-0.1,0.7c0,0.5,0.1,0.8,0.4,1.1
	s0.7,0.4,1.2,0.4c0.4,0,0.8-0.1,1.2-0.3s0.7-0.5,1.1-1L310.6,305.9L310.6,305.9z"/>
<path class="st3" d="M322.6,309.9c0,0,0,0.1,0,0.1s-0.1,0.1-0.1,0.1s-0.1,0-0.2,0s-0.2,0-0.3,0c-0.1,0-0.3,0-0.3,0s-0.2,0-0.2,0
	s-0.1,0-0.1-0.1s0-0.1,0-0.1v-1.2c-0.5,0.5-0.9,0.9-1.4,1.2s-1,0.4-1.6,0.4c-0.6,0-1.2-0.1-1.6-0.4s-0.8-0.6-1.1-1s-0.5-0.9-0.6-1.5
	s-0.2-1.2-0.2-1.8c0-0.8,0.1-1.4,0.2-2s0.4-1.1,0.7-1.6s0.7-0.8,1.2-1s1-0.4,1.6-0.4c0.5,0,1,0.1,1.4,0.3s0.9,0.5,1.3,1v-5.1
	c0,0,0-0.1,0-0.1s0.1-0.1,0.1-0.1s0.1,0,0.3-0.1s0.2,0,0.4,0s0.3,0,0.4,0s0.2,0,0.2,0.1s0.1,0.1,0.1,0.1s0,0.1,0,0.1L322.6,309.9
	L322.6,309.9z M320.9,303.7c-0.4-0.5-0.9-1-1.3-1.2s-0.8-0.4-1.3-0.4c-0.4,0-0.8,0.1-1,0.3s-0.5,0.5-0.7,0.8s-0.3,0.7-0.4,1.1
	s-0.1,0.8-0.1,1.2c0,0.4,0,0.9,0.1,1.3s0.2,0.8,0.4,1.1s0.4,0.6,0.7,0.8s0.6,0.3,1,0.3c0.2,0,0.4,0,0.6-0.1s0.4-0.2,0.6-0.3
	s0.4-0.3,0.6-0.5s0.5-0.5,0.7-0.8L320.9,303.7L320.9,303.7z"/>
<path class="st3" d="M332.9,305.1c0,0.3-0.1,0.4-0.2,0.5s-0.3,0.2-0.4,0.2h-5.8c0,0.5,0,0.9,0.1,1.3s0.3,0.7,0.5,1
	c0.2,0.3,0.5,0.5,0.9,0.6c0.4,0.1,0.8,0.2,1.3,0.2c0.4,0,0.8,0,1.1-0.1s0.6-0.1,0.9-0.2c0.2-0.1,0.4-0.2,0.6-0.2
	c0.1-0.1,0.3-0.1,0.4-0.1c0,0,0.1,0,0.1,0s0.1,0.1,0.1,0.1s0,0.1,0,0.2s0,0.2,0,0.3c0,0.1,0,0.2,0,0.2s0,0.1,0,0.2s0,0.1,0,0.1
	s0,0.1-0.1,0.1s-0.1,0.1-0.3,0.2s-0.4,0.2-0.7,0.2s-0.6,0.1-1,0.2s-0.8,0.1-1.2,0.1c-0.7,0-1.4-0.1-1.9-0.3s-1-0.5-1.4-0.9
	s-0.6-0.9-0.8-1.5s-0.3-1.3-0.3-2.1c0-0.8,0.1-1.4,0.3-2s0.5-1.1,0.8-1.5s0.8-0.7,1.3-1s1.1-0.3,1.8-0.3c0.7,0,1.3,0.1,1.8,0.3
	s0.9,0.5,1.2,0.9s0.5,0.8,0.7,1.3s0.2,1,0.2,1.6L332.9,305.1L332.9,305.1z M331.3,304.6c0-0.9-0.2-1.5-0.6-2c-0.4-0.5-1-0.7-1.8-0.7
	c-0.4,0-0.8,0.1-1,0.2c-0.3,0.1-0.5,0.4-0.8,0.6s-0.4,0.5-0.5,0.9s-0.2,0.7-0.2,1H331.3z"/>
<path class="st3" d="M173.2,342.9c0,0,0,0.1,0,0.1s-0.1,0.1-0.1,0.1c-0.1,0-0.1,0-0.3,0.1c-0.1,0-0.2,0-0.4,0c-0.1,0-0.3,0-0.4,0
	c-0.1,0-0.2,0-0.3-0.1s-0.1,0-0.1-0.1s0-0.1,0-0.1v-11h0l-4.4,11c0,0-0.1,0.1-0.1,0.1c0,0-0.1,0.1-0.2,0.1s-0.1,0-0.2,0
	c-0.1,0-0.2,0-0.3,0c-0.1,0-0.3,0-0.4,0s-0.2,0-0.2,0c-0.1,0-0.1,0-0.1-0.1c0,0-0.1-0.1-0.1-0.1l-4.3-11h0v11c0,0,0,0.1,0,0.1
	s-0.1,0.1-0.1,0.1c-0.1,0-0.1,0-0.3,0.1s-0.2,0-0.4,0c-0.2,0-0.3,0-0.4,0s-0.2,0-0.3-0.1c-0.1,0-0.1,0-0.1-0.1s0-0.1,0-0.1v-11.6
	c0-0.3,0.1-0.5,0.2-0.6s0.3-0.2,0.5-0.2h1c0.2,0,0.4,0,0.6,0.1c0.2,0,0.3,0.1,0.4,0.2s0.2,0.2,0.3,0.3s0.1,0.3,0.2,0.5l3.6,9.1h0.1
	l3.8-9.1c0.1-0.2,0.1-0.4,0.2-0.5c0.1-0.1,0.2-0.3,0.3-0.3s0.2-0.1,0.3-0.2c0.1,0,0.3,0,0.4,0h1.1c0.1,0,0.2,0,0.3,0
	s0.2,0.1,0.2,0.1c0.1,0.1,0.1,0.1,0.1,0.2s0.1,0.2,0.1,0.4L173.2,342.9L173.2,342.9z"/>
<path class="st3" d="M183.7,342.9c0,0,0,0.1,0,0.1c0,0-0.1,0.1-0.1,0.1s-0.1,0-0.2,0.1c-0.1,0-0.2,0-0.4,0c-0.1,0-0.3,0-0.4,0
	c-0.1,0-0.2,0-0.2-0.1s-0.1-0.1-0.1-0.1s0-0.1,0-0.1v-1.2c-0.5,0.5-1,1-1.5,1.2s-1,0.4-1.5,0.4c-0.6,0-1.1-0.1-1.5-0.3
	s-0.7-0.5-1-0.8c-0.3-0.3-0.4-0.7-0.5-1.2s-0.2-1-0.2-1.6v-5.3c0,0,0-0.1,0-0.1c0,0,0.1-0.1,0.1-0.1c0.1,0,0.1,0,0.3-0.1
	s0.2,0,0.4,0s0.3,0,0.4,0s0.2,0,0.3,0.1s0.1,0.1,0.1,0.1c0,0,0,0.1,0,0.1v5.1c0,0.5,0,0.9,0.1,1.2c0.1,0.3,0.2,0.6,0.3,0.8
	s0.4,0.4,0.6,0.5s0.5,0.2,0.8,0.2c0.4,0,0.8-0.1,1.2-0.4s0.8-0.7,1.3-1.3v-6.1c0,0,0-0.1,0-0.1c0,0,0.1-0.1,0.1-0.1
	c0.1,0,0.1,0,0.3-0.1s0.2,0,0.4,0c0.2,0,0.3,0,0.4,0s0.2,0,0.2,0.1s0.1,0.1,0.1,0.1s0,0.1,0,0.1L183.7,342.9L183.7,342.9z"/>
<path class="st3" d="M194,342.9c0,0,0,0.1,0,0.1s-0.1,0.1-0.1,0.1s-0.1,0-0.2,0c-0.1,0-0.2,0-0.3,0c-0.1,0-0.3,0-0.3,0
	c-0.1,0-0.2,0-0.2,0s-0.1,0-0.1-0.1s0-0.1,0-0.1v-1.2c-0.5,0.5-0.9,0.9-1.4,1.2s-1,0.4-1.6,0.4c-0.6,0-1.2-0.1-1.6-0.4
	c-0.5-0.3-0.8-0.6-1.1-1s-0.5-0.9-0.6-1.5c-0.1-0.6-0.2-1.2-0.2-1.8c0-0.8,0.1-1.4,0.2-2s0.4-1.1,0.7-1.6s0.7-0.8,1.2-1
	c0.5-0.2,1-0.4,1.6-0.4c0.5,0,1,0.1,1.4,0.3c0.4,0.2,0.9,0.5,1.3,1v-5.1c0,0,0-0.1,0-0.1s0.1-0.1,0.1-0.1c0.1,0,0.1,0,0.3-0.1
	s0.2,0,0.4,0s0.3,0,0.4,0c0.1,0,0.2,0,0.2,0.1s0.1,0.1,0.1,0.1s0,0.1,0,0.1L194,342.9L194,342.9z M192.4,336.7
	c-0.4-0.5-0.9-1-1.3-1.2c-0.4-0.3-0.8-0.4-1.3-0.4c-0.4,0-0.8,0.1-1,0.3c-0.3,0.2-0.5,0.5-0.7,0.8c-0.2,0.3-0.3,0.7-0.4,1.1
	s-0.1,0.8-0.1,1.2c0,0.4,0,0.9,0.1,1.3s0.2,0.8,0.4,1.1c0.2,0.3,0.4,0.6,0.7,0.8s0.6,0.3,1.1,0.3c0.2,0,0.4,0,0.6-0.1
	s0.4-0.2,0.6-0.3c0.2-0.1,0.4-0.3,0.6-0.5c0.2-0.2,0.5-0.5,0.7-0.8L192.4,336.7L192.4,336.7z"/>
<path class="st3" d="M203.4,342.9c0,0.1,0,0.1-0.1,0.2c-0.1,0-0.1,0.1-0.2,0.1c-0.1,0-0.2,0-0.4,0c-0.2,0-0.3,0-0.4,0
	c-0.1,0-0.2,0-0.2-0.1s-0.1-0.1-0.1-0.2V342c-0.4,0.4-0.8,0.7-1.3,1c-0.5,0.2-1,0.3-1.5,0.3c-0.5,0-0.9-0.1-1.3-0.2
	c-0.4-0.1-0.7-0.3-1-0.5s-0.5-0.5-0.6-0.8s-0.2-0.7-0.2-1.1c0-0.5,0.1-0.9,0.3-1.3c0.2-0.4,0.5-0.7,0.9-0.9c0.4-0.2,0.8-0.4,1.4-0.5
	s1.2-0.2,1.9-0.2h1.2V337c0-0.3,0-0.6-0.1-0.9c-0.1-0.3-0.2-0.5-0.4-0.6c-0.2-0.2-0.4-0.3-0.6-0.4s-0.6-0.1-0.9-0.1
	c-0.4,0-0.8,0-1.1,0.1c-0.3,0.1-0.6,0.2-0.8,0.3s-0.4,0.2-0.6,0.3s-0.3,0.1-0.4,0.1c-0.1,0-0.1,0-0.1,0s-0.1-0.1-0.1-0.1
	s-0.1-0.1-0.1-0.2c0-0.1,0-0.2,0-0.3c0-0.2,0-0.3,0-0.4c0-0.1,0.1-0.2,0.2-0.3s0.2-0.2,0.4-0.3s0.5-0.2,0.7-0.3s0.6-0.2,0.9-0.2
	s0.7-0.1,1-0.1c0.6,0,1.2,0.1,1.6,0.2c0.4,0.1,0.8,0.4,1.1,0.6s0.5,0.6,0.6,1c0.1,0.4,0.2,0.9,0.2,1.4L203.4,342.9L203.4,342.9z
	 M201.8,338.9h-1.4c-0.4,0-0.8,0-1.1,0.1c-0.3,0.1-0.6,0.2-0.8,0.3s-0.4,0.3-0.5,0.5s-0.1,0.4-0.1,0.7c0,0.5,0.1,0.8,0.4,1.1
	s0.7,0.4,1.2,0.4c0.4,0,0.8-0.1,1.2-0.3s0.7-0.5,1.1-1L201.8,338.9L201.8,338.9z"/>
<path class="st3" d="M213.7,342.9c0,0,0,0.1,0,0.1c0,0-0.1,0.1-0.1,0.1s-0.1,0-0.2,0.1s-0.2,0-0.4,0s-0.3,0-0.4,0
	c-0.1,0-0.2,0-0.2-0.1s-0.1-0.1-0.1-0.1c0,0,0-0.1,0-0.1v-5.1c0-0.5,0-0.9-0.1-1.2s-0.2-0.6-0.3-0.8s-0.3-0.4-0.6-0.5
	s-0.5-0.2-0.8-0.2c-0.4,0-0.8,0.1-1.2,0.4c-0.4,0.3-0.8,0.7-1.3,1.3v6.1c0,0,0,0.1,0,0.1c0,0-0.1,0.1-0.1,0.1s-0.1,0-0.2,0.1
	s-0.2,0-0.4,0c-0.2,0-0.3,0-0.4,0c-0.1,0-0.2,0-0.3-0.1s-0.1-0.1-0.1-0.1c0,0,0-0.1,0-0.1v-8.8c0,0,0-0.1,0-0.1s0.1-0.1,0.1-0.1
	s0.1,0,0.2-0.1s0.2,0,0.4,0c0.1,0,0.3,0,0.4,0c0.1,0,0.2,0,0.2,0.1s0.1,0.1,0.1,0.1s0,0.1,0,0.1v1.2c0.5-0.5,1-1,1.5-1.2
	c0.5-0.3,1-0.4,1.5-0.4c0.6,0,1.1,0.1,1.5,0.3s0.7,0.5,1,0.8c0.3,0.3,0.4,0.7,0.5,1.2s0.2,1,0.2,1.6L213.7,342.9L213.7,342.9z"/>
<path class="st3" d="M222.8,341.5c0,0.1,0,0.2,0,0.3c0,0.1,0,0.1,0,0.2c0,0.1,0,0.1-0.1,0.1c0,0-0.1,0.1-0.2,0.2
	c-0.1,0.1-0.2,0.2-0.4,0.3s-0.5,0.3-0.8,0.4s-0.6,0.2-1,0.2l0.3,0.6c0.1,0.3,0.2,0.5,0.3,0.7s0.1,0.4,0.1,0.5c0,0.3-0.1,0.5-0.1,0.7
	c-0.1,0.2-0.2,0.4-0.4,0.5s-0.4,0.2-0.6,0.3s-0.5,0.1-0.8,0.1c-0.2,0-0.4,0-0.6,0s-0.4-0.1-0.5-0.1s-0.3-0.1-0.3-0.1
	c-0.1,0-0.1-0.1-0.1-0.1c0,0,0-0.1-0.1-0.1s0-0.1,0-0.2c0-0.2,0-0.3,0.1-0.4s0.1-0.1,0.2-0.1h1.2c0.2,0,0.4,0,0.5-0.1
	s0.2-0.2,0.2-0.4c0-0.1,0-0.2-0.1-0.3s-0.1-0.3-0.2-0.4l-0.5-1c-0.7-0.1-1.2-0.4-1.7-0.8s-0.8-0.9-1-1.6c-0.2-0.6-0.3-1.4-0.3-2.3
	s0.1-1.6,0.3-2.2c0.2-0.6,0.5-1.1,0.9-1.5s0.8-0.7,1.3-0.9s1-0.3,1.6-0.3c0.3,0,0.6,0,0.8,0.1s0.5,0.1,0.7,0.2
	c0.2,0.1,0.4,0.2,0.6,0.3c0.2,0.1,0.3,0.2,0.4,0.3s0.1,0.1,0.2,0.2s0.1,0.1,0.1,0.2s0,0.1,0,0.2s0,0.2,0,0.3c0,0.3,0,0.4-0.1,0.5
	s-0.1,0.1-0.2,0.1c-0.1,0-0.2,0-0.3-0.2s-0.3-0.2-0.5-0.4s-0.4-0.3-0.7-0.4c-0.3-0.1-0.6-0.2-1-0.2c-0.8,0-1.4,0.3-1.8,0.9
	c-0.4,0.6-0.6,1.5-0.6,2.6c0,0.6,0.1,1.1,0.2,1.5s0.3,0.8,0.5,1.1s0.5,0.5,0.8,0.6s0.6,0.2,1,0.2c0.4,0,0.7-0.1,1-0.2
	s0.5-0.3,0.7-0.4s0.4-0.3,0.5-0.4c0.1-0.1,0.3-0.2,0.3-0.2c0,0,0.1,0,0.1,0c0,0,0.1,0.1,0.1,0.1s0,0.1,0.1,0.2
	S222.8,341.4,222.8,341.5z"/>
<path class="st3" d="M231.6,342.9c0,0.1,0,0.1-0.1,0.2c-0.1,0-0.1,0.1-0.2,0.1c-0.1,0-0.2,0-0.4,0c-0.2,0-0.3,0-0.4,0
	c-0.1,0-0.2,0-0.2-0.1s-0.1-0.1-0.1-0.2V342c-0.4,0.4-0.8,0.7-1.3,1c-0.5,0.2-1,0.3-1.5,0.3c-0.5,0-0.9-0.1-1.3-0.2
	c-0.4-0.1-0.7-0.3-1-0.5s-0.5-0.5-0.6-0.8s-0.2-0.7-0.2-1.1c0-0.5,0.1-0.9,0.3-1.3c0.2-0.4,0.5-0.7,0.9-0.9c0.4-0.2,0.8-0.4,1.4-0.5
	s1.2-0.2,1.9-0.2h1.2V337c0-0.3,0-0.6-0.1-0.9c-0.1-0.3-0.2-0.5-0.4-0.6c-0.2-0.2-0.4-0.3-0.6-0.4s-0.6-0.1-0.9-0.1
	c-0.4,0-0.8,0-1.1,0.1c-0.3,0.1-0.6,0.2-0.8,0.3s-0.4,0.2-0.6,0.3s-0.3,0.1-0.4,0.1c-0.1,0-0.1,0-0.1,0s-0.1-0.1-0.1-0.1
	s-0.1-0.1-0.1-0.2c0-0.1,0-0.2,0-0.3c0-0.2,0-0.3,0-0.4c0-0.1,0.1-0.2,0.2-0.3s0.2-0.2,0.4-0.3s0.5-0.2,0.7-0.3s0.6-0.2,0.9-0.2
	s0.7-0.1,1-0.1c0.6,0,1.2,0.1,1.6,0.2c0.4,0.1,0.8,0.4,1.1,0.6s0.5,0.6,0.6,1c0.1,0.4,0.2,0.9,0.2,1.4L231.6,342.9L231.6,342.9z
	 M230,338.9h-1.4c-0.4,0-0.8,0-1.1,0.1c-0.3,0.1-0.6,0.2-0.8,0.3s-0.4,0.3-0.5,0.5s-0.1,0.4-0.1,0.7c0,0.5,0.1,0.8,0.4,1.1
	s0.7,0.4,1.2,0.4c0.4,0,0.8-0.1,1.2-0.3s0.7-0.5,1.1-1L230,338.9L230,338.9z"/>
<path class="st3" d="M239.9,340.5c0,0.5-0.1,0.9-0.3,1.2s-0.4,0.6-0.7,0.9c-0.3,0.2-0.7,0.4-1.1,0.5c-0.4,0.1-0.9,0.2-1.4,0.2
	c-0.3,0-0.6,0-0.9-0.1s-0.5-0.1-0.8-0.2s-0.4-0.1-0.6-0.2s-0.3-0.1-0.3-0.2c-0.1-0.1-0.1-0.2-0.2-0.3c0-0.1-0.1-0.3-0.1-0.5
	c0-0.1,0-0.2,0-0.3c0-0.1,0-0.1,0.1-0.2s0.1-0.1,0.1-0.1c0,0,0.1,0,0.1,0c0.1,0,0.2,0,0.3,0.1c0.1,0.1,0.3,0.2,0.5,0.3
	s0.4,0.2,0.7,0.3s0.6,0.1,1,0.1c0.3,0,0.5,0,0.7-0.1s0.4-0.1,0.6-0.3c0.2-0.1,0.3-0.3,0.4-0.4s0.1-0.4,0.1-0.6s-0.1-0.5-0.2-0.6
	s-0.3-0.3-0.5-0.5s-0.4-0.3-0.7-0.4s-0.5-0.2-0.8-0.3c-0.3-0.1-0.6-0.2-0.8-0.4s-0.5-0.3-0.7-0.5s-0.4-0.4-0.5-0.7s-0.2-0.6-0.2-1
	c0-0.3,0.1-0.7,0.2-1c0.1-0.3,0.3-0.6,0.6-0.8s0.6-0.4,1-0.6s0.9-0.2,1.4-0.2c0.2,0,0.5,0,0.7,0.1s0.4,0.1,0.6,0.1
	c0.2,0.1,0.4,0.1,0.5,0.2c0.1,0.1,0.2,0.1,0.3,0.2s0.1,0.1,0.1,0.1c0,0,0,0.1,0.1,0.1s0,0.1,0,0.2s0,0.2,0,0.3c0,0.1,0,0.2,0,0.3
	s0,0.1-0.1,0.2c0,0-0.1,0.1-0.1,0.1s-0.1,0-0.1,0c-0.1,0-0.1,0-0.3-0.1c-0.1-0.1-0.3-0.1-0.4-0.2s-0.4-0.2-0.6-0.2
	c-0.2-0.1-0.5-0.1-0.8-0.1c-0.3,0-0.5,0-0.7,0.1s-0.4,0.1-0.5,0.3c-0.1,0.1-0.2,0.3-0.3,0.4s-0.1,0.3-0.1,0.5c0,0.3,0.1,0.5,0.2,0.6
	c0.1,0.2,0.3,0.3,0.5,0.5c0.2,0.1,0.4,0.3,0.7,0.4c0.3,0.1,0.5,0.2,0.8,0.3c0.3,0.1,0.6,0.2,0.8,0.4c0.3,0.1,0.5,0.3,0.7,0.5
	s0.4,0.4,0.5,0.7S239.9,340.1,239.9,340.5z"/>
<path class="st3" d="M254.8,338.4c0,0.8-0.1,1.5-0.3,2.1s-0.4,1.1-0.7,1.6s-0.7,0.8-1.2,1s-1,0.3-1.6,0.3c-0.3,0-0.5,0-0.8-0.1
	c-0.2-0.1-0.5-0.1-0.7-0.3c-0.2-0.1-0.5-0.3-0.7-0.5c-0.2-0.2-0.5-0.4-0.7-0.7v1.1c0,0,0,0.1,0,0.1s-0.1,0.1-0.1,0.1s-0.1,0-0.2,0
	s-0.2,0-0.3,0c-0.1,0-0.2,0-0.3,0c-0.1,0-0.2,0-0.2,0s-0.1,0-0.1-0.1s0-0.1,0-0.1v-13c0,0,0-0.1,0-0.1s0.1-0.1,0.1-0.1
	s0.1,0,0.3-0.1s0.2,0,0.4,0s0.3,0,0.4,0c0.1,0,0.2,0,0.2,0.1s0.1,0.1,0.1,0.1s0,0.1,0,0.1v5.3c0.3-0.3,0.5-0.5,0.8-0.7
	s0.5-0.3,0.7-0.4s0.5-0.2,0.7-0.3s0.5-0.1,0.7-0.1c0.6,0,1.2,0.1,1.6,0.4s0.8,0.6,1.1,1s0.5,0.9,0.6,1.5S254.8,337.7,254.8,338.4z
	 M253.1,338.5c0-0.5,0-0.9-0.1-1.3c-0.1-0.4-0.2-0.8-0.4-1.1s-0.4-0.6-0.7-0.8s-0.6-0.3-1.1-0.3c-0.2,0-0.4,0-0.6,0.1
	s-0.4,0.2-0.6,0.3s-0.4,0.3-0.6,0.5c-0.2,0.2-0.5,0.5-0.7,0.8v3.5c0.4,0.5,0.9,1,1.3,1.2s0.8,0.4,1.3,0.4c0.4,0,0.8-0.1,1-0.3
	c0.3-0.2,0.5-0.5,0.7-0.8c0.2-0.3,0.3-0.7,0.4-1.1S253.1,339,253.1,338.5z"/>
<path class="st3" d="M263.7,342.9c0,0.1,0,0.1-0.1,0.2s-0.1,0.1-0.2,0.1s-0.2,0-0.4,0c-0.2,0-0.3,0-0.4,0s-0.2,0-0.2-0.1
	s-0.1-0.1-0.1-0.2V342c-0.4,0.4-0.8,0.7-1.3,1s-1,0.3-1.5,0.3c-0.5,0-0.9-0.1-1.3-0.2s-0.7-0.3-1-0.5s-0.5-0.5-0.6-0.8
	s-0.2-0.7-0.2-1.1c0-0.5,0.1-0.9,0.3-1.3s0.5-0.7,0.9-0.9s0.8-0.4,1.4-0.5s1.2-0.2,1.9-0.2h1.2V337c0-0.3,0-0.6-0.1-0.9
	s-0.2-0.5-0.4-0.6s-0.4-0.3-0.6-0.4s-0.6-0.1-0.9-0.1c-0.4,0-0.8,0-1.1,0.1s-0.6,0.2-0.8,0.3s-0.4,0.2-0.6,0.3s-0.3,0.1-0.4,0.1
	c0,0-0.1,0-0.1,0s-0.1-0.1-0.1-0.1s0-0.1-0.1-0.2s0-0.2,0-0.3c0-0.2,0-0.3,0-0.4s0.1-0.2,0.2-0.3s0.2-0.2,0.5-0.3s0.5-0.2,0.7-0.3
	s0.6-0.2,0.9-0.2s0.7-0.1,1-0.1c0.6,0,1.2,0.1,1.6,0.2s0.8,0.4,1.1,0.6s0.5,0.6,0.6,1s0.2,0.9,0.2,1.4L263.7,342.9L263.7,342.9z
	 M262.1,338.9h-1.4c-0.4,0-0.8,0-1.1,0.1s-0.6,0.2-0.8,0.3s-0.4,0.3-0.5,0.5s-0.1,0.4-0.1,0.7c0,0.5,0.1,0.8,0.4,1.1
	s0.7,0.4,1.2,0.4c0.4,0,0.8-0.1,1.2-0.3s0.7-0.5,1.1-1L262.1,338.9L262.1,338.9z"/>
<path class="st3" d="M271.9,340.5c0,0.5-0.1,0.9-0.3,1.2s-0.4,0.6-0.7,0.9s-0.7,0.4-1.1,0.5s-0.9,0.2-1.4,0.2c-0.3,0-0.6,0-0.9-0.1
	s-0.5-0.1-0.8-0.2s-0.4-0.1-0.6-0.2s-0.3-0.1-0.3-0.2s-0.1-0.2-0.2-0.3s0-0.3,0-0.5c0-0.1,0-0.2,0-0.3s0-0.1,0-0.2s0-0.1,0.1-0.1
	s0.1,0,0.1,0c0.1,0,0.2,0,0.3,0.1s0.3,0.2,0.5,0.3s0.5,0.2,0.7,0.3s0.6,0.1,1,0.1c0.3,0,0.5,0,0.7-0.1s0.4-0.1,0.6-0.3
	s0.3-0.3,0.4-0.4s0.1-0.4,0.1-0.6s-0.1-0.5-0.2-0.6s-0.3-0.3-0.5-0.5s-0.4-0.3-0.7-0.4s-0.5-0.2-0.8-0.3s-0.5-0.2-0.8-0.4
	s-0.5-0.3-0.7-0.5s-0.4-0.4-0.5-0.7s-0.2-0.6-0.2-1c0-0.3,0.1-0.7,0.2-1s0.3-0.6,0.6-0.8s0.6-0.4,1-0.6s0.9-0.2,1.4-0.2
	c0.2,0,0.5,0,0.7,0.1s0.5,0.1,0.6,0.1s0.4,0.1,0.5,0.2s0.2,0.1,0.3,0.2s0.1,0.1,0.1,0.1s0,0.1,0,0.1s0,0.1,0,0.2s0,0.2,0,0.3
	c0,0.1,0,0.2,0,0.3s0,0.1,0,0.2s0,0.1-0.1,0.1s-0.1,0-0.1,0c-0.1,0-0.1,0-0.3-0.1s-0.3-0.1-0.4-0.2s-0.4-0.2-0.6-0.2
	s-0.5-0.1-0.8-0.1c-0.3,0-0.5,0-0.7,0.1s-0.4,0.1-0.5,0.3s-0.2,0.3-0.3,0.4s-0.1,0.3-0.1,0.5c0,0.3,0.1,0.5,0.2,0.6s0.3,0.3,0.5,0.5
	s0.5,0.3,0.7,0.4s0.5,0.2,0.8,0.3s0.5,0.2,0.8,0.4s0.5,0.3,0.7,0.5s0.4,0.4,0.5,0.7S271.9,340.1,271.9,340.5z"/>
<path class="st3" d="M281.6,338.1c0,0.3-0.1,0.4-0.2,0.5s-0.3,0.2-0.4,0.2h-5.8c0,0.5,0,0.9,0.1,1.3s0.3,0.7,0.5,1
	c0.2,0.3,0.5,0.5,0.9,0.6c0.4,0.1,0.8,0.2,1.3,0.2c0.4,0,0.8,0,1.1-0.1s0.6-0.1,0.9-0.2c0.2-0.1,0.4-0.2,0.6-0.2
	c0.1-0.1,0.3-0.1,0.4-0.1c0,0,0.1,0,0.1,0s0.1,0.1,0.1,0.1s0,0.1,0,0.2s0,0.2,0,0.3c0,0.1,0,0.2,0,0.2s0,0.1,0,0.2s0,0.1,0,0.1
	s0,0.1-0.1,0.1s-0.1,0.1-0.3,0.2s-0.4,0.2-0.7,0.2s-0.6,0.1-1,0.2s-0.8,0.1-1.2,0.1c-0.7,0-1.4-0.1-1.9-0.3s-1-0.5-1.4-0.9
	s-0.6-0.9-0.8-1.5s-0.3-1.3-0.3-2.1c0-0.8,0.1-1.4,0.3-2s0.5-1.1,0.8-1.5s0.8-0.7,1.3-1s1.1-0.3,1.8-0.3c0.7,0,1.3,0.1,1.8,0.3
	s0.9,0.5,1.2,0.9s0.5,0.8,0.7,1.3s0.2,1,0.2,1.6L281.6,338.1L281.6,338.1z M280,337.6c0-0.9-0.2-1.5-0.6-2c-0.4-0.5-1-0.7-1.8-0.7
	c-0.4,0-0.8,0.1-1,0.2c-0.3,0.1-0.5,0.4-0.8,0.6s-0.4,0.5-0.5,0.9s-0.2,0.7-0.2,1H280z"/>
<path class="st3" d="M290.4,342.9c0,0.1,0,0.1-0.1,0.2s-0.1,0.1-0.2,0.1s-0.2,0-0.4,0c-0.2,0-0.3,0-0.4,0s-0.2,0-0.2-0.1
	s-0.1-0.1-0.1-0.2V342c-0.4,0.4-0.8,0.7-1.3,1s-1,0.3-1.5,0.3c-0.5,0-0.9-0.1-1.3-0.2s-0.7-0.3-1-0.5s-0.5-0.5-0.6-0.8
	s-0.2-0.7-0.2-1.1c0-0.5,0.1-0.9,0.3-1.3s0.5-0.7,0.9-0.9s0.8-0.4,1.4-0.5s1.2-0.2,1.9-0.2h1.2V337c0-0.3,0-0.6-0.1-0.9
	s-0.2-0.5-0.4-0.6s-0.4-0.3-0.6-0.4s-0.6-0.1-0.9-0.1c-0.4,0-0.8,0-1.1,0.1s-0.6,0.2-0.8,0.3s-0.4,0.2-0.6,0.3s-0.3,0.1-0.4,0.1
	c0,0-0.1,0-0.1,0s-0.1-0.1-0.1-0.1s0-0.1-0.1-0.2s0-0.2,0-0.3c0-0.2,0-0.3,0-0.4s0.1-0.2,0.2-0.3s0.2-0.2,0.5-0.3s0.5-0.2,0.7-0.3
	s0.6-0.2,0.9-0.2s0.7-0.1,1-0.1c0.6,0,1.2,0.1,1.6,0.2s0.8,0.4,1.1,0.6s0.5,0.6,0.6,1s0.2,0.9,0.2,1.4L290.4,342.9L290.4,342.9z
	 M288.8,338.9h-1.4c-0.4,0-0.8,0-1.1,0.1s-0.6,0.2-0.8,0.3s-0.4,0.3-0.5,0.5s-0.1,0.4-0.1,0.7c0,0.5,0.1,0.8,0.4,1.1
	s0.7,0.4,1.2,0.4c0.4,0,0.8-0.1,1.2-0.3s0.7-0.5,1.1-1L288.8,338.9L288.8,338.9z"/>
<path class="st3" d="M300.7,342.9c0,0,0,0.1,0,0.1s-0.1,0.1-0.1,0.1s-0.1,0-0.2,0s-0.2,0-0.3,0c-0.1,0-0.3,0-0.3,0s-0.2,0-0.2,0
	s-0.1,0-0.1-0.1s0-0.1,0-0.1v-1.2c-0.5,0.5-0.9,0.9-1.4,1.2s-1,0.4-1.6,0.4c-0.6,0-1.2-0.1-1.6-0.4s-0.8-0.6-1.1-1s-0.5-0.9-0.6-1.5
	s-0.2-1.2-0.2-1.8c0-0.8,0.1-1.4,0.2-2s0.4-1.1,0.7-1.6s0.7-0.8,1.2-1s1-0.4,1.6-0.4c0.5,0,1,0.1,1.4,0.3s0.9,0.5,1.3,1v-5.1
	c0,0,0-0.1,0-0.1s0.1-0.1,0.1-0.1s0.1,0,0.3-0.1s0.2,0,0.4,0s0.3,0,0.4,0s0.2,0,0.2,0.1s0.1,0.1,0.1,0.1s0,0.1,0,0.1L300.7,342.9
	L300.7,342.9z M299.1,336.7c-0.4-0.5-0.9-1-1.3-1.2s-0.8-0.4-1.3-0.4c-0.4,0-0.8,0.1-1,0.3s-0.5,0.5-0.7,0.8s-0.3,0.7-0.4,1.1
	s-0.1,0.8-0.1,1.2c0,0.4,0,0.9,0.1,1.3s0.2,0.8,0.4,1.1s0.4,0.6,0.7,0.8s0.6,0.3,1,0.3c0.2,0,0.4,0,0.6-0.1s0.4-0.2,0.6-0.3
	s0.4-0.3,0.6-0.5s0.5-0.5,0.7-0.8L299.1,336.7L299.1,336.7z"/>
<path class="st3" d="M310.1,342.9c0,0.1,0,0.1-0.1,0.2s-0.1,0.1-0.2,0.1s-0.2,0-0.4,0c-0.2,0-0.3,0-0.4,0s-0.2,0-0.2-0.1
	s-0.1-0.1-0.1-0.2V342c-0.4,0.4-0.8,0.7-1.3,1s-1,0.3-1.5,0.3c-0.5,0-0.9-0.1-1.3-0.2s-0.7-0.3-1-0.5s-0.5-0.5-0.6-0.8
	s-0.2-0.7-0.2-1.1c0-0.5,0.1-0.9,0.3-1.3s0.5-0.7,0.9-0.9s0.8-0.4,1.4-0.5s1.2-0.2,1.9-0.2h1.2V337c0-0.3,0-0.6-0.1-0.9
	s-0.2-0.5-0.4-0.6s-0.4-0.3-0.6-0.4s-0.6-0.1-0.9-0.1c-0.4,0-0.8,0-1.1,0.1s-0.6,0.2-0.8,0.3s-0.4,0.2-0.6,0.3s-0.3,0.1-0.4,0.1
	c0,0-0.1,0-0.1,0s-0.1-0.1-0.1-0.1s0-0.1-0.1-0.2s0-0.2,0-0.3c0-0.2,0-0.3,0-0.4s0.1-0.2,0.2-0.3s0.2-0.2,0.5-0.3s0.5-0.2,0.7-0.3
	s0.6-0.2,0.9-0.2s0.7-0.1,1-0.1c0.6,0,1.2,0.1,1.6,0.2s0.8,0.4,1.1,0.6s0.5,0.6,0.6,1s0.2,0.9,0.2,1.4L310.1,342.9L310.1,342.9z
	 M308.5,338.9h-1.4c-0.4,0-0.8,0-1.1,0.1s-0.6,0.2-0.8,0.3s-0.4,0.3-0.5,0.5s-0.1,0.4-0.1,0.7c0,0.5,0.1,0.8,0.4,1.1
	s0.7,0.4,1.2,0.4c0.4,0,0.8-0.1,1.2-0.3s0.7-0.5,1.1-1L308.5,338.9L308.5,338.9z"/>
<path class="st3" d="M318.3,340.5c0,0.5-0.1,0.9-0.3,1.2s-0.4,0.6-0.7,0.9s-0.7,0.4-1.1,0.5s-0.9,0.2-1.4,0.2c-0.3,0-0.6,0-0.9-0.1
	s-0.5-0.1-0.8-0.2s-0.4-0.1-0.6-0.2s-0.3-0.1-0.3-0.2s-0.1-0.2-0.2-0.3s0-0.3,0-0.5c0-0.1,0-0.2,0-0.3s0-0.1,0-0.2s0-0.1,0.1-0.1
	s0.1,0,0.1,0c0.1,0,0.2,0,0.3,0.1s0.3,0.2,0.5,0.3s0.5,0.2,0.7,0.3s0.6,0.1,1,0.1c0.3,0,0.5,0,0.7-0.1s0.4-0.1,0.6-0.3
	s0.3-0.3,0.4-0.4s0.1-0.4,0.1-0.6s-0.1-0.5-0.2-0.6s-0.3-0.3-0.5-0.5s-0.4-0.3-0.7-0.4s-0.5-0.2-0.8-0.3s-0.5-0.2-0.8-0.4
	s-0.5-0.3-0.7-0.5s-0.4-0.4-0.5-0.7s-0.2-0.6-0.2-1c0-0.3,0.1-0.7,0.2-1s0.3-0.6,0.6-0.8s0.6-0.4,1-0.6s0.9-0.2,1.4-0.2
	c0.2,0,0.5,0,0.7,0.1s0.5,0.1,0.6,0.1s0.4,0.1,0.5,0.2s0.2,0.1,0.3,0.2s0.1,0.1,0.1,0.1s0,0.1,0,0.1s0,0.1,0,0.2s0,0.2,0,0.3
	c0,0.1,0,0.2,0,0.3s0,0.1,0,0.2s0,0.1-0.1,0.1s-0.1,0-0.1,0c-0.1,0-0.1,0-0.3-0.1s-0.3-0.1-0.4-0.2s-0.4-0.2-0.6-0.2
	s-0.5-0.1-0.8-0.1c-0.3,0-0.5,0-0.7,0.1s-0.4,0.1-0.5,0.3s-0.2,0.3-0.3,0.4s-0.1,0.3-0.1,0.5c0,0.3,0.1,0.5,0.2,0.6s0.3,0.3,0.5,0.5
	s0.5,0.3,0.7,0.4s0.5,0.2,0.8,0.3s0.5,0.2,0.8,0.4s0.5,0.3,0.7,0.5s0.4,0.4,0.5,0.7S318.3,340.1,318.3,340.5z"/>
<path class="st3" d="M332.7,342.9c0,0,0,0.1,0,0.1s-0.1,0.1-0.1,0.1s-0.1,0-0.2,0.1s-0.2,0-0.4,0s-0.3,0-0.4,0s-0.2,0-0.2-0.1
	s-0.1-0.1-0.1-0.1s0-0.1,0-0.1v-5.1c0-0.5,0-0.9-0.1-1.2s-0.2-0.6-0.3-0.8s-0.3-0.4-0.6-0.5s-0.5-0.2-0.8-0.2
	c-0.4,0-0.8,0.1-1.2,0.4s-0.8,0.7-1.3,1.3v6.1c0,0,0,0.1,0,0.1s-0.1,0.1-0.1,0.1s-0.1,0-0.2,0.1s-0.2,0-0.4,0s-0.3,0-0.4,0
	s-0.2,0-0.3-0.1s-0.1-0.1-0.1-0.1s0-0.1,0-0.1v-8.8c0,0,0-0.1,0-0.1s0.1-0.1,0.1-0.1s0.1,0,0.2-0.1s0.2,0,0.4,0c0.1,0,0.3,0,0.4,0
	s0.2,0,0.2,0.1s0.1,0.1,0.1,0.1s0,0.1,0,0.1v1.2c0.5-0.5,1-1,1.5-1.2s1-0.4,1.5-0.4c0.6,0,1.1,0.1,1.5,0.3s0.7,0.5,1,0.8
	s0.4,0.7,0.5,1.2s0.2,1,0.2,1.6L332.7,342.9L332.7,342.9z"/>
<path class="st3" d="M343.7,338.4c0,0.7-0.1,1.4-0.3,2s-0.5,1.1-0.8,1.6s-0.8,0.8-1.4,1s-1.2,0.4-2,0.4c-0.7,0-1.4-0.1-1.9-0.3
	s-1-0.5-1.3-0.9s-0.6-0.9-0.8-1.5s-0.3-1.3-0.3-2c0-0.7,0.1-1.4,0.3-2s0.5-1.1,0.8-1.6s0.8-0.8,1.4-1s1.2-0.4,2-0.4
	c0.7,0,1.4,0.1,1.9,0.3s1,0.5,1.3,0.9s0.6,0.9,0.8,1.5S343.7,337.6,343.7,338.4z M342,338.5c0-0.5,0-0.9-0.1-1.4s-0.2-0.8-0.4-1.1
	c-0.2-0.3-0.5-0.6-0.8-0.8s-0.8-0.3-1.3-0.3c-0.5,0-0.9,0.1-1.2,0.3s-0.6,0.4-0.9,0.7s-0.4,0.7-0.5,1.1s-0.2,0.9-0.2,1.4
	c0,0.5,0,0.9,0.1,1.4s0.2,0.8,0.4,1.1s0.5,0.6,0.8,0.8c0.4,0.2,0.8,0.3,1.3,0.3c0.5,0,0.9-0.1,1.2-0.3s0.6-0.4,0.9-0.7
	s0.4-0.7,0.5-1.1C342,339.5,342,339,342,338.5z"/>
<path class="st3" d="M218.4,363.5c0,0.1,0,0.2,0,0.3c0,0.1,0,0.1,0,0.2c0,0,0,0.1-0.1,0.1c0,0-0.1,0-0.1,0c-0.1,0-0.1,0-0.2,0
	s-0.1-0.1-0.3-0.1s-0.2-0.1-0.4-0.1c-0.1,0-0.3,0-0.5,0c-0.2,0-0.4,0-0.6,0.1s-0.3,0.2-0.4,0.4c-0.1,0.2-0.2,0.4-0.2,0.6
	c-0.1,0.3-0.1,0.6-0.1,1v1h2c0.1,0,0.1,0,0.1,0c0,0,0.1,0.1,0.1,0.1s0.1,0.1,0.1,0.2s0,0.2,0,0.3c0,0.2,0,0.4-0.1,0.5
	s-0.1,0.2-0.2,0.2h-2v7.7c0,0,0,0.1,0,0.1c0,0-0.1,0.1-0.1,0.1c-0.1,0-0.1,0-0.3,0.1s-0.2,0-0.4,0s-0.3,0-0.4,0
	c-0.1,0-0.2,0-0.3-0.1s-0.1-0.1-0.1-0.1c0,0,0-0.1,0-0.1v-7.7h-1.2c-0.1,0-0.2,0-0.2-0.2c-0.1-0.1-0.1-0.3-0.1-0.5
	c0-0.1,0-0.2,0-0.3c0-0.1,0-0.1,0.1-0.2s0.1-0.1,0.1-0.1s0.1,0,0.1,0h1.2v-0.9c0-0.6,0.1-1.1,0.2-1.6c0.1-0.4,0.3-0.8,0.5-1.1
	s0.5-0.5,0.9-0.6s0.8-0.2,1.3-0.2c0.2,0,0.4,0,0.7,0.1s0.4,0.1,0.5,0.1s0.2,0.1,0.2,0.1s0.1,0.1,0.1,0.1s0,0.1,0.1,0.2
	S218.4,363.3,218.4,363.5z"/>
<path class="st3" d="M227,371.1c0,0.3-0.1,0.4-0.2,0.5c-0.1,0.1-0.3,0.2-0.4,0.2h-5.8c0,0.5,0.1,0.9,0.1,1.3c0.1,0.4,0.3,0.7,0.5,1
	c0.2,0.3,0.5,0.5,0.9,0.6s0.8,0.2,1.3,0.2c0.4,0,0.8,0,1.1-0.1s0.6-0.1,0.9-0.2c0.2-0.1,0.4-0.2,0.6-0.2s0.3-0.1,0.4-0.1
	c0.1,0,0.1,0,0.1,0c0,0,0.1,0.1,0.1,0.1s0,0.1,0,0.2s0,0.2,0,0.3c0,0.1,0,0.2,0,0.2s0,0.1,0,0.2s0,0.1-0.1,0.1s-0.1,0.1-0.1,0.1
	c0,0-0.1,0.1-0.3,0.2s-0.4,0.2-0.7,0.2s-0.6,0.1-1,0.2s-0.8,0.1-1.2,0.1c-0.7,0-1.4-0.1-1.9-0.3c-0.5-0.2-1-0.5-1.4-0.9
	s-0.6-0.9-0.8-1.5c-0.2-0.6-0.3-1.3-0.3-2.1c0-0.8,0.1-1.4,0.3-2s0.5-1.1,0.8-1.5c0.4-0.4,0.8-0.7,1.3-1c0.5-0.2,1.1-0.3,1.8-0.3
	c0.7,0,1.3,0.1,1.8,0.3c0.5,0.2,0.9,0.5,1.2,0.9s0.5,0.8,0.7,1.3s0.2,1,0.2,1.6L227,371.1L227,371.1z M225.3,370.6
	c0-0.9-0.2-1.5-0.6-2c-0.4-0.5-1-0.7-1.8-0.7c-0.4,0-0.8,0.1-1.1,0.2c-0.3,0.1-0.6,0.4-0.8,0.6s-0.4,0.5-0.5,0.9s-0.2,0.7-0.2,1
	H225.3z"/>
<path class="st3" d="M236.8,371.1c0,0.3-0.1,0.4-0.2,0.5c-0.1,0.1-0.3,0.2-0.4,0.2h-5.8c0,0.5,0.1,0.9,0.1,1.3
	c0.1,0.4,0.3,0.7,0.5,1c0.2,0.3,0.5,0.5,0.9,0.6s0.8,0.2,1.3,0.2c0.4,0,0.8,0,1.1-0.1s0.6-0.1,0.9-0.2c0.2-0.1,0.4-0.2,0.6-0.2
	c0.1-0.1,0.3-0.1,0.4-0.1c0,0,0.1,0,0.1,0s0.1,0.1,0.1,0.1s0,0.1,0,0.2s0,0.2,0,0.3c0,0.1,0,0.2,0,0.2s0,0.1,0,0.2s0,0.1-0.1,0.1
	s-0.1,0.1-0.1,0.1c0,0-0.1,0.1-0.3,0.2s-0.4,0.2-0.7,0.2s-0.6,0.1-1,0.2s-0.8,0.1-1.2,0.1c-0.7,0-1.4-0.1-1.9-0.3
	c-0.5-0.2-1-0.5-1.4-0.9s-0.6-0.9-0.8-1.5c-0.2-0.6-0.3-1.3-0.3-2.1c0-0.8,0.1-1.4,0.3-2s0.5-1.1,0.8-1.5c0.4-0.4,0.8-0.7,1.3-1
	c0.5-0.2,1.1-0.3,1.8-0.3c0.7,0,1.3,0.1,1.8,0.3s0.9,0.5,1.2,0.9s0.5,0.8,0.7,1.3s0.2,1,0.2,1.6L236.8,371.1L236.8,371.1z
	 M235.2,370.6c0-0.9-0.2-1.5-0.6-2s-1-0.7-1.8-0.7c-0.4,0-0.8,0.1-1.1,0.2c-0.3,0.1-0.6,0.4-0.8,0.6s-0.4,0.5-0.5,0.9
	s-0.2,0.7-0.2,1H235.2z"/>
<path class="st3" d="M246.7,375.9c0,0,0,0.1,0,0.1s-0.1,0.1-0.1,0.1s-0.1,0-0.2,0c-0.1,0-0.2,0-0.3,0c-0.1,0-0.3,0-0.3,0
	c-0.1,0-0.2,0-0.2,0s-0.1,0-0.1-0.1s0-0.1,0-0.1v-1.2c-0.5,0.5-0.9,0.9-1.4,1.2s-1,0.4-1.6,0.4c-0.6,0-1.2-0.1-1.6-0.4
	c-0.5-0.3-0.8-0.6-1.1-1s-0.5-0.9-0.6-1.5c-0.1-0.6-0.2-1.2-0.2-1.8c0-0.8,0.1-1.4,0.2-2s0.4-1.1,0.7-1.6s0.7-0.8,1.2-1
	c0.5-0.2,1-0.4,1.6-0.4c0.5,0,1,0.1,1.4,0.3c0.4,0.2,0.9,0.5,1.3,1v-5.1c0,0,0-0.1,0-0.1s0.1-0.1,0.1-0.1c0.1,0,0.1,0,0.3-0.1
	s0.2,0,0.4,0s0.3,0,0.4,0c0.1,0,0.2,0,0.2,0.1s0.1,0.1,0.1,0.1s0,0.1,0,0.1L246.7,375.9L246.7,375.9z M245,369.7
	c-0.4-0.5-0.9-1-1.3-1.2c-0.4-0.3-0.8-0.4-1.3-0.4c-0.4,0-0.8,0.1-1,0.3c-0.3,0.2-0.5,0.5-0.7,0.8c-0.2,0.3-0.3,0.7-0.4,1.1
	s-0.1,0.8-0.1,1.2c0,0.4,0,0.9,0.1,1.3s0.2,0.8,0.4,1.1c0.2,0.3,0.4,0.6,0.7,0.8s0.6,0.3,1.1,0.3c0.2,0,0.4,0,0.6-0.1
	s0.4-0.2,0.6-0.3c0.2-0.1,0.4-0.3,0.6-0.5c0.2-0.2,0.5-0.5,0.7-0.8L245,369.7L245,369.7z"/>
<path class="st3" d="M257.5,371.4c0,0.8-0.1,1.5-0.3,2.1s-0.4,1.1-0.7,1.6s-0.7,0.8-1.2,1s-1,0.3-1.6,0.3c-0.3,0-0.5,0-0.8-0.1
	s-0.5-0.1-0.7-0.3s-0.5-0.3-0.7-0.5s-0.5-0.4-0.7-0.7v1.1c0,0,0,0.1,0,0.1s-0.1,0.1-0.1,0.1s-0.1,0-0.2,0s-0.2,0-0.3,0
	c-0.1,0-0.2,0-0.3,0c-0.1,0-0.2,0-0.2,0s-0.1,0-0.1-0.1s0-0.1,0-0.1v-13c0,0,0-0.1,0-0.1s0.1-0.1,0.1-0.1s0.1,0,0.3-0.1s0.2,0,0.4,0
	s0.3,0,0.4,0s0.2,0,0.2,0.1s0.1,0.1,0.1,0.1s0,0.1,0,0.1v5.3c0.3-0.3,0.5-0.5,0.8-0.7s0.5-0.3,0.7-0.4s0.5-0.2,0.7-0.3
	s0.5-0.1,0.7-0.1c0.6,0,1.2,0.1,1.6,0.4s0.8,0.6,1.1,1s0.5,0.9,0.6,1.5S257.5,370.7,257.5,371.4z M255.8,371.5c0-0.5,0-0.9-0.1-1.3
	c-0.1-0.4-0.2-0.8-0.4-1.1s-0.4-0.6-0.7-0.8s-0.6-0.3-1.1-0.3c-0.2,0-0.4,0-0.6,0.1s-0.4,0.2-0.6,0.3c-0.2,0.1-0.4,0.3-0.6,0.5
	c-0.2,0.2-0.5,0.5-0.7,0.8v3.5c0.4,0.5,0.9,1,1.3,1.2s0.8,0.4,1.3,0.4c0.4,0,0.8-0.1,1-0.3c0.3-0.2,0.5-0.5,0.7-0.8
	c0.2-0.3,0.3-0.7,0.4-1.1S255.8,372,255.8,371.5z"/>
<path class="st3" d="M266.4,375.9c0,0.1,0,0.1-0.1,0.2s-0.1,0.1-0.2,0.1s-0.2,0-0.4,0c-0.2,0-0.3,0-0.4,0s-0.2,0-0.2-0.1
	s-0.1-0.1-0.1-0.2V375c-0.4,0.4-0.8,0.7-1.3,1s-1,0.3-1.5,0.3c-0.5,0-0.9-0.1-1.3-0.2s-0.7-0.3-1-0.5s-0.5-0.5-0.6-0.8
	s-0.2-0.7-0.2-1.1c0-0.5,0.1-0.9,0.3-1.3s0.5-0.7,0.9-0.9s0.8-0.4,1.4-0.5s1.2-0.2,1.9-0.2h1.2V370c0-0.3,0-0.6-0.1-0.9
	s-0.2-0.5-0.4-0.6s-0.4-0.3-0.6-0.4s-0.6-0.1-0.9-0.1c-0.4,0-0.8,0-1.1,0.1s-0.6,0.2-0.8,0.3s-0.4,0.2-0.6,0.3s-0.3,0.1-0.4,0.1
	c0,0-0.1,0-0.1,0s-0.1-0.1-0.1-0.1s0-0.1-0.1-0.2s0-0.2,0-0.3c0-0.2,0-0.3,0-0.4s0.1-0.2,0.2-0.3s0.2-0.2,0.5-0.3s0.5-0.2,0.7-0.3
	s0.6-0.2,0.9-0.2s0.7-0.1,1-0.1c0.6,0,1.2,0.1,1.6,0.2s0.8,0.4,1.1,0.6s0.5,0.6,0.6,1s0.2,0.9,0.2,1.4L266.4,375.9L266.4,375.9z
	 M264.8,371.9h-1.4c-0.4,0-0.8,0-1.1,0.1s-0.6,0.2-0.8,0.3s-0.4,0.3-0.5,0.5s-0.1,0.4-0.1,0.7c0,0.5,0.1,0.8,0.4,1.1
	s0.7,0.4,1.2,0.4c0.4,0,0.8-0.1,1.2-0.3s0.7-0.5,1.1-1L264.8,371.9L264.8,371.9z"/>
<path class="st3" d="M275.5,374.5c0,0.1,0,0.2,0,0.3s0,0.1,0,0.2s0,0.1-0.1,0.1s-0.1,0.1-0.2,0.2s-0.2,0.2-0.4,0.3s-0.4,0.2-0.7,0.3
	s-0.5,0.2-0.8,0.2s-0.6,0.1-0.9,0.1c-0.6,0-1.2-0.1-1.7-0.3s-0.9-0.5-1.2-0.9s-0.6-0.9-0.8-1.5s-0.3-1.3-0.3-2
	c0-0.9,0.1-1.6,0.3-2.2s0.5-1.1,0.9-1.5s0.8-0.7,1.3-0.9s1-0.3,1.6-0.3c0.3,0,0.5,0,0.8,0.1s0.5,0.1,0.7,0.2s0.4,0.2,0.6,0.3
	s0.3,0.2,0.4,0.3s0.1,0.1,0.2,0.2s0,0.1,0.1,0.2s0,0.1,0,0.2s0,0.2,0,0.3c0,0.3,0,0.4-0.1,0.5s-0.1,0.1-0.2,0.1
	c-0.1,0-0.2,0-0.3-0.2s-0.3-0.2-0.5-0.4s-0.4-0.3-0.7-0.4s-0.6-0.2-1-0.2c-0.8,0-1.4,0.3-1.8,0.9s-0.6,1.5-0.6,2.6
	c0,0.6,0,1.1,0.2,1.5s0.3,0.8,0.5,1.1s0.5,0.5,0.8,0.6s0.6,0.2,1,0.2c0.4,0,0.7-0.1,1-0.2s0.5-0.3,0.7-0.4s0.4-0.3,0.5-0.4
	s0.3-0.2,0.3-0.2c0,0,0.1,0,0.1,0s0.1,0.1,0.1,0.1s0,0.1,0,0.2S275.5,374.4,275.5,374.5z"/>
<path class="st3" d="M284.8,375.9c0,0,0,0.1,0,0.1s-0.1,0.1-0.1,0.1s-0.1,0-0.3,0.1s-0.3,0-0.4,0c-0.2,0-0.3,0-0.4,0s-0.2,0-0.3,0
	s-0.1-0.1-0.2-0.1s-0.1-0.1-0.1-0.1l-3.7-4.9v4.9c0,0,0,0.1,0,0.1s-0.1,0.1-0.1,0.1s-0.1,0-0.2,0.1s-0.2,0-0.4,0s-0.3,0-0.4,0
	s-0.2,0-0.3-0.1s-0.1-0.1-0.1-0.1s0-0.1,0-0.1v-13c0,0,0-0.1,0-0.1s0.1-0.1,0.1-0.1s0.1,0,0.3-0.1s0.2,0,0.4,0s0.3,0,0.4,0
	s0.2,0,0.2,0.1s0.1,0.1,0.1,0.1s0,0.1,0,0.1v8l3.3-3.6c0-0.1,0.1-0.1,0.2-0.2s0.1-0.1,0.2-0.1s0.2,0,0.3-0.1s0.2,0,0.4,0
	s0.3,0,0.4,0s0.2,0,0.3,0s0.1,0,0.1,0.1s0,0.1,0,0.1c0,0.1,0,0.2-0.1,0.2s-0.1,0.2-0.2,0.3l-3.2,3.2l3.6,4.6
	c0.1,0.1,0.1,0.2,0.2,0.3S284.8,375.8,284.8,375.9z"/>
<path class="st3" d="M288.8,375c0,0.5-0.1,0.8-0.2,0.9s-0.4,0.2-0.8,0.2c-0.4,0-0.7-0.1-0.8-0.2s-0.2-0.5-0.2-0.9
	c0-0.5,0.1-0.8,0.2-0.9s0.4-0.2,0.8-0.2c0.4,0,0.7,0.1,0.8,0.2S288.8,374.6,288.8,375z"/>
<circle class="st1" cx="407.3" cy="90.7" r="89.7"/>
<g>
	<g>
		<path class="st1" d="M237.3,203.1c0,0.3,0,0.5,0,0.7c0,0.2-0.1,0.4-0.1,0.5c-0.1,0.1-0.1,0.2-0.2,0.3c-0.1,0.1-0.2,0.1-0.3,0.1
			h-4.8v15.6c0,0.1,0,0.2-0.1,0.3c-0.1,0.1-0.2,0.1-0.3,0.2c-0.1,0.1-0.4,0.1-0.6,0.1s-0.6,0-0.9,0s-0.7,0-0.9,0
			c-0.3,0-0.5-0.1-0.6-0.1s-0.3-0.1-0.3-0.2c-0.1-0.1-0.1-0.2-0.1-0.3v-15.6h-4.8c-0.1,0-0.2,0-0.3-0.1s-0.1-0.1-0.2-0.3
			c-0.1-0.1-0.1-0.3-0.1-0.5c0-0.2,0-0.4,0-0.7c0-0.3,0-0.6,0-0.8c0-0.2,0.1-0.4,0.1-0.5s0.1-0.2,0.2-0.3c0.1-0.1,0.1-0.1,0.3-0.1
			h13.6c0.1,0,0.2,0,0.3,0.1s0.1,0.1,0.2,0.3s0.1,0.3,0.1,0.5C237.3,202.5,237.3,202.8,237.3,203.1z"/>
		<path class="st1" d="M249,213.2c0,0.5-0.1,0.8-0.3,1c-0.2,0.2-0.5,0.3-0.8,0.3h-8.1c0,0.6,0.1,1.1,0.2,1.5
			c0.1,0.5,0.4,0.9,0.6,1.2c0.3,0.3,0.7,0.6,1.1,0.7s1,0.3,1.7,0.3c0.7,0,1.2-0.1,1.7-0.1s0.9-0.2,1.3-0.3s0.7-0.2,0.9-0.3
			c0.2-0.1,0.4-0.1,0.6-0.1c0.1,0,0.2,0,0.2,0.1s0.1,0.1,0.1,0.2s0.1,0.2,0.1,0.4c0,0.2,0,0.4,0,0.6c0,0.2,0,0.4,0,0.6s0,0.3,0,0.4
			c0,0.1-0.1,0.2-0.1,0.3s-0.1,0.1-0.2,0.2c-0.1,0.1-0.2,0.2-0.5,0.3s-0.7,0.2-1.1,0.4c-0.4,0.1-1,0.2-1.5,0.3
			c-0.6,0.1-1.2,0.1-1.9,0.1c-1.2,0-2.2-0.1-3.1-0.4s-1.6-0.8-2.2-1.4s-1-1.4-1.3-2.3c-0.3-0.9-0.4-2-0.4-3.3c0-1.2,0.1-2.3,0.5-3.2
			c0.3-0.9,0.8-1.8,1.3-2.4c0.6-0.7,1.3-1.2,2.1-1.5c0.8-0.4,1.8-0.5,2.8-0.5c1.1,0,2.1,0.2,2.9,0.5c0.8,0.3,1.4,0.8,1.9,1.4
			c0.5,0.6,0.9,1.3,1.1,2.1c0.2,0.8,0.4,1.7,0.4,2.6L249,213.2L249,213.2z M245.4,212.2c0-1.1-0.2-1.9-0.6-2.5
			c-0.4-0.6-1.1-0.9-2.1-0.9c-0.5,0-0.9,0.1-1.3,0.3c-0.4,0.2-0.6,0.4-0.9,0.7c-0.2,0.3-0.4,0.7-0.5,1.1s-0.2,0.9-0.2,1.3
			L245.4,212.2L245.4,212.2z"/>
		<path class="st1" d="M261.5,216.5c0,0.8-0.1,1.4-0.4,2s-0.7,1.1-1.2,1.4s-1.1,0.7-1.8,0.9s-1.5,0.3-2.3,0.3c-0.5,0-1,0-1.4-0.1
			s-0.9-0.2-1.2-0.3s-0.7-0.2-0.9-0.4c-0.2-0.1-0.4-0.2-0.5-0.3s-0.2-0.3-0.3-0.5s-0.1-0.6-0.1-1c0-0.3,0-0.5,0-0.7s0.1-0.3,0.1-0.4
			c0-0.1,0.1-0.2,0.1-0.2c0.1,0,0.1-0.1,0.2-0.1c0.1,0,0.3,0.1,0.5,0.2c0.2,0.1,0.5,0.3,0.8,0.4s0.7,0.3,1.1,0.4s0.9,0.2,1.4,0.2
			c0.3,0,0.6,0,0.9-0.1c0.3-0.1,0.5-0.2,0.7-0.3c0.2-0.1,0.3-0.3,0.4-0.5c0.1-0.2,0.1-0.4,0.1-0.7c0-0.3-0.1-0.6-0.3-0.8
			c-0.2-0.2-0.4-0.4-0.7-0.6s-0.6-0.3-1-0.4s-0.8-0.3-1.2-0.5c-0.4-0.2-0.8-0.4-1.2-0.6c-0.4-0.2-0.7-0.5-1-0.8
			c-0.3-0.3-0.6-0.7-0.7-1.1s-0.3-1-0.3-1.6c0-0.6,0.1-1.2,0.4-1.8s0.6-1,1.1-1.4s1-0.7,1.7-0.9c0.7-0.2,1.4-0.3,2.3-0.3
			c0.4,0,0.8,0,1.2,0.1s0.8,0.1,1.1,0.2s0.6,0.2,0.8,0.3s0.4,0.2,0.5,0.3s0.2,0.1,0.2,0.2s0.1,0.2,0.1,0.3s0,0.2,0,0.4
			c0,0.1,0,0.4,0,0.6c0,0.3,0,0.5,0,0.7c0,0.2,0,0.3-0.1,0.4s-0.1,0.2-0.1,0.2c-0.1,0-0.1,0.1-0.2,0.1c-0.1,0-0.2-0.1-0.4-0.2
			c-0.2-0.1-0.4-0.2-0.7-0.3c-0.3-0.1-0.6-0.2-1-0.3s-0.8-0.2-1.3-0.2c-0.3,0-0.6,0-0.9,0.1c-0.3,0.1-0.4,0.2-0.6,0.3
			s-0.3,0.3-0.4,0.5c-0.1,0.2-0.1,0.4-0.1,0.6c0,0.3,0.1,0.6,0.3,0.8c0.2,0.2,0.4,0.4,0.8,0.6s0.7,0.3,1,0.4
			c0.4,0.1,0.8,0.3,1.2,0.5c0.4,0.2,0.8,0.4,1.2,0.6c0.4,0.2,0.7,0.5,1,0.8s0.6,0.7,0.8,1.1C261.4,215.4,261.5,215.9,261.5,216.5z"
			/>
		<path class="st1" d="M271.8,219c0,0.4,0,0.8-0.1,1c0,0.2-0.1,0.4-0.2,0.5s-0.2,0.2-0.4,0.3c-0.2,0.1-0.4,0.1-0.6,0.2
			c-0.2,0.1-0.5,0.1-0.8,0.1s-0.5,0-0.8,0c-0.8,0-1.4-0.1-1.9-0.3s-1-0.5-1.4-0.9s-0.6-0.9-0.8-1.5s-0.3-1.3-0.3-2.1v-6.8H263
			c-0.2,0-0.3-0.1-0.4-0.4c-0.1-0.2-0.1-0.6-0.1-1.2c0-0.3,0-0.5,0-0.7c0-0.2,0.1-0.4,0.1-0.5s0.1-0.2,0.2-0.3
			c0.1-0.1,0.2-0.1,0.3-0.1h1.6v-3c0-0.1,0-0.2,0.1-0.3s0.1-0.1,0.3-0.2s0.3-0.1,0.6-0.1s0.5,0,0.9,0c0.4,0,0.7,0,0.9,0
			c0.2,0,0.4,0.1,0.6,0.1c0.1,0.1,0.2,0.1,0.3,0.2s0.1,0.2,0.1,0.3v3h2.9c0.1,0,0.2,0,0.3,0.1s0.1,0.1,0.2,0.3s0.1,0.3,0.1,0.5
			c0,0.2,0,0.4,0,0.7c0,0.6,0,0.9-0.1,1.2s-0.2,0.4-0.4,0.4h-2.9v6.3c0,0.7,0.1,1.3,0.3,1.6s0.6,0.5,1.2,0.5c0.2,0,0.4,0,0.5-0.1
			s0.3-0.1,0.4-0.1c0.1,0,0.2-0.1,0.3-0.1s0.2-0.1,0.2-0.1c0.1,0,0.1,0,0.2,0.1s0.1,0.1,0.1,0.2c0,0.1,0.1,0.3,0.1,0.4
			C271.8,218.5,271.8,218.7,271.8,219z"/>
		<path class="st1" d="M286.5,213.2c0,0.5-0.1,0.8-0.3,1c-0.2,0.2-0.5,0.3-0.8,0.3h-8.1c0,0.6,0.1,1.1,0.2,1.5
			c0.1,0.5,0.4,0.9,0.6,1.2c0.3,0.3,0.7,0.6,1.1,0.7s1,0.3,1.7,0.3c0.7,0,1.2-0.1,1.7-0.1s0.9-0.2,1.3-0.3c0.4-0.1,0.7-0.2,0.9-0.3
			s0.4-0.1,0.6-0.1c0.1,0,0.2,0,0.2,0.1s0.1,0.1,0.1,0.2s0.1,0.2,0.1,0.4c0,0.2,0,0.4,0,0.6c0,0.2,0,0.4,0,0.6s0,0.3,0,0.4
			c0,0.1,0,0.2-0.1,0.3s-0.1,0.1-0.2,0.2c-0.1,0.1-0.2,0.2-0.5,0.3s-0.7,0.2-1.1,0.4c-0.5,0.1-1,0.2-1.5,0.3
			c-0.6,0.1-1.2,0.1-1.9,0.1c-1.2,0-2.2-0.1-3.1-0.4c-0.9-0.3-1.6-0.8-2.2-1.4s-1-1.4-1.3-2.3c-0.3-0.9-0.4-2-0.4-3.3
			c0-1.2,0.1-2.3,0.5-3.2s0.8-1.8,1.3-2.4c0.6-0.7,1.3-1.2,2.1-1.5c0.8-0.4,1.8-0.5,2.8-0.5c1.1,0,2.1,0.2,2.9,0.5
			c0.8,0.3,1.4,0.8,2,1.4c0.5,0.6,0.9,1.3,1.1,2.1s0.4,1.7,0.4,2.6L286.5,213.2L286.5,213.2z M282.8,212.2c0-1.1-0.2-1.9-0.6-2.5
			c-0.5-0.6-1.1-0.9-2.1-0.9c-0.5,0-0.9,0.1-1.3,0.3c-0.4,0.2-0.6,0.4-0.9,0.7s-0.4,0.7-0.5,1.1s-0.2,0.9-0.2,1.3L282.8,212.2
			L282.8,212.2z"/>
	</g>
</g>
<g>
	<path class="st2" d="M390.5,96.1c0.1,0.3,0.1,0.5,0.2,0.7c0,0.2,0,0.3-0.1,0.4s-0.2,0.1-0.4,0.2c-0.2,0-0.5,0-0.9,0
		c-0.4,0-0.7,0-0.9,0c-0.2,0-0.4,0-0.5-0.1s-0.2-0.1-0.2-0.1c0-0.1-0.1-0.1-0.1-0.2l-1-3H381l-0.9,2.9c0,0.1-0.1,0.2-0.1,0.3
		s-0.1,0.1-0.2,0.2s-0.3,0.1-0.5,0.1c-0.2,0-0.5,0-0.8,0c-0.4,0-0.6,0-0.8,0s-0.3-0.1-0.4-0.2c-0.1-0.1-0.1-0.2-0.1-0.4
		c0-0.2,0.1-0.4,0.2-0.6l4.5-13.1c0-0.1,0.1-0.2,0.2-0.3c0.1-0.1,0.2-0.1,0.3-0.2s0.3-0.1,0.5-0.1s0.5,0,0.9,0c0.5,0,0.8,0,1.1,0
		c0.3,0,0.5,0,0.6,0.1s0.3,0.1,0.3,0.2s0.1,0.2,0.2,0.3L390.5,96.1z M383.8,85.3L383.8,85.3l-2.1,6.3h4.2L383.8,85.3z"/>
	<path class="st2" d="M395.5,97.2c0,0.8-0.1,1.4-0.2,1.9c-0.1,0.5-0.3,0.9-0.6,1.3s-0.6,0.6-1,0.8c-0.4,0.2-0.9,0.3-1.5,0.3
		c-0.3,0-0.6,0-0.8-0.1s-0.4-0.1-0.5-0.1c-0.1-0.1-0.2-0.1-0.2-0.2c0-0.1-0.1-0.2-0.1-0.2c0-0.1,0-0.2,0-0.3c0-0.1,0-0.3,0-0.4
		c0-0.2,0-0.4,0-0.5c0-0.1,0-0.3,0.1-0.3c0-0.1,0.1-0.1,0.1-0.2s0.1-0.1,0.1-0.1c0,0,0.1,0,0.2,0c0.1,0,0.3,0,0.4,0
		c0.2,0,0.4,0,0.5-0.1s0.3-0.2,0.4-0.3s0.2-0.3,0.2-0.5c0-0.2,0.1-0.5,0.1-1V86.7c0-0.1,0-0.1,0.1-0.2c0-0.1,0.1-0.1,0.2-0.2
		c0.1,0,0.3-0.1,0.4-0.1c0.2,0,0.4,0,0.7,0s0.5,0,0.7,0c0.2,0,0.3,0.1,0.4,0.1c0.1,0,0.2,0.1,0.2,0.2c0,0.1,0.1,0.1,0.1,0.2
		L395.5,97.2L395.5,97.2z M395.7,83.3c0,0.6-0.1,1-0.4,1.2s-0.7,0.3-1.3,0.3c-0.6,0-1.1-0.1-1.3-0.3c-0.2-0.2-0.3-0.6-0.3-1.2
		c0-0.6,0.1-1,0.4-1.2c0.2-0.2,0.7-0.3,1.3-0.3c0.6,0,1.1,0.1,1.3,0.3C395.6,82.3,395.7,82.7,395.7,83.3z"/>
	<path class="st2" d="M408,96.9c0,0.1,0,0.1-0.1,0.2s-0.1,0.1-0.2,0.1s-0.2,0.1-0.4,0.1s-0.4,0-0.6,0c-0.3,0-0.5,0-0.6,0
		c-0.2,0-0.3-0.1-0.4-0.1c-0.1,0-0.2-0.1-0.2-0.1s-0.1-0.1-0.1-0.2v-1.2c-0.6,0.6-1.1,1.1-1.7,1.4s-1.2,0.5-1.8,0.5
		c-0.7,0-1.3-0.1-1.8-0.3s-0.9-0.5-1.1-0.9s-0.5-0.8-0.6-1.4c-0.1-0.5-0.2-1.2-0.2-1.9v-6.2c0-0.1,0-0.1,0.1-0.2s0.1-0.1,0.2-0.1
		s0.3-0.1,0.4-0.1c0.2,0,0.4,0,0.7,0c0.3,0,0.5,0,0.7,0c0.2,0,0.3,0.1,0.4,0.1s0.2,0.1,0.2,0.1c0,0.1,0.1,0.1,0.1,0.2v5.8
		c0,0.5,0,0.9,0.1,1.2s0.2,0.5,0.3,0.7c0.1,0.2,0.3,0.4,0.5,0.5s0.5,0.2,0.8,0.2c0.4,0,0.7-0.1,1.1-0.4c0.4-0.3,0.8-0.7,1.2-1.2
		v-6.8c0-0.1,0-0.1,0.1-0.2s0.1-0.1,0.2-0.1s0.3-0.1,0.4-0.1s0.4,0,0.7,0s0.5,0,0.7,0c0.2,0,0.3,0.1,0.4,0.1s0.2,0.1,0.2,0.1
		c0,0.1,0.1,0.1,0.1,0.2L408,96.9L408,96.9z"/>
	<path class="st2" d="M418.1,94c0,0.6-0.1,1.1-0.3,1.5s-0.5,0.8-0.9,1.1s-0.9,0.5-1.4,0.7s-1.1,0.2-1.8,0.2c-0.4,0-0.7,0-1.1-0.1
		c-0.4-0.1-0.7-0.1-0.9-0.2c-0.3-0.1-0.5-0.2-0.7-0.3s-0.3-0.2-0.4-0.3s-0.1-0.2-0.2-0.4s-0.1-0.4-0.1-0.8c0-0.2,0-0.4,0-0.5
		c0-0.1,0-0.2,0.1-0.3s0.1-0.1,0.1-0.2c0,0,0.1,0,0.2,0c0.1,0,0.2,0.1,0.4,0.1s0.4,0.2,0.6,0.3s0.5,0.2,0.9,0.3s0.7,0.2,1.1,0.2
		c0.3,0,0.5,0,0.7-0.1s0.4-0.1,0.5-0.2c0.1-0.1,0.3-0.2,0.3-0.4c0.1-0.2,0.1-0.3,0.1-0.5c0-0.2-0.1-0.4-0.2-0.6
		c-0.1-0.2-0.3-0.3-0.6-0.4s-0.5-0.2-0.8-0.3c-0.3-0.1-0.6-0.2-0.9-0.3s-0.6-0.3-0.9-0.4c-0.3-0.2-0.5-0.4-0.8-0.6
		c-0.2-0.2-0.4-0.5-0.6-0.9c-0.1-0.3-0.2-0.8-0.2-1.2c0-0.5,0.1-0.9,0.3-1.3c0.2-0.4,0.5-0.8,0.8-1c0.4-0.3,0.8-0.5,1.3-0.7
		c0.5-0.2,1.1-0.2,1.7-0.2c0.3,0,0.6,0,0.9,0.1c0.3,0,0.6,0.1,0.8,0.2s0.5,0.1,0.6,0.2c0.2,0.1,0.3,0.2,0.4,0.2s0.1,0.1,0.1,0.2
		s0,0.1,0.1,0.2c0,0.1,0,0.2,0,0.3s0,0.3,0,0.4c0,0.2,0,0.4,0,0.5c0,0.1,0,0.2-0.1,0.3c0,0.1-0.1,0.1-0.1,0.2c0,0-0.1,0-0.2,0
		c-0.1,0-0.2,0-0.3-0.1c-0.1-0.1-0.3-0.2-0.5-0.3c-0.2-0.1-0.5-0.2-0.8-0.3s-0.6-0.1-1-0.1c-0.3,0-0.5,0-0.7,0.1s-0.4,0.1-0.5,0.2
		c-0.1,0.1-0.2,0.2-0.3,0.3c-0.1,0.1-0.1,0.3-0.1,0.4c0,0.2,0.1,0.4,0.2,0.6c0.1,0.2,0.3,0.3,0.6,0.4c0.2,0.1,0.5,0.2,0.8,0.3
		c0.3,0.1,0.6,0.2,0.9,0.3c0.3,0.1,0.6,0.3,0.9,0.4c0.3,0.2,0.6,0.4,0.8,0.6c0.2,0.2,0.4,0.5,0.6,0.9C418,93.1,418.1,93.5,418.1,94z
		"/>
	<path class="st2" d="M426,95.9c0,0.3,0,0.6-0.1,0.8s-0.1,0.3-0.2,0.4s-0.2,0.1-0.3,0.2c-0.1,0.1-0.3,0.1-0.5,0.2s-0.4,0.1-0.6,0.1
		c-0.2,0-0.4,0-0.6,0c-0.6,0-1.1-0.1-1.5-0.2c-0.4-0.1-0.8-0.4-1-0.7c-0.3-0.3-0.5-0.7-0.6-1.1s-0.2-1-0.2-1.6v-5.2h-1.2
		c-0.1,0-0.3-0.1-0.3-0.3s-0.1-0.5-0.1-0.9c0-0.2,0-0.4,0-0.6c0-0.2,0-0.3,0.1-0.4c0-0.1,0.1-0.2,0.1-0.2c0.1,0,0.1-0.1,0.2-0.1h1.2
		V84c0-0.1,0-0.1,0.1-0.2s0.1-0.1,0.2-0.2c0.1,0,0.3-0.1,0.4-0.1c0.2,0,0.4,0,0.7,0c0.3,0,0.5,0,0.7,0c0.2,0,0.3,0.1,0.4,0.1
		s0.2,0.1,0.2,0.2s0.1,0.1,0.1,0.2v2.3h2.2c0.1,0,0.1,0,0.2,0.1s0.1,0.1,0.1,0.2c0,0.1,0.1,0.2,0.1,0.4s0,0.3,0,0.6
		c0,0.4,0,0.7-0.1,0.9s-0.2,0.3-0.3,0.3h-2.2v4.8c0,0.6,0.1,1,0.3,1.3s0.5,0.4,0.9,0.4c0.1,0,0.3,0,0.4,0s0.2-0.1,0.3-0.1
		c0.1,0,0.2-0.1,0.2-0.1c0.1,0,0.1,0,0.2,0c0,0,0.1,0,0.1,0s0.1,0.1,0.1,0.2c0,0.1,0,0.2,0.1,0.3S426,95.7,426,95.9z"/>
	<path class="st2" d="M437.2,91.5c0,0.3-0.1,0.6-0.2,0.8c-0.2,0.2-0.4,0.3-0.6,0.3h-6.2c0,0.4,0,0.8,0.1,1.2s0.3,0.7,0.5,0.9
		s0.5,0.4,0.9,0.6s0.8,0.2,1.3,0.2c0.5,0,0.9,0,1.3-0.1s0.7-0.2,1-0.2s0.5-0.2,0.7-0.2s0.3-0.1,0.5-0.1c0.1,0,0.1,0,0.2,0
		c0,0,0.1,0.1,0.1,0.1s0,0.2,0.1,0.3c0,0.1,0,0.3,0,0.5c0,0.2,0,0.3,0,0.4s0,0.2,0,0.3s0,0.2-0.1,0.2s-0.1,0.1-0.1,0.2
		c0,0.1-0.2,0.1-0.4,0.2c-0.2,0.1-0.5,0.2-0.8,0.3s-0.7,0.2-1.2,0.2c-0.4,0.1-0.9,0.1-1.4,0.1c-0.9,0-1.7-0.1-2.4-0.3
		s-1.3-0.6-1.7-1s-0.8-1.1-1-1.8s-0.3-1.5-0.3-2.5c0-0.9,0.1-1.7,0.4-2.4c0.2-0.7,0.6-1.3,1-1.8s1-0.9,1.6-1.2
		c0.6-0.3,1.4-0.4,2.2-0.4c0.9,0,1.6,0.1,2.2,0.4c0.6,0.3,1.1,0.6,1.5,1s0.7,1,0.9,1.6c0.2,0.6,0.3,1.3,0.3,2L437.2,91.5L437.2,91.5
		z M434.4,90.7c0-0.8-0.1-1.4-0.5-1.9c-0.4-0.5-0.9-0.7-1.6-0.7c-0.4,0-0.7,0.1-1,0.2c-0.3,0.1-0.5,0.3-0.7,0.6
		c-0.2,0.2-0.3,0.5-0.4,0.8c-0.1,0.3-0.1,0.7-0.2,1H434.4z"/>
	<path class="st2" d="M446.7,94c0,0.6-0.1,1.1-0.3,1.5s-0.5,0.8-0.9,1.1s-0.9,0.5-1.4,0.7s-1.1,0.2-1.8,0.2c-0.4,0-0.7,0-1.1-0.1
		c-0.4-0.1-0.7-0.1-0.9-0.2c-0.3-0.1-0.5-0.2-0.7-0.3s-0.3-0.2-0.4-0.3s-0.1-0.2-0.2-0.4s-0.1-0.4-0.1-0.8c0-0.2,0-0.4,0-0.5
		c0-0.1,0-0.2,0.1-0.3s0.1-0.1,0.1-0.2c0,0,0.1,0,0.2,0c0.1,0,0.2,0.1,0.4,0.1s0.4,0.2,0.6,0.3s0.5,0.2,0.9,0.3s0.7,0.2,1.1,0.2
		c0.3,0,0.5,0,0.7-0.1s0.4-0.1,0.5-0.2c0.1-0.1,0.3-0.2,0.3-0.4c0.1-0.2,0.1-0.3,0.1-0.5c0-0.2-0.1-0.4-0.2-0.6
		c-0.1-0.2-0.3-0.3-0.6-0.4s-0.5-0.2-0.8-0.3c-0.3-0.1-0.6-0.2-0.9-0.3s-0.6-0.3-0.9-0.4c-0.3-0.2-0.5-0.4-0.8-0.6
		c-0.2-0.2-0.4-0.5-0.6-0.9c-0.1-0.3-0.2-0.8-0.2-1.2c0-0.5,0.1-0.9,0.3-1.3c0.2-0.4,0.5-0.8,0.8-1c0.4-0.3,0.8-0.5,1.3-0.7
		c0.5-0.2,1.1-0.2,1.7-0.2c0.3,0,0.6,0,0.9,0.1c0.3,0,0.6,0.1,0.8,0.2s0.5,0.1,0.6,0.2c0.2,0.1,0.3,0.2,0.4,0.2s0.1,0.1,0.1,0.2
		s0,0.1,0.1,0.2c0,0.1,0,0.2,0,0.3s0,0.3,0,0.4c0,0.2,0,0.4,0,0.5c0,0.1,0,0.2-0.1,0.3c0,0.1-0.1,0.1-0.1,0.2c0,0-0.1,0-0.2,0
		c-0.1,0-0.2,0-0.3-0.1c-0.1-0.1-0.3-0.2-0.5-0.3c-0.2-0.1-0.5-0.2-0.8-0.3s-0.6-0.1-1-0.1c-0.3,0-0.5,0-0.7,0.1s-0.4,0.1-0.5,0.2
		c-0.1,0.1-0.2,0.2-0.3,0.3c-0.1,0.1-0.1,0.3-0.1,0.4c0,0.2,0.1,0.4,0.2,0.6c0.1,0.2,0.3,0.3,0.6,0.4c0.2,0.1,0.5,0.2,0.8,0.3
		c0.3,0.1,0.6,0.2,0.9,0.3c0.3,0.1,0.6,0.3,0.9,0.4c0.3,0.2,0.6,0.4,0.8,0.6c0.2,0.2,0.4,0.5,0.6,0.9
		C446.7,93.1,446.7,93.5,446.7,94z"/>
</g>
</svg>
