<?xml version="1.0" encoding="utf-8"?>
<!-- Generator: Adobe Illustrator 24.3.0, SVG Export Plug-In . SVG Version: 6.00 Build 0)  -->
<svg version="1.1" id="Camada_1" xmlns="http://www.w3.org/2000/svg" xmlns:xlink="http://www.w3.org/1999/xlink" x="0px" y="0px"
	 viewBox="0 0 500 425.82" style="enable-background:new 0 0 500 425.82;" xml:space="preserve">
<style type="text/css">
	.st0{fill:#FCCE8C;}
	.st1{fill:#FFFFFF;}
	.st2{fill:#128360;}
	.st3{fill:#7C7C7C;}
	.st4{fill:none;stroke:#BAC3C9;stroke-miterlimit:10;}
	.st5{fill:#FBBF6D;}
	.st6{fill:#21AD81;}
</style>
<circle class="st0" cx="94.26" cy="90.22" r="89.73"/>
<g>
	<path class="st1" d="M33.56,97.26c0,0.23-0.01,0.42-0.03,0.57s-0.05,0.28-0.09,0.37s-0.09,0.16-0.15,0.21s-0.12,0.06-0.19,0.06
		h-7.62c-0.26,0-0.47-0.08-0.65-0.23s-0.26-0.4-0.26-0.74V84.27c0-0.34,0.09-0.59,0.26-0.74s0.39-0.23,0.65-0.23h7.57
		c0.07,0,0.13,0.02,0.19,0.06s0.1,0.11,0.14,0.21s0.07,0.22,0.09,0.38s0.03,0.35,0.03,0.58c0,0.22-0.01,0.4-0.03,0.56
		s-0.05,0.28-0.09,0.37s-0.09,0.16-0.14,0.21s-0.12,0.06-0.19,0.06h-5.41v3.7h4.58c0.07,0,0.13,0.02,0.19,0.06s0.11,0.11,0.15,0.2
		s0.07,0.21,0.09,0.36s0.03,0.34,0.03,0.56c0,0.23-0.01,0.41-0.03,0.56s-0.05,0.27-0.09,0.36s-0.09,0.15-0.15,0.19
		s-0.12,0.06-0.19,0.06h-4.58v4.28h5.46c0.07,0,0.13,0.02,0.19,0.06s0.11,0.11,0.15,0.21s0.07,0.22,0.09,0.37
		S33.56,97.03,33.56,97.26z"/>
	<path class="st1" d="M46.09,98.07c0,0.08-0.02,0.15-0.07,0.21s-0.13,0.11-0.23,0.15s-0.26,0.07-0.45,0.09s-0.43,0.03-0.71,0.03
		c-0.29,0-0.53-0.01-0.72-0.03s-0.34-0.05-0.45-0.09s-0.19-0.09-0.23-0.15s-0.07-0.13-0.07-0.21V92.1c0-0.51-0.04-0.91-0.11-1.2
		s-0.18-0.54-0.32-0.74s-0.32-0.37-0.54-0.48s-0.48-0.17-0.78-0.17c-0.38,0-0.75,0.14-1.14,0.41s-0.78,0.67-1.2,1.2v6.95
		c0,0.08-0.02,0.15-0.07,0.21s-0.13,0.11-0.24,0.15s-0.26,0.07-0.45,0.09s-0.43,0.03-0.71,0.03s-0.53-0.01-0.71-0.03
		s-0.34-0.05-0.45-0.09s-0.19-0.09-0.24-0.15s-0.07-0.13-0.07-0.21V87.61c0-0.08,0.02-0.15,0.06-0.21s0.11-0.11,0.21-0.15
		s0.23-0.07,0.39-0.09s0.36-0.03,0.6-0.03c0.25,0,0.46,0.01,0.62,0.03s0.29,0.05,0.38,0.09s0.15,0.09,0.19,0.15s0.06,0.13,0.06,0.21
		v1.21c0.58-0.63,1.17-1.09,1.76-1.41s1.22-0.47,1.87-0.47c0.71,0,1.31,0.12,1.8,0.35s0.88,0.55,1.18,0.96s0.52,0.87,0.65,1.41
		s0.2,1.19,0.2,1.95V98.07z"/>
	<path class="st1" d="M54.95,97.04c0,0.34-0.02,0.61-0.06,0.79s-0.1,0.31-0.17,0.39s-0.17,0.14-0.31,0.2s-0.3,0.11-0.48,0.15
		s-0.38,0.08-0.6,0.1s-0.43,0.04-0.65,0.04c-0.59,0-1.09-0.07-1.52-0.22s-0.79-0.38-1.07-0.69s-0.49-0.7-0.62-1.17
		s-0.2-1.02-0.2-1.66v-5.36h-1.25c-0.15,0-0.26-0.09-0.34-0.28s-0.12-0.49-0.12-0.92c0-0.23,0.01-0.42,0.03-0.57
		s0.05-0.28,0.09-0.37s0.09-0.15,0.15-0.19s0.13-0.06,0.21-0.06h1.24v-2.33c0-0.08,0.02-0.15,0.06-0.21s0.12-0.12,0.23-0.16
		s0.27-0.07,0.46-0.09s0.43-0.03,0.71-0.03c0.29,0,0.53,0.01,0.72,0.03s0.34,0.05,0.45,0.09s0.19,0.1,0.23,0.16s0.07,0.13,0.07,0.21
		v2.33h2.27c0.08,0,0.15,0.02,0.21,0.06s0.11,0.1,0.15,0.19s0.07,0.21,0.09,0.37s0.03,0.35,0.03,0.57c0,0.43-0.04,0.74-0.12,0.92
		s-0.19,0.28-0.34,0.28h-2.29v4.91c0,0.57,0.09,1,0.27,1.28s0.5,0.43,0.96,0.43c0.16,0,0.3-0.01,0.42-0.04s0.24-0.06,0.33-0.09
		s0.18-0.07,0.25-0.09s0.13-0.04,0.18-0.04c0.05,0,0.09,0.01,0.13,0.04s0.08,0.08,0.1,0.16s0.04,0.19,0.06,0.33
		S54.95,96.82,54.95,97.04z"/>
	<path class="st1" d="M66.45,92.54c0,0.36-0.08,0.63-0.24,0.8s-0.38,0.26-0.66,0.26h-6.36c0,0.45,0.05,0.85,0.16,1.21
		s0.27,0.67,0.5,0.93s0.53,0.45,0.89,0.58s0.8,0.2,1.31,0.2c0.52,0,0.97-0.04,1.36-0.11s0.73-0.16,1.01-0.25s0.52-0.17,0.71-0.25
		s0.34-0.11,0.46-0.11c0.07,0,0.13,0.01,0.18,0.04s0.09,0.08,0.12,0.15s0.05,0.17,0.06,0.3s0.02,0.29,0.02,0.49
		c0,0.17,0,0.32-0.01,0.44s-0.02,0.22-0.04,0.31s-0.04,0.16-0.07,0.22s-0.07,0.12-0.12,0.17s-0.19,0.13-0.42,0.22
		s-0.52,0.19-0.87,0.28s-0.75,0.17-1.21,0.23s-0.94,0.1-1.45,0.1c-0.93,0-1.74-0.12-2.44-0.35s-1.28-0.59-1.75-1.07
		s-0.82-1.08-1.05-1.8s-0.35-1.58-0.35-2.55c0-0.93,0.12-1.77,0.36-2.51s0.59-1.38,1.05-1.9s1.02-0.92,1.68-1.19s1.4-0.41,2.23-0.41
		c0.88,0,1.62,0.13,2.24,0.39s1.13,0.62,1.53,1.07s0.69,1,0.88,1.62s0.28,1.3,0.28,2.04V92.54z M63.59,91.69
		c0.02-0.83-0.14-1.48-0.5-1.95s-0.9-0.71-1.65-0.71c-0.38,0-0.7,0.07-0.98,0.21s-0.51,0.33-0.69,0.57s-0.32,0.52-0.42,0.84
		s-0.15,0.67-0.17,1.04H63.59z"/>
	<path class="st1" d="M78.86,98.07c0,0.08-0.02,0.15-0.07,0.21s-0.13,0.11-0.23,0.15s-0.26,0.07-0.45,0.09s-0.43,0.03-0.71,0.03
		c-0.29,0-0.53-0.01-0.72-0.03s-0.34-0.05-0.45-0.09s-0.19-0.09-0.23-0.15s-0.07-0.13-0.07-0.21V92.1c0-0.51-0.04-0.91-0.11-1.2
		s-0.18-0.54-0.32-0.74s-0.32-0.37-0.54-0.48s-0.48-0.17-0.78-0.17c-0.38,0-0.75,0.14-1.14,0.41s-0.78,0.67-1.2,1.2v6.95
		c0,0.08-0.02,0.15-0.07,0.21s-0.13,0.11-0.24,0.15s-0.26,0.07-0.45,0.09s-0.43,0.03-0.71,0.03s-0.53-0.01-0.71-0.03
		s-0.34-0.05-0.45-0.09s-0.19-0.09-0.24-0.15s-0.07-0.13-0.07-0.21V87.61c0-0.08,0.02-0.15,0.06-0.21s0.11-0.11,0.21-0.15
		s0.23-0.07,0.39-0.09s0.36-0.03,0.6-0.03c0.25,0,0.46,0.01,0.62,0.03s0.29,0.05,0.38,0.09s0.15,0.09,0.19,0.15s0.06,0.13,0.06,0.21
		v1.21c0.58-0.63,1.17-1.09,1.76-1.41s1.22-0.47,1.87-0.47c0.71,0,1.31,0.12,1.8,0.35s0.88,0.55,1.18,0.96s0.52,0.87,0.65,1.41
		s0.2,1.19,0.2,1.95V98.07z"/>
	<path class="st1" d="M91.67,98.07c0,0.09-0.02,0.16-0.06,0.22s-0.11,0.11-0.2,0.15s-0.22,0.07-0.38,0.08s-0.36,0.02-0.59,0.02
		c-0.25,0-0.45-0.01-0.61-0.02s-0.28-0.04-0.38-0.08s-0.17-0.09-0.21-0.15s-0.06-0.13-0.06-0.22v-1.16
		c-0.54,0.58-1.1,1.03-1.69,1.35s-1.24,0.48-1.96,0.48c-0.8,0-1.47-0.15-2.02-0.46s-1-0.72-1.35-1.25s-0.6-1.13-0.76-1.83
		s-0.23-1.44-0.23-2.21c0-0.93,0.1-1.77,0.3-2.51s0.49-1.38,0.87-1.9s0.86-0.93,1.43-1.21s1.23-0.42,1.97-0.42
		c0.59,0,1.12,0.12,1.59,0.36s0.95,0.59,1.42,1.05v-5.66c0-0.08,0.02-0.15,0.06-0.21s0.12-0.12,0.23-0.16s0.26-0.08,0.45-0.1
		s0.43-0.04,0.71-0.04s0.53,0.01,0.71,0.04s0.34,0.06,0.45,0.1s0.19,0.1,0.23,0.16s0.07,0.13,0.07,0.21V98.07z M88.74,91.08
		c-0.42-0.53-0.83-0.94-1.21-1.22s-0.79-0.42-1.21-0.42c-0.38,0-0.71,0.1-0.99,0.29s-0.5,0.45-0.67,0.77s-0.29,0.68-0.38,1.07
		s-0.12,0.8-0.12,1.21c0,0.44,0.04,0.86,0.11,1.28s0.19,0.78,0.35,1.11s0.37,0.58,0.64,0.78s0.6,0.29,1.01,0.29
		c0.2,0,0.4-0.03,0.59-0.09s0.39-0.15,0.59-0.29s0.4-0.31,0.62-0.52s0.44-0.48,0.69-0.79V91.08z"/>
	<path class="st1" d="M97.81,84.08c0,0.59-0.12,1-0.36,1.23s-0.69,0.34-1.35,0.34c-0.66,0-1.11-0.11-1.34-0.33s-0.35-0.61-0.35-1.18
		c0-0.59,0.12-1.01,0.36-1.24s0.69-0.35,1.35-0.35c0.66,0,1.1,0.11,1.34,0.33S97.81,83.5,97.81,84.08z M97.58,98.07
		c0,0.08-0.02,0.15-0.07,0.21s-0.13,0.11-0.24,0.15s-0.26,0.07-0.45,0.09s-0.43,0.03-0.71,0.03s-0.53-0.01-0.71-0.03
		s-0.34-0.05-0.45-0.09s-0.19-0.09-0.24-0.15s-0.07-0.13-0.07-0.21V87.64c0-0.08,0.02-0.15,0.07-0.21s0.13-0.11,0.24-0.15
		s0.26-0.08,0.45-0.1s0.43-0.04,0.71-0.04s0.53,0.01,0.71,0.04s0.34,0.06,0.45,0.1s0.19,0.09,0.24,0.15s0.07,0.13,0.07,0.21V98.07z"
		/>
	<path class="st1" d="M117.15,98.07c0,0.08-0.02,0.15-0.07,0.21s-0.13,0.11-0.23,0.15s-0.26,0.07-0.45,0.09s-0.43,0.03-0.71,0.03
		c-0.3,0-0.54-0.01-0.73-0.03s-0.34-0.05-0.45-0.09s-0.19-0.09-0.23-0.15s-0.06-0.13-0.06-0.21v-6.2c0-0.35-0.03-0.67-0.1-0.96
		s-0.17-0.54-0.3-0.74s-0.31-0.37-0.52-0.48s-0.46-0.17-0.74-0.17c-0.35,0-0.71,0.14-1.07,0.41s-0.75,0.67-1.17,1.2v6.95
		c0,0.08-0.02,0.15-0.07,0.21s-0.13,0.11-0.24,0.15s-0.26,0.07-0.45,0.09s-0.42,0.03-0.7,0.03c-0.29,0-0.53-0.01-0.71-0.03
		s-0.34-0.05-0.45-0.09s-0.19-0.09-0.24-0.15s-0.07-0.13-0.07-0.21v-6.2c0-0.35-0.03-0.67-0.1-0.96s-0.17-0.54-0.3-0.74
		s-0.3-0.37-0.52-0.48s-0.46-0.17-0.74-0.17c-0.36,0-0.72,0.14-1.08,0.41s-0.75,0.67-1.16,1.2v6.95c0,0.08-0.02,0.15-0.07,0.21
		s-0.13,0.11-0.24,0.15s-0.26,0.07-0.45,0.09s-0.43,0.03-0.71,0.03s-0.53-0.01-0.71-0.03s-0.34-0.05-0.45-0.09s-0.19-0.09-0.24-0.15
		s-0.07-0.13-0.07-0.21V87.61c0-0.08,0.02-0.15,0.06-0.21s0.11-0.11,0.21-0.15s0.23-0.07,0.39-0.09s0.36-0.03,0.6-0.03
		c0.25,0,0.46,0.01,0.62,0.03s0.29,0.05,0.38,0.09s0.15,0.09,0.19,0.15s0.06,0.13,0.06,0.21v1.21c0.58-0.63,1.15-1.09,1.73-1.41
		s1.17-0.47,1.8-0.47c0.43,0,0.82,0.04,1.16,0.13s0.65,0.22,0.92,0.39s0.5,0.37,0.7,0.6s0.36,0.5,0.49,0.79
		c0.31-0.34,0.62-0.63,0.92-0.87s0.6-0.44,0.89-0.59s0.59-0.27,0.88-0.34s0.59-0.11,0.9-0.11c0.7,0,1.28,0.12,1.76,0.35
		s0.86,0.55,1.15,0.96s0.5,0.87,0.63,1.41s0.19,1.11,0.19,1.71V98.07z"/>
	<path class="st1" d="M129.71,92.54c0,0.36-0.08,0.63-0.24,0.8s-0.38,0.26-0.66,0.26h-6.36c0,0.45,0.05,0.85,0.16,1.21
		s0.27,0.67,0.5,0.93s0.53,0.45,0.89,0.58s0.8,0.2,1.31,0.2c0.52,0,0.97-0.04,1.36-0.11s0.73-0.16,1.01-0.25s0.52-0.17,0.71-0.25
		s0.34-0.11,0.46-0.11c0.07,0,0.13,0.01,0.18,0.04s0.09,0.08,0.12,0.15s0.05,0.17,0.06,0.3s0.02,0.29,0.02,0.49
		c0,0.17,0,0.32-0.01,0.44s-0.02,0.22-0.04,0.31s-0.04,0.16-0.07,0.22s-0.07,0.12-0.12,0.17s-0.19,0.13-0.42,0.22
		s-0.52,0.19-0.87,0.28s-0.75,0.17-1.21,0.23s-0.94,0.1-1.45,0.1c-0.93,0-1.74-0.12-2.44-0.35s-1.28-0.59-1.75-1.07
		s-0.82-1.08-1.05-1.8s-0.35-1.58-0.35-2.55c0-0.93,0.12-1.77,0.36-2.51s0.59-1.38,1.05-1.9s1.02-0.92,1.68-1.19s1.4-0.41,2.23-0.41
		c0.88,0,1.62,0.13,2.24,0.39s1.13,0.62,1.53,1.07s0.69,1,0.88,1.62s0.28,1.3,0.28,2.04V92.54z M126.85,91.69
		c0.02-0.83-0.14-1.48-0.5-1.95s-0.9-0.71-1.65-0.71c-0.38,0-0.7,0.07-0.98,0.21s-0.51,0.33-0.69,0.57s-0.32,0.52-0.42,0.84
		s-0.15,0.67-0.17,1.04H126.85z"/>
	<path class="st1" d="M142.12,98.07c0,0.08-0.02,0.15-0.07,0.21s-0.13,0.11-0.23,0.15s-0.26,0.07-0.45,0.09s-0.43,0.03-0.71,0.03
		c-0.29,0-0.53-0.01-0.72-0.03s-0.34-0.05-0.45-0.09s-0.19-0.09-0.23-0.15s-0.07-0.13-0.07-0.21V92.1c0-0.51-0.04-0.91-0.11-1.2
		s-0.18-0.54-0.32-0.74s-0.32-0.37-0.54-0.48s-0.48-0.17-0.78-0.17c-0.38,0-0.75,0.14-1.14,0.41s-0.78,0.67-1.2,1.2v6.95
		c0,0.08-0.02,0.15-0.07,0.21s-0.13,0.11-0.24,0.15s-0.26,0.07-0.45,0.09s-0.43,0.03-0.71,0.03s-0.53-0.01-0.71-0.03
		s-0.34-0.05-0.45-0.09s-0.19-0.09-0.24-0.15s-0.07-0.13-0.07-0.21V87.61c0-0.08,0.02-0.15,0.06-0.21s0.11-0.11,0.21-0.15
		s0.23-0.07,0.39-0.09s0.36-0.03,0.6-0.03c0.25,0,0.46,0.01,0.62,0.03s0.29,0.05,0.38,0.09s0.15,0.09,0.19,0.15s0.06,0.13,0.06,0.21
		v1.21c0.58-0.63,1.17-1.09,1.76-1.41s1.22-0.47,1.87-0.47c0.71,0,1.31,0.12,1.8,0.35s0.88,0.55,1.18,0.96s0.52,0.87,0.65,1.41
		s0.2,1.19,0.2,1.95V98.07z"/>
	<path class="st1" d="M150.98,97.04c0,0.34-0.02,0.61-0.06,0.79s-0.1,0.31-0.17,0.39s-0.17,0.14-0.31,0.2s-0.3,0.11-0.48,0.15
		s-0.38,0.08-0.6,0.1s-0.43,0.04-0.65,0.04c-0.59,0-1.09-0.07-1.52-0.22s-0.79-0.38-1.07-0.69s-0.49-0.7-0.62-1.17
		s-0.2-1.02-0.2-1.66v-5.36h-1.25c-0.15,0-0.26-0.09-0.34-0.28s-0.12-0.49-0.12-0.92c0-0.23,0.01-0.42,0.03-0.57
		s0.05-0.28,0.09-0.37s0.09-0.15,0.15-0.19s0.13-0.06,0.21-0.06h1.24v-2.33c0-0.08,0.02-0.15,0.06-0.21s0.12-0.12,0.23-0.16
		s0.27-0.07,0.46-0.09s0.43-0.03,0.71-0.03c0.29,0,0.53,0.01,0.72,0.03s0.34,0.05,0.45,0.09s0.19,0.1,0.23,0.16s0.07,0.13,0.07,0.21
		v2.33h2.27c0.08,0,0.15,0.02,0.21,0.06s0.11,0.1,0.15,0.19s0.07,0.21,0.09,0.37s0.03,0.35,0.03,0.57c0,0.43-0.04,0.74-0.12,0.92
		s-0.19,0.28-0.34,0.28h-2.29v4.91c0,0.57,0.09,1,0.27,1.28s0.5,0.43,0.96,0.43c0.16,0,0.3-0.01,0.42-0.04s0.24-0.06,0.33-0.09
		s0.18-0.07,0.25-0.09s0.13-0.04,0.18-0.04c0.05,0,0.09,0.01,0.13,0.04s0.08,0.08,0.1,0.16s0.04,0.19,0.06,0.33
		S150.98,96.82,150.98,97.04z"/>
	<path class="st1" d="M163.44,92.74c0,0.89-0.12,1.7-0.35,2.44s-0.59,1.37-1.07,1.9s-1.07,0.94-1.79,1.23s-1.56,0.43-2.52,0.43
		c-0.93,0-1.74-0.13-2.43-0.39s-1.26-0.63-1.71-1.13s-0.79-1.1-1.01-1.82s-0.33-1.54-0.33-2.46c0-0.89,0.12-1.71,0.36-2.44
		s0.6-1.37,1.07-1.9s1.07-0.94,1.79-1.22s1.55-0.43,2.51-0.43c0.94,0,1.75,0.13,2.44,0.38s1.26,0.63,1.71,1.12s0.78,1.1,1,1.82
		S163.44,91.81,163.44,92.74z M160.41,92.85c0-0.52-0.04-0.99-0.12-1.42s-0.22-0.81-0.42-1.13s-0.46-0.57-0.78-0.75
		s-0.73-0.27-1.22-0.27c-0.44,0-0.82,0.08-1.15,0.24s-0.6,0.39-0.81,0.7s-0.37,0.68-0.47,1.11s-0.16,0.93-0.16,1.48
		c0,0.52,0.04,0.99,0.13,1.42s0.22,0.81,0.42,1.13s0.45,0.57,0.78,0.74s0.73,0.26,1.22,0.26c0.45,0,0.83-0.08,1.16-0.24
		s0.6-0.39,0.81-0.7s0.37-0.67,0.47-1.11S160.41,93.41,160.41,92.85z"/>
</g>
<g>
	<path class="st2" d="M214.86,204.26c0,1.08-0.17,2.04-0.51,2.88c-0.34,0.84-0.83,1.54-1.48,2.11c-0.65,0.57-1.44,1.01-2.38,1.31
		s-2.05,0.45-3.32,0.45h-1.61v6.16c0,0.1-0.03,0.19-0.1,0.27c-0.06,0.08-0.17,0.14-0.32,0.19s-0.35,0.09-0.6,0.12
		c-0.25,0.03-0.57,0.04-0.96,0.04c-0.38,0-0.69-0.01-0.95-0.04s-0.46-0.07-0.6-0.12c-0.15-0.05-0.25-0.11-0.31-0.19
		c-0.06-0.08-0.09-0.17-0.09-0.27V199.8c0-0.47,0.12-0.82,0.37-1.05c0.24-0.23,0.56-0.35,0.96-0.35h4.55c0.46,0,0.89,0.02,1.31,0.05
		c0.41,0.04,0.91,0.11,1.48,0.22c0.58,0.11,1.16,0.33,1.75,0.63c0.59,0.31,1.1,0.7,1.51,1.17c0.42,0.47,0.74,1.02,0.96,1.66
		C214.75,202.77,214.86,203.48,214.86,204.26z M210.75,204.55c0-0.68-0.12-1.23-0.36-1.67c-0.24-0.44-0.53-0.76-0.88-0.97
		s-0.71-0.34-1.1-0.4s-0.78-0.08-1.19-0.08h-1.67v6.55h1.76c0.63,0,1.15-0.08,1.57-0.25c0.42-0.17,0.77-0.41,1.04-0.71
		c0.27-0.3,0.47-0.67,0.61-1.09S210.75,205.04,210.75,204.55z"/>
	<path class="st2" d="M229.48,210.16c0,0.46-0.1,0.8-0.31,1.01c-0.2,0.22-0.49,0.33-0.84,0.33h-8.1c0,0.57,0.07,1.08,0.2,1.54
		c0.13,0.46,0.35,0.86,0.64,1.18s0.67,0.57,1.13,0.74c0.46,0.17,1.02,0.25,1.66,0.25c0.66,0,1.23-0.05,1.73-0.14
		c0.5-0.09,0.93-0.2,1.29-0.31c0.36-0.11,0.66-0.22,0.9-0.31c0.24-0.09,0.43-0.14,0.58-0.14c0.09,0,0.16,0.02,0.22,0.05
		c0.06,0.04,0.11,0.1,0.15,0.19c0.04,0.09,0.07,0.22,0.08,0.38c0.01,0.16,0.02,0.37,0.02,0.62c0,0.22,0,0.41-0.01,0.56
		c-0.01,0.15-0.02,0.29-0.04,0.4s-0.05,0.2-0.09,0.28c-0.04,0.07-0.09,0.15-0.16,0.22c-0.06,0.07-0.24,0.16-0.53,0.28
		c-0.29,0.12-0.66,0.24-1.1,0.35c-0.45,0.11-0.96,0.21-1.54,0.3c-0.58,0.08-1.19,0.13-1.85,0.13c-1.18,0-2.22-0.15-3.11-0.45
		s-1.63-0.75-2.23-1.36c-0.6-0.61-1.04-1.37-1.34-2.3c-0.29-0.93-0.44-2.01-0.44-3.25c0-1.18,0.15-2.25,0.46-3.2
		c0.31-0.95,0.76-1.76,1.34-2.42s1.3-1.17,2.14-1.51c0.84-0.35,1.79-0.52,2.84-0.52c1.11,0,2.07,0.16,2.86,0.49
		c0.79,0.33,1.44,0.78,1.95,1.37c0.51,0.58,0.88,1.27,1.12,2.07s0.36,1.66,0.36,2.6V210.16z M225.84,209.08
		c0.03-1.05-0.18-1.88-0.63-2.48c-0.45-0.6-1.15-0.9-2.1-0.9c-0.48,0-0.89,0.09-1.25,0.27c-0.35,0.18-0.65,0.42-0.88,0.72
		c-0.23,0.3-0.41,0.66-0.54,1.07c-0.12,0.41-0.2,0.85-0.22,1.32H225.84z"/>
	<path class="st2" d="M241.94,213.44c0,0.76-0.14,1.42-0.43,2s-0.68,1.06-1.2,1.45c-0.52,0.39-1.13,0.68-1.84,0.87
		c-0.71,0.19-1.47,0.29-2.3,0.29c-0.5,0-0.97-0.04-1.42-0.11c-0.45-0.07-0.86-0.17-1.22-0.28c-0.36-0.11-0.66-0.23-0.9-0.35
		c-0.24-0.12-0.41-0.23-0.52-0.34c-0.11-0.1-0.19-0.27-0.25-0.49c-0.06-0.22-0.09-0.55-0.09-0.99c0-0.29,0.01-0.52,0.03-0.69
		c0.02-0.17,0.05-0.31,0.09-0.42c0.04-0.1,0.09-0.17,0.15-0.21s0.13-0.05,0.22-0.05c0.11,0,0.27,0.06,0.49,0.19
		c0.21,0.12,0.48,0.26,0.8,0.41c0.32,0.15,0.69,0.29,1.11,0.42c0.42,0.13,0.9,0.19,1.44,0.19c0.34,0,0.64-0.03,0.9-0.1
		c0.26-0.07,0.49-0.17,0.69-0.3c0.19-0.13,0.34-0.29,0.44-0.49c0.1-0.2,0.15-0.43,0.15-0.69c0-0.3-0.09-0.55-0.28-0.77
		c-0.18-0.21-0.43-0.4-0.73-0.56s-0.65-0.31-1.03-0.45c-0.38-0.14-0.78-0.29-1.18-0.46c-0.4-0.17-0.8-0.36-1.18-0.58
		s-0.73-0.49-1.03-0.81c-0.3-0.32-0.55-0.7-0.73-1.15s-0.28-0.98-0.28-1.61c0-0.64,0.12-1.22,0.37-1.75
		c0.25-0.53,0.61-0.99,1.07-1.37c0.47-0.38,1.04-0.67,1.71-0.88c0.67-0.21,1.43-0.31,2.26-0.31c0.42,0,0.82,0.03,1.22,0.09
		s0.75,0.13,1.07,0.22c0.32,0.09,0.59,0.19,0.81,0.29s0.38,0.19,0.47,0.27s0.16,0.15,0.2,0.22c0.04,0.07,0.07,0.16,0.09,0.27
		s0.04,0.23,0.05,0.39c0.01,0.15,0.02,0.35,0.02,0.57c0,0.27-0.01,0.49-0.02,0.66c-0.02,0.17-0.04,0.3-0.08,0.4s-0.08,0.17-0.14,0.2
		c-0.06,0.04-0.13,0.05-0.21,0.05c-0.09,0-0.23-0.05-0.42-0.16c-0.19-0.1-0.42-0.22-0.71-0.34c-0.28-0.12-0.61-0.23-0.98-0.34
		s-0.8-0.16-1.28-0.16c-0.34,0-0.63,0.04-0.88,0.1c-0.25,0.07-0.45,0.17-0.61,0.3c-0.16,0.13-0.28,0.28-0.36,0.46
		c-0.08,0.17-0.12,0.36-0.12,0.56c0,0.31,0.09,0.57,0.28,0.78c0.19,0.21,0.44,0.39,0.75,0.55c0.31,0.16,0.66,0.31,1.05,0.45
		c0.39,0.14,0.79,0.29,1.19,0.46c0.4,0.16,0.8,0.36,1.19,0.57c0.39,0.22,0.74,0.49,1.05,0.81c0.31,0.32,0.56,0.7,0.75,1.14
		C241.85,212.31,241.94,212.83,241.94,213.44z"/>
	<path class="st2" d="M257.39,222.48c0,0.1-0.03,0.19-0.09,0.27c-0.06,0.08-0.16,0.15-0.3,0.2c-0.14,0.05-0.33,0.1-0.57,0.13
		c-0.24,0.03-0.54,0.04-0.91,0.04c-0.37,0-0.67-0.02-0.91-0.04c-0.24-0.03-0.43-0.07-0.58-0.13s-0.24-0.12-0.3-0.2
		c-0.06-0.08-0.08-0.17-0.08-0.27v-6.33c-0.36,0.33-0.71,0.61-1.04,0.86c-0.34,0.24-0.68,0.44-1.01,0.6
		c-0.34,0.15-0.69,0.27-1.04,0.34c-0.36,0.07-0.74,0.1-1.13,0.1c-0.98,0-1.81-0.2-2.49-0.59c-0.69-0.39-1.25-0.92-1.68-1.59
		s-0.75-1.44-0.95-2.34c-0.2-0.89-0.3-1.83-0.3-2.81c0-1.18,0.13-2.25,0.39-3.19c0.26-0.94,0.64-1.75,1.13-2.42
		c0.5-0.67,1.11-1.18,1.83-1.54c0.73-0.36,1.57-0.54,2.52-0.54c0.37,0,0.72,0.04,1.06,0.11c0.34,0.07,0.68,0.2,1.02,0.39
		c0.34,0.18,0.69,0.42,1.05,0.72s0.76,0.65,1.2,1.08v-1.45c0-0.1,0.03-0.19,0.08-0.26c0.05-0.07,0.14-0.14,0.27-0.19
		s0.29-0.09,0.49-0.11c0.2-0.02,0.46-0.04,0.78-0.04c0.3,0,0.55,0.01,0.75,0.04c0.2,0.02,0.37,0.06,0.49,0.11
		c0.12,0.05,0.2,0.11,0.25,0.19c0.05,0.07,0.08,0.16,0.08,0.26V222.48z M253.66,208.31c-0.54-0.68-1.05-1.19-1.54-1.55
		c-0.49-0.36-1.01-0.54-1.54-0.54c-0.49,0-0.91,0.12-1.26,0.37c-0.35,0.24-0.64,0.57-0.85,0.98c-0.21,0.41-0.37,0.86-0.48,1.37
		s-0.16,1.02-0.16,1.54c0,0.56,0.04,1.1,0.13,1.63c0.09,0.53,0.24,1,0.44,1.41c0.2,0.41,0.48,0.74,0.81,0.98
		c0.34,0.25,0.77,0.37,1.28,0.37c0.26,0,0.51-0.04,0.75-0.11c0.24-0.07,0.49-0.2,0.75-0.37c0.25-0.17,0.51-0.39,0.78-0.66
		c0.27-0.27,0.56-0.61,0.88-1.01V208.31z"/>
	<path class="st2" d="M273.79,217.2c0,0.1-0.03,0.19-0.08,0.26s-0.14,0.14-0.26,0.19c-0.13,0.05-0.29,0.09-0.49,0.11
		c-0.2,0.02-0.46,0.04-0.77,0.04c-0.33,0-0.59-0.01-0.8-0.04s-0.37-0.06-0.48-0.11c-0.12-0.05-0.2-0.11-0.25-0.19
		s-0.08-0.16-0.08-0.26v-1.54c-0.74,0.8-1.48,1.39-2.25,1.79c-0.76,0.4-1.55,0.6-2.37,0.6c-0.92,0-1.68-0.15-2.31-0.45
		c-0.62-0.3-1.12-0.71-1.51-1.22c-0.38-0.52-0.66-1.12-0.82-1.8c-0.16-0.68-0.25-1.53-0.25-2.54v-8.15c0-0.1,0.03-0.19,0.08-0.26
		c0.05-0.07,0.15-0.14,0.3-0.19c0.14-0.05,0.34-0.09,0.58-0.11c0.24-0.02,0.54-0.04,0.9-0.04c0.37,0,0.67,0.01,0.91,0.04
		c0.24,0.02,0.43,0.06,0.57,0.11c0.14,0.05,0.25,0.11,0.31,0.19c0.06,0.07,0.09,0.16,0.09,0.26v7.52c0,0.7,0.04,1.23,0.13,1.6
		c0.09,0.37,0.23,0.68,0.41,0.95c0.18,0.26,0.42,0.47,0.7,0.61c0.28,0.14,0.61,0.22,0.99,0.22c0.48,0,0.96-0.17,1.44-0.52
		c0.48-0.35,1-0.86,1.54-1.52v-8.85c0-0.1,0.03-0.19,0.08-0.26c0.05-0.07,0.15-0.14,0.3-0.19s0.34-0.09,0.58-0.11
		c0.24-0.02,0.54-0.04,0.91-0.04c0.37,0,0.67,0.01,0.91,0.04c0.24,0.02,0.43,0.06,0.57,0.11c0.14,0.05,0.24,0.11,0.3,0.19
		c0.06,0.07,0.09,0.16,0.09,0.26V217.2z"/>
	<path class="st2" d="M281.61,199.38c0,0.76-0.15,1.28-0.46,1.57c-0.31,0.29-0.88,0.43-1.72,0.43c-0.85,0-1.42-0.14-1.71-0.42
		c-0.29-0.28-0.44-0.78-0.44-1.51c0-0.76,0.15-1.28,0.46-1.57s0.88-0.44,1.72-0.44c0.84,0,1.4,0.14,1.7,0.43
		S281.61,198.66,281.61,199.38z M281.32,217.2c0,0.1-0.03,0.19-0.09,0.26s-0.16,0.14-0.31,0.19s-0.34,0.09-0.57,0.11
		c-0.24,0.02-0.54,0.04-0.91,0.04c-0.37,0-0.67-0.01-0.91-0.04c-0.24-0.02-0.43-0.06-0.58-0.11s-0.25-0.11-0.31-0.19
		s-0.09-0.16-0.09-0.26v-13.28c0-0.1,0.03-0.19,0.09-0.26s0.16-0.14,0.31-0.19c0.14-0.05,0.34-0.1,0.58-0.13
		c0.24-0.03,0.54-0.04,0.91-0.04c0.37,0,0.67,0.02,0.91,0.04c0.24,0.03,0.43,0.07,0.57,0.13c0.14,0.06,0.25,0.12,0.31,0.19
		s0.09,0.16,0.09,0.26V217.2z"/>
	<path class="st2" d="M294.44,213.44c0,0.76-0.14,1.42-0.43,2s-0.68,1.06-1.2,1.45c-0.52,0.39-1.13,0.68-1.84,0.87
		c-0.71,0.19-1.47,0.29-2.3,0.29c-0.5,0-0.97-0.04-1.42-0.11c-0.45-0.07-0.86-0.17-1.22-0.28c-0.36-0.11-0.66-0.23-0.9-0.35
		c-0.24-0.12-0.41-0.23-0.52-0.34s-0.19-0.27-0.25-0.49c-0.06-0.22-0.09-0.55-0.09-0.99c0-0.29,0.01-0.52,0.03-0.69
		c0.02-0.17,0.05-0.31,0.09-0.42c0.04-0.1,0.09-0.17,0.15-0.21c0.06-0.03,0.13-0.05,0.22-0.05c0.11,0,0.27,0.06,0.48,0.19
		s0.48,0.26,0.8,0.41c0.32,0.15,0.69,0.29,1.11,0.42s0.9,0.19,1.44,0.19c0.34,0,0.64-0.03,0.9-0.1c0.26-0.07,0.49-0.17,0.69-0.3
		c0.19-0.13,0.34-0.29,0.44-0.49c0.1-0.2,0.15-0.43,0.15-0.69c0-0.3-0.09-0.55-0.28-0.77c-0.18-0.21-0.43-0.4-0.73-0.56
		s-0.65-0.31-1.03-0.45c-0.38-0.14-0.78-0.29-1.18-0.46c-0.4-0.17-0.8-0.36-1.18-0.58c-0.38-0.22-0.73-0.49-1.03-0.81
		c-0.3-0.32-0.55-0.7-0.73-1.15c-0.18-0.45-0.28-0.98-0.28-1.61c0-0.64,0.12-1.22,0.37-1.75c0.25-0.53,0.61-0.99,1.07-1.37
		c0.47-0.38,1.04-0.67,1.71-0.88c0.67-0.21,1.42-0.31,2.26-0.31c0.42,0,0.82,0.03,1.22,0.09s0.75,0.13,1.07,0.22
		c0.32,0.09,0.59,0.19,0.81,0.29s0.38,0.19,0.47,0.27s0.16,0.15,0.2,0.22c0.04,0.07,0.07,0.16,0.09,0.27s0.04,0.23,0.05,0.39
		c0.01,0.15,0.02,0.35,0.02,0.57c0,0.27-0.01,0.49-0.02,0.66c-0.02,0.17-0.04,0.3-0.08,0.4s-0.08,0.17-0.14,0.2
		c-0.06,0.04-0.13,0.05-0.21,0.05c-0.09,0-0.23-0.05-0.42-0.16c-0.19-0.1-0.42-0.22-0.71-0.34c-0.28-0.12-0.61-0.23-0.98-0.34
		s-0.8-0.16-1.28-0.16c-0.34,0-0.63,0.04-0.88,0.1c-0.25,0.07-0.45,0.17-0.61,0.3c-0.16,0.13-0.28,0.28-0.36,0.46
		c-0.08,0.17-0.12,0.36-0.12,0.56c0,0.31,0.09,0.57,0.28,0.78c0.19,0.21,0.44,0.39,0.75,0.55c0.31,0.16,0.66,0.31,1.05,0.45
		c0.39,0.14,0.79,0.29,1.19,0.46c0.4,0.16,0.8,0.36,1.19,0.57c0.39,0.22,0.74,0.49,1.05,0.81c0.31,0.32,0.56,0.7,0.75,1.14
		C294.35,212.31,294.44,212.83,294.44,213.44z"/>
	<path class="st2" d="M308.6,217.25c0,0.14-0.05,0.25-0.15,0.33c-0.1,0.08-0.26,0.14-0.47,0.17c-0.21,0.04-0.53,0.05-0.95,0.05
		c-0.45,0-0.77-0.02-0.98-0.05c-0.2-0.03-0.35-0.09-0.43-0.17s-0.13-0.19-0.13-0.33v-1.06c-0.55,0.59-1.17,1.04-1.87,1.37
		c-0.7,0.33-1.48,0.49-2.33,0.49c-0.71,0-1.36-0.09-1.95-0.28c-0.59-0.18-1.1-0.46-1.54-0.82s-0.77-0.81-1.01-1.35
		c-0.24-0.54-0.36-1.16-0.36-1.88c0-0.78,0.15-1.45,0.46-2.02c0.3-0.57,0.76-1.04,1.36-1.42c0.6-0.37,1.35-0.65,2.25-0.83
		c0.9-0.18,1.93-0.27,3.12-0.27h1.3v-0.81c0-0.42-0.04-0.78-0.13-1.1c-0.08-0.31-0.22-0.57-0.42-0.78
		c-0.19-0.21-0.45-0.36-0.78-0.46c-0.32-0.1-0.72-0.15-1.2-0.15c-0.63,0-1.19,0.07-1.68,0.21c-0.49,0.14-0.93,0.29-1.31,0.46
		c-0.38,0.17-0.69,0.32-0.95,0.46c-0.25,0.14-0.46,0.21-0.62,0.21c-0.11,0-0.21-0.03-0.29-0.1c-0.08-0.07-0.15-0.17-0.21-0.3
		s-0.1-0.29-0.13-0.48c-0.03-0.19-0.04-0.4-0.04-0.63c0-0.31,0.02-0.55,0.07-0.73s0.14-0.34,0.28-0.48c0.14-0.14,0.38-0.3,0.73-0.48
		s0.76-0.34,1.22-0.48c0.47-0.15,0.98-0.27,1.53-0.37c0.55-0.09,1.12-0.14,1.71-0.14c1.04,0,1.94,0.1,2.68,0.31
		c0.74,0.2,1.35,0.52,1.83,0.94c0.48,0.42,0.83,0.97,1.04,1.63s0.33,1.46,0.33,2.37V217.25z M304.92,211.54h-1.43
		c-0.61,0-1.12,0.04-1.55,0.13c-0.43,0.09-0.78,0.22-1.04,0.4c-0.27,0.18-0.47,0.4-0.59,0.65c-0.13,0.25-0.19,0.54-0.19,0.87
		c0,0.56,0.18,0.99,0.53,1.31c0.35,0.32,0.84,0.48,1.47,0.48c0.53,0,1.01-0.13,1.45-0.4c0.44-0.27,0.89-0.66,1.35-1.18V211.54z"/>
</g>
<g>
	<path class="st3" d="M155.17,275.01c0,0.05-0.01,0.1-0.04,0.14c-0.03,0.04-0.07,0.07-0.14,0.09c-0.07,0.02-0.15,0.04-0.26,0.06
		s-0.24,0.02-0.41,0.02c-0.15,0-0.29-0.01-0.4-0.02c-0.11-0.02-0.2-0.04-0.26-0.06c-0.06-0.02-0.11-0.05-0.14-0.09
		s-0.04-0.08-0.04-0.14V264h-0.02l-4.45,11.05c-0.02,0.05-0.05,0.08-0.08,0.12s-0.09,0.06-0.16,0.08s-0.15,0.04-0.24,0.05
		s-0.21,0.01-0.34,0.01c-0.14,0-0.25-0.01-0.35-0.02s-0.18-0.03-0.24-0.05s-0.12-0.05-0.15-0.08s-0.06-0.07-0.07-0.11L143.12,264
		h-0.01v11.01c0,0.05-0.01,0.1-0.04,0.14c-0.03,0.04-0.07,0.07-0.14,0.09c-0.07,0.02-0.15,0.04-0.26,0.06
		c-0.11,0.02-0.24,0.02-0.41,0.02c-0.16,0-0.29-0.01-0.4-0.02s-0.19-0.04-0.26-0.06c-0.06-0.02-0.11-0.05-0.13-0.09
		s-0.04-0.08-0.04-0.14v-11.62c0-0.27,0.07-0.47,0.22-0.59c0.15-0.12,0.31-0.18,0.49-0.18h1.03c0.21,0,0.4,0.02,0.56,0.06
		s0.3,0.1,0.42,0.19s0.22,0.19,0.3,0.32c0.08,0.13,0.15,0.28,0.21,0.46l3.61,9.15h0.05l3.76-9.12c0.07-0.2,0.15-0.36,0.24-0.5
		c0.09-0.14,0.18-0.25,0.28-0.33s0.22-0.14,0.34-0.18c0.13-0.04,0.27-0.05,0.44-0.05h1.08c0.1,0,0.19,0.01,0.28,0.04
		c0.09,0.03,0.17,0.08,0.23,0.14s0.11,0.14,0.15,0.23s0.06,0.21,0.06,0.35V275.01z"/>
	<path class="st3" d="M164.74,275.03c0,0.08-0.03,0.14-0.08,0.18s-0.12,0.07-0.21,0.09s-0.22,0.03-0.4,0.03
		c-0.17,0-0.3-0.01-0.41-0.03s-0.17-0.05-0.22-0.09s-0.07-0.1-0.07-0.18v-0.88c-0.38,0.41-0.81,0.73-1.28,0.96s-0.97,0.34-1.5,0.34
		c-0.46,0-0.88-0.06-1.25-0.18s-0.69-0.29-0.96-0.52s-0.47-0.51-0.62-0.84s-0.22-0.71-0.22-1.13c0-0.5,0.1-0.92,0.3-1.29
		s0.49-0.67,0.87-0.91s0.84-0.42,1.39-0.54s1.16-0.18,1.85-0.18h1.21v-0.68c0-0.34-0.04-0.64-0.11-0.9s-0.19-0.48-0.35-0.65
		s-0.37-0.3-0.62-0.39s-0.57-0.13-0.94-0.13c-0.4,0-0.75,0.05-1.07,0.14s-0.59,0.2-0.83,0.31s-0.44,0.22-0.6,0.31
		s-0.28,0.14-0.36,0.14c-0.05,0-0.1-0.01-0.14-0.04s-0.07-0.07-0.1-0.12s-0.05-0.12-0.06-0.2s-0.02-0.17-0.02-0.27
		c0-0.16,0.01-0.29,0.03-0.39s0.08-0.18,0.17-0.27s0.24-0.18,0.45-0.3s0.46-0.22,0.74-0.31s0.59-0.17,0.92-0.23s0.67-0.09,1.01-0.09
		c0.63,0,1.17,0.07,1.61,0.21s0.8,0.35,1.07,0.63s0.47,0.62,0.6,1.03s0.19,0.89,0.19,1.44V275.03z M163.14,271.01h-1.38
		c-0.44,0-0.83,0.04-1.15,0.11s-0.6,0.19-0.81,0.33s-0.37,0.32-0.47,0.53s-0.15,0.44-0.15,0.71c0,0.46,0.15,0.82,0.43,1.09
		s0.69,0.41,1.22,0.41c0.42,0,0.82-0.11,1.18-0.32s0.74-0.54,1.14-0.99V271.01z"/>
	<path class="st3" d="M175.56,270.48c0,0.77-0.08,1.46-0.25,2.07s-0.41,1.13-0.73,1.56s-0.72,0.75-1.2,0.99s-1.02,0.35-1.63,0.35
		c-0.26,0-0.5-0.03-0.72-0.08s-0.44-0.13-0.65-0.24s-0.42-0.25-0.63-0.42s-0.43-0.37-0.66-0.6v4.39c0,0.05-0.01,0.1-0.04,0.14
		s-0.07,0.07-0.13,0.1s-0.14,0.05-0.24,0.06s-0.24,0.02-0.4,0.02c-0.16,0-0.29-0.01-0.39-0.02s-0.19-0.03-0.25-0.06
		s-0.1-0.06-0.13-0.1s-0.03-0.08-0.03-0.14v-12.28c0-0.06,0.01-0.11,0.03-0.14s0.06-0.07,0.12-0.09s0.13-0.04,0.22-0.05
		s0.2-0.01,0.33-0.01c0.14,0,0.25,0,0.34,0.01s0.16,0.03,0.22,0.05s0.1,0.06,0.12,0.09s0.03,0.08,0.03,0.14v1.18
		c0.27-0.27,0.52-0.51,0.77-0.71s0.5-0.37,0.75-0.5s0.51-0.23,0.77-0.3s0.54-0.1,0.83-0.1c0.64,0,1.18,0.12,1.63,0.37
		s0.82,0.59,1.1,1.02s0.49,0.93,0.62,1.5S175.56,269.85,175.56,270.48z M173.89,270.67c0-0.45-0.03-0.88-0.1-1.3
		c-0.07-0.42-0.19-0.79-0.35-1.12s-0.39-0.59-0.67-0.78s-0.63-0.29-1.05-0.29c-0.21,0-0.42,0.03-0.62,0.09s-0.41,0.16-0.62,0.29
		c-0.21,0.13-0.43,0.31-0.66,0.53c-0.23,0.22-0.47,0.49-0.73,0.81v3.5c0.45,0.54,0.87,0.95,1.27,1.24s0.82,0.43,1.26,0.43
		c0.41,0,0.75-0.1,1.05-0.29c0.29-0.2,0.53-0.46,0.71-0.78s0.31-0.69,0.4-1.09C173.84,271.49,173.89,271.08,173.89,270.67z"/>
	<path class="st3" d="M184.44,275.03c0,0.08-0.03,0.14-0.08,0.18s-0.12,0.07-0.21,0.09s-0.22,0.03-0.4,0.03
		c-0.17,0-0.3-0.01-0.41-0.03s-0.17-0.05-0.22-0.09s-0.07-0.1-0.07-0.18v-0.88c-0.38,0.41-0.81,0.73-1.28,0.96s-0.97,0.34-1.5,0.34
		c-0.46,0-0.88-0.06-1.25-0.18s-0.69-0.29-0.96-0.52s-0.47-0.51-0.62-0.84s-0.22-0.71-0.22-1.13c0-0.5,0.1-0.92,0.3-1.29
		s0.49-0.67,0.87-0.91s0.84-0.42,1.39-0.54s1.16-0.18,1.85-0.18h1.21v-0.68c0-0.34-0.04-0.64-0.11-0.9s-0.19-0.48-0.35-0.65
		s-0.37-0.3-0.62-0.39s-0.57-0.13-0.94-0.13c-0.4,0-0.75,0.05-1.07,0.14s-0.59,0.2-0.83,0.31s-0.44,0.22-0.6,0.31
		s-0.28,0.14-0.36,0.14c-0.05,0-0.1-0.01-0.14-0.04s-0.07-0.07-0.1-0.12s-0.05-0.12-0.06-0.2s-0.02-0.17-0.02-0.27
		c0-0.16,0.01-0.29,0.03-0.39s0.08-0.18,0.17-0.27s0.24-0.18,0.45-0.3s0.46-0.22,0.74-0.31s0.59-0.17,0.92-0.23s0.67-0.09,1.01-0.09
		c0.63,0,1.17,0.07,1.61,0.21s0.8,0.35,1.07,0.63s0.47,0.62,0.6,1.03s0.19,0.89,0.19,1.44V275.03z M182.83,271.01h-1.38
		c-0.44,0-0.83,0.04-1.15,0.11s-0.6,0.19-0.81,0.33s-0.37,0.32-0.47,0.53s-0.15,0.44-0.15,0.71c0,0.46,0.15,0.82,0.43,1.09
		s0.69,0.41,1.22,0.41c0.42,0,0.82-0.11,1.18-0.32s0.74-0.54,1.14-0.99V271.01z"/>
	<path class="st3" d="M199.44,275.02c0,0.05-0.01,0.1-0.03,0.14s-0.06,0.07-0.12,0.09s-0.13,0.04-0.22,0.05s-0.2,0.02-0.33,0.02
		c-0.14,0-0.25-0.01-0.34-0.02s-0.17-0.03-0.22-0.05s-0.1-0.05-0.13-0.09s-0.04-0.08-0.04-0.14v-1.16c-0.46,0.5-0.94,0.89-1.44,1.17
		s-1.04,0.42-1.64,0.42c-0.64,0-1.19-0.13-1.65-0.38s-0.83-0.59-1.11-1.02s-0.49-0.93-0.62-1.5s-0.2-1.18-0.2-1.82
		c0-0.75,0.08-1.44,0.24-2.05s0.4-1.13,0.72-1.56s0.71-0.76,1.19-0.99s1.02-0.35,1.64-0.35c0.51,0,0.98,0.11,1.41,0.34
		s0.85,0.55,1.26,0.99v-5.11c0-0.05,0.01-0.09,0.03-0.13s0.07-0.08,0.13-0.1s0.15-0.04,0.25-0.06s0.23-0.02,0.39-0.02
		c0.16,0,0.3,0.01,0.4,0.02s0.19,0.04,0.24,0.06s0.1,0.06,0.13,0.1s0.04,0.09,0.04,0.13V275.02z M197.82,268.83
		c-0.44-0.54-0.86-0.95-1.26-1.24s-0.83-0.42-1.27-0.42c-0.41,0-0.76,0.1-1.04,0.29s-0.52,0.45-0.7,0.77s-0.31,0.68-0.39,1.08
		s-0.12,0.81-0.12,1.23c0,0.44,0.03,0.88,0.1,1.3s0.19,0.8,0.36,1.13s0.39,0.59,0.67,0.79s0.63,0.3,1.05,0.3
		c0.21,0,0.42-0.03,0.62-0.09s0.4-0.16,0.61-0.29s0.43-0.31,0.65-0.53s0.47-0.49,0.72-0.81V268.83z"/>
	<path class="st3" d="M208.83,275.03c0,0.08-0.03,0.14-0.08,0.18s-0.12,0.07-0.21,0.09s-0.22,0.03-0.4,0.03
		c-0.17,0-0.3-0.01-0.41-0.03s-0.17-0.05-0.22-0.09s-0.07-0.1-0.07-0.18v-0.88c-0.38,0.41-0.81,0.73-1.28,0.96s-0.97,0.34-1.5,0.34
		c-0.46,0-0.88-0.06-1.25-0.18s-0.69-0.29-0.96-0.52s-0.47-0.51-0.62-0.84s-0.22-0.71-0.22-1.13c0-0.5,0.1-0.92,0.3-1.29
		s0.49-0.67,0.87-0.91s0.84-0.42,1.39-0.54s1.16-0.18,1.85-0.18h1.21v-0.68c0-0.34-0.04-0.64-0.11-0.9s-0.19-0.48-0.35-0.65
		s-0.37-0.3-0.62-0.39s-0.57-0.13-0.94-0.13c-0.4,0-0.75,0.05-1.07,0.14s-0.59,0.2-0.83,0.31s-0.44,0.22-0.6,0.31
		s-0.28,0.14-0.36,0.14c-0.05,0-0.1-0.01-0.14-0.04s-0.07-0.07-0.1-0.12s-0.05-0.12-0.06-0.2s-0.02-0.17-0.02-0.27
		c0-0.16,0.01-0.29,0.03-0.39s0.08-0.18,0.17-0.27s0.24-0.18,0.45-0.3s0.46-0.22,0.74-0.31s0.59-0.17,0.92-0.23s0.67-0.09,1.01-0.09
		c0.63,0,1.17,0.07,1.61,0.21s0.8,0.35,1.07,0.63s0.47,0.62,0.6,1.03s0.19,0.89,0.19,1.44V275.03z M207.23,271.01h-1.38
		c-0.44,0-0.83,0.04-1.15,0.11s-0.6,0.19-0.81,0.33s-0.37,0.32-0.47,0.53s-0.15,0.44-0.15,0.71c0,0.46,0.15,0.82,0.43,1.09
		s0.69,0.41,1.22,0.41c0.42,0,0.82-0.11,1.18-0.32s0.74-0.54,1.14-0.99V271.01z"/>
	<path class="st3" d="M218.11,275.41c0,0.65-0.05,1.18-0.15,1.58s-0.25,0.74-0.46,1.01s-0.48,0.48-0.8,0.62s-0.72,0.21-1.18,0.21
		c-0.21,0-0.39-0.01-0.53-0.04s-0.26-0.06-0.34-0.09s-0.13-0.07-0.16-0.11s-0.05-0.09-0.06-0.15s-0.02-0.11-0.02-0.17s0-0.13,0-0.21
		c0-0.12,0-0.22,0.01-0.3s0.03-0.15,0.05-0.21s0.05-0.09,0.08-0.11s0.07-0.03,0.11-0.03c0.04,0,0.12,0.01,0.23,0.02
		s0.25,0.02,0.4,0.02c0.21,0,0.4-0.03,0.55-0.1s0.28-0.17,0.38-0.32s0.17-0.34,0.21-0.57s0.07-0.59,0.07-1.06v-9.17
		c0-0.05,0.01-0.09,0.04-0.13s0.07-0.07,0.13-0.1s0.15-0.05,0.25-0.06s0.23-0.02,0.39-0.02s0.29,0.01,0.39,0.02s0.19,0.03,0.25,0.06
		s0.11,0.06,0.13,0.1s0.04,0.08,0.04,0.13V275.41z M218.3,263.26c0,0.38-0.07,0.63-0.21,0.77s-0.41,0.21-0.79,0.21
		c-0.38,0-0.63-0.07-0.77-0.2s-0.21-0.39-0.21-0.76c0-0.38,0.07-0.63,0.21-0.77s0.4-0.21,0.79-0.21s0.64,0.07,0.78,0.2
		S218.3,262.89,218.3,263.26z"/>
	<path class="st3" d="M229.12,270.52c0,0.72-0.09,1.38-0.28,1.98s-0.47,1.12-0.84,1.56s-0.84,0.78-1.41,1.02s-1.22,0.37-1.96,0.37
		c-0.72,0-1.35-0.11-1.89-0.32s-0.98-0.53-1.34-0.94s-0.63-0.91-0.8-1.49s-0.26-1.25-0.26-1.99c0-0.72,0.09-1.38,0.28-1.98
		s0.47-1.12,0.84-1.56s0.84-0.77,1.4-1.02s1.21-0.36,1.96-0.36c0.72,0,1.35,0.11,1.89,0.32s0.98,0.53,1.34,0.94s0.63,0.91,0.81,1.49
		S229.12,269.79,229.12,270.52z M227.45,270.63c0-0.48-0.04-0.92-0.13-1.35c-0.09-0.42-0.24-0.79-0.44-1.11s-0.48-0.57-0.83-0.76
		s-0.78-0.28-1.3-0.28c-0.48,0-0.89,0.08-1.24,0.25c-0.35,0.17-0.63,0.41-0.85,0.72c-0.22,0.31-0.39,0.68-0.5,1.1
		s-0.16,0.89-0.16,1.39c0,0.48,0.04,0.93,0.13,1.36c0.09,0.42,0.24,0.79,0.44,1.11c0.21,0.32,0.48,0.57,0.83,0.75
		c0.35,0.19,0.78,0.28,1.3,0.28c0.47,0,0.88-0.08,1.23-0.25s0.63-0.41,0.86-0.71c0.22-0.31,0.39-0.67,0.49-1.09
		S227.45,271.14,227.45,270.63z"/>
	<path class="st3" d="M236.51,266.8c0,0.14,0,0.26-0.01,0.36s-0.02,0.17-0.04,0.23s-0.04,0.1-0.07,0.13s-0.07,0.04-0.12,0.04
		s-0.12-0.01-0.19-0.04s-0.16-0.06-0.25-0.09s-0.2-0.06-0.32-0.08s-0.24-0.04-0.38-0.04c-0.16,0-0.32,0.03-0.48,0.1
		s-0.32,0.17-0.49,0.32s-0.35,0.35-0.54,0.6s-0.4,0.55-0.63,0.91v5.78c0,0.05-0.01,0.1-0.04,0.13s-0.07,0.07-0.13,0.09
		s-0.14,0.05-0.24,0.06s-0.24,0.02-0.4,0.02c-0.16,0-0.29-0.01-0.39-0.02s-0.19-0.03-0.25-0.06s-0.1-0.06-0.13-0.09
		s-0.03-0.08-0.03-0.13v-8.79c0-0.05,0.01-0.1,0.03-0.13s0.06-0.07,0.12-0.1s0.13-0.05,0.22-0.06s0.21-0.01,0.36-0.01
		c0.14,0,0.26,0,0.36,0.01s0.17,0.03,0.22,0.06s0.09,0.06,0.11,0.1s0.03,0.08,0.03,0.13v1.28c0.24-0.35,0.47-0.64,0.68-0.86
		s0.41-0.4,0.6-0.52s0.38-0.21,0.56-0.26s0.37-0.07,0.56-0.07c0.08,0,0.18,0,0.29,0.01s0.22,0.03,0.34,0.05s0.22,0.06,0.32,0.09
		s0.16,0.07,0.2,0.1s0.06,0.06,0.08,0.09s0.02,0.07,0.03,0.11s0.02,0.11,0.02,0.2S236.51,266.65,236.51,266.8z"/>
	<path class="st3" d="M245.82,275.02c0,0.05-0.01,0.1-0.04,0.13s-0.07,0.07-0.13,0.09s-0.14,0.05-0.24,0.06s-0.23,0.02-0.39,0.02
		c-0.16,0-0.3-0.01-0.4-0.02s-0.19-0.03-0.24-0.06s-0.1-0.06-0.13-0.09s-0.04-0.08-0.04-0.13v-5.15c0-0.5-0.04-0.91-0.12-1.21
		s-0.19-0.57-0.34-0.79s-0.34-0.39-0.58-0.51s-0.51-0.18-0.83-0.18c-0.4,0-0.81,0.14-1.21,0.43s-0.83,0.71-1.27,1.26v6.14
		c0,0.05-0.01,0.1-0.04,0.13s-0.07,0.07-0.13,0.09s-0.14,0.05-0.24,0.06s-0.24,0.02-0.4,0.02c-0.16,0-0.29-0.01-0.39-0.02
		s-0.19-0.03-0.25-0.06s-0.1-0.06-0.13-0.09s-0.03-0.08-0.03-0.13v-8.79c0-0.05,0.01-0.1,0.03-0.13s0.06-0.07,0.12-0.1
		s0.13-0.05,0.22-0.06s0.21-0.01,0.36-0.01c0.14,0,0.26,0,0.36,0.01s0.17,0.03,0.22,0.06s0.09,0.06,0.11,0.1s0.03,0.08,0.03,0.13
		v1.16c0.49-0.55,0.99-0.96,1.48-1.22s0.99-0.39,1.49-0.39c0.59,0,1.08,0.1,1.48,0.3s0.72,0.46,0.97,0.8s0.42,0.72,0.53,1.17
		s0.16,0.98,0.16,1.61V275.02z"/>
	<path class="st3" d="M255.11,275.03c0,0.08-0.03,0.14-0.08,0.18s-0.12,0.07-0.21,0.09s-0.22,0.03-0.4,0.03
		c-0.17,0-0.3-0.01-0.41-0.03s-0.17-0.05-0.22-0.09s-0.07-0.1-0.07-0.18v-0.88c-0.38,0.41-0.81,0.73-1.28,0.96s-0.97,0.34-1.5,0.34
		c-0.46,0-0.88-0.06-1.25-0.18s-0.69-0.29-0.96-0.52s-0.47-0.51-0.62-0.84s-0.22-0.71-0.22-1.13c0-0.5,0.1-0.92,0.3-1.29
		s0.49-0.67,0.87-0.91s0.84-0.42,1.39-0.54c0.55-0.12,1.16-0.18,1.85-0.18h1.21v-0.68c0-0.34-0.04-0.64-0.11-0.9
		s-0.19-0.48-0.35-0.65c-0.16-0.17-0.37-0.3-0.62-0.39s-0.57-0.13-0.94-0.13c-0.4,0-0.75,0.05-1.07,0.14s-0.59,0.2-0.83,0.31
		s-0.44,0.22-0.6,0.31s-0.28,0.14-0.36,0.14c-0.05,0-0.1-0.01-0.14-0.04s-0.07-0.07-0.1-0.12s-0.05-0.12-0.06-0.2
		s-0.02-0.17-0.02-0.27c0-0.16,0.01-0.29,0.03-0.39s0.08-0.18,0.17-0.27s0.24-0.18,0.45-0.3s0.46-0.22,0.74-0.31
		s0.59-0.17,0.92-0.23s0.67-0.09,1.01-0.09c0.63,0,1.17,0.07,1.61,0.21s0.8,0.35,1.07,0.63s0.47,0.62,0.6,1.03s0.19,0.89,0.19,1.44
		V275.03z M253.51,271.01h-1.38c-0.44,0-0.83,0.04-1.15,0.11s-0.6,0.19-0.81,0.33s-0.37,0.32-0.47,0.53s-0.15,0.44-0.15,0.71
		c0,0.46,0.15,0.82,0.43,1.09s0.69,0.41,1.22,0.41c0.42,0,0.82-0.11,1.18-0.32s0.74-0.54,1.14-0.99V271.01z"/>
	<path class="st3" d="M265.44,275.02c0,0.05-0.01,0.1-0.03,0.14s-0.06,0.07-0.12,0.09s-0.13,0.04-0.22,0.05s-0.2,0.02-0.33,0.02
		c-0.14,0-0.25-0.01-0.34-0.02s-0.17-0.03-0.22-0.05s-0.1-0.05-0.13-0.09s-0.04-0.08-0.04-0.14v-1.16c-0.46,0.5-0.94,0.89-1.44,1.17
		s-1.04,0.42-1.64,0.42c-0.64,0-1.19-0.13-1.65-0.38s-0.83-0.59-1.11-1.02s-0.49-0.93-0.62-1.5s-0.2-1.18-0.2-1.82
		c0-0.75,0.08-1.44,0.24-2.05s0.4-1.13,0.72-1.56s0.71-0.76,1.19-0.99s1.02-0.35,1.64-0.35c0.51,0,0.98,0.11,1.41,0.34
		s0.85,0.55,1.26,0.99v-5.11c0-0.05,0.01-0.09,0.03-0.13s0.07-0.08,0.13-0.1s0.15-0.04,0.25-0.06s0.23-0.02,0.39-0.02
		c0.16,0,0.3,0.01,0.4,0.02s0.19,0.04,0.24,0.06s0.1,0.06,0.13,0.1s0.04,0.09,0.04,0.13V275.02z M263.81,268.83
		c-0.44-0.54-0.86-0.95-1.26-1.24s-0.83-0.42-1.27-0.42c-0.41,0-0.76,0.1-1.04,0.29s-0.52,0.45-0.7,0.77s-0.31,0.68-0.39,1.08
		s-0.12,0.81-0.12,1.23c0,0.44,0.03,0.88,0.1,1.3s0.19,0.8,0.36,1.13s0.39,0.59,0.67,0.79s0.63,0.3,1.05,0.3
		c0.21,0,0.42-0.03,0.62-0.09s0.4-0.16,0.61-0.29s0.43-0.31,0.65-0.53s0.47-0.49,0.72-0.81V268.83z"/>
	<path class="st3" d="M274.82,275.03c0,0.08-0.03,0.14-0.08,0.18s-0.12,0.07-0.21,0.09s-0.22,0.03-0.4,0.03
		c-0.17,0-0.3-0.01-0.41-0.03s-0.17-0.05-0.22-0.09s-0.07-0.1-0.07-0.18v-0.88c-0.38,0.41-0.81,0.73-1.28,0.96s-0.97,0.34-1.5,0.34
		c-0.46,0-0.88-0.06-1.25-0.18s-0.69-0.29-0.96-0.52s-0.47-0.51-0.62-0.84s-0.22-0.71-0.22-1.13c0-0.5,0.1-0.92,0.3-1.29
		s0.49-0.67,0.87-0.91s0.84-0.42,1.39-0.54s1.16-0.18,1.85-0.18h1.21v-0.68c0-0.34-0.04-0.64-0.11-0.9s-0.19-0.48-0.35-0.65
		s-0.37-0.3-0.62-0.39s-0.57-0.13-0.94-0.13c-0.4,0-0.75,0.05-1.07,0.14s-0.59,0.2-0.83,0.31s-0.44,0.22-0.6,0.31
		s-0.28,0.14-0.36,0.14c-0.05,0-0.1-0.01-0.14-0.04s-0.07-0.07-0.1-0.12s-0.05-0.12-0.06-0.2s-0.02-0.17-0.02-0.27
		c0-0.16,0.01-0.29,0.03-0.39s0.08-0.18,0.17-0.27s0.24-0.18,0.45-0.3s0.46-0.22,0.74-0.31s0.59-0.17,0.92-0.23s0.67-0.09,1.01-0.09
		c0.63,0,1.17,0.07,1.61,0.21s0.8,0.35,1.07,0.63s0.47,0.62,0.6,1.03s0.19,0.89,0.19,1.44V275.03z M273.22,271.01h-1.38
		c-0.44,0-0.83,0.04-1.15,0.11s-0.6,0.19-0.81,0.33s-0.37,0.32-0.47,0.53s-0.15,0.44-0.15,0.71c0,0.46,0.14,0.82,0.43,1.09
		s0.7,0.41,1.22,0.41c0.42,0,0.82-0.11,1.18-0.32s0.74-0.54,1.14-0.99V271.01z"/>
	<path class="st3" d="M289.83,275.02c0,0.05-0.01,0.1-0.03,0.14s-0.06,0.07-0.12,0.09s-0.13,0.04-0.22,0.05s-0.2,0.02-0.33,0.02
		c-0.14,0-0.25-0.01-0.34-0.02s-0.17-0.03-0.22-0.05s-0.1-0.05-0.13-0.09s-0.04-0.08-0.04-0.14v-1.16c-0.46,0.5-0.94,0.89-1.44,1.17
		s-1.04,0.42-1.64,0.42c-0.64,0-1.19-0.13-1.65-0.38s-0.83-0.59-1.11-1.02s-0.49-0.93-0.62-1.5s-0.2-1.18-0.2-1.82
		c0-0.75,0.08-1.44,0.24-2.05s0.4-1.13,0.72-1.56s0.71-0.76,1.19-0.99s1.02-0.35,1.64-0.35c0.51,0,0.98,0.11,1.41,0.34
		s0.85,0.55,1.26,0.99v-5.11c0-0.05,0.01-0.09,0.03-0.13s0.07-0.08,0.13-0.1s0.15-0.04,0.25-0.06s0.23-0.02,0.39-0.02
		c0.16,0,0.3,0.01,0.4,0.02s0.19,0.04,0.24,0.06s0.1,0.06,0.13,0.1s0.04,0.09,0.04,0.13V275.02z M288.21,268.83
		c-0.44-0.54-0.86-0.95-1.26-1.24s-0.83-0.42-1.27-0.42c-0.41,0-0.76,0.1-1.04,0.29s-0.52,0.45-0.7,0.77s-0.31,0.68-0.39,1.08
		s-0.12,0.81-0.12,1.23c0,0.44,0.03,0.88,0.1,1.3s0.19,0.8,0.36,1.13s0.39,0.59,0.67,0.79s0.63,0.3,1.05,0.3
		c0.21,0,0.42-0.03,0.62-0.09s0.4-0.16,0.61-0.29s0.43-0.31,0.65-0.53s0.47-0.49,0.72-0.81V268.83z"/>
	<path class="st3" d="M300.85,270.52c0,0.72-0.09,1.38-0.28,1.98s-0.47,1.12-0.84,1.56s-0.84,0.78-1.41,1.02s-1.22,0.37-1.96,0.37
		c-0.72,0-1.35-0.11-1.89-0.32s-0.98-0.53-1.34-0.94s-0.63-0.91-0.8-1.49s-0.26-1.25-0.26-1.99c0-0.72,0.09-1.38,0.28-1.98
		s0.47-1.12,0.84-1.56s0.84-0.77,1.4-1.02s1.21-0.36,1.96-0.36c0.72,0,1.35,0.11,1.89,0.32s0.98,0.53,1.34,0.94s0.63,0.91,0.81,1.49
		S300.85,269.79,300.85,270.52z M299.18,270.63c0-0.48-0.04-0.92-0.13-1.35s-0.24-0.79-0.44-1.11c-0.2-0.32-0.48-0.57-0.83-0.76
		s-0.78-0.28-1.3-0.28c-0.48,0-0.89,0.08-1.24,0.25s-0.63,0.41-0.85,0.72s-0.39,0.68-0.5,1.1s-0.16,0.89-0.16,1.39
		c0,0.48,0.04,0.93,0.13,1.36s0.24,0.79,0.44,1.11s0.48,0.57,0.83,0.75c0.35,0.19,0.78,0.28,1.3,0.28c0.47,0,0.88-0.08,1.23-0.25
		c0.35-0.17,0.63-0.41,0.86-0.71s0.39-0.67,0.49-1.09C299.12,271.6,299.18,271.14,299.18,270.63z"/>
	<path class="st3" d="M315.27,275.02c0,0.05-0.01,0.1-0.03,0.13s-0.06,0.07-0.12,0.09s-0.13,0.05-0.23,0.06s-0.21,0.02-0.35,0.02
		c-0.15,0-0.27-0.01-0.37-0.02s-0.17-0.03-0.22-0.06s-0.09-0.06-0.11-0.09s-0.03-0.08-0.03-0.13v-1.16c-0.5,0.55-1,0.96-1.48,1.21
		s-0.98,0.38-1.48,0.38c-0.59,0-1.08-0.1-1.48-0.29s-0.72-0.46-0.97-0.8s-0.42-0.73-0.53-1.17s-0.16-0.99-0.16-1.63v-5.33
		c0-0.05,0.01-0.1,0.03-0.13s0.07-0.07,0.13-0.1s0.15-0.05,0.25-0.06s0.23-0.01,0.39-0.01s0.29,0,0.39,0.01s0.19,0.03,0.25,0.06
		s0.11,0.06,0.13,0.1s0.04,0.08,0.04,0.13v5.12c0,0.51,0.04,0.93,0.11,1.24s0.19,0.57,0.34,0.79s0.35,0.39,0.58,0.51
		s0.51,0.18,0.82,0.18c0.4,0,0.81-0.14,1.21-0.43s0.83-0.71,1.27-1.26v-6.14c0-0.05,0.01-0.1,0.03-0.13s0.07-0.07,0.13-0.1
		s0.15-0.05,0.25-0.06s0.23-0.01,0.4-0.01c0.16,0,0.29,0,0.39,0.01s0.19,0.03,0.24,0.06s0.1,0.06,0.13,0.1s0.04,0.08,0.04,0.13
		V275.02z"/>
	<path class="st3" d="M323.61,272.62c0,0.45-0.08,0.85-0.25,1.2s-0.4,0.65-0.71,0.89s-0.67,0.42-1.09,0.55s-0.89,0.19-1.4,0.19
		c-0.31,0-0.61-0.02-0.89-0.07s-0.54-0.11-0.76-0.19s-0.42-0.15-0.57-0.23s-0.27-0.15-0.34-0.22s-0.12-0.16-0.16-0.27
		s-0.05-0.28-0.05-0.48c0-0.12,0.01-0.23,0.02-0.31s0.03-0.15,0.05-0.21s0.05-0.09,0.08-0.11s0.08-0.03,0.12-0.03
		c0.07,0,0.18,0.04,0.32,0.13s0.31,0.18,0.52,0.29s0.45,0.2,0.73,0.29s0.6,0.13,0.97,0.13c0.27,0,0.52-0.03,0.74-0.09
		s0.41-0.14,0.58-0.26s0.29-0.26,0.38-0.43s0.13-0.38,0.13-0.63c0-0.25-0.06-0.46-0.19-0.63s-0.29-0.32-0.5-0.45
		s-0.44-0.25-0.7-0.35s-0.53-0.21-0.81-0.32s-0.55-0.24-0.81-0.38s-0.5-0.31-0.71-0.51s-0.38-0.44-0.5-0.72s-0.19-0.62-0.19-1.01
		c0-0.34,0.07-0.68,0.2-0.99s0.33-0.59,0.6-0.83s0.6-0.43,1-0.57s0.87-0.21,1.4-0.21c0.23,0,0.47,0.02,0.7,0.06s0.45,0.09,0.63,0.15
		s0.35,0.12,0.48,0.19s0.23,0.13,0.3,0.18s0.11,0.1,0.14,0.14s0.04,0.08,0.05,0.13s0.02,0.11,0.03,0.18s0.01,0.16,0.01,0.26
		c0,0.11,0,0.21-0.01,0.29s-0.03,0.15-0.05,0.2s-0.05,0.09-0.08,0.11s-0.07,0.03-0.11,0.03c-0.06,0-0.14-0.04-0.25-0.11
		s-0.25-0.15-0.43-0.23s-0.38-0.16-0.62-0.23s-0.51-0.11-0.82-0.11c-0.27,0-0.51,0.03-0.72,0.09s-0.38,0.15-0.51,0.26
		s-0.23,0.25-0.3,0.41s-0.1,0.33-0.1,0.51c0,0.25,0.07,0.47,0.2,0.64s0.3,0.32,0.51,0.45s0.45,0.25,0.71,0.35s0.54,0.21,0.82,0.32
		s0.55,0.23,0.82,0.37s0.51,0.3,0.72,0.5s0.38,0.43,0.5,0.7S323.61,272.25,323.61,272.62z"/>
	<path class="st3" d="M333.17,275.02c0,0.05-0.01,0.1-0.03,0.13s-0.06,0.07-0.12,0.09s-0.13,0.05-0.23,0.06s-0.21,0.02-0.35,0.02
		c-0.15,0-0.27-0.01-0.37-0.02s-0.17-0.03-0.22-0.06s-0.09-0.06-0.11-0.09s-0.03-0.08-0.03-0.13v-1.16c-0.5,0.55-1,0.96-1.48,1.21
		s-0.98,0.38-1.48,0.38c-0.59,0-1.08-0.1-1.48-0.29s-0.72-0.46-0.97-0.8s-0.42-0.73-0.53-1.17s-0.16-0.99-0.16-1.63v-5.33
		c0-0.05,0.01-0.1,0.03-0.13s0.07-0.07,0.13-0.1s0.15-0.05,0.25-0.06s0.23-0.01,0.39-0.01s0.29,0,0.39,0.01s0.19,0.03,0.25,0.06
		s0.11,0.06,0.13,0.1s0.04,0.08,0.04,0.13v5.12c0,0.51,0.04,0.93,0.11,1.24s0.19,0.57,0.34,0.79s0.35,0.39,0.58,0.51
		s0.51,0.18,0.82,0.18c0.4,0,0.81-0.14,1.21-0.43s0.83-0.71,1.27-1.26v-6.14c0-0.05,0.01-0.1,0.03-0.13s0.07-0.07,0.13-0.1
		s0.15-0.05,0.25-0.06s0.23-0.01,0.4-0.01c0.16,0,0.29,0,0.39,0.01s0.19,0.03,0.24,0.06s0.1,0.06,0.13,0.1s0.04,0.08,0.04,0.13
		V275.02z"/>
	<path class="st3" d="M342.55,275.03c0,0.08-0.03,0.14-0.08,0.18s-0.12,0.07-0.21,0.09s-0.22,0.03-0.4,0.03
		c-0.17,0-0.3-0.01-0.41-0.03s-0.17-0.05-0.22-0.09s-0.07-0.1-0.07-0.18v-0.88c-0.38,0.41-0.81,0.73-1.28,0.96s-0.97,0.34-1.5,0.34
		c-0.46,0-0.88-0.06-1.25-0.18s-0.69-0.29-0.96-0.52s-0.47-0.51-0.62-0.84s-0.22-0.71-0.22-1.13c0-0.5,0.1-0.92,0.3-1.29
		s0.49-0.67,0.87-0.91s0.84-0.42,1.39-0.54s1.16-0.18,1.85-0.18h1.21v-0.68c0-0.34-0.04-0.64-0.11-0.9s-0.19-0.48-0.35-0.65
		s-0.37-0.3-0.62-0.39s-0.57-0.13-0.94-0.13c-0.4,0-0.75,0.05-1.07,0.14s-0.59,0.2-0.83,0.31s-0.44,0.22-0.6,0.31
		s-0.28,0.14-0.36,0.14c-0.05,0-0.1-0.01-0.14-0.04s-0.07-0.07-0.1-0.12s-0.05-0.12-0.06-0.2s-0.02-0.17-0.02-0.27
		c0-0.16,0.01-0.29,0.03-0.39s0.08-0.18,0.17-0.27s0.24-0.18,0.45-0.3s0.46-0.22,0.74-0.31s0.59-0.17,0.92-0.23s0.67-0.09,1.01-0.09
		c0.63,0,1.17,0.07,1.61,0.21s0.8,0.35,1.07,0.63s0.47,0.62,0.6,1.03s0.19,0.89,0.19,1.44V275.03z M340.95,271.01h-1.38
		c-0.44,0-0.83,0.04-1.15,0.11s-0.6,0.19-0.81,0.33s-0.37,0.32-0.47,0.53s-0.15,0.44-0.15,0.71c0,0.46,0.14,0.82,0.43,1.09
		s0.7,0.41,1.22,0.41c0.42,0,0.82-0.11,1.18-0.32s0.74-0.54,1.14-0.99V271.01z M339.99,261.93c0.04-0.07,0.08-0.13,0.14-0.18
		s0.12-0.08,0.19-0.11s0.17-0.05,0.28-0.06s0.24-0.02,0.4-0.02c0.18,0,0.33,0.01,0.44,0.03s0.19,0.06,0.24,0.1s0.07,0.09,0.06,0.15
		s-0.04,0.11-0.09,0.17l-1.77,2.28c-0.05,0.07-0.1,0.12-0.14,0.16s-0.09,0.07-0.15,0.09s-0.13,0.04-0.21,0.05s-0.2,0.01-0.33,0.01
		c-0.14,0-0.26-0.01-0.34-0.03s-0.14-0.05-0.18-0.08s-0.05-0.08-0.04-0.13s0.04-0.11,0.08-0.19L339.99,261.93z"/>
	<path class="st3" d="M350.42,266.8c0,0.14,0,0.26-0.01,0.36s-0.02,0.17-0.04,0.23s-0.04,0.1-0.07,0.13s-0.07,0.04-0.12,0.04
		s-0.12-0.01-0.19-0.04s-0.16-0.06-0.25-0.09s-0.2-0.06-0.32-0.08s-0.24-0.04-0.38-0.04c-0.16,0-0.32,0.03-0.48,0.1
		s-0.32,0.17-0.49,0.32s-0.35,0.35-0.54,0.6s-0.4,0.55-0.63,0.91v5.78c0,0.05-0.01,0.1-0.04,0.13s-0.07,0.07-0.13,0.09
		s-0.14,0.05-0.24,0.06s-0.24,0.02-0.4,0.02c-0.16,0-0.29-0.01-0.39-0.02s-0.19-0.03-0.25-0.06s-0.1-0.06-0.13-0.09
		s-0.03-0.08-0.03-0.13v-8.79c0-0.05,0.01-0.1,0.03-0.13s0.06-0.07,0.12-0.1s0.13-0.05,0.22-0.06s0.21-0.01,0.36-0.01
		c0.14,0,0.26,0,0.36,0.01s0.17,0.03,0.22,0.06s0.09,0.06,0.11,0.1s0.03,0.08,0.03,0.13v1.28c0.24-0.35,0.47-0.64,0.68-0.86
		s0.41-0.4,0.6-0.52s0.38-0.21,0.56-0.26s0.37-0.07,0.56-0.07c0.08,0,0.18,0,0.29,0.01s0.22,0.03,0.34,0.05s0.22,0.06,0.32,0.09
		s0.16,0.07,0.2,0.1s0.07,0.06,0.08,0.09s0.02,0.07,0.03,0.11s0.02,0.11,0.02,0.2S350.42,266.65,350.42,266.8z"/>
	<path class="st3" d="M353.96,263.26c0,0.38-0.07,0.63-0.21,0.77s-0.41,0.21-0.79,0.21c-0.38,0-0.64-0.07-0.78-0.2
		s-0.21-0.39-0.21-0.76c0-0.38,0.07-0.63,0.21-0.77s0.41-0.21,0.79-0.21c0.38,0,0.64,0.07,0.78,0.2S353.96,262.89,353.96,263.26z
		 M353.77,275.02c0,0.05-0.01,0.1-0.04,0.13s-0.07,0.07-0.13,0.09s-0.14,0.05-0.24,0.06s-0.24,0.02-0.4,0.02
		c-0.16,0-0.29-0.01-0.39-0.02s-0.19-0.03-0.25-0.06s-0.1-0.06-0.13-0.09s-0.03-0.08-0.03-0.13v-8.79c0-0.05,0.01-0.09,0.03-0.13
		s0.07-0.07,0.13-0.1s0.14-0.05,0.25-0.06s0.23-0.02,0.39-0.02c0.16,0,0.3,0.01,0.4,0.02s0.19,0.03,0.24,0.06s0.1,0.06,0.13,0.1
		s0.04,0.08,0.04,0.13V275.02z"/>
	<path class="st3" d="M364.78,270.52c0,0.72-0.09,1.38-0.28,1.98s-0.47,1.12-0.84,1.56s-0.84,0.78-1.41,1.02s-1.22,0.37-1.96,0.37
		c-0.72,0-1.35-0.11-1.89-0.32s-0.98-0.53-1.34-0.94s-0.63-0.91-0.8-1.49s-0.26-1.25-0.26-1.99c0-0.72,0.09-1.38,0.28-1.98
		s0.47-1.12,0.84-1.56s0.84-0.77,1.4-1.02s1.21-0.36,1.96-0.36c0.72,0,1.35,0.11,1.89,0.32s0.98,0.53,1.34,0.94s0.63,0.91,0.81,1.49
		S364.78,269.79,364.78,270.52z M363.11,270.63c0-0.48-0.04-0.92-0.13-1.35s-0.24-0.79-0.44-1.11c-0.2-0.32-0.48-0.57-0.83-0.76
		s-0.78-0.28-1.3-0.28c-0.48,0-0.89,0.08-1.24,0.25s-0.63,0.41-0.85,0.72s-0.39,0.68-0.5,1.1s-0.16,0.89-0.16,1.39
		c0,0.48,0.04,0.93,0.13,1.36s0.24,0.79,0.44,1.11s0.48,0.57,0.83,0.75c0.35,0.19,0.78,0.28,1.3,0.28c0.47,0,0.88-0.08,1.23-0.25
		c0.35-0.17,0.63-0.41,0.86-0.71s0.39-0.67,0.49-1.09C363.05,271.6,363.11,271.14,363.11,270.63z"/>
	<path class="st3" d="M221.81,304.64c0,0.4-0.05,0.76-0.15,1.1s-0.24,0.64-0.42,0.9s-0.4,0.5-0.66,0.7s-0.55,0.37-0.87,0.51
		s-0.67,0.24-1.04,0.31s-0.79,0.1-1.26,0.1h-3.3c-0.15,0-0.29-0.05-0.42-0.15s-0.2-0.28-0.2-0.53v-11.27c0-0.25,0.07-0.43,0.2-0.53
		s0.27-0.15,0.42-0.15h2.87c0.76,0,1.37,0.07,1.86,0.21s0.88,0.35,1.21,0.63s0.56,0.61,0.73,1.01s0.24,0.85,0.24,1.35
		c0,0.3-0.04,0.59-0.11,0.86s-0.18,0.53-0.32,0.76s-0.32,0.44-0.53,0.62s-0.45,0.33-0.73,0.45c0.35,0.07,0.67,0.18,0.97,0.36
		s0.56,0.39,0.79,0.66s0.4,0.58,0.53,0.94S221.81,304.21,221.81,304.64z M219.28,298.98c0-0.31-0.04-0.58-0.13-0.83
		c-0.08-0.25-0.22-0.46-0.4-0.63c-0.18-0.17-0.42-0.3-0.71-0.4c-0.29-0.09-0.68-0.14-1.16-0.14h-1.73v4.09h1.91
		c0.44,0,0.79-0.06,1.05-0.17c0.27-0.11,0.49-0.27,0.66-0.46c0.18-0.19,0.3-0.42,0.39-0.67
		C219.24,299.52,219.28,299.26,219.28,298.98z M220.04,304.73c0-0.38-0.06-0.71-0.18-1c-0.12-0.29-0.3-0.53-0.53-0.72
		c-0.23-0.2-0.52-0.34-0.87-0.44s-0.78-0.15-1.31-0.15h-2.01v4.45h2.44c0.38,0,0.72-0.05,1-0.14c0.29-0.09,0.54-0.23,0.76-0.41
		c0.22-0.18,0.39-0.4,0.51-0.67C219.98,305.4,220.04,305.09,220.04,304.73z"/>
	<path class="st3" d="M225.7,308.02c0,0.05-0.01,0.1-0.04,0.13s-0.07,0.07-0.13,0.09s-0.14,0.05-0.24,0.06s-0.24,0.02-0.4,0.02
		c-0.16,0-0.29-0.01-0.39-0.02s-0.19-0.03-0.25-0.06s-0.1-0.06-0.13-0.09s-0.03-0.08-0.03-0.13v-13.05c0-0.05,0.01-0.1,0.03-0.14
		s0.06-0.07,0.13-0.1s0.15-0.05,0.25-0.06s0.23-0.02,0.39-0.02c0.16,0,0.3,0.01,0.4,0.02s0.19,0.03,0.24,0.06s0.1,0.06,0.13,0.1
		s0.04,0.08,0.04,0.14V308.02z"/>
	<path class="st3" d="M235.99,308.02c0,0.05-0.01,0.1-0.03,0.13s-0.06,0.07-0.12,0.09s-0.14,0.05-0.23,0.06s-0.21,0.02-0.35,0.02
		c-0.15,0-0.27-0.01-0.37-0.02s-0.17-0.03-0.22-0.06s-0.09-0.06-0.11-0.09s-0.03-0.08-0.03-0.13v-1.16c-0.5,0.55-1,0.96-1.48,1.21
		s-0.98,0.38-1.48,0.38c-0.59,0-1.08-0.1-1.48-0.29s-0.72-0.46-0.97-0.8s-0.42-0.73-0.53-1.17s-0.16-0.99-0.16-1.63v-5.33
		c0-0.05,0.01-0.1,0.03-0.13s0.07-0.07,0.13-0.1s0.15-0.05,0.25-0.06s0.23-0.01,0.39-0.01s0.29,0,0.39,0.01s0.19,0.03,0.25,0.06
		s0.11,0.06,0.13,0.1s0.04,0.08,0.04,0.13v5.12c0,0.51,0.04,0.93,0.11,1.24s0.19,0.57,0.34,0.79s0.35,0.39,0.58,0.51
		s0.51,0.18,0.82,0.18c0.4,0,0.81-0.14,1.21-0.43s0.83-0.71,1.27-1.26v-6.14c0-0.05,0.01-0.1,0.03-0.13s0.07-0.07,0.13-0.1
		s0.15-0.05,0.25-0.06s0.23-0.01,0.4-0.01c0.16,0,0.29,0,0.39,0.01s0.19,0.03,0.24,0.06s0.1,0.06,0.13,0.1s0.04,0.08,0.04,0.13
		V308.02z"/>
	<path class="st3" d="M246.34,303.24c0,0.25-0.06,0.43-0.19,0.54s-0.27,0.16-0.44,0.16h-5.79c0,0.49,0.05,0.93,0.15,1.32
		s0.26,0.73,0.49,1.01s0.53,0.5,0.89,0.64s0.81,0.22,1.34,0.22c0.42,0,0.79-0.03,1.12-0.1s0.61-0.14,0.85-0.23s0.44-0.16,0.59-0.23
		s0.27-0.1,0.35-0.1c0.05,0,0.09,0.01,0.12,0.03c0.04,0.02,0.06,0.06,0.08,0.1s0.03,0.11,0.04,0.19s0.01,0.18,0.01,0.3
		c0,0.08,0,0.16-0.01,0.22s-0.01,0.12-0.02,0.17s-0.03,0.09-0.05,0.13s-0.05,0.08-0.09,0.11s-0.14,0.09-0.32,0.18
		s-0.4,0.16-0.68,0.24s-0.6,0.15-0.97,0.21s-0.76,0.09-1.18,0.09c-0.72,0-1.36-0.1-1.9-0.3s-1-0.5-1.37-0.9s-0.65-0.9-0.84-1.49
		s-0.28-1.3-0.28-2.09c0-0.75,0.1-1.43,0.29-2.04s0.48-1.11,0.84-1.53s0.81-0.74,1.33-0.97s1.1-0.34,1.75-0.34
		c0.69,0,1.28,0.11,1.76,0.33s0.88,0.52,1.2,0.89s0.54,0.81,0.69,1.32s0.22,1.04,0.22,1.62V303.24z M244.72,302.76
		c0.02-0.85-0.17-1.51-0.56-1.99c-0.4-0.48-0.98-0.72-1.76-0.72c-0.4,0-0.75,0.08-1.05,0.22s-0.55,0.35-0.76,0.6
		s-0.36,0.54-0.47,0.86s-0.17,0.67-0.19,1.03H244.72z"/>
	<path class="st3" d="M256.69,303.48c0,0.77-0.08,1.46-0.25,2.07s-0.41,1.13-0.73,1.56s-0.72,0.75-1.2,0.99
		c-0.48,0.23-1.02,0.35-1.63,0.35c-0.26,0-0.5-0.03-0.72-0.08c-0.22-0.05-0.44-0.13-0.65-0.24c-0.21-0.11-0.42-0.25-0.63-0.42
		c-0.21-0.17-0.43-0.37-0.66-0.6v4.39c0,0.05-0.01,0.1-0.04,0.14s-0.07,0.07-0.13,0.1s-0.14,0.05-0.24,0.06s-0.24,0.02-0.4,0.02
		c-0.16,0-0.29-0.01-0.39-0.02s-0.19-0.03-0.25-0.06s-0.1-0.06-0.13-0.1s-0.03-0.08-0.03-0.14v-12.28c0-0.06,0.01-0.11,0.03-0.14
		s0.06-0.07,0.12-0.09s0.13-0.04,0.22-0.05s0.2-0.01,0.33-0.01c0.14,0,0.25,0,0.34,0.01s0.16,0.03,0.22,0.05s0.1,0.06,0.12,0.09
		s0.03,0.08,0.03,0.14v1.18c0.27-0.27,0.52-0.51,0.77-0.71c0.25-0.2,0.5-0.37,0.75-0.5c0.25-0.13,0.51-0.23,0.77-0.3
		s0.54-0.1,0.84-0.1c0.64,0,1.18,0.12,1.63,0.37s0.81,0.59,1.1,1.02s0.49,0.93,0.62,1.5C256.62,302.24,256.69,302.85,256.69,303.48z
		 M255.02,303.67c0-0.45-0.04-0.88-0.1-1.3s-0.19-0.79-0.35-1.12c-0.17-0.33-0.39-0.59-0.67-0.78s-0.63-0.29-1.05-0.29
		c-0.21,0-0.42,0.03-0.62,0.09s-0.41,0.16-0.62,0.29s-0.43,0.31-0.66,0.53c-0.23,0.22-0.47,0.49-0.73,0.81v3.5
		c0.45,0.54,0.87,0.95,1.27,1.24s0.82,0.43,1.26,0.43c0.41,0,0.75-0.1,1.04-0.29c0.29-0.2,0.53-0.46,0.71-0.78
		c0.18-0.33,0.31-0.69,0.4-1.09C254.97,304.49,255.02,304.08,255.02,303.67z"/>
	<path class="st3" d="M264.11,299.8c0,0.14,0,0.26-0.01,0.36s-0.02,0.17-0.04,0.23s-0.04,0.1-0.07,0.13s-0.07,0.04-0.12,0.04
		s-0.12-0.01-0.19-0.04s-0.16-0.06-0.25-0.09s-0.2-0.06-0.32-0.08s-0.24-0.04-0.38-0.04c-0.16,0-0.32,0.03-0.48,0.1
		s-0.32,0.17-0.49,0.32s-0.35,0.35-0.54,0.6s-0.4,0.55-0.63,0.91v5.78c0,0.05-0.01,0.1-0.04,0.13s-0.07,0.07-0.13,0.09
		s-0.14,0.05-0.24,0.06s-0.24,0.02-0.4,0.02c-0.16,0-0.29-0.01-0.39-0.02s-0.19-0.03-0.25-0.06s-0.1-0.06-0.13-0.09
		s-0.03-0.08-0.03-0.13v-8.79c0-0.05,0.01-0.1,0.03-0.13s0.06-0.07,0.12-0.1s0.13-0.05,0.22-0.06s0.21-0.01,0.36-0.01
		c0.14,0,0.26,0,0.36,0.01s0.17,0.03,0.22,0.06s0.09,0.06,0.11,0.1s0.03,0.08,0.03,0.13v1.28c0.24-0.35,0.47-0.64,0.68-0.86
		s0.41-0.4,0.6-0.52s0.38-0.21,0.56-0.26s0.37-0.07,0.56-0.07c0.08,0,0.18,0,0.29,0.01s0.22,0.03,0.34,0.05s0.22,0.06,0.32,0.09
		s0.16,0.07,0.2,0.1s0.07,0.06,0.08,0.09s0.02,0.07,0.03,0.11s0.02,0.11,0.02,0.2S264.11,299.65,264.11,299.8z"/>
	<path class="st3" d="M267.64,296.26c0,0.38-0.07,0.63-0.21,0.77s-0.41,0.21-0.79,0.21c-0.38,0-0.64-0.07-0.78-0.2
		s-0.21-0.39-0.21-0.76c0-0.38,0.07-0.63,0.21-0.77s0.41-0.21,0.79-0.21c0.38,0,0.64,0.07,0.78,0.2S267.64,295.89,267.64,296.26z
		 M267.46,308.02c0,0.05-0.01,0.1-0.04,0.13s-0.07,0.07-0.13,0.09s-0.14,0.05-0.24,0.06s-0.24,0.02-0.4,0.02
		c-0.16,0-0.29-0.01-0.39-0.02s-0.19-0.03-0.25-0.06s-0.1-0.06-0.13-0.09s-0.03-0.08-0.03-0.13v-8.79c0-0.05,0.01-0.09,0.03-0.13
		s0.07-0.07,0.13-0.1s0.14-0.05,0.25-0.06s0.23-0.02,0.39-0.02c0.16,0,0.3,0.01,0.4,0.02s0.19,0.03,0.24,0.06s0.1,0.06,0.13,0.1
		s0.04,0.08,0.04,0.13V308.02z"/>
	<path class="st3" d="M277.79,308.02c0,0.05-0.01,0.1-0.04,0.13s-0.07,0.07-0.13,0.09s-0.14,0.05-0.24,0.06s-0.23,0.02-0.39,0.02
		c-0.16,0-0.3-0.01-0.4-0.02s-0.19-0.03-0.24-0.06s-0.1-0.06-0.13-0.09s-0.04-0.08-0.04-0.13v-5.15c0-0.5-0.04-0.91-0.12-1.21
		s-0.19-0.57-0.34-0.79s-0.34-0.39-0.58-0.51s-0.51-0.18-0.83-0.18c-0.4,0-0.81,0.14-1.21,0.43s-0.83,0.71-1.27,1.26v6.14
		c0,0.05-0.01,0.1-0.04,0.13s-0.07,0.07-0.13,0.09s-0.14,0.05-0.24,0.06s-0.24,0.02-0.4,0.02c-0.16,0-0.29-0.01-0.39-0.02
		s-0.19-0.03-0.25-0.06s-0.1-0.06-0.13-0.09s-0.03-0.08-0.03-0.13v-8.79c0-0.05,0.01-0.1,0.03-0.13s0.06-0.07,0.12-0.1
		s0.13-0.05,0.22-0.06s0.21-0.01,0.36-0.01c0.14,0,0.26,0,0.36,0.01s0.17,0.03,0.22,0.06s0.09,0.06,0.11,0.1s0.03,0.08,0.03,0.13
		v1.16c0.5-0.55,0.99-0.96,1.48-1.22s0.99-0.39,1.49-0.39c0.59,0,1.08,0.1,1.48,0.3s0.72,0.46,0.97,0.8s0.42,0.72,0.53,1.17
		s0.16,0.98,0.16,1.61V308.02z"/>
	<path class="st3" d="M285.03,307.37c0,0.19-0.01,0.34-0.04,0.45s-0.07,0.19-0.12,0.24s-0.13,0.1-0.23,0.15s-0.22,0.08-0.36,0.11
		s-0.28,0.05-0.42,0.07s-0.3,0.03-0.45,0.03c-0.46,0-0.85-0.06-1.17-0.18s-0.59-0.3-0.8-0.55s-0.36-0.55-0.45-0.93
		s-0.14-0.82-0.14-1.32v-5.14h-1.23c-0.1,0-0.18-0.05-0.23-0.16s-0.09-0.27-0.09-0.51c0-0.12,0.01-0.23,0.02-0.31
		s0.04-0.15,0.06-0.21s0.06-0.09,0.1-0.12s0.09-0.03,0.14-0.03h1.22v-2.09c0-0.05,0.01-0.09,0.03-0.13s0.07-0.07,0.13-0.1
		s0.14-0.05,0.25-0.06s0.23-0.02,0.39-0.02c0.16,0,0.3,0.01,0.4,0.02s0.19,0.03,0.24,0.06s0.1,0.06,0.13,0.1s0.04,0.08,0.04,0.13
		v2.09h2.26c0.05,0,0.1,0.01,0.14,0.03s0.07,0.06,0.1,0.12s0.05,0.13,0.06,0.21s0.02,0.19,0.02,0.31c0,0.23-0.03,0.4-0.09,0.51
		s-0.14,0.16-0.23,0.16h-2.26v4.9c0,0.61,0.09,1.06,0.27,1.37s0.5,0.46,0.96,0.46c0.15,0,0.28-0.01,0.4-0.04s0.22-0.06,0.31-0.09
		s0.17-0.06,0.23-0.09s0.12-0.04,0.18-0.04c0.03,0,0.06,0.01,0.09,0.02s0.05,0.05,0.07,0.09s0.03,0.11,0.04,0.19
		S285.03,307.25,285.03,307.37z"/>
	<path class="st3" d="M292.79,305.62c0,0.45-0.08,0.85-0.25,1.2s-0.4,0.65-0.71,0.89s-0.67,0.42-1.09,0.55s-0.89,0.19-1.4,0.19
		c-0.31,0-0.61-0.02-0.89-0.07s-0.54-0.11-0.76-0.19s-0.42-0.15-0.57-0.23s-0.27-0.15-0.34-0.22s-0.12-0.16-0.16-0.27
		s-0.05-0.28-0.05-0.48c0-0.12,0.01-0.23,0.02-0.31s0.03-0.15,0.05-0.21s0.05-0.09,0.08-0.11s0.08-0.03,0.12-0.03
		c0.07,0,0.18,0.04,0.32,0.13s0.31,0.18,0.52,0.29s0.45,0.2,0.73,0.29s0.6,0.13,0.97,0.13c0.27,0,0.52-0.03,0.74-0.09
		s0.41-0.14,0.58-0.26s0.29-0.26,0.38-0.43s0.13-0.38,0.13-0.63c0-0.25-0.06-0.46-0.19-0.63s-0.29-0.32-0.5-0.45
		s-0.44-0.25-0.7-0.35s-0.53-0.21-0.81-0.32s-0.55-0.24-0.81-0.38s-0.5-0.31-0.71-0.51s-0.38-0.44-0.5-0.72s-0.19-0.62-0.19-1.01
		c0-0.34,0.07-0.68,0.2-0.99s0.33-0.59,0.6-0.83s0.6-0.43,1-0.57s0.87-0.21,1.4-0.21c0.23,0,0.47,0.02,0.7,0.06s0.45,0.09,0.63,0.15
		s0.35,0.12,0.48,0.19s0.23,0.13,0.3,0.18s0.11,0.1,0.14,0.14s0.04,0.08,0.05,0.13s0.02,0.11,0.03,0.18s0.01,0.16,0.01,0.26
		c0,0.11,0,0.21-0.01,0.29s-0.03,0.15-0.05,0.2s-0.05,0.09-0.08,0.11s-0.07,0.03-0.11,0.03c-0.06,0-0.14-0.04-0.25-0.11
		s-0.25-0.15-0.43-0.23s-0.38-0.16-0.62-0.23s-0.51-0.11-0.82-0.11c-0.27,0-0.51,0.03-0.72,0.09s-0.38,0.15-0.51,0.26
		s-0.23,0.25-0.3,0.41s-0.1,0.33-0.1,0.51c0,0.25,0.07,0.47,0.2,0.64s0.3,0.32,0.51,0.45s0.45,0.25,0.71,0.35s0.54,0.21,0.82,0.32
		s0.55,0.23,0.82,0.37s0.51,0.3,0.72,0.5s0.38,0.43,0.5,0.7S292.79,305.25,292.79,305.62z"/>
	<path class="st3" d="M214.27,330.34c0,0.12-0.01,0.23-0.02,0.33s-0.03,0.17-0.06,0.23s-0.06,0.11-0.1,0.13s-0.08,0.04-0.13,0.04
		c-0.08,0-0.21-0.06-0.39-0.19s-0.43-0.26-0.73-0.41s-0.67-0.29-1.1-0.41s-0.93-0.19-1.52-0.19c-0.7,0-1.32,0.13-1.88,0.38
		s-1.02,0.61-1.41,1.05s-0.68,0.98-0.88,1.6s-0.31,1.29-0.31,2.01c0,0.81,0.11,1.52,0.34,2.15s0.54,1.15,0.93,1.58
		s0.87,0.75,1.42,0.98s1.15,0.33,1.81,0.33c0.39,0,0.79-0.05,1.19-0.14s0.77-0.24,1.12-0.42v-3.68h-2.93
		c-0.11,0-0.19-0.06-0.25-0.17s-0.08-0.28-0.08-0.52c0-0.12,0.01-0.23,0.02-0.32s0.03-0.16,0.06-0.21s0.06-0.1,0.1-0.12
		s0.09-0.04,0.15-0.04h4.01c0.07,0,0.14,0.01,0.21,0.04s0.14,0.07,0.2,0.12s0.1,0.12,0.14,0.21s0.05,0.2,0.05,0.31v4.81
		c0,0.17-0.03,0.32-0.09,0.44s-0.18,0.23-0.37,0.33s-0.43,0.2-0.73,0.31s-0.61,0.21-0.93,0.28s-0.64,0.14-0.97,0.18
		s-0.65,0.06-0.97,0.06c-0.98,0-1.85-0.15-2.62-0.45s-1.42-0.73-1.95-1.29s-0.94-1.23-1.22-2.01s-0.42-1.65-0.42-2.62
		c0-1,0.15-1.91,0.45-2.72s0.73-1.51,1.28-2.08s1.21-1.02,1.98-1.33s1.63-0.47,2.56-0.47c0.48,0,0.93,0.04,1.36,0.13
		s0.8,0.18,1.13,0.3s0.61,0.24,0.83,0.37s0.38,0.24,0.46,0.33s0.14,0.18,0.18,0.29S214.27,330.13,214.27,330.34z"/>
	<path class="st3" d="M225.26,336.52c0,0.72-0.09,1.38-0.28,1.98s-0.47,1.12-0.84,1.56s-0.84,0.78-1.41,1.02s-1.22,0.37-1.96,0.37
		c-0.72,0-1.35-0.11-1.89-0.32s-0.98-0.53-1.34-0.94s-0.63-0.91-0.8-1.49s-0.26-1.25-0.26-1.99c0-0.72,0.09-1.38,0.28-1.98
		s0.47-1.12,0.84-1.56s0.84-0.77,1.4-1.02s1.21-0.36,1.96-0.36c0.72,0,1.35,0.11,1.89,0.32s0.98,0.53,1.34,0.94s0.63,0.91,0.81,1.49
		S225.26,335.79,225.26,336.52z M223.59,336.63c0-0.48-0.04-0.92-0.13-1.35c-0.09-0.42-0.24-0.79-0.44-1.11s-0.48-0.57-0.83-0.76
		s-0.78-0.28-1.3-0.28c-0.48,0-0.89,0.08-1.24,0.25c-0.35,0.17-0.63,0.41-0.85,0.72c-0.22,0.31-0.39,0.68-0.5,1.1
		s-0.16,0.89-0.16,1.39c0,0.48,0.04,0.93,0.13,1.36c0.09,0.42,0.24,0.79,0.44,1.11c0.21,0.32,0.48,0.57,0.83,0.75
		c0.35,0.19,0.78,0.28,1.3,0.28c0.47,0,0.88-0.08,1.23-0.25s0.63-0.41,0.86-0.71c0.22-0.31,0.39-0.67,0.49-1.09
		S223.59,337.14,223.59,336.63z"/>
	<path class="st3" d="M229.12,341.02c0,0.05-0.01,0.1-0.04,0.13s-0.07,0.07-0.13,0.09s-0.14,0.05-0.24,0.06s-0.24,0.02-0.4,0.02
		c-0.16,0-0.29-0.01-0.39-0.02s-0.19-0.03-0.25-0.06s-0.1-0.06-0.13-0.09s-0.03-0.08-0.03-0.13v-13.05c0-0.05,0.01-0.1,0.03-0.14
		s0.06-0.07,0.13-0.1s0.15-0.05,0.25-0.06s0.23-0.02,0.39-0.02c0.16,0,0.3,0.01,0.4,0.02s0.19,0.03,0.24,0.06s0.1,0.06,0.13,0.1
		s0.04,0.08,0.04,0.14V341.02z"/>
	<path class="st3" d="M239.49,341.02c0,0.05-0.01,0.1-0.03,0.14s-0.06,0.07-0.12,0.09s-0.13,0.04-0.22,0.05s-0.2,0.02-0.33,0.02
		c-0.14,0-0.25-0.01-0.34-0.02s-0.17-0.03-0.22-0.05s-0.1-0.05-0.13-0.09s-0.04-0.08-0.04-0.14v-1.16c-0.46,0.5-0.94,0.89-1.44,1.17
		s-1.04,0.42-1.64,0.42c-0.64,0-1.19-0.13-1.65-0.38s-0.83-0.59-1.11-1.02s-0.49-0.93-0.62-1.5s-0.2-1.18-0.2-1.82
		c0-0.75,0.08-1.44,0.24-2.05s0.4-1.13,0.72-1.56s0.71-0.76,1.19-0.99s1.02-0.35,1.64-0.35c0.51,0,0.98,0.11,1.41,0.34
		s0.85,0.55,1.26,0.99v-5.11c0-0.05,0.01-0.09,0.03-0.13s0.07-0.08,0.13-0.1s0.15-0.04,0.25-0.06s0.23-0.02,0.39-0.02
		c0.16,0,0.3,0.01,0.4,0.02s0.19,0.04,0.24,0.06s0.1,0.06,0.13,0.1s0.04,0.09,0.04,0.13V341.02z M237.87,334.83
		c-0.44-0.54-0.86-0.95-1.26-1.24s-0.83-0.42-1.27-0.42c-0.41,0-0.76,0.1-1.04,0.29s-0.52,0.45-0.7,0.77s-0.31,0.68-0.39,1.08
		s-0.12,0.81-0.12,1.23c0,0.44,0.03,0.88,0.1,1.3s0.19,0.8,0.36,1.13s0.39,0.59,0.67,0.79s0.63,0.3,1.05,0.3
		c0.21,0,0.42-0.03,0.62-0.09s0.4-0.16,0.61-0.29s0.43-0.31,0.65-0.53s0.47-0.49,0.72-0.81V334.83z"/>
	<path class="st3" d="M249.84,336.24c0,0.25-0.06,0.43-0.19,0.54s-0.27,0.16-0.44,0.16h-5.79c0,0.49,0.05,0.93,0.15,1.32
		s0.26,0.73,0.49,1.01s0.53,0.5,0.89,0.64s0.81,0.22,1.34,0.22c0.42,0,0.79-0.03,1.12-0.1s0.61-0.14,0.85-0.23s0.44-0.16,0.59-0.23
		s0.27-0.1,0.35-0.1c0.05,0,0.09,0.01,0.12,0.03c0.04,0.02,0.06,0.06,0.08,0.1s0.03,0.11,0.04,0.19s0.01,0.18,0.01,0.3
		c0,0.08,0,0.16-0.01,0.22s-0.01,0.12-0.02,0.17s-0.03,0.09-0.05,0.13s-0.05,0.08-0.09,0.11s-0.14,0.09-0.32,0.18
		s-0.4,0.16-0.68,0.24s-0.6,0.15-0.97,0.21s-0.76,0.09-1.18,0.09c-0.72,0-1.36-0.1-1.9-0.3s-1-0.5-1.37-0.9s-0.65-0.9-0.84-1.49
		s-0.28-1.3-0.28-2.09c0-0.75,0.1-1.43,0.29-2.04s0.48-1.11,0.84-1.53s0.81-0.74,1.33-0.97s1.1-0.34,1.75-0.34
		c0.69,0,1.28,0.11,1.76,0.33s0.88,0.52,1.2,0.89s0.54,0.81,0.69,1.32s0.22,1.04,0.22,1.62V336.24z M248.22,335.76
		c0.02-0.85-0.17-1.51-0.56-1.99c-0.4-0.48-0.98-0.72-1.76-0.72c-0.4,0-0.75,0.08-1.05,0.22s-0.55,0.35-0.76,0.6
		s-0.36,0.54-0.47,0.86s-0.17,0.67-0.19,1.03H248.22z"/>
	<path class="st3" d="M259.67,341.02c0,0.05-0.01,0.1-0.04,0.13s-0.07,0.07-0.13,0.09s-0.14,0.05-0.24,0.06s-0.23,0.02-0.39,0.02
		c-0.16,0-0.3-0.01-0.4-0.02s-0.19-0.03-0.24-0.06s-0.1-0.06-0.13-0.09s-0.04-0.08-0.04-0.13v-5.15c0-0.5-0.04-0.91-0.12-1.21
		s-0.19-0.57-0.34-0.79s-0.34-0.39-0.58-0.51s-0.51-0.18-0.83-0.18c-0.4,0-0.81,0.14-1.21,0.43s-0.83,0.71-1.27,1.26v6.14
		c0,0.05-0.01,0.1-0.04,0.13s-0.07,0.07-0.13,0.09s-0.14,0.05-0.24,0.06s-0.24,0.02-0.4,0.02c-0.16,0-0.29-0.01-0.39-0.02
		s-0.19-0.03-0.25-0.06s-0.1-0.06-0.13-0.09c-0.02-0.04-0.03-0.08-0.03-0.13v-8.79c0-0.05,0.01-0.1,0.03-0.13s0.06-0.07,0.12-0.1
		s0.13-0.05,0.22-0.06s0.21-0.01,0.36-0.01c0.14,0,0.26,0,0.36,0.01s0.17,0.03,0.22,0.06s0.09,0.06,0.11,0.1s0.03,0.08,0.03,0.13
		v1.16c0.5-0.55,0.99-0.96,1.48-1.22s0.99-0.39,1.49-0.39c0.59,0,1.08,0.1,1.48,0.3s0.72,0.46,0.97,0.8s0.42,0.72,0.53,1.17
		s0.16,0.98,0.16,1.61V341.02z"/>
	<path class="st3" d="M275.22,336.48c0,0.77-0.08,1.46-0.25,2.07s-0.41,1.13-0.73,1.56s-0.72,0.75-1.2,0.99s-1.02,0.35-1.63,0.35
		c-0.26,0-0.5-0.03-0.72-0.08s-0.44-0.13-0.65-0.24s-0.42-0.25-0.63-0.42s-0.43-0.37-0.66-0.6v4.39c0,0.05-0.01,0.1-0.04,0.14
		s-0.07,0.07-0.13,0.1s-0.14,0.05-0.24,0.06s-0.24,0.02-0.4,0.02c-0.16,0-0.29-0.01-0.39-0.02s-0.19-0.03-0.25-0.06
		s-0.1-0.06-0.13-0.1s-0.03-0.08-0.03-0.14v-12.28c0-0.06,0.01-0.11,0.03-0.14s0.06-0.07,0.12-0.09s0.13-0.04,0.22-0.05
		s0.2-0.01,0.33-0.01c0.14,0,0.25,0,0.34,0.01s0.16,0.03,0.22,0.05s0.1,0.06,0.12,0.09s0.03,0.08,0.03,0.14v1.18
		c0.27-0.27,0.52-0.51,0.77-0.71s0.5-0.37,0.75-0.5s0.51-0.23,0.77-0.3s0.54-0.1,0.83-0.1c0.64,0,1.18,0.12,1.63,0.37
		s0.82,0.59,1.1,1.02s0.49,0.93,0.62,1.5S275.22,335.85,275.22,336.48z M273.55,336.67c0-0.45-0.03-0.88-0.1-1.3
		c-0.07-0.42-0.19-0.79-0.35-1.12s-0.39-0.59-0.67-0.78s-0.63-0.29-1.05-0.29c-0.21,0-0.42,0.03-0.62,0.09
		c-0.2,0.06-0.41,0.16-0.62,0.29c-0.21,0.13-0.43,0.31-0.66,0.53c-0.23,0.22-0.47,0.49-0.73,0.81v3.5c0.45,0.54,0.87,0.95,1.27,1.24
		s0.82,0.43,1.26,0.43c0.41,0,0.75-0.1,1.05-0.29c0.29-0.2,0.53-0.46,0.71-0.78c0.18-0.33,0.31-0.69,0.4-1.09
		S273.55,337.08,273.55,336.67z"/>
	<path class="st3" d="M284.1,341.03c0,0.08-0.03,0.14-0.08,0.18s-0.12,0.07-0.21,0.09s-0.22,0.03-0.4,0.03
		c-0.17,0-0.3-0.01-0.41-0.03s-0.17-0.05-0.22-0.09s-0.07-0.1-0.07-0.18v-0.88c-0.38,0.41-0.81,0.73-1.28,0.96s-0.97,0.34-1.5,0.34
		c-0.46,0-0.88-0.06-1.25-0.18s-0.69-0.29-0.96-0.52s-0.47-0.51-0.62-0.84s-0.22-0.71-0.22-1.13c0-0.5,0.1-0.92,0.3-1.29
		s0.49-0.67,0.87-0.91s0.84-0.42,1.39-0.54s1.16-0.18,1.85-0.18h1.21v-0.68c0-0.34-0.04-0.64-0.11-0.9s-0.19-0.48-0.35-0.65
		s-0.37-0.3-0.62-0.39s-0.57-0.13-0.94-0.13c-0.4,0-0.75,0.05-1.07,0.14s-0.59,0.2-0.83,0.31s-0.44,0.22-0.6,0.31
		s-0.28,0.14-0.36,0.14c-0.05,0-0.1-0.01-0.14-0.04s-0.07-0.07-0.1-0.12s-0.05-0.12-0.06-0.2s-0.02-0.17-0.02-0.27
		c0-0.16,0.01-0.29,0.03-0.39s0.08-0.18,0.17-0.27s0.24-0.18,0.45-0.3s0.46-0.22,0.74-0.31s0.59-0.17,0.92-0.23s0.67-0.09,1.01-0.09
		c0.63,0,1.17,0.07,1.61,0.21s0.8,0.35,1.07,0.63s0.47,0.62,0.6,1.03s0.19,0.89,0.19,1.44V341.03z M282.49,337.01h-1.38
		c-0.44,0-0.83,0.04-1.15,0.11s-0.6,0.19-0.81,0.33s-0.37,0.32-0.47,0.53s-0.15,0.44-0.15,0.71c0,0.46,0.14,0.82,0.43,1.09
		s0.7,0.41,1.22,0.41c0.42,0,0.82-0.11,1.18-0.32s0.74-0.54,1.14-0.99V337.01z"/>
	<path class="st3" d="M291.4,340.37c0,0.19-0.01,0.34-0.04,0.45s-0.07,0.19-0.12,0.24s-0.13,0.1-0.23,0.15s-0.22,0.08-0.36,0.11
		s-0.28,0.05-0.42,0.07s-0.3,0.03-0.45,0.03c-0.46,0-0.85-0.06-1.17-0.18s-0.59-0.3-0.8-0.55s-0.36-0.55-0.45-0.93
		s-0.14-0.82-0.14-1.32v-5.14h-1.23c-0.1,0-0.18-0.05-0.23-0.16s-0.09-0.27-0.09-0.51c0-0.12,0.01-0.23,0.02-0.31
		s0.04-0.15,0.06-0.21s0.06-0.09,0.1-0.12s0.09-0.03,0.14-0.03h1.22v-2.09c0-0.05,0.01-0.09,0.03-0.13s0.07-0.07,0.13-0.1
		s0.14-0.05,0.25-0.06s0.23-0.02,0.39-0.02c0.16,0,0.3,0.01,0.4,0.02s0.19,0.03,0.24,0.06s0.1,0.06,0.13,0.1s0.04,0.08,0.04,0.13
		v2.09h2.26c0.05,0,0.1,0.01,0.14,0.03s0.07,0.06,0.1,0.12s0.05,0.13,0.06,0.21s0.02,0.19,0.02,0.31c0,0.23-0.03,0.4-0.09,0.51
		s-0.14,0.16-0.23,0.16h-2.26v4.9c0,0.61,0.09,1.06,0.27,1.37s0.5,0.46,0.96,0.46c0.15,0,0.28-0.01,0.4-0.04s0.22-0.06,0.31-0.09
		s0.17-0.06,0.23-0.09s0.12-0.04,0.18-0.04c0.03,0,0.06,0.01,0.09,0.02s0.05,0.05,0.07,0.09s0.03,0.11,0.04,0.19
		S291.4,340.25,291.4,340.37z"/>
	<path class="st3" d="M300.86,341.02c0,0.05-0.01,0.1-0.04,0.13s-0.07,0.07-0.13,0.09s-0.14,0.05-0.24,0.06s-0.23,0.02-0.39,0.02
		c-0.16,0-0.3-0.01-0.4-0.02s-0.19-0.03-0.24-0.06s-0.1-0.06-0.13-0.09s-0.04-0.08-0.04-0.13v-5.15c0-0.5-0.04-0.91-0.12-1.21
		s-0.19-0.57-0.34-0.79s-0.34-0.39-0.58-0.51s-0.51-0.18-0.83-0.18c-0.4,0-0.81,0.14-1.21,0.43s-0.83,0.71-1.27,1.26v6.14
		c0,0.05-0.01,0.1-0.04,0.13s-0.07,0.07-0.13,0.09s-0.14,0.05-0.24,0.06s-0.24,0.02-0.4,0.02c-0.16,0-0.29-0.01-0.39-0.02
		s-0.19-0.03-0.25-0.06s-0.1-0.06-0.13-0.09s-0.03-0.08-0.03-0.13v-13.05c0-0.05,0.01-0.1,0.03-0.14s0.07-0.07,0.13-0.1
		s0.14-0.05,0.25-0.06s0.23-0.02,0.39-0.02c0.16,0,0.3,0.01,0.4,0.02s0.19,0.03,0.24,0.06s0.1,0.06,0.13,0.1s0.04,0.08,0.04,0.14
		v5.26c0.46-0.49,0.93-0.85,1.4-1.09s0.94-0.36,1.42-0.36c0.59,0,1.08,0.1,1.48,0.3s0.72,0.46,0.97,0.8s0.42,0.72,0.53,1.17
		s0.16,0.98,0.16,1.62V341.02z"/>
	<path class="st3" d="M217.37,370.64c0,0.4-0.05,0.76-0.15,1.1s-0.24,0.64-0.42,0.9s-0.4,0.5-0.66,0.7s-0.55,0.37-0.87,0.51
		s-0.67,0.24-1.04,0.31s-0.79,0.1-1.26,0.1h-3.3c-0.15,0-0.29-0.05-0.42-0.15s-0.2-0.28-0.2-0.53v-11.27c0-0.25,0.07-0.43,0.2-0.53
		s0.27-0.15,0.42-0.15h2.87c0.76,0,1.37,0.07,1.86,0.21s0.88,0.35,1.21,0.63s0.56,0.61,0.73,1.01s0.24,0.85,0.24,1.35
		c0,0.3-0.04,0.59-0.11,0.86s-0.18,0.53-0.32,0.76s-0.32,0.44-0.53,0.62s-0.45,0.33-0.73,0.45c0.35,0.07,0.67,0.18,0.97,0.36
		s0.56,0.39,0.79,0.66s0.4,0.58,0.53,0.94S217.37,370.21,217.37,370.64z M214.84,364.98c0-0.31-0.04-0.58-0.13-0.83
		c-0.08-0.25-0.22-0.46-0.4-0.63c-0.18-0.17-0.42-0.3-0.71-0.4c-0.29-0.09-0.68-0.14-1.16-0.14h-1.73v4.09h1.91
		c0.44,0,0.79-0.06,1.05-0.17c0.27-0.11,0.49-0.27,0.66-0.46c0.18-0.19,0.3-0.42,0.39-0.67
		C214.8,365.52,214.84,365.26,214.84,364.98z M215.6,370.73c0-0.38-0.06-0.71-0.18-1c-0.12-0.29-0.3-0.53-0.53-0.72
		c-0.23-0.2-0.52-0.34-0.87-0.44s-0.78-0.15-1.31-0.15h-2.01v4.45h2.44c0.38,0,0.72-0.05,1-0.14c0.29-0.09,0.54-0.23,0.76-0.41
		c0.22-0.18,0.39-0.4,0.51-0.67C215.54,371.4,215.6,371.09,215.6,370.73z"/>
	<path class="st3" d="M227.21,369.24c0,0.25-0.06,0.43-0.19,0.54s-0.27,0.16-0.44,0.16h-5.79c0,0.49,0.05,0.93,0.15,1.32
		s0.26,0.73,0.49,1.01s0.53,0.5,0.89,0.64s0.81,0.22,1.34,0.22c0.42,0,0.79-0.03,1.12-0.1s0.61-0.14,0.85-0.23s0.44-0.16,0.59-0.23
		s0.27-0.1,0.35-0.1c0.05,0,0.09,0.01,0.12,0.03c0.04,0.02,0.06,0.06,0.08,0.1s0.03,0.11,0.04,0.19s0.01,0.18,0.01,0.3
		c0,0.08,0,0.16-0.01,0.22s-0.01,0.12-0.02,0.17s-0.03,0.09-0.05,0.13s-0.05,0.08-0.09,0.11s-0.14,0.09-0.32,0.18
		s-0.4,0.16-0.68,0.24s-0.6,0.15-0.97,0.21s-0.76,0.09-1.18,0.09c-0.72,0-1.36-0.1-1.9-0.3s-1-0.5-1.37-0.9s-0.65-0.9-0.84-1.49
		s-0.28-1.3-0.28-2.09c0-0.75,0.1-1.43,0.29-2.04s0.48-1.11,0.84-1.53s0.81-0.74,1.33-0.97s1.1-0.34,1.75-0.34
		c0.69,0,1.28,0.11,1.76,0.33s0.88,0.52,1.2,0.89s0.54,0.81,0.69,1.32s0.22,1.04,0.22,1.62V369.24z M225.59,368.76
		c0.02-0.85-0.17-1.51-0.56-1.99c-0.4-0.48-0.98-0.72-1.76-0.72c-0.4,0-0.75,0.08-1.05,0.22s-0.55,0.35-0.76,0.6
		s-0.36,0.54-0.47,0.86s-0.17,0.67-0.19,1.03H225.59z"/>
	<path class="st3" d="M237.04,374.02c0,0.05-0.01,0.1-0.04,0.13s-0.07,0.07-0.13,0.09s-0.14,0.05-0.24,0.06s-0.23,0.02-0.39,0.02
		c-0.16,0-0.3-0.01-0.4-0.02s-0.19-0.03-0.24-0.06s-0.1-0.06-0.13-0.09s-0.04-0.08-0.04-0.13v-5.15c0-0.5-0.04-0.91-0.12-1.21
		s-0.19-0.57-0.34-0.79s-0.34-0.39-0.58-0.51s-0.51-0.18-0.83-0.18c-0.4,0-0.81,0.14-1.21,0.43s-0.83,0.71-1.27,1.26v6.14
		c0,0.05-0.01,0.1-0.04,0.13s-0.07,0.07-0.13,0.09s-0.14,0.05-0.24,0.06s-0.24,0.02-0.4,0.02c-0.16,0-0.29-0.01-0.39-0.02
		s-0.19-0.03-0.25-0.06s-0.1-0.06-0.13-0.09s-0.03-0.08-0.03-0.13v-8.79c0-0.05,0.01-0.1,0.03-0.13s0.06-0.07,0.12-0.1
		s0.13-0.05,0.22-0.06s0.21-0.01,0.36-0.01c0.14,0,0.26,0,0.36,0.01s0.17,0.03,0.22,0.06s0.09,0.06,0.11,0.1s0.03,0.08,0.03,0.13
		v1.16c0.49-0.55,0.99-0.96,1.48-1.22s0.99-0.39,1.49-0.39c0.59,0,1.08,0.1,1.48,0.3s0.72,0.46,0.97,0.8s0.42,0.72,0.53,1.17
		s0.16,0.98,0.16,1.61V374.02z"/>
	<path class="st3" d="M246.15,372.68c0,0.11,0,0.21-0.01,0.29s-0.02,0.15-0.03,0.21s-0.04,0.1-0.06,0.15s-0.07,0.1-0.16,0.19
		s-0.22,0.18-0.42,0.3s-0.42,0.23-0.66,0.32s-0.51,0.17-0.8,0.23s-0.58,0.09-0.89,0.09c-0.63,0-1.19-0.1-1.68-0.31
		s-0.9-0.51-1.23-0.91s-0.58-0.89-0.75-1.47s-0.26-1.25-0.26-2.02c0-0.87,0.11-1.61,0.32-2.23s0.5-1.13,0.87-1.53s0.8-0.69,1.3-0.88
		s1.04-0.29,1.62-0.29c0.28,0,0.55,0.03,0.82,0.08s0.51,0.12,0.73,0.21s0.42,0.18,0.59,0.29s0.3,0.21,0.38,0.28s0.13,0.14,0.16,0.19
		s0.05,0.1,0.07,0.16s0.03,0.13,0.04,0.21s0.01,0.18,0.01,0.29c0,0.25-0.03,0.43-0.09,0.53s-0.13,0.15-0.21,0.15
		c-0.1,0-0.21-0.05-0.34-0.16s-0.29-0.23-0.48-0.36s-0.43-0.25-0.71-0.36s-0.6-0.16-0.98-0.16c-0.77,0-1.37,0.3-1.78,0.89
		s-0.62,1.46-0.62,2.59c0,0.57,0.05,1.06,0.16,1.49s0.27,0.78,0.47,1.07s0.46,0.5,0.77,0.64s0.65,0.21,1.04,0.21
		c0.37,0,0.7-0.06,0.98-0.18s0.52-0.25,0.73-0.39s0.38-0.27,0.52-0.38s0.25-0.17,0.33-0.17c0.05,0,0.08,0.01,0.12,0.04
		s0.06,0.07,0.08,0.13s0.04,0.14,0.05,0.23S246.15,372.55,246.15,372.68z"/>
	<path class="st3" d="M255.8,374.02c0,0.05-0.01,0.1-0.04,0.13s-0.07,0.07-0.13,0.09s-0.14,0.05-0.24,0.06s-0.23,0.02-0.39,0.02
		c-0.16,0-0.3-0.01-0.4-0.02s-0.19-0.03-0.24-0.06s-0.1-0.06-0.13-0.09s-0.04-0.08-0.04-0.13v-5.15c0-0.5-0.04-0.91-0.12-1.21
		s-0.19-0.57-0.34-0.79s-0.34-0.39-0.58-0.51s-0.51-0.18-0.83-0.18c-0.4,0-0.81,0.14-1.21,0.43c-0.4,0.29-0.83,0.71-1.27,1.26v6.14
		c0,0.05-0.01,0.1-0.04,0.13s-0.07,0.07-0.13,0.09s-0.14,0.05-0.24,0.06s-0.24,0.02-0.4,0.02c-0.16,0-0.29-0.01-0.39-0.02
		s-0.19-0.03-0.25-0.06s-0.1-0.06-0.13-0.09s-0.03-0.08-0.03-0.13v-13.05c0-0.05,0.01-0.1,0.03-0.14s0.06-0.07,0.13-0.1
		s0.15-0.05,0.25-0.06s0.23-0.02,0.39-0.02c0.16,0,0.3,0.01,0.4,0.02s0.19,0.03,0.24,0.06s0.1,0.06,0.13,0.1s0.04,0.08,0.04,0.14
		v5.26c0.46-0.49,0.93-0.85,1.4-1.09c0.47-0.24,0.94-0.36,1.42-0.36c0.59,0,1.08,0.1,1.48,0.3s0.72,0.46,0.97,0.8
		s0.42,0.72,0.53,1.17s0.16,0.98,0.16,1.62V374.02z"/>
	<path class="st3" d="M271.55,374.02c0,0.05-0.01,0.1-0.04,0.13s-0.07,0.07-0.13,0.09s-0.14,0.05-0.24,0.06s-0.23,0.02-0.39,0.02
		c-0.16,0-0.3-0.01-0.4-0.02s-0.19-0.03-0.25-0.06s-0.11-0.06-0.13-0.09s-0.04-0.08-0.04-0.13v-5.34c0-0.37-0.03-0.71-0.1-1.02
		s-0.17-0.57-0.31-0.79s-0.33-0.39-0.55-0.51s-0.48-0.18-0.78-0.18c-0.37,0-0.74,0.14-1.12,0.43s-0.79,0.71-1.24,1.26v6.14
		c0,0.05-0.01,0.1-0.04,0.13s-0.07,0.07-0.13,0.09s-0.14,0.05-0.25,0.06s-0.23,0.02-0.39,0.02c-0.15,0-0.28-0.01-0.39-0.02
		s-0.19-0.03-0.25-0.06s-0.1-0.06-0.13-0.09s-0.03-0.08-0.03-0.13v-5.34c0-0.37-0.04-0.71-0.11-1.02s-0.18-0.57-0.32-0.79
		s-0.32-0.39-0.54-0.51s-0.48-0.18-0.78-0.18c-0.37,0-0.75,0.14-1.12,0.43s-0.79,0.71-1.23,1.26v6.14c0,0.05-0.01,0.1-0.04,0.13
		s-0.07,0.07-0.13,0.09s-0.14,0.05-0.24,0.06s-0.24,0.02-0.4,0.02c-0.16,0-0.29-0.01-0.39-0.02s-0.19-0.03-0.25-0.06
		s-0.1-0.06-0.13-0.09s-0.03-0.08-0.03-0.13v-8.79c0-0.05,0.01-0.1,0.03-0.13s0.06-0.07,0.12-0.1s0.13-0.05,0.22-0.06
		s0.21-0.01,0.36-0.01c0.14,0,0.26,0,0.36,0.01s0.17,0.03,0.22,0.06s0.09,0.06,0.11,0.1s0.03,0.08,0.03,0.13v1.16
		c0.5-0.55,0.97-0.96,1.44-1.22s0.94-0.39,1.41-0.39c0.36,0,0.69,0.04,0.98,0.13s0.54,0.2,0.77,0.36s0.41,0.33,0.57,0.55
		s0.29,0.45,0.39,0.71c0.29-0.32,0.57-0.59,0.83-0.81s0.52-0.4,0.76-0.54s0.48-0.24,0.71-0.3s0.46-0.09,0.7-0.09
		c0.57,0,1.04,0.1,1.43,0.3s0.7,0.46,0.93,0.8s0.41,0.72,0.51,1.17s0.15,0.92,0.15,1.41V374.02z"/>
	<path class="st3" d="M280.84,374.03c0,0.08-0.03,0.14-0.08,0.18s-0.12,0.07-0.21,0.09s-0.22,0.03-0.4,0.03
		c-0.17,0-0.3-0.01-0.41-0.03s-0.17-0.05-0.22-0.09s-0.07-0.1-0.07-0.18v-0.88c-0.38,0.41-0.81,0.73-1.28,0.96s-0.97,0.34-1.5,0.34
		c-0.46,0-0.88-0.06-1.25-0.18s-0.69-0.29-0.96-0.52s-0.47-0.51-0.62-0.84s-0.22-0.71-0.22-1.13c0-0.5,0.1-0.92,0.3-1.29
		s0.49-0.67,0.87-0.91s0.84-0.42,1.39-0.54s1.16-0.18,1.85-0.18h1.21v-0.68c0-0.34-0.04-0.64-0.11-0.9s-0.19-0.48-0.35-0.65
		s-0.37-0.3-0.62-0.39s-0.57-0.13-0.94-0.13c-0.4,0-0.75,0.05-1.07,0.14s-0.59,0.2-0.83,0.31s-0.44,0.22-0.6,0.31
		s-0.28,0.14-0.36,0.14c-0.05,0-0.1-0.01-0.14-0.04s-0.07-0.07-0.1-0.12s-0.05-0.12-0.06-0.2s-0.02-0.17-0.02-0.27
		c0-0.16,0.01-0.29,0.03-0.39s0.08-0.18,0.17-0.27s0.24-0.18,0.45-0.3s0.46-0.22,0.74-0.31s0.59-0.17,0.92-0.23s0.67-0.09,1.01-0.09
		c0.63,0,1.17,0.07,1.61,0.21s0.8,0.35,1.07,0.63s0.47,0.62,0.6,1.03s0.19,0.89,0.19,1.44V374.03z M279.24,370.01h-1.38
		c-0.44,0-0.83,0.04-1.15,0.11s-0.6,0.19-0.81,0.33s-0.37,0.32-0.47,0.53s-0.15,0.44-0.15,0.71c0,0.46,0.14,0.82,0.43,1.09
		s0.7,0.41,1.22,0.41c0.42,0,0.82-0.11,1.18-0.32s0.74-0.54,1.14-0.99V370.01z"/>
	<path class="st3" d="M288.71,365.8c0,0.14,0,0.26-0.01,0.36s-0.02,0.17-0.04,0.23s-0.04,0.1-0.07,0.13s-0.07,0.04-0.12,0.04
		s-0.12-0.01-0.19-0.04s-0.16-0.06-0.25-0.09s-0.2-0.06-0.32-0.08s-0.24-0.04-0.38-0.04c-0.16,0-0.32,0.03-0.48,0.1
		s-0.32,0.17-0.49,0.32s-0.35,0.35-0.54,0.6s-0.4,0.55-0.63,0.91v5.78c0,0.05-0.01,0.1-0.04,0.13s-0.07,0.07-0.13,0.09
		s-0.14,0.05-0.24,0.06s-0.24,0.02-0.4,0.02c-0.16,0-0.29-0.01-0.39-0.02s-0.19-0.03-0.25-0.06s-0.1-0.06-0.13-0.09
		s-0.03-0.08-0.03-0.13v-8.79c0-0.05,0.01-0.1,0.03-0.13s0.06-0.07,0.12-0.1s0.13-0.05,0.22-0.06s0.21-0.01,0.36-0.01
		c0.14,0,0.26,0,0.36,0.01s0.17,0.03,0.22,0.06s0.09,0.06,0.11,0.1s0.03,0.08,0.03,0.13v1.28c0.24-0.35,0.47-0.64,0.68-0.86
		s0.41-0.4,0.6-0.52s0.38-0.21,0.56-0.26s0.37-0.07,0.56-0.07c0.08,0,0.18,0,0.29,0.01s0.22,0.03,0.34,0.05s0.22,0.06,0.32,0.09
		s0.16,0.07,0.2,0.1s0.07,0.06,0.08,0.09s0.02,0.07,0.03,0.11s0.02,0.11,0.02,0.2S288.71,365.65,288.71,365.8z"/>
	<path class="st3" d="M297.67,374.01c0,0.05-0.01,0.1-0.04,0.14s-0.07,0.07-0.13,0.1s-0.15,0.05-0.26,0.06s-0.25,0.02-0.42,0.02
		c-0.18,0-0.32,0-0.43-0.01s-0.21-0.03-0.29-0.05s-0.14-0.06-0.19-0.1s-0.09-0.09-0.13-0.15l-3.71-4.86v4.87
		c0,0.05-0.01,0.1-0.04,0.13s-0.07,0.07-0.13,0.09s-0.14,0.05-0.24,0.06s-0.24,0.02-0.4,0.02c-0.16,0-0.29-0.01-0.39-0.02
		s-0.19-0.03-0.25-0.06s-0.1-0.06-0.13-0.09s-0.03-0.08-0.03-0.13v-13.05c0-0.05,0.01-0.1,0.03-0.14s0.07-0.07,0.13-0.1
		s0.14-0.05,0.25-0.06s0.23-0.02,0.39-0.02c0.16,0,0.3,0.01,0.4,0.02s0.19,0.03,0.24,0.06s0.1,0.06,0.13,0.1s0.04,0.08,0.04,0.14
		v7.95l3.32-3.65c0.05-0.07,0.11-0.12,0.17-0.16s0.13-0.08,0.21-0.11s0.18-0.05,0.29-0.06s0.24-0.01,0.4-0.01
		c0.16,0,0.3,0,0.41,0.01s0.2,0.03,0.27,0.05s0.12,0.05,0.15,0.09s0.04,0.08,0.04,0.14c0,0.08-0.02,0.16-0.06,0.23
		s-0.11,0.17-0.21,0.27l-3.18,3.18l3.57,4.64c0.08,0.11,0.14,0.2,0.18,0.27S297.67,373.95,297.67,374.01z"/>
</g>
<circle class="st0" cx="408.79" cy="90.22" r="89.73"/>
<g>
	<path class="st1" d="M367.07,90.97c0,1.26-0.16,2.38-0.47,3.38s-0.78,1.83-1.39,2.53s-1.38,1.22-2.29,1.58S360.96,99,359.76,99
		c-1.18,0-2.21-0.15-3.09-0.46s-1.61-0.78-2.2-1.41s-1.03-1.44-1.32-2.41s-0.44-2.13-0.44-3.47c0-1.23,0.16-2.33,0.47-3.31
		s0.78-1.81,1.39-2.5s1.38-1.21,2.29-1.58s1.97-0.55,3.17-0.55c1.15,0,2.16,0.15,3.04,0.46s1.61,0.77,2.2,1.41s1.04,1.43,1.34,2.4
		S367.07,89.66,367.07,90.97z M363.84,91.14c0-0.8-0.06-1.52-0.19-2.17s-0.34-1.21-0.64-1.68s-0.7-0.82-1.2-1.08
		s-1.13-0.38-1.88-0.38c-0.76,0-1.39,0.14-1.9,0.43s-0.92,0.67-1.23,1.14s-0.53,1.03-0.66,1.67s-0.19,1.31-0.19,2.02
		c0,0.83,0.06,1.57,0.19,2.23s0.34,1.22,0.63,1.69s0.7,0.83,1.2,1.07s1.13,0.37,1.89,0.37s1.39-0.14,1.9-0.42s0.92-0.66,1.23-1.15
		s0.53-1.05,0.66-1.69S363.84,91.86,363.84,91.14z"/>
	<path class="st1" d="M380.01,92.96c0,0.93-0.1,1.77-0.3,2.51s-0.5,1.38-0.88,1.9s-0.85,0.93-1.41,1.21s-1.19,0.42-1.9,0.42
		c-0.35,0-0.68-0.03-0.98-0.1s-0.6-0.17-0.87-0.32s-0.55-0.34-0.82-0.56s-0.54-0.5-0.83-0.82v1.14c0,0.09-0.02,0.16-0.06,0.22
		s-0.11,0.11-0.21,0.15s-0.23,0.07-0.39,0.08s-0.36,0.02-0.6,0.02c-0.24,0-0.44-0.01-0.6-0.02s-0.29-0.04-0.39-0.08
		s-0.17-0.09-0.21-0.15s-0.06-0.13-0.06-0.22V82.92c0-0.08,0.02-0.15,0.07-0.21s0.13-0.12,0.24-0.16s0.26-0.08,0.45-0.1
		s0.43-0.04,0.71-0.04s0.53,0.01,0.71,0.04s0.34,0.06,0.45,0.1s0.19,0.1,0.24,0.16s0.07,0.13,0.07,0.21v5.78
		c0.27-0.27,0.53-0.49,0.8-0.68s0.53-0.34,0.8-0.46s0.54-0.21,0.82-0.26s0.58-0.08,0.89-0.08c0.77,0,1.43,0.15,1.97,0.46
		s0.98,0.72,1.32,1.25s0.59,1.13,0.74,1.83S380.01,92.19,380.01,92.96z M376.95,93.17c0-0.45-0.03-0.88-0.1-1.29
		s-0.18-0.78-0.35-1.1s-0.38-0.58-0.64-0.77s-0.59-0.29-0.99-0.29c-0.2,0-0.39,0.03-0.57,0.08s-0.38,0.15-0.58,0.28
		s-0.4,0.3-0.62,0.52s-0.43,0.47-0.67,0.79v3.47c0.41,0.53,0.81,0.94,1.19,1.21s0.78,0.42,1.19,0.42c0.38,0,0.71-0.1,0.97-0.29
		s0.49-0.45,0.66-0.76s0.3-0.67,0.38-1.07S376.95,93.57,376.95,93.17z"/>
	<path class="st1" d="M389.61,95.38c0,0.59-0.11,1.12-0.33,1.57s-0.54,0.83-0.94,1.14s-0.89,0.53-1.44,0.69s-1.16,0.23-1.8,0.23
		c-0.39,0-0.76-0.03-1.12-0.09s-0.67-0.13-0.96-0.22s-0.52-0.18-0.7-0.28s-0.32-0.18-0.41-0.26s-0.15-0.21-0.2-0.39
		s-0.07-0.44-0.07-0.78c0-0.23,0.01-0.41,0.02-0.54s0.04-0.25,0.07-0.33s0.07-0.14,0.12-0.16s0.11-0.04,0.18-0.04
		c0.09,0,0.21,0.05,0.38,0.15s0.38,0.21,0.63,0.32s0.54,0.23,0.87,0.33s0.71,0.15,1.13,0.15c0.27,0,0.5-0.03,0.71-0.08
		s0.39-0.13,0.54-0.23s0.27-0.23,0.35-0.39s0.12-0.34,0.12-0.54c0-0.23-0.07-0.44-0.22-0.6s-0.34-0.31-0.57-0.44
		s-0.51-0.24-0.81-0.35s-0.61-0.23-0.93-0.36s-0.63-0.29-0.93-0.46s-0.57-0.38-0.81-0.63s-0.43-0.55-0.57-0.9s-0.22-0.77-0.22-1.27
		c0-0.5,0.1-0.96,0.29-1.38s0.48-0.78,0.84-1.07s0.81-0.53,1.34-0.69s1.12-0.25,1.78-0.25c0.33,0,0.65,0.02,0.96,0.07
		s0.59,0.11,0.84,0.18s0.46,0.15,0.63,0.23s0.29,0.15,0.37,0.21s0.13,0.12,0.16,0.18s0.05,0.13,0.07,0.21s0.03,0.18,0.04,0.3
		s0.02,0.27,0.02,0.45c0,0.21-0.01,0.38-0.02,0.52s-0.03,0.24-0.06,0.32s-0.06,0.13-0.11,0.16s-0.1,0.04-0.16,0.04
		c-0.07,0-0.18-0.04-0.33-0.12s-0.33-0.17-0.56-0.26s-0.48-0.18-0.77-0.26s-0.63-0.12-1-0.12c-0.27,0-0.5,0.03-0.69,0.08
		s-0.36,0.13-0.48,0.23s-0.22,0.22-0.28,0.36s-0.09,0.28-0.09,0.44c0,0.24,0.07,0.45,0.22,0.61s0.34,0.31,0.59,0.43
		s0.52,0.24,0.83,0.35s0.62,0.23,0.94,0.36s0.63,0.28,0.94,0.45s0.58,0.38,0.83,0.63s0.44,0.55,0.59,0.9S389.61,94.9,389.61,95.38z"
		/>
	<path class="st1" d="M401.48,92.8c0,0.36-0.08,0.63-0.24,0.8s-0.38,0.26-0.66,0.26h-6.36c0,0.45,0.05,0.85,0.16,1.21
		s0.27,0.67,0.5,0.93s0.53,0.45,0.89,0.58s0.8,0.2,1.31,0.2c0.52,0,0.97-0.04,1.36-0.11s0.73-0.16,1.01-0.25s0.52-0.17,0.71-0.25
		s0.34-0.11,0.46-0.11c0.07,0,0.13,0.01,0.18,0.04s0.09,0.08,0.12,0.15s0.05,0.17,0.06,0.3s0.02,0.29,0.02,0.49
		c0,0.17,0,0.32-0.01,0.44s-0.02,0.22-0.04,0.31s-0.04,0.16-0.07,0.22s-0.07,0.12-0.12,0.17s-0.19,0.13-0.42,0.22
		s-0.52,0.19-0.87,0.28s-0.75,0.17-1.21,0.23s-0.94,0.1-1.45,0.1c-0.93,0-1.74-0.12-2.44-0.35s-1.28-0.59-1.75-1.07
		s-0.82-1.08-1.05-1.8s-0.35-1.58-0.35-2.55c0-0.93,0.12-1.77,0.36-2.51s0.59-1.38,1.05-1.9s1.02-0.92,1.68-1.19s1.4-0.41,2.23-0.41
		c0.88,0,1.62,0.13,2.24,0.39s1.13,0.62,1.53,1.07s0.69,1,0.88,1.62s0.28,1.3,0.28,2.04V92.8z M398.62,91.96
		c0.02-0.83-0.14-1.48-0.5-1.95s-0.9-0.71-1.65-0.71c-0.38,0-0.7,0.07-0.98,0.21s-0.51,0.33-0.69,0.57s-0.32,0.52-0.42,0.84
		s-0.15,0.67-0.17,1.04H398.62z"/>
	<path class="st1" d="M410.62,88.85c0,0.28-0.01,0.51-0.02,0.69s-0.04,0.32-0.07,0.42s-0.07,0.17-0.12,0.21s-0.12,0.06-0.19,0.06
		c-0.06,0-0.13-0.01-0.21-0.04s-0.17-0.06-0.26-0.09s-0.21-0.06-0.32-0.09s-0.25-0.04-0.39-0.04c-0.16,0-0.33,0.03-0.49,0.1
		s-0.33,0.17-0.51,0.31s-0.36,0.33-0.55,0.56s-0.4,0.52-0.62,0.87v6.52c0,0.08-0.02,0.15-0.07,0.21s-0.13,0.11-0.24,0.15
		s-0.26,0.07-0.45,0.09s-0.43,0.03-0.71,0.03s-0.53-0.01-0.71-0.03s-0.34-0.05-0.45-0.09s-0.19-0.09-0.24-0.15s-0.07-0.13-0.07-0.21
		V87.88c0-0.08,0.02-0.15,0.06-0.21s0.11-0.11,0.21-0.15s0.23-0.07,0.39-0.09s0.36-0.03,0.6-0.03c0.25,0,0.46,0.01,0.62,0.03
		s0.29,0.05,0.38,0.09s0.15,0.09,0.19,0.15s0.06,0.13,0.06,0.21v1.3c0.27-0.39,0.53-0.71,0.77-0.97s0.47-0.46,0.69-0.6
		s0.44-0.25,0.66-0.31s0.44-0.09,0.66-0.09c0.1,0,0.21,0.01,0.33,0.02s0.24,0.03,0.36,0.06s0.23,0.06,0.33,0.09s0.16,0.07,0.21,0.11
		s0.07,0.08,0.09,0.13s0.04,0.11,0.05,0.19s0.03,0.21,0.04,0.37S410.62,88.57,410.62,88.85z"/>
	<path class="st1" d="M422.27,87.87c0,0.04,0,0.09-0.01,0.14s-0.01,0.12-0.02,0.18s-0.03,0.14-0.05,0.23s-0.04,0.18-0.08,0.29
		l-3.14,9.46c-0.04,0.13-0.09,0.24-0.16,0.32s-0.18,0.15-0.33,0.19s-0.36,0.08-0.62,0.09s-0.6,0.02-1.03,0.02
		c-0.41,0-0.75-0.01-1.01-0.03s-0.47-0.05-0.62-0.1s-0.26-0.11-0.32-0.19s-0.12-0.19-0.16-0.31l-3.14-9.46
		c-0.05-0.16-0.08-0.3-0.11-0.42s-0.04-0.21-0.05-0.27s-0.01-0.11-0.01-0.15c0-0.08,0.02-0.15,0.06-0.21s0.12-0.11,0.23-0.15
		s0.26-0.07,0.45-0.08s0.43-0.02,0.72-0.02c0.32,0,0.58,0.01,0.77,0.03s0.35,0.05,0.46,0.08s0.19,0.09,0.24,0.15
		s0.09,0.15,0.12,0.24l2.38,7.68l0.07,0.29l0.07-0.29l2.34-7.68c0.02-0.09,0.06-0.17,0.11-0.24s0.13-0.12,0.24-0.15
		s0.26-0.06,0.44-0.08s0.42-0.03,0.72-0.03c0.29,0,0.53,0.01,0.71,0.02s0.33,0.04,0.43,0.08s0.17,0.09,0.21,0.15
		S422.27,87.79,422.27,87.87z"/>
	<path class="st1" d="M432.56,98.37c0,0.11-0.04,0.2-0.12,0.26s-0.2,0.11-0.37,0.13s-0.42,0.04-0.74,0.04
		c-0.35,0-0.61-0.01-0.77-0.04s-0.27-0.07-0.34-0.13s-0.1-0.15-0.1-0.26v-0.83c-0.43,0.46-0.92,0.82-1.47,1.08S427.49,99,426.81,99
		c-0.55,0-1.06-0.07-1.53-0.22s-0.87-0.36-1.21-0.64s-0.6-0.64-0.79-1.06s-0.28-0.91-0.28-1.48c0-0.61,0.12-1.14,0.36-1.59
		s0.59-0.82,1.07-1.11s1.06-0.51,1.76-0.65s1.52-0.21,2.45-0.21h1.02V91.4c0-0.33-0.03-0.62-0.1-0.86s-0.18-0.45-0.33-0.62
		s-0.36-0.29-0.61-0.36s-0.57-0.12-0.94-0.12c-0.49,0-0.93,0.05-1.32,0.16s-0.73,0.23-1.03,0.36s-0.54,0.25-0.74,0.36
		s-0.36,0.16-0.49,0.16c-0.09,0-0.16-0.03-0.23-0.08s-0.12-0.13-0.16-0.23s-0.08-0.23-0.1-0.38s-0.04-0.31-0.04-0.49
		c0-0.24,0.02-0.43,0.06-0.57s0.11-0.27,0.22-0.38s0.3-0.24,0.57-0.38s0.59-0.26,0.96-0.38s0.77-0.21,1.2-0.29s0.88-0.11,1.34-0.11
		c0.82,0,1.52,0.08,2.1,0.24s1.06,0.41,1.44,0.74s0.65,0.76,0.82,1.28s0.26,1.14,0.26,1.86V98.37z M429.66,93.89h-1.13
		c-0.48,0-0.88,0.04-1.22,0.11s-0.61,0.18-0.82,0.32s-0.37,0.31-0.46,0.51s-0.15,0.43-0.15,0.69c0,0.44,0.14,0.78,0.42,1.03
		s0.66,0.38,1.15,0.38c0.41,0,0.79-0.11,1.14-0.32s0.7-0.52,1.06-0.93V93.89z"/>
	<path class="st1" d="M443.41,96.67c0,0.2-0.01,0.37-0.02,0.51s-0.03,0.25-0.05,0.35s-0.04,0.17-0.07,0.23s-0.09,0.13-0.18,0.22
		s-0.26,0.2-0.49,0.33s-0.51,0.26-0.84,0.37s-0.67,0.19-1.04,0.24l0.26,0.59c0.14,0.3,0.24,0.57,0.3,0.8s0.09,0.45,0.09,0.66
		c0,0.36-0.06,0.67-0.19,0.93s-0.31,0.47-0.54,0.63s-0.5,0.29-0.8,0.37s-0.63,0.12-0.98,0.12c-0.34,0-0.66-0.02-0.96-0.07
		s-0.54-0.1-0.73-0.15s-0.33-0.1-0.42-0.14s-0.14-0.09-0.17-0.15s-0.05-0.14-0.07-0.24s-0.02-0.23-0.02-0.4
		c0-0.31,0.03-0.53,0.09-0.65s0.17-0.18,0.32-0.18h1.36c0.23,0,0.39-0.05,0.5-0.15s0.16-0.23,0.16-0.4c0-0.09-0.02-0.2-0.05-0.32
		s-0.08-0.24-0.13-0.36l-0.46-1c-0.77-0.2-1.4-0.54-1.91-1.03s-0.89-1.11-1.14-1.85s-0.38-1.62-0.38-2.61
		c0-1.05,0.13-1.95,0.39-2.71s0.63-1.39,1.1-1.89s1.02-0.87,1.66-1.11s1.34-0.36,2.11-0.36c0.31,0,0.62,0.03,0.92,0.08
		s0.58,0.13,0.84,0.22s0.5,0.2,0.7,0.32s0.35,0.22,0.44,0.3s0.15,0.16,0.18,0.22s0.06,0.13,0.08,0.23s0.04,0.21,0.05,0.35
		s0.02,0.3,0.02,0.5c0,0.45-0.04,0.77-0.12,0.96s-0.18,0.28-0.3,0.28c-0.13,0-0.27-0.05-0.42-0.16s-0.32-0.23-0.53-0.36
		s-0.45-0.25-0.73-0.36s-0.62-0.16-1.01-0.16c-0.77,0-1.35,0.29-1.76,0.88s-0.61,1.46-0.61,2.6c0,0.56,0.05,1.06,0.15,1.49
		s0.25,0.79,0.45,1.08s0.45,0.51,0.75,0.65s0.65,0.22,1.05,0.22c0.41,0,0.76-0.06,1.05-0.18s0.55-0.26,0.77-0.4s0.4-0.28,0.55-0.4
		s0.27-0.18,0.38-0.18c0.07,0,0.13,0.02,0.18,0.06s0.08,0.11,0.11,0.22s0.05,0.24,0.06,0.4S443.41,96.41,443.41,96.67z"/>
	<path class="st1" d="M454.31,98.37c0,0.11-0.04,0.2-0.12,0.26s-0.2,0.11-0.37,0.13s-0.42,0.04-0.74,0.04
		c-0.35,0-0.61-0.01-0.77-0.04s-0.27-0.07-0.34-0.13s-0.1-0.15-0.1-0.26v-0.83c-0.43,0.46-0.92,0.82-1.47,1.08S449.24,99,448.56,99
		c-0.55,0-1.06-0.07-1.53-0.22s-0.87-0.36-1.21-0.64s-0.6-0.64-0.79-1.06s-0.28-0.91-0.28-1.48c0-0.61,0.12-1.14,0.36-1.59
		s0.59-0.82,1.07-1.11s1.06-0.51,1.76-0.65s1.52-0.21,2.45-0.21h1.02V91.4c0-0.33-0.03-0.62-0.1-0.86s-0.18-0.45-0.33-0.62
		s-0.36-0.29-0.61-0.36s-0.57-0.12-0.94-0.12c-0.49,0-0.93,0.05-1.32,0.16s-0.73,0.23-1.03,0.36s-0.54,0.25-0.74,0.36
		s-0.36,0.16-0.49,0.16c-0.09,0-0.16-0.03-0.23-0.08s-0.12-0.13-0.16-0.23s-0.08-0.23-0.1-0.38s-0.04-0.31-0.04-0.49
		c0-0.24,0.02-0.43,0.06-0.57s0.11-0.27,0.22-0.38s0.3-0.24,0.57-0.38s0.59-0.26,0.96-0.38s0.77-0.21,1.2-0.29s0.88-0.11,1.34-0.11
		c0.82,0,1.52,0.08,2.1,0.24s1.06,0.41,1.44,0.74s0.65,0.76,0.82,1.28s0.26,1.14,0.26,1.86V98.37z M454.06,83.07
		c0,0.95-0.22,1.67-0.67,2.17S452.31,86,451.52,86c-0.3,0-0.57-0.03-0.81-0.09s-0.45-0.14-0.63-0.25s-0.36-0.21-0.51-0.32
		s-0.3-0.22-0.44-0.32s-0.28-0.18-0.42-0.25s-0.28-0.1-0.44-0.1c-0.26,0-0.44,0.09-0.55,0.28s-0.16,0.42-0.16,0.72
		c0,0.07-0.01,0.13-0.04,0.17s-0.07,0.08-0.14,0.1s-0.16,0.04-0.28,0.05S446.82,86,446.63,86c-0.16,0-0.3-0.01-0.42-0.02
		s-0.2-0.04-0.27-0.07s-0.12-0.08-0.15-0.15s-0.05-0.14-0.05-0.25c0-0.91,0.22-1.62,0.66-2.14s1.06-0.78,1.88-0.78
		c0.45,0,0.82,0.07,1.13,0.21s0.58,0.29,0.82,0.46s0.46,0.32,0.66,0.46s0.41,0.21,0.63,0.21c0.23,0,0.41-0.08,0.54-0.25
		s0.19-0.42,0.19-0.74c0-0.13,0.06-0.22,0.18-0.26s0.36-0.06,0.71-0.06c0.35,0,0.59,0.03,0.72,0.09S454.06,82.88,454.06,83.07z
		 M451.41,93.89h-1.13c-0.48,0-0.88,0.04-1.22,0.11s-0.61,0.18-0.82,0.32s-0.37,0.31-0.46,0.51s-0.15,0.43-0.15,0.69
		c0,0.44,0.14,0.78,0.42,1.03s0.66,0.38,1.15,0.38c0.41,0,0.79-0.11,1.14-0.32s0.7-0.52,1.06-0.93V93.89z"/>
	<path class="st1" d="M467.82,93c0,0.89-0.12,1.7-0.35,2.44s-0.59,1.37-1.07,1.9s-1.07,0.94-1.79,1.23S463.05,99,462.09,99
		c-0.93,0-1.74-0.13-2.43-0.39s-1.26-0.63-1.71-1.13s-0.79-1.1-1.01-1.82s-0.33-1.54-0.33-2.46c0-0.89,0.12-1.71,0.36-2.44
		s0.6-1.37,1.07-1.9s1.07-0.94,1.79-1.22s1.55-0.43,2.51-0.43c0.94,0,1.75,0.13,2.44,0.38s1.26,0.63,1.71,1.12s0.78,1.1,1,1.82
		S467.82,92.07,467.82,93z M464.78,93.12c0-0.52-0.04-0.99-0.12-1.42s-0.22-0.81-0.42-1.13s-0.46-0.57-0.78-0.75
		s-0.73-0.27-1.22-0.27c-0.44,0-0.82,0.08-1.15,0.24s-0.6,0.39-0.81,0.7s-0.37,0.68-0.47,1.11s-0.16,0.93-0.16,1.48
		c0,0.52,0.04,0.99,0.13,1.42s0.22,0.81,0.42,1.13s0.45,0.57,0.78,0.74s0.73,0.26,1.22,0.26c0.45,0,0.83-0.08,1.16-0.24
		s0.6-0.39,0.81-0.7s0.37-0.67,0.47-1.11S464.78,93.67,464.78,93.12z"/>
</g>
<g>
	<polyline class="st4" points="416.49,195.92 416.49,230.56 173.82,230.56 83.51,230.56 83.51,195.92 	"/>
	<line class="st4" x1="255.29" y1="229.88" x2="255.29" y2="248.76"/>
</g>
</svg>
