<?xml version="1.0" encoding="utf-8"?>
<!-- Generator: Adobe Illustrator 24.3.0, SVG Export Plug-In . SVG Version: 6.00 Build 0)  -->
<svg version="1.1" id="Camada_1" xmlns="http://www.w3.org/2000/svg" xmlns:xlink="http://www.w3.org/1999/xlink" x="0px" y="0px"
	 viewBox="0 0 500 425.8" style="enable-background:new 0 0 500 425.8;" xml:space="preserve">
<style type="text/css">
	.st0{fill:none;stroke:#BAC3C9;stroke-miterlimit:10;}
	.st1{fill:#FBBF6D;}
	.st2{fill:#128360;}
	.st3{fill:#7C7C7C;}
	.st4{fill:#FFFFFF;}
</style>
<g>
	<polyline class="st0" points="416.5,195.9 416.5,230.6 173.8,230.6 83.5,230.6 83.5,195.9 	"/>
	<line class="st0" x1="255.3" y1="229.9" x2="255.3" y2="248.8"/>
</g>
<circle class="st1" cx="92.7" cy="90.2" r="89.7"/>
<g>
	<g>
		<path class="st2" d="M213.4,206.3c0,1.8-0.2,3.3-0.7,4.5c-0.5,1.3-1.1,2.3-2,3.1s-1.9,1.4-3.2,1.8s-2.7,0.6-4.4,0.6h-4.6
			c-0.3,0-0.6-0.1-0.8-0.3c-0.2-0.2-0.3-0.5-0.3-0.9v-16.8c0-0.4,0.1-0.8,0.3-0.9c0.2-0.2,0.5-0.3,0.8-0.3h4.9
			c1.7,0,3.2,0.2,4.4,0.6c1.2,0.4,2.2,1,3,1.8c0.8,0.8,1.4,1.8,1.9,2.9C213.2,203.4,213.4,204.8,213.4,206.3z M209.4,206.4
			c0-0.9-0.1-1.8-0.3-2.6c-0.2-0.8-0.6-1.5-1-2c-0.5-0.6-1.1-1-1.8-1.4s-1.7-0.5-2.9-0.5h-2v13.1h2c1.1,0,2-0.1,2.7-0.4
			s1.4-0.7,1.8-1.3s0.9-1.3,1.1-2.1C209.3,208.5,209.4,207.5,209.4,206.4z"/>
		<path class="st2" d="M228.7,208.7c0,0.5-0.1,0.8-0.3,1c-0.2,0.2-0.5,0.3-0.8,0.3h-8.1c0,0.6,0.1,1.1,0.2,1.5
			c0.1,0.5,0.4,0.9,0.6,1.2c0.3,0.3,0.7,0.6,1.1,0.7s1,0.3,1.7,0.3c0.7,0,1.2-0.1,1.7-0.1s0.9-0.2,1.3-0.3s0.7-0.2,0.9-0.3
			c0.2-0.1,0.4-0.1,0.6-0.1c0.1,0,0.2,0,0.2,0.1c0.1,0,0.1,0.1,0.1,0.2s0.1,0.2,0.1,0.4s0,0.4,0,0.6c0,0.2,0,0.4,0,0.6s0,0.3,0,0.4
			c0,0.1-0.1,0.2-0.1,0.3s-0.1,0.1-0.2,0.2s-0.2,0.2-0.5,0.3s-0.7,0.2-1.1,0.4c-0.4,0.1-1,0.2-1.5,0.3c-0.6,0.1-1.2,0.1-1.9,0.1
			c-1.2,0-2.2-0.1-3.1-0.4s-1.6-0.8-2.2-1.4c-0.6-0.6-1-1.4-1.3-2.3c-0.3-0.9-0.4-2-0.4-3.3c0-1.2,0.1-2.3,0.5-3.2
			c0.3-0.9,0.8-1.8,1.3-2.4s1.3-1.2,2.1-1.5c0.8-0.4,1.8-0.5,2.8-0.5c1.1,0,2.1,0.2,2.9,0.5s1.4,0.8,1.9,1.4s0.9,1.3,1.1,2.1
			c0.2,0.8,0.4,1.7,0.4,2.6L228.7,208.7L228.7,208.7z M225.1,207.6c0-1.1-0.2-1.9-0.6-2.5c-0.4-0.6-1.1-0.9-2.1-0.9
			c-0.5,0-0.9,0.1-1.3,0.3c-0.4,0.2-0.6,0.4-0.9,0.7c-0.2,0.3-0.4,0.7-0.5,1.1c-0.1,0.4-0.2,0.9-0.2,1.3L225.1,207.6L225.1,207.6z"
			/>
		<path class="st2" d="M244.8,215.7c0,0.1,0,0.2-0.1,0.3s-0.2,0.1-0.3,0.2s-0.3,0.1-0.6,0.1c-0.2,0-0.5,0-0.9,0c-0.4,0-0.7,0-0.9,0
			s-0.4-0.1-0.6-0.1c-0.1-0.1-0.2-0.1-0.3-0.2s-0.1-0.2-0.1-0.3v-10.8h-4.9v10.8c0,0.1,0,0.2-0.1,0.3s-0.2,0.1-0.3,0.2
			s-0.3,0.1-0.6,0.1s-0.6,0-0.9,0c-0.4,0-0.7,0-0.9,0c-0.2,0-0.4-0.1-0.6-0.1s-0.2-0.1-0.3-0.2s-0.1-0.2-0.1-0.3v-10.8h-1.7
			c-0.2,0-0.3-0.1-0.4-0.4s-0.1-0.6-0.1-1.2c0-0.3,0-0.5,0-0.7s0.1-0.4,0.1-0.5c0-0.1,0.1-0.2,0.2-0.3c0.1-0.1,0.2-0.1,0.3-0.1h1.7
			v-1.2c0-0.9,0.1-1.7,0.3-2.4c0.2-0.7,0.5-1.2,0.8-1.7s0.9-0.8,1.4-1s1.3-0.3,2-0.3c0.2,0,0.4,0,0.7,0s0.4,0.1,0.6,0.1
			c0.2,0,0.4,0.1,0.5,0.1s0.3,0.1,0.3,0.2s0.1,0.1,0.1,0.2s0.1,0.2,0.1,0.3s0,0.3,0.1,0.4c0,0.2,0,0.4,0,0.6c0,0.5,0,0.8-0.1,1
			s-0.2,0.3-0.3,0.3c-0.1,0-0.1,0-0.2,0c-0.1,0-0.2,0-0.3-0.1s-0.2-0.1-0.4-0.1s-0.3,0-0.5,0c-0.5,0-0.9,0.2-1.1,0.5
			c-0.2,0.4-0.4,0.9-0.4,1.8v1.3h7.6c0.4,0,0.7,0.1,0.9,0.3c0.2,0.2,0.3,0.4,0.3,0.8L244.8,215.7L244.8,215.7z M245.1,197.9
			c0,0.4,0,0.7-0.1,0.9c-0.1,0.3-0.2,0.5-0.3,0.6s-0.4,0.3-0.6,0.3c-0.3,0.1-0.6,0.1-1,0.1c-0.4,0-0.8,0-1-0.1
			c-0.3-0.1-0.5-0.2-0.7-0.3c-0.2-0.1-0.3-0.4-0.3-0.6s-0.1-0.6-0.1-0.9c0-0.4,0-0.7,0.1-0.9s0.2-0.4,0.3-0.6
			c0.2-0.2,0.4-0.3,0.7-0.3c0.3-0.1,0.6-0.1,1-0.1s0.8,0,1,0.1c0.3,0.1,0.5,0.2,0.6,0.3s0.3,0.4,0.3,0.6S245.1,197.6,245.1,197.9z"
			/>
		<path class="st2" d="M261.3,215.7c0,0.1,0,0.2-0.1,0.3c-0.1,0.1-0.2,0.1-0.3,0.2c-0.1,0.1-0.3,0.1-0.6,0.1c-0.2,0-0.5,0-0.9,0
			c-0.4,0-0.7,0-0.9,0c-0.2,0-0.4-0.1-0.6-0.1s-0.2-0.1-0.3-0.2c-0.1-0.1-0.1-0.2-0.1-0.3v-7.6c0-0.6,0-1.1-0.1-1.5
			c-0.1-0.4-0.2-0.7-0.4-0.9c-0.2-0.3-0.4-0.5-0.7-0.6s-0.6-0.2-1-0.2c-0.5,0-1,0.2-1.4,0.5s-1,0.9-1.5,1.5v8.9c0,0.1,0,0.2-0.1,0.3
			s-0.2,0.1-0.3,0.2c-0.1,0.1-0.3,0.1-0.6,0.1c-0.2,0-0.5,0-0.9,0s-0.7,0-0.9,0c-0.2,0-0.4-0.1-0.6-0.1s-0.3-0.1-0.3-0.2
			s-0.1-0.2-0.1-0.3v-13.3c0-0.1,0-0.2,0.1-0.3c0.1-0.1,0.1-0.1,0.3-0.2s0.3-0.1,0.5-0.1s0.5,0,0.8,0c0.3,0,0.6,0,0.8,0
			c0.2,0,0.4,0.1,0.5,0.1s0.2,0.1,0.3,0.2c0.1,0.1,0.1,0.2,0.1,0.3v1.5c0.7-0.8,1.5-1.4,2.3-1.8s1.6-0.6,2.4-0.6
			c0.9,0,1.7,0.1,2.3,0.4s1.1,0.7,1.5,1.2c0.4,0.5,0.7,1.1,0.8,1.8c0.2,0.7,0.3,1.5,0.3,2.5L261.3,215.7L261.3,215.7z"/>
		<path class="st2" d="M269,197.9c0,0.8-0.1,1.3-0.5,1.6s-0.9,0.4-1.7,0.4c-0.9,0-1.4-0.1-1.7-0.4c-0.3-0.3-0.4-0.8-0.4-1.5
			c0-0.8,0.1-1.3,0.5-1.6s0.9-0.4,1.7-0.4s1.4,0.1,1.7,0.4C268.8,196.7,269,197.2,269,197.9z M268.7,215.7c0,0.1,0,0.2-0.1,0.3
			c-0.1,0.1-0.2,0.1-0.3,0.2c-0.1,0.1-0.3,0.1-0.6,0.1c-0.2,0-0.5,0-0.9,0s-0.7,0-0.9,0c-0.2,0-0.4-0.1-0.6-0.1s-0.3-0.1-0.3-0.2
			s-0.1-0.2-0.1-0.3v-13.3c0-0.1,0-0.2,0.1-0.3s0.2-0.1,0.3-0.2c0.1-0.1,0.3-0.1,0.6-0.1c0.2,0,0.5,0,0.9,0s0.7,0,0.9,0
			c0.2,0,0.4,0.1,0.6,0.1s0.3,0.1,0.3,0.2s0.1,0.2,0.1,0.3V215.7z"/>
		<path class="st2" d="M282.5,213.6c0,0.3,0,0.5,0,0.6c0,0.2,0,0.3-0.1,0.4c0,0.1,0,0.2-0.1,0.3s-0.1,0.2-0.2,0.3
			c-0.1,0.1-0.3,0.3-0.6,0.4c-0.3,0.2-0.6,0.3-1.1,0.5c-0.4,0.1-0.9,0.3-1.3,0.3l0.3,0.8c0.2,0.4,0.3,0.7,0.4,1
			c0.1,0.3,0.1,0.6,0.1,0.8c0,0.5-0.1,0.9-0.3,1.2s-0.4,0.6-0.7,0.8c-0.3,0.2-0.6,0.4-1,0.5s-0.8,0.2-1.3,0.2c-0.4,0-0.8,0-1.2-0.1
			c-0.4-0.1-0.7-0.1-0.9-0.2s-0.4-0.1-0.5-0.2s-0.2-0.1-0.2-0.2s-0.1-0.2-0.1-0.3c0-0.1,0-0.3,0-0.5c0-0.4,0-0.7,0.1-0.8
			c0.1-0.1,0.2-0.2,0.4-0.2h1.7c0.3,0,0.5-0.1,0.6-0.2s0.2-0.3,0.2-0.5c0-0.1,0-0.3-0.1-0.4s-0.1-0.3-0.2-0.5l-0.6-1.3
			c-1-0.3-1.8-0.7-2.4-1.3s-1.1-1.4-1.5-2.4c-0.3-0.9-0.5-2.1-0.5-3.3c0-1.3,0.2-2.5,0.5-3.4s0.8-1.8,1.4-2.4s1.3-1.1,2.1-1.4
			s1.7-0.5,2.7-0.5c0.4,0,0.8,0,1.2,0.1c0.4,0.1,0.7,0.2,1.1,0.3c0.3,0.1,0.6,0.3,0.9,0.4c0.3,0.1,0.5,0.3,0.6,0.4s0.2,0.2,0.2,0.3
			s0.1,0.2,0.1,0.3c0,0.1,0,0.3,0.1,0.4c0,0.2,0,0.4,0,0.6c0,0.6,0,1-0.1,1.2s-0.2,0.4-0.4,0.4c-0.2,0-0.4-0.1-0.5-0.2
			s-0.4-0.3-0.7-0.5s-0.6-0.3-0.9-0.5c-0.4-0.1-0.8-0.2-1.3-0.2c-1,0-1.7,0.4-2.2,1.1s-0.8,1.9-0.8,3.3c0,0.7,0.1,1.4,0.2,1.9
			c0.1,0.6,0.3,1,0.6,1.4s0.6,0.6,1,0.8c0.4,0.2,0.8,0.3,1.3,0.3c0.5,0,1-0.1,1.3-0.2s0.7-0.3,1-0.5s0.5-0.4,0.7-0.5
			s0.4-0.2,0.5-0.2c0.1,0,0.2,0,0.2,0.1c0.1,0.1,0.1,0.1,0.1,0.3c0,0.1,0.1,0.3,0.1,0.5C282.5,213,282.5,213.3,282.5,213.6z"/>
		<path class="st2" d="M296.4,215.8c0,0.1,0,0.3-0.1,0.3s-0.3,0.1-0.5,0.2c-0.2,0-0.5,0.1-1,0.1c-0.5,0-0.8,0-1-0.1
			c-0.2,0-0.4-0.1-0.4-0.2s-0.1-0.2-0.1-0.3v-1.1c-0.5,0.6-1.2,1-1.9,1.4c-0.7,0.3-1.5,0.5-2.3,0.5c-0.7,0-1.4-0.1-2-0.3
			c-0.6-0.2-1.1-0.5-1.5-0.8s-0.8-0.8-1-1.4c-0.2-0.5-0.4-1.2-0.4-1.9c0-0.8,0.1-1.4,0.5-2c0.3-0.6,0.8-1,1.4-1.4
			c0.6-0.4,1.4-0.6,2.3-0.8c0.9-0.2,1.9-0.3,3.1-0.3h1.3v-0.8c0-0.4,0-0.8-0.1-1.1c-0.1-0.3-0.2-0.6-0.4-0.8
			c-0.2-0.2-0.5-0.4-0.8-0.5c-0.3-0.1-0.7-0.1-1.2-0.1c-0.6,0-1.2,0.1-1.7,0.2s-0.9,0.3-1.3,0.5c-0.4,0.2-0.7,0.3-1,0.5
			c-0.3,0.1-0.5,0.2-0.6,0.2c-0.1,0-0.2,0-0.3-0.1c-0.1-0.1-0.1-0.2-0.2-0.3s-0.1-0.3-0.1-0.5s0-0.4,0-0.6c0-0.3,0-0.6,0.1-0.7
			s0.1-0.3,0.3-0.5c0.1-0.1,0.4-0.3,0.7-0.5c0.4-0.2,0.8-0.3,1.2-0.5c0.5-0.1,1-0.3,1.5-0.4c0.5-0.1,1.1-0.1,1.7-0.1
			c1,0,1.9,0.1,2.7,0.3c0.7,0.2,1.4,0.5,1.8,0.9c0.5,0.4,0.8,1,1,1.6c0.2,0.7,0.3,1.5,0.3,2.4L296.4,215.8L296.4,215.8z
			 M296.1,196.3c0,1.2-0.3,2.1-0.9,2.8c-0.6,0.6-1.4,1-2.4,1c-0.4,0-0.7,0-1-0.1s-0.6-0.2-0.8-0.3s-0.5-0.3-0.6-0.4
			s-0.4-0.3-0.6-0.4s-0.4-0.2-0.5-0.3s-0.4-0.1-0.6-0.1c-0.3,0-0.6,0.1-0.7,0.4c-0.1,0.2-0.2,0.5-0.2,0.9c0,0.1,0,0.2,0,0.2
			c0,0.1-0.1,0.1-0.2,0.1c-0.1,0-0.2,0.1-0.4,0.1c-0.1,0-0.4,0-0.6,0c-0.2,0-0.4,0-0.5,0c-0.1,0-0.3,0-0.3-0.1
			c-0.1,0-0.1-0.1-0.2-0.2s-0.1-0.2-0.1-0.3c0-1.1,0.3-2.1,0.8-2.7s1.4-1,2.4-1c0.6,0,1,0.1,1.4,0.3s0.7,0.4,1,0.6
			c0.3,0.2,0.6,0.4,0.8,0.6s0.5,0.3,0.8,0.3c0.3,0,0.5-0.1,0.7-0.3s0.2-0.5,0.2-0.9c0-0.2,0.1-0.3,0.2-0.3s0.5-0.1,0.9-0.1
			c0.5,0,0.8,0,0.9,0.1S296.1,196.1,296.1,196.3z M292.7,210.1h-1.4c-0.6,0-1.1,0-1.5,0.1c-0.4,0.1-0.8,0.2-1,0.4
			c-0.3,0.2-0.5,0.4-0.6,0.6s-0.2,0.5-0.2,0.9c0,0.6,0.2,1,0.5,1.3c0.4,0.3,0.8,0.5,1.5,0.5c0.5,0,1-0.1,1.5-0.4
			c0.4-0.3,0.9-0.7,1.4-1.2L292.7,210.1L292.7,210.1z"/>
		<path class="st2" d="M313.6,208.9c0,1.1-0.1,2.2-0.5,3.1c-0.3,0.9-0.8,1.7-1.4,2.4s-1.4,1.2-2.3,1.6c-0.9,0.4-2,0.6-3.2,0.6
			c-1.2,0-2.2-0.2-3.1-0.5s-1.6-0.8-2.2-1.4c-0.6-0.6-1-1.4-1.3-2.3c-0.3-0.9-0.4-2-0.4-3.1c0-1.1,0.1-2.2,0.5-3.1
			c0.3-0.9,0.8-1.8,1.4-2.4s1.4-1.2,2.3-1.6s2-0.6,3.2-0.6c1.2,0,2.2,0.2,3.1,0.5c0.9,0.3,1.6,0.8,2.2,1.4c0.6,0.6,1,1.4,1.3,2.3
			C313.5,206.7,313.6,207.8,313.6,208.9z M309.7,209.1c0-0.7,0-1.3-0.2-1.8s-0.3-1-0.5-1.4s-0.6-0.7-1-1c-0.4-0.2-0.9-0.3-1.6-0.3
			c-0.6,0-1,0.1-1.5,0.3c-0.4,0.2-0.8,0.5-1,0.9c-0.3,0.4-0.5,0.9-0.6,1.4s-0.2,1.2-0.2,1.9c0,0.7,0,1.3,0.2,1.8
			c0.1,0.6,0.3,1,0.5,1.4s0.6,0.7,1,0.9c0.4,0.2,0.9,0.3,1.5,0.3c0.6,0,1.1-0.1,1.5-0.3c0.4-0.2,0.8-0.5,1-0.9s0.5-0.9,0.6-1.4
			C309.7,210.4,309.7,209.8,309.7,209.1z"/>
	</g>
</g>
<path class="st3" d="M219.7,278.7c0,0.1,0,0.2,0,0.3c0,0.1,0,0.2-0.1,0.2c0,0.1-0.1,0.1-0.1,0.1s-0.1,0-0.1,0h-6.1
	c-0.1,0-0.3,0-0.4-0.1s-0.2-0.3-0.2-0.5v-11.3c0-0.3,0.1-0.4,0.2-0.5c0.1-0.1,0.3-0.1,0.4-0.1h6c0.1,0,0.1,0,0.1,0s0.1,0.1,0.1,0.1
	c0,0.1,0.1,0.1,0.1,0.2c0,0.1,0,0.2,0,0.3c0,0.1,0,0.2,0,0.3c0,0.1,0,0.2-0.1,0.2c0,0.1-0.1,0.1-0.1,0.1c0,0-0.1,0-0.1,0h-4.9v4h4.2
	c0.1,0,0.1,0,0.1,0s0.1,0.1,0.1,0.1s0.1,0.1,0.1,0.2s0,0.2,0,0.3s0,0.2,0,0.3c0,0.1,0,0.1-0.1,0.2s-0.1,0.1-0.1,0.1s-0.1,0-0.1,0
	h-4.2v4.5h5c0.1,0,0.1,0,0.1,0s0.1,0.1,0.1,0.1c0,0.1,0.1,0.1,0.1,0.2C219.7,278.5,219.7,278.6,219.7,278.7z"/>
<path class="st3" d="M229.4,279.2c0,0,0,0.1,0,0.1c0,0-0.1,0.1-0.1,0.1s-0.1,0-0.2,0.1s-0.2,0-0.4,0s-0.3,0-0.4,0
	c-0.1,0-0.2,0-0.2-0.1s-0.1-0.1-0.1-0.1c0,0,0-0.1,0-0.1V274c0-0.5,0-0.9-0.1-1.2s-0.2-0.6-0.3-0.8s-0.3-0.4-0.6-0.5
	s-0.5-0.2-0.8-0.2c-0.4,0-0.8,0.1-1.2,0.4c-0.4,0.3-0.8,0.7-1.3,1.3v6.1c0,0,0,0.1,0,0.1c0,0-0.1,0.1-0.1,0.1s-0.1,0-0.2,0.1
	s-0.2,0-0.4,0c-0.2,0-0.3,0-0.4,0c-0.1,0-0.2,0-0.3-0.1s-0.1-0.1-0.1-0.1c0,0,0-0.1,0-0.1v-8.8c0,0,0-0.1,0-0.1s0.1-0.1,0.1-0.1
	s0.1,0,0.2-0.1s0.2,0,0.4,0c0.1,0,0.3,0,0.4,0c0.1,0,0.2,0,0.2,0.1s0.1,0.1,0.1,0.1s0,0.1,0,0.1v1.2c0.5-0.5,1-1,1.5-1.2
	c0.5-0.3,1-0.4,1.5-0.4c0.6,0,1.1,0.1,1.5,0.3s0.7,0.5,1,0.8c0.3,0.3,0.4,0.7,0.5,1.2s0.2,1,0.2,1.6L229.4,279.2L229.4,279.2z"/>
<path class="st3" d="M236.7,278.5c0,0.2,0,0.3,0,0.5c0,0.1-0.1,0.2-0.1,0.2c-0.1,0-0.1,0.1-0.2,0.1c-0.1,0-0.2,0.1-0.4,0.1
	c-0.1,0-0.3,0-0.4,0.1c-0.1,0-0.3,0-0.4,0c-0.5,0-0.9-0.1-1.2-0.2c-0.3-0.1-0.6-0.3-0.8-0.5c-0.2-0.2-0.4-0.5-0.4-0.9
	c-0.1-0.4-0.1-0.8-0.1-1.3v-5.1h-1.2c-0.1,0-0.2,0-0.2-0.2s-0.1-0.3-0.1-0.5c0-0.1,0-0.2,0-0.3c0-0.1,0-0.1,0.1-0.2
	c0-0.1,0.1-0.1,0.1-0.1c0,0,0.1,0,0.1,0h1.2V268c0,0,0-0.1,0-0.1s0.1-0.1,0.1-0.1c0.1,0,0.1,0,0.3-0.1c0.1,0,0.2,0,0.4,0
	s0.3,0,0.4,0c0.1,0,0.2,0,0.2,0.1s0.1,0.1,0.1,0.1s0,0.1,0,0.1v2.1h2.3c0.1,0,0.1,0,0.1,0s0.1,0.1,0.1,0.1s0.1,0.1,0.1,0.2
	s0,0.2,0,0.3c0,0.2,0,0.4-0.1,0.5s-0.1,0.2-0.2,0.2h-2.3v4.9c0,0.6,0.1,1.1,0.3,1.4c0.2,0.3,0.5,0.5,1,0.5c0.1,0,0.3,0,0.4,0
	s0.2-0.1,0.3-0.1s0.2-0.1,0.2-0.1s0.1,0,0.2,0c0,0,0.1,0,0.1,0s0.1,0,0.1,0.1c0,0,0,0.1,0,0.2C236.7,278.3,236.7,278.4,236.7,278.5z
	"/>
<path class="st3" d="M243.7,271c0,0.1,0,0.3,0,0.4c0,0.1,0,0.2,0,0.2s0,0.1-0.1,0.1s-0.1,0-0.1,0c-0.1,0-0.1,0-0.2,0
	c-0.1,0-0.2-0.1-0.3-0.1s-0.2-0.1-0.3-0.1s-0.2,0-0.4,0c-0.2,0-0.3,0-0.5,0.1s-0.3,0.2-0.5,0.3s-0.4,0.4-0.5,0.6
	c-0.2,0.3-0.4,0.5-0.6,0.9v5.8c0,0,0,0.1,0,0.1c0,0-0.1,0.1-0.1,0.1s-0.1,0-0.2,0.1s-0.2,0-0.4,0c-0.2,0-0.3,0-0.4,0
	c-0.1,0-0.2,0-0.3-0.1s-0.1-0.1-0.1-0.1c0,0,0-0.1,0-0.1v-8.8c0,0,0-0.1,0-0.1s0.1-0.1,0.1-0.1s0.1,0,0.2-0.1s0.2,0,0.4,0
	c0.1,0,0.3,0,0.4,0c0.1,0,0.2,0,0.2,0.1s0.1,0.1,0.1,0.1s0,0.1,0,0.1v1.3c0.2-0.4,0.5-0.6,0.7-0.9c0.2-0.2,0.4-0.4,0.6-0.5
	c0.2-0.1,0.4-0.2,0.6-0.3s0.4-0.1,0.6-0.1c0.1,0,0.2,0,0.3,0s0.2,0,0.3,0s0.2,0.1,0.3,0.1c0.1,0,0.2,0.1,0.2,0.1s0.1,0.1,0.1,0.1
	c0,0,0,0.1,0,0.1s0,0.1,0,0.2C243.7,270.7,243.7,270.8,243.7,271z"/>
<path class="st3" d="M252.9,274.4c0,0.3-0.1,0.4-0.2,0.5c-0.1,0.1-0.3,0.2-0.4,0.2h-5.8c0,0.5,0.1,0.9,0.1,1.3
	c0.1,0.4,0.3,0.7,0.5,1c0.2,0.3,0.5,0.5,0.9,0.6s0.8,0.2,1.3,0.2c0.4,0,0.8,0,1.1-0.1s0.6-0.1,0.9-0.2c0.2-0.1,0.4-0.2,0.6-0.2
	s0.3-0.1,0.4-0.1c0.1,0,0.1,0,0.1,0c0,0,0.1,0.1,0.1,0.1s0,0.1,0,0.2s0,0.2,0,0.3c0,0.1,0,0.2,0,0.2s0,0.1,0,0.2s0,0.1-0.1,0.1
	s-0.1,0.1-0.1,0.1c0,0-0.1,0.1-0.3,0.2s-0.4,0.2-0.7,0.2s-0.6,0.1-1,0.2s-0.8,0.1-1.2,0.1c-0.7,0-1.4-0.1-1.9-0.3
	c-0.5-0.2-1-0.5-1.4-0.9s-0.6-0.9-0.8-1.5c-0.2-0.6-0.3-1.3-0.3-2.1c0-0.8,0.1-1.4,0.3-2s0.5-1.1,0.8-1.5c0.4-0.4,0.8-0.7,1.3-1
	c0.5-0.2,1.1-0.3,1.8-0.3c0.7,0,1.3,0.1,1.8,0.3c0.5,0.2,0.9,0.5,1.2,0.9s0.5,0.8,0.7,1.3s0.2,1,0.2,1.6L252.9,274.4L252.9,274.4z
	 M251.3,273.9c0-0.9-0.2-1.5-0.6-2c-0.4-0.5-1-0.7-1.8-0.7c-0.4,0-0.8,0.1-1.1,0.2c-0.3,0.1-0.6,0.4-0.8,0.6s-0.4,0.5-0.5,0.9
	s-0.2,0.7-0.2,1H251.3z"/>
<path class="st3" d="M262.3,270.4C262.3,270.4,262.3,270.4,262.3,270.4c0,0.1,0,0.1,0,0.2c0,0,0,0.1,0,0.1s0,0.1,0,0.1l-3,8.4
	c0,0.1-0.1,0.1-0.1,0.2c0,0-0.1,0.1-0.2,0.1c-0.1,0-0.2,0-0.3,0c-0.1,0-0.3,0-0.5,0s-0.4,0-0.5,0c-0.1,0-0.2,0-0.3-0.1
	s-0.1-0.1-0.2-0.1s-0.1-0.1-0.1-0.2l-3-8.4c0-0.1-0.1-0.1-0.1-0.2c0-0.1,0-0.1,0-0.1s0,0,0-0.1c0,0,0-0.1,0-0.1s0.1-0.1,0.1-0.1
	s0.1,0,0.2,0c0.1,0,0.2,0,0.4,0c0.2,0,0.3,0,0.4,0c0.1,0,0.2,0,0.3,0c0.1,0,0.1,0.1,0.1,0.1s0.1,0.1,0.1,0.1l2.5,7.3l0,0.1l0-0.1
	l2.5-7.3c0-0.1,0-0.1,0.1-0.1s0.1-0.1,0.1-0.1c0.1,0,0.1,0,0.3,0s0.3,0,0.4,0c0.1,0,0.3,0,0.4,0s0.2,0,0.2,0s0.1,0.1,0.1,0.1
	C262.3,270.3,262.3,270.3,262.3,270.4z"/>
<path class="st3" d="M265.9,267.4c0,0.4-0.1,0.6-0.2,0.8s-0.4,0.2-0.8,0.2s-0.6-0.1-0.8-0.2s-0.2-0.4-0.2-0.8c0-0.4,0.1-0.6,0.2-0.8
	s0.4-0.2,0.8-0.2s0.6,0.1,0.8,0.2S265.9,267,265.9,267.4z M265.7,279.2c0,0,0,0.1,0,0.1s-0.1,0.1-0.1,0.1s-0.1,0-0.2,0.1
	s-0.2,0-0.4,0s-0.3,0-0.4,0s-0.2,0-0.3-0.1s-0.1-0.1-0.1-0.1s0-0.1,0-0.1v-8.8c0,0,0-0.1,0-0.1s0.1-0.1,0.1-0.1s0.1,0,0.3-0.1
	s0.2,0,0.4,0s0.3,0,0.4,0s0.2,0,0.2,0.1s0.1,0.1,0.1,0.1s0,0.1,0,0.1V279.2z"/>
<path class="st3" d="M274,276.8c0,0.5-0.1,0.9-0.3,1.2s-0.4,0.6-0.7,0.9s-0.7,0.4-1.1,0.5s-0.9,0.2-1.4,0.2c-0.3,0-0.6,0-0.9-0.1
	s-0.5-0.1-0.8-0.2s-0.4-0.1-0.6-0.2s-0.3-0.1-0.3-0.2s-0.1-0.2-0.2-0.3s0-0.3,0-0.5c0-0.1,0-0.2,0-0.3s0-0.1,0-0.2s0-0.1,0.1-0.1
	s0.1,0,0.1,0c0.1,0,0.2,0,0.3,0.1s0.3,0.2,0.5,0.3s0.5,0.2,0.7,0.3s0.6,0.1,1,0.1c0.3,0,0.5,0,0.7-0.1s0.4-0.1,0.6-0.3
	s0.3-0.3,0.4-0.4s0.1-0.4,0.1-0.6s-0.1-0.5-0.2-0.6s-0.3-0.3-0.5-0.5s-0.4-0.3-0.7-0.4s-0.5-0.2-0.8-0.3s-0.5-0.2-0.8-0.4
	s-0.5-0.3-0.7-0.5s-0.4-0.4-0.5-0.7s-0.2-0.6-0.2-1c0-0.3,0.1-0.7,0.2-1s0.3-0.6,0.6-0.8s0.6-0.4,1-0.6s0.9-0.2,1.4-0.2
	c0.2,0,0.5,0,0.7,0.1s0.5,0.1,0.6,0.1s0.4,0.1,0.5,0.2s0.2,0.1,0.3,0.2s0.1,0.1,0.1,0.1s0,0.1,0,0.1s0,0.1,0,0.2s0,0.2,0,0.3
	c0,0.1,0,0.2,0,0.3s0,0.1,0,0.2s0,0.1-0.1,0.1s-0.1,0-0.1,0c-0.1,0-0.1,0-0.3-0.1s-0.3-0.1-0.4-0.2s-0.4-0.2-0.6-0.2
	s-0.5-0.1-0.8-0.1c-0.3,0-0.5,0-0.7,0.1s-0.4,0.1-0.5,0.3s-0.2,0.3-0.3,0.4s-0.1,0.3-0.1,0.5c0,0.3,0.1,0.5,0.2,0.6s0.3,0.3,0.5,0.5
	s0.5,0.3,0.7,0.4s0.5,0.2,0.8,0.3s0.5,0.2,0.8,0.4s0.5,0.3,0.7,0.5s0.4,0.4,0.5,0.7S274,276.4,274,276.8z"/>
<path class="st3" d="M280.9,278.5c0,0.2,0,0.3,0,0.5s-0.1,0.2-0.1,0.2s-0.1,0.1-0.2,0.1s-0.2,0.1-0.4,0.1s-0.3,0-0.4,0.1
	s-0.3,0-0.5,0c-0.5,0-0.9-0.1-1.2-0.2s-0.6-0.3-0.8-0.5s-0.4-0.5-0.5-0.9s-0.1-0.8-0.1-1.3v-5.1h-1.2c-0.1,0-0.2,0-0.2-0.2
	s-0.1-0.3-0.1-0.5c0-0.1,0-0.2,0-0.3s0-0.1,0.1-0.2s0.1-0.1,0.1-0.1s0.1,0,0.1,0h1.2V268c0,0,0-0.1,0-0.1s0.1-0.1,0.1-0.1
	s0.1,0,0.3-0.1s0.2,0,0.4,0s0.3,0,0.4,0s0.2,0,0.2,0.1s0.1,0.1,0.1,0.1s0,0.1,0,0.1v2.1h2.3c0,0,0.1,0,0.1,0s0.1,0.1,0.1,0.1
	s0,0.1,0.1,0.2s0,0.2,0,0.3c0,0.2,0,0.4-0.1,0.5s-0.1,0.2-0.2,0.2h-2.3v4.9c0,0.6,0.1,1.1,0.3,1.4s0.5,0.5,1,0.5c0.1,0,0.3,0,0.4,0
	s0.2-0.1,0.3-0.1s0.2-0.1,0.2-0.1s0.1,0,0.2,0c0,0,0.1,0,0.1,0s0,0,0.1,0.1s0,0.1,0,0.2S280.9,278.4,280.9,278.5z"/>
<path class="st3" d="M289.6,279.2c0,0.1,0,0.1-0.1,0.2s-0.1,0.1-0.2,0.1s-0.2,0-0.4,0c-0.2,0-0.3,0-0.4,0s-0.2,0-0.2-0.1
	s-0.1-0.1-0.1-0.2v-0.9c-0.4,0.4-0.8,0.7-1.3,1s-1,0.3-1.5,0.3c-0.5,0-0.9-0.1-1.3-0.2s-0.7-0.3-1-0.5s-0.5-0.5-0.6-0.8
	s-0.2-0.7-0.2-1.1c0-0.5,0.1-0.9,0.3-1.3s0.5-0.7,0.9-0.9s0.8-0.4,1.4-0.5s1.2-0.2,1.9-0.2h1.2v-0.7c0-0.3,0-0.6-0.1-0.9
	s-0.2-0.5-0.4-0.6s-0.4-0.3-0.6-0.4s-0.6-0.1-0.9-0.1c-0.4,0-0.8,0-1.1,0.1s-0.6,0.2-0.8,0.3s-0.4,0.2-0.6,0.3s-0.3,0.1-0.4,0.1
	c0,0-0.1,0-0.1,0s-0.1-0.1-0.1-0.1s0-0.1-0.1-0.2s0-0.2,0-0.3c0-0.2,0-0.3,0-0.4s0.1-0.2,0.2-0.3s0.2-0.2,0.5-0.3s0.5-0.2,0.7-0.3
	s0.6-0.2,0.9-0.2s0.7-0.1,1-0.1c0.6,0,1.2,0.1,1.6,0.2s0.8,0.4,1.1,0.6s0.5,0.6,0.6,1s0.2,0.9,0.2,1.4L289.6,279.2L289.6,279.2z
	 M288,275.2h-1.4c-0.4,0-0.8,0-1.1,0.1s-0.6,0.2-0.8,0.3s-0.4,0.3-0.5,0.5s-0.1,0.4-0.1,0.7c0,0.5,0.1,0.8,0.4,1.1s0.7,0.4,1.2,0.4
	c0.4,0,0.8-0.1,1.2-0.3s0.7-0.5,1.1-1L288,275.2L288,275.2z"/>
<path class="st3" d="M297.9,276.8c0,0.5-0.1,0.9-0.3,1.2s-0.4,0.6-0.7,0.9s-0.7,0.4-1.1,0.5s-0.9,0.2-1.4,0.2c-0.3,0-0.6,0-0.9-0.1
	s-0.5-0.1-0.8-0.2s-0.4-0.1-0.6-0.2s-0.3-0.1-0.3-0.2s-0.1-0.2-0.2-0.3s0-0.3,0-0.5c0-0.1,0-0.2,0-0.3s0-0.1,0-0.2s0-0.1,0.1-0.1
	s0.1,0,0.1,0c0.1,0,0.2,0,0.3,0.1s0.3,0.2,0.5,0.3s0.5,0.2,0.7,0.3s0.6,0.1,1,0.1c0.3,0,0.5,0,0.7-0.1s0.4-0.1,0.6-0.3
	s0.3-0.3,0.4-0.4s0.1-0.4,0.1-0.6s-0.1-0.5-0.2-0.6s-0.3-0.3-0.5-0.5s-0.4-0.3-0.7-0.4s-0.5-0.2-0.8-0.3s-0.5-0.2-0.8-0.4
	s-0.5-0.3-0.7-0.5s-0.4-0.4-0.5-0.7s-0.2-0.6-0.2-1c0-0.3,0.1-0.7,0.2-1s0.3-0.6,0.6-0.8s0.6-0.4,1-0.6s0.9-0.2,1.4-0.2
	c0.2,0,0.5,0,0.7,0.1s0.5,0.1,0.6,0.1s0.4,0.1,0.5,0.2s0.2,0.1,0.3,0.2s0.1,0.1,0.1,0.1s0,0.1,0,0.1s0,0.1,0,0.2s0,0.2,0,0.3
	c0,0.1,0,0.2,0,0.3s0,0.1,0,0.2s0,0.1-0.1,0.1s-0.1,0-0.1,0c-0.1,0-0.1,0-0.3-0.1s-0.3-0.1-0.4-0.2s-0.4-0.2-0.6-0.2
	s-0.5-0.1-0.8-0.1c-0.3,0-0.5,0-0.7,0.1s-0.4,0.1-0.5,0.3s-0.2,0.3-0.3,0.4s-0.1,0.3-0.1,0.5c0,0.3,0.1,0.5,0.2,0.6s0.3,0.3,0.5,0.5
	s0.5,0.3,0.7,0.4s0.5,0.2,0.8,0.3s0.5,0.2,0.8,0.4s0.5,0.3,0.7,0.5s0.4,0.4,0.5,0.7S297.9,276.4,297.9,276.8z"/>
<g>
	<path class="st3" d="M164.6,311.7c0,0.1,0,0.2,0,0.3c0,0.1,0,0.2-0.1,0.2c0,0.1-0.1,0.1-0.1,0.1s-0.1,0-0.1,0h-6.1
		c-0.1,0-0.3,0-0.4-0.1s-0.2-0.3-0.2-0.5v-11.3c0-0.3,0.1-0.4,0.2-0.5c0.1-0.1,0.3-0.1,0.4-0.1h6c0.1,0,0.1,0,0.1,0s0.1,0.1,0.1,0.1
		c0,0.1,0.1,0.1,0.1,0.2c0,0.1,0,0.2,0,0.3c0,0.1,0,0.2,0,0.3c0,0.1,0,0.2-0.1,0.2c0,0.1-0.1,0.1-0.1,0.1c0,0-0.1,0-0.1,0h-4.9v4
		h4.2c0.1,0,0.1,0,0.1,0s0.1,0.1,0.1,0.1s0.1,0.1,0.1,0.2s0,0.2,0,0.3s0,0.2,0,0.3c0,0.1,0,0.1-0.1,0.2s-0.1,0.1-0.1,0.1
		s-0.1,0-0.1,0h-4.2v4.5h5c0.1,0,0.1,0,0.1,0s0.1,0.1,0.1,0.1c0,0.1,0.1,0.1,0.1,0.2C164.6,311.5,164.6,311.6,164.6,311.7z"/>
	<path class="st3" d="M168.3,312.2c0,0,0,0.1,0,0.1c0,0-0.1,0.1-0.1,0.1s-0.1,0-0.2,0.1s-0.2,0-0.4,0c-0.2,0-0.3,0-0.4,0
		c-0.1,0-0.2,0-0.3-0.1s-0.1-0.1-0.1-0.1c0,0,0-0.1,0-0.1v-13c0,0,0-0.1,0-0.1s0.1-0.1,0.1-0.1c0.1,0,0.1,0,0.3-0.1
		c0.1,0,0.2,0,0.4,0s0.3,0,0.4,0c0.1,0,0.2,0,0.2,0.1s0.1,0.1,0.1,0.1s0,0.1,0,0.1V312.2z"/>
	<path class="st3" d="M177.7,312.2c0,0.1,0,0.1-0.1,0.2c-0.1,0-0.1,0.1-0.2,0.1c-0.1,0-0.2,0-0.4,0c-0.2,0-0.3,0-0.4,0
		c-0.1,0-0.2,0-0.2-0.1s-0.1-0.1-0.1-0.2v-0.9c-0.4,0.4-0.8,0.7-1.3,1c-0.5,0.2-1,0.3-1.5,0.3c-0.5,0-0.9-0.1-1.3-0.2
		c-0.4-0.1-0.7-0.3-1-0.5s-0.5-0.5-0.6-0.8s-0.2-0.7-0.2-1.1c0-0.5,0.1-0.9,0.3-1.3c0.2-0.4,0.5-0.7,0.9-0.9
		c0.4-0.2,0.8-0.4,1.4-0.5s1.2-0.2,1.9-0.2h1.2v-0.7c0-0.3,0-0.6-0.1-0.9c-0.1-0.3-0.2-0.5-0.4-0.6c-0.2-0.2-0.4-0.3-0.6-0.4
		s-0.6-0.1-0.9-0.1c-0.4,0-0.8,0-1.1,0.1c-0.3,0.1-0.6,0.2-0.8,0.3s-0.4,0.2-0.6,0.3s-0.3,0.1-0.4,0.1c-0.1,0-0.1,0-0.1,0
		s-0.1-0.1-0.1-0.1s-0.1-0.1-0.1-0.2c0-0.1,0-0.2,0-0.3c0-0.2,0-0.3,0-0.4c0-0.1,0.1-0.2,0.2-0.3s0.2-0.2,0.4-0.3s0.5-0.2,0.7-0.3
		s0.6-0.2,0.9-0.2s0.7-0.1,1-0.1c0.6,0,1.2,0.1,1.6,0.2c0.4,0.1,0.8,0.4,1.1,0.6s0.5,0.6,0.6,1c0.1,0.4,0.2,0.9,0.2,1.4L177.7,312.2
		L177.7,312.2z M176.1,308.2h-1.4c-0.4,0-0.8,0-1.1,0.1c-0.3,0.1-0.6,0.2-0.8,0.3s-0.4,0.3-0.5,0.5s-0.1,0.4-0.1,0.7
		c0,0.5,0.1,0.8,0.4,1.1s0.7,0.4,1.2,0.4c0.4,0,0.8-0.1,1.2-0.3s0.7-0.5,1.1-1L176.1,308.2L176.1,308.2z"/>
	<path class="st3" d="M188.5,307.7c0,0.8-0.1,1.5-0.3,2.1s-0.4,1.1-0.7,1.6s-0.7,0.8-1.2,1s-1,0.3-1.6,0.3c-0.3,0-0.5,0-0.8-0.1
		c-0.2-0.1-0.5-0.1-0.7-0.3c-0.2-0.1-0.5-0.3-0.7-0.5c-0.2-0.2-0.5-0.4-0.7-0.7v1.1c0,0,0,0.1,0,0.1s-0.1,0.1-0.1,0.1s-0.1,0-0.2,0
		s-0.2,0-0.3,0c-0.1,0-0.2,0-0.3,0c-0.1,0-0.2,0-0.2,0s-0.1,0-0.1-0.1s0-0.1,0-0.1v-13c0,0,0-0.1,0-0.1s0.1-0.1,0.1-0.1
		s0.1,0,0.3-0.1s0.2,0,0.4,0s0.3,0,0.4,0c0.1,0,0.2,0,0.2,0.1s0.1,0.1,0.1,0.1s0,0.1,0,0.1v5.3c0.3-0.3,0.5-0.5,0.8-0.7
		s0.5-0.3,0.7-0.4s0.5-0.2,0.7-0.3s0.5-0.1,0.7-0.1c0.6,0,1.2,0.1,1.6,0.4c0.4,0.3,0.8,0.6,1.1,1s0.5,0.9,0.6,1.5
		C188.5,306.4,188.5,307,188.5,307.7z M186.9,307.9c0-0.5,0-0.9-0.1-1.3c-0.1-0.4-0.2-0.8-0.4-1.1c-0.2-0.3-0.4-0.6-0.7-0.8
		s-0.6-0.3-1.1-0.3c-0.2,0-0.4,0-0.6,0.1s-0.4,0.2-0.6,0.3s-0.4,0.3-0.6,0.5c-0.2,0.2-0.5,0.5-0.7,0.8v3.5c0.4,0.5,0.9,1,1.3,1.2
		s0.8,0.4,1.3,0.4c0.4,0,0.8-0.1,1-0.3c0.3-0.2,0.5-0.5,0.7-0.8s0.3-0.7,0.4-1.1C186.8,308.7,186.9,308.3,186.9,307.9z"/>
	<path class="st3" d="M199.1,307.7c0,0.7-0.1,1.4-0.3,2s-0.5,1.1-0.8,1.6c-0.4,0.4-0.8,0.8-1.4,1c-0.6,0.2-1.2,0.4-2,0.4
		c-0.7,0-1.4-0.1-1.9-0.3s-1-0.5-1.3-0.9c-0.4-0.4-0.6-0.9-0.8-1.5s-0.3-1.3-0.3-2c0-0.7,0.1-1.4,0.3-2s0.5-1.1,0.8-1.6
		c0.4-0.4,0.8-0.8,1.4-1c0.6-0.2,1.2-0.4,2-0.4c0.7,0,1.4,0.1,1.9,0.3s1,0.5,1.3,0.9s0.6,0.9,0.8,1.5
		C199,306.3,199.1,307,199.1,307.7z M197.4,307.8c0-0.5,0-0.9-0.1-1.4c-0.1-0.4-0.2-0.8-0.4-1.1c-0.2-0.3-0.5-0.6-0.8-0.8
		s-0.8-0.3-1.3-0.3c-0.5,0-0.9,0.1-1.2,0.3s-0.6,0.4-0.9,0.7s-0.4,0.7-0.5,1.1s-0.2,0.9-0.2,1.4c0,0.5,0,0.9,0.1,1.4
		s0.2,0.8,0.4,1.1s0.5,0.6,0.8,0.8c0.4,0.2,0.8,0.3,1.3,0.3c0.5,0,0.9-0.1,1.2-0.3c0.4-0.2,0.6-0.4,0.9-0.7c0.2-0.3,0.4-0.7,0.5-1.1
		C197.4,308.8,197.4,308.3,197.4,307.8z"/>
	<path class="st3" d="M206.5,304c0,0.1,0,0.3,0,0.4c0,0.1,0,0.2,0,0.2s0,0.1-0.1,0.1s-0.1,0-0.1,0c-0.1,0-0.1,0-0.2,0
		c-0.1,0-0.2-0.1-0.3-0.1s-0.2-0.1-0.3-0.1s-0.2,0-0.4,0c-0.2,0-0.3,0-0.5,0.1s-0.3,0.2-0.5,0.3s-0.4,0.4-0.5,0.6
		c-0.2,0.3-0.4,0.5-0.6,0.9v5.8c0,0,0,0.1,0,0.1c0,0-0.1,0.1-0.1,0.1s-0.1,0-0.2,0.1s-0.2,0-0.4,0c-0.2,0-0.3,0-0.4,0
		c-0.1,0-0.2,0-0.3-0.1s-0.1-0.1-0.1-0.1c0,0,0-0.1,0-0.1v-8.8c0,0,0-0.1,0-0.1s0.1-0.1,0.1-0.1s0.1,0,0.2-0.1s0.2,0,0.4,0
		c0.1,0,0.3,0,0.4,0c0.1,0,0.2,0,0.2,0.1s0.1,0.1,0.1,0.1s0,0.1,0,0.1v1.3c0.2-0.4,0.5-0.6,0.7-0.9c0.2-0.2,0.4-0.4,0.6-0.5
		c0.2-0.1,0.4-0.2,0.6-0.3s0.4-0.1,0.6-0.1c0.1,0,0.2,0,0.3,0s0.2,0,0.3,0s0.2,0.1,0.3,0.1c0.1,0,0.2,0.1,0.2,0.1s0.1,0.1,0.1,0.1
		c0,0,0,0.1,0,0.1s0,0.1,0,0.2C206.5,303.7,206.5,303.8,206.5,304z"/>
	<path class="st3" d="M214.9,312.2c0,0.1,0,0.1-0.1,0.2c-0.1,0-0.1,0.1-0.2,0.1c-0.1,0-0.2,0-0.4,0c-0.2,0-0.3,0-0.4,0
		c-0.1,0-0.2,0-0.2-0.1c0,0-0.1-0.1-0.1-0.2v-0.9c-0.4,0.4-0.8,0.7-1.3,1c-0.5,0.2-1,0.3-1.5,0.3c-0.5,0-0.9-0.1-1.3-0.2
		s-0.7-0.3-1-0.5s-0.5-0.5-0.6-0.8s-0.2-0.7-0.2-1.1c0-0.5,0.1-0.9,0.3-1.3c0.2-0.4,0.5-0.7,0.9-0.9c0.4-0.2,0.8-0.4,1.4-0.5
		s1.2-0.2,1.9-0.2h1.2v-0.7c0-0.3,0-0.6-0.1-0.9c-0.1-0.3-0.2-0.5-0.4-0.6c-0.2-0.2-0.4-0.3-0.6-0.4s-0.6-0.1-0.9-0.1
		c-0.4,0-0.8,0-1.1,0.1c-0.3,0.1-0.6,0.2-0.8,0.3s-0.4,0.2-0.6,0.3s-0.3,0.1-0.4,0.1c-0.1,0-0.1,0-0.1,0s-0.1-0.1-0.1-0.1
		s-0.1-0.1-0.1-0.2c0-0.1,0-0.2,0-0.3c0-0.2,0-0.3,0-0.4c0-0.1,0.1-0.2,0.2-0.3s0.2-0.2,0.4-0.3s0.5-0.2,0.7-0.3s0.6-0.2,0.9-0.2
		s0.7-0.1,1-0.1c0.6,0,1.2,0.1,1.6,0.2c0.4,0.1,0.8,0.4,1.1,0.6s0.5,0.6,0.6,1c0.1,0.4,0.2,0.9,0.2,1.4L214.9,312.2L214.9,312.2z
		 M213.3,308.2H212c-0.4,0-0.8,0-1.1,0.1c-0.3,0.1-0.6,0.2-0.8,0.3s-0.4,0.3-0.5,0.5s-0.1,0.4-0.1,0.7c0,0.5,0.1,0.8,0.4,1.1
		c0.3,0.3,0.7,0.4,1.2,0.4c0.4,0,0.8-0.1,1.2-0.3s0.7-0.5,1.1-1L213.3,308.2L213.3,308.2z"/>
	<path class="st3" d="M224.1,310.8c0,0.1,0,0.2,0,0.3c0,0.1,0,0.1,0,0.2c0,0.1,0,0.1-0.1,0.1c0,0-0.1,0.1-0.2,0.2
		c-0.1,0.1-0.2,0.2-0.4,0.3s-0.5,0.3-0.8,0.4s-0.6,0.2-1,0.2l0.3,0.6c0.1,0.3,0.2,0.5,0.3,0.7s0.1,0.4,0.1,0.5c0,0.3,0,0.5-0.1,0.7
		c-0.1,0.2-0.2,0.4-0.4,0.5s-0.4,0.2-0.6,0.3s-0.5,0.1-0.8,0.1c-0.2,0-0.4,0-0.6,0s-0.4-0.1-0.5-0.1s-0.3-0.1-0.3-0.1
		s-0.1-0.1-0.1-0.1c0,0,0-0.1-0.1-0.1s0-0.1,0-0.2c0-0.2,0-0.3,0.1-0.4s0.1-0.1,0.2-0.1h1.2c0.2,0,0.4,0,0.5-0.1s0.2-0.2,0.2-0.4
		c0-0.1,0-0.2-0.1-0.3s-0.1-0.3-0.2-0.4l-0.5-1c-0.7-0.1-1.2-0.4-1.7-0.8s-0.8-0.9-1-1.6c-0.2-0.6-0.3-1.4-0.3-2.3s0.1-1.6,0.3-2.2
		c0.2-0.6,0.5-1.1,0.9-1.5s0.8-0.7,1.3-0.9s1-0.3,1.6-0.3c0.3,0,0.6,0,0.8,0.1s0.5,0.1,0.7,0.2c0.2,0.1,0.4,0.2,0.6,0.3
		c0.2,0.1,0.3,0.2,0.4,0.3s0.1,0.1,0.2,0.2s0.1,0.1,0.1,0.2s0,0.1,0,0.2s0,0.2,0,0.3c0,0.3,0,0.4-0.1,0.5s-0.1,0.1-0.2,0.1
		c-0.1,0-0.2,0-0.3-0.2s-0.3-0.2-0.5-0.4s-0.4-0.3-0.7-0.4c-0.3-0.1-0.6-0.2-1-0.2c-0.8,0-1.4,0.3-1.8,0.9c-0.4,0.6-0.6,1.5-0.6,2.6
		c0,0.6,0.1,1.1,0.2,1.5s0.3,0.8,0.5,1.1c0.2,0.3,0.5,0.5,0.8,0.6s0.6,0.2,1,0.2c0.4,0,0.7-0.1,1-0.2s0.5-0.3,0.7-0.4
		s0.4-0.3,0.5-0.4c0.1-0.1,0.3-0.2,0.3-0.2c0.1,0,0.1,0,0.1,0c0,0,0.1,0.1,0.1,0.1s0,0.1,0.1,0.2S224.1,310.7,224.1,310.8z"/>
	<path class="st3" d="M232.9,312.2c0,0.1,0,0.1-0.1,0.2c-0.1,0-0.1,0.1-0.2,0.1c-0.1,0-0.2,0-0.4,0c-0.2,0-0.3,0-0.4,0
		c-0.1,0-0.2,0-0.2-0.1c0,0-0.1-0.1-0.1-0.2v-0.9c-0.4,0.4-0.8,0.7-1.3,1c-0.5,0.2-1,0.3-1.5,0.3c-0.5,0-0.9-0.1-1.3-0.2
		s-0.7-0.3-1-0.5s-0.5-0.5-0.6-0.8s-0.2-0.7-0.2-1.1c0-0.5,0.1-0.9,0.3-1.3c0.2-0.4,0.5-0.7,0.9-0.9c0.4-0.2,0.8-0.4,1.4-0.5
		s1.2-0.2,1.9-0.2h1.2v-0.7c0-0.3,0-0.6-0.1-0.9c-0.1-0.3-0.2-0.5-0.4-0.6c-0.2-0.2-0.4-0.3-0.6-0.4s-0.6-0.1-0.9-0.1
		c-0.4,0-0.8,0-1.1,0.1c-0.3,0.1-0.6,0.2-0.8,0.3s-0.4,0.2-0.6,0.3s-0.3,0.1-0.4,0.1c-0.1,0-0.1,0-0.1,0s-0.1-0.1-0.1-0.1
		s-0.1-0.1-0.1-0.2c0-0.1,0-0.2,0-0.3c0-0.2,0-0.3,0-0.4c0-0.1,0.1-0.2,0.2-0.3s0.2-0.2,0.4-0.3s0.5-0.2,0.7-0.3s0.6-0.2,0.9-0.2
		s0.7-0.1,1-0.1c0.6,0,1.2,0.1,1.6,0.2c0.4,0.1,0.8,0.4,1.1,0.6s0.5,0.6,0.6,1c0.1,0.4,0.2,0.9,0.2,1.4L232.9,312.2L232.9,312.2z
		 M232.8,299.6c0,0.7-0.2,1.2-0.5,1.6s-0.8,0.5-1.4,0.5c-0.2,0-0.5,0-0.6-0.1c-0.2-0.1-0.4-0.1-0.5-0.2s-0.3-0.2-0.4-0.3
		c-0.1-0.1-0.3-0.2-0.4-0.3s-0.3-0.2-0.4-0.2c-0.1-0.1-0.3-0.1-0.4-0.1c-0.3,0-0.4,0.1-0.6,0.3c-0.1,0.2-0.2,0.4-0.2,0.8
		c0,0,0,0.1,0,0.1c0,0,0,0.1-0.1,0.1c0,0-0.1,0-0.2,0c-0.1,0-0.2,0-0.3,0c-0.1,0-0.2,0-0.3,0c-0.1,0-0.1,0-0.2-0.1s-0.1-0.1-0.1-0.1
		s0-0.1,0-0.2c0-0.6,0.2-1.2,0.5-1.5s0.8-0.6,1.4-0.6c0.4,0,0.6,0.1,0.9,0.2s0.5,0.3,0.7,0.4s0.4,0.3,0.6,0.4
		c0.2,0.1,0.4,0.2,0.6,0.2c0.2,0,0.4-0.1,0.5-0.3s0.2-0.4,0.2-0.8c0-0.1,0-0.2,0.1-0.2s0.2,0,0.4,0c0.2,0,0.4,0,0.5,0.1
		S232.8,299.4,232.8,299.6z M231.3,308.2h-1.4c-0.4,0-0.8,0-1.1,0.1c-0.3,0.1-0.6,0.2-0.8,0.3s-0.4,0.3-0.5,0.5s-0.1,0.4-0.1,0.7
		c0,0.5,0.1,0.8,0.4,1.1c0.3,0.3,0.7,0.4,1.2,0.4c0.4,0,0.8-0.1,1.2-0.3s0.7-0.5,1.1-1L231.3,308.2L231.3,308.2z"/>
	<path class="st3" d="M243.9,307.7c0,0.7-0.1,1.4-0.3,2s-0.5,1.1-0.8,1.6s-0.8,0.8-1.4,1c-0.6,0.2-1.2,0.4-2,0.4
		c-0.7,0-1.4-0.1-1.9-0.3s-1-0.5-1.3-0.9s-0.6-0.9-0.8-1.5s-0.3-1.3-0.3-2c0-0.7,0.1-1.4,0.3-2s0.5-1.1,0.8-1.6
		c0.4-0.4,0.8-0.8,1.4-1c0.6-0.2,1.2-0.4,2-0.4c0.7,0,1.4,0.1,1.9,0.3s1,0.5,1.3,0.9c0.4,0.4,0.6,0.9,0.8,1.5
		C243.8,306.3,243.9,307,243.9,307.7z M242.2,307.8c0-0.5,0-0.9-0.1-1.4s-0.2-0.8-0.4-1.1c-0.2-0.3-0.5-0.6-0.8-0.8
		s-0.8-0.3-1.3-0.3c-0.5,0-0.9,0.1-1.2,0.3s-0.6,0.4-0.9,0.7s-0.4,0.7-0.5,1.1s-0.2,0.9-0.2,1.4c0,0.5,0,0.9,0.1,1.4
		c0.1,0.4,0.2,0.8,0.4,1.1c0.2,0.3,0.5,0.6,0.8,0.8s0.8,0.3,1.3,0.3c0.5,0,0.9-0.1,1.2-0.3c0.4-0.2,0.6-0.4,0.9-0.7s0.4-0.7,0.5-1.1
		C242.1,308.8,242.2,308.3,242.2,307.8z"/>
	<path class="st3" d="M258.3,312.2c0,0,0,0.1,0,0.1s-0.1,0.1-0.1,0.1s-0.1,0-0.2,0s-0.2,0-0.3,0c-0.1,0-0.3,0-0.3,0s-0.2,0-0.2,0
		s-0.1,0-0.1-0.1s0-0.1,0-0.1V311c-0.5,0.5-0.9,0.9-1.4,1.2s-1,0.4-1.6,0.4c-0.6,0-1.2-0.1-1.6-0.4s-0.8-0.6-1.1-1s-0.5-0.9-0.6-1.5
		c-0.1-0.6-0.2-1.2-0.2-1.8c0-0.8,0.1-1.4,0.2-2s0.4-1.1,0.7-1.6s0.7-0.8,1.2-1s1-0.4,1.6-0.4c0.5,0,1,0.1,1.4,0.3s0.8,0.5,1.3,1
		v-5.1c0,0,0-0.1,0-0.1s0.1-0.1,0.1-0.1s0.1,0,0.3-0.1s0.2,0,0.4,0s0.3,0,0.4,0s0.2,0,0.2,0.1s0.1,0.1,0.1,0.1s0,0.1,0,0.1
		L258.3,312.2L258.3,312.2z M256.6,306c-0.4-0.5-0.9-1-1.3-1.2s-0.8-0.4-1.3-0.4c-0.4,0-0.8,0.1-1,0.3s-0.5,0.5-0.7,0.8
		s-0.3,0.7-0.4,1.1s-0.1,0.8-0.1,1.2c0,0.4,0,0.9,0.1,1.3s0.2,0.8,0.4,1.1s0.4,0.6,0.7,0.8s0.6,0.3,1.1,0.3c0.2,0,0.4,0,0.6-0.1
		s0.4-0.2,0.6-0.3s0.4-0.3,0.6-0.5c0.2-0.2,0.5-0.5,0.7-0.8V306z"/>
	<path class="st3" d="M291.9,303.5c0,0.6-0.1,1.2-0.3,1.7s-0.5,0.9-0.9,1.3s-0.9,0.6-1.4,0.8s-1.2,0.3-2,0.3h-1.4v4.5
		c0,0,0,0.1,0,0.1s-0.1,0.1-0.1,0.1s-0.1,0-0.3,0.1s-0.2,0-0.4,0s-0.3,0-0.4,0s-0.2,0-0.3-0.1s-0.1,0-0.1-0.1s0-0.1,0-0.1v-11.7
		c0-0.3,0.1-0.5,0.2-0.6s0.3-0.2,0.5-0.2h2.7c0.3,0,0.5,0,0.8,0s0.5,0.1,0.9,0.1s0.7,0.2,1,0.4s0.7,0.5,0.9,0.8s0.4,0.6,0.6,1
		S291.9,303,291.9,303.5z M290.1,303.6c0-0.5-0.1-0.9-0.3-1.3s-0.4-0.6-0.7-0.8s-0.6-0.3-0.9-0.3s-0.6-0.1-0.9-0.1h-1.5v5.1h1.5
		c0.5,0,0.9-0.1,1.3-0.2s0.6-0.3,0.8-0.5s0.4-0.5,0.5-0.8S290.1,304,290.1,303.6z"/>
	<path class="st3" d="M301.4,307.4c0,0.3-0.1,0.4-0.2,0.5s-0.3,0.2-0.4,0.2H295c0,0.5,0,0.9,0.1,1.3s0.3,0.7,0.5,1
		c0.2,0.3,0.5,0.5,0.9,0.6c0.4,0.1,0.8,0.2,1.3,0.2c0.4,0,0.8,0,1.1-0.1s0.6-0.1,0.9-0.2c0.2-0.1,0.4-0.2,0.6-0.2
		c0.1-0.1,0.3-0.1,0.4-0.1c0,0,0.1,0,0.1,0s0.1,0.1,0.1,0.1s0,0.1,0,0.2s0,0.2,0,0.3c0,0.1,0,0.2,0,0.2s0,0.1,0,0.2s0,0.1,0,0.1
		s0,0.1-0.1,0.1s-0.1,0.1-0.3,0.2s-0.4,0.2-0.7,0.2s-0.6,0.1-1,0.2s-0.8,0.1-1.2,0.1c-0.7,0-1.4-0.1-1.9-0.3s-1-0.5-1.4-0.9
		s-0.6-0.9-0.8-1.5s-0.3-1.3-0.3-2.1c0-0.8,0.1-1.4,0.3-2s0.5-1.1,0.8-1.5s0.8-0.7,1.3-1s1.1-0.3,1.8-0.3c0.7,0,1.3,0.1,1.8,0.3
		s0.9,0.5,1.2,0.9s0.5,0.8,0.7,1.3s0.2,1,0.2,1.6L301.4,307.4L301.4,307.4z M299.8,306.9c0-0.9-0.2-1.5-0.6-2
		c-0.4-0.5-1-0.7-1.8-0.7c-0.4,0-0.8,0.1-1,0.2c-0.3,0.1-0.5,0.4-0.8,0.6s-0.4,0.5-0.5,0.9s-0.2,0.7-0.2,1H299.8z"/>
	<path class="st3" d="M308.8,304c0,0.1,0,0.3,0,0.4s0,0.2,0,0.2s0,0.1-0.1,0.1s-0.1,0-0.1,0s-0.1,0-0.2,0s-0.2-0.1-0.3-0.1
		s-0.2-0.1-0.3-0.1s-0.2,0-0.4,0c-0.2,0-0.3,0-0.5,0.1s-0.3,0.2-0.5,0.3s-0.4,0.4-0.5,0.6s-0.4,0.5-0.6,0.9v5.8c0,0,0,0.1,0,0.1
		s-0.1,0.1-0.1,0.1s-0.1,0-0.2,0.1s-0.2,0-0.4,0s-0.3,0-0.4,0s-0.2,0-0.3-0.1s-0.1-0.1-0.1-0.1s0-0.1,0-0.1v-8.8c0,0,0-0.1,0-0.1
		s0.1-0.1,0.1-0.1s0.1,0,0.2-0.1s0.2,0,0.4,0c0.1,0,0.3,0,0.4,0s0.2,0,0.2,0.1s0.1,0.1,0.1,0.1s0,0.1,0,0.1v1.3
		c0.2-0.4,0.5-0.6,0.7-0.9s0.4-0.4,0.6-0.5s0.4-0.2,0.6-0.3s0.4-0.1,0.6-0.1c0.1,0,0.2,0,0.3,0s0.2,0,0.3,0s0.2,0.1,0.3,0.1
		s0.2,0.1,0.2,0.1s0.1,0.1,0.1,0.1s0,0.1,0,0.1s0,0.1,0,0.2S308.8,303.8,308.8,304z"/>
	<path class="st3" d="M316.2,309.8c0,0.5-0.1,0.9-0.3,1.2s-0.4,0.6-0.7,0.9s-0.7,0.4-1.1,0.5s-0.9,0.2-1.4,0.2c-0.3,0-0.6,0-0.9-0.1
		s-0.5-0.1-0.8-0.2s-0.4-0.1-0.6-0.2s-0.3-0.1-0.3-0.2s-0.1-0.2-0.2-0.3s0-0.3,0-0.5c0-0.1,0-0.2,0-0.3s0-0.1,0-0.2s0-0.1,0.1-0.1
		s0.1,0,0.1,0c0.1,0,0.2,0,0.3,0.1s0.3,0.2,0.5,0.3s0.5,0.2,0.7,0.3s0.6,0.1,1,0.1c0.3,0,0.5,0,0.7-0.1s0.4-0.1,0.6-0.3
		s0.3-0.3,0.4-0.4s0.1-0.4,0.1-0.6s-0.1-0.5-0.2-0.6s-0.3-0.3-0.5-0.5s-0.4-0.3-0.7-0.4s-0.5-0.2-0.8-0.3s-0.5-0.2-0.8-0.4
		s-0.5-0.3-0.7-0.5s-0.4-0.4-0.5-0.7s-0.2-0.6-0.2-1c0-0.3,0.1-0.7,0.2-1s0.3-0.6,0.6-0.8s0.6-0.4,1-0.6s0.9-0.2,1.4-0.2
		c0.2,0,0.5,0,0.7,0.1s0.5,0.1,0.6,0.1s0.4,0.1,0.5,0.2s0.2,0.1,0.3,0.2s0.1,0.1,0.1,0.1s0,0.1,0,0.1s0,0.1,0,0.2s0,0.2,0,0.3
		c0,0.1,0,0.2,0,0.3s0,0.1,0,0.2s0,0.1-0.1,0.1s-0.1,0-0.1,0c-0.1,0-0.1,0-0.3-0.1s-0.3-0.1-0.4-0.2s-0.4-0.2-0.6-0.2
		s-0.5-0.1-0.8-0.1c-0.3,0-0.5,0-0.7,0.1s-0.4,0.1-0.5,0.3s-0.2,0.3-0.3,0.4s-0.1,0.3-0.1,0.5c0,0.3,0.1,0.5,0.2,0.6
		s0.3,0.3,0.5,0.5s0.5,0.3,0.7,0.4s0.5,0.2,0.8,0.3s0.5,0.2,0.8,0.4s0.5,0.3,0.7,0.5s0.4,0.4,0.5,0.7S316.2,309.4,316.2,309.8z"/>
	<path class="st3" d="M326.6,307.7c0,0.7-0.1,1.4-0.3,2s-0.5,1.1-0.8,1.6s-0.8,0.8-1.4,1s-1.2,0.4-2,0.4c-0.7,0-1.4-0.1-1.9-0.3
		s-1-0.5-1.3-0.9s-0.6-0.9-0.8-1.5s-0.3-1.3-0.3-2c0-0.7,0.1-1.4,0.3-2s0.5-1.1,0.8-1.6s0.8-0.8,1.4-1s1.2-0.4,2-0.4
		c0.7,0,1.4,0.1,1.9,0.3s1,0.5,1.3,0.9s0.6,0.9,0.8,1.5S326.6,307,326.6,307.7z M324.9,307.8c0-0.5,0-0.9-0.1-1.4s-0.2-0.8-0.4-1.1
		c-0.2-0.3-0.5-0.6-0.8-0.8s-0.8-0.3-1.3-0.3c-0.5,0-0.9,0.1-1.2,0.3s-0.6,0.4-0.9,0.7s-0.4,0.7-0.5,1.1s-0.2,0.9-0.2,1.4
		c0,0.5,0,0.9,0.1,1.4s0.2,0.8,0.4,1.1s0.5,0.6,0.8,0.8c0.4,0.2,0.8,0.3,1.3,0.3c0.5,0,0.9-0.1,1.2-0.3s0.6-0.4,0.9-0.7
		s0.4-0.7,0.5-1.1C324.9,308.8,324.9,308.3,324.9,307.8z"/>
	<path class="st3" d="M336.4,312.2c0,0,0,0.1,0,0.1s-0.1,0.1-0.1,0.1s-0.1,0-0.2,0.1s-0.2,0-0.4,0s-0.3,0-0.4,0s-0.2,0-0.2-0.1
		s-0.1-0.1-0.1-0.1s0-0.1,0-0.1V307c0-0.5,0-0.9-0.1-1.2s-0.2-0.6-0.3-0.8s-0.3-0.4-0.6-0.5s-0.5-0.2-0.8-0.2
		c-0.4,0-0.8,0.1-1.2,0.4s-0.8,0.7-1.3,1.3v6.1c0,0,0,0.1,0,0.1s-0.1,0.1-0.1,0.1s-0.1,0-0.2,0.1s-0.2,0-0.4,0s-0.3,0-0.4,0
		s-0.2,0-0.3-0.1s-0.1-0.1-0.1-0.1s0-0.1,0-0.1v-8.8c0,0,0-0.1,0-0.1s0.1-0.1,0.1-0.1s0.1,0,0.2-0.1s0.2,0,0.4,0c0.1,0,0.3,0,0.4,0
		s0.2,0,0.2,0.1s0.1,0.1,0.1,0.1s0,0.1,0,0.1v1.2c0.5-0.5,1-1,1.5-1.2s1-0.4,1.5-0.4c0.6,0,1.1,0.1,1.5,0.3s0.7,0.5,1,0.8
		s0.4,0.7,0.5,1.2s0.2,1,0.2,1.6L336.4,312.2L336.4,312.2z"/>
	<path class="st3" d="M345.7,312.2c0,0.1,0,0.1-0.1,0.2s-0.1,0.1-0.2,0.1s-0.2,0-0.4,0c-0.2,0-0.3,0-0.4,0s-0.2,0-0.2-0.1
		s-0.1-0.1-0.1-0.2v-0.9c-0.4,0.4-0.8,0.7-1.3,1s-1,0.3-1.5,0.3c-0.5,0-0.9-0.1-1.3-0.2s-0.7-0.3-1-0.5s-0.5-0.5-0.6-0.8
		s-0.2-0.7-0.2-1.1c0-0.5,0.1-0.9,0.3-1.3s0.5-0.7,0.9-0.9s0.8-0.4,1.4-0.5s1.2-0.2,1.9-0.2h1.2v-0.7c0-0.3,0-0.6-0.1-0.9
		s-0.2-0.5-0.4-0.6s-0.4-0.3-0.6-0.4s-0.6-0.1-0.9-0.1c-0.4,0-0.8,0-1.1,0.1s-0.6,0.2-0.8,0.3s-0.4,0.2-0.6,0.3s-0.3,0.1-0.4,0.1
		c0,0-0.1,0-0.1,0s-0.1-0.1-0.1-0.1s0-0.1-0.1-0.2s0-0.2,0-0.3c0-0.2,0-0.3,0-0.4s0.1-0.2,0.2-0.3s0.2-0.2,0.5-0.3s0.5-0.2,0.7-0.3
		s0.6-0.2,0.9-0.2s0.7-0.1,1-0.1c0.6,0,1.2,0.1,1.6,0.2s0.8,0.4,1.1,0.6s0.5,0.6,0.6,1s0.2,0.9,0.2,1.4L345.7,312.2L345.7,312.2z
		 M344.1,308.2h-1.4c-0.4,0-0.8,0-1.1,0.1s-0.6,0.2-0.8,0.3s-0.4,0.3-0.5,0.5s-0.1,0.4-0.1,0.7c0,0.5,0.1,0.8,0.4,1.1
		s0.7,0.4,1.2,0.4c0.4,0,0.8-0.1,1.2-0.3s0.7-0.5,1.1-1L344.1,308.2L344.1,308.2z"/>
	<path class="st3" d="M267.7,312.2c0,0.1,0,0.1-0.1,0.2s-0.1,0.1-0.2,0.1s-0.2,0-0.4,0c-0.2,0-0.3,0-0.4,0s-0.2,0-0.2-0.1
		s-0.1-0.1-0.1-0.2v-0.9c-0.4,0.4-0.8,0.7-1.3,1s-1,0.3-1.5,0.3c-0.5,0-0.9-0.1-1.3-0.2s-0.7-0.3-1-0.5s-0.5-0.5-0.6-0.8
		s-0.2-0.7-0.2-1.1c0-0.5,0.1-0.9,0.3-1.3s0.5-0.7,0.9-0.9s0.8-0.4,1.4-0.5s1.2-0.2,1.9-0.2h1.2v-0.7c0-0.3,0-0.6-0.1-0.9
		s-0.2-0.5-0.4-0.6s-0.4-0.3-0.6-0.4s-0.6-0.1-0.9-0.1c-0.4,0-0.8,0-1.1,0.1s-0.6,0.2-0.8,0.3s-0.4,0.2-0.6,0.3s-0.3,0.1-0.4,0.1
		c0,0-0.1,0-0.1,0s-0.1-0.1-0.1-0.1s0-0.1-0.1-0.2s0-0.2,0-0.3c0-0.2,0-0.3,0-0.4s0.1-0.2,0.2-0.3s0.2-0.2,0.5-0.3s0.5-0.2,0.7-0.3
		s0.6-0.2,0.9-0.2s0.7-0.1,1-0.1c0.6,0,1.2,0.1,1.6,0.2s0.8,0.4,1.1,0.6s0.5,0.6,0.6,1s0.2,0.9,0.2,1.4L267.7,312.2L267.7,312.2z
		 M266.1,308.2h-1.4c-0.4,0-0.8,0-1.1,0.1s-0.6,0.2-0.8,0.3s-0.4,0.3-0.5,0.5s-0.1,0.4-0.1,0.7c0,0.5,0.1,0.8,0.4,1.1
		s0.7,0.4,1.2,0.4c0.4,0,0.8-0.1,1.2-0.3s0.7-0.5,1.1-1L266.1,308.2L266.1,308.2z"/>
	<path class="st3" d="M354,309.8c0,0.5-0.1,0.9-0.3,1.2s-0.4,0.6-0.7,0.9s-0.7,0.4-1.1,0.5s-0.9,0.2-1.4,0.2c-0.3,0-0.6,0-0.9-0.1
		s-0.5-0.1-0.8-0.2s-0.4-0.1-0.6-0.2s-0.3-0.1-0.3-0.2s-0.1-0.2-0.2-0.3s0-0.3,0-0.5c0-0.1,0-0.2,0-0.3s0-0.1,0-0.2s0-0.1,0.1-0.1
		s0.1,0,0.1,0c0.1,0,0.2,0,0.3,0.1s0.3,0.2,0.5,0.3s0.5,0.2,0.7,0.3s0.6,0.1,1,0.1c0.3,0,0.5,0,0.7-0.1s0.4-0.1,0.6-0.3
		s0.3-0.3,0.4-0.4s0.1-0.4,0.1-0.6s-0.1-0.5-0.2-0.6s-0.3-0.3-0.5-0.5s-0.4-0.3-0.7-0.4s-0.5-0.2-0.8-0.3s-0.5-0.2-0.8-0.4
		s-0.5-0.3-0.7-0.5s-0.4-0.4-0.5-0.7s-0.2-0.6-0.2-1c0-0.3,0.1-0.7,0.2-1s0.3-0.6,0.6-0.8s0.6-0.4,1-0.6s0.9-0.2,1.4-0.2
		c0.2,0,0.5,0,0.7,0.1s0.5,0.1,0.6,0.1s0.4,0.1,0.5,0.2s0.2,0.1,0.3,0.2s0.1,0.1,0.1,0.1s0,0.1,0,0.1s0,0.1,0,0.2s0,0.2,0,0.3
		c0,0.1,0,0.2,0,0.3s0,0.1,0,0.2s0,0.1-0.1,0.1s-0.1,0-0.1,0c-0.1,0-0.1,0-0.3-0.1s-0.3-0.1-0.4-0.2s-0.4-0.2-0.6-0.2
		s-0.5-0.1-0.8-0.1c-0.3,0-0.5,0-0.7,0.1s-0.4,0.1-0.5,0.3s-0.2,0.3-0.3,0.4s-0.1,0.3-0.1,0.5c0,0.3,0.1,0.5,0.2,0.6
		s0.3,0.3,0.5,0.5s0.5,0.3,0.7,0.4s0.5,0.2,0.8,0.3s0.5,0.2,0.8,0.4s0.5,0.3,0.7,0.5s0.4,0.4,0.5,0.7S354,309.4,354,309.8z"/>
	<path class="st3" d="M276,309.8c0,0.5-0.1,0.9-0.3,1.2s-0.4,0.6-0.7,0.9s-0.7,0.4-1.1,0.5s-0.9,0.2-1.4,0.2c-0.3,0-0.6,0-0.9-0.1
		s-0.5-0.1-0.8-0.2s-0.4-0.1-0.6-0.2s-0.3-0.1-0.3-0.2s-0.1-0.2-0.2-0.3s0-0.3,0-0.5c0-0.1,0-0.2,0-0.3s0-0.1,0-0.2s0-0.1,0.1-0.1
		s0.1,0,0.1,0c0.1,0,0.2,0,0.3,0.1s0.3,0.2,0.5,0.3s0.5,0.2,0.7,0.3s0.6,0.1,1,0.1c0.3,0,0.5,0,0.7-0.1s0.4-0.1,0.6-0.3
		s0.3-0.3,0.4-0.4s0.1-0.4,0.1-0.6s-0.1-0.5-0.2-0.6s-0.3-0.3-0.5-0.5s-0.4-0.3-0.7-0.4s-0.5-0.2-0.8-0.3s-0.5-0.2-0.8-0.4
		s-0.5-0.3-0.7-0.5s-0.4-0.4-0.5-0.7s-0.2-0.6-0.2-1c0-0.3,0.1-0.7,0.2-1s0.3-0.6,0.6-0.8s0.6-0.4,1-0.6s0.9-0.2,1.4-0.2
		c0.2,0,0.5,0,0.7,0.1s0.5,0.1,0.6,0.1s0.4,0.1,0.5,0.2s0.2,0.1,0.3,0.2s0.1,0.1,0.1,0.1s0,0.1,0,0.1s0,0.1,0,0.2s0,0.2,0,0.3
		c0,0.1,0,0.2,0,0.3s0,0.1,0,0.2s0,0.1-0.1,0.1s-0.1,0-0.1,0c-0.1,0-0.1,0-0.3-0.1s-0.3-0.1-0.4-0.2s-0.4-0.2-0.6-0.2
		s-0.5-0.1-0.8-0.1c-0.3,0-0.5,0-0.7,0.1s-0.4,0.1-0.5,0.3s-0.2,0.3-0.3,0.4s-0.1,0.3-0.1,0.5c0,0.3,0.1,0.5,0.2,0.6
		s0.3,0.3,0.5,0.5s0.5,0.3,0.7,0.4s0.5,0.2,0.8,0.3s0.5,0.2,0.8,0.4s0.5,0.3,0.7,0.5s0.4,0.4,0.5,0.7S276,309.4,276,309.8z"/>
</g>
<g>
	<path class="st3" d="M101.8,344.7c0,0.1,0,0.2,0,0.3c0,0.1,0,0.2-0.1,0.2s-0.1,0.1-0.1,0.1s-0.1,0-0.1,0h-6.1c-0.2,0-0.3,0-0.4-0.1
		s-0.2-0.3-0.2-0.5v-11.3c0-0.3,0.1-0.4,0.2-0.5s0.3-0.1,0.4-0.1h6c0.1,0,0.1,0,0.1,0s0.1,0.1,0.1,0.1c0,0.1,0.1,0.1,0.1,0.2
		c0,0.1,0,0.2,0,0.3c0,0.1,0,0.2,0,0.3c0,0.1,0,0.2-0.1,0.2c0,0.1-0.1,0.1-0.1,0.1c0,0-0.1,0-0.1,0h-4.9v4h4.2c0.1,0,0.1,0,0.1,0
		s0.1,0.1,0.1,0.1s0.1,0.1,0.1,0.2c0,0.1,0,0.2,0,0.3s0,0.2,0,0.3c0,0.1,0,0.1-0.1,0.2s-0.1,0.1-0.1,0.1c0,0-0.1,0-0.1,0h-4.2v4.5h5
		c0.1,0,0.1,0,0.1,0s0.1,0.1,0.1,0.1c0,0.1,0.1,0.1,0.1,0.2C101.8,344.5,101.8,344.6,101.8,344.7z"/>
	<path class="st3" d="M109.8,342.8c0,0.5-0.1,0.9-0.3,1.2s-0.4,0.6-0.7,0.9c-0.3,0.2-0.7,0.4-1.1,0.5c-0.4,0.1-0.9,0.2-1.4,0.2
		c-0.3,0-0.6,0-0.9-0.1s-0.5-0.1-0.8-0.2s-0.4-0.1-0.6-0.2s-0.3-0.1-0.3-0.2s-0.1-0.2-0.2-0.3c0-0.1-0.1-0.3-0.1-0.5
		c0-0.1,0-0.2,0-0.3c0-0.1,0-0.1,0.1-0.2s0.1-0.1,0.1-0.1c0,0,0.1,0,0.1,0c0.1,0,0.2,0,0.3,0.1s0.3,0.2,0.5,0.3s0.4,0.2,0.7,0.3
		c0.3,0.1,0.6,0.1,1,0.1c0.3,0,0.5,0,0.7-0.1s0.4-0.1,0.6-0.3c0.2-0.1,0.3-0.3,0.4-0.4s0.1-0.4,0.1-0.6s-0.1-0.5-0.2-0.6
		s-0.3-0.3-0.5-0.5s-0.4-0.3-0.7-0.4c-0.3-0.1-0.5-0.2-0.8-0.3c-0.3-0.1-0.6-0.2-0.8-0.4s-0.5-0.3-0.7-0.5s-0.4-0.4-0.5-0.7
		s-0.2-0.6-0.2-1c0-0.3,0.1-0.7,0.2-1c0.1-0.3,0.3-0.6,0.6-0.8s0.6-0.4,1-0.6s0.9-0.2,1.4-0.2c0.2,0,0.5,0,0.7,0.1s0.4,0.1,0.6,0.1
		c0.2,0.1,0.3,0.1,0.5,0.2c0.1,0.1,0.2,0.1,0.3,0.2s0.1,0.1,0.1,0.1c0,0,0,0.1,0.1,0.1s0,0.1,0,0.2s0,0.2,0,0.3c0,0.1,0,0.2,0,0.3
		s0,0.1-0.1,0.2c0,0-0.1,0.1-0.1,0.1s-0.1,0-0.1,0c-0.1,0-0.1,0-0.3-0.1c-0.1-0.1-0.3-0.1-0.4-0.2s-0.4-0.2-0.6-0.2
		c-0.2-0.1-0.5-0.1-0.8-0.1c-0.3,0-0.5,0-0.7,0.1s-0.4,0.1-0.5,0.3c-0.1,0.1-0.2,0.3-0.3,0.4s-0.1,0.3-0.1,0.5
		c0,0.3,0.1,0.5,0.2,0.6c0.1,0.2,0.3,0.3,0.5,0.5s0.4,0.3,0.7,0.4c0.3,0.1,0.5,0.2,0.8,0.3c0.3,0.1,0.6,0.2,0.8,0.4
		c0.3,0.1,0.5,0.3,0.7,0.5s0.4,0.4,0.5,0.7S109.8,342.4,109.8,342.8z"/>
	<path class="st3" d="M116.7,344.5c0,0.2,0,0.3,0,0.5c0,0.1-0.1,0.2-0.1,0.2s-0.1,0.1-0.2,0.1c-0.1,0-0.2,0.1-0.4,0.1
		c-0.1,0-0.3,0-0.4,0.1c-0.2,0-0.3,0-0.4,0c-0.5,0-0.8-0.1-1.2-0.2c-0.3-0.1-0.6-0.3-0.8-0.5c-0.2-0.2-0.4-0.5-0.4-0.9
		c-0.1-0.4-0.1-0.8-0.1-1.3v-5.1h-1.2c-0.1,0-0.2,0-0.2-0.2s-0.1-0.3-0.1-0.5c0-0.1,0-0.2,0-0.3c0-0.1,0-0.1,0.1-0.2
		c0-0.1,0.1-0.1,0.1-0.1c0,0,0.1,0,0.1,0h1.2V334c0,0,0-0.1,0-0.1s0.1-0.1,0.1-0.1c0.1,0,0.1,0,0.3-0.1c0.1,0,0.2,0,0.4,0
		c0.2,0,0.3,0,0.4,0c0.1,0,0.2,0,0.2,0.1s0.1,0.1,0.1,0.1s0,0.1,0,0.1v2.1h2.3c0.1,0,0.1,0,0.1,0s0.1,0.1,0.1,0.1s0.1,0.1,0.1,0.2
		c0,0.1,0,0.2,0,0.3c0,0.2,0,0.4-0.1,0.5s-0.1,0.2-0.2,0.2h-2.3v4.9c0,0.6,0.1,1.1,0.3,1.4s0.5,0.5,1,0.5c0.2,0,0.3,0,0.4,0
		s0.2-0.1,0.3-0.1s0.2-0.1,0.2-0.1c0.1,0,0.1,0,0.2,0c0,0,0.1,0,0.1,0s0.1,0,0.1,0.1c0,0,0,0.1,0,0.2
		C116.7,344.3,116.7,344.4,116.7,344.5z"/>
	<path class="st3" d="M126.8,340.7c0,0.7-0.1,1.4-0.3,2s-0.5,1.1-0.8,1.6c-0.4,0.4-0.8,0.8-1.4,1c-0.6,0.2-1.2,0.4-2,0.4
		c-0.7,0-1.3-0.1-1.9-0.3s-1-0.5-1.3-0.9c-0.4-0.4-0.6-0.9-0.8-1.5s-0.3-1.3-0.3-2c0-0.7,0.1-1.4,0.3-2s0.5-1.1,0.8-1.6
		c0.4-0.4,0.8-0.8,1.4-1c0.6-0.2,1.2-0.4,2-0.4c0.7,0,1.3,0.1,1.9,0.3s1,0.5,1.3,0.9c0.4,0.4,0.6,0.9,0.8,1.5
		C126.7,339.3,126.8,340,126.8,340.7z M125.1,340.8c0-0.5,0-0.9-0.1-1.4s-0.2-0.8-0.4-1.1c-0.2-0.3-0.5-0.6-0.8-0.8
		s-0.8-0.3-1.3-0.3c-0.5,0-0.9,0.1-1.2,0.3s-0.6,0.4-0.8,0.7s-0.4,0.7-0.5,1.1s-0.2,0.9-0.2,1.4c0,0.5,0,0.9,0.1,1.4
		c0.1,0.4,0.2,0.8,0.4,1.1c0.2,0.3,0.5,0.6,0.8,0.8s0.8,0.3,1.3,0.3c0.5,0,0.9-0.1,1.2-0.3c0.3-0.2,0.6-0.4,0.9-0.7s0.4-0.7,0.5-1.1
		C125,341.8,125.1,341.3,125.1,340.8z M123.2,332.1c0-0.1,0.1-0.1,0.1-0.2c0.1,0,0.1-0.1,0.2-0.1c0.1,0,0.2,0,0.3-0.1s0.2,0,0.4,0
		c0.2,0,0.3,0,0.4,0s0.2,0.1,0.2,0.1c0.1,0,0.1,0.1,0.1,0.1s0,0.1-0.1,0.2l-1.8,2.3c-0.1,0.1-0.1,0.1-0.1,0.2s-0.1,0.1-0.2,0.1
		c-0.1,0-0.1,0-0.2,0s-0.2,0-0.3,0c-0.1,0-0.3,0-0.3,0c-0.1,0-0.1,0-0.2-0.1s-0.1-0.1,0-0.1s0-0.1,0.1-0.2L123.2,332.1z"/>
	<path class="st3" d="M134.2,337c0,0.1,0,0.3,0,0.4c0,0.1,0,0.2,0,0.2s0,0.1-0.1,0.1c0,0-0.1,0-0.1,0s-0.1,0-0.2,0
		c-0.1,0-0.2-0.1-0.3-0.1s-0.2-0.1-0.3-0.1c-0.1,0-0.2,0-0.4,0c-0.2,0-0.3,0-0.5,0.1c-0.2,0.1-0.3,0.2-0.5,0.3
		c-0.2,0.1-0.4,0.4-0.5,0.6c-0.2,0.3-0.4,0.5-0.6,0.9v5.8c0,0,0,0.1,0,0.1c0,0-0.1,0.1-0.1,0.1s-0.1,0-0.2,0.1s-0.2,0-0.4,0
		c-0.2,0-0.3,0-0.4,0c-0.1,0-0.2,0-0.3-0.1s-0.1-0.1-0.1-0.1c0,0,0-0.1,0-0.1v-8.8c0,0,0-0.1,0-0.1c0,0,0.1-0.1,0.1-0.1
		s0.1,0,0.2-0.1s0.2,0,0.4,0c0.1,0,0.3,0,0.4,0c0.1,0,0.2,0,0.2,0.1c0.1,0,0.1,0.1,0.1,0.1c0,0,0,0.1,0,0.1v1.3
		c0.2-0.4,0.5-0.6,0.7-0.9c0.2-0.2,0.4-0.4,0.6-0.5c0.2-0.1,0.4-0.2,0.6-0.3s0.4-0.1,0.6-0.1c0.1,0,0.2,0,0.3,0c0.1,0,0.2,0,0.3,0
		s0.2,0.1,0.3,0.1c0.1,0,0.2,0.1,0.2,0.1c0,0,0.1,0.1,0.1,0.1c0,0,0,0.1,0,0.1c0,0,0,0.1,0,0.2C134.2,336.7,134.2,336.8,134.2,337z"
		/>
	<path class="st3" d="M137.7,333.4c0,0.4-0.1,0.6-0.2,0.8c-0.1,0.1-0.4,0.2-0.8,0.2c-0.4,0-0.6-0.1-0.8-0.2
		c-0.1-0.1-0.2-0.4-0.2-0.8c0-0.4,0.1-0.6,0.2-0.8c0.1-0.1,0.4-0.2,0.8-0.2c0.4,0,0.6,0.1,0.8,0.2
		C137.6,332.8,137.7,333,137.7,333.4z M137.5,345.2c0,0,0,0.1,0,0.1c0,0-0.1,0.1-0.1,0.1s-0.1,0-0.2,0.1s-0.2,0-0.4,0s-0.3,0-0.4,0
		c-0.1,0-0.2,0-0.3-0.1s-0.1-0.1-0.1-0.1c0,0,0-0.1,0-0.1v-8.8c0,0,0-0.1,0-0.1c0,0,0.1-0.1,0.1-0.1s0.1,0,0.3-0.1s0.2,0,0.4,0
		s0.3,0,0.4,0c0.1,0,0.2,0,0.2,0.1c0,0,0.1,0.1,0.1,0.1s0,0.1,0,0.1V345.2z"/>
	<path class="st3" d="M146.9,345.2c0,0.1,0,0.1-0.1,0.2c-0.1,0-0.1,0.1-0.2,0.1c-0.1,0-0.2,0-0.4,0c-0.2,0-0.3,0-0.4,0
		c-0.1,0-0.2,0-0.2-0.1c0,0-0.1-0.1-0.1-0.2v-0.9c-0.4,0.4-0.8,0.7-1.3,1c-0.5,0.2-1,0.3-1.5,0.3c-0.5,0-0.9-0.1-1.3-0.2
		c-0.4-0.1-0.7-0.3-1-0.5c-0.3-0.2-0.5-0.5-0.6-0.8s-0.2-0.7-0.2-1.1c0-0.5,0.1-0.9,0.3-1.3c0.2-0.4,0.5-0.7,0.9-0.9
		c0.4-0.2,0.8-0.4,1.4-0.5c0.5-0.1,1.2-0.2,1.9-0.2h1.2v-0.7c0-0.3,0-0.6-0.1-0.9c-0.1-0.3-0.2-0.5-0.4-0.6
		c-0.2-0.2-0.4-0.3-0.6-0.4s-0.6-0.1-0.9-0.1c-0.4,0-0.8,0-1.1,0.1c-0.3,0.1-0.6,0.2-0.8,0.3c-0.2,0.1-0.4,0.2-0.6,0.3
		s-0.3,0.1-0.4,0.1c-0.1,0-0.1,0-0.1,0c0,0-0.1-0.1-0.1-0.1s0-0.1-0.1-0.2c0-0.1,0-0.2,0-0.3c0-0.2,0-0.3,0-0.4
		c0-0.1,0.1-0.2,0.2-0.3s0.2-0.2,0.5-0.3s0.5-0.2,0.7-0.3s0.6-0.2,0.9-0.2c0.3-0.1,0.7-0.1,1-0.1c0.6,0,1.2,0.1,1.6,0.2
		c0.4,0.1,0.8,0.4,1.1,0.6c0.3,0.3,0.5,0.6,0.6,1c0.1,0.4,0.2,0.9,0.2,1.4L146.9,345.2L146.9,345.2z M145.3,341.2h-1.4
		c-0.4,0-0.8,0-1.1,0.1c-0.3,0.1-0.6,0.2-0.8,0.3s-0.4,0.3-0.5,0.5s-0.1,0.4-0.1,0.7c0,0.5,0.1,0.8,0.4,1.1c0.3,0.3,0.7,0.4,1.2,0.4
		c0.4,0,0.8-0.1,1.2-0.3s0.7-0.5,1.1-1L145.3,341.2L145.3,341.2z"/>
	<path class="st3" d="M170.9,345.2c0,0,0,0.1,0,0.1s-0.1,0.1-0.1,0.1s-0.1,0-0.2,0c-0.1,0-0.2,0-0.3,0c-0.1,0-0.3,0-0.3,0
		c-0.1,0-0.2,0-0.2,0s-0.1,0-0.1-0.1s0-0.1,0-0.1V344c-0.5,0.5-0.9,0.9-1.4,1.2s-1,0.4-1.6,0.4c-0.6,0-1.2-0.1-1.6-0.4
		c-0.5-0.3-0.8-0.6-1.1-1s-0.5-0.9-0.6-1.5c-0.1-0.6-0.2-1.2-0.2-1.8c0-0.8,0.1-1.4,0.2-2s0.4-1.1,0.7-1.6s0.7-0.8,1.2-1
		c0.5-0.2,1-0.4,1.6-0.4c0.5,0,1,0.1,1.4,0.3c0.4,0.2,0.9,0.5,1.3,1v-5.1c0,0,0-0.1,0-0.1s0.1-0.1,0.1-0.1c0.1,0,0.1,0,0.3-0.1
		s0.2,0,0.4,0s0.3,0,0.4,0c0.1,0,0.2,0,0.2,0.1s0.1,0.1,0.1,0.1s0,0.1,0,0.1L170.9,345.2L170.9,345.2z M169.2,339
		c-0.4-0.5-0.9-1-1.3-1.2c-0.4-0.3-0.8-0.4-1.3-0.4c-0.4,0-0.8,0.1-1,0.3c-0.3,0.2-0.5,0.5-0.7,0.8c-0.2,0.3-0.3,0.7-0.4,1.1
		s-0.1,0.8-0.1,1.2c0,0.4,0,0.9,0.1,1.3s0.2,0.8,0.4,1.1c0.2,0.3,0.4,0.6,0.7,0.8s0.6,0.3,1.1,0.3c0.2,0,0.4,0,0.6-0.1
		s0.4-0.2,0.6-0.3c0.2-0.1,0.4-0.3,0.6-0.5c0.2-0.2,0.5-0.5,0.7-0.8L169.2,339L169.2,339z"/>
	<path class="st3" d="M181.9,340.7c0,0.7-0.1,1.4-0.3,2s-0.5,1.1-0.8,1.6s-0.8,0.8-1.4,1c-0.6,0.2-1.2,0.4-2,0.4
		c-0.7,0-1.4-0.1-1.9-0.3s-1-0.5-1.3-0.9s-0.6-0.9-0.8-1.5s-0.3-1.3-0.3-2c0-0.7,0.1-1.4,0.3-2s0.5-1.1,0.8-1.6
		c0.4-0.4,0.8-0.8,1.4-1c0.6-0.2,1.2-0.4,2-0.4c0.7,0,1.4,0.1,1.9,0.3s1,0.5,1.3,0.9c0.4,0.4,0.6,0.9,0.8,1.5
		C181.8,339.3,181.9,340,181.9,340.7z M180.2,340.8c0-0.5,0-0.9-0.1-1.4s-0.2-0.8-0.4-1.1c-0.2-0.3-0.5-0.6-0.8-0.8
		s-0.8-0.3-1.3-0.3c-0.5,0-0.9,0.1-1.2,0.3s-0.6,0.4-0.9,0.7s-0.4,0.7-0.5,1.1s-0.2,0.9-0.2,1.4c0,0.5,0,0.9,0.1,1.4
		c0.1,0.4,0.2,0.8,0.4,1.1c0.2,0.3,0.5,0.6,0.8,0.8s0.8,0.3,1.3,0.3c0.5,0,0.9-0.1,1.2-0.3c0.4-0.2,0.6-0.4,0.9-0.7s0.4-0.7,0.5-1.1
		C180.1,341.8,180.2,341.3,180.2,340.8z"/>
	<path class="st3" d="M189.6,342.8c0,0.5-0.1,0.9-0.3,1.2s-0.4,0.6-0.7,0.9c-0.3,0.2-0.7,0.4-1.1,0.5c-0.4,0.1-0.9,0.2-1.4,0.2
		c-0.3,0-0.6,0-0.9-0.1s-0.5-0.1-0.8-0.2s-0.4-0.1-0.6-0.2s-0.3-0.1-0.3-0.2c-0.1-0.1-0.1-0.2-0.2-0.3c0-0.1-0.1-0.3-0.1-0.5
		c0-0.1,0-0.2,0-0.3c0-0.1,0-0.1,0.1-0.2s0.1-0.1,0.1-0.1c0,0,0.1,0,0.1,0c0.1,0,0.2,0,0.3,0.1c0.1,0.1,0.3,0.2,0.5,0.3
		s0.4,0.2,0.7,0.3s0.6,0.1,1,0.1c0.3,0,0.5,0,0.7-0.1s0.4-0.1,0.6-0.3c0.2-0.1,0.3-0.3,0.4-0.4s0.1-0.4,0.1-0.6s-0.1-0.5-0.2-0.6
		s-0.3-0.3-0.5-0.5s-0.4-0.3-0.7-0.4s-0.5-0.2-0.8-0.3c-0.3-0.1-0.6-0.2-0.8-0.4s-0.5-0.3-0.7-0.5s-0.4-0.4-0.5-0.7s-0.2-0.6-0.2-1
		c0-0.3,0.1-0.7,0.2-1c0.1-0.3,0.3-0.6,0.6-0.8s0.6-0.4,1-0.6s0.9-0.2,1.4-0.2c0.2,0,0.5,0,0.7,0.1s0.4,0.1,0.6,0.1
		c0.2,0.1,0.4,0.1,0.5,0.2c0.1,0.1,0.2,0.1,0.3,0.2s0.1,0.1,0.1,0.1c0,0,0,0.1,0.1,0.1s0,0.1,0,0.2s0,0.2,0,0.3c0,0.1,0,0.2,0,0.3
		s0,0.1-0.1,0.2c0,0-0.1,0.1-0.1,0.1s-0.1,0-0.1,0c-0.1,0-0.1,0-0.3-0.1c-0.1-0.1-0.3-0.1-0.4-0.2s-0.4-0.2-0.6-0.2
		c-0.2-0.1-0.5-0.1-0.8-0.1c-0.3,0-0.5,0-0.7,0.1s-0.4,0.1-0.5,0.3c-0.1,0.1-0.2,0.3-0.3,0.4s-0.1,0.3-0.1,0.5
		c0,0.3,0.1,0.5,0.2,0.6c0.1,0.2,0.3,0.3,0.5,0.5c0.2,0.1,0.4,0.3,0.7,0.4c0.3,0.1,0.5,0.2,0.8,0.3c0.3,0.1,0.6,0.2,0.8,0.4
		c0.3,0.1,0.5,0.3,0.7,0.5s0.4,0.4,0.5,0.7S189.6,342.4,189.6,342.8z"/>
	<path class="st3" d="M155.2,342.8c0,0.5-0.1,0.9-0.3,1.2s-0.4,0.6-0.7,0.9c-0.3,0.2-0.7,0.4-1.1,0.5c-0.4,0.1-0.9,0.2-1.4,0.2
		c-0.3,0-0.6,0-0.9-0.1s-0.5-0.1-0.8-0.2s-0.4-0.1-0.6-0.2s-0.3-0.1-0.3-0.2c-0.1-0.1-0.1-0.2-0.2-0.3c0-0.1-0.1-0.3-0.1-0.5
		c0-0.1,0-0.2,0-0.3c0-0.1,0-0.1,0.1-0.2s0.1-0.1,0.1-0.1c0,0,0.1,0,0.1,0c0.1,0,0.2,0,0.3,0.1c0.1,0.1,0.3,0.2,0.5,0.3
		s0.4,0.2,0.7,0.3s0.6,0.1,1,0.1c0.3,0,0.5,0,0.7-0.1s0.4-0.1,0.6-0.3c0.2-0.1,0.3-0.3,0.4-0.4s0.1-0.4,0.1-0.6s-0.1-0.5-0.2-0.6
		s-0.3-0.3-0.5-0.5s-0.4-0.3-0.7-0.4s-0.5-0.2-0.8-0.3c-0.3-0.1-0.6-0.2-0.8-0.4s-0.5-0.3-0.7-0.5s-0.4-0.4-0.5-0.7s-0.2-0.6-0.2-1
		c0-0.3,0.1-0.7,0.2-1c0.1-0.3,0.3-0.6,0.6-0.8s0.6-0.4,1-0.6s0.9-0.2,1.4-0.2c0.2,0,0.5,0,0.7,0.1s0.4,0.1,0.6,0.1
		c0.2,0.1,0.4,0.1,0.5,0.2c0.1,0.1,0.2,0.1,0.3,0.2s0.1,0.1,0.1,0.1c0,0,0,0.1,0.1,0.1s0,0.1,0,0.2s0,0.2,0,0.3c0,0.1,0,0.2,0,0.3
		s0,0.1-0.1,0.2c0,0-0.1,0.1-0.1,0.1s-0.1,0-0.1,0c-0.1,0-0.1,0-0.3-0.1c-0.1-0.1-0.3-0.1-0.4-0.2s-0.4-0.2-0.6-0.2
		c-0.2-0.1-0.5-0.1-0.8-0.1c-0.3,0-0.5,0-0.7,0.1s-0.4,0.1-0.5,0.3c-0.1,0.1-0.2,0.3-0.3,0.4s-0.1,0.3-0.1,0.5
		c0,0.3,0.1,0.5,0.2,0.6c0.1,0.2,0.3,0.3,0.5,0.5c0.2,0.1,0.4,0.3,0.7,0.4c0.3,0.1,0.5,0.2,0.8,0.3c0.3,0.1,0.6,0.2,0.8,0.4
		c0.3,0.1,0.5,0.3,0.7,0.5s0.4,0.4,0.5,0.7S155.2,342.4,155.2,342.8z"/>
	<path class="st3" d="M203.9,345.2c0,0,0,0.1,0,0.1c0,0-0.1,0.1-0.1,0.1s-0.1,0-0.2,0.1c-0.1,0-0.2,0-0.4,0c-0.1,0-0.3,0-0.4,0
		c-0.1,0-0.2,0-0.2-0.1s-0.1-0.1-0.1-0.1s0-0.1,0-0.1V344c-0.5,0.5-1,1-1.5,1.2s-1,0.4-1.5,0.4c-0.6,0-1.1-0.1-1.5-0.3
		s-0.7-0.5-1-0.8c-0.3-0.3-0.4-0.7-0.5-1.2s-0.2-1-0.2-1.6v-5.3c0,0,0-0.1,0-0.1c0,0,0.1-0.1,0.1-0.1c0.1,0,0.1,0,0.3-0.1
		s0.2,0,0.4,0s0.3,0,0.4,0s0.2,0,0.3,0.1s0.1,0.1,0.1,0.1c0,0,0,0.1,0,0.1v5.1c0,0.5,0,0.9,0.1,1.2c0.1,0.3,0.2,0.6,0.3,0.8
		s0.4,0.4,0.6,0.5s0.5,0.2,0.8,0.2c0.4,0,0.8-0.1,1.2-0.4s0.8-0.7,1.3-1.3v-6.1c0,0,0-0.1,0-0.1c0,0,0.1-0.1,0.1-0.1
		c0.1,0,0.1,0,0.3-0.1s0.2,0,0.4,0c0.2,0,0.3,0,0.4,0s0.2,0,0.2,0.1s0.1,0.1,0.1,0.1s0,0.1,0,0.1L203.9,345.2L203.9,345.2z"/>
	<path class="st3" d="M212.3,342.8c0,0.5-0.1,0.9-0.3,1.2s-0.4,0.6-0.7,0.9c-0.3,0.2-0.7,0.4-1.1,0.5c-0.4,0.1-0.9,0.2-1.4,0.2
		c-0.3,0-0.6,0-0.9-0.1s-0.5-0.1-0.8-0.2s-0.4-0.1-0.6-0.2s-0.3-0.1-0.3-0.2c-0.1-0.1-0.1-0.2-0.2-0.3c0-0.1-0.1-0.3-0.1-0.5
		c0-0.1,0-0.2,0-0.3c0-0.1,0-0.1,0.1-0.2s0.1-0.1,0.1-0.1c0,0,0.1,0,0.1,0c0.1,0,0.2,0,0.3,0.1c0.1,0.1,0.3,0.2,0.5,0.3
		s0.4,0.2,0.7,0.3s0.6,0.1,1,0.1c0.3,0,0.5,0,0.7-0.1s0.4-0.1,0.6-0.3c0.2-0.1,0.3-0.3,0.4-0.4s0.1-0.4,0.1-0.6s-0.1-0.5-0.2-0.6
		s-0.3-0.3-0.5-0.5s-0.4-0.3-0.7-0.4s-0.5-0.2-0.8-0.3c-0.3-0.1-0.6-0.2-0.8-0.4s-0.5-0.3-0.7-0.5s-0.4-0.4-0.5-0.7s-0.2-0.6-0.2-1
		c0-0.3,0.1-0.7,0.2-1c0.1-0.3,0.3-0.6,0.6-0.8s0.6-0.4,1-0.6s0.9-0.2,1.4-0.2c0.2,0,0.5,0,0.7,0.1s0.4,0.1,0.6,0.1
		c0.2,0.1,0.4,0.1,0.5,0.2c0.1,0.1,0.2,0.1,0.3,0.2s0.1,0.1,0.1,0.1c0,0,0,0.1,0.1,0.1s0,0.1,0,0.2s0,0.2,0,0.3c0,0.1,0,0.2,0,0.3
		s0,0.1-0.1,0.2c0,0-0.1,0.1-0.1,0.1s-0.1,0-0.1,0c-0.1,0-0.1,0-0.3-0.1c-0.1-0.1-0.3-0.1-0.4-0.2s-0.4-0.2-0.6-0.2
		c-0.2-0.1-0.5-0.1-0.8-0.1c-0.3,0-0.5,0-0.7,0.1s-0.4,0.1-0.5,0.3c-0.1,0.1-0.2,0.3-0.3,0.4s-0.1,0.3-0.1,0.5
		c0,0.3,0.1,0.5,0.2,0.6c0.1,0.2,0.3,0.3,0.5,0.5c0.2,0.1,0.4,0.3,0.7,0.4c0.3,0.1,0.5,0.2,0.8,0.3c0.3,0.1,0.6,0.2,0.8,0.4
		c0.3,0.1,0.5,0.3,0.7,0.5s0.4,0.4,0.5,0.7S212.3,342.4,212.3,342.8z"/>
	<path class="st3" d="M221.8,345.2c0,0,0,0.1,0,0.1c0,0-0.1,0.1-0.1,0.1s-0.1,0-0.2,0.1s-0.2,0-0.4,0c-0.1,0-0.3,0-0.4,0
		c-0.1,0-0.2,0-0.2-0.1c-0.1,0-0.1-0.1-0.1-0.1s0-0.1,0-0.1V344c-0.5,0.5-1,1-1.5,1.2s-1,0.4-1.5,0.4c-0.6,0-1.1-0.1-1.5-0.3
		s-0.7-0.5-1-0.8c-0.3-0.3-0.4-0.7-0.5-1.2s-0.2-1-0.2-1.6v-5.3c0,0,0-0.1,0-0.1c0,0,0.1-0.1,0.1-0.1s0.1,0,0.3-0.1s0.2,0,0.4,0
		s0.3,0,0.4,0s0.2,0,0.3,0.1s0.1,0.1,0.1,0.1c0,0,0,0.1,0,0.1v5.1c0,0.5,0,0.9,0.1,1.2s0.2,0.6,0.3,0.8s0.4,0.4,0.6,0.5
		s0.5,0.2,0.8,0.2c0.4,0,0.8-0.1,1.2-0.4s0.8-0.7,1.3-1.3v-6.1c0,0,0-0.1,0-0.1c0,0,0.1-0.1,0.1-0.1s0.1,0,0.3-0.1s0.2,0,0.4,0
		c0.2,0,0.3,0,0.4,0s0.2,0,0.2,0.1s0.1,0.1,0.1,0.1s0,0.1,0,0.1L221.8,345.2L221.8,345.2z"/>
	<path class="st3" d="M231.2,345.2c0,0.1,0,0.1-0.1,0.2c-0.1,0-0.1,0.1-0.2,0.1c-0.1,0-0.2,0-0.4,0c-0.2,0-0.3,0-0.4,0
		c-0.1,0-0.2,0-0.2-0.1c0,0-0.1-0.1-0.1-0.2v-0.9c-0.4,0.4-0.8,0.7-1.3,1c-0.5,0.2-1,0.3-1.5,0.3c-0.5,0-0.9-0.1-1.3-0.2
		s-0.7-0.3-1-0.5s-0.5-0.5-0.6-0.8s-0.2-0.7-0.2-1.1c0-0.5,0.1-0.9,0.3-1.3c0.2-0.4,0.5-0.7,0.9-0.9c0.4-0.2,0.8-0.4,1.4-0.5
		s1.2-0.2,1.9-0.2h1.2v-0.7c0-0.3,0-0.6-0.1-0.9c-0.1-0.3-0.2-0.5-0.4-0.6c-0.2-0.2-0.4-0.3-0.6-0.4s-0.6-0.1-0.9-0.1
		c-0.4,0-0.8,0-1.1,0.1c-0.3,0.1-0.6,0.2-0.8,0.3s-0.4,0.2-0.6,0.3s-0.3,0.1-0.4,0.1c-0.1,0-0.1,0-0.1,0s-0.1-0.1-0.1-0.1
		s-0.1-0.1-0.1-0.2c0-0.1,0-0.2,0-0.3c0-0.2,0-0.3,0-0.4c0-0.1,0.1-0.2,0.2-0.3s0.2-0.2,0.4-0.3s0.5-0.2,0.7-0.3s0.6-0.2,0.9-0.2
		s0.7-0.1,1-0.1c0.6,0,1.2,0.1,1.6,0.2c0.4,0.1,0.8,0.4,1.1,0.6s0.5,0.6,0.6,1c0.1,0.4,0.2,0.9,0.2,1.4L231.2,345.2L231.2,345.2z
		 M229.6,341.2h-1.4c-0.4,0-0.8,0-1.1,0.1c-0.3,0.1-0.6,0.2-0.8,0.3s-0.4,0.3-0.5,0.5s-0.1,0.4-0.1,0.7c0,0.5,0.1,0.8,0.4,1.1
		c0.3,0.3,0.7,0.4,1.2,0.4c0.4,0,0.8-0.1,1.2-0.3s0.7-0.5,1.1-1L229.6,341.2L229.6,341.2z M228.6,332.1c0-0.1,0.1-0.1,0.1-0.2
		c0.1,0,0.1-0.1,0.2-0.1c0.1,0,0.2,0,0.3-0.1s0.2,0,0.4,0c0.2,0,0.3,0,0.4,0s0.2,0.1,0.2,0.1s0.1,0.1,0.1,0.1c0,0.1,0,0.1-0.1,0.2
		l-1.8,2.3c-0.1,0.1-0.1,0.1-0.1,0.2s-0.1,0.1-0.1,0.1c-0.1,0-0.1,0-0.2,0s-0.2,0-0.3,0c-0.1,0-0.3,0-0.3,0s-0.1,0-0.2-0.1
		s-0.1-0.1,0-0.1s0-0.1,0.1-0.2L228.6,332.1z"/>
	<path class="st3" d="M239.1,337c0,0.1,0,0.3,0,0.4c0,0.1,0,0.2,0,0.2s0,0.1-0.1,0.1s-0.1,0-0.1,0c-0.1,0-0.1,0-0.2,0
		c-0.1,0-0.2-0.1-0.3-0.1s-0.2-0.1-0.3-0.1s-0.2,0-0.4,0c-0.2,0-0.3,0-0.5,0.1s-0.3,0.2-0.5,0.3s-0.4,0.4-0.5,0.6
		c-0.2,0.3-0.4,0.5-0.6,0.9v5.8c0,0,0,0.1,0,0.1c0,0-0.1,0.1-0.1,0.1s-0.1,0-0.2,0.1s-0.2,0-0.4,0c-0.2,0-0.3,0-0.4,0
		c-0.1,0-0.2,0-0.3-0.1s-0.1-0.1-0.1-0.1c0,0,0-0.1,0-0.1v-8.8c0,0,0-0.1,0-0.1s0.1-0.1,0.1-0.1s0.1,0,0.2-0.1s0.2,0,0.4,0
		c0.1,0,0.3,0,0.4,0c0.1,0,0.2,0,0.2,0.1s0.1,0.1,0.1,0.1s0,0.1,0,0.1v1.3c0.2-0.4,0.5-0.6,0.7-0.9c0.2-0.2,0.4-0.4,0.6-0.5
		c0.2-0.1,0.4-0.2,0.6-0.3s0.4-0.1,0.6-0.1c0.1,0,0.2,0,0.3,0s0.2,0,0.3,0s0.2,0.1,0.3,0.1c0.1,0,0.2,0.1,0.2,0.1s0.1,0.1,0.1,0.1
		c0,0,0,0.1,0,0.1s0,0.1,0,0.2C239.1,336.7,239.1,336.8,239.1,337z"/>
	<path class="st3" d="M242.6,333.4c0,0.4-0.1,0.6-0.2,0.8c-0.1,0.1-0.4,0.2-0.8,0.2c-0.4,0-0.6-0.1-0.8-0.2s-0.2-0.4-0.2-0.8
		c0-0.4,0.1-0.6,0.2-0.8c0.1-0.1,0.4-0.2,0.8-0.2c0.4,0,0.6,0.1,0.8,0.2S242.6,333,242.6,333.4z M242.4,345.2c0,0,0,0.1,0,0.1
		c0,0-0.1,0.1-0.1,0.1s-0.1,0-0.2,0.1s-0.2,0-0.4,0c-0.2,0-0.3,0-0.4,0c-0.1,0-0.2,0-0.3-0.1s-0.1-0.1-0.1-0.1c0,0,0-0.1,0-0.1v-8.8
		c0,0,0-0.1,0-0.1s0.1-0.1,0.1-0.1c0.1,0,0.1,0,0.3-0.1c0.1,0,0.2,0,0.4,0s0.3,0,0.4,0c0.1,0,0.2,0,0.2,0.1s0.1,0.1,0.1,0.1
		s0,0.1,0,0.1V345.2z"/>
	<path class="st3" d="M253.4,340.7c0,0.7-0.1,1.4-0.3,2s-0.5,1.1-0.8,1.6s-0.8,0.8-1.4,1c-0.6,0.2-1.2,0.4-2,0.4
		c-0.7,0-1.4-0.1-1.9-0.3s-1-0.5-1.3-0.9s-0.6-0.9-0.8-1.5s-0.3-1.3-0.3-2c0-0.7,0.1-1.4,0.3-2s0.5-1.1,0.8-1.6
		c0.4-0.4,0.8-0.8,1.4-1c0.6-0.2,1.2-0.4,2-0.4c0.7,0,1.4,0.1,1.9,0.3s1,0.5,1.3,0.9c0.4,0.4,0.6,0.9,0.8,1.5
		C253.3,339.3,253.4,340,253.4,340.7z M251.8,340.8c0-0.5,0-0.9-0.1-1.4s-0.2-0.8-0.4-1.1c-0.2-0.3-0.5-0.6-0.8-0.8
		s-0.8-0.3-1.3-0.3c-0.5,0-0.9,0.1-1.2,0.3s-0.6,0.4-0.9,0.7s-0.4,0.7-0.5,1.1s-0.2,0.9-0.2,1.4c0,0.5,0,0.9,0.1,1.4
		c0.1,0.4,0.2,0.8,0.4,1.1c0.2,0.3,0.5,0.6,0.8,0.8s0.8,0.3,1.3,0.3c0.5,0,0.9-0.1,1.2-0.3c0.4-0.2,0.6-0.4,0.9-0.7s0.4-0.7,0.5-1.1
		C251.7,341.8,251.8,341.3,251.8,340.8z"/>
	<path class="st3" d="M261.1,342.8c0,0.5-0.1,0.9-0.3,1.2s-0.4,0.6-0.7,0.9c-0.3,0.2-0.7,0.4-1.1,0.5c-0.4,0.1-0.9,0.2-1.4,0.2
		c-0.3,0-0.6,0-0.9-0.1s-0.5-0.1-0.8-0.2c-0.2-0.1-0.4-0.1-0.6-0.2s-0.3-0.1-0.3-0.2c-0.1-0.1-0.1-0.2-0.2-0.3
		c0-0.1-0.1-0.3-0.1-0.5c0-0.1,0-0.2,0-0.3c0-0.1,0-0.1,0.1-0.2s0.1-0.1,0.1-0.1c0,0,0.1,0,0.1,0c0.1,0,0.2,0,0.3,0.1
		c0.1,0.1,0.3,0.2,0.5,0.3c0.2,0.1,0.4,0.2,0.7,0.3c0.3,0.1,0.6,0.1,1,0.1c0.3,0,0.5,0,0.7-0.1s0.4-0.1,0.6-0.3
		c0.2-0.1,0.3-0.3,0.4-0.4c0.1-0.2,0.1-0.4,0.1-0.6s-0.1-0.5-0.2-0.6s-0.3-0.3-0.5-0.5c-0.2-0.1-0.4-0.3-0.7-0.4s-0.5-0.2-0.8-0.3
		c-0.3-0.1-0.6-0.2-0.8-0.4s-0.5-0.3-0.7-0.5s-0.4-0.4-0.5-0.7s-0.2-0.6-0.2-1c0-0.3,0.1-0.7,0.2-1c0.1-0.3,0.3-0.6,0.6-0.8
		c0.3-0.2,0.6-0.4,1-0.6s0.9-0.2,1.4-0.2c0.2,0,0.5,0,0.7,0.1c0.2,0,0.5,0.1,0.6,0.1c0.2,0.1,0.4,0.1,0.5,0.2
		c0.1,0.1,0.2,0.1,0.3,0.2s0.1,0.1,0.1,0.1c0,0,0,0.1,0.1,0.1s0,0.1,0,0.2c0,0.1,0,0.2,0,0.3c0,0.1,0,0.2,0,0.3c0,0.1,0,0.1,0,0.2
		c0,0,0,0.1-0.1,0.1c0,0-0.1,0-0.1,0c-0.1,0-0.1,0-0.3-0.1c-0.1-0.1-0.3-0.1-0.4-0.2s-0.4-0.2-0.6-0.2s-0.5-0.1-0.8-0.1
		c-0.3,0-0.5,0-0.7,0.1s-0.4,0.1-0.5,0.3c-0.1,0.1-0.2,0.3-0.3,0.4s-0.1,0.3-0.1,0.5c0,0.3,0.1,0.5,0.2,0.6c0.1,0.2,0.3,0.3,0.5,0.5
		s0.4,0.3,0.7,0.4c0.3,0.1,0.5,0.2,0.8,0.3c0.3,0.1,0.6,0.2,0.8,0.4c0.3,0.1,0.5,0.3,0.7,0.5c0.2,0.2,0.4,0.4,0.5,0.7
		S261.1,342.4,261.1,342.8z"/>
	<path class="st3" d="M271.3,332c-0.6,1.3-1.1,2.6-1.4,4c-0.3,1.4-0.5,2.8-0.5,4.2s0.1,2.8,0.5,4.2s0.8,2.7,1.4,4c0,0.1,0,0.1,0,0.2
		s0,0.1-0.1,0.1c0,0-0.1,0.1-0.2,0.1c-0.1,0-0.2,0-0.4,0c-0.1,0-0.2,0-0.3,0c-0.1,0-0.2,0-0.2,0s-0.1,0-0.2-0.1c0,0-0.1-0.1-0.1-0.1
		c-0.4-0.7-0.7-1.3-0.9-2c-0.3-0.7-0.5-1.4-0.7-2.1c-0.2-0.7-0.3-1.4-0.4-2.1c-0.1-0.7-0.1-1.5-0.1-2.2s0-1.5,0.1-2.2
		c0.1-0.7,0.2-1.4,0.4-2.1s0.4-1.4,0.7-2.1c0.3-0.7,0.6-1.4,0.9-2c0,0,0,0,0-0.1c0,0,0.1,0,0.1-0.1s0.1,0,0.2,0c0.1,0,0.2,0,0.4,0
		c0.1,0,0.3,0,0.4,0c0.1,0,0.2,0,0.2,0.1s0.1,0.1,0.1,0.1S271.3,331.9,271.3,332z"/>
	<path class="st3" d="M279.7,345.2c0,0.1,0,0.1-0.1,0.2s-0.1,0.1-0.2,0.1c-0.1,0-0.2,0-0.4,0c-0.2,0-0.3,0-0.4,0
		c-0.1,0-0.2,0-0.2-0.1s-0.1-0.1-0.1-0.2v-0.9c-0.4,0.4-0.8,0.7-1.3,1c-0.5,0.2-1,0.3-1.5,0.3c-0.5,0-0.9-0.1-1.3-0.2
		s-0.7-0.3-1-0.5c-0.3-0.2-0.5-0.5-0.6-0.8c-0.1-0.3-0.2-0.7-0.2-1.1c0-0.5,0.1-0.9,0.3-1.3c0.2-0.4,0.5-0.7,0.9-0.9
		s0.8-0.4,1.4-0.5c0.5-0.1,1.2-0.2,1.8-0.2h1.2v-0.7c0-0.3,0-0.6-0.1-0.9c-0.1-0.3-0.2-0.5-0.4-0.6c-0.2-0.2-0.4-0.3-0.6-0.4
		s-0.6-0.1-0.9-0.1c-0.4,0-0.8,0-1.1,0.1s-0.6,0.2-0.8,0.3s-0.4,0.2-0.6,0.3c-0.2,0.1-0.3,0.1-0.4,0.1c0,0-0.1,0-0.1,0
		c0,0-0.1-0.1-0.1-0.1c0,0,0-0.1-0.1-0.2s0-0.2,0-0.3c0-0.2,0-0.3,0-0.4c0-0.1,0.1-0.2,0.2-0.3s0.2-0.2,0.5-0.3s0.5-0.2,0.7-0.3
		c0.3-0.1,0.6-0.2,0.9-0.2s0.7-0.1,1-0.1c0.6,0,1.2,0.1,1.6,0.2c0.4,0.1,0.8,0.4,1.1,0.6s0.5,0.6,0.6,1s0.2,0.9,0.2,1.4L279.7,345.2
		L279.7,345.2z M278.1,341.2h-1.4c-0.4,0-0.8,0-1.1,0.1s-0.6,0.2-0.8,0.3c-0.2,0.1-0.4,0.3-0.5,0.5c-0.1,0.2-0.1,0.4-0.1,0.7
		c0,0.5,0.1,0.8,0.4,1.1s0.7,0.4,1.2,0.4c0.4,0,0.8-0.1,1.2-0.3s0.7-0.5,1.1-1L278.1,341.2L278.1,341.2z"/>
	<path class="st3" d="M284.1,345.2c0,0,0,0.1,0,0.1c0,0-0.1,0.1-0.1,0.1s-0.1,0-0.2,0.1s-0.2,0-0.4,0c-0.2,0-0.3,0-0.4,0
		c-0.1,0-0.2,0-0.3-0.1s-0.1-0.1-0.1-0.1c0,0,0-0.1,0-0.1v-13c0,0,0-0.1,0-0.1c0,0,0.1-0.1,0.1-0.1s0.1,0,0.3-0.1s0.2,0,0.4,0
		c0.2,0,0.3,0,0.4,0c0.1,0,0.2,0,0.2,0.1s0.1,0.1,0.1,0.1c0,0,0,0.1,0,0.1V345.2z"/>
	<path class="st3" d="M294.4,345.2c0,0,0,0.1,0,0.1c0,0-0.1,0.1-0.1,0.1s-0.1,0-0.2,0.1c-0.1,0-0.2,0-0.4,0c-0.1,0-0.3,0-0.4,0
		c-0.1,0-0.2,0-0.2-0.1s-0.1-0.1-0.1-0.1c0,0,0-0.1,0-0.1V344c-0.5,0.5-1,1-1.5,1.2c-0.5,0.3-1,0.4-1.5,0.4c-0.6,0-1.1-0.1-1.5-0.3
		s-0.7-0.5-1-0.8s-0.4-0.7-0.5-1.2s-0.2-1-0.2-1.6v-5.3c0,0,0-0.1,0-0.1c0,0,0.1-0.1,0.1-0.1s0.1,0,0.3-0.1c0.1,0,0.2,0,0.4,0
		c0.2,0,0.3,0,0.4,0c0.1,0,0.2,0,0.3,0.1s0.1,0.1,0.1,0.1s0,0.1,0,0.1v5.1c0,0.5,0,0.9,0.1,1.2c0.1,0.3,0.2,0.6,0.3,0.8
		c0.1,0.2,0.3,0.4,0.6,0.5s0.5,0.2,0.8,0.2c0.4,0,0.8-0.1,1.2-0.4c0.4-0.3,0.8-0.7,1.3-1.3v-6.1c0,0,0-0.1,0-0.1
		c0,0,0.1-0.1,0.1-0.1s0.1,0,0.3-0.1c0.1,0,0.2,0,0.4,0c0.2,0,0.3,0,0.4,0c0.1,0,0.2,0,0.2,0.1s0.1,0.1,0.1,0.1c0,0,0,0.1,0,0.1
		L294.4,345.2L294.4,345.2z"/>
	<path class="st3" d="M304.7,345.2c0,0,0,0.1,0,0.1c0,0-0.1,0.1-0.1,0.1s-0.1,0-0.2,0.1s-0.2,0-0.4,0c-0.2,0-0.3,0-0.4,0
		c-0.1,0-0.2,0-0.2-0.1s-0.1-0.1-0.1-0.1c0,0,0-0.1,0-0.1V340c0-0.5,0-0.9-0.1-1.2c-0.1-0.3-0.2-0.6-0.3-0.8
		c-0.2-0.2-0.3-0.4-0.6-0.5s-0.5-0.2-0.8-0.2c-0.4,0-0.8,0.1-1.2,0.4c-0.4,0.3-0.8,0.7-1.3,1.3v6.1c0,0,0,0.1,0,0.1
		c0,0-0.1,0.1-0.1,0.1s-0.1,0-0.2,0.1s-0.2,0-0.4,0c-0.2,0-0.3,0-0.4,0c-0.1,0-0.2,0-0.3-0.1s-0.1-0.1-0.1-0.1c0,0,0-0.1,0-0.1v-8.8
		c0,0,0-0.1,0-0.1c0,0,0.1-0.1,0.1-0.1s0.1,0,0.2-0.1c0.1,0,0.2,0,0.4,0c0.1,0,0.3,0,0.4,0s0.2,0,0.2,0.1s0.1,0.1,0.1,0.1
		c0,0,0,0.1,0,0.1v1.2c0.5-0.5,1-1,1.5-1.2c0.5-0.3,1-0.4,1.5-0.4c0.6,0,1.1,0.1,1.5,0.3s0.7,0.5,1,0.8s0.4,0.7,0.5,1.2
		s0.2,1,0.2,1.6L304.7,345.2L304.7,345.2z"/>
	<path class="st3" d="M315.7,340.7c0,0.7-0.1,1.4-0.3,2s-0.5,1.1-0.8,1.6s-0.8,0.8-1.4,1s-1.2,0.4-2,0.4c-0.7,0-1.3-0.1-1.9-0.3
		c-0.5-0.2-1-0.5-1.3-0.9s-0.6-0.9-0.8-1.5s-0.3-1.3-0.3-2c0-0.7,0.1-1.4,0.3-2s0.5-1.1,0.8-1.6s0.8-0.8,1.4-1s1.2-0.4,2-0.4
		c0.7,0,1.3,0.1,1.9,0.3c0.5,0.2,1,0.5,1.3,0.9s0.6,0.9,0.8,1.5S315.7,340,315.7,340.7z M314,340.8c0-0.5,0-0.9-0.1-1.4
		c-0.1-0.4-0.2-0.8-0.4-1.1c-0.2-0.3-0.5-0.6-0.8-0.8s-0.8-0.3-1.3-0.3c-0.5,0-0.9,0.1-1.2,0.3s-0.6,0.4-0.8,0.7
		c-0.2,0.3-0.4,0.7-0.5,1.1s-0.2,0.9-0.2,1.4c0,0.5,0,0.9,0.1,1.4c0.1,0.4,0.2,0.8,0.4,1.1s0.5,0.6,0.8,0.8c0.3,0.2,0.8,0.3,1.3,0.3
		c0.5,0,0.9-0.1,1.2-0.3c0.4-0.2,0.6-0.4,0.9-0.7s0.4-0.7,0.5-1.1C313.9,341.8,314,341.3,314,340.8z"/>
	<path class="st3" d="M330.1,340.4c0,0.3-0.1,0.4-0.2,0.5s-0.3,0.2-0.4,0.2h-5.8c0,0.5,0,0.9,0.2,1.3c0.1,0.4,0.3,0.7,0.5,1
		s0.5,0.5,0.9,0.6c0.4,0.1,0.8,0.2,1.3,0.2c0.4,0,0.8,0,1.1-0.1c0.3-0.1,0.6-0.1,0.9-0.2c0.2-0.1,0.4-0.2,0.6-0.2
		c0.2-0.1,0.3-0.1,0.4-0.1c0,0,0.1,0,0.1,0c0,0,0.1,0.1,0.1,0.1c0,0,0,0.1,0,0.2s0,0.2,0,0.3c0,0.1,0,0.2,0,0.2s0,0.1,0,0.2
		c0,0.1,0,0.1,0,0.1c0,0,0,0.1-0.1,0.1c0,0-0.1,0.1-0.3,0.2s-0.4,0.2-0.7,0.2c-0.3,0.1-0.6,0.1-1,0.2s-0.8,0.1-1.2,0.1
		c-0.7,0-1.4-0.1-1.9-0.3c-0.5-0.2-1-0.5-1.4-0.9s-0.7-0.9-0.8-1.5s-0.3-1.3-0.3-2.1c0-0.8,0.1-1.4,0.3-2s0.5-1.1,0.8-1.5
		s0.8-0.7,1.3-1c0.5-0.2,1.1-0.3,1.8-0.3c0.7,0,1.3,0.1,1.8,0.3c0.5,0.2,0.9,0.5,1.2,0.9s0.5,0.8,0.7,1.3c0.2,0.5,0.2,1,0.2,1.6
		L330.1,340.4L330.1,340.4z M328.4,339.9c0-0.9-0.2-1.5-0.6-2c-0.4-0.5-1-0.7-1.8-0.7c-0.4,0-0.8,0.1-1,0.2
		c-0.3,0.1-0.5,0.4-0.8,0.6s-0.4,0.5-0.5,0.9c-0.1,0.3-0.2,0.7-0.2,1H328.4z"/>
	<path class="st3" d="M345.1,340.6c0,0.8-0.1,1.5-0.3,2.1c-0.2,0.6-0.4,1.1-0.7,1.6s-0.7,0.8-1.2,1c-0.5,0.2-1,0.4-1.6,0.4
		c-0.3,0-0.5,0-0.7-0.1c-0.2,0-0.4-0.1-0.7-0.2c-0.2-0.1-0.4-0.3-0.6-0.4c-0.2-0.2-0.4-0.4-0.7-0.6v4.4c0,0,0,0.1,0,0.1
		c0,0-0.1,0.1-0.1,0.1s-0.1,0-0.2,0.1s-0.2,0-0.4,0c-0.2,0-0.3,0-0.4,0c-0.1,0-0.2,0-0.3-0.1s-0.1-0.1-0.1-0.1c0,0,0-0.1,0-0.1
		v-12.3c0-0.1,0-0.1,0-0.1c0,0,0.1-0.1,0.1-0.1s0.1,0,0.2,0c0.1,0,0.2,0,0.3,0c0.1,0,0.3,0,0.3,0c0.1,0,0.2,0,0.2,0s0.1,0.1,0.1,0.1
		c0,0,0,0.1,0,0.1v1.2c0.3-0.3,0.5-0.5,0.8-0.7s0.5-0.4,0.8-0.5s0.5-0.2,0.8-0.3c0.3-0.1,0.5-0.1,0.8-0.1c0.6,0,1.2,0.1,1.6,0.4
		s0.8,0.6,1.1,1c0.3,0.4,0.5,0.9,0.6,1.5S345.1,340,345.1,340.6z M343.4,340.8c0-0.5,0-0.9-0.1-1.3c-0.1-0.4-0.2-0.8-0.3-1.1
		c-0.2-0.3-0.4-0.6-0.7-0.8c-0.3-0.2-0.6-0.3-1-0.3c-0.2,0-0.4,0-0.6,0.1s-0.4,0.2-0.6,0.3c-0.2,0.1-0.4,0.3-0.7,0.5
		c-0.2,0.2-0.5,0.5-0.7,0.8v3.5c0.5,0.5,0.9,1,1.3,1.2c0.4,0.3,0.8,0.4,1.3,0.4c0.4,0,0.8-0.1,1-0.3c0.3-0.2,0.5-0.5,0.7-0.8
		c0.2-0.3,0.3-0.7,0.4-1.1C343.4,341.7,343.4,341.2,343.4,340.8z"/>
	<path class="st3" d="M352.5,337c0,0.1,0,0.3,0,0.4s0,0.2,0,0.2s0,0.1-0.1,0.1c0,0-0.1,0-0.1,0s-0.1,0-0.2,0s-0.2-0.1-0.3-0.1
		c-0.1,0-0.2-0.1-0.3-0.1s-0.2,0-0.4,0c-0.2,0-0.3,0-0.5,0.1c-0.2,0.1-0.3,0.2-0.5,0.3s-0.3,0.4-0.5,0.6s-0.4,0.5-0.6,0.9v5.8
		c0,0,0,0.1,0,0.1c0,0-0.1,0.1-0.1,0.1s-0.1,0-0.2,0.1s-0.2,0-0.4,0c-0.2,0-0.3,0-0.4,0c-0.1,0-0.2,0-0.3-0.1s-0.1-0.1-0.1-0.1
		c0,0,0-0.1,0-0.1v-8.8c0,0,0-0.1,0-0.1c0,0,0.1-0.1,0.1-0.1s0.1,0,0.2-0.1c0.1,0,0.2,0,0.4,0c0.1,0,0.3,0,0.4,0s0.2,0,0.2,0.1
		s0.1,0.1,0.1,0.1c0,0,0,0.1,0,0.1v1.3c0.2-0.4,0.5-0.6,0.7-0.9c0.2-0.2,0.4-0.4,0.6-0.5s0.4-0.2,0.6-0.3s0.4-0.1,0.6-0.1
		c0.1,0,0.2,0,0.3,0c0.1,0,0.2,0,0.3,0s0.2,0.1,0.3,0.1c0.1,0,0.2,0.1,0.2,0.1c0,0,0.1,0.1,0.1,0.1c0,0,0,0.1,0,0.1s0,0.1,0,0.2
		S352.5,336.8,352.5,337z"/>
	<path class="st3" d="M362.4,340.7c0,0.7-0.1,1.4-0.3,2s-0.5,1.1-0.8,1.6s-0.8,0.8-1.4,1s-1.2,0.4-2,0.4c-0.7,0-1.3-0.1-1.9-0.3
		c-0.5-0.2-1-0.5-1.3-0.9s-0.6-0.9-0.8-1.5s-0.3-1.3-0.3-2c0-0.7,0.1-1.4,0.3-2s0.5-1.1,0.8-1.6s0.8-0.8,1.4-1s1.2-0.4,2-0.4
		c0.7,0,1.3,0.1,1.9,0.3c0.5,0.2,1,0.5,1.3,0.9s0.6,0.9,0.8,1.5S362.4,340,362.4,340.7z M360.7,340.8c0-0.5,0-0.9-0.1-1.4
		c-0.1-0.4-0.2-0.8-0.4-1.1c-0.2-0.3-0.5-0.6-0.8-0.8s-0.8-0.3-1.3-0.3c-0.5,0-0.9,0.1-1.2,0.3s-0.6,0.4-0.8,0.7
		c-0.2,0.3-0.4,0.7-0.5,1.1s-0.2,0.9-0.2,1.4c0,0.5,0,0.9,0.1,1.4c0.1,0.4,0.2,0.8,0.4,1.1s0.5,0.6,0.8,0.8c0.3,0.2,0.8,0.3,1.3,0.3
		c0.5,0,0.9-0.1,1.2-0.3c0.4-0.2,0.6-0.4,0.9-0.7s0.4-0.7,0.5-1.1C360.7,341.8,360.7,341.3,360.7,340.8z"/>
	<path class="st3" d="M369.4,332.8c0,0.1,0,0.2,0,0.3c0,0.1,0,0.1,0,0.2s0,0.1-0.1,0.1c0,0-0.1,0-0.1,0c0,0-0.1,0-0.2,0
		s-0.2-0.1-0.3-0.1c-0.1,0-0.2-0.1-0.4-0.1s-0.3,0-0.5,0c-0.2,0-0.5,0-0.6,0.1s-0.3,0.2-0.4,0.4c-0.1,0.2-0.2,0.4-0.2,0.6
		c0,0.3-0.1,0.6-0.1,1v1h2c0,0,0.1,0,0.1,0c0,0,0.1,0.1,0.1,0.1c0,0.1,0,0.1,0.1,0.2s0,0.2,0,0.3c0,0.2,0,0.4-0.1,0.5
		s-0.1,0.2-0.2,0.2h-2v7.7c0,0,0,0.1,0,0.1c0,0-0.1,0.1-0.1,0.1s-0.1,0-0.3,0.1s-0.2,0-0.4,0c-0.2,0-0.3,0-0.4,0
		c-0.1,0-0.2,0-0.3-0.1s-0.1-0.1-0.1-0.1s0-0.1,0-0.1v-7.7h-1.2c-0.1,0-0.2,0-0.2-0.2c0-0.1-0.1-0.3-0.1-0.5c0-0.1,0-0.2,0-0.3
		c0-0.1,0-0.1,0.1-0.2c0-0.1,0.1-0.1,0.1-0.1c0,0,0.1,0,0.1,0h1.2v-0.9c0-0.6,0.1-1.1,0.2-1.6c0.1-0.4,0.3-0.8,0.5-1.1
		s0.5-0.5,0.9-0.6c0.3-0.1,0.8-0.2,1.3-0.2c0.2,0,0.5,0,0.7,0.1c0.2,0,0.4,0.1,0.5,0.1s0.2,0.1,0.2,0.1c0,0,0.1,0.1,0.1,0.1
		c0,0.1,0,0.1,0,0.2C369.4,332.5,369.4,332.6,369.4,332.8z"/>
	<path class="st3" d="M377.9,340.4c0,0.3-0.1,0.4-0.2,0.5s-0.3,0.2-0.4,0.2h-5.8c0,0.5,0,0.9,0.2,1.3c0.1,0.4,0.3,0.7,0.5,1
		s0.5,0.5,0.9,0.6c0.4,0.1,0.8,0.2,1.3,0.2c0.4,0,0.8,0,1.1-0.1c0.3-0.1,0.6-0.1,0.9-0.2c0.2-0.1,0.4-0.2,0.6-0.2
		c0.2-0.1,0.3-0.1,0.4-0.1c0,0,0.1,0,0.1,0c0,0,0.1,0.1,0.1,0.1c0,0,0,0.1,0,0.2s0,0.2,0,0.3c0,0.1,0,0.2,0,0.2s0,0.1,0,0.2
		c0,0.1,0,0.1,0,0.1c0,0,0,0.1-0.1,0.1c0,0-0.1,0.1-0.3,0.2s-0.4,0.2-0.7,0.2c-0.3,0.1-0.6,0.1-1,0.2s-0.8,0.1-1.2,0.1
		c-0.7,0-1.4-0.1-1.9-0.3c-0.5-0.2-1-0.5-1.4-0.9s-0.7-0.9-0.8-1.5s-0.3-1.3-0.3-2.1c0-0.8,0.1-1.4,0.3-2s0.5-1.1,0.8-1.5
		s0.8-0.7,1.3-1c0.5-0.2,1.1-0.3,1.8-0.3c0.7,0,1.3,0.1,1.8,0.3c0.5,0.2,0.9,0.5,1.2,0.9s0.5,0.8,0.7,1.3c0.2,0.5,0.2,1,0.2,1.6
		L377.9,340.4L377.9,340.4z M376.3,339.9c0-0.9-0.2-1.5-0.6-2c-0.4-0.5-1-0.7-1.8-0.7c-0.4,0-0.8,0.1-1,0.2
		c-0.3,0.1-0.5,0.4-0.8,0.6s-0.4,0.5-0.5,0.9c-0.1,0.3-0.2,0.7-0.2,1H376.3z"/>
	<path class="st3" d="M385.7,342.8c0,0.5-0.1,0.9-0.3,1.2c-0.2,0.4-0.4,0.6-0.7,0.9s-0.7,0.4-1.1,0.5s-0.9,0.2-1.4,0.2
		c-0.3,0-0.6,0-0.9-0.1s-0.5-0.1-0.8-0.2c-0.2-0.1-0.4-0.1-0.6-0.2c-0.2-0.1-0.3-0.1-0.3-0.2s-0.1-0.2-0.2-0.3c0-0.1,0-0.3,0-0.5
		c0-0.1,0-0.2,0-0.3c0-0.1,0-0.1,0-0.2c0-0.1,0-0.1,0.1-0.1c0,0,0.1,0,0.1,0c0.1,0,0.2,0,0.3,0.1s0.3,0.2,0.5,0.3
		c0.2,0.1,0.5,0.2,0.7,0.3c0.3,0.1,0.6,0.1,1,0.1c0.3,0,0.5,0,0.7-0.1c0.2-0.1,0.4-0.1,0.6-0.3s0.3-0.3,0.4-0.4
		c0.1-0.2,0.1-0.4,0.1-0.6s-0.1-0.5-0.2-0.6s-0.3-0.3-0.5-0.5c-0.2-0.1-0.4-0.3-0.7-0.4s-0.5-0.2-0.8-0.3c-0.3-0.1-0.5-0.2-0.8-0.4
		s-0.5-0.3-0.7-0.5c-0.2-0.2-0.4-0.4-0.5-0.7s-0.2-0.6-0.2-1c0-0.3,0.1-0.7,0.2-1s0.3-0.6,0.6-0.8s0.6-0.4,1-0.6
		c0.4-0.1,0.9-0.2,1.4-0.2c0.2,0,0.5,0,0.7,0.1c0.2,0,0.5,0.1,0.6,0.1s0.4,0.1,0.5,0.2s0.2,0.1,0.3,0.2c0.1,0,0.1,0.1,0.1,0.1
		s0,0.1,0,0.1c0,0.1,0,0.1,0,0.2s0,0.2,0,0.3c0,0.1,0,0.2,0,0.3s0,0.1,0,0.2c0,0.1,0,0.1-0.1,0.1c0,0-0.1,0-0.1,0
		c-0.1,0-0.1,0-0.3-0.1s-0.3-0.1-0.4-0.2s-0.4-0.2-0.6-0.2s-0.5-0.1-0.8-0.1c-0.3,0-0.5,0-0.7,0.1c-0.2,0.1-0.4,0.1-0.5,0.3
		s-0.2,0.3-0.3,0.4c-0.1,0.2-0.1,0.3-0.1,0.5c0,0.3,0.1,0.5,0.2,0.6s0.3,0.3,0.5,0.5s0.5,0.3,0.7,0.4c0.3,0.1,0.5,0.2,0.8,0.3
		c0.3,0.1,0.5,0.2,0.8,0.4s0.5,0.3,0.7,0.5c0.2,0.2,0.4,0.4,0.5,0.7S385.7,342.4,385.7,342.8z"/>
	<path class="st3" d="M393.5,342.8c0,0.5-0.1,0.9-0.3,1.2c-0.2,0.4-0.4,0.6-0.7,0.9s-0.7,0.4-1.1,0.5s-0.9,0.2-1.4,0.2
		c-0.3,0-0.6,0-0.9-0.1s-0.5-0.1-0.8-0.2c-0.2-0.1-0.4-0.1-0.6-0.2c-0.2-0.1-0.3-0.1-0.3-0.2s-0.1-0.2-0.2-0.3c0-0.1,0-0.3,0-0.5
		c0-0.1,0-0.2,0-0.3c0-0.1,0-0.1,0-0.2c0-0.1,0-0.1,0.1-0.1c0,0,0.1,0,0.1,0c0.1,0,0.2,0,0.3,0.1s0.3,0.2,0.5,0.3
		c0.2,0.1,0.5,0.2,0.7,0.3c0.3,0.1,0.6,0.1,1,0.1c0.3,0,0.5,0,0.7-0.1c0.2-0.1,0.4-0.1,0.6-0.3s0.3-0.3,0.4-0.4
		c0.1-0.2,0.1-0.4,0.1-0.6s-0.1-0.5-0.2-0.6s-0.3-0.3-0.5-0.5c-0.2-0.1-0.4-0.3-0.7-0.4s-0.5-0.2-0.8-0.3c-0.3-0.1-0.5-0.2-0.8-0.4
		s-0.5-0.3-0.7-0.5c-0.2-0.2-0.4-0.4-0.5-0.7s-0.2-0.6-0.2-1c0-0.3,0.1-0.7,0.2-1s0.3-0.6,0.6-0.8s0.6-0.4,1-0.6
		c0.4-0.1,0.9-0.2,1.4-0.2c0.2,0,0.5,0,0.7,0.1c0.2,0,0.5,0.1,0.6,0.1s0.4,0.1,0.5,0.2s0.2,0.1,0.3,0.2c0.1,0,0.1,0.1,0.1,0.1
		s0,0.1,0,0.1c0,0.1,0,0.1,0,0.2s0,0.2,0,0.3c0,0.1,0,0.2,0,0.3s0,0.1,0,0.2c0,0.1,0,0.1-0.1,0.1c0,0-0.1,0-0.1,0
		c-0.1,0-0.1,0-0.3-0.1s-0.3-0.1-0.4-0.2s-0.4-0.2-0.6-0.2s-0.5-0.1-0.8-0.1c-0.3,0-0.5,0-0.7,0.1c-0.2,0.1-0.4,0.1-0.5,0.3
		s-0.2,0.3-0.3,0.4c-0.1,0.2-0.1,0.3-0.1,0.5c0,0.3,0.1,0.5,0.2,0.6s0.3,0.3,0.5,0.5s0.5,0.3,0.7,0.4c0.3,0.1,0.5,0.2,0.8,0.3
		c0.3,0.1,0.5,0.2,0.8,0.4s0.5,0.3,0.7,0.5c0.2,0.2,0.4,0.4,0.5,0.7S393.5,342.4,393.5,342.8z"/>
	<path class="st3" d="M403.9,340.7c0,0.7-0.1,1.4-0.3,2s-0.5,1.1-0.8,1.6s-0.8,0.8-1.4,1s-1.2,0.4-2,0.4c-0.7,0-1.4-0.1-1.9-0.3
		c-0.5-0.2-1-0.5-1.3-0.9s-0.6-0.9-0.8-1.5s-0.3-1.3-0.3-2c0-0.7,0.1-1.4,0.3-2s0.5-1.1,0.8-1.6s0.8-0.8,1.4-1s1.2-0.4,2-0.4
		c0.7,0,1.4,0.1,1.9,0.3c0.5,0.2,1,0.5,1.3,0.9s0.6,0.9,0.8,1.5S403.9,340,403.9,340.7z M402.3,340.8c0-0.5,0-0.9-0.1-1.4
		c-0.1-0.4-0.2-0.8-0.4-1.1c-0.2-0.3-0.5-0.6-0.8-0.8s-0.8-0.3-1.3-0.3c-0.5,0-0.9,0.1-1.2,0.3s-0.6,0.4-0.9,0.7
		c-0.2,0.3-0.4,0.7-0.5,1.1s-0.2,0.9-0.2,1.4c0,0.5,0,0.9,0.1,1.4c0.1,0.4,0.2,0.8,0.4,1.1s0.5,0.6,0.8,0.8c0.4,0.2,0.8,0.3,1.3,0.3
		c0.5,0,0.9-0.1,1.2-0.3c0.3-0.2,0.6-0.4,0.9-0.7s0.4-0.7,0.5-1.1C402.2,341.8,402.3,341.3,402.3,340.8z"/>
	<path class="st3" d="M411.3,337c0,0.1,0,0.3,0,0.4s0,0.2,0,0.2s0,0.1-0.1,0.1c0,0-0.1,0-0.1,0s-0.1,0-0.2,0s-0.2-0.1-0.3-0.1
		c-0.1,0-0.2-0.1-0.3-0.1s-0.2,0-0.4,0c-0.2,0-0.3,0-0.5,0.1c-0.2,0.1-0.3,0.2-0.5,0.3s-0.4,0.4-0.5,0.6s-0.4,0.5-0.6,0.9v5.8
		c0,0,0,0.1,0,0.1c0,0-0.1,0.1-0.1,0.1s-0.1,0-0.2,0.1s-0.2,0-0.4,0c-0.2,0-0.3,0-0.4,0c-0.1,0-0.2,0-0.3-0.1s-0.1-0.1-0.1-0.1
		c0,0,0-0.1,0-0.1v-8.8c0,0,0-0.1,0-0.1c0,0,0.1-0.1,0.1-0.1s0.1,0,0.2-0.1c0.1,0,0.2,0,0.4,0c0.1,0,0.3,0,0.4,0s0.2,0,0.2,0.1
		s0.1,0.1,0.1,0.1c0,0,0,0.1,0,0.1v1.3c0.2-0.4,0.5-0.6,0.7-0.9c0.2-0.2,0.4-0.4,0.6-0.5s0.4-0.2,0.6-0.3s0.4-0.1,0.6-0.1
		c0.1,0,0.2,0,0.3,0c0.1,0,0.2,0,0.3,0s0.2,0.1,0.3,0.1c0.1,0,0.2,0.1,0.2,0.1c0,0,0.1,0.1,0.1,0.1c0,0,0,0.1,0,0.1s0,0.1,0,0.2
		S411.3,336.8,411.3,337z"/>
	<path class="st3" d="M415.8,340.2c0,0.7,0,1.5-0.1,2.2s-0.2,1.4-0.4,2.1s-0.4,1.4-0.7,2.1s-0.6,1.4-0.9,2c0,0,0,0.1-0.1,0.1
		c0,0-0.1,0-0.1,0.1s-0.1,0-0.2,0c-0.1,0-0.2,0-0.3,0c-0.2,0-0.3,0-0.4,0c-0.1,0-0.2,0-0.2-0.1s-0.1-0.1-0.1-0.1s0-0.1,0-0.2
		c0.6-1.3,1-2.7,1.4-4s0.5-2.8,0.5-4.2c0-1.4-0.2-2.8-0.5-4.2s-0.8-2.7-1.4-4c0-0.1,0-0.1,0-0.2s0-0.1,0.1-0.1s0.1-0.1,0.2-0.1
		c0.1,0,0.2,0,0.4,0c0.1,0,0.3,0,0.3,0c0.1,0,0.2,0,0.2,0s0.1,0,0.1,0.1c0,0,0,0,0.1,0.1c0.7,1.3,1.2,2.7,1.6,4.1
		C415.6,337.3,415.8,338.7,415.8,340.2z"/>
</g>
<circle class="st1" cx="407.3" cy="90.2" r="89.7"/>
<g>
	<path class="st4" d="M59.6,96.2c0,0.2,0,0.4,0,0.6c0,0.2,0,0.3-0.1,0.4c0,0.1-0.1,0.2-0.1,0.2c-0.1,0-0.1,0.1-0.2,0.1h-7.4
		c-0.3,0-0.5-0.1-0.6-0.2s-0.3-0.4-0.3-0.7V83.6c0-0.3,0.1-0.6,0.3-0.7c0.2-0.2,0.4-0.2,0.6-0.2h7.4c0.1,0,0.1,0,0.2,0.1
		s0.1,0.1,0.1,0.2s0.1,0.2,0.1,0.4c0,0.2,0,0.3,0,0.6c0,0.2,0,0.4,0,0.5s0,0.3-0.1,0.4c0,0.1-0.1,0.2-0.1,0.2c0,0-0.1,0.1-0.2,0.1
		h-5.3v3.6h4.5c0.1,0,0.1,0,0.2,0.1s0.1,0.1,0.1,0.2c0,0.1,0.1,0.2,0.1,0.3c0,0.2,0,0.3,0,0.5c0,0.2,0,0.4,0,0.6
		c0,0.1,0,0.3-0.1,0.3c0,0.1-0.1,0.2-0.1,0.2c-0.1,0-0.1,0.1-0.2,0.1h-4.5v4.2h5.3c0.1,0,0.1,0,0.2,0.1s0.1,0.1,0.1,0.2
		s0.1,0.2,0.1,0.4C59.6,95.8,59.6,96,59.6,96.2z"/>
	<path class="st4" d="M78.3,97c0,0.1,0,0.1-0.1,0.2c0,0.1-0.1,0.1-0.2,0.1c-0.1,0-0.3,0.1-0.4,0.1s-0.4,0-0.7,0c-0.3,0-0.5,0-0.7,0
		c-0.2,0-0.3-0.1-0.4-0.1c-0.1,0-0.2-0.1-0.2-0.1c0-0.1-0.1-0.1-0.1-0.2v-6c0-0.3,0-0.7-0.1-0.9c-0.1-0.3-0.2-0.5-0.3-0.7
		s-0.3-0.4-0.5-0.5s-0.4-0.2-0.7-0.2c-0.3,0-0.7,0.1-1,0.4s-0.7,0.7-1.1,1.2V97c0,0.1,0,0.1-0.1,0.2c0,0.1-0.1,0.1-0.2,0.1
		s-0.3,0.1-0.4,0.1s-0.4,0-0.7,0c-0.3,0-0.5,0-0.7,0c-0.2,0-0.3-0.1-0.4-0.1c-0.1,0-0.2-0.1-0.2-0.1c0-0.1-0.1-0.1-0.1-0.2v-6
		c0-0.3,0-0.7-0.1-0.9s-0.2-0.5-0.3-0.7s-0.3-0.4-0.5-0.5s-0.5-0.2-0.7-0.2c-0.4,0-0.7,0.1-1,0.4s-0.7,0.7-1.1,1.2V97
		c0,0.1,0,0.1-0.1,0.2c0,0.1-0.1,0.1-0.2,0.1c-0.1,0-0.3,0.1-0.4,0.1s-0.4,0-0.7,0s-0.5,0-0.7,0c-0.2,0-0.3-0.1-0.4-0.1
		c-0.1,0-0.2-0.1-0.2-0.1c0-0.1-0.1-0.1-0.1-0.2V86.8c0-0.1,0-0.1,0.1-0.2s0.1-0.1,0.2-0.1s0.2-0.1,0.4-0.1s0.4,0,0.6,0s0.5,0,0.6,0
		c0.2,0,0.3,0.1,0.4,0.1c0.1,0,0.1,0.1,0.2,0.1c0,0.1,0.1,0.1,0.1,0.2V88c0.6-0.6,1.1-1.1,1.7-1.4c0.6-0.3,1.1-0.5,1.8-0.5
		c0.4,0,0.8,0,1.1,0.1c0.3,0.1,0.6,0.2,0.9,0.4c0.3,0.2,0.5,0.4,0.7,0.6c0.2,0.2,0.4,0.5,0.5,0.8c0.3-0.3,0.6-0.6,0.9-0.8
		s0.6-0.4,0.9-0.6s0.6-0.3,0.9-0.3c0.3-0.1,0.6-0.1,0.9-0.1c0.7,0,1.3,0.1,1.7,0.3c0.5,0.2,0.8,0.5,1.1,0.9s0.5,0.8,0.6,1.4
		s0.2,1.1,0.2,1.7L78.3,97L78.3,97z"/>
	<path class="st4" d="M91.3,91.8c0,0.9-0.1,1.7-0.3,2.4c-0.2,0.7-0.5,1.3-0.9,1.8s-0.8,0.9-1.4,1.2s-1.2,0.4-1.9,0.4
		c-0.3,0-0.6,0-0.8-0.1c-0.3-0.1-0.5-0.1-0.7-0.3s-0.5-0.3-0.7-0.4c-0.2-0.2-0.5-0.4-0.7-0.6v4.8c0,0.1,0,0.1-0.1,0.2
		s-0.1,0.1-0.2,0.2c-0.1,0-0.3,0.1-0.4,0.1c-0.2,0-0.4,0-0.7,0s-0.5,0-0.7,0c-0.2,0-0.3-0.1-0.4-0.1c-0.1,0-0.2-0.1-0.2-0.2
		s-0.1-0.1-0.1-0.2V86.8c0-0.1,0-0.1,0.1-0.2s0.1-0.1,0.2-0.1c0.1,0,0.2-0.1,0.4-0.1s0.4,0,0.6,0c0.2,0,0.4,0,0.6,0s0.3,0.1,0.4,0.1
		c0.1,0,0.2,0.1,0.2,0.1c0,0.1,0.1,0.1,0.1,0.2V88c0.3-0.3,0.6-0.6,0.9-0.8s0.6-0.4,0.9-0.6s0.6-0.3,0.9-0.3s0.6-0.1,1-0.1
		c0.8,0,1.4,0.2,1.9,0.4s1,0.7,1.3,1.2c0.3,0.5,0.6,1.1,0.7,1.8S91.3,91,91.3,91.8z M88.4,92c0-0.4,0-0.8-0.1-1.3
		c-0.1-0.4-0.2-0.8-0.3-1.1s-0.4-0.6-0.6-0.8s-0.6-0.3-1-0.3c-0.2,0-0.4,0-0.6,0.1c-0.2,0.1-0.4,0.2-0.6,0.3
		c-0.2,0.1-0.4,0.3-0.6,0.5c-0.2,0.2-0.4,0.5-0.6,0.8v3.3c0.4,0.5,0.8,0.9,1.1,1.2s0.8,0.4,1.1,0.4c0.4,0,0.7-0.1,1-0.3
		s0.5-0.4,0.6-0.8s0.3-0.7,0.4-1C88.3,92.8,88.4,92.4,88.4,92z"/>
	<path class="st4" d="M102.3,97.1c0,0.1,0,0.2-0.1,0.3s-0.2,0.1-0.4,0.1c-0.2,0-0.4,0-0.7,0c-0.3,0-0.6,0-0.8,0s-0.3-0.1-0.3-0.1
		s-0.1-0.1-0.1-0.3v-0.8c-0.4,0.4-0.9,0.8-1.4,1.1c-0.5,0.3-1.1,0.4-1.8,0.4c-0.5,0-1-0.1-1.5-0.2c-0.5-0.1-0.9-0.3-1.2-0.6
		s-0.6-0.6-0.8-1c-0.2-0.4-0.3-0.9-0.3-1.4c0-0.6,0.1-1.1,0.4-1.6s0.6-0.8,1-1.1c0.5-0.3,1-0.5,1.7-0.6c0.7-0.1,1.5-0.2,2.4-0.2h1
		v-0.6c0-0.3,0-0.6-0.1-0.8c-0.1-0.2-0.2-0.4-0.3-0.6c-0.1-0.2-0.4-0.3-0.6-0.3c-0.3-0.1-0.5-0.1-0.9-0.1c-0.5,0-0.9,0.1-1.3,0.2
		s-0.7,0.2-1,0.3s-0.5,0.3-0.7,0.3s-0.4,0.2-0.5,0.2c-0.1,0-0.2,0-0.2-0.1s-0.1-0.1-0.2-0.2s-0.1-0.2-0.1-0.4c0-0.1,0-0.3,0-0.5
		c0-0.2,0-0.4,0.1-0.6s0.1-0.3,0.2-0.4c0.1-0.1,0.3-0.2,0.6-0.4c0.3-0.1,0.6-0.3,0.9-0.4s0.8-0.2,1.2-0.3s0.9-0.1,1.3-0.1
		c0.8,0,1.5,0.1,2,0.2c0.6,0.2,1,0.4,1.4,0.7s0.6,0.7,0.8,1.3c0.2,0.5,0.3,1.1,0.3,1.8L102.3,97.1L102.3,97.1z M99.5,92.7h-1.1
		c-0.5,0-0.9,0-1.2,0.1c-0.3,0.1-0.6,0.2-0.8,0.3s-0.4,0.3-0.5,0.5c-0.1,0.2-0.1,0.4-0.1,0.7c0,0.4,0.1,0.8,0.4,1s0.6,0.4,1.1,0.4
		c0.4,0,0.8-0.1,1.1-0.3s0.7-0.5,1-0.9L99.5,92.7L99.5,92.7z"/>
	<path class="st4" d="M114.9,86.5c0.3,0,0.5,0.1,0.7,0.2s0.2,0.3,0.2,0.6V97c0,0.1,0,0.1-0.1,0.2c0,0.1-0.1,0.1-0.2,0.1
		c-0.1,0-0.3,0.1-0.4,0.1s-0.4,0-0.7,0c-0.3,0-0.5,0-0.7,0c-0.2,0-0.3-0.1-0.4-0.1c-0.1,0-0.2-0.1-0.2-0.1c0-0.1-0.1-0.1-0.1-0.2
		v-8.2h-4.6v4.8c0,0.6,0.1,1,0.3,1.3c0.2,0.3,0.5,0.4,0.9,0.4c0.1,0,0.3,0,0.4,0s0.2-0.1,0.3-0.1s0.2-0.1,0.2-0.1s0.1,0,0.2,0
		c0,0,0.1,0,0.1,0s0.1,0.1,0.1,0.2c0,0.1,0,0.2,0.1,0.3s0,0.3,0,0.5c0,0.3,0,0.6-0.1,0.8c0,0.2-0.1,0.3-0.2,0.4
		c-0.1,0.1-0.2,0.2-0.3,0.2s-0.3,0.1-0.5,0.2s-0.4,0.1-0.6,0.1c-0.2,0-0.4,0-0.6,0c-0.6,0-1.1-0.1-1.5-0.2c-0.4-0.1-0.8-0.4-1-0.7
		c-0.3-0.3-0.5-0.7-0.6-1.1s-0.2-1-0.2-1.6v-5.2h-1.2c-0.1,0-0.3-0.1-0.3-0.3s-0.1-0.5-0.1-0.9c0-0.2,0-0.4,0-0.6
		c0-0.2,0-0.3,0.1-0.4c0-0.1,0.1-0.2,0.1-0.2s0.1-0.1,0.2-0.1h1.2v-2.3c0-0.1,0-0.1,0.1-0.2c0-0.1,0.1-0.1,0.2-0.2
		c0.1,0,0.3-0.1,0.4-0.1c0.2,0,0.4,0,0.7,0c0.3,0,0.5,0,0.7,0s0.3,0.1,0.4,0.1c0.1,0,0.2,0.1,0.2,0.2c0,0.1,0.1,0.1,0.1,0.2v2.3
		C108.3,86.5,114.9,86.5,114.9,86.5z M116,83.4c0,0.6-0.1,1-0.4,1.2c-0.2,0.2-0.7,0.3-1.3,0.3c-0.6,0-1.1-0.1-1.3-0.3
		c-0.2-0.2-0.3-0.6-0.3-1.2c0-0.6,0.1-1,0.4-1.2c0.2-0.2,0.7-0.3,1.3-0.3c0.6,0,1.1,0.1,1.3,0.3C115.9,82.5,116,82.8,116,83.4z"/>
	<path class="st4" d="M127.3,97.1c0,0.1,0,0.2-0.1,0.3s-0.2,0.1-0.4,0.1c-0.2,0-0.4,0-0.7,0c-0.3,0-0.6,0-0.8,0s-0.3-0.1-0.3-0.1
		s-0.1-0.1-0.1-0.3v-0.8c-0.4,0.4-0.9,0.8-1.4,1.1c-0.5,0.3-1.1,0.4-1.8,0.4c-0.5,0-1-0.1-1.5-0.2c-0.5-0.1-0.9-0.3-1.2-0.6
		s-0.6-0.6-0.8-1c-0.2-0.4-0.3-0.9-0.3-1.4c0-0.6,0.1-1.1,0.4-1.6s0.6-0.8,1-1.1c0.5-0.3,1-0.5,1.7-0.6c0.7-0.1,1.5-0.2,2.4-0.2h1
		v-0.6c0-0.3,0-0.6-0.1-0.8c-0.1-0.2-0.2-0.4-0.3-0.6c-0.1-0.2-0.4-0.3-0.6-0.3c-0.3-0.1-0.5-0.1-0.9-0.1c-0.5,0-0.9,0.1-1.3,0.2
		s-0.7,0.2-1,0.3s-0.5,0.3-0.7,0.3s-0.4,0.2-0.5,0.2c-0.1,0-0.2,0-0.2-0.1s-0.1-0.1-0.2-0.2s-0.1-0.2-0.1-0.4c0-0.1,0-0.3,0-0.5
		c0-0.2,0-0.4,0.1-0.6s0.1-0.3,0.2-0.4c0.1-0.1,0.3-0.2,0.6-0.4c0.3-0.1,0.6-0.3,0.9-0.4s0.8-0.2,1.2-0.3s0.9-0.1,1.3-0.1
		c0.8,0,1.5,0.1,2,0.2c0.6,0.2,1,0.4,1.4,0.7s0.6,0.7,0.8,1.3c0.2,0.5,0.3,1.1,0.3,1.8L127.3,97.1L127.3,97.1z M124.5,92.7h-1.1
		c-0.5,0-0.9,0-1.2,0.1c-0.3,0.1-0.6,0.2-0.8,0.3s-0.4,0.3-0.5,0.5c-0.1,0.2-0.1,0.4-0.1,0.7c0,0.4,0.1,0.8,0.4,1s0.6,0.4,1.1,0.4
		c0.4,0,0.8-0.1,1.1-0.3s0.7-0.5,1-0.9L124.5,92.7L124.5,92.7z"/>
</g>
<g>
	<g>
		<path class="st4" d="M375.7,97c0,0.1,0,0.2-0.1,0.2c0,0.1-0.1,0.1-0.3,0.2s-0.3,0.1-0.5,0.1c-0.2,0-0.4,0-0.8,0
			c-0.3,0-0.5,0-0.7,0c-0.2,0-0.4-0.1-0.5-0.1c-0.1,0-0.2-0.1-0.3-0.2c-0.1-0.1-0.1-0.1-0.1-0.2V82.7c0-0.1,0-0.2,0.1-0.2
			s0.1-0.1,0.3-0.2s0.3-0.1,0.5-0.1s0.4,0,0.7,0c0.3,0,0.5,0,0.8,0s0.4,0.1,0.5,0.1s0.2,0.1,0.3,0.2s0.1,0.1,0.1,0.2L375.7,97
			L375.7,97z"/>
		<path class="st4" d="M395.4,97c0,0.1,0,0.2-0.1,0.2c-0.1,0.1-0.1,0.1-0.2,0.2s-0.3,0.1-0.5,0.1c-0.2,0-0.4,0-0.7,0
			c-0.3,0-0.5,0-0.7,0s-0.3-0.1-0.4-0.1c-0.1,0-0.2-0.1-0.2-0.2s-0.1-0.1-0.1-0.2v-6.2c0-0.3,0-0.7-0.1-1s-0.2-0.5-0.3-0.7
			s-0.3-0.4-0.5-0.5c-0.2-0.1-0.5-0.2-0.7-0.2c-0.3,0-0.7,0.1-1.1,0.4c-0.4,0.3-0.8,0.7-1.2,1.2V97c0,0.1,0,0.2-0.1,0.2
			c0,0.1-0.1,0.1-0.2,0.2s-0.3,0.1-0.5,0.1c-0.2,0-0.4,0-0.7,0c-0.3,0-0.5,0-0.7,0s-0.3-0.1-0.5-0.1c-0.1,0-0.2-0.1-0.2-0.2
			s-0.1-0.1-0.1-0.2v-6.2c0-0.3,0-0.7-0.1-1c-0.1-0.3-0.2-0.5-0.3-0.7s-0.3-0.4-0.5-0.5s-0.5-0.2-0.7-0.2c-0.4,0-0.7,0.1-1.1,0.4
			c-0.4,0.3-0.8,0.7-1.2,1.2V97c0,0.1,0,0.2-0.1,0.2c0,0.1-0.1,0.1-0.2,0.2c-0.1,0-0.3,0.1-0.5,0.1s-0.4,0-0.7,0s-0.5,0-0.7,0
			c-0.2,0-0.3-0.1-0.5-0.1c-0.1,0-0.2-0.1-0.2-0.2c-0.1-0.1-0.1-0.1-0.1-0.2V86.6c0-0.1,0-0.2,0.1-0.2s0.1-0.1,0.2-0.2
			c0.1,0,0.2-0.1,0.4-0.1s0.4,0,0.6,0c0.3,0,0.5,0,0.6,0s0.3,0.1,0.4,0.1s0.1,0.1,0.2,0.2c0,0.1,0.1,0.1,0.1,0.2v1.2
			c0.6-0.6,1.1-1.1,1.7-1.4c0.6-0.3,1.2-0.5,1.8-0.5c0.4,0,0.8,0,1.2,0.1c0.3,0.1,0.7,0.2,0.9,0.4s0.5,0.4,0.7,0.6
			c0.2,0.2,0.4,0.5,0.5,0.8c0.3-0.3,0.6-0.6,0.9-0.9c0.3-0.2,0.6-0.4,0.9-0.6s0.6-0.3,0.9-0.3c0.3-0.1,0.6-0.1,0.9-0.1
			c0.7,0,1.3,0.1,1.8,0.3c0.5,0.2,0.9,0.6,1.1,1s0.5,0.9,0.6,1.4c0.1,0.5,0.2,1.1,0.2,1.7L395.4,97L395.4,97z"/>
		<path class="st4" d="M408,91.5c0,0.4-0.1,0.6-0.2,0.8c-0.2,0.2-0.4,0.3-0.7,0.3h-6.4c0,0.4,0,0.8,0.2,1.2s0.3,0.7,0.5,0.9
			s0.5,0.4,0.9,0.6c0.4,0.1,0.8,0.2,1.3,0.2c0.5,0,1,0,1.4-0.1s0.7-0.2,1-0.3s0.5-0.2,0.7-0.3s0.3-0.1,0.5-0.1c0.1,0,0.1,0,0.2,0
			c0,0,0.1,0.1,0.1,0.2c0,0.1,0,0.2,0.1,0.3c0,0.1,0,0.3,0,0.5c0,0.2,0,0.3,0,0.4c0,0.1,0,0.2,0,0.3c0,0.1,0,0.2-0.1,0.2
			s-0.1,0.1-0.1,0.2c0,0-0.2,0.1-0.4,0.2s-0.5,0.2-0.9,0.3s-0.8,0.2-1.2,0.2c-0.5,0.1-0.9,0.1-1.4,0.1c-0.9,0-1.7-0.1-2.4-0.3
			s-1.3-0.6-1.8-1.1s-0.8-1.1-1.1-1.8c-0.2-0.7-0.3-1.6-0.3-2.6c0-0.9,0.1-1.8,0.4-2.5s0.6-1.4,1.1-1.9c0.5-0.5,1-0.9,1.7-1.2
			s1.4-0.4,2.2-0.4c0.9,0,1.6,0.1,2.2,0.4s1.1,0.6,1.5,1.1s0.7,1,0.9,1.6c0.2,0.6,0.3,1.3,0.3,2L408,91.5L408,91.5z M405.1,90.6
			c0-0.8-0.1-1.5-0.5-1.9c-0.4-0.5-0.9-0.7-1.6-0.7c-0.4,0-0.7,0.1-1,0.2s-0.5,0.3-0.7,0.6c-0.2,0.2-0.3,0.5-0.4,0.8s-0.1,0.7-0.2,1
			H405.1z"/>
		<path class="st4" d="M417.1,87.5c0,0.3,0,0.5,0,0.7s0,0.3-0.1,0.4s-0.1,0.2-0.1,0.2s-0.1,0.1-0.2,0.1c-0.1,0-0.1,0-0.2,0
			c-0.1,0-0.2-0.1-0.3-0.1s-0.2-0.1-0.3-0.1c-0.1,0-0.3,0-0.4,0c-0.2,0-0.3,0-0.5,0.1c-0.2,0.1-0.3,0.2-0.5,0.3s-0.4,0.3-0.6,0.6
			s-0.4,0.5-0.6,0.9V97c0,0.1,0,0.2-0.1,0.2c0,0.1-0.1,0.1-0.2,0.2s-0.3,0.1-0.4,0.1c-0.2,0-0.4,0-0.7,0s-0.5,0-0.7,0
			s-0.3-0.1-0.4-0.1c-0.1,0-0.2-0.1-0.2-0.2c0-0.1-0.1-0.1-0.1-0.2V86.6c0-0.1,0-0.2,0.1-0.2c0-0.1,0.1-0.1,0.2-0.2s0.2-0.1,0.4-0.1
			c0.2,0,0.4,0,0.6,0c0.3,0,0.5,0,0.6,0s0.3,0.1,0.4,0.1s0.1,0.1,0.2,0.2s0.1,0.1,0.1,0.2v1.3c0.3-0.4,0.5-0.7,0.8-1
			s0.5-0.5,0.7-0.6s0.4-0.3,0.7-0.3s0.4-0.1,0.7-0.1c0.1,0,0.2,0,0.3,0s0.2,0,0.4,0.1s0.2,0.1,0.3,0.1c0.1,0,0.2,0.1,0.2,0.1
			s0.1,0.1,0.1,0.1s0,0.1,0,0.2c0,0.1,0,0.2,0,0.4C417.1,87,417.1,87.3,417.1,87.5z"/>
		<path class="st4" d="M426,94.1c0,0.6-0.1,1.1-0.3,1.6s-0.5,0.8-0.9,1.1s-0.9,0.5-1.4,0.7c-0.5,0.2-1.2,0.2-1.8,0.2
			c-0.4,0-0.8,0-1.1-0.1c-0.4-0.1-0.7-0.1-1-0.2s-0.5-0.2-0.7-0.3s-0.3-0.2-0.4-0.3s-0.1-0.2-0.2-0.4c0-0.2-0.1-0.4-0.1-0.8
			c0-0.2,0-0.4,0-0.5c0-0.1,0-0.3,0.1-0.3c0-0.1,0.1-0.1,0.1-0.2c0,0,0.1,0,0.2,0c0.1,0,0.2,0.1,0.4,0.2c0.2,0.1,0.4,0.2,0.6,0.3
			s0.5,0.2,0.9,0.3c0.3,0.1,0.7,0.2,1.1,0.2c0.3,0,0.5,0,0.7-0.1c0.2-0.1,0.4-0.1,0.5-0.2c0.2-0.1,0.3-0.2,0.4-0.4
			c0.1-0.2,0.1-0.3,0.1-0.5c0-0.2-0.1-0.4-0.2-0.6c-0.1-0.2-0.3-0.3-0.6-0.4s-0.5-0.2-0.8-0.3c-0.3-0.1-0.6-0.2-0.9-0.4
			c-0.3-0.1-0.6-0.3-0.9-0.5c-0.3-0.2-0.6-0.4-0.8-0.6s-0.4-0.6-0.6-0.9c-0.1-0.3-0.2-0.8-0.2-1.3s0.1-1,0.3-1.4s0.5-0.8,0.8-1.1
			c0.4-0.3,0.8-0.5,1.3-0.7s1.1-0.3,1.8-0.3c0.3,0,0.6,0,1,0.1s0.6,0.1,0.8,0.2s0.5,0.2,0.6,0.2c0.2,0.1,0.3,0.2,0.4,0.2
			c0.1,0.1,0.1,0.1,0.2,0.2c0,0.1,0.1,0.1,0.1,0.2c0,0.1,0,0.2,0,0.3s0,0.3,0,0.4c0,0.2,0,0.4,0,0.5s0,0.2-0.1,0.3s-0.1,0.1-0.1,0.2
			c0,0-0.1,0-0.2,0c-0.1,0-0.2,0-0.3-0.1s-0.3-0.2-0.6-0.3s-0.5-0.2-0.8-0.3c-0.3-0.1-0.6-0.1-1-0.1c-0.3,0-0.5,0-0.7,0.1
			s-0.4,0.1-0.5,0.2s-0.2,0.2-0.3,0.4s-0.1,0.3-0.1,0.4c0,0.2,0.1,0.4,0.2,0.6s0.3,0.3,0.6,0.4s0.5,0.2,0.8,0.3
			c0.3,0.1,0.6,0.2,0.9,0.4c0.3,0.1,0.6,0.3,0.9,0.4c0.3,0.2,0.6,0.4,0.8,0.6s0.4,0.6,0.6,0.9S426,93.6,426,94.1z"/>
		<path class="st4" d="M437.1,97.1c0,0.1,0,0.2-0.1,0.3c-0.1,0.1-0.2,0.1-0.4,0.1c-0.2,0-0.4,0-0.7,0c-0.3,0-0.6,0-0.8,0
			s-0.3-0.1-0.3-0.1s-0.1-0.2-0.1-0.3v-0.8c-0.4,0.5-0.9,0.8-1.5,1.1c-0.5,0.3-1.2,0.4-1.8,0.4c-0.6,0-1.1-0.1-1.5-0.2
			s-0.9-0.4-1.2-0.6c-0.3-0.3-0.6-0.6-0.8-1.1s-0.3-0.9-0.3-1.5c0-0.6,0.1-1.1,0.4-1.6s0.6-0.8,1.1-1.1s1.1-0.5,1.8-0.7
			c0.7-0.1,1.5-0.2,2.5-0.2h1v-0.6c0-0.3,0-0.6-0.1-0.9c-0.1-0.2-0.2-0.4-0.3-0.6s-0.4-0.3-0.6-0.4s-0.6-0.1-0.9-0.1
			c-0.5,0-0.9,0.1-1.3,0.2c-0.4,0.1-0.7,0.2-1,0.4s-0.5,0.3-0.7,0.4c-0.2,0.1-0.4,0.2-0.5,0.2c-0.1,0-0.2,0-0.2-0.1
			c-0.1-0.1-0.1-0.1-0.2-0.2c0-0.1-0.1-0.2-0.1-0.4s0-0.3,0-0.5c0-0.2,0-0.4,0.1-0.6s0.1-0.3,0.2-0.4s0.3-0.2,0.6-0.4s0.6-0.3,1-0.4
			s0.8-0.2,1.2-0.3c0.4-0.1,0.9-0.1,1.3-0.1c0.8,0,1.5,0.1,2.1,0.2c0.6,0.2,1.1,0.4,1.4,0.7s0.6,0.8,0.8,1.3s0.3,1.1,0.3,1.9
			L437.1,97.1L437.1,97.1z M436.9,81.8c0,0.9-0.2,1.7-0.7,2.2c-0.4,0.5-1.1,0.8-1.9,0.8c-0.3,0-0.6,0-0.8-0.1s-0.4-0.1-0.6-0.3
			c-0.2-0.1-0.4-0.2-0.5-0.3s-0.3-0.2-0.4-0.3c-0.1-0.1-0.3-0.2-0.4-0.3c-0.1-0.1-0.3-0.1-0.4-0.1c-0.3,0-0.4,0.1-0.5,0.3
			c-0.1,0.2-0.2,0.4-0.2,0.7c0,0.1,0,0.1,0,0.2s-0.1,0.1-0.1,0.1c-0.1,0-0.2,0-0.3,0.1s-0.3,0-0.5,0c-0.2,0-0.3,0-0.4,0
			s-0.2,0-0.3-0.1c-0.1,0-0.1-0.1-0.1-0.2s0-0.1,0-0.3c0-0.9,0.2-1.6,0.7-2.1s1.1-0.8,1.9-0.8c0.4,0,0.8,0.1,1.1,0.2
			s0.6,0.3,0.8,0.5s0.5,0.3,0.7,0.5s0.4,0.2,0.6,0.2c0.2,0,0.4-0.1,0.5-0.3c0.1-0.2,0.2-0.4,0.2-0.7c0-0.1,0.1-0.2,0.2-0.3
			c0.1,0,0.4-0.1,0.7-0.1s0.6,0,0.7,0.1S436.9,81.6,436.9,81.8z M434.2,92.6h-1.1c-0.5,0-0.9,0-1.2,0.1s-0.6,0.2-0.8,0.3
			s-0.4,0.3-0.5,0.5s-0.1,0.4-0.1,0.7c0,0.4,0.1,0.8,0.4,1s0.7,0.4,1.1,0.4c0.4,0,0.8-0.1,1.1-0.3s0.7-0.5,1.1-0.9L434.2,92.6
			L434.2,92.6z"/>
		<path class="st4" d="M450.6,91.7c0,0.9-0.1,1.7-0.3,2.4c-0.2,0.7-0.6,1.4-1.1,1.9c-0.5,0.5-1.1,0.9-1.8,1.2s-1.6,0.4-2.5,0.4
			c-0.9,0-1.7-0.1-2.4-0.4s-1.3-0.6-1.7-1.1c-0.4-0.5-0.8-1.1-1-1.8c-0.2-0.7-0.3-1.5-0.3-2.5c0-0.9,0.1-1.7,0.4-2.4
			c0.2-0.7,0.6-1.4,1.1-1.9s1.1-0.9,1.8-1.2s1.5-0.4,2.5-0.4c0.9,0,1.8,0.1,2.4,0.4s1.3,0.6,1.7,1.1s0.8,1.1,1,1.8
			S450.6,90.8,450.6,91.7z M447.6,91.8c0-0.5,0-1-0.1-1.4c-0.1-0.4-0.2-0.8-0.4-1.1s-0.5-0.6-0.8-0.8s-0.7-0.3-1.2-0.3
			c-0.4,0-0.8,0.1-1.1,0.2c-0.3,0.2-0.6,0.4-0.8,0.7c-0.2,0.3-0.4,0.7-0.5,1.1s-0.2,0.9-0.2,1.5c0,0.5,0,1,0.1,1.4
			c0.1,0.4,0.2,0.8,0.4,1.1s0.5,0.6,0.8,0.7s0.7,0.3,1.2,0.3c0.5,0,0.8-0.1,1.2-0.2s0.6-0.4,0.8-0.7s0.4-0.7,0.5-1.1
			S447.6,92.3,447.6,91.8z"/>
	</g>
</g>
</svg>
