<?xml version="1.0" encoding="utf-8"?>
<!-- Generator: Adobe Illustrator 24.3.0, SVG Export Plug-In . SVG Version: 6.00 Build 0)  -->
<svg version="1.1" id="Camada_1" xmlns="http://www.w3.org/2000/svg" xmlns:xlink="http://www.w3.org/1999/xlink" x="0px" y="0px"
	 viewBox="0 0 500 425.8" style="enable-background:new 0 0 500 425.8;" xml:space="preserve">
<style type="text/css">
	.st0{fill:#FCCE8C;}
	.st1{fill:#128360;}
	.st2{fill:#7C7C7C;}
	.st3{fill:#FFFFFF;}
	.st4{fill:none;stroke:#BAC3C9;stroke-miterlimit:10;}
</style>
<circle class="st0" cx="94.3" cy="90.2" r="89.7"/>
<g>
	<path class="st1" d="M214.9,204.3c0,1.1-0.2,2-0.5,2.9c-0.3,0.8-0.8,1.5-1.5,2.1s-1.4,1-2.4,1.3s-2.1,0.4-3.3,0.4h-1.6v6.2
		c0,0.1,0,0.2-0.1,0.3c-0.1,0.1-0.2,0.1-0.3,0.2s-0.4,0.1-0.6,0.1s-0.6,0-1,0c-0.4,0-0.7,0-0.9,0s-0.5-0.1-0.6-0.1
		c-0.1-0.1-0.3-0.1-0.3-0.2s-0.1-0.2-0.1-0.3v-17.4c0-0.5,0.1-0.8,0.4-1.1c0.2-0.2,0.6-0.4,1-0.4h4.6c0.5,0,0.9,0,1.3,0.1
		c0.4,0,0.9,0.1,1.5,0.2c0.6,0.1,1.2,0.3,1.8,0.6c0.6,0.3,1.1,0.7,1.5,1.2c0.4,0.5,0.7,1,1,1.7C214.8,202.8,214.9,203.5,214.9,204.3
		z M210.8,204.6c0-0.7-0.1-1.2-0.4-1.7s-0.5-0.8-0.9-1s-0.7-0.3-1.1-0.4s-0.8-0.1-1.2-0.1h-1.7v6.6h1.8c0.6,0,1.1-0.1,1.6-0.3
		c0.4-0.2,0.8-0.4,1-0.7c0.3-0.3,0.5-0.7,0.6-1.1S210.8,205,210.8,204.6z"/>
	<path class="st1" d="M229.5,210.2c0,0.5-0.1,0.8-0.3,1c-0.2,0.2-0.5,0.3-0.8,0.3h-8.1c0,0.6,0.1,1.1,0.2,1.5
		c0.1,0.5,0.4,0.9,0.6,1.2s0.7,0.6,1.1,0.7s1,0.3,1.7,0.3c0.7,0,1.2-0.1,1.7-0.1s0.9-0.2,1.3-0.3s0.7-0.2,0.9-0.3
		c0.2-0.1,0.4-0.1,0.6-0.1c0.1,0,0.2,0,0.2,0.1c0.1,0,0.1,0.1,0.1,0.2s0.1,0.2,0.1,0.4s0,0.4,0,0.6c0,0.2,0,0.4,0,0.6s0,0.3,0,0.4
		s-0.1,0.2-0.1,0.3c0,0.1-0.1,0.1-0.2,0.2c-0.1,0.1-0.2,0.2-0.5,0.3s-0.7,0.2-1.1,0.4c-0.4,0.1-1,0.2-1.5,0.3
		c-0.6,0.1-1.2,0.1-1.9,0.1c-1.2,0-2.2-0.1-3.1-0.4s-1.6-0.8-2.2-1.4c-0.6-0.6-1-1.4-1.3-2.3c-0.3-0.9-0.4-2-0.4-3.3
		c0-1.2,0.1-2.3,0.5-3.2c0.3-0.9,0.8-1.8,1.3-2.4s1.3-1.2,2.1-1.5c0.8-0.4,1.8-0.5,2.8-0.5c1.1,0,2.1,0.2,2.9,0.5s1.4,0.8,1.9,1.4
		c0.5,0.6,0.9,1.3,1.1,2.1s0.4,1.7,0.4,2.6L229.5,210.2L229.5,210.2z M225.8,209.1c0-1.1-0.2-1.9-0.6-2.5c-0.4-0.6-1.1-0.9-2.1-0.9
		c-0.5,0-0.9,0.1-1.3,0.3c-0.4,0.2-0.6,0.4-0.9,0.7c-0.2,0.3-0.4,0.7-0.5,1.1c-0.1,0.4-0.2,0.9-0.2,1.3L225.8,209.1L225.8,209.1z"/>
	<path class="st1" d="M241.9,213.4c0,0.8-0.1,1.4-0.4,2s-0.7,1.1-1.2,1.4s-1.1,0.7-1.8,0.9c-0.7,0.2-1.5,0.3-2.3,0.3
		c-0.5,0-1,0-1.4-0.1s-0.9-0.2-1.2-0.3s-0.7-0.2-0.9-0.4c-0.2-0.1-0.4-0.2-0.5-0.3c-0.1-0.1-0.2-0.3-0.3-0.5s-0.1-0.6-0.1-1
		c0-0.3,0-0.5,0-0.7s0.1-0.3,0.1-0.4c0-0.1,0.1-0.2,0.1-0.2s0.1-0.1,0.2-0.1c0.1,0,0.3,0.1,0.5,0.2c0.2,0.1,0.5,0.3,0.8,0.4
		c0.3,0.1,0.7,0.3,1.1,0.4s0.9,0.2,1.4,0.2c0.3,0,0.6,0,0.9-0.1s0.5-0.2,0.7-0.3c0.2-0.1,0.3-0.3,0.4-0.5c0.1-0.2,0.1-0.4,0.1-0.7
		c0-0.3-0.1-0.6-0.3-0.8c-0.2-0.2-0.4-0.4-0.7-0.6s-0.6-0.3-1-0.4s-0.8-0.3-1.2-0.5c-0.4-0.2-0.8-0.4-1.2-0.6s-0.7-0.5-1-0.8
		c-0.3-0.3-0.6-0.7-0.7-1.1s-0.3-1-0.3-1.6c0-0.6,0.1-1.2,0.4-1.8s0.6-1,1.1-1.4c0.5-0.4,1-0.7,1.7-0.9c0.7-0.2,1.4-0.3,2.3-0.3
		c0.4,0,0.8,0,1.2,0.1s0.8,0.1,1.1,0.2s0.6,0.2,0.8,0.3s0.4,0.2,0.5,0.3s0.2,0.1,0.2,0.2s0.1,0.2,0.1,0.3s0,0.2,0.1,0.4
		c0,0.1,0,0.4,0,0.6c0,0.3,0,0.5,0,0.7c0,0.2,0,0.3-0.1,0.4s-0.1,0.2-0.1,0.2c-0.1,0-0.1,0.1-0.2,0.1c-0.1,0-0.2-0.1-0.4-0.2
		c-0.2-0.1-0.4-0.2-0.7-0.3c-0.3-0.1-0.6-0.2-1-0.3s-0.8-0.2-1.3-0.2c-0.3,0-0.6,0-0.9,0.1c-0.3,0.1-0.4,0.2-0.6,0.3
		s-0.3,0.3-0.4,0.5c-0.1,0.2-0.1,0.4-0.1,0.6c0,0.3,0.1,0.6,0.3,0.8c0.2,0.2,0.4,0.4,0.8,0.6s0.7,0.3,1.1,0.4s0.8,0.3,1.2,0.5
		c0.4,0.2,0.8,0.4,1.2,0.6c0.4,0.2,0.7,0.5,1.1,0.8c0.3,0.3,0.6,0.7,0.8,1.1C241.9,212.3,241.9,212.8,241.9,213.4z"/>
	<path class="st1" d="M257.4,222.5c0,0.1,0,0.2-0.1,0.3s-0.2,0.1-0.3,0.2c-0.1,0.1-0.3,0.1-0.6,0.1c-0.2,0-0.5,0-0.9,0
		c-0.4,0-0.7,0-0.9,0c-0.2,0-0.4-0.1-0.6-0.1s-0.2-0.1-0.3-0.2s-0.1-0.2-0.1-0.3v-6.3c-0.4,0.3-0.7,0.6-1,0.9
		c-0.3,0.2-0.7,0.4-1,0.6c-0.3,0.1-0.7,0.3-1,0.3c-0.4,0.1-0.7,0.1-1.1,0.1c-1,0-1.8-0.2-2.5-0.6c-0.7-0.4-1.3-0.9-1.7-1.6
		s-0.8-1.4-0.9-2.3c-0.2-0.9-0.3-1.8-0.3-2.8c0-1.2,0.1-2.3,0.4-3.2s0.6-1.8,1.1-2.4c0.5-0.7,1.1-1.2,1.8-1.5
		c0.7-0.4,1.6-0.5,2.5-0.5c0.4,0,0.7,0,1.1,0.1s0.7,0.2,1,0.4c0.3,0.2,0.7,0.4,1.1,0.7s0.8,0.6,1.2,1.1v-1.4c0-0.1,0-0.2,0.1-0.3
		c0.1-0.1,0.1-0.1,0.3-0.2s0.3-0.1,0.5-0.1c0.2,0,0.5,0,0.8,0c0.3,0,0.5,0,0.8,0c0.2,0,0.4,0.1,0.5,0.1s0.2,0.1,0.3,0.2
		c0,0.1,0.1,0.2,0.1,0.3L257.4,222.5L257.4,222.5z M253.7,208.3c-0.5-0.7-1.1-1.2-1.5-1.6c-0.5-0.4-1-0.5-1.5-0.5
		c-0.5,0-0.9,0.1-1.3,0.4c-0.4,0.2-0.6,0.6-0.9,1c-0.2,0.4-0.4,0.9-0.5,1.4s-0.2,1-0.2,1.5c0,0.6,0,1.1,0.1,1.6
		c0.1,0.5,0.2,1,0.4,1.4s0.5,0.7,0.8,1c0.3,0.3,0.8,0.4,1.3,0.4c0.3,0,0.5,0,0.8-0.1s0.5-0.2,0.8-0.4c0.3-0.2,0.5-0.4,0.8-0.7
		s0.6-0.6,0.9-1L253.7,208.3L253.7,208.3z"/>
	<path class="st1" d="M273.8,217.2c0,0.1,0,0.2-0.1,0.3s-0.1,0.1-0.3,0.2c-0.1,0.1-0.3,0.1-0.5,0.1c-0.2,0-0.5,0-0.8,0
		c-0.3,0-0.6,0-0.8,0s-0.4-0.1-0.5-0.1c-0.1-0.1-0.2-0.1-0.3-0.2s-0.1-0.2-0.1-0.3v-1.5c-0.7,0.8-1.5,1.4-2.3,1.8
		c-0.8,0.4-1.5,0.6-2.4,0.6c-0.9,0-1.7-0.1-2.3-0.4c-0.6-0.3-1.1-0.7-1.5-1.2c-0.4-0.5-0.7-1.1-0.8-1.8c-0.2-0.7-0.3-1.5-0.3-2.5
		v-8.1c0-0.1,0-0.2,0.1-0.3c0-0.1,0.1-0.1,0.3-0.2c0.1-0.1,0.3-0.1,0.6-0.1s0.5,0,0.9,0c0.4,0,0.7,0,0.9,0c0.2,0,0.4,0.1,0.6,0.1
		s0.3,0.1,0.3,0.2c0.1,0.1,0.1,0.2,0.1,0.3v7.5c0,0.7,0,1.2,0.1,1.6c0.1,0.4,0.2,0.7,0.4,0.9c0.2,0.3,0.4,0.5,0.7,0.6s0.6,0.2,1,0.2
		c0.5,0,1-0.2,1.4-0.5s1-0.9,1.5-1.5v-8.9c0-0.1,0-0.2,0.1-0.3c0-0.1,0.1-0.1,0.3-0.2s0.3-0.1,0.6-0.1s0.5,0,0.9,0s0.7,0,0.9,0
		c0.2,0,0.4,0.1,0.6,0.1s0.2,0.1,0.3,0.2c0.1,0.1,0.1,0.2,0.1,0.3L273.8,217.2L273.8,217.2z"/>
	<path class="st1" d="M281.6,199.4c0,0.8-0.1,1.3-0.5,1.6c-0.3,0.3-0.9,0.4-1.7,0.4c-0.9,0-1.4-0.1-1.7-0.4
		c-0.3-0.3-0.4-0.8-0.4-1.5c0-0.8,0.1-1.3,0.5-1.6s0.9-0.4,1.7-0.4s1.4,0.1,1.7,0.4S281.6,198.7,281.6,199.4z M281.3,217.2
		c0,0.1,0,0.2-0.1,0.3s-0.2,0.1-0.3,0.2s-0.3,0.1-0.6,0.1c-0.2,0-0.5,0-0.9,0s-0.7,0-0.9,0c-0.2,0-0.4-0.1-0.6-0.1s-0.3-0.1-0.3-0.2
		s-0.1-0.2-0.1-0.3v-13.3c0-0.1,0-0.2,0.1-0.3s0.2-0.1,0.3-0.2c0.1-0.1,0.3-0.1,0.6-0.1s0.5,0,0.9,0s0.7,0,0.9,0
		c0.2,0,0.4,0.1,0.6,0.1s0.3,0.1,0.3,0.2s0.1,0.2,0.1,0.3V217.2z"/>
	<path class="st1" d="M294.4,213.4c0,0.8-0.1,1.4-0.4,2s-0.7,1.1-1.2,1.4c-0.5,0.4-1.1,0.7-1.8,0.9s-1.5,0.3-2.3,0.3
		c-0.5,0-1,0-1.4-0.1s-0.9-0.2-1.2-0.3c-0.4-0.1-0.7-0.2-0.9-0.4c-0.2-0.1-0.4-0.2-0.5-0.3s-0.2-0.3-0.3-0.5s-0.1-0.6-0.1-1
		c0-0.3,0-0.5,0-0.7s0-0.3,0.1-0.4c0-0.1,0.1-0.2,0.1-0.2c0.1,0,0.1-0.1,0.2-0.1c0.1,0,0.3,0.1,0.5,0.2s0.5,0.3,0.8,0.4
		c0.3,0.1,0.7,0.3,1.1,0.4s0.9,0.2,1.4,0.2c0.3,0,0.6,0,0.9-0.1c0.3-0.1,0.5-0.2,0.7-0.3c0.2-0.1,0.3-0.3,0.4-0.5
		c0.1-0.2,0.1-0.4,0.1-0.7c0-0.3-0.1-0.6-0.3-0.8c-0.2-0.2-0.4-0.4-0.7-0.6s-0.6-0.3-1-0.4s-0.8-0.3-1.2-0.5
		c-0.4-0.2-0.8-0.4-1.2-0.6s-0.7-0.5-1-0.8c-0.3-0.3-0.5-0.7-0.7-1.1c-0.2-0.4-0.3-1-0.3-1.6c0-0.6,0.1-1.2,0.4-1.8s0.6-1,1.1-1.4
		c0.5-0.4,1-0.7,1.7-0.9c0.7-0.2,1.4-0.3,2.3-0.3c0.4,0,0.8,0,1.2,0.1s0.8,0.1,1.1,0.2s0.6,0.2,0.8,0.3s0.4,0.2,0.5,0.3
		s0.2,0.1,0.2,0.2s0.1,0.2,0.1,0.3s0,0.2,0,0.4c0,0.1,0,0.4,0,0.6c0,0.3,0,0.5,0,0.7c0,0.2,0,0.3-0.1,0.4s-0.1,0.2-0.1,0.2
		c-0.1,0-0.1,0.1-0.2,0.1c-0.1,0-0.2-0.1-0.4-0.2c-0.2-0.1-0.4-0.2-0.7-0.3c-0.3-0.1-0.6-0.2-1-0.3s-0.8-0.2-1.3-0.2
		c-0.3,0-0.6,0-0.9,0.1c-0.3,0.1-0.5,0.2-0.6,0.3c-0.2,0.1-0.3,0.3-0.4,0.5c-0.1,0.2-0.1,0.4-0.1,0.6c0,0.3,0.1,0.6,0.3,0.8
		c0.2,0.2,0.4,0.4,0.8,0.6s0.7,0.3,1,0.4c0.4,0.1,0.8,0.3,1.2,0.5c0.4,0.2,0.8,0.4,1.2,0.6c0.4,0.2,0.7,0.5,1,0.8
		c0.3,0.3,0.6,0.7,0.8,1.1C294.4,212.3,294.4,212.8,294.4,213.4z"/>
	<path class="st1" d="M308.6,217.3c0,0.1,0,0.3-0.1,0.3s-0.3,0.1-0.5,0.2c-0.2,0-0.5,0.1-1,0.1c-0.5,0-0.8,0-1-0.1
		c-0.2,0-0.4-0.1-0.4-0.2s-0.1-0.2-0.1-0.3v-1.1c-0.5,0.6-1.2,1-1.9,1.4c-0.7,0.3-1.5,0.5-2.3,0.5c-0.7,0-1.4-0.1-2-0.3
		c-0.6-0.2-1.1-0.5-1.5-0.8s-0.8-0.8-1-1.4c-0.2-0.5-0.4-1.2-0.4-1.9c0-0.8,0.1-1.4,0.5-2c0.3-0.6,0.8-1,1.4-1.4
		c0.6-0.4,1.4-0.6,2.3-0.8c0.9-0.2,1.9-0.3,3.1-0.3h1.3v-0.8c0-0.4,0-0.8-0.1-1.1c-0.1-0.3-0.2-0.6-0.4-0.8
		c-0.2-0.2-0.5-0.4-0.8-0.5c-0.3-0.1-0.7-0.1-1.2-0.1c-0.6,0-1.2,0.1-1.7,0.2s-0.9,0.3-1.3,0.5c-0.4,0.2-0.7,0.3-1,0.5
		c-0.3,0.1-0.5,0.2-0.6,0.2c-0.1,0-0.2,0-0.3-0.1c-0.1-0.1-0.1-0.2-0.2-0.3s-0.1-0.3-0.1-0.5s0-0.4,0-0.6c0-0.3,0-0.6,0.1-0.7
		s0.1-0.3,0.3-0.5c0.1-0.1,0.4-0.3,0.7-0.5s0.8-0.3,1.2-0.5c0.5-0.1,1-0.3,1.5-0.4c0.5-0.1,1.1-0.1,1.7-0.1c1,0,1.9,0.1,2.7,0.3
		c0.7,0.2,1.4,0.5,1.8,0.9c0.5,0.4,0.8,1,1,1.6s0.3,1.5,0.3,2.4L308.6,217.3L308.6,217.3z M304.9,211.5h-1.4c-0.6,0-1.1,0-1.5,0.1
		c-0.4,0.1-0.8,0.2-1,0.4c-0.3,0.2-0.5,0.4-0.6,0.6c-0.1,0.3-0.2,0.5-0.2,0.9c0,0.6,0.2,1,0.5,1.3c0.4,0.3,0.8,0.5,1.5,0.5
		c0.5,0,1-0.1,1.5-0.4c0.4-0.3,0.9-0.7,1.4-1.2L304.9,211.5L304.9,211.5z"/>
</g>
<g>
	<path class="st2" d="M155.2,275c0,0,0,0.1,0,0.1s-0.1,0.1-0.1,0.1c-0.1,0-0.1,0-0.3,0.1s-0.2,0-0.4,0c-0.1,0-0.3,0-0.4,0
		c-0.1,0-0.2,0-0.3-0.1s-0.1,0-0.1-0.1s0-0.1,0-0.1v-11h0l-4.4,11c0,0-0.1,0.1-0.1,0.1s-0.1,0.1-0.2,0.1s-0.1,0-0.2,0s-0.2,0-0.3,0
		c-0.1,0-0.3,0-0.4,0s-0.2,0-0.2,0s-0.1,0-0.1-0.1s-0.1-0.1-0.1-0.1l-4.3-11.1h0v11c0,0,0,0.1,0,0.1s-0.1,0.1-0.1,0.1
		c-0.1,0-0.1,0-0.3,0.1s-0.2,0-0.4,0c-0.2,0-0.3,0-0.4,0s-0.2,0-0.3-0.1c-0.1,0-0.1,0-0.1-0.1s0-0.1,0-0.1v-11.6
		c0-0.3,0.1-0.5,0.2-0.6s0.3-0.2,0.5-0.2h1c0.2,0,0.4,0,0.6,0.1s0.3,0.1,0.4,0.2s0.2,0.2,0.3,0.3s0.1,0.3,0.2,0.5l3.6,9.1h0.1
		l3.8-9.1c0.1-0.2,0.1-0.4,0.2-0.5c0.1-0.1,0.2-0.3,0.3-0.3s0.2-0.1,0.3-0.2c0.1,0,0.3,0,0.4,0h1.1c0.1,0,0.2,0,0.3,0
		s0.2,0.1,0.2,0.1s0.1,0.1,0.1,0.2s0.1,0.2,0.1,0.4L155.2,275L155.2,275z"/>
	<path class="st2" d="M164.7,275c0,0.1,0,0.1-0.1,0.2s-0.1,0.1-0.2,0.1s-0.2,0-0.4,0c-0.2,0-0.3,0-0.4,0s-0.2,0-0.2-0.1
		s-0.1-0.1-0.1-0.2v-0.9c-0.4,0.4-0.8,0.7-1.3,1s-1,0.3-1.5,0.3c-0.5,0-0.9-0.1-1.3-0.2s-0.7-0.3-1-0.5s-0.5-0.5-0.6-0.8
		s-0.2-0.7-0.2-1.1c0-0.5,0.1-0.9,0.3-1.3s0.5-0.7,0.9-0.9s0.8-0.4,1.4-0.5s1.2-0.2,1.9-0.2h1.2v-0.7c0-0.3,0-0.6-0.1-0.9
		s-0.2-0.5-0.4-0.6s-0.4-0.3-0.6-0.4s-0.6-0.1-0.9-0.1c-0.4,0-0.8,0-1.1,0.1s-0.6,0.2-0.8,0.3s-0.4,0.2-0.6,0.3s-0.3,0.1-0.4,0.1
		c-0.1,0-0.1,0-0.1,0s-0.1-0.1-0.1-0.1s-0.1-0.1-0.1-0.2s0-0.2,0-0.3c0-0.2,0-0.3,0-0.4s0.1-0.2,0.2-0.3s0.2-0.2,0.4-0.3
		s0.5-0.2,0.7-0.3s0.6-0.2,0.9-0.2s0.7-0.1,1-0.1c0.6,0,1.2,0.1,1.6,0.2s0.8,0.4,1.1,0.6s0.5,0.6,0.6,1s0.2,0.9,0.2,1.4L164.7,275
		L164.7,275z M163.1,271h-1.4c-0.4,0-0.8,0-1.1,0.1s-0.6,0.2-0.8,0.3s-0.4,0.3-0.5,0.5s-0.1,0.4-0.1,0.7c0,0.5,0.1,0.8,0.4,1.1
		s0.7,0.4,1.2,0.4c0.4,0,0.8-0.1,1.2-0.3s0.7-0.5,1.1-1L163.1,271L163.1,271z"/>
	<path class="st2" d="M175.6,270.5c0,0.8-0.1,1.5-0.3,2.1s-0.4,1.1-0.7,1.6s-0.7,0.8-1.2,1s-1,0.4-1.6,0.4c-0.3,0-0.5,0-0.7-0.1
		s-0.4-0.1-0.6-0.2s-0.4-0.3-0.6-0.4s-0.4-0.4-0.7-0.6v4.4c0,0,0,0.1,0,0.1s-0.1,0.1-0.1,0.1s-0.1,0-0.2,0.1s-0.2,0-0.4,0
		c-0.2,0-0.3,0-0.4,0s-0.2,0-0.3-0.1s-0.1-0.1-0.1-0.1s0-0.1,0-0.1v-12.3c0-0.1,0-0.1,0-0.1s0.1-0.1,0.1-0.1s0.1,0,0.2,0
		s0.2,0,0.3,0c0.1,0,0.3,0,0.3,0s0.2,0,0.2,0s0.1,0.1,0.1,0.1s0,0.1,0,0.1v1.2c0.3-0.3,0.5-0.5,0.8-0.7s0.5-0.4,0.8-0.5
		s0.5-0.2,0.8-0.3s0.5-0.1,0.8-0.1c0.6,0,1.2,0.1,1.6,0.4s0.8,0.6,1.1,1s0.5,0.9,0.6,1.5S175.6,269.9,175.6,270.5z M173.9,270.7
		c0-0.5,0-0.9-0.1-1.3c-0.1-0.4-0.2-0.8-0.4-1.1s-0.4-0.6-0.7-0.8s-0.6-0.3-1.1-0.3c-0.2,0-0.4,0-0.6,0.1s-0.4,0.2-0.6,0.3
		c-0.2,0.1-0.4,0.3-0.7,0.5c-0.2,0.2-0.5,0.5-0.7,0.8v3.5c0.4,0.5,0.9,1,1.3,1.2s0.8,0.4,1.3,0.4c0.4,0,0.8-0.1,1.1-0.3
		c0.3-0.2,0.5-0.5,0.7-0.8s0.3-0.7,0.4-1.1C173.8,271.5,173.9,271.1,173.9,270.7z"/>
	<path class="st2" d="M184.4,275c0,0.1,0,0.1-0.1,0.2s-0.1,0.1-0.2,0.1s-0.2,0-0.4,0c-0.2,0-0.3,0-0.4,0s-0.2,0-0.2-0.1
		s-0.1-0.1-0.1-0.2v-0.9c-0.4,0.4-0.8,0.7-1.3,1s-1,0.3-1.5,0.3c-0.5,0-0.9-0.1-1.3-0.2s-0.7-0.3-1-0.5s-0.5-0.5-0.6-0.8
		s-0.2-0.7-0.2-1.1c0-0.5,0.1-0.9,0.3-1.3s0.5-0.7,0.9-0.9s0.8-0.4,1.4-0.5s1.2-0.2,1.9-0.2h1.2v-0.7c0-0.3,0-0.6-0.1-0.9
		s-0.2-0.5-0.4-0.6s-0.4-0.3-0.6-0.4s-0.6-0.1-0.9-0.1c-0.4,0-0.8,0-1.1,0.1s-0.6,0.2-0.8,0.3s-0.4,0.2-0.6,0.3S178,268,178,268
		c-0.1,0-0.1,0-0.1,0s-0.1-0.1-0.1-0.1s-0.1-0.1-0.1-0.2s0-0.2,0-0.3c0-0.2,0-0.3,0-0.4s0.1-0.2,0.2-0.3s0.2-0.2,0.4-0.3
		s0.5-0.2,0.7-0.3s0.6-0.2,0.9-0.2s0.7-0.1,1-0.1c0.6,0,1.2,0.1,1.6,0.2s0.8,0.4,1.1,0.6s0.5,0.6,0.6,1s0.2,0.9,0.2,1.4L184.4,275
		L184.4,275z M182.8,271h-1.4c-0.4,0-0.8,0-1.1,0.1s-0.6,0.2-0.8,0.3s-0.4,0.3-0.5,0.5s-0.1,0.4-0.1,0.7c0,0.5,0.1,0.8,0.4,1.1
		s0.7,0.4,1.2,0.4c0.4,0,0.8-0.1,1.2-0.3s0.7-0.5,1.1-1L182.8,271L182.8,271z"/>
	<path class="st2" d="M199.4,275c0,0,0,0.1,0,0.1s-0.1,0.1-0.1,0.1s-0.1,0-0.2,0s-0.2,0-0.3,0c-0.1,0-0.3,0-0.3,0s-0.2,0-0.2,0
		s-0.1,0-0.1-0.1s0-0.1,0-0.1v-1.2c-0.5,0.5-0.9,0.9-1.4,1.2s-1,0.4-1.6,0.4c-0.6,0-1.2-0.1-1.6-0.4s-0.8-0.6-1.1-1
		s-0.5-0.9-0.6-1.5s-0.2-1.2-0.2-1.8c0-0.8,0.1-1.4,0.2-2s0.4-1.1,0.7-1.6s0.7-0.8,1.2-1s1-0.4,1.6-0.4c0.5,0,1,0.1,1.4,0.3
		s0.9,0.5,1.3,1V262c0,0,0-0.1,0-0.1s0.1-0.1,0.1-0.1s0.1,0,0.3-0.1s0.2,0,0.4,0s0.3,0,0.4,0s0.2,0,0.2,0.1s0.1,0.1,0.1,0.1
		s0,0.1,0,0.1L199.4,275L199.4,275z M197.8,268.8c-0.4-0.5-0.9-1-1.3-1.2s-0.8-0.4-1.3-0.4c-0.4,0-0.8,0.1-1,0.3s-0.5,0.5-0.7,0.8
		s-0.3,0.7-0.4,1.1s-0.1,0.8-0.1,1.2c0,0.4,0,0.9,0.1,1.3s0.2,0.8,0.4,1.1s0.4,0.6,0.7,0.8s0.6,0.3,1.1,0.3c0.2,0,0.4,0,0.6-0.1
		s0.4-0.2,0.6-0.3s0.4-0.3,0.6-0.5s0.5-0.5,0.7-0.8L197.8,268.8L197.8,268.8z"/>
	<path class="st2" d="M208.8,275c0,0.1,0,0.1-0.1,0.2s-0.1,0.1-0.2,0.1s-0.2,0-0.4,0c-0.2,0-0.3,0-0.4,0s-0.2,0-0.2-0.1
		s-0.1-0.1-0.1-0.2v-0.9c-0.4,0.4-0.8,0.7-1.3,1s-1,0.3-1.5,0.3c-0.5,0-0.9-0.1-1.3-0.2s-0.7-0.3-1-0.5s-0.5-0.5-0.6-0.8
		s-0.2-0.7-0.2-1.1c0-0.5,0.1-0.9,0.3-1.3s0.5-0.7,0.9-0.9s0.8-0.4,1.4-0.5s1.2-0.2,1.9-0.2h1.2v-0.7c0-0.3,0-0.6-0.1-0.9
		s-0.2-0.5-0.4-0.6s-0.4-0.3-0.6-0.4s-0.6-0.1-0.9-0.1c-0.4,0-0.8,0-1.1,0.1s-0.6,0.2-0.8,0.3s-0.4,0.2-0.6,0.3s-0.3,0.1-0.4,0.1
		c-0.1,0-0.1,0-0.1,0s-0.1-0.1-0.1-0.1s-0.1-0.1-0.1-0.2s0-0.2,0-0.3c0-0.2,0-0.3,0-0.4s0.1-0.2,0.2-0.3s0.2-0.2,0.4-0.3
		s0.5-0.2,0.7-0.3s0.6-0.2,0.9-0.2s0.7-0.1,1-0.1c0.6,0,1.2,0.1,1.6,0.2s0.8,0.4,1.1,0.6s0.5,0.6,0.6,1s0.2,0.9,0.2,1.4L208.8,275
		L208.8,275z M207.2,271h-1.4c-0.4,0-0.8,0-1.1,0.1s-0.6,0.2-0.8,0.3s-0.4,0.3-0.5,0.5s-0.1,0.4-0.1,0.7c0,0.5,0.1,0.8,0.4,1.1
		s0.7,0.4,1.2,0.4c0.4,0,0.8-0.1,1.2-0.3s0.7-0.5,1.1-1L207.2,271L207.2,271z"/>
	<path class="st2" d="M218.1,275.4c0,0.6-0.1,1.2-0.1,1.6s-0.3,0.7-0.5,1s-0.5,0.5-0.8,0.6s-0.7,0.2-1.2,0.2c-0.2,0-0.4,0-0.5,0
		s-0.3-0.1-0.3-0.1s-0.1-0.1-0.2-0.1s-0.1-0.1-0.1-0.1s0-0.1,0-0.2s0-0.1,0-0.2c0-0.1,0-0.2,0-0.3s0-0.1,0.1-0.2s0.1-0.1,0.1-0.1
		s0.1,0,0.1,0s0.1,0,0.2,0s0.3,0,0.4,0c0.2,0,0.4,0,0.6-0.1s0.3-0.2,0.4-0.3s0.2-0.3,0.2-0.6s0.1-0.6,0.1-1.1v-9.2c0,0,0-0.1,0-0.1
		s0.1-0.1,0.1-0.1s0.1,0,0.3-0.1s0.2,0,0.4,0s0.3,0,0.4,0s0.2,0,0.3,0.1s0.1,0.1,0.1,0.1s0,0.1,0,0.1L218.1,275.4L218.1,275.4z
		 M218.3,263.3c0,0.4-0.1,0.6-0.2,0.8s-0.4,0.2-0.8,0.2c-0.4,0-0.6-0.1-0.8-0.2s-0.2-0.4-0.2-0.8c0-0.4,0.1-0.6,0.2-0.8
		s0.4-0.2,0.8-0.2s0.6,0.1,0.8,0.2S218.3,262.9,218.3,263.3z"/>
	<path class="st2" d="M229.1,270.5c0,0.7-0.1,1.4-0.3,2s-0.5,1.1-0.8,1.6s-0.8,0.8-1.4,1s-1.2,0.4-2,0.4c-0.7,0-1.4-0.1-1.9-0.3
		s-1-0.5-1.3-0.9s-0.6-0.9-0.8-1.5s-0.3-1.3-0.3-2c0-0.7,0.1-1.4,0.3-2s0.5-1.1,0.8-1.6s0.8-0.8,1.4-1s1.2-0.4,2-0.4
		c0.7,0,1.4,0.1,1.9,0.3s1,0.5,1.3,0.9s0.6,0.9,0.8,1.5S229.1,269.8,229.1,270.5z M227.4,270.6c0-0.5,0-0.9-0.1-1.4
		c-0.1-0.4-0.2-0.8-0.4-1.1s-0.5-0.6-0.8-0.8s-0.8-0.3-1.3-0.3c-0.5,0-0.9,0.1-1.2,0.3s-0.6,0.4-0.9,0.7s-0.4,0.7-0.5,1.1
		s-0.2,0.9-0.2,1.4c0,0.5,0,0.9,0.1,1.4c0.1,0.4,0.2,0.8,0.4,1.1c0.2,0.3,0.5,0.6,0.8,0.8c0.4,0.2,0.8,0.3,1.3,0.3
		c0.5,0,0.9-0.1,1.2-0.3s0.6-0.4,0.9-0.7c0.2-0.3,0.4-0.7,0.5-1.1S227.4,271.1,227.4,270.6z"/>
	<path class="st2" d="M236.5,266.8c0,0.1,0,0.3,0,0.4s0,0.2,0,0.2s0,0.1-0.1,0.1s-0.1,0-0.1,0s-0.1,0-0.2,0s-0.2-0.1-0.3-0.1
		s-0.2-0.1-0.3-0.1s-0.2,0-0.4,0c-0.2,0-0.3,0-0.5,0.1s-0.3,0.2-0.5,0.3s-0.4,0.4-0.5,0.6s-0.4,0.5-0.6,0.9v5.8c0,0,0,0.1,0,0.1
		s-0.1,0.1-0.1,0.1s-0.1,0-0.2,0.1s-0.2,0-0.4,0c-0.2,0-0.3,0-0.4,0s-0.2,0-0.3-0.1s-0.1-0.1-0.1-0.1s0-0.1,0-0.1v-8.8
		c0,0,0-0.1,0-0.1s0.1-0.1,0.1-0.1s0.1,0,0.2-0.1s0.2,0,0.4,0c0.1,0,0.3,0,0.4,0s0.2,0,0.2,0.1s0.1,0.1,0.1,0.1s0,0.1,0,0.1v1.3
		c0.2-0.4,0.5-0.6,0.7-0.9s0.4-0.4,0.6-0.5s0.4-0.2,0.6-0.3s0.4-0.1,0.6-0.1c0.1,0,0.2,0,0.3,0s0.2,0,0.3,0s0.2,0.1,0.3,0.1
		s0.2,0.1,0.2,0.1s0.1,0.1,0.1,0.1s0,0.1,0,0.1s0,0.1,0,0.2S236.5,266.6,236.5,266.8z"/>
	<path class="st2" d="M245.8,275c0,0,0,0.1,0,0.1s-0.1,0.1-0.1,0.1s-0.1,0-0.2,0.1s-0.2,0-0.4,0s-0.3,0-0.4,0s-0.2,0-0.2-0.1
		s-0.1-0.1-0.1-0.1s0-0.1,0-0.1v-5.1c0-0.5,0-0.9-0.1-1.2s-0.2-0.6-0.3-0.8s-0.3-0.4-0.6-0.5s-0.5-0.2-0.8-0.2
		c-0.4,0-0.8,0.1-1.2,0.4s-0.8,0.7-1.3,1.3v6.1c0,0,0,0.1,0,0.1s-0.1,0.1-0.1,0.1s-0.1,0-0.2,0.1s-0.2,0-0.4,0c-0.2,0-0.3,0-0.4,0
		s-0.2,0-0.3-0.1s-0.1-0.1-0.1-0.1s0-0.1,0-0.1v-8.8c0,0,0-0.1,0-0.1s0.1-0.1,0.1-0.1s0.1,0,0.2-0.1s0.2,0,0.4,0c0.1,0,0.3,0,0.4,0
		s0.2,0,0.2,0.1s0.1,0.1,0.1,0.1s0,0.1,0,0.1v1.2c0.5-0.5,1-1,1.5-1.2s1-0.4,1.5-0.4c0.6,0,1.1,0.1,1.5,0.3s0.7,0.5,1,0.8
		s0.4,0.7,0.5,1.2s0.2,1,0.2,1.6L245.8,275L245.8,275z"/>
	<path class="st2" d="M255.1,275c0,0.1,0,0.1-0.1,0.2s-0.1,0.1-0.2,0.1s-0.2,0-0.4,0c-0.2,0-0.3,0-0.4,0s-0.2,0-0.2-0.1
		s-0.1-0.1-0.1-0.2v-0.9c-0.4,0.4-0.8,0.7-1.3,1s-1,0.3-1.5,0.3c-0.5,0-0.9-0.1-1.3-0.2s-0.7-0.3-1-0.5s-0.5-0.5-0.6-0.8
		s-0.2-0.7-0.2-1.1c0-0.5,0.1-0.9,0.3-1.3s0.5-0.7,0.9-0.9s0.8-0.4,1.4-0.5s1.2-0.2,1.9-0.2h1.2v-0.7c0-0.3,0-0.6-0.1-0.9
		s-0.2-0.5-0.4-0.6c-0.2-0.2-0.4-0.3-0.6-0.4s-0.6-0.1-0.9-0.1c-0.4,0-0.8,0-1.1,0.1s-0.6,0.2-0.8,0.3s-0.4,0.2-0.6,0.3
		s-0.3,0.1-0.4,0.1c-0.1,0-0.1,0-0.1,0s-0.1-0.1-0.1-0.1s-0.1-0.1-0.1-0.2s0-0.2,0-0.3c0-0.2,0-0.3,0-0.4s0.1-0.2,0.2-0.3
		s0.2-0.2,0.4-0.3s0.5-0.2,0.7-0.3s0.6-0.2,0.9-0.2s0.7-0.1,1-0.1c0.6,0,1.2,0.1,1.6,0.2s0.8,0.4,1.1,0.6s0.5,0.6,0.6,1
		s0.2,0.9,0.2,1.4L255.1,275L255.1,275z M253.5,271h-1.4c-0.4,0-0.8,0-1.1,0.1s-0.6,0.2-0.8,0.3s-0.4,0.3-0.5,0.5s-0.1,0.4-0.1,0.7
		c0,0.5,0.1,0.8,0.4,1.1s0.7,0.4,1.2,0.4c0.4,0,0.8-0.1,1.2-0.3s0.7-0.5,1.1-1L253.5,271L253.5,271z"/>
	<path class="st2" d="M265.4,275c0,0,0,0.1,0,0.1s-0.1,0.1-0.1,0.1s-0.1,0-0.2,0s-0.2,0-0.3,0c-0.1,0-0.3,0-0.3,0s-0.2,0-0.2,0
		s-0.1,0-0.1-0.1s0-0.1,0-0.1v-1.2c-0.5,0.5-0.9,0.9-1.4,1.2s-1,0.4-1.6,0.4c-0.6,0-1.2-0.1-1.6-0.4s-0.8-0.6-1.1-1
		s-0.5-0.9-0.6-1.5s-0.2-1.2-0.2-1.8c0-0.8,0.1-1.4,0.2-2s0.4-1.1,0.7-1.6s0.7-0.8,1.2-1s1-0.4,1.6-0.4c0.5,0,1,0.1,1.4,0.3
		s0.9,0.5,1.3,1V262c0,0,0-0.1,0-0.1s0.1-0.1,0.1-0.1s0.1,0,0.3-0.1s0.2,0,0.4,0s0.3,0,0.4,0s0.2,0,0.2,0.1s0.1,0.1,0.1,0.1
		s0,0.1,0,0.1L265.4,275L265.4,275z M263.8,268.8c-0.4-0.5-0.9-1-1.3-1.2s-0.8-0.4-1.3-0.4c-0.4,0-0.8,0.1-1,0.3s-0.5,0.5-0.7,0.8
		s-0.3,0.7-0.4,1.1s-0.1,0.8-0.1,1.2c0,0.4,0,0.9,0.1,1.3s0.2,0.8,0.4,1.1s0.4,0.6,0.7,0.8s0.6,0.3,1,0.3c0.2,0,0.4,0,0.6-0.1
		s0.4-0.2,0.6-0.3s0.4-0.3,0.6-0.5s0.5-0.5,0.7-0.8L263.8,268.8L263.8,268.8z"/>
	<path class="st2" d="M274.8,275c0,0.1,0,0.1-0.1,0.2s-0.1,0.1-0.2,0.1s-0.2,0-0.4,0c-0.2,0-0.3,0-0.4,0s-0.2,0-0.2-0.1
		s-0.1-0.1-0.1-0.2v-0.9c-0.4,0.4-0.8,0.7-1.3,1s-1,0.3-1.5,0.3c-0.5,0-0.9-0.1-1.3-0.2s-0.7-0.3-1-0.5s-0.5-0.5-0.6-0.8
		s-0.2-0.7-0.2-1.1c0-0.5,0.1-0.9,0.3-1.3s0.5-0.7,0.9-0.9s0.8-0.4,1.4-0.5s1.2-0.2,1.9-0.2h1.2v-0.7c0-0.3,0-0.6-0.1-0.9
		s-0.2-0.5-0.4-0.6s-0.4-0.3-0.6-0.4s-0.6-0.1-0.9-0.1c-0.4,0-0.8,0-1.1,0.1s-0.6,0.2-0.8,0.3s-0.4,0.2-0.6,0.3s-0.3,0.1-0.4,0.1
		c0,0-0.1,0-0.1,0s-0.1-0.1-0.1-0.1s0-0.1-0.1-0.2s0-0.2,0-0.3c0-0.2,0-0.3,0-0.4s0.1-0.2,0.2-0.3s0.2-0.2,0.5-0.3s0.5-0.2,0.7-0.3
		s0.6-0.2,0.9-0.2s0.7-0.1,1-0.1c0.6,0,1.2,0.1,1.6,0.2s0.8,0.4,1.1,0.6s0.5,0.6,0.6,1s0.2,0.9,0.2,1.4L274.8,275L274.8,275z
		 M273.2,271h-1.4c-0.4,0-0.8,0-1.1,0.1s-0.6,0.2-0.8,0.3s-0.4,0.3-0.5,0.5s-0.1,0.4-0.1,0.7c0,0.5,0.1,0.8,0.4,1.1s0.7,0.4,1.2,0.4
		c0.4,0,0.8-0.1,1.2-0.3s0.7-0.5,1.1-1L273.2,271L273.2,271z"/>
	<path class="st2" d="M289.8,275c0,0,0,0.1,0,0.1s-0.1,0.1-0.1,0.1s-0.1,0-0.2,0s-0.2,0-0.3,0c-0.1,0-0.3,0-0.3,0s-0.2,0-0.2,0
		s-0.1,0-0.1-0.1s0-0.1,0-0.1v-1.2c-0.5,0.5-0.9,0.9-1.4,1.2s-1,0.4-1.6,0.4c-0.6,0-1.2-0.1-1.6-0.4s-0.8-0.6-1.1-1
		s-0.5-0.9-0.6-1.5s-0.2-1.2-0.2-1.8c0-0.8,0.1-1.4,0.2-2s0.4-1.1,0.7-1.6s0.7-0.8,1.2-1s1-0.4,1.6-0.4c0.5,0,1,0.1,1.4,0.3
		s0.9,0.5,1.3,1V262c0,0,0-0.1,0-0.1s0.1-0.1,0.1-0.1s0.1,0,0.3-0.1s0.2,0,0.4,0s0.3,0,0.4,0s0.2,0,0.2,0.1s0.1,0.1,0.1,0.1
		s0,0.1,0,0.1L289.8,275L289.8,275z M288.2,268.8c-0.4-0.5-0.9-1-1.3-1.2s-0.8-0.4-1.3-0.4c-0.4,0-0.8,0.1-1,0.3s-0.5,0.5-0.7,0.8
		s-0.3,0.7-0.4,1.1s-0.1,0.8-0.1,1.2c0,0.4,0,0.9,0.1,1.3s0.2,0.8,0.4,1.1s0.4,0.6,0.7,0.8s0.6,0.3,1,0.3c0.2,0,0.4,0,0.6-0.1
		s0.4-0.2,0.6-0.3s0.4-0.3,0.6-0.5s0.5-0.5,0.7-0.8L288.2,268.8L288.2,268.8z"/>
	<path class="st2" d="M300.9,270.5c0,0.7-0.1,1.4-0.3,2s-0.5,1.1-0.8,1.6s-0.8,0.8-1.4,1s-1.2,0.4-2,0.4c-0.7,0-1.4-0.1-1.9-0.3
		s-1-0.5-1.3-0.9s-0.6-0.9-0.8-1.5s-0.3-1.3-0.3-2c0-0.7,0.1-1.4,0.3-2s0.5-1.1,0.8-1.6s0.8-0.8,1.4-1s1.2-0.4,2-0.4
		c0.7,0,1.4,0.1,1.9,0.3s1,0.5,1.3,0.9s0.6,0.9,0.8,1.5S300.9,269.8,300.9,270.5z M299.2,270.6c0-0.5,0-0.9-0.1-1.4
		s-0.2-0.8-0.4-1.1c-0.2-0.3-0.5-0.6-0.8-0.8s-0.8-0.3-1.3-0.3c-0.5,0-0.9,0.1-1.2,0.3s-0.6,0.4-0.9,0.7s-0.4,0.7-0.5,1.1
		s-0.2,0.9-0.2,1.4c0,0.5,0,0.9,0.1,1.4s0.2,0.8,0.4,1.1s0.5,0.6,0.8,0.8c0.4,0.2,0.8,0.3,1.3,0.3c0.5,0,0.9-0.1,1.2-0.3
		s0.6-0.4,0.9-0.7s0.4-0.7,0.5-1.1C299.1,271.6,299.2,271.1,299.2,270.6z"/>
	<path class="st2" d="M315.3,275c0,0,0,0.1,0,0.1s-0.1,0.1-0.1,0.1s-0.1,0-0.2,0.1s-0.2,0-0.4,0c-0.1,0-0.3,0-0.4,0s-0.2,0-0.2-0.1
		s-0.1-0.1-0.1-0.1s0-0.1,0-0.1v-1.2c-0.5,0.5-1,1-1.5,1.2s-1,0.4-1.5,0.4c-0.6,0-1.1-0.1-1.5-0.3s-0.7-0.5-1-0.8s-0.4-0.7-0.5-1.2
		s-0.2-1-0.2-1.6v-5.3c0,0,0-0.1,0-0.1s0.1-0.1,0.1-0.1s0.1,0,0.3-0.1s0.2,0,0.4,0s0.3,0,0.4,0s0.2,0,0.3,0.1s0.1,0.1,0.1,0.1
		s0,0.1,0,0.1v5.1c0,0.5,0,0.9,0.1,1.2s0.2,0.6,0.3,0.8s0.4,0.4,0.6,0.5s0.5,0.2,0.8,0.2c0.4,0,0.8-0.1,1.2-0.4s0.8-0.7,1.3-1.3
		v-6.1c0,0,0-0.1,0-0.1s0.1-0.1,0.1-0.1s0.1,0,0.3-0.1s0.2,0,0.4,0c0.2,0,0.3,0,0.4,0s0.2,0,0.2,0.1s0.1,0.1,0.1,0.1s0,0.1,0,0.1
		L315.3,275L315.3,275z"/>
	<path class="st2" d="M323.6,272.6c0,0.5-0.1,0.9-0.3,1.2s-0.4,0.6-0.7,0.9s-0.7,0.4-1.1,0.5s-0.9,0.2-1.4,0.2c-0.3,0-0.6,0-0.9-0.1
		s-0.5-0.1-0.8-0.2s-0.4-0.1-0.6-0.2s-0.3-0.1-0.3-0.2s-0.1-0.2-0.2-0.3s0-0.3,0-0.5c0-0.1,0-0.2,0-0.3s0-0.1,0-0.2s0-0.1,0.1-0.1
		s0.1,0,0.1,0c0.1,0,0.2,0,0.3,0.1s0.3,0.2,0.5,0.3s0.5,0.2,0.7,0.3s0.6,0.1,1,0.1c0.3,0,0.5,0,0.7-0.1s0.4-0.1,0.6-0.3
		s0.3-0.3,0.4-0.4s0.1-0.4,0.1-0.6s-0.1-0.5-0.2-0.6s-0.3-0.3-0.5-0.5s-0.4-0.3-0.7-0.4s-0.5-0.2-0.8-0.3s-0.5-0.2-0.8-0.4
		s-0.5-0.3-0.7-0.5s-0.4-0.4-0.5-0.7s-0.2-0.6-0.2-1c0-0.3,0.1-0.7,0.2-1s0.3-0.6,0.6-0.8s0.6-0.4,1-0.6s0.9-0.2,1.4-0.2
		c0.2,0,0.5,0,0.7,0.1s0.5,0.1,0.6,0.1s0.4,0.1,0.5,0.2s0.2,0.1,0.3,0.2s0.1,0.1,0.1,0.1s0,0.1,0,0.1s0,0.1,0,0.2s0,0.2,0,0.3
		c0,0.1,0,0.2,0,0.3s0,0.1,0,0.2s0,0.1-0.1,0.1s-0.1,0-0.1,0c-0.1,0-0.1,0-0.3-0.1s-0.3-0.1-0.4-0.2s-0.4-0.2-0.6-0.2
		s-0.5-0.1-0.8-0.1c-0.3,0-0.5,0-0.7,0.1s-0.4,0.1-0.5,0.3s-0.2,0.3-0.3,0.4s-0.1,0.3-0.1,0.5c0,0.3,0.1,0.5,0.2,0.6
		s0.3,0.3,0.5,0.5s0.5,0.3,0.7,0.4s0.5,0.2,0.8,0.3s0.5,0.2,0.8,0.4s0.5,0.3,0.7,0.5s0.4,0.4,0.5,0.7S323.6,272.3,323.6,272.6z"/>
	<path class="st2" d="M333.2,275c0,0,0,0.1,0,0.1s-0.1,0.1-0.1,0.1s-0.1,0-0.2,0.1s-0.2,0-0.4,0c-0.1,0-0.3,0-0.4,0s-0.2,0-0.2-0.1
		s-0.1-0.1-0.1-0.1s0-0.1,0-0.1v-1.2c-0.5,0.5-1,1-1.5,1.2s-1,0.4-1.5,0.4c-0.6,0-1.1-0.1-1.5-0.3s-0.7-0.5-1-0.8s-0.4-0.7-0.5-1.2
		s-0.2-1-0.2-1.6v-5.3c0,0,0-0.1,0-0.1s0.1-0.1,0.1-0.1s0.1,0,0.3-0.1s0.2,0,0.4,0s0.3,0,0.4,0s0.2,0,0.3,0.1s0.1,0.1,0.1,0.1
		s0,0.1,0,0.1v5.1c0,0.5,0,0.9,0.1,1.2s0.2,0.6,0.3,0.8s0.4,0.4,0.6,0.5s0.5,0.2,0.8,0.2c0.4,0,0.8-0.1,1.2-0.4s0.8-0.7,1.3-1.3
		v-6.1c0,0,0-0.1,0-0.1s0.1-0.1,0.1-0.1s0.1,0,0.3-0.1s0.2,0,0.4,0c0.2,0,0.3,0,0.4,0s0.2,0,0.2,0.1s0.1,0.1,0.1,0.1s0,0.1,0,0.1
		L333.2,275L333.2,275z"/>
	<path class="st2" d="M342.5,275c0,0.1,0,0.1-0.1,0.2s-0.1,0.1-0.2,0.1s-0.2,0-0.4,0c-0.2,0-0.3,0-0.4,0s-0.2,0-0.2-0.1
		s-0.1-0.1-0.1-0.2v-0.9c-0.4,0.4-0.8,0.7-1.3,1s-1,0.3-1.5,0.3c-0.5,0-0.9-0.1-1.3-0.2s-0.7-0.3-1-0.5s-0.5-0.5-0.6-0.8
		s-0.2-0.7-0.2-1.1c0-0.5,0.1-0.9,0.3-1.3s0.5-0.7,0.9-0.9s0.8-0.4,1.4-0.5s1.2-0.2,1.9-0.2h1.2v-0.7c0-0.3,0-0.6-0.1-0.9
		s-0.2-0.5-0.4-0.6s-0.4-0.3-0.6-0.4s-0.6-0.1-0.9-0.1c-0.4,0-0.8,0-1.1,0.1s-0.6,0.2-0.8,0.3s-0.4,0.2-0.6,0.3s-0.3,0.1-0.4,0.1
		c0,0-0.1,0-0.1,0s-0.1-0.1-0.1-0.1s0-0.1-0.1-0.2s0-0.2,0-0.3c0-0.2,0-0.3,0-0.4s0.1-0.2,0.2-0.3s0.2-0.2,0.5-0.3s0.5-0.2,0.7-0.3
		s0.6-0.2,0.9-0.2s0.7-0.1,1-0.1c0.6,0,1.2,0.1,1.6,0.2s0.8,0.4,1.1,0.6s0.5,0.6,0.6,1s0.2,0.9,0.2,1.4L342.5,275L342.5,275z
		 M341,271h-1.4c-0.4,0-0.8,0-1.1,0.1s-0.6,0.2-0.8,0.3s-0.4,0.3-0.5,0.5s-0.1,0.4-0.1,0.7c0,0.5,0.1,0.8,0.4,1.1s0.7,0.4,1.2,0.4
		c0.4,0,0.8-0.1,1.2-0.3s0.7-0.5,1.1-1L341,271L341,271z M340,261.9c0-0.1,0.1-0.1,0.1-0.2s0.1-0.1,0.2-0.1s0.2,0,0.3-0.1
		s0.2,0,0.4,0c0.2,0,0.3,0,0.4,0s0.2,0.1,0.2,0.1s0.1,0.1,0.1,0.1s0,0.1-0.1,0.2l-1.8,2.3c0,0.1-0.1,0.1-0.1,0.2s-0.1,0.1-0.1,0.1
		s-0.1,0-0.2,0s-0.2,0-0.3,0c-0.1,0-0.3,0-0.3,0s-0.1,0-0.2-0.1s0-0.1,0-0.1s0-0.1,0.1-0.2L340,261.9z"/>
	<path class="st2" d="M350.4,266.8c0,0.1,0,0.3,0,0.4s0,0.2,0,0.2s0,0.1-0.1,0.1s-0.1,0-0.1,0s-0.1,0-0.2,0s-0.2-0.1-0.3-0.1
		s-0.2-0.1-0.3-0.1s-0.2,0-0.4,0c-0.2,0-0.3,0-0.5,0.1s-0.3,0.2-0.5,0.3s-0.4,0.4-0.5,0.6s-0.4,0.5-0.6,0.9v5.8c0,0,0,0.1,0,0.1
		s-0.1,0.1-0.1,0.1s-0.1,0-0.2,0.1s-0.2,0-0.4,0s-0.3,0-0.4,0s-0.2,0-0.3-0.1s-0.1-0.1-0.1-0.1s0-0.1,0-0.1v-8.8c0,0,0-0.1,0-0.1
		s0.1-0.1,0.1-0.1s0.1,0,0.2-0.1s0.2,0,0.4,0c0.1,0,0.3,0,0.4,0s0.2,0,0.2,0.1s0.1,0.1,0.1,0.1s0,0.1,0,0.1v1.3
		c0.2-0.4,0.5-0.6,0.7-0.9s0.4-0.4,0.6-0.5s0.4-0.2,0.6-0.3s0.4-0.1,0.6-0.1c0.1,0,0.2,0,0.3,0s0.2,0,0.3,0s0.2,0.1,0.3,0.1
		s0.2,0.1,0.2,0.1s0.1,0.1,0.1,0.1s0,0.1,0,0.1s0,0.1,0,0.2S350.4,266.6,350.4,266.8z"/>
	<path class="st2" d="M354,263.3c0,0.4-0.1,0.6-0.2,0.8s-0.4,0.2-0.8,0.2s-0.6-0.1-0.8-0.2s-0.2-0.4-0.2-0.8c0-0.4,0.1-0.6,0.2-0.8
		s0.4-0.2,0.8-0.2s0.6,0.1,0.8,0.2S354,262.9,354,263.3z M353.8,275c0,0,0,0.1,0,0.1s-0.1,0.1-0.1,0.1s-0.1,0-0.2,0.1s-0.2,0-0.4,0
		s-0.3,0-0.4,0s-0.2,0-0.3-0.1s-0.1-0.1-0.1-0.1s0-0.1,0-0.1v-8.8c0,0,0-0.1,0-0.1s0.1-0.1,0.1-0.1s0.1,0,0.3-0.1s0.2,0,0.4,0
		s0.3,0,0.4,0s0.2,0,0.2,0.1s0.1,0.1,0.1,0.1s0,0.1,0,0.1V275z"/>
	<path class="st2" d="M364.8,270.5c0,0.7-0.1,1.4-0.3,2s-0.5,1.1-0.8,1.6s-0.8,0.8-1.4,1s-1.2,0.4-2,0.4c-0.7,0-1.4-0.1-1.9-0.3
		s-1-0.5-1.3-0.9s-0.6-0.9-0.8-1.5s-0.3-1.3-0.3-2c0-0.7,0.1-1.4,0.3-2s0.5-1.1,0.8-1.6s0.8-0.8,1.4-1s1.2-0.4,2-0.4
		c0.7,0,1.4,0.1,1.9,0.3s1,0.5,1.3,0.9s0.6,0.9,0.8,1.5S364.8,269.8,364.8,270.5z M363.1,270.6c0-0.5,0-0.9-0.1-1.4
		s-0.2-0.8-0.4-1.1c-0.2-0.3-0.5-0.6-0.8-0.8s-0.8-0.3-1.3-0.3c-0.5,0-0.9,0.1-1.2,0.3s-0.6,0.4-0.9,0.7s-0.4,0.7-0.5,1.1
		s-0.2,0.9-0.2,1.4c0,0.5,0,0.9,0.1,1.4s0.2,0.8,0.4,1.1s0.5,0.6,0.8,0.8c0.4,0.2,0.8,0.3,1.3,0.3c0.5,0,0.9-0.1,1.2-0.3
		s0.6-0.4,0.9-0.7s0.4-0.7,0.5-1.1C363,271.6,363.1,271.1,363.1,270.6z"/>
	<path class="st2" d="M221.8,304.6c0,0.4-0.1,0.8-0.1,1.1s-0.2,0.6-0.4,0.9s-0.4,0.5-0.7,0.7s-0.6,0.4-0.9,0.5s-0.7,0.2-1,0.3
		s-0.8,0.1-1.3,0.1h-3.3c-0.1,0-0.3,0-0.4-0.1s-0.2-0.3-0.2-0.5v-11.3c0-0.3,0.1-0.4,0.2-0.5s0.3-0.1,0.4-0.1h2.9
		c0.8,0,1.4,0.1,1.9,0.2s0.9,0.4,1.2,0.6s0.6,0.6,0.7,1s0.2,0.9,0.2,1.4c0,0.3,0,0.6-0.1,0.9s-0.2,0.5-0.3,0.8s-0.3,0.4-0.5,0.6
		s-0.4,0.3-0.7,0.5c0.4,0.1,0.7,0.2,1,0.4s0.6,0.4,0.8,0.7s0.4,0.6,0.5,0.9S221.8,304.2,221.8,304.6z M219.3,299
		c0-0.3,0-0.6-0.1-0.8c-0.1-0.3-0.2-0.5-0.4-0.6s-0.4-0.3-0.7-0.4c-0.3-0.1-0.7-0.1-1.2-0.1h-1.7v4.1h1.9c0.4,0,0.8-0.1,1.1-0.2
		c0.3-0.1,0.5-0.3,0.7-0.5c0.2-0.2,0.3-0.4,0.4-0.7C219.2,299.5,219.3,299.3,219.3,299z M220,304.7c0-0.4-0.1-0.7-0.2-1
		s-0.3-0.5-0.5-0.7c-0.2-0.2-0.5-0.3-0.9-0.4s-0.8-0.1-1.3-0.1h-2v4.5h2.4c0.4,0,0.7,0,1-0.1c0.3-0.1,0.5-0.2,0.8-0.4
		s0.4-0.4,0.5-0.7C220,305.4,220,305.1,220,304.7z"/>
	<path class="st2" d="M225.7,308c0,0,0,0.1,0,0.1s-0.1,0.1-0.1,0.1s-0.1,0-0.2,0.1s-0.2,0-0.4,0c-0.2,0-0.3,0-0.4,0s-0.2,0-0.3-0.1
		s-0.1-0.1-0.1-0.1s0-0.1,0-0.1v-13c0,0,0-0.1,0-0.1s0.1-0.1,0.1-0.1s0.1,0,0.3-0.1s0.2,0,0.4,0s0.3,0,0.4,0s0.2,0,0.2,0.1
		s0.1,0.1,0.1,0.1s0,0.1,0,0.1V308z"/>
	<path class="st2" d="M236,308c0,0,0,0.1,0,0.1s-0.1,0.1-0.1,0.1s-0.1,0-0.2,0.1s-0.2,0-0.4,0c-0.1,0-0.3,0-0.4,0s-0.2,0-0.2-0.1
		s-0.1-0.1-0.1-0.1s0-0.1,0-0.1v-1.2c-0.5,0.5-1,1-1.5,1.2s-1,0.4-1.5,0.4c-0.6,0-1.1-0.1-1.5-0.3s-0.7-0.5-1-0.8s-0.4-0.7-0.5-1.2
		s-0.2-1-0.2-1.6v-5.3c0,0,0-0.1,0-0.1s0.1-0.1,0.1-0.1s0.1,0,0.3-0.1s0.2,0,0.4,0s0.3,0,0.4,0s0.2,0,0.3,0.1s0.1,0.1,0.1,0.1
		s0,0.1,0,0.1v5.1c0,0.5,0,0.9,0.1,1.2s0.2,0.6,0.3,0.8s0.4,0.4,0.6,0.5s0.5,0.2,0.8,0.2c0.4,0,0.8-0.1,1.2-0.4s0.8-0.7,1.3-1.3
		v-6.1c0,0,0-0.1,0-0.1s0.1-0.1,0.1-0.1s0.1,0,0.3-0.1s0.2,0,0.4,0c0.2,0,0.3,0,0.4,0s0.2,0,0.2,0.1s0.1,0.1,0.1,0.1s0,0.1,0,0.1
		L236,308L236,308z"/>
	<path class="st2" d="M246.3,303.2c0,0.3-0.1,0.4-0.2,0.5s-0.3,0.2-0.4,0.2h-5.8c0,0.5,0.1,0.9,0.1,1.3s0.3,0.7,0.5,1
		s0.5,0.5,0.9,0.6s0.8,0.2,1.3,0.2c0.4,0,0.8,0,1.1-0.1s0.6-0.1,0.9-0.2s0.4-0.2,0.6-0.2s0.3-0.1,0.4-0.1c0.1,0,0.1,0,0.1,0
		c0,0,0.1,0.1,0.1,0.1s0,0.1,0,0.2s0,0.2,0,0.3c0,0.1,0,0.2,0,0.2s0,0.1,0,0.2s0,0.1-0.1,0.1s-0.1,0.1-0.1,0.1s-0.1,0.1-0.3,0.2
		s-0.4,0.2-0.7,0.2s-0.6,0.1-1,0.2s-0.8,0.1-1.2,0.1c-0.7,0-1.4-0.1-1.9-0.3s-1-0.5-1.4-0.9s-0.6-0.9-0.8-1.5s-0.3-1.3-0.3-2.1
		c0-0.8,0.1-1.4,0.3-2s0.5-1.1,0.8-1.5s0.8-0.7,1.3-1s1.1-0.3,1.8-0.3c0.7,0,1.3,0.1,1.8,0.3s0.9,0.5,1.2,0.9s0.5,0.8,0.7,1.3
		s0.2,1,0.2,1.6L246.3,303.2L246.3,303.2z M244.7,302.8c0-0.9-0.2-1.5-0.6-2c-0.4-0.5-1-0.7-1.8-0.7c-0.4,0-0.8,0.1-1.1,0.2
		s-0.6,0.4-0.8,0.6s-0.4,0.5-0.5,0.9s-0.2,0.7-0.2,1H244.7z"/>
	<path class="st2" d="M256.7,303.5c0,0.8-0.1,1.5-0.3,2.1s-0.4,1.1-0.7,1.6s-0.7,0.8-1.2,1c-0.5,0.2-1,0.4-1.6,0.4
		c-0.3,0-0.5,0-0.7-0.1s-0.4-0.1-0.6-0.2c-0.2-0.1-0.4-0.3-0.6-0.4s-0.4-0.4-0.7-0.6v4.4c0,0,0,0.1,0,0.1s-0.1,0.1-0.1,0.1
		s-0.1,0-0.2,0.1s-0.2,0-0.4,0c-0.2,0-0.3,0-0.4,0s-0.2,0-0.3-0.1s-0.1-0.1-0.1-0.1s0-0.1,0-0.1v-12.3c0-0.1,0-0.1,0-0.1
		s0.1-0.1,0.1-0.1s0.1,0,0.2,0s0.2,0,0.3,0c0.1,0,0.3,0,0.3,0s0.2,0,0.2,0s0.1,0.1,0.1,0.1s0,0.1,0,0.1v1.2c0.3-0.3,0.5-0.5,0.8-0.7
		c0.3-0.2,0.5-0.4,0.8-0.5s0.5-0.2,0.8-0.3s0.5-0.1,0.8-0.1c0.6,0,1.2,0.1,1.6,0.4s0.8,0.6,1.1,1s0.5,0.9,0.6,1.5
		C256.6,302.2,256.7,302.9,256.7,303.5z M255,303.7c0-0.5,0-0.9-0.1-1.3s-0.2-0.8-0.4-1.1c-0.2-0.3-0.4-0.6-0.7-0.8
		s-0.6-0.3-1.1-0.3c-0.2,0-0.4,0-0.6,0.1s-0.4,0.2-0.6,0.3s-0.4,0.3-0.7,0.5c-0.2,0.2-0.5,0.5-0.7,0.8v3.5c0.4,0.5,0.9,1,1.3,1.2
		s0.8,0.4,1.3,0.4c0.4,0,0.8-0.1,1-0.3c0.3-0.2,0.5-0.5,0.7-0.8c0.2-0.3,0.3-0.7,0.4-1.1C255,304.5,255,304.1,255,303.7z"/>
	<path class="st2" d="M264.1,299.8c0,0.1,0,0.3,0,0.4s0,0.2,0,0.2s0,0.1-0.1,0.1s-0.1,0-0.1,0s-0.1,0-0.2,0s-0.2-0.1-0.3-0.1
		s-0.2-0.1-0.3-0.1s-0.2,0-0.4,0c-0.2,0-0.3,0-0.5,0.1s-0.3,0.2-0.5,0.3s-0.4,0.4-0.5,0.6s-0.4,0.5-0.6,0.9v5.8c0,0,0,0.1,0,0.1
		s-0.1,0.1-0.1,0.1s-0.1,0-0.2,0.1s-0.2,0-0.4,0s-0.3,0-0.4,0s-0.2,0-0.3-0.1s-0.1-0.1-0.1-0.1s0-0.1,0-0.1v-8.8c0,0,0-0.1,0-0.1
		s0.1-0.1,0.1-0.1s0.1,0,0.2-0.1s0.2,0,0.4,0c0.1,0,0.3,0,0.4,0s0.2,0,0.2,0.1s0.1,0.1,0.1,0.1s0,0.1,0,0.1v1.3
		c0.2-0.4,0.5-0.6,0.7-0.9s0.4-0.4,0.6-0.5s0.4-0.2,0.6-0.3s0.4-0.1,0.6-0.1c0.1,0,0.2,0,0.3,0s0.2,0,0.3,0s0.2,0.1,0.3,0.1
		s0.2,0.1,0.2,0.1s0.1,0.1,0.1,0.1s0,0.1,0,0.1s0,0.1,0,0.2S264.1,299.6,264.1,299.8z"/>
	<path class="st2" d="M267.6,296.3c0,0.4-0.1,0.6-0.2,0.8s-0.4,0.2-0.8,0.2s-0.6-0.1-0.8-0.2s-0.2-0.4-0.2-0.8
		c0-0.4,0.1-0.6,0.2-0.8s0.4-0.2,0.8-0.2s0.6,0.1,0.8,0.2S267.6,295.9,267.6,296.3z M267.5,308c0,0,0,0.1,0,0.1s-0.1,0.1-0.1,0.1
		s-0.1,0-0.2,0.1s-0.2,0-0.4,0s-0.3,0-0.4,0s-0.2,0-0.3-0.1s-0.1-0.1-0.1-0.1s0-0.1,0-0.1v-8.8c0,0,0-0.1,0-0.1s0.1-0.1,0.1-0.1
		s0.1,0,0.3-0.1s0.2,0,0.4,0s0.3,0,0.4,0s0.2,0,0.2,0.1s0.1,0.1,0.1,0.1s0,0.1,0,0.1V308z"/>
	<path class="st2" d="M277.8,308c0,0,0,0.1,0,0.1s-0.1,0.1-0.1,0.1s-0.1,0-0.2,0.1s-0.2,0-0.4,0s-0.3,0-0.4,0s-0.2,0-0.2-0.1
		s-0.1-0.1-0.1-0.1s0-0.1,0-0.1v-5.1c0-0.5,0-0.9-0.1-1.2s-0.2-0.6-0.3-0.8s-0.3-0.4-0.6-0.5s-0.5-0.2-0.8-0.2
		c-0.4,0-0.8,0.1-1.2,0.4s-0.8,0.7-1.3,1.3v6.1c0,0,0,0.1,0,0.1s-0.1,0.1-0.1,0.1s-0.1,0-0.2,0.1s-0.2,0-0.4,0s-0.3,0-0.4,0
		s-0.2,0-0.3-0.1s-0.1-0.1-0.1-0.1s0-0.1,0-0.1v-8.8c0,0,0-0.1,0-0.1s0.1-0.1,0.1-0.1s0.1,0,0.2-0.1s0.2,0,0.4,0c0.1,0,0.3,0,0.4,0
		s0.2,0,0.2,0.1s0.1,0.1,0.1,0.1s0,0.1,0,0.1v1.2c0.5-0.5,1-1,1.5-1.2s1-0.4,1.5-0.4c0.6,0,1.1,0.1,1.5,0.3s0.7,0.5,1,0.8
		s0.4,0.7,0.5,1.2s0.2,1,0.2,1.6L277.8,308L277.8,308z"/>
	<path class="st2" d="M285,307.4c0,0.2,0,0.3,0,0.5s-0.1,0.2-0.1,0.2s-0.1,0.1-0.2,0.1s-0.2,0.1-0.4,0.1s-0.3,0-0.4,0.1
		s-0.3,0-0.5,0c-0.5,0-0.9-0.1-1.2-0.2s-0.6-0.3-0.8-0.5s-0.4-0.5-0.5-0.9s-0.1-0.8-0.1-1.3v-5.1h-1.2c-0.1,0-0.2,0-0.2-0.2
		s-0.1-0.3-0.1-0.5c0-0.1,0-0.2,0-0.3s0-0.1,0.1-0.2s0.1-0.1,0.1-0.1s0.1,0,0.1,0h1.2v-2.1c0,0,0-0.1,0-0.1s0.1-0.1,0.1-0.1
		s0.1,0,0.3-0.1s0.2,0,0.4,0s0.3,0,0.4,0s0.2,0,0.2,0.1s0.1,0.1,0.1,0.1s0,0.1,0,0.1v2.1h2.3c0,0,0.1,0,0.1,0s0.1,0.1,0.1,0.1
		s0,0.1,0.1,0.2s0,0.2,0,0.3c0,0.2,0,0.4-0.1,0.5s-0.1,0.2-0.2,0.2h-2.3v4.9c0,0.6,0.1,1.1,0.3,1.4s0.5,0.5,1,0.5c0.1,0,0.3,0,0.4,0
		s0.2-0.1,0.3-0.1s0.2-0.1,0.2-0.1s0.1,0,0.2,0c0,0,0.1,0,0.1,0s0,0,0.1,0.1s0,0.1,0,0.2S285,307.3,285,307.4z"/>
	<path class="st2" d="M292.8,305.6c0,0.5-0.1,0.9-0.3,1.2s-0.4,0.6-0.7,0.9s-0.7,0.4-1.1,0.5s-0.9,0.2-1.4,0.2c-0.3,0-0.6,0-0.9-0.1
		s-0.5-0.1-0.8-0.2s-0.4-0.1-0.6-0.2s-0.3-0.1-0.3-0.2s-0.1-0.2-0.2-0.3s0-0.3,0-0.5c0-0.1,0-0.2,0-0.3s0-0.1,0-0.2s0-0.1,0.1-0.1
		s0.1,0,0.1,0c0.1,0,0.2,0,0.3,0.1s0.3,0.2,0.5,0.3s0.5,0.2,0.7,0.3s0.6,0.1,1,0.1c0.3,0,0.5,0,0.7-0.1s0.4-0.1,0.6-0.3
		s0.3-0.3,0.4-0.4s0.1-0.4,0.1-0.6s-0.1-0.5-0.2-0.6s-0.3-0.3-0.5-0.5s-0.4-0.3-0.7-0.4s-0.5-0.2-0.8-0.3s-0.5-0.2-0.8-0.4
		s-0.5-0.3-0.7-0.5s-0.4-0.4-0.5-0.7s-0.2-0.6-0.2-1c0-0.3,0.1-0.7,0.2-1s0.3-0.6,0.6-0.8s0.6-0.4,1-0.6s0.9-0.2,1.4-0.2
		c0.2,0,0.5,0,0.7,0.1s0.5,0.1,0.6,0.1s0.4,0.1,0.5,0.2s0.2,0.1,0.3,0.2s0.1,0.1,0.1,0.1s0,0.1,0,0.1s0,0.1,0,0.2s0,0.2,0,0.3
		c0,0.1,0,0.2,0,0.3s0,0.1,0,0.2s0,0.1-0.1,0.1s-0.1,0-0.1,0c-0.1,0-0.1,0-0.3-0.1s-0.3-0.1-0.4-0.2s-0.4-0.2-0.6-0.2
		s-0.5-0.1-0.8-0.1c-0.3,0-0.5,0-0.7,0.1s-0.4,0.1-0.5,0.3s-0.2,0.3-0.3,0.4s-0.1,0.3-0.1,0.5c0,0.3,0.1,0.5,0.2,0.6
		s0.3,0.3,0.5,0.5s0.5,0.3,0.7,0.4s0.5,0.2,0.8,0.3s0.5,0.2,0.8,0.4s0.5,0.3,0.7,0.5s0.4,0.4,0.5,0.7S292.8,305.3,292.8,305.6z"/>
	<path class="st2" d="M214.3,330.3c0,0.1,0,0.2,0,0.3s0,0.2-0.1,0.2s-0.1,0.1-0.1,0.1s-0.1,0-0.1,0c-0.1,0-0.2-0.1-0.4-0.2
		s-0.4-0.3-0.7-0.4s-0.7-0.3-1.1-0.4s-0.9-0.2-1.5-0.2c-0.7,0-1.3,0.1-1.9,0.4s-1,0.6-1.4,1s-0.7,1-0.9,1.6s-0.3,1.3-0.3,2
		c0,0.8,0.1,1.5,0.3,2.1s0.5,1.1,0.9,1.6s0.9,0.8,1.4,1s1.1,0.3,1.8,0.3c0.4,0,0.8,0,1.2-0.1s0.8-0.2,1.1-0.4v-3.7h-2.9
		c-0.1,0-0.2-0.1-0.3-0.2s-0.1-0.3-0.1-0.5c0-0.1,0-0.2,0-0.3s0-0.2,0.1-0.2s0.1-0.1,0.1-0.1s0.1,0,0.1,0h4c0.1,0,0.1,0,0.2,0
		s0.1,0.1,0.2,0.1s0.1,0.1,0.1,0.2s0.1,0.2,0.1,0.3v4.8c0,0.2,0,0.3-0.1,0.4s-0.2,0.2-0.4,0.3s-0.4,0.2-0.7,0.3s-0.6,0.2-0.9,0.3
		s-0.6,0.1-1,0.2s-0.6,0.1-1,0.1c-1,0-1.9-0.1-2.6-0.5s-1.4-0.7-1.9-1.3s-0.9-1.2-1.2-2S204,336,204,335c0-1,0.1-1.9,0.4-2.7
		s0.7-1.5,1.3-2.1s1.2-1,2-1.3s1.6-0.5,2.6-0.5c0.5,0,0.9,0,1.4,0.1s0.8,0.2,1.1,0.3s0.6,0.2,0.8,0.4s0.4,0.2,0.5,0.3
		s0.1,0.2,0.2,0.3S214.3,330.1,214.3,330.3z"/>
	<path class="st2" d="M225.3,336.5c0,0.7-0.1,1.4-0.3,2s-0.5,1.1-0.8,1.6s-0.8,0.8-1.4,1s-1.2,0.4-2,0.4c-0.7,0-1.4-0.1-1.9-0.3
		s-1-0.5-1.3-0.9s-0.6-0.9-0.8-1.5s-0.3-1.3-0.3-2c0-0.7,0.1-1.4,0.3-2s0.5-1.1,0.8-1.6s0.8-0.8,1.4-1s1.2-0.4,2-0.4
		c0.7,0,1.4,0.1,1.9,0.3s1,0.5,1.3,0.9s0.6,0.9,0.8,1.5S225.3,335.8,225.3,336.5z M223.6,336.6c0-0.5,0-0.9-0.1-1.4
		c-0.1-0.4-0.2-0.8-0.4-1.1s-0.5-0.6-0.8-0.8s-0.8-0.3-1.3-0.3c-0.5,0-0.9,0.1-1.2,0.3s-0.6,0.4-0.9,0.7s-0.4,0.7-0.5,1.1
		s-0.2,0.9-0.2,1.4c0,0.5,0,0.9,0.1,1.4c0.1,0.4,0.2,0.8,0.4,1.1c0.2,0.3,0.5,0.6,0.8,0.8c0.4,0.2,0.8,0.3,1.3,0.3
		c0.5,0,0.9-0.1,1.2-0.3s0.6-0.4,0.9-0.7c0.2-0.3,0.4-0.7,0.5-1.1S223.6,337.1,223.6,336.6z"/>
	<path class="st2" d="M229.1,341c0,0,0,0.1,0,0.1s-0.1,0.1-0.1,0.1s-0.1,0-0.2,0.1s-0.2,0-0.4,0c-0.2,0-0.3,0-0.4,0s-0.2,0-0.3-0.1
		s-0.1-0.1-0.1-0.1s0-0.1,0-0.1v-13c0,0,0-0.1,0-0.1s0.1-0.1,0.1-0.1s0.1,0,0.3-0.1s0.2,0,0.4,0s0.3,0,0.4,0s0.2,0,0.2,0.1
		s0.1,0.1,0.1,0.1s0,0.1,0,0.1V341z"/>
	<path class="st2" d="M239.5,341c0,0,0,0.1,0,0.1s-0.1,0.1-0.1,0.1s-0.1,0-0.2,0s-0.2,0-0.3,0c-0.1,0-0.3,0-0.3,0s-0.2,0-0.2,0
		s-0.1,0-0.1-0.1s0-0.1,0-0.1v-1.2c-0.5,0.5-0.9,0.9-1.4,1.2s-1,0.4-1.6,0.4c-0.6,0-1.2-0.1-1.6-0.4s-0.8-0.6-1.1-1
		s-0.5-0.9-0.6-1.5s-0.2-1.2-0.2-1.8c0-0.8,0.1-1.4,0.2-2s0.4-1.1,0.7-1.6s0.7-0.8,1.2-1s1-0.4,1.6-0.4c0.5,0,1,0.1,1.4,0.3
		s0.9,0.5,1.3,1V328c0,0,0-0.1,0-0.1s0.1-0.1,0.1-0.1s0.1,0,0.3-0.1s0.2,0,0.4,0s0.3,0,0.4,0s0.2,0,0.2,0.1s0.1,0.1,0.1,0.1
		s0,0.1,0,0.1L239.5,341L239.5,341z M237.9,334.8c-0.4-0.5-0.9-1-1.3-1.2s-0.8-0.4-1.3-0.4c-0.4,0-0.8,0.1-1,0.3s-0.5,0.5-0.7,0.8
		s-0.3,0.7-0.4,1.1s-0.1,0.8-0.1,1.2c0,0.4,0,0.9,0.1,1.3s0.2,0.8,0.4,1.1s0.4,0.6,0.7,0.8s0.6,0.3,1.1,0.3c0.2,0,0.4,0,0.6-0.1
		s0.4-0.2,0.6-0.3s0.4-0.3,0.6-0.5s0.5-0.5,0.7-0.8L237.9,334.8L237.9,334.8z"/>
	<path class="st2" d="M249.8,336.2c0,0.3-0.1,0.4-0.2,0.5s-0.3,0.2-0.4,0.2h-5.8c0,0.5,0.1,0.9,0.1,1.3s0.3,0.7,0.5,1
		s0.5,0.5,0.9,0.6s0.8,0.2,1.3,0.2c0.4,0,0.8,0,1.1-0.1s0.6-0.1,0.9-0.2s0.4-0.2,0.6-0.2s0.3-0.1,0.4-0.1c0.1,0,0.1,0,0.1,0
		c0,0,0.1,0.1,0.1,0.1s0,0.1,0,0.2s0,0.2,0,0.3c0,0.1,0,0.2,0,0.2s0,0.1,0,0.2s0,0.1-0.1,0.1s-0.1,0.1-0.1,0.1s-0.1,0.1-0.3,0.2
		s-0.4,0.2-0.7,0.2s-0.6,0.1-1,0.2s-0.8,0.1-1.2,0.1c-0.7,0-1.4-0.1-1.9-0.3s-1-0.5-1.4-0.9s-0.6-0.9-0.8-1.5s-0.3-1.3-0.3-2.1
		c0-0.8,0.1-1.4,0.3-2s0.5-1.1,0.8-1.5s0.8-0.7,1.3-1s1.1-0.3,1.8-0.3c0.7,0,1.3,0.1,1.8,0.3s0.9,0.5,1.2,0.9s0.5,0.8,0.7,1.3
		s0.2,1,0.2,1.6L249.8,336.2L249.8,336.2z M248.2,335.8c0-0.9-0.2-1.5-0.6-2c-0.4-0.5-1-0.7-1.8-0.7c-0.4,0-0.8,0.1-1.1,0.2
		s-0.6,0.4-0.8,0.6s-0.4,0.5-0.5,0.9s-0.2,0.7-0.2,1H248.2z"/>
	<path class="st2" d="M259.7,341c0,0,0,0.1,0,0.1s-0.1,0.1-0.1,0.1s-0.1,0-0.2,0.1s-0.2,0-0.4,0s-0.3,0-0.4,0s-0.2,0-0.2-0.1
		s-0.1-0.1-0.1-0.1s0-0.1,0-0.1v-5.1c0-0.5,0-0.9-0.1-1.2s-0.2-0.6-0.3-0.8s-0.3-0.4-0.6-0.5s-0.5-0.2-0.8-0.2
		c-0.4,0-0.8,0.1-1.2,0.4s-0.8,0.7-1.3,1.3v6.1c0,0,0,0.1,0,0.1s-0.1,0.1-0.1,0.1s-0.1,0-0.2,0.1s-0.2,0-0.4,0c-0.2,0-0.3,0-0.4,0
		s-0.2,0-0.3-0.1s-0.1-0.1-0.1-0.1c0,0,0-0.1,0-0.1v-8.8c0,0,0-0.1,0-0.1s0.1-0.1,0.1-0.1s0.1,0,0.2-0.1s0.2,0,0.4,0
		c0.1,0,0.3,0,0.4,0s0.2,0,0.2,0.1s0.1,0.1,0.1,0.1s0,0.1,0,0.1v1.2c0.5-0.5,1-1,1.5-1.2s1-0.4,1.5-0.4c0.6,0,1.1,0.1,1.5,0.3
		s0.7,0.5,1,0.8s0.4,0.7,0.5,1.2s0.2,1,0.2,1.6L259.7,341L259.7,341z"/>
	<path class="st2" d="M275.2,336.5c0,0.8-0.1,1.5-0.3,2.1s-0.4,1.1-0.7,1.6s-0.7,0.8-1.2,1s-1,0.4-1.6,0.4c-0.3,0-0.5,0-0.7-0.1
		s-0.4-0.1-0.6-0.2s-0.4-0.3-0.6-0.4s-0.4-0.4-0.7-0.6v4.4c0,0,0,0.1,0,0.1s-0.1,0.1-0.1,0.1s-0.1,0-0.2,0.1s-0.2,0-0.4,0
		s-0.3,0-0.4,0s-0.2,0-0.3-0.1s-0.1-0.1-0.1-0.1s0-0.1,0-0.1v-12.3c0-0.1,0-0.1,0-0.1s0.1-0.1,0.1-0.1s0.1,0,0.2,0s0.2,0,0.3,0
		c0.1,0,0.3,0,0.3,0s0.2,0,0.2,0s0.1,0.1,0.1,0.1s0,0.1,0,0.1v1.2c0.3-0.3,0.5-0.5,0.8-0.7s0.5-0.4,0.8-0.5s0.5-0.2,0.8-0.3
		s0.5-0.1,0.8-0.1c0.6,0,1.2,0.1,1.6,0.4s0.8,0.6,1.1,1s0.5,0.9,0.6,1.5S275.2,335.9,275.2,336.5z M273.5,336.7c0-0.5,0-0.9-0.1-1.3
		c-0.1-0.4-0.2-0.8-0.4-1.1s-0.4-0.6-0.7-0.8s-0.6-0.3-1-0.3c-0.2,0-0.4,0-0.6,0.1c-0.2,0.1-0.4,0.2-0.6,0.3s-0.4,0.3-0.7,0.5
		s-0.5,0.5-0.7,0.8v3.5c0.5,0.5,0.9,1,1.3,1.2s0.8,0.4,1.3,0.4c0.4,0,0.8-0.1,1-0.3c0.3-0.2,0.5-0.5,0.7-0.8
		c0.2-0.3,0.3-0.7,0.4-1.1S273.5,337.1,273.5,336.7z"/>
	<path class="st2" d="M284.1,341c0,0.1,0,0.1-0.1,0.2s-0.1,0.1-0.2,0.1s-0.2,0-0.4,0c-0.2,0-0.3,0-0.4,0s-0.2,0-0.2-0.1
		s-0.1-0.1-0.1-0.2v-0.9c-0.4,0.4-0.8,0.7-1.3,1s-1,0.3-1.5,0.3c-0.5,0-0.9-0.1-1.3-0.2s-0.7-0.3-1-0.5s-0.5-0.5-0.6-0.8
		s-0.2-0.7-0.2-1.1c0-0.5,0.1-0.9,0.3-1.3s0.5-0.7,0.9-0.9s0.8-0.4,1.4-0.5s1.2-0.2,1.9-0.2h1.2v-0.7c0-0.3,0-0.6-0.1-0.9
		s-0.2-0.5-0.4-0.6s-0.4-0.3-0.6-0.4s-0.6-0.1-0.9-0.1c-0.4,0-0.8,0-1.1,0.1s-0.6,0.2-0.8,0.3s-0.4,0.2-0.6,0.3s-0.3,0.1-0.4,0.1
		c0,0-0.1,0-0.1,0s-0.1-0.1-0.1-0.1s0-0.1-0.1-0.2s0-0.2,0-0.3c0-0.2,0-0.3,0-0.4s0.1-0.2,0.2-0.3s0.2-0.2,0.5-0.3s0.5-0.2,0.7-0.3
		s0.6-0.2,0.9-0.2s0.7-0.1,1-0.1c0.6,0,1.2,0.1,1.6,0.2s0.8,0.4,1.1,0.6s0.5,0.6,0.6,1s0.2,0.9,0.2,1.4L284.1,341L284.1,341z
		 M282.5,337h-1.4c-0.4,0-0.8,0-1.1,0.1s-0.6,0.2-0.8,0.3s-0.4,0.3-0.5,0.5s-0.1,0.4-0.1,0.7c0,0.5,0.1,0.8,0.4,1.1s0.7,0.4,1.2,0.4
		c0.4,0,0.8-0.1,1.2-0.3s0.7-0.5,1.1-1L282.5,337L282.5,337z"/>
	<path class="st2" d="M291.4,340.4c0,0.2,0,0.3,0,0.5s-0.1,0.2-0.1,0.2s-0.1,0.1-0.2,0.1s-0.2,0.1-0.4,0.1s-0.3,0-0.4,0.1
		s-0.3,0-0.5,0c-0.5,0-0.9-0.1-1.2-0.2s-0.6-0.3-0.8-0.5s-0.4-0.5-0.5-0.9s-0.1-0.8-0.1-1.3v-5.1H286c-0.1,0-0.2,0-0.2-0.2
		s-0.1-0.3-0.1-0.5c0-0.1,0-0.2,0-0.3s0-0.1,0.1-0.2s0.1-0.1,0.1-0.1s0.1,0,0.1,0h1.2v-2.1c0,0,0-0.1,0-0.1s0.1-0.1,0.1-0.1
		s0.1,0,0.3-0.1s0.2,0,0.4,0s0.3,0,0.4,0s0.2,0,0.2,0.1s0.1,0.1,0.1,0.1s0,0.1,0,0.1v2.1h2.3c0,0,0.1,0,0.1,0s0.1,0.1,0.1,0.1
		s0,0.1,0.1,0.2s0,0.2,0,0.3c0,0.2,0,0.4-0.1,0.5s-0.1,0.2-0.2,0.2h-2.3v4.9c0,0.6,0.1,1.1,0.3,1.4s0.5,0.5,1,0.5c0.1,0,0.3,0,0.4,0
		s0.2-0.1,0.3-0.1s0.2-0.1,0.2-0.1s0.1,0,0.2,0c0,0,0.1,0,0.1,0s0,0,0.1,0.1s0,0.1,0,0.2S291.4,340.3,291.4,340.4z"/>
	<path class="st2" d="M300.9,341c0,0,0,0.1,0,0.1s-0.1,0.1-0.1,0.1s-0.1,0-0.2,0.1s-0.2,0-0.4,0s-0.3,0-0.4,0s-0.2,0-0.2-0.1
		s-0.1-0.1-0.1-0.1s0-0.1,0-0.1v-5.1c0-0.5,0-0.9-0.1-1.2s-0.2-0.6-0.3-0.8s-0.3-0.4-0.6-0.5s-0.5-0.2-0.8-0.2
		c-0.4,0-0.8,0.1-1.2,0.4s-0.8,0.7-1.3,1.3v6.1c0,0,0,0.1,0,0.1s-0.1,0.1-0.1,0.1s-0.1,0-0.2,0.1s-0.2,0-0.4,0s-0.3,0-0.4,0
		s-0.2,0-0.3-0.1s-0.1-0.1-0.1-0.1s0-0.1,0-0.1v-13c0,0,0-0.1,0-0.1s0.1-0.1,0.1-0.1s0.1,0,0.3-0.1s0.2,0,0.4,0s0.3,0,0.4,0
		s0.2,0,0.2,0.1s0.1,0.1,0.1,0.1s0,0.1,0,0.1v5.3c0.5-0.5,0.9-0.9,1.4-1.1s0.9-0.4,1.4-0.4c0.6,0,1.1,0.1,1.5,0.3s0.7,0.5,1,0.8
		s0.4,0.7,0.5,1.2s0.2,1,0.2,1.6L300.9,341L300.9,341z"/>
	<path class="st2" d="M217.4,370.6c0,0.4-0.1,0.8-0.1,1.1s-0.2,0.6-0.4,0.9s-0.4,0.5-0.7,0.7s-0.6,0.4-0.9,0.5s-0.7,0.2-1,0.3
		s-0.8,0.1-1.3,0.1h-3.3c-0.1,0-0.3,0-0.4-0.1s-0.2-0.3-0.2-0.5v-11.3c0-0.3,0.1-0.4,0.2-0.5s0.3-0.1,0.4-0.1h2.9
		c0.8,0,1.4,0.1,1.9,0.2s0.9,0.4,1.2,0.6s0.6,0.6,0.7,1s0.2,0.9,0.2,1.4c0,0.3,0,0.6-0.1,0.9s-0.2,0.5-0.3,0.8s-0.3,0.4-0.5,0.6
		s-0.4,0.3-0.7,0.5c0.4,0.1,0.7,0.2,1,0.4s0.6,0.4,0.8,0.7s0.4,0.6,0.5,0.9S217.4,370.2,217.4,370.6z M214.8,365
		c0-0.3,0-0.6-0.1-0.8c-0.1-0.3-0.2-0.5-0.4-0.6s-0.4-0.3-0.7-0.4c-0.3-0.1-0.7-0.1-1.2-0.1h-1.7v4.1h1.9c0.4,0,0.8-0.1,1.1-0.2
		c0.3-0.1,0.5-0.3,0.7-0.5c0.2-0.2,0.3-0.4,0.4-0.7C214.8,365.5,214.8,365.3,214.8,365z M215.6,370.7c0-0.4-0.1-0.7-0.2-1
		s-0.3-0.5-0.5-0.7c-0.2-0.2-0.5-0.3-0.9-0.4s-0.8-0.1-1.3-0.1h-2v4.5h2.4c0.4,0,0.7,0,1-0.1c0.3-0.1,0.5-0.2,0.8-0.4
		s0.4-0.4,0.5-0.7C215.5,371.4,215.6,371.1,215.6,370.7z"/>
	<path class="st2" d="M227.2,369.2c0,0.3-0.1,0.4-0.2,0.5s-0.3,0.2-0.4,0.2h-5.8c0,0.5,0.1,0.9,0.1,1.3s0.3,0.7,0.5,1
		s0.5,0.5,0.9,0.6s0.8,0.2,1.3,0.2c0.4,0,0.8,0,1.1-0.1s0.6-0.1,0.9-0.2s0.4-0.2,0.6-0.2s0.3-0.1,0.4-0.1c0.1,0,0.1,0,0.1,0
		c0,0,0.1,0.1,0.1,0.1s0,0.1,0,0.2s0,0.2,0,0.3c0,0.1,0,0.2,0,0.2s0,0.1,0,0.2s0,0.1-0.1,0.1s-0.1,0.1-0.1,0.1s-0.1,0.1-0.3,0.2
		s-0.4,0.2-0.7,0.2s-0.6,0.1-1,0.2s-0.8,0.1-1.2,0.1c-0.7,0-1.4-0.1-1.9-0.3s-1-0.5-1.4-0.9s-0.6-0.9-0.8-1.5s-0.3-1.3-0.3-2.1
		c0-0.8,0.1-1.4,0.3-2s0.5-1.1,0.8-1.5s0.8-0.7,1.3-1s1.1-0.3,1.8-0.3c0.7,0,1.3,0.1,1.8,0.3s0.9,0.5,1.2,0.9s0.5,0.8,0.7,1.3
		s0.2,1,0.2,1.6L227.2,369.2L227.2,369.2z M225.6,368.8c0-0.9-0.2-1.5-0.6-2c-0.4-0.5-1-0.7-1.8-0.7c-0.4,0-0.8,0.1-1.1,0.2
		s-0.6,0.4-0.8,0.6s-0.4,0.5-0.5,0.9s-0.2,0.7-0.2,1H225.6z"/>
	<path class="st2" d="M237,374c0,0,0,0.1,0,0.1s-0.1,0.1-0.1,0.1s-0.1,0-0.2,0.1s-0.2,0-0.4,0s-0.3,0-0.4,0s-0.2,0-0.2-0.1
		s-0.1-0.1-0.1-0.1s0-0.1,0-0.1v-5.1c0-0.5,0-0.9-0.1-1.2s-0.2-0.6-0.3-0.8s-0.3-0.4-0.6-0.5s-0.5-0.2-0.8-0.2
		c-0.4,0-0.8,0.1-1.2,0.4s-0.8,0.7-1.3,1.3v6.1c0,0,0,0.1,0,0.1s-0.1,0.1-0.1,0.1s-0.1,0-0.2,0.1s-0.2,0-0.4,0c-0.2,0-0.3,0-0.4,0
		s-0.2,0-0.3-0.1s-0.1-0.1-0.1-0.1s0-0.1,0-0.1v-8.8c0,0,0-0.1,0-0.1s0.1-0.1,0.1-0.1s0.1,0,0.2-0.1s0.2,0,0.4,0c0.1,0,0.3,0,0.4,0
		s0.2,0,0.2,0.1s0.1,0.1,0.1,0.1s0,0.1,0,0.1v1.2c0.5-0.5,1-1,1.5-1.2s1-0.4,1.5-0.4c0.6,0,1.1,0.1,1.5,0.3s0.7,0.5,1,0.8
		s0.4,0.7,0.5,1.2s0.2,1,0.2,1.6L237,374L237,374z"/>
	<path class="st2" d="M246.1,372.7c0,0.1,0,0.2,0,0.3s0,0.1,0,0.2s0,0.1-0.1,0.1s-0.1,0.1-0.2,0.2s-0.2,0.2-0.4,0.3
		s-0.4,0.2-0.7,0.3s-0.5,0.2-0.8,0.2s-0.6,0.1-0.9,0.1c-0.6,0-1.2-0.1-1.7-0.3s-0.9-0.5-1.2-0.9s-0.6-0.9-0.8-1.5s-0.3-1.3-0.3-2
		c0-0.9,0.1-1.6,0.3-2.2s0.5-1.1,0.9-1.5s0.8-0.7,1.3-0.9s1-0.3,1.6-0.3c0.3,0,0.6,0,0.8,0.1s0.5,0.1,0.7,0.2s0.4,0.2,0.6,0.3
		s0.3,0.2,0.4,0.3s0.1,0.1,0.2,0.2s0.1,0.1,0.1,0.2s0,0.1,0,0.2s0,0.2,0,0.3c0,0.3,0,0.4-0.1,0.5s-0.1,0.1-0.2,0.1
		c-0.1,0-0.2,0-0.3-0.2s-0.3-0.2-0.5-0.4s-0.4-0.3-0.7-0.4s-0.6-0.2-1-0.2c-0.8,0-1.4,0.3-1.8,0.9s-0.6,1.5-0.6,2.6
		c0,0.6,0.1,1.1,0.2,1.5s0.3,0.8,0.5,1.1s0.5,0.5,0.8,0.6s0.6,0.2,1,0.2c0.4,0,0.7-0.1,1-0.2s0.5-0.3,0.7-0.4s0.4-0.3,0.5-0.4
		s0.3-0.2,0.3-0.2c0.1,0,0.1,0,0.1,0s0.1,0.1,0.1,0.1s0,0.1,0.1,0.2S246.1,372.5,246.1,372.7z"/>
	<path class="st2" d="M255.8,374c0,0,0,0.1,0,0.1s-0.1,0.1-0.1,0.1s-0.1,0-0.2,0.1s-0.2,0-0.4,0s-0.3,0-0.4,0s-0.2,0-0.2-0.1
		s-0.1-0.1-0.1-0.1s0-0.1,0-0.1v-5.1c0-0.5,0-0.9-0.1-1.2s-0.2-0.6-0.3-0.8s-0.3-0.4-0.6-0.5s-0.5-0.2-0.8-0.2
		c-0.4,0-0.8,0.1-1.2,0.4c-0.4,0.3-0.8,0.7-1.3,1.3v6.1c0,0,0,0.1,0,0.1s-0.1,0.1-0.1,0.1s-0.1,0-0.2,0.1s-0.2,0-0.4,0
		c-0.2,0-0.3,0-0.4,0s-0.2,0-0.3-0.1s-0.1-0.1-0.1-0.1s0-0.1,0-0.1v-13c0,0,0-0.1,0-0.1s0.1-0.1,0.1-0.1s0.1,0,0.3-0.1s0.2,0,0.4,0
		s0.3,0,0.4,0s0.2,0,0.2,0.1s0.1,0.1,0.1,0.1s0,0.1,0,0.1v5.3c0.5-0.5,0.9-0.9,1.4-1.1s0.9-0.4,1.4-0.4c0.6,0,1.1,0.1,1.5,0.3
		s0.7,0.5,1,0.8s0.4,0.7,0.5,1.2s0.2,1,0.2,1.6L255.8,374L255.8,374z"/>
	<path class="st2" d="M271.5,374c0,0,0,0.1,0,0.1s-0.1,0.1-0.1,0.1s-0.1,0-0.2,0.1s-0.2,0-0.4,0s-0.3,0-0.4,0s-0.2,0-0.3-0.1
		s-0.1-0.1-0.1-0.1s0-0.1,0-0.1v-5.3c0-0.4,0-0.7-0.1-1s-0.2-0.6-0.3-0.8s-0.3-0.4-0.5-0.5s-0.5-0.2-0.8-0.2c-0.4,0-0.7,0.1-1.1,0.4
		s-0.8,0.7-1.2,1.3v6.1c0,0,0,0.1,0,0.1s-0.1,0.1-0.1,0.1s-0.1,0-0.3,0.1s-0.2,0-0.4,0c-0.1,0-0.3,0-0.4,0s-0.2,0-0.3-0.1
		s-0.1-0.1-0.1-0.1s0-0.1,0-0.1v-5.3c0-0.4,0-0.7-0.1-1s-0.2-0.6-0.3-0.8s-0.3-0.4-0.5-0.5s-0.5-0.2-0.8-0.2c-0.4,0-0.8,0.1-1.1,0.4
		s-0.8,0.7-1.2,1.3v6.1c0,0,0,0.1,0,0.1s-0.1,0.1-0.1,0.1s-0.1,0-0.2,0.1s-0.2,0-0.4,0s-0.3,0-0.4,0s-0.2,0-0.3-0.1
		s-0.1-0.1-0.1-0.1s0-0.1,0-0.1v-8.8c0,0,0-0.1,0-0.1s0.1-0.1,0.1-0.1s0.1,0,0.2-0.1s0.2,0,0.4,0c0.1,0,0.3,0,0.4,0s0.2,0,0.2,0.1
		s0.1,0.1,0.1,0.1s0,0.1,0,0.1v1.2c0.5-0.5,1-1,1.4-1.2s0.9-0.4,1.4-0.4c0.4,0,0.7,0,1,0.1s0.5,0.2,0.8,0.4s0.4,0.3,0.6,0.5
		s0.3,0.5,0.4,0.7c0.3-0.3,0.6-0.6,0.8-0.8s0.5-0.4,0.8-0.5s0.5-0.2,0.7-0.3s0.5-0.1,0.7-0.1c0.6,0,1,0.1,1.4,0.3s0.7,0.5,0.9,0.8
		s0.4,0.7,0.5,1.2s0.1,0.9,0.1,1.4L271.5,374L271.5,374z"/>
	<path class="st2" d="M280.8,374c0,0.1,0,0.1-0.1,0.2s-0.1,0.1-0.2,0.1s-0.2,0-0.4,0c-0.2,0-0.3,0-0.4,0s-0.2,0-0.2-0.1
		s-0.1-0.1-0.1-0.2v-0.9c-0.4,0.4-0.8,0.7-1.3,1s-1,0.3-1.5,0.3c-0.5,0-0.9-0.1-1.3-0.2s-0.7-0.3-1-0.5s-0.5-0.5-0.6-0.8
		s-0.2-0.7-0.2-1.1c0-0.5,0.1-0.9,0.3-1.3s0.5-0.7,0.9-0.9s0.8-0.4,1.4-0.5s1.2-0.2,1.9-0.2h1.2v-0.7c0-0.3,0-0.6-0.1-0.9
		s-0.2-0.5-0.4-0.6s-0.4-0.3-0.6-0.4s-0.6-0.1-0.9-0.1c-0.4,0-0.8,0-1.1,0.1s-0.6,0.2-0.8,0.3s-0.4,0.2-0.6,0.3s-0.3,0.1-0.4,0.1
		c0,0-0.1,0-0.1,0s-0.1-0.1-0.1-0.1s0-0.1-0.1-0.2s0-0.2,0-0.3c0-0.2,0-0.3,0-0.4s0.1-0.2,0.2-0.3s0.2-0.2,0.5-0.3s0.5-0.2,0.7-0.3
		s0.6-0.2,0.9-0.2s0.7-0.1,1-0.1c0.6,0,1.2,0.1,1.6,0.2s0.8,0.4,1.1,0.6s0.5,0.6,0.6,1s0.2,0.9,0.2,1.4L280.8,374L280.8,374z
		 M279.2,370h-1.4c-0.4,0-0.8,0-1.1,0.1s-0.6,0.2-0.8,0.3s-0.4,0.3-0.5,0.5s-0.1,0.4-0.1,0.7c0,0.5,0.1,0.8,0.4,1.1s0.7,0.4,1.2,0.4
		c0.4,0,0.8-0.1,1.2-0.3s0.7-0.5,1.1-1L279.2,370L279.2,370z"/>
	<path class="st2" d="M288.7,365.8c0,0.1,0,0.3,0,0.4s0,0.2,0,0.2s0,0.1-0.1,0.1s-0.1,0-0.1,0s-0.1,0-0.2,0s-0.2-0.1-0.3-0.1
		s-0.2-0.1-0.3-0.1s-0.2,0-0.4,0c-0.2,0-0.3,0-0.5,0.1s-0.3,0.2-0.5,0.3s-0.4,0.4-0.5,0.6s-0.4,0.5-0.6,0.9v5.8c0,0,0,0.1,0,0.1
		s-0.1,0.1-0.1,0.1s-0.1,0-0.2,0.1s-0.2,0-0.4,0s-0.3,0-0.4,0s-0.2,0-0.3-0.1s-0.1-0.1-0.1-0.1s0-0.1,0-0.1v-8.8c0,0,0-0.1,0-0.1
		s0.1-0.1,0.1-0.1s0.1,0,0.2-0.1s0.2,0,0.4,0c0.1,0,0.3,0,0.4,0s0.2,0,0.2,0.1s0.1,0.1,0.1,0.1s0,0.1,0,0.1v1.3
		c0.2-0.4,0.5-0.6,0.7-0.9s0.4-0.4,0.6-0.5s0.4-0.2,0.6-0.3s0.4-0.1,0.6-0.1c0.1,0,0.2,0,0.3,0s0.2,0,0.3,0s0.2,0.1,0.3,0.1
		s0.2,0.1,0.2,0.1s0.1,0.1,0.1,0.1s0,0.1,0,0.1s0,0.1,0,0.2S288.7,365.6,288.7,365.8z"/>
	<path class="st2" d="M297.7,374c0,0,0,0.1,0,0.1s-0.1,0.1-0.1,0.1s-0.1,0-0.3,0.1s-0.3,0-0.4,0c-0.2,0-0.3,0-0.4,0s-0.2,0-0.3,0
		s-0.1-0.1-0.2-0.1s-0.1-0.1-0.1-0.1l-3.7-4.9v4.9c0,0,0,0.1,0,0.1s-0.1,0.1-0.1,0.1s-0.1,0-0.2,0.1s-0.2,0-0.4,0s-0.3,0-0.4,0
		s-0.2,0-0.3-0.1s-0.1-0.1-0.1-0.1s0-0.1,0-0.1v-13c0,0,0-0.1,0-0.1s0.1-0.1,0.1-0.1s0.1,0,0.3-0.1s0.2,0,0.4,0s0.3,0,0.4,0
		s0.2,0,0.2,0.1s0.1,0.1,0.1,0.1s0,0.1,0,0.1v8l3.3-3.6c0-0.1,0.1-0.1,0.2-0.2s0.1-0.1,0.2-0.1s0.2,0,0.3-0.1s0.2,0,0.4,0
		s0.3,0,0.4,0s0.2,0,0.3,0s0.1,0,0.1,0.1s0,0.1,0,0.1c0,0.1,0,0.2-0.1,0.2s-0.1,0.2-0.2,0.3l-3.2,3.2l3.6,4.6
		c0.1,0.1,0.1,0.2,0.2,0.3S297.7,374,297.7,374z"/>
</g>
<circle class="st0" cx="408.8" cy="90.2" r="89.7"/>
<g>
	<path class="st3" d="M48.2,91c0,1.3-0.2,2.4-0.5,3.4s-0.8,1.8-1.4,2.5s-1.4,1.2-2.3,1.6s-2,0.5-3.2,0.5c-1.2,0-2.2-0.2-3.1-0.5
		s-1.6-0.8-2.2-1.4s-1-1.4-1.3-2.4s-0.4-2.1-0.4-3.5c0-1.2,0.2-2.3,0.5-3.3s0.8-1.8,1.4-2.5s1.4-1.2,2.3-1.6s2-0.6,3.2-0.6
		c1.1,0,2.2,0.2,3,0.5s1.6,0.8,2.2,1.4s1,1.4,1.3,2.4S48.2,89.7,48.2,91z M45,91.1c0-0.8-0.1-1.5-0.2-2.2s-0.3-1.2-0.6-1.7
		s-0.7-0.8-1.2-1.1s-1.1-0.4-1.9-0.4c-0.8,0-1.4,0.1-1.9,0.4s-0.9,0.7-1.2,1.1s-0.5,1-0.7,1.7s-0.2,1.3-0.2,2c0,0.8,0.1,1.6,0.2,2.2
		s0.3,1.2,0.6,1.7s0.7,0.8,1.2,1.1s1.1,0.4,1.9,0.4s1.4-0.1,1.9-0.4s0.9-0.7,1.2-1.2s0.5-1.1,0.7-1.7S45,91.9,45,91.1z"/>
	<path class="st3" d="M61.2,93c0,0.9-0.1,1.8-0.3,2.5s-0.5,1.4-0.9,1.9s-0.9,0.9-1.4,1.2S57.4,99,56.7,99c-0.4,0-0.7,0-1-0.1
		s-0.6-0.2-0.9-0.3S54.3,98.2,54,98s-0.5-0.5-0.8-0.8v1.1c0,0.1,0,0.2-0.1,0.2s-0.1,0.1-0.2,0.2s-0.2,0.1-0.4,0.1s-0.4,0-0.6,0
		c-0.2,0-0.4,0-0.6,0s-0.3,0-0.4-0.1s-0.2-0.1-0.2-0.2s-0.1-0.1-0.1-0.2V82.9c0-0.1,0-0.2,0.1-0.2s0.1-0.1,0.2-0.2s0.3-0.1,0.5-0.1
		s0.4,0,0.7,0s0.5,0,0.7,0s0.3,0.1,0.5,0.1s0.2,0.1,0.2,0.2s0.1,0.1,0.1,0.2v5.8c0.3-0.3,0.5-0.5,0.8-0.7s0.5-0.3,0.8-0.5
		s0.5-0.2,0.8-0.3s0.6-0.1,0.9-0.1c0.8,0,1.4,0.2,2,0.5s1,0.7,1.3,1.3s0.6,1.1,0.7,1.8S61.2,92.2,61.2,93z M58.1,93.2
		c0-0.4,0-0.9-0.1-1.3s-0.2-0.8-0.4-1.1S57.3,90.2,57,90s-0.6-0.3-1-0.3c-0.2,0-0.4,0-0.6,0.1s-0.4,0.2-0.6,0.3s-0.4,0.3-0.6,0.5
		s-0.4,0.5-0.7,0.8v3.5c0.4,0.5,0.8,0.9,1.2,1.2s0.8,0.4,1.2,0.4c0.4,0,0.7-0.1,1-0.3s0.5-0.4,0.7-0.8s0.3-0.7,0.4-1.1
		S58.1,93.6,58.1,93.2z"/>
	<path class="st3" d="M70.8,95.4c0,0.6-0.1,1.1-0.3,1.6s-0.5,0.8-0.9,1.1s-0.9,0.5-1.4,0.7S66.9,99,66.2,99c-0.4,0-0.8,0-1.1-0.1
		s-0.7-0.1-1-0.2s-0.5-0.2-0.7-0.3s-0.3-0.2-0.4-0.3s-0.1-0.2-0.2-0.4s-0.1-0.4-0.1-0.8c0-0.2,0-0.4,0-0.5s0-0.3,0.1-0.3
		S62.9,96,63,96s0.1,0,0.2,0c0.1,0,0.2,0.1,0.4,0.2s0.4,0.2,0.6,0.3s0.5,0.2,0.9,0.3s0.7,0.2,1.1,0.2c0.3,0,0.5,0,0.7-0.1
		s0.4-0.1,0.5-0.2s0.3-0.2,0.4-0.4s0.1-0.3,0.1-0.5c0-0.2-0.1-0.4-0.2-0.6s-0.3-0.3-0.6-0.4s-0.5-0.2-0.8-0.3s-0.6-0.2-0.9-0.4
		s-0.6-0.3-0.9-0.5s-0.6-0.4-0.8-0.6s-0.4-0.6-0.6-0.9s-0.2-0.8-0.2-1.3s0.1-1,0.3-1.4s0.5-0.8,0.8-1.1s0.8-0.5,1.3-0.7
		s1.1-0.3,1.8-0.3c0.3,0,0.6,0,1,0.1s0.6,0.1,0.8,0.2s0.5,0.2,0.6,0.2s0.3,0.2,0.4,0.2s0.1,0.1,0.2,0.2s0,0.1,0.1,0.2s0,0.2,0,0.3
		s0,0.3,0,0.4c0,0.2,0,0.4,0,0.5s0,0.2-0.1,0.3S70,90,70,90.1s-0.1,0-0.2,0c-0.1,0-0.2,0-0.3-0.1s-0.3-0.2-0.6-0.3s-0.5-0.2-0.8-0.3
		s-0.6-0.1-1-0.1c-0.3,0-0.5,0-0.7,0.1s-0.4,0.1-0.5,0.2s-0.2,0.2-0.3,0.4s-0.1,0.3-0.1,0.4c0,0.2,0.1,0.4,0.2,0.6s0.3,0.3,0.6,0.4
		s0.5,0.2,0.8,0.3s0.6,0.2,0.9,0.4s0.6,0.3,0.9,0.4s0.6,0.4,0.8,0.6s0.4,0.6,0.6,0.9S70.8,94.9,70.8,95.4z"/>
	<path class="st3" d="M82.6,92.8c0,0.4-0.1,0.6-0.2,0.8s-0.4,0.3-0.7,0.3h-6.4c0,0.4,0,0.8,0.2,1.2s0.3,0.7,0.5,0.9s0.5,0.4,0.9,0.6
		s0.8,0.2,1.3,0.2c0.5,0,1,0,1.4-0.1s0.7-0.2,1-0.3s0.5-0.2,0.7-0.3s0.3-0.1,0.5-0.1c0.1,0,0.1,0,0.2,0s0.1,0.1,0.1,0.2
		s0,0.2,0.1,0.3s0,0.3,0,0.5c0,0.2,0,0.3,0,0.4s0,0.2,0,0.3s0,0.2-0.1,0.2s-0.1,0.1-0.1,0.2s-0.2,0.1-0.4,0.2s-0.5,0.2-0.9,0.3
		s-0.8,0.2-1.2,0.2S78.5,99,78,99c-0.9,0-1.7-0.1-2.4-0.3s-1.3-0.6-1.8-1.1s-0.8-1.1-1-1.8s-0.4-1.6-0.4-2.6c0-0.9,0.1-1.8,0.4-2.5
		s0.6-1.4,1-1.9s1-0.9,1.7-1.2s1.4-0.4,2.2-0.4c0.9,0,1.6,0.1,2.2,0.4s1.1,0.6,1.5,1.1s0.7,1,0.9,1.6s0.3,1.3,0.3,2L82.6,92.8
		L82.6,92.8z M79.8,92c0-0.8-0.1-1.5-0.5-1.9s-0.9-0.7-1.6-0.7c-0.4,0-0.7,0.1-1,0.2s-0.5,0.3-0.7,0.6s-0.3,0.5-0.4,0.8
		s-0.1,0.7-0.2,1H79.8z"/>
	<path class="st3" d="M91.8,88.8c0,0.3,0,0.5,0,0.7s0,0.3-0.1,0.4s-0.1,0.2-0.1,0.2s-0.1,0.1-0.2,0.1c-0.1,0-0.1,0-0.2,0
		s-0.2-0.1-0.3-0.1S90.7,90,90.6,90s-0.3,0-0.4,0c-0.2,0-0.3,0-0.5,0.1s-0.3,0.2-0.5,0.3s-0.4,0.3-0.5,0.6s-0.4,0.5-0.6,0.9v6.5
		c0,0.1,0,0.2-0.1,0.2s-0.1,0.1-0.2,0.2s-0.3,0.1-0.5,0.1s-0.4,0-0.7,0s-0.5,0-0.7,0s-0.3-0.1-0.5-0.1s-0.2-0.1-0.2-0.2
		s-0.1-0.1-0.1-0.2V87.9c0-0.1,0-0.2,0.1-0.2s0.1-0.1,0.2-0.2s0.2-0.1,0.4-0.1s0.4,0,0.6,0c0.3,0,0.5,0,0.6,0s0.3,0.1,0.4,0.1
		s0.1,0.1,0.2,0.2s0.1,0.1,0.1,0.2v1.3c0.3-0.4,0.5-0.7,0.8-1s0.5-0.5,0.7-0.6s0.4-0.3,0.7-0.3s0.4-0.1,0.7-0.1c0.1,0,0.2,0,0.3,0
		s0.2,0,0.4,0.1s0.2,0.1,0.3,0.1s0.2,0.1,0.2,0.1s0.1,0.1,0.1,0.1s0,0.1,0,0.2s0,0.2,0,0.4S91.8,88.6,91.8,88.8z"/>
	<path class="st3" d="M103.4,87.9c0,0,0,0.1,0,0.1s0,0.1,0,0.2s0,0.1,0,0.2s0,0.2-0.1,0.3l-3.1,9.5c0,0.1-0.1,0.2-0.2,0.3
		s-0.2,0.2-0.3,0.2s-0.4,0.1-0.6,0.1s-0.6,0-1,0c-0.4,0-0.8,0-1,0s-0.5-0.1-0.6-0.1s-0.3-0.1-0.3-0.2s-0.1-0.2-0.2-0.3l-3.1-9.5
		c0-0.2-0.1-0.3-0.1-0.4s0-0.2,0-0.3s0-0.1,0-0.2c0-0.1,0-0.2,0.1-0.2s0.1-0.1,0.2-0.2s0.3-0.1,0.5-0.1s0.4,0,0.7,0
		c0.3,0,0.6,0,0.8,0s0.4,0.1,0.5,0.1s0.2,0.1,0.2,0.2s0.1,0.2,0.1,0.2l2.4,7.7l0.1,0.3l0.1-0.3l2.3-7.7c0-0.1,0.1-0.2,0.1-0.2
		s0.1-0.1,0.2-0.2s0.3-0.1,0.4-0.1s0.4,0,0.7,0c0.3,0,0.5,0,0.7,0s0.3,0,0.4,0.1s0.2,0.1,0.2,0.2S103.4,87.8,103.4,87.9z"/>
	<path class="st3" d="M113.7,98.4c0,0.1,0,0.2-0.1,0.3s-0.2,0.1-0.4,0.1s-0.4,0-0.7,0c-0.4,0-0.6,0-0.8,0s-0.3-0.1-0.3-0.1
		s-0.1-0.2-0.1-0.3v-0.8c-0.4,0.5-0.9,0.8-1.5,1.1S108.6,99,108,99c-0.5,0-1.1-0.1-1.5-0.2s-0.9-0.4-1.2-0.6s-0.6-0.6-0.8-1.1
		s-0.3-0.9-0.3-1.5c0-0.6,0.1-1.1,0.4-1.6s0.6-0.8,1.1-1.1s1.1-0.5,1.8-0.7s1.5-0.2,2.5-0.2h1v-0.6c0-0.3,0-0.6-0.1-0.9
		s-0.2-0.4-0.3-0.6s-0.4-0.3-0.6-0.4s-0.6-0.1-0.9-0.1c-0.5,0-0.9,0.1-1.3,0.2s-0.7,0.2-1,0.4s-0.5,0.3-0.7,0.4s-0.4,0.2-0.5,0.2
		c-0.1,0-0.2,0-0.2-0.1s-0.1-0.1-0.2-0.2s-0.1-0.2-0.1-0.4s0-0.3,0-0.5c0-0.2,0-0.4,0.1-0.6s0.1-0.3,0.2-0.4s0.3-0.2,0.6-0.4
		s0.6-0.3,1-0.4s0.8-0.2,1.2-0.3s0.9-0.1,1.3-0.1c0.8,0,1.5,0.1,2.1,0.2s1.1,0.4,1.4,0.7s0.6,0.8,0.8,1.3s0.3,1.1,0.3,1.9
		L113.7,98.4L113.7,98.4z M110.8,93.9h-1.1c-0.5,0-0.9,0-1.2,0.1s-0.6,0.2-0.8,0.3s-0.4,0.3-0.5,0.5s-0.1,0.4-0.1,0.7
		c0,0.4,0.1,0.8,0.4,1s0.7,0.4,1.1,0.4c0.4,0,0.8-0.1,1.1-0.3s0.7-0.5,1.1-0.9L110.8,93.9L110.8,93.9z"/>
	<path class="st3" d="M124.6,96.7c0,0.2,0,0.4,0,0.5s0,0.3,0,0.3s0,0.2-0.1,0.2s-0.1,0.1-0.2,0.2s-0.3,0.2-0.5,0.3s-0.5,0.3-0.8,0.4
		s-0.7,0.2-1,0.2l0.3,0.6c0.1,0.3,0.2,0.6,0.3,0.8s0.1,0.4,0.1,0.7c0,0.4-0.1,0.7-0.2,0.9s-0.3,0.5-0.5,0.6s-0.5,0.3-0.8,0.4
		s-0.6,0.1-1,0.1c-0.3,0-0.7,0-1-0.1s-0.5-0.1-0.7-0.2s-0.3-0.1-0.4-0.1s-0.1-0.1-0.2-0.2s0-0.1-0.1-0.2s0-0.2,0-0.4
		c0-0.3,0-0.5,0.1-0.7s0.2-0.2,0.3-0.2h1.4c0.2,0,0.4-0.1,0.5-0.2s0.2-0.2,0.2-0.4c0-0.1,0-0.2,0-0.3s-0.1-0.2-0.1-0.4l-0.5-1
		c-0.8-0.2-1.4-0.5-1.9-1s-0.9-1.1-1.1-1.8s-0.4-1.6-0.4-2.6c0-1.1,0.1-1.9,0.4-2.7s0.6-1.4,1.1-1.9s1-0.9,1.7-1.1s1.3-0.4,2.1-0.4
		c0.3,0,0.6,0,0.9,0.1s0.6,0.1,0.8,0.2s0.5,0.2,0.7,0.3s0.4,0.2,0.4,0.3s0.1,0.2,0.2,0.2s0.1,0.1,0.1,0.2s0,0.2,0,0.3s0,0.3,0,0.5
		c0,0.4,0,0.8-0.1,1s-0.2,0.3-0.3,0.3c-0.1,0-0.3-0.1-0.4-0.2s-0.3-0.2-0.5-0.4s-0.5-0.3-0.7-0.4s-0.6-0.2-1-0.2
		c-0.8,0-1.4,0.3-1.8,0.9S119,92,119,93.2c0,0.6,0,1.1,0.1,1.5s0.3,0.8,0.5,1.1s0.5,0.5,0.8,0.7s0.6,0.2,1,0.2c0.4,0,0.8-0.1,1-0.2
		s0.5-0.3,0.8-0.4s0.4-0.3,0.5-0.4s0.3-0.2,0.4-0.2c0.1,0,0.1,0,0.2,0.1s0.1,0.1,0.1,0.2s0,0.2,0.1,0.4S124.6,96.4,124.6,96.7z"/>
	<path class="st3" d="M135.5,98.4c0,0.1,0,0.2-0.1,0.3s-0.2,0.1-0.4,0.1s-0.4,0-0.7,0c-0.4,0-0.6,0-0.8,0s-0.3-0.1-0.3-0.1
		s-0.1-0.2-0.1-0.3v-0.8c-0.4,0.5-0.9,0.8-1.5,1.1s-1.2,0.4-1.8,0.4c-0.5,0-1.1-0.1-1.5-0.2c-0.5-0.2-0.9-0.4-1.2-0.6
		s-0.6-0.6-0.8-1.1s-0.3-0.9-0.3-1.5c0-0.6,0.1-1.1,0.4-1.6s0.6-0.8,1.1-1.1s1.1-0.5,1.8-0.7s1.5-0.2,2.5-0.2h1v-0.6
		c0-0.3,0-0.6-0.1-0.9s-0.2-0.4-0.3-0.6s-0.4-0.3-0.6-0.4s-0.6-0.1-0.9-0.1c-0.5,0-0.9,0.1-1.3,0.2s-0.7,0.2-1,0.4
		c-0.3,0.1-0.5,0.3-0.7,0.4s-0.4,0.2-0.5,0.2c-0.1,0-0.2,0-0.2-0.1s-0.1-0.1-0.2-0.2s-0.1-0.2-0.1-0.4s0-0.3,0-0.5
		c0-0.2,0-0.4,0.1-0.6s0.1-0.3,0.2-0.4s0.3-0.2,0.6-0.4s0.6-0.3,1-0.4c0.4-0.1,0.8-0.2,1.2-0.3s0.9-0.1,1.3-0.1
		c0.8,0,1.5,0.1,2.1,0.2s1.1,0.4,1.4,0.7s0.6,0.8,0.8,1.3s0.3,1.1,0.3,1.9L135.5,98.4L135.5,98.4z M135.2,83.1
		c0,0.9-0.2,1.7-0.7,2.2s-1.1,0.8-1.9,0.8c-0.3,0-0.6,0-0.8-0.1s-0.5-0.1-0.6-0.3s-0.4-0.2-0.5-0.3s-0.3-0.2-0.4-0.3
		s-0.3-0.2-0.4-0.3s-0.3-0.1-0.4-0.1c-0.3,0-0.4,0.1-0.5,0.3s-0.2,0.4-0.2,0.7c0,0.1,0,0.1,0,0.2s-0.1,0.1-0.1,0.1s-0.2,0-0.3,0.1
		s-0.3,0-0.5,0c-0.2,0-0.3,0-0.4,0s-0.2,0-0.3-0.1s-0.1-0.1-0.1-0.2s0-0.1,0-0.3c0-0.9,0.2-1.6,0.7-2.1s1.1-0.8,1.9-0.8
		c0.5,0,0.8,0.1,1.1,0.2s0.6,0.3,0.8,0.5s0.5,0.3,0.7,0.5s0.4,0.2,0.6,0.2c0.2,0,0.4-0.1,0.5-0.3s0.2-0.4,0.2-0.7
		c0-0.1,0.1-0.2,0.2-0.3s0.4-0.1,0.7-0.1s0.6,0,0.7,0.1S135.2,82.9,135.2,83.1z M132.6,93.9h-1.1c-0.5,0-0.9,0-1.2,0.1
		s-0.6,0.2-0.8,0.3s-0.4,0.3-0.5,0.5s-0.1,0.4-0.1,0.7c0,0.4,0.1,0.8,0.4,1s0.7,0.4,1.1,0.4c0.4,0,0.8-0.1,1.1-0.3s0.7-0.5,1.1-0.9
		L132.6,93.9L132.6,93.9z"/>
	<path class="st3" d="M149,93c0,0.9-0.1,1.7-0.4,2.4s-0.6,1.4-1.1,1.9s-1.1,0.9-1.8,1.2s-1.6,0.4-2.5,0.4c-0.9,0-1.7-0.1-2.4-0.4
		s-1.3-0.6-1.7-1.1s-0.8-1.1-1-1.8s-0.3-1.5-0.3-2.5c0-0.9,0.1-1.7,0.4-2.4s0.6-1.4,1.1-1.9s1.1-0.9,1.8-1.2s1.5-0.4,2.5-0.4
		c0.9,0,1.8,0.1,2.4,0.4s1.3,0.6,1.7,1.1s0.8,1.1,1,1.8S149,92.1,149,93z M145.9,93.1c0-0.5,0-1-0.1-1.4s-0.2-0.8-0.4-1.1
		s-0.5-0.6-0.8-0.8s-0.7-0.3-1.2-0.3c-0.4,0-0.8,0.1-1.1,0.2s-0.6,0.4-0.8,0.7s-0.4,0.7-0.5,1.1s-0.2,0.9-0.2,1.5c0,0.5,0,1,0.1,1.4
		s0.2,0.8,0.4,1.1s0.5,0.6,0.8,0.7s0.7,0.3,1.2,0.3c0.5,0,0.8-0.1,1.2-0.2s0.6-0.4,0.8-0.7s0.4-0.7,0.5-1.1S145.9,93.7,145.9,93.1z"
		/>
</g>
<g>
	<polyline class="st4" points="416.5,195.9 416.5,230.6 173.8,230.6 83.5,230.6 83.5,195.9 	"/>
	<line class="st4" x1="255.3" y1="229.9" x2="255.3" y2="248.8"/>
</g>
<g>
	<path class="st3" d="M350.9,97.3c0,0.2,0,0.4,0,0.6c0,0.2,0,0.3-0.1,0.4c0,0.1-0.1,0.2-0.1,0.2s-0.1,0.1-0.2,0.1h-7.6
		c-0.3,0-0.5-0.1-0.6-0.2s-0.3-0.4-0.3-0.7V84.3c0-0.3,0.1-0.6,0.3-0.7s0.4-0.2,0.6-0.2h7.6c0.1,0,0.1,0,0.2,0.1s0.1,0.1,0.1,0.2
		s0.1,0.2,0.1,0.4c0,0.2,0,0.3,0,0.6c0,0.2,0,0.4,0,0.6c0,0.2,0,0.3-0.1,0.4s-0.1,0.2-0.1,0.2c-0.1,0-0.1,0.1-0.2,0.1H345v3.7h4.6
		c0.1,0,0.1,0,0.2,0.1s0.1,0.1,0.2,0.2c0,0.1,0.1,0.2,0.1,0.4c0,0.2,0,0.3,0,0.6c0,0.2,0,0.4,0,0.6c0,0.1-0.1,0.3-0.1,0.4
		c0,0.1-0.1,0.2-0.2,0.2s-0.1,0.1-0.2,0.1H345v4.3h5.5c0.1,0,0.1,0,0.2,0.1s0.1,0.1,0.1,0.2c0,0.1,0.1,0.2,0.1,0.4
		C350.9,96.8,350.9,97,350.9,97.3z"/>
	<path class="st3" d="M363.4,98.1c0,0.1,0,0.2-0.1,0.2c-0.1,0.1-0.1,0.1-0.2,0.2s-0.3,0.1-0.5,0.1s-0.4,0-0.7,0c-0.3,0-0.5,0-0.7,0
		s-0.3-0.1-0.4-0.1c-0.1,0-0.2-0.1-0.2-0.2s-0.1-0.1-0.1-0.2v-6c0-0.5,0-0.9-0.1-1.2s-0.2-0.5-0.3-0.7s-0.3-0.4-0.5-0.5
		s-0.5-0.2-0.8-0.2c-0.4,0-0.8,0.1-1.1,0.4c-0.4,0.3-0.8,0.7-1.2,1.2v6.9c0,0.1,0,0.2-0.1,0.2c0,0.1-0.1,0.1-0.2,0.2
		s-0.3,0.1-0.5,0.1s-0.4,0-0.7,0s-0.5,0-0.7,0s-0.3-0.1-0.5-0.1c-0.1,0-0.2-0.1-0.2-0.2c-0.1-0.1-0.1-0.1-0.1-0.2V87.6
		c0-0.1,0-0.2,0.1-0.2s0.1-0.1,0.2-0.2c0.1,0,0.2-0.1,0.4-0.1s0.4,0,0.6,0c0.3,0,0.5,0,0.6,0s0.3,0.1,0.4,0.1s0.1,0.1,0.2,0.2
		c0,0.1,0.1,0.1,0.1,0.2v1.2c0.6-0.6,1.2-1.1,1.8-1.4c0.6-0.3,1.2-0.5,1.9-0.5c0.7,0,1.3,0.1,1.8,0.3s0.9,0.6,1.2,1
		c0.3,0.4,0.5,0.9,0.6,1.4s0.2,1.2,0.2,1.9L363.4,98.1L363.4,98.1z"/>
	<path class="st3" d="M372.3,97c0,0.3,0,0.6-0.1,0.8s-0.1,0.3-0.2,0.4c-0.1,0.1-0.2,0.1-0.3,0.2c-0.1,0.1-0.3,0.1-0.5,0.2
		c-0.2,0-0.4,0.1-0.6,0.1s-0.4,0-0.6,0c-0.6,0-1.1-0.1-1.5-0.2s-0.8-0.4-1.1-0.7c-0.3-0.3-0.5-0.7-0.6-1.2c-0.1-0.5-0.2-1-0.2-1.7
		v-5.4h-1.3c-0.1,0-0.3-0.1-0.3-0.3c-0.1-0.2-0.1-0.5-0.1-0.9c0-0.2,0-0.4,0-0.6c0-0.2,0.1-0.3,0.1-0.4c0-0.1,0.1-0.2,0.1-0.2
		s0.1-0.1,0.2-0.1h1.2v-2.3c0-0.1,0-0.2,0.1-0.2c0-0.1,0.1-0.1,0.2-0.2c0.1,0,0.3-0.1,0.5-0.1c0.2,0,0.4,0,0.7,0c0.3,0,0.5,0,0.7,0
		s0.3,0.1,0.4,0.1c0.1,0,0.2,0.1,0.2,0.2s0.1,0.1,0.1,0.2v2.3h2.3c0.1,0,0.1,0,0.2,0.1s0.1,0.1,0.2,0.2c0,0.1,0.1,0.2,0.1,0.4
		c0,0.2,0,0.3,0,0.6c0,0.4,0,0.7-0.1,0.9c-0.1,0.2-0.2,0.3-0.3,0.3h-2.3v4.9c0,0.6,0.1,1,0.3,1.3s0.5,0.4,1,0.4c0.2,0,0.3,0,0.4,0
		s0.2-0.1,0.3-0.1s0.2-0.1,0.3-0.1c0.1,0,0.1,0,0.2,0c0,0,0.1,0,0.1,0c0,0,0.1,0.1,0.1,0.2c0,0.1,0,0.2,0.1,0.3
		C372.3,96.6,372.3,96.8,372.3,97z"/>
	<path class="st3" d="M383.8,92.5c0,0.4-0.1,0.6-0.2,0.8c-0.2,0.2-0.4,0.3-0.7,0.3h-6.4c0,0.4,0.1,0.8,0.2,1.2s0.3,0.7,0.5,0.9
		s0.5,0.4,0.9,0.6c0.4,0.1,0.8,0.2,1.3,0.2c0.5,0,1,0,1.4-0.1c0.4-0.1,0.7-0.2,1-0.3s0.5-0.2,0.7-0.3s0.3-0.1,0.5-0.1
		c0.1,0,0.1,0,0.2,0c0,0,0.1,0.1,0.1,0.2s0,0.2,0.1,0.3c0,0.1,0,0.3,0,0.5c0,0.2,0,0.3,0,0.4c0,0.1,0,0.2,0,0.3c0,0.1,0,0.2-0.1,0.2
		s-0.1,0.1-0.1,0.2c-0.1,0-0.2,0.1-0.4,0.2c-0.2,0.1-0.5,0.2-0.9,0.3s-0.8,0.2-1.2,0.2c-0.5,0.1-0.9,0.1-1.5,0.1
		c-0.9,0-1.7-0.1-2.4-0.3c-0.7-0.2-1.3-0.6-1.8-1.1s-0.8-1.1-1-1.8c-0.2-0.7-0.4-1.6-0.4-2.6c0-0.9,0.1-1.8,0.4-2.5
		c0.2-0.7,0.6-1.4,1-1.9s1-0.9,1.7-1.2s1.4-0.4,2.2-0.4c0.9,0,1.6,0.1,2.2,0.4s1.1,0.6,1.5,1.1s0.7,1,0.9,1.6s0.3,1.3,0.3,2
		L383.8,92.5L383.8,92.5z M380.9,91.7c0-0.8-0.1-1.5-0.5-1.9c-0.4-0.5-0.9-0.7-1.6-0.7c-0.4,0-0.7,0.1-1,0.2s-0.5,0.3-0.7,0.6
		c-0.2,0.2-0.3,0.5-0.4,0.8c-0.1,0.3-0.1,0.7-0.2,1H380.9z"/>
	<path class="st3" d="M396.2,98.1c0,0.1,0,0.2-0.1,0.2c0,0.1-0.1,0.1-0.2,0.2s-0.3,0.1-0.4,0.1s-0.4,0-0.7,0c-0.3,0-0.5,0-0.7,0
		s-0.3-0.1-0.5-0.1c-0.1,0-0.2-0.1-0.2-0.2c0-0.1-0.1-0.1-0.1-0.2v-6c0-0.5,0-0.9-0.1-1.2s-0.2-0.5-0.3-0.7
		c-0.1-0.2-0.3-0.4-0.5-0.5s-0.5-0.2-0.8-0.2c-0.4,0-0.8,0.1-1.1,0.4c-0.4,0.3-0.8,0.7-1.2,1.2v6.9c0,0.1,0,0.2-0.1,0.2
		c-0.1,0.1-0.1,0.1-0.2,0.2c-0.1,0-0.3,0.1-0.5,0.1s-0.4,0-0.7,0s-0.5,0-0.7,0c-0.2,0-0.3-0.1-0.5-0.1c-0.1,0-0.2-0.1-0.2-0.2
		s-0.1-0.1-0.1-0.2V87.6c0-0.1,0-0.2,0.1-0.2s0.1-0.1,0.2-0.2c0.1,0,0.2-0.1,0.4-0.1s0.4,0,0.6,0c0.3,0,0.5,0,0.6,0s0.3,0.1,0.4,0.1
		s0.1,0.1,0.2,0.2c0,0.1,0.1,0.1,0.1,0.2v1.2c0.6-0.6,1.2-1.1,1.8-1.4c0.6-0.3,1.2-0.5,1.9-0.5c0.7,0,1.3,0.1,1.8,0.3
		c0.5,0.2,0.9,0.6,1.2,1c0.3,0.4,0.5,0.9,0.7,1.4s0.2,1.2,0.2,1.9L396.2,98.1L396.2,98.1z"/>
	<path class="st3" d="M409,98.1c0,0.1,0,0.2-0.1,0.2s-0.1,0.1-0.2,0.2s-0.2,0.1-0.4,0.1c-0.2,0-0.4,0-0.6,0c-0.3,0-0.5,0-0.6,0
		s-0.3,0-0.4-0.1c-0.1,0-0.2-0.1-0.2-0.2s-0.1-0.1-0.1-0.2v-1.2c-0.5,0.6-1.1,1-1.7,1.3s-1.2,0.5-2,0.5c-0.8,0-1.5-0.2-2-0.5
		c-0.6-0.3-1-0.7-1.4-1.3s-0.6-1.1-0.8-1.8s-0.2-1.4-0.2-2.2c0-0.9,0.1-1.8,0.3-2.5s0.5-1.4,0.9-1.9s0.9-0.9,1.4-1.2
		c0.6-0.3,1.2-0.4,2-0.4c0.6,0,1.1,0.1,1.6,0.4c0.5,0.2,1,0.6,1.4,1.1v-5.7c0-0.1,0-0.2,0.1-0.2s0.1-0.1,0.2-0.2
		c0.1,0,0.3-0.1,0.4-0.1s0.4,0,0.7,0s0.5,0,0.7,0c0.2,0,0.3,0.1,0.4,0.1c0.1,0,0.2,0.1,0.2,0.2s0.1,0.1,0.1,0.2L409,98.1L409,98.1z
		 M406.1,91.1c-0.4-0.5-0.8-0.9-1.2-1.2c-0.4-0.3-0.8-0.4-1.2-0.4c-0.4,0-0.7,0.1-1,0.3s-0.5,0.4-0.7,0.8c-0.2,0.3-0.3,0.7-0.4,1.1
		s-0.1,0.8-0.1,1.2c0,0.4,0,0.9,0.1,1.3s0.2,0.8,0.4,1.1c0.2,0.3,0.4,0.6,0.6,0.8s0.6,0.3,1,0.3c0.2,0,0.4,0,0.6-0.1
		s0.4-0.2,0.6-0.3c0.2-0.1,0.4-0.3,0.6-0.5s0.4-0.5,0.7-0.8L406.1,91.1L406.1,91.1z"/>
	<path class="st3" d="M415.1,84.1c0,0.6-0.1,1-0.4,1.2s-0.7,0.3-1.4,0.3s-1.1-0.1-1.3-0.3c-0.2-0.2-0.4-0.6-0.4-1.2
		c0-0.6,0.1-1,0.4-1.2s0.7-0.3,1.4-0.3s1.1,0.1,1.3,0.3C415,83.1,415.1,83.5,415.1,84.1z M414.9,98.1c0,0.1,0,0.2-0.1,0.2
		c0,0.1-0.1,0.1-0.2,0.2c-0.1,0-0.3,0.1-0.5,0.1c-0.2,0-0.4,0-0.7,0s-0.5,0-0.7,0s-0.3-0.1-0.5-0.1c-0.1,0-0.2-0.1-0.2-0.2
		s-0.1-0.1-0.1-0.2V87.6c0-0.1,0-0.2,0.1-0.2c0.1-0.1,0.1-0.1,0.2-0.2c0.1,0,0.3-0.1,0.5-0.1s0.4,0,0.7,0s0.5,0,0.7,0
		c0.2,0,0.3,0.1,0.5,0.1c0.1,0,0.2,0.1,0.2,0.2s0.1,0.1,0.1,0.2V98.1z"/>
	<path class="st3" d="M434.5,98.1c0,0.1,0,0.2-0.1,0.2c-0.1,0.1-0.1,0.1-0.2,0.2s-0.3,0.1-0.4,0.1c-0.2,0-0.4,0-0.7,0
		c-0.3,0-0.5,0-0.7,0s-0.3-0.1-0.5-0.1c-0.1,0-0.2-0.1-0.2-0.2c0-0.1-0.1-0.1-0.1-0.2v-6.2c0-0.3,0-0.7-0.1-1
		c-0.1-0.3-0.2-0.5-0.3-0.7s-0.3-0.4-0.5-0.5s-0.5-0.2-0.7-0.2c-0.4,0-0.7,0.1-1.1,0.4c-0.4,0.3-0.8,0.7-1.2,1.2v6.9
		c0,0.1,0,0.2-0.1,0.2c-0.1,0.1-0.1,0.1-0.2,0.2c-0.1,0-0.3,0.1-0.4,0.1s-0.4,0-0.7,0c-0.3,0-0.5,0-0.7,0s-0.3-0.1-0.4-0.1
		c-0.1,0-0.2-0.1-0.2-0.2c0-0.1-0.1-0.1-0.1-0.2v-6.2c0-0.3,0-0.7-0.1-1s-0.2-0.5-0.3-0.7s-0.3-0.4-0.5-0.5s-0.5-0.2-0.7-0.2
		c-0.4,0-0.7,0.1-1.1,0.4c-0.4,0.3-0.8,0.7-1.2,1.2v6.9c0,0.1,0,0.2-0.1,0.2c-0.1,0.1-0.1,0.1-0.2,0.2c-0.1,0-0.3,0.1-0.4,0.1
		s-0.4,0-0.7,0s-0.5,0-0.7,0c-0.2,0-0.3-0.1-0.4-0.1c-0.1,0-0.2-0.1-0.2-0.2c-0.1-0.1-0.1-0.1-0.1-0.2V87.6c0-0.1,0-0.2,0.1-0.2
		s0.1-0.1,0.2-0.2s0.2-0.1,0.4-0.1c0.2,0,0.4,0,0.6,0c0.3,0,0.5,0,0.6,0s0.3,0.1,0.4,0.1s0.2,0.1,0.2,0.2c0,0.1,0.1,0.1,0.1,0.2v1.2
		c0.6-0.6,1.2-1.1,1.7-1.4c0.6-0.3,1.2-0.5,1.8-0.5c0.4,0,0.8,0,1.2,0.1c0.3,0.1,0.6,0.2,0.9,0.4s0.5,0.4,0.7,0.6
		c0.2,0.2,0.4,0.5,0.5,0.8c0.3-0.3,0.6-0.6,0.9-0.9c0.3-0.2,0.6-0.4,0.9-0.6s0.6-0.3,0.9-0.3c0.3-0.1,0.6-0.1,0.9-0.1
		c0.7,0,1.3,0.1,1.8,0.3c0.5,0.2,0.9,0.6,1.1,1s0.5,0.9,0.6,1.4c0.1,0.5,0.2,1.1,0.2,1.7L434.5,98.1L434.5,98.1z"/>
	<path class="st3" d="M447,92.5c0,0.4-0.1,0.6-0.2,0.8s-0.4,0.3-0.7,0.3h-6.4c0,0.4,0,0.8,0.2,1.2c0.1,0.4,0.3,0.7,0.5,0.9
		s0.5,0.4,0.9,0.6c0.4,0.1,0.8,0.2,1.3,0.2c0.5,0,1,0,1.4-0.1c0.4-0.1,0.7-0.2,1-0.3s0.5-0.2,0.7-0.3s0.3-0.1,0.5-0.1
		c0.1,0,0.1,0,0.2,0s0.1,0.1,0.1,0.2s0.1,0.2,0.1,0.3c0,0.1,0,0.3,0,0.5c0,0.2,0,0.3,0,0.4c0,0.1,0,0.2,0,0.3s0,0.2-0.1,0.2
		c0,0.1-0.1,0.1-0.1,0.2s-0.2,0.1-0.4,0.2c-0.2,0.1-0.5,0.2-0.9,0.3s-0.8,0.2-1.2,0.2s-0.9,0.1-1.5,0.1c-0.9,0-1.7-0.1-2.4-0.3
		c-0.7-0.2-1.3-0.6-1.8-1.1s-0.8-1.1-1-1.8s-0.4-1.6-0.4-2.6c0-0.9,0.1-1.8,0.4-2.5c0.2-0.7,0.6-1.4,1-1.9c0.5-0.5,1-0.9,1.7-1.2
		s1.4-0.4,2.2-0.4c0.9,0,1.6,0.1,2.2,0.4s1.1,0.6,1.5,1.1s0.7,1,0.9,1.6s0.3,1.3,0.3,2L447,92.5L447,92.5z M444.2,91.7
		c0-0.8-0.1-1.5-0.5-1.9c-0.4-0.5-0.9-0.7-1.6-0.7c-0.4,0-0.7,0.1-1,0.2s-0.5,0.3-0.7,0.6s-0.3,0.5-0.4,0.8c-0.1,0.3-0.2,0.7-0.2,1
		H444.2z"/>
	<path class="st3" d="M459.4,98.1c0,0.1,0,0.2-0.1,0.2c0,0.1-0.1,0.1-0.2,0.2c-0.1,0-0.3,0.1-0.5,0.1s-0.4,0-0.7,0
		c-0.3,0-0.5,0-0.7,0s-0.3-0.1-0.5-0.1c-0.1,0-0.2-0.1-0.2-0.2c0-0.1-0.1-0.1-0.1-0.2v-6c0-0.5,0-0.9-0.1-1.2s-0.2-0.5-0.3-0.7
		s-0.3-0.4-0.5-0.5c-0.2-0.1-0.5-0.2-0.8-0.2c-0.4,0-0.8,0.1-1.1,0.4c-0.4,0.3-0.8,0.7-1.2,1.2v6.9c0,0.1,0,0.2-0.1,0.2
		c-0.1,0.1-0.1,0.1-0.2,0.2c-0.1,0-0.3,0.1-0.4,0.1s-0.4,0-0.7,0c-0.3,0-0.5,0-0.7,0c-0.2,0-0.3-0.1-0.5-0.1c-0.1,0-0.2-0.1-0.2-0.2
		c-0.1-0.1-0.1-0.1-0.1-0.2V87.6c0-0.1,0-0.2,0.1-0.2c0-0.1,0.1-0.1,0.2-0.2s0.2-0.1,0.4-0.1s0.4,0,0.6,0c0.3,0,0.5,0,0.6,0
		c0.2,0,0.3,0.1,0.4,0.1c0.1,0,0.1,0.1,0.2,0.2s0.1,0.1,0.1,0.2v1.2c0.6-0.6,1.2-1.1,1.8-1.4s1.2-0.5,1.9-0.5c0.7,0,1.3,0.1,1.8,0.3
		c0.5,0.2,0.9,0.6,1.2,1s0.5,0.9,0.6,1.4c0.1,0.5,0.2,1.2,0.2,1.9L459.4,98.1L459.4,98.1z"/>
	<path class="st3" d="M468.3,97c0,0.3,0,0.6-0.1,0.8c0,0.2-0.1,0.3-0.2,0.4c-0.1,0.1-0.2,0.1-0.3,0.2c-0.1,0.1-0.3,0.1-0.5,0.2
		s-0.4,0.1-0.6,0.1s-0.4,0-0.6,0c-0.6,0-1.1-0.1-1.5-0.2c-0.4-0.2-0.8-0.4-1.1-0.7c-0.3-0.3-0.5-0.7-0.6-1.2c-0.1-0.5-0.2-1-0.2-1.7
		v-5.4h-1.3c-0.1,0-0.3-0.1-0.3-0.3c-0.1-0.2-0.1-0.5-0.1-0.9c0-0.2,0-0.4,0-0.6c0-0.2,0-0.3,0.1-0.4c0-0.1,0.1-0.2,0.1-0.2
		s0.1-0.1,0.2-0.1h1.2v-2.3c0-0.1,0-0.2,0.1-0.2c0-0.1,0.1-0.1,0.2-0.2c0.1,0,0.3-0.1,0.5-0.1s0.4,0,0.7,0c0.3,0,0.5,0,0.7,0
		s0.3,0.1,0.5,0.1c0.1,0,0.2,0.1,0.2,0.2c0,0.1,0.1,0.1,0.1,0.2v2.3h2.3c0.1,0,0.1,0,0.2,0.1c0.1,0,0.1,0.1,0.1,0.2
		c0,0.1,0.1,0.2,0.1,0.4s0,0.3,0,0.6c0,0.4,0,0.7-0.1,0.9c-0.1,0.2-0.2,0.3-0.3,0.3h-2.3v4.9c0,0.6,0.1,1,0.3,1.3
		c0.2,0.3,0.5,0.4,1,0.4c0.2,0,0.3,0,0.4,0s0.2-0.1,0.3-0.1s0.2-0.1,0.3-0.1s0.1,0,0.2,0s0.1,0,0.1,0s0.1,0.1,0.1,0.2
		c0,0.1,0,0.2,0.1,0.3C468.3,96.6,468.3,96.8,468.3,97z"/>
	<path class="st3" d="M480.8,92.7c0,0.9-0.1,1.7-0.4,2.4s-0.6,1.4-1.1,1.9s-1.1,0.9-1.8,1.2c-0.7,0.3-1.6,0.4-2.5,0.4
		c-0.9,0-1.7-0.1-2.4-0.4c-0.7-0.3-1.3-0.6-1.7-1.1s-0.8-1.1-1-1.8s-0.3-1.5-0.3-2.5c0-0.9,0.1-1.7,0.4-2.4c0.2-0.7,0.6-1.4,1.1-1.9
		s1.1-0.9,1.8-1.2c0.7-0.3,1.5-0.4,2.5-0.4c0.9,0,1.8,0.1,2.4,0.4s1.3,0.6,1.7,1.1s0.8,1.1,1,1.8S480.8,91.8,480.8,92.7z
		 M477.7,92.8c0-0.5,0-1-0.1-1.4c-0.1-0.4-0.2-0.8-0.4-1.1c-0.2-0.3-0.5-0.6-0.8-0.8c-0.3-0.2-0.7-0.3-1.2-0.3
		c-0.4,0-0.8,0.1-1.1,0.2s-0.6,0.4-0.8,0.7s-0.4,0.7-0.5,1.1s-0.2,0.9-0.2,1.5c0,0.5,0,1,0.1,1.4c0.1,0.4,0.2,0.8,0.4,1.1
		c0.2,0.3,0.5,0.6,0.8,0.7c0.3,0.2,0.7,0.3,1.2,0.3c0.5,0,0.8-0.1,1.2-0.2c0.3-0.2,0.6-0.4,0.8-0.7s0.4-0.7,0.5-1.1
		S477.7,93.4,477.7,92.8z"/>
</g>
</svg>
