<?xml version="1.0" encoding="utf-8"?>
<!-- Generator: Adobe Illustrator 24.3.0, SVG Export Plug-In . SVG Version: 6.00 Build 0)  -->
<svg version="1.1" id="Camada_1" xmlns="http://www.w3.org/2000/svg" xmlns:xlink="http://www.w3.org/1999/xlink" x="0px" y="0px"
	 viewBox="0 0 475.4 595.3" style="enable-background:new 0 0 475.4 595.3;" xml:space="preserve">
<style type="text/css">
	.st0{fill:#E4F1ED;}
	.st1{fill:#1B3055;}
	.st2{fill:#AA5551;}
	.st3{fill:#853F38;}
	.st4{fill:#241A25;}
	.st5{fill:#F7AD5A;}
	.st6{fill:#E7913C;}
	.st7{fill:#362836;}
	.st8{fill:#180908;}
	.st9{fill:#9D3A2D;}
	.st10{fill:#EF806D;}
	.st11{fill:#FFFFFF;}
	.st12{fill:#F5A252;}
	.st13{fill:#F2913B;}
	.st14{fill:#B9B9B9;}
	.st15{fill:#E3E4E3;}
	.st16{fill:#3BB18A;}
	.st17{fill:#9F4F4B;}
	.st18{fill:#21AC80;}
	.st19{fill:#9E504E;}
	.st20{fill:#D88774;}
	.st21{fill:#E4EBF0;}
	.st22{clip-path:url(#SVGID_3_);}
	.st23{fill:#A6DBF7;}
	.st24{fill:none;stroke:#FFFFFF;stroke-width:0.5;stroke-miterlimit:10;}
	.st25{fill:#F9BD6D;}
	.st26{fill:none;stroke:#E4EBF0;stroke-width:0.25;stroke-miterlimit:10;}
	.st27{fill:none;stroke:#058360;stroke-width:4;stroke-miterlimit:10;}
	.st28{fill:#1FAB80;}
	.st29{fill:#E84B4D;}
	.st30{fill:#D8D8D8;}
	.st31{fill:#FCCE8C;}
	.st32{fill:#E4EAF0;}
	.st33{fill:#B8C0C7;}
	.st34{fill:#704E43;}
	.st35{fill:#FFFFFF;stroke:#E4EBF0;stroke-width:0.25;stroke-miterlimit:10;}
	.st36{fill:#128260;}
	.st37{fill:#0D8260;}
	.st38{fill:#727D82;}
	.st39{fill:#3DB18A;}
</style>
<path class="st0" d="M5.2,480.9c-16.4-124.6,201.1-34.4,278-221.2c47.9-116.2,233.1,108.6,177.2,221.2
	C380.8,641.5,12,532.6,5.2,480.9z"/>
<path class="st1" d="M208.8,545.6c0,0-6.8,13.7-9,29.6c-2.1,15.9,48.5,16.8,48.5,16.8s98.2-0.5,77.4-38.4S300.2,520,300.2,520
	L208.8,545.6z"/>
<path class="st2" d="M319.3,476c0,0,32.6-66.6,42.3-86.3c9.7-19.7,16.7-0.7,16.7-0.7S342.9,516.4,326,496.7
	C315.3,484.3,319.3,476,319.3,476z"/>
<path class="st2" d="M319.9,430.6c0,0,14.9,36.9,16.3,41.1s2.6,24.1-5.5,26.9c-15.9,5.5-29.7-39.4-35.9-66.7
	S319.9,430.6,319.9,430.6z"/>
<path class="st3" d="M302.1,426.2c-0.6-2.6-0.8-4.8-0.8-6.5c-5.1-1-8.5,1.4-6.1,12.3c6.2,27.3,20.1,72.1,35.9,66.7
	c2.2-0.8,3.7-2.8,4.7-5.4C320.9,494.2,308,452.2,302.1,426.2z"/>
<path class="st2" d="M169.9,449.5c0,0,12.7,44.3,14.4,49.3c1.6,4.9,3,27.7-6.3,30.9c-18.2,6.3-34.1-45.2-41.2-76.5
	C129.6,421.8,169.9,449.5,169.9,449.5z"/>
<path class="st4" d="M165.7,243.3c0.4-1.5,14.4-13.5,4.4-19.7c0,0,11.3-20.8-2-27.5c-13.3-6.7-22.3,5.9-22.3,5.9s2.8-13.2-2.7-15
	c-5.5-1.8-5.3,14.9-5.3,14.9s-13.2-19.2-30.8-7.9c-17.6,11.2,1,29.5,1,29.5s-12.7-12.3-17.1-8.4c-4.4,3.9,11.9,15.8,11.9,15.8
	s-14.5-6.2-16.4,0c-1.8,6.1,15.6,7.4,15.6,7.4s-13.1-0.1-14.7,7.5c-1.6,7.6,14.4,9.1,14.4,9.1s-14.6,12-2.4,27.5
	c12.2,15.5,24.9-4.3,24.9-4.3s-5.7,16.9-0.2,19.3c5.5,2.4,9.5-22.1,9.5-22.1s7.7,11.7,12.4,7.5s-4.2-16-4.2-16L165.7,243.3z"/>
<path class="st5" d="M187.2,241.5c0,0-22.2-3.9-27.8-2.1c-11.5,3.5-19.7,22.1-16.6,30.6s23.2,20.9,23.2,20.9L187.2,241.5z"/>
<path class="st6" d="M143.6,257.7c-1.5,4.6-1.9,9.1-0.8,12.3c3.1,8.5,23.2,20.9,23.2,20.9l8.9-20.7
	C163.4,268.9,152.7,265.3,143.6,257.7z"/>
<g>
	<g>
		<g>
			<g>
				<path class="st2" d="M261.3,453.9c-21.9,5.1-99.9-17.5-121.9-12.8c-2.7-14.4-2.9-27.1,3.2-31.7c16.9-13,61.4,2.1,58-36.3
					c-3.5-39.9-5.3-49.3-5.3-49.3l47.4,28.2c0,0-9.1,14.7,1.8,34.5c10,18,39.7-8.1,52.8,13.8C267.3,410.8,292.4,446.6,261.3,453.9z"
					/>
				<path class="st3" d="M242.5,382.3c-19,3.6-36.9-5.9-43.1-23c-2.7-28.3-4.1-35.4-4.1-35.4l47.4,28.2
					C242.7,352,234.9,364.7,242.5,382.3z"/>
			</g>
		</g>
		<path class="st2" d="M224.8,254.6c0,0,40.6-10.6,50.1,35.3c9.5,45.8-1.4,80.6-28.3,85.2c-30.5,5.3-53.5-19.3-58.5-56.5
			C184.6,292.8,182.8,258.1,224.8,254.6z"/>
	</g>
	<g>
		<g>
			<g>
				<path class="st7" d="M178,319.9c0,0,12.5-13.3,18.1,14.8c0,0,10.5-11.6-1.2-23.8c0,0,20-11.2,9.7-36.6c0,0,42.2-26.6,60.9-6.6
					c0,0-31-50.5-80.6-25.8C144.1,262.2,178,319.9,178,319.9z"/>
			</g>
		</g>
		<g>
			<g>
				<path class="st4" d="M172,252.1c5.6,17.9,18,36.1,34.5,43.3c-3,10.6-11.7,15.5-11.7,15.5c11.7,12.2,1.2,23.8,1.2,23.8
					c-5.5-28-18.1-14.8-18.1-14.8S152.7,277,172,252.1z"/>
			</g>
		</g>
	</g>
</g>
<g>
	<path class="st3" d="M252,300.8c0.8,2.2,1.7,4.4,2.5,6.5c0.8,2.2,1.7,4.3,2.7,6.4c0.9,2.1,1.9,4.2,3.1,6.1c0.6,1,1.2,1.9,1.9,2.8
		c0.7,0.8,1.5,1.6,2.4,2l1,0.4l-0.7,0.7c-1.4,1.3-2.8,2.4-4.3,3.5c-0.8,0.5-1.6,1-2.4,1.4c-0.8,0.4-1.7,0.8-2.6,1
		c0.8-0.4,1.6-0.8,2.3-1.4c0.7-0.5,1.4-1.1,2.1-1.7c1.4-1.2,2.7-2.4,3.9-3.7l0.3,1.1c-1.3-0.4-2.3-1.3-3.1-2.2
		c-0.8-0.9-1.5-1.9-2.1-2.9c-1.2-2-2.2-4.2-3.1-6.4c-0.9-2.2-1.6-4.4-2.3-6.7C252.9,305.4,252.4,303.1,252,300.8z"/>
</g>
<g>
	<path class="st2" d="M201.1,344.4c0,0-9.7-6.8-9-22.8c0,0-11.2-14.1-15.5-1.7C171.5,334,189.6,358.5,201.1,344.4z"/>
	<g>
		<path class="st3" d="M193.2,344.9c-0.9-0.4-1.7-0.9-2.6-1.4c-0.8-0.5-1.6-1.2-2.3-2c-0.6-0.8-1.2-1.8-1.2-3c0.1-1.2,1-2.2,1.8-2.8
			l-0.3,0.6c-0.3-2.5-0.7-5-1.1-7.5c-0.5-2.4-1-5-2.1-7c-0.3-0.5-0.6-0.9-0.9-1.1c-0.2-0.1-0.3-0.1-0.5-0.1c0,0-0.1,0-0.1,0
			l-0.2,0.1l-0.4,0.1c-1.1,0.4-2.1,1.1-2.8,2c-0.7,0.9-1.1,2.1-1.1,3.3c0,1.2,0.3,2.5,0.8,3.6c-0.8-1-1.3-2.3-1.5-3.6
			c-0.2-1.3,0.1-2.8,0.8-4c0.8-1.2,1.9-2.1,3.2-2.7l0.5-0.2c0.2-0.1,0.3-0.1,0.6-0.2c0.5-0.1,1,0,1.4,0.2c0.8,0.4,1.3,1.1,1.7,1.7
			c0.7,1.2,1.2,2.5,1.5,3.8c0.4,1.3,0.6,2.5,0.8,3.8c0.5,2.6,0.7,5.1,0.8,7.7l0,0.4l-0.3,0.2c-0.7,0.5-1.3,1.1-1.4,1.8
			c-0.1,0.7,0.2,1.6,0.7,2.3c0.5,0.8,1.1,1.5,1.8,2.1C191.6,343.8,192.4,344.4,193.2,344.9z"/>
	</g>
</g>
<ellipse transform="matrix(0.9654 -0.2608 0.2608 0.9654 -71.371 72.063)" class="st8" cx="235.9" cy="305" rx="3.3" ry="5.1"/>
<path class="st8" d="M267.8,297.2c0.7,2.7-0.1,5.3-1.8,5.8s-3.8-1.4-4.5-4.1s0.1-5.3,1.8-5.8C265.1,292.7,267.1,294.5,267.8,297.2z"
	/>
<g>
	<path d="M221.9,305.3c-0.5-2.2-0.5-4.4-0.2-6.6c0.3-2.2,1.1-4.5,2.5-6.4c1.4-1.9,3.3-3.5,5.6-4.1c2.3-0.6,4.6-0.7,6.8-0.1v0.2
		c-2.2,0.5-4.3,1-6.1,1.8c-1.9,0.8-3.7,1.7-5,3.3c-1.3,1.5-2.2,3.5-2.7,5.6c-0.5,2.1-0.7,4.3-0.6,6.4L221.9,305.3z"/>
</g>
<g>
	<path d="M271,288.6c-0.9-1.6-2-3-3.3-4.2c-1.3-1.2-2.8-2.2-4.4-2.6c-1.6-0.5-3.3-0.3-4.9,0l-0.6,0.1c-0.2,0-0.4,0.1-0.6,0.2
		c-0.4,0.1-0.8,0.2-1.3,0.3c-0.8,0.3-1.7,0.6-2.6,0.8l-0.1-0.2c0.7-0.7,1.4-1.3,2.2-1.9c0.4-0.3,0.8-0.5,1.3-0.7
		c0.2-0.1,0.4-0.2,0.7-0.3l0.7-0.2c0.5-0.1,1-0.3,1.5-0.3c0.5,0,1,0,1.5,0s1,0.2,1.5,0.3c0.5,0.1,1,0.3,1.4,0.5
		c1.8,0.8,3.3,2,4.6,3.5c1.2,1.5,2.1,3.1,2.7,4.8L271,288.6z"/>
</g>
<path class="st9" d="M262.3,342.5c11.6-2.9,0.2,18.9-11.6,18.1s-18.8-8.7-20.9-19.5c-0.8-4.5,3.3-2.5,3.3-2.5
	S251.7,345.2,262.3,342.5z"/>
<path class="st10" d="M246.9,351.6c-4.5-0.4-8.6,0.1-11.9,1.3c3.6,4.4,8.8,7.2,15.6,7.6c3.6,0.3,7.2-1.6,10-4.2
	C257.6,353.9,252.7,352.1,246.9,351.6z"/>
<path class="st11" d="M260.3,342.9c-10.8,1.5-27.3-4.3-27.3-4.3s-0.1,0-0.2-0.1c-0.3,1.4-0.7,3.7,0.5,4.5c1.3,1,10.6,4.2,24,4.7
	c1.1,0,2.1-0.8,2.3-1.9C259.7,344.8,260,343.8,260.3,342.9z"/>
<path class="st5" d="M141,472.7l34-5.7l13.4,48.7l19.8,35c0,0,110.5,14.2,98-46.6c-0.2-1.2-13.8-61.4-12.2-61.9
	c10-3.4,26.8-9.5,26.8-9.5s-7.7-37.3-17.9-39.7s-32.8-4.3-32.8-4.3s-6.4,29.8-40.7,36.2s-55.1-27.1-55.1-27.1S110.6,393.4,141,472.7
	z"/>
<path class="st13" d="M205.2,499.8c-0.8-6.9-12.2,6.8-18.9,8.5l2,7.5l19.8,35c0,0,52.6,6.8,81.1-9
	C289.3,541.7,213.4,566.8,205.2,499.8z"/>
<path class="st13" d="M157,470.1l-16,2.7c-15.2-39.8-6.8-58.5,5.3-67.2C122.4,433.2,157,470.1,157,470.1z"/>
<path class="st2" d="M172.7,499.4c0,0,69.7-23.7,90.1-31.8c20.4-8.2,13,6.4,13,6.4s-105.2,81.4-109.3,48.6
	C164.5,506.3,172.7,499.4,172.7,499.4z"/>
<path class="st11" d="M290.2,468.6c1.2,0.1,2.3,0.3,3.3,0.5l33.7-29.1l-13.2-9l-10.4,2.1l-39.8,31.6l9.7,9.3
	C278.1,470.2,284.2,468.1,290.2,468.6z"/>
<polygon class="st14" points="260.2,460.7 307.7,426.3 310.6,433 263.4,465.9 "/>
<polygon class="st15" points="310.6,433 327.2,440.1 326,434.3 307.7,426.3 "/>
<path class="st2" d="M262.1,467.8c0,0,8.5-10.2,10.2-23.1c1.7-12.6,7.3-16.4,7.1,1.6c-0.2,14.9,31.7-8.7,35.4-12.3
	c4.3-4.1,6-0.7,2.3,4.5s-12.4,12.2-12.4,12.2s11.6-1.9,13.3-2.8c1.8-0.9-5,11.8-8.7,20.2c-0.9,2.1-2.8,3.6-5,4.1l-11.5,2.5
	c0,0-6.4,0.3-14.2,0.9c-7.1,0.5-10.7,5.9-14.2-1S262.1,467.8,262.1,467.8z"/>
<path class="st3" d="M303.8,457.2c0,0,11.1-2.8,13-5.2l-1.2,2.9C315.7,454.9,311.1,456,303.8,457.2z"/>
<path class="st3" d="M312.3,461.7c-3.6,2.2-8.6,4.3-8.6,4.3c3-0.5,5.8-1.4,7.8-2.4C311.6,463,312.2,462.3,312.3,461.7z"/>
<path class="st3" d="M149.3,471.3l-7.7,1.3c8.3,29.3,21.3,59.2,36.8,57.6c3.2-0.3,8.9-1.3,13.4-3.7
	C168.1,527,156.8,496.7,149.3,471.3z"/>
<g>
	<g>
		<g>
			<g>
				<path class="st13" d="M135.4,420.6c-0.1,0.8-0.3,1.6-0.7,2.6l5.9,3.9l1.4-2.1L135.4,420.6z"/>
			</g>
		</g>
		<g>
			<g>
				<path class="st13" d="M138.1,439.7l-4,6.1c0.3,1.2,0.6,2.3,0.7,3.5l4-6.1l6.7,4.4l1.4-2.1L138.1,439.7z"/>
			</g>
		</g>
		<g>
			<g>
				<path class="st13" d="M142.9,460.3l-3.9,6c0.4,1,0.8,2,1,3l3.6-5.5l6.7,4.4l1.4-2.1L142.9,460.3z"/>
			</g>
		</g>
	</g>
	<g>
		<g>
			<g>
				<polygon class="st13" points="163.4,420 161.3,418.6 167.3,409.5 176.1,415.2 174.7,417.4 168,413 				"/>
			</g>
		</g>
		<g>
			<g>
				<polygon class="st13" points="168.2,440.6 166.1,439.2 172.1,430.1 180.9,435.8 179.5,437.9 172.9,433.5 				"/>
			</g>
		</g>
		<g>
			<g>
				<polygon class="st13" points="173,461.1 170.9,459.8 176.9,450.6 185.7,456.4 184.3,458.5 177.7,454.1 				"/>
			</g>
		</g>
		<g>
			<g>
				<path class="st13" d="M181.8,471.2l-3.9,6c0.3,0.6,0.5,1.2,0.6,1.9c0.2,0.4,0.3,0.8,0.4,1.2l3.6-5.5l6.7,4.4l1.4-2.1
					L181.8,471.2z"/>
			</g>
		</g>
		<g>
			<g>
				<path class="st13" d="M186.8,494.3c0.1,0,0.1,0,0.2,0c0.2,0,0.4-0.1,0.5-0.1c0.2-0.1,0.4-0.1,0.6-0.2c0.4-0.2,0.8-0.3,1.2-0.4
					l-2.7-1.8l-2.2,3.4c0.5-0.2,1.1-0.4,1.6-0.6C186.2,494.5,186.5,494.4,186.8,494.3z"/>
			</g>
		</g>
	</g>
	<g>
		<g>
			<g>
				<path class="st13" d="M204.3,423.3l-4.1,6.2l2.1,1.4l4.4-6.8C205.9,423.9,205.1,423.6,204.3,423.3z"/>
				<path class="st13" d="M207.7,424.4l5.9,3.9l1.4-2.1l-1.8-1.2C211.3,425,209.5,424.8,207.7,424.4z"/>
			</g>
		</g>
		<g>
			<g>
				<polygon class="st13" points="207.1,451.5 205,450.1 211,441 219.8,446.7 218.4,448.8 211.7,444.4 				"/>
			</g>
		</g>
		<g>
			<g>
				<polygon class="st13" points="211.9,472 209.8,470.7 215.8,461.5 224.6,467.3 223.2,469.4 216.5,465 				"/>
			</g>
		</g>
		<g>
			<g>
				<path class="st13" d="M228.1,507.4l4.7,3.1l1.4-2.1l-4.1-2.7C229.5,506.4,228.8,506.9,228.1,507.4z"/>
				<path class="st13" d="M219.8,512l1.8,1.2l2.2-3.4c-0.3,0.1-0.6,0.2-1,0.3C221.8,510.9,220.8,511.5,219.8,512z"/>
			</g>
		</g>
		<g>
			<g>
				<polygon class="st13" points="226.3,533.8 224.2,532.4 230.2,523.2 239,529 237.6,531.1 231,526.7 				"/>
			</g>
		</g>
		<g>
			<g>
				<path class="st13" d="M235.1,543.8l-5.3,8.1c0.6-0.1,1.3-0.1,1.9-0.1c0.4,0,0.7,0,1.1,0.1l3-4.6l6.7,4.4l1.4-2.1L235.1,543.8z"
					/>
			</g>
		</g>
	</g>
	<g>
		<g>
			<g>
				<polygon class="st13" points="241.1,441.8 239,440.4 245,431.3 253.8,437.1 252.4,439.2 245.7,434.8 				"/>
			</g>
		</g>
		<g>
			<g>
				<polygon class="st13" points="245.9,462.4 243.8,461 249.8,451.9 258.6,457.6 257.2,459.7 250.6,455.3 				"/>
			</g>
		</g>
		<g>
			<g>
				<polygon class="st13" points="255.6,503.5 253.5,502.1 259.5,493 268.2,498.8 266.8,500.9 260.2,496.5 				"/>
			</g>
		</g>
		<g>
			<g>
				<polygon class="st13" points="260.4,524.1 258.3,522.7 264.3,513.6 273,519.3 271.7,521.4 265,517.1 				"/>
			</g>
		</g>
		<g>
			<g>
				<polygon class="st13" points="265.2,544.7 263.1,543.3 269.1,534.1 277.9,539.9 276.5,542 269.8,537.6 				"/>
			</g>
		</g>
	</g>
	<g>
		<g>
			<g>
				<polygon class="st13" points="270.3,411.6 268.2,410.2 274.2,401 283,406.8 281.6,408.9 275,404.5 				"/>
			</g>
		</g>
		<g>
			<g>
				<polygon class="st13" points="275.1,432.1 273,430.8 279.1,421.6 287.8,427.4 286.4,429.5 279.8,425.1 				"/>
			</g>
		</g>
		<g>
			<g>
				<polygon class="st13" points="289.6,493.9 287.5,492.5 293.5,483.3 302.3,489.1 300.9,491.2 294.2,486.8 				"/>
			</g>
		</g>
		<g>
			<g>
				<path class="st13" d="M305.7,508.8c0,0,0-0.1,0-0.1l-7.3-4.8l-6,9.1l2.1,1.4l4.6-7l6.7,4.4l0.6-1
					C306,510.2,305.8,509.6,305.7,508.8z"/>
			</g>
		</g>
		<g>
			<g>
				<path class="st13" d="M300.1,533.5C300.1,533.5,300.1,533.5,300.1,533.5c0.4-0.6,0.7-1.2,1-1.8c0.3-0.5,0.7-0.9,1.1-1.3l1.2-1.8
					c0.1-0.3,0.2-0.7,0.5-1.2c0.3-0.7,0.7-1.2,1.2-1.7l-1.9-1.3l-6,9.1l1.7,1.1C299.2,534.3,299.6,533.9,300.1,533.5z"/>
			</g>
		</g>
	</g>
	<g>
		<g>
			<g>
				<path class="st13" d="M305.7,395.3l-3.4,5.2l2.1,1.4l3.2-4.9C306.7,396.6,306.1,396,305.7,395.3z"/>
			</g>
		</g>
		<g>
			<g>
				<path class="st13" d="M315,413.2l-1.9-1.3l-6,9.1l2.1,1.4l4.6-7l2.4,1.6C315.7,415.8,315.3,414.5,315,413.2z"/>
			</g>
		</g>
	</g>
</g>
<path class="st2" d="M364,387.6c0,0,2.2-7.6,3.8-17.2c1.5-9.6,2.2-11.7-1-18.1c-3.2-6.4,5.7-5,9.2,4.2l1,6l23.8-28.3
	c0,0,2.7-2.5,3.8-0.3c1.2,2.2-12.7,22-12.7,22s14.7,13,8.1,20.6c-6.6,7.6-21.3,19.9-26.5,17.3C368.2,391.1,364,387.6,364,387.6z"/>
<g>
	<g>
		<path class="st16" d="M388.4,339.7C388.4,339.7,388.3,339.7,388.4,339.7c-0.4-0.1-0.6-0.4-0.5-0.7l3.8-13.6
			c0.1-0.3,0.4-0.5,0.7-0.4c0.3,0.1,0.5,0.4,0.4,0.7l-3.8,13.6C388.9,339.5,388.6,339.7,388.4,339.7z"/>
	</g>
</g>
<g>
	<g>
		<path class="st16" d="M381.8,339.8c-0.2,0-0.5-0.2-0.5-0.4l-2.8-13.8c-0.1-0.3,0.1-0.6,0.4-0.6s0.6,0.1,0.7,0.4l2.8,13.8
			c0.1,0.3-0.1,0.6-0.4,0.6C381.9,339.8,381.9,339.8,381.8,339.8z"/>
	</g>
</g>
<g>
	<g>
		<path class="st16" d="M376,343.6c-0.1,0-0.3-0.1-0.4-0.2l-9.1-10.8c-0.2-0.2-0.2-0.6,0.1-0.8c0.2-0.2,0.6-0.2,0.8,0.1l9.1,10.8
			c0.2,0.2,0.2,0.6-0.1,0.8C376.3,343.6,376.2,343.6,376,343.6z"/>
	</g>
</g>
<path class="st17" d="M392.5,356.1c0.4-0.2,0.9-0.2,1.3,0.1c1.4,0.9,4.3,3.2,2.7,5c-2,2.3-14.4,10.7-17.4,10.4
	C376.3,371.2,381.1,362.1,392.5,356.1z"/>
<path class="st17" d="M396.7,360.9c0,0,4.8,2.5,1.9,5.2c-1.9,1.8-11.5,8.3-14.1,8.1C382,373.9,386.4,366.2,396.7,360.9z"/>
<path class="st17" d="M399.6,365.1c0,0,4.2,4.8,2.5,6.7s-11.1,6.9-13.6,6.5C386,378,389.4,369.9,399.6,365.1z"/>
<path class="st0" d="M9,48.2c26-7.3,53.4-9.3,80.4-6.7c27,2.9,53.6,10.7,77.8,23.3c12.2,6.2,23.8,13.5,34.7,21.9
	c10.9,8.4,20.9,17.9,29.6,28.5c17.5,21.1,30.7,45.8,37.5,72l-0.8,0.3c-5.8-12.2-12.1-23.9-19.3-35.1c-0.9-1.4-1.8-2.8-2.8-4.1
	l-2.8-4.1l-2.9-4c-1-1.3-1.9-2.7-3-4l-3-3.9c-1-1.3-2.1-2.6-3.1-3.8c-1.1-1.3-2.1-2.6-3.2-3.8l-3.3-3.7
	c-8.8-9.8-18.3-18.9-28.4-27.4c-5-4.3-10.3-8.2-15.7-12c-5.5-3.7-11-7.3-16.8-10.4c-23.1-13-48.7-21.4-75-25.1
	c-3.3-0.4-6.6-0.8-9.9-1.2l-5-0.4c-1.7-0.2-3.3-0.3-5-0.3c-3.3-0.1-6.7-0.3-10-0.3s-6.7,0-10,0.2C35.6,44.4,22.3,46.1,9.2,49L9,48.2
	z"/>
</svg>
