<?xml version="1.0" encoding="utf-8"?>
<!-- Generator: Adobe Illustrator 24.3.0, SVG Export Plug-In . SVG Version: 6.00 Build 0)  -->
<svg version="1.1" id="Camada_1" xmlns="http://www.w3.org/2000/svg" xmlns:xlink="http://www.w3.org/1999/xlink" x="0px" y="0px"
	 viewBox="0 0 588 463.1" style="enable-background:new 0 0 588 463.1;" xml:space="preserve">
<style type="text/css">
	.st0{fill:#404040;}
	.st1{fill:#128260;stroke:#F9BE6D;stroke-width:3;stroke-miterlimit:10;}
	.st2{fill:#106449;}
	.st3{fill:#E4EBF0;}
	.st4{fill:#FCCE8C;}
	.st5{fill:#7F5018;}
	.st6{fill:#21AC80;}
	.st7{fill:#FABE6D;}
	.st8{fill:#E84B4D;}
	.st9{fill:none;stroke:#D9D9D9;stroke-width:2;stroke-miterlimit:10;}
	.st10{fill:#B9C2C8;}
	.st11{fill:#704E43;}
	.st12{fill:#3BB18A;}
	.st13{fill:#727D82;}
	.st14{fill:#FFFFFF;}
	.st15{fill:#F6C3AC;}
	.st16{fill:#EA6F42;}
	.st17{fill:#DB9880;}
	.st18{fill:#ED8045;}
	.st19{fill:#AD5E4E;}
	.st20{fill:#9B4E41;}
	.st21{fill:#372736;}
	.st22{fill:#F5B12D;}
	.st23{fill:#A66B23;}
	.st24{fill:#F6BFA3;}
	.st25{fill:#F8B134;}
	.st26{fill:#E29F81;}
	.st27{fill:#44261B;}
	.st28{fill:#250D09;}
	.st29{fill:#128260;}
	.st30{fill:#DDF2EC;}
	.st31{fill:#148260;}
	.st32{fill:#FF4848;}
	.st33{fill:#FFCF8C;}
	.st34{fill:#D9D9D9;}
	.st35{fill:#B9C3C9;}
	.st36{fill:#E5ECF0;}
	.st37{fill:#1CAE81;}
	.st38{fill:#727D83;}
	.st39{fill:none;}
	.st40{fill:#2CBA8D;}
</style>
<g>
	<g>
		<g>
			<g>
				<path class="st0" d="M88.6,410.7c0-2.7,6.6-4.7,14.8-4.7s14.8,2.1,14.8,4.7v1c0,0.6,0.6,1,1,0.6l5.7-2.7c0.3-0.3,0.3-0.9-0.1-1
					l-20.6-8.1c-0.6-0.3-1.1-0.3-1.7,0l-20.8,8.1c-0.4,0.2-0.4,0.8-0.1,1l5.7,2.7c0.5,0.3,1,0,1-0.6L88.6,410.7L88.6,410.7z"/>
			</g>
			<g>
				<g>
					<path class="st0" d="M103.4,407.4c-7.3,0-13.3,1.8-13.3,4.2v8.1c0,2.4,5.9,4.2,13.3,4.2s13.3-1.8,13.3-4.2v-8.1
						C116.5,409.3,110.8,407.4,103.4,407.4z M103.4,423.2c-6.5,0-11.8-1.7-11.8-3.8s5.3-3.8,11.8-3.8s11.8,1.7,11.8,3.8
						S109.9,423.2,103.4,423.2z"/>
				</g>
			</g>
			<rect x="119.1" y="411.9" class="st0" width="1" height="7.7"/>
			<rect x="117.9" y="419.3" class="st0" width="3.1" height="1"/>
			<rect x="119.2" y="418.4" class="st0" width="0.5" height="3.1"/>
			<path class="st0" d="M119.1,419.9l-1,1l0.4,0.4l1-1C119.4,420.1,119.2,419.9,119.1,419.9z"/>
			<path class="st0" d="M119.5,420.2l1,1l0.4-0.4l-1-1C119.8,419.9,119.7,420.1,119.5,420.2z"/>
		</g>
	</g>
	<g>
		<path class="st0" d="M163,406.5c-2.6-4.3-8.1-3.1-8.7-2.7c-0.7,0.3-1.7,0.4-1.7,0.4s-1-0.1-1.7-0.4s-6.2-1.4-8.7,2.7
			c-2.6,4.3-0.9,10.5,2.4,13.8s5.9,3.1,8.1,2.7c2.2,0.4,5,0.8,8.1-2.7C163.8,417,165.6,410.7,163,406.5z"/>
		<path class="st0" d="M159.9,396.5L159.9,396.5c-6-1.6-5.5,4.5-5.5,4.5l0,0C154.5,401,160.3,402.9,159.9,396.5z"/>
		<path class="st0" d="M152.7,402.7c0,0,0.2-2.8-3.3-3.6c0,0-0.5-0.6,0-1.5S154,397.6,152.7,402.7L152.7,402.7z"/>
	</g>
</g>
<g>
	<rect x="113.8" y="208.6" class="st1" width="36.7" height="23.2"/>
	<g>
		<polygon class="st2" points="116.8,233.1 114.6,233.1 114.6,209.6 149.2,209.6 149.2,211.5 116.8,211.5 		"/>
	</g>
	<rect x="137.3" y="228.7" class="st3" width="8.1" height="1.1"/>
	<polygon class="st4" points="114.6,209.6 112.8,207.8 112.8,232 114.3,230.4 114.7,230.1 	"/>
	<path class="st5" d="M152.9,234h-41.5l0,0c0-2.4,1.8-4.2,4.2-4.2h33.2C150.9,229.9,152.9,231.7,152.9,234L152.9,234z"/>
</g>
<g>
	<rect x="190.1" y="208.6" class="st6" width="5.2" height="22.3"/>
	<rect x="182.3" y="216.2" class="st7" width="5.2" height="14.6"/>
	<rect x="174.5" y="224.6" class="st8" width="5.2" height="6.3"/>
	<polyline class="st9" points="171.7,207.1 171.7,233.4 199.2,233.4 	"/>
</g>
<g>
	<g>
		<path class="st7" d="M214.5,234.1L214.5,234.1c-0.9-0.9-0.9-2.1,0-2.9l8.6-8.6l2.9,2.9l-8.6,8.6
			C216.5,234.9,215.2,234.9,214.5,234.1z"/>
		<path class="st4" d="M215.2,232.5l8.9-8.9l-1-1l-8.9,8.9c-0.7,0.7-0.7,1.7,0,2.4l0.6,0.6c0.1,0.1,0.2,0.2,0.3,0.2
			C214.5,233.9,214.5,233.1,215.2,232.5z"/>
		
			<rect x="224.2" y="221.8" transform="matrix(0.7071 -0.7071 0.7071 0.7071 -91.8128 224.6817)" class="st3" width="2.3" height="2.8"/>
	</g>
	<g>
		<path class="st10" d="M232.4,224.9c-5.2,0-9.5-4.3-9.5-9.5s4.3-9.5,9.5-9.5s9.5,4.3,9.5,9.5C241.8,220.7,237.6,224.9,232.4,224.9z
			 M232.4,208.1c-4.1,0-7.5,3.3-7.5,7.5s3.3,7.5,7.5,7.5s7.5-3.3,7.5-7.5S236.5,208.1,232.4,208.1z"/>
	</g>
	<g>
		<path class="st10" d="M235.9,211.3c-1-1-2.3-1.3-3.5-1.3s-2.6,0.5-3.5,1.2l-0.4-0.4c1-1,2.5-1.4,3.8-1.4c1.4,0,2.8,0.6,3.9,1.4
			L235.9,211.3z"/>
	</g>
</g>
<path class="st11" d="M90.1,215.1l-5.5-1.6v-10.4c0-0.1,0.1-0.3,0.3-0.3H90c0.1,0,0.3,0.1,0.3,0.3C90.1,203,90.1,215.1,90.1,215.1z"
	/>
<path class="st11" d="M94.2,218.1L76.4,202l0,0l0,0l0,0l0,0l-17.9,16.1c-0.4,0.3-0.4,1-0.1,1.2l1.1,1.3c0.3,0.4,1,0.4,1.2,0.1
	l15.4-14l15.4,14c0.4,0.3,1,0.3,1.2-0.1l1.1-1.3C94.7,219.1,94.7,218.5,94.2,218.1z"/>
<path class="st4" d="M76.4,209.6l-13.8,12.1v11c0,0.5,0.4,1,1,1h10v-8.2c0-0.6,0.5-1,1-1H78c0.6,0,1,0.5,1,1v8.2h10c0.5,0,1-0.4,1-1
	v-11L76.4,209.6z"/>
<g>
	<rect x="23.2" y="197.7" class="st12" width="5.5" height="4.3"/>
	<rect x="21.7" y="197.7" class="st13" width="1.7" height="7.3"/>
	<path class="st7" d="M5.6,214.9l10.4-2.4v19.3H4.8v-16C4.8,215.4,5.2,215,5.6,214.9z"/>
	<path class="st7" d="M39.7,214.9l-10.4-2.4v19.3h11.3v-16C40.5,215.4,40.2,215,39.7,214.9z"/>
	<path class="st4" d="M30.1,231.8H15.3v-22.7c0-0.6,0.3-1,0.8-1.3l5.8-3.7c0.6-0.3,1.1-0.3,1.7,0l5.8,3.7c0.5,0.3,0.8,0.9,0.8,1.3
		C30.1,209.1,30.1,231.8,30.1,231.8z"/>
	<rect x="3.8" y="231.8" class="st11" width="37.7" height="1.7"/>
	<rect x="19.9" y="221.4" class="st11" width="5.4" height="10.3"/>
	<rect x="8" y="221.4" class="st11" width="4.7" height="4.7"/>
	<rect x="32.6" y="221.4" class="st11" width="4.7" height="4.7"/>
	<circle class="st14" cx="22.6" cy="213.2" r="3.4"/>
</g>
<g>
	<g>
		<path class="st15" d="M119.5,88.8l-6.6-3.6v-1.4h-5.6c0,0,0,1.4,0,1.5c-9.4,4.4-8.1,1.7-11.9,11.8l14,4.1
			c1.5-0.4,12.3-3.3,13.5-3.8C122.4,96.5,120.8,89,119.5,88.8z"/>
		<path class="st16" d="M120.2,57.4c0.1,5.8-9.2,5.8-9.1,0C111,51.5,120.2,51.5,120.2,57.4z"/>
		<path class="st17" d="M107.4,83.5v1c1,1.7,4.5,1.6,5.5-0.2v-1h-5.5V83.5z"/>
		<path class="st15" d="M119.4,74.5c0-4.1-1.1-7.9-2.2-11.8c-3.7-0.5-11.2-0.5-14.8,0c-1,3.9-2.2,7.7-2.2,11.8
			c0,1.1,4.7,9.9,9.5,10.4l0,0c0.1,0,0.2,0,0.3,0l0,0C114.7,84.7,119.4,75.8,119.4,74.5z"/>
		<path class="st18" d="M99.9,73.9c-8-20.1,26.9-26.7,19.5,1l-3-4.2c0,0-10.9-2-13.3-6.9c0,0-3.3,6.4-3.1,11.2"/>
		<path class="st3" d="M122.9,97.3l-2.5-7.6c-0.3-1-2.5-1.7-3.2-2.3c-4.6,8.8-10.4,8.5-15.1,0c-0.9,0.5-3.8,1.2-3.8,2.3
			c-0.1,0.2-2.9,7.2-2.9,7.2l14,4.1C111,100.7,121.8,97.7,122.9,97.3z"/>
	</g>
	<path class="st3" d="M120.8,94.3c-9.9,3.3-6.2,2.1-8.5,12.7c18.9,4.4,19.3,4.4,38.3,0c-2.4-10.6,1.4-9.5-8.5-12.7"/>
	<path class="st19" d="M127.4,89.7V92l-4.5,1.7c4.5,6.2,12.9,6.6,17.3-0.1l-3.4-1.6v-2.5h-9.5L127.4,89.7L127.4,89.7z"/>
	<path class="st20" d="M127.5,90.2v1.5c2,3,7.7,2.8,9.5-0.3v-1.5h-9.3L127.5,90.2z"/>
	<path class="st19" d="M140.2,66.6c-1.7-0.4-5.1-0.2-7.9,0v-0.3c-3.1-0.1-5.8-0.2-7.9,0.3c-1.1,4.4-2.7,8.6-2.4,13.3
		c2.3,7,5.2,12.4,10.2,12.4c5,0.2,9-6.3,10.2-13.3C142.9,74.6,141.3,70.6,140.2,66.6z"/>
	<path class="st21" d="M132.3,69.8c1.7,0,4.2-1.1,7.2-1s3.1,11.6,3.1,11.6c6.9-24.4-27.3-27-20.4,0c0,0,0.2-11.5,3.1-11.6
		C128.1,68.5,130.6,69.8,132.3,69.8"/>
	<path class="st10" d="M120.7,94l2.1-1c4.4,6.4,12.8,6.6,17.2,0l2.3,1C137.2,102.6,125.6,102.4,120.7,94z"/>
	<g>
		<g>
			<path class="st22" d="M27.9,74.5c0,0-0.6,12.6,2,15.4l1.9-0.9c0,0-2.5-8.5-1.7-11.6C31,74.5,27.9,74.5,27.9,74.5z"/>
			<path class="st23" d="M29.7,74.5c0,0-1,12.6,3.3,15.4l3.3-0.9c0,0-4.2-8.5-2.8-11.6C34.9,74.5,29.7,74.5,29.7,74.5z"/>
			<path class="st23" d="M45,92.8c0,0,6.2-13.3,1.1-18.5l-5-0.9c0,0,2.7,11.4-0.4,14.1C37.6,90.3,45,92.8,45,92.8z"/>
			<rect x="33.7" y="81.7" class="st24" width="8.8" height="7.3"/>
			<path class="st24" d="M28.4,75.2c0,0,3.8,10.4,9.4,10.4s10.1-7.4,10.1-13.7c0-6.3-6.4-11.9-6.4-11.9L35,60.5l-6,4.8l-0.7,4.5
				C28.4,69.8,28.4,75.2,28.4,75.2z"/>
			<path class="st24" d="M28.5,75.8c0,0-1.4-1.5-1.7-3.1c-0.3-1.5,0.8-2,1.2-1.4c0.7,0.6,1,3.8,1,4S28.5,75.8,28.5,75.8z"/>
			<path class="st25" d="M44.7,59.2c-8.4-4.5-11.8,0.3-11.8,0.3s-6.5,3.6-4.7,11.6v0.4l1.7-3.3c0,0,3.7,0.9,8.2,1l0.4-3.7l0.6,3.7
				c1.1,0,2.4-0.1,3.7-0.3l0.3-2.7l0.4,2.6c1-0.2,2-0.3,3-0.7c0,0-0.9,25.3-0.6,26.3c0.3,1,0.6,1.9,0.6,1.9s3.1,0.1,3.1-4
				C49.7,88.2,53.2,63.7,44.7,59.2z"/>
			<path class="st26" d="M42.5,83.5c-1.4,1.1-3.1,1.9-4.8,1.9c-1.4,0-2.8-0.8-4-1.8v1.9c1.1,1,2.6,1.8,4,1.8c1.7,0,3.3-0.8,4.8-1.9
				V83.5z"/>
			<path class="st24" d="M30.6,88.5L26,90.1c-0.4,0.2-0.8,0.5-0.9,1L24,98l12.5,2.6c1.1,0.3,2.5,0.3,3.7,0L52.6,98l-1.1-7
				c-0.1-0.4-0.4-0.9-0.9-1l-4.5-1.6"/>
			<path class="st3" d="M48.5,97.6c-0.3-2.6-0.1-7.5,0-8.3l-1.8-0.7c0,0,0,0-0.1,0c-0.7,0.6-8.1,9.6-8.1,9.6s-7.4-9-8.1-9.6
				c0,0,0,0-0.1,0l-1.7,0.6c0.1,1,0.3,5.8,0,8.3c-0.1,0.7,0.3,1.1,1,1.5l7.1,1.4c1.1,0.3,2.5,0.3,3.7,0l7.2-1.4
				C48.1,98.6,48.5,98.2,48.5,97.6z"/>
		</g>
		<g>
			<path class="st3" d="M49.6,94.6l-5.8,2.1c-0.6,0.2-1,0.7-1,1.1l-1.4,9.1l16.1,3.3c1.6,0.3,3.2,0.3,4.8,0l16.2-3.3l-1.4-9.1
				c-0.1-0.6-0.5-1-1-1.1l-5.8-2.1"/>
			<path class="st24" d="M56,90.2v2.2L51.6,94c0,0,3.8,4.8,8.5,4.8s8.2-4.9,8.2-4.9L65,92.3v-2.4h-9V90.2z"/>
			<path class="st26" d="M56,90.3v1.4c0,0,1.7,2.2,4.5,2.2s4.5-2.4,4.5-2.4v-1.4h-8.9L56,90.3z"/>
			<path class="st24" d="M60.7,67.7c-8.5-0.2-10.1-1.7-9.9,13.1c0.1,7.4,5.1,12.1,9.9,12.1c5,0,9.9-4.8,9.9-12.1
				C70.9,65.9,69.3,67.6,60.7,67.7z"/>
			<path class="st27" d="M60.8,71c1.6,0,4-1.1,6.8-1c2.8,0.1,3,11.2,3,11.2S74.3,74,73,67.6c0,0-1.1-3.3-4.7-3.5
				c0,0-2.3-2.8-7.6-2.8s-7.3,4.5-13.9,2.3c0,0-0.8,2.4,2.4,4.4c0,0-1,6.4,1.7,13.5c0,0,0.2-11.1,3-11.2C56.8,69.9,59.3,71,60.8,71"
				/>
			<path class="st10" d="M49.3,94.2l2-0.9c0,0,3.8,5.1,8.6,5.1s8.4-5.1,8.4-5.1l2.2,1c0,0-4,6.5-10.6,6.5S49.3,94.2,49.3,94.2z"/>
		</g>
	</g>
	<g>
		<g>
			<path class="st28" d="M181,55.6c-11.6-4.7-16.9,6.2-12.8,15c1.7,3.7,1.8,6.1,1.7,8.4c-0.2,2.4-0.3,4.9,3,5.4
				c0.5,0.1,1.4,1,2.1,1.7c1.1,1.1,3.8,0.3,3.8,0.3s1-2.1,2.4-5.1c1.3,3,2.4,5.1,2.4,5.1s2.7,1,3.8-0.3c0.7-0.7,1.6-1.6,2.1-1.7
				c3.2-0.4,3.1-3,3-5.4c-0.2-2.4,0-4.7,1.7-8.4C198,61.7,192.6,50.8,181,55.6z"/>
			<rect x="176.6" y="81.7" class="st19" width="8.8" height="7.3"/>
			<path class="st19" d="M191.2,71.9c0-1.7-0.5-3.3-1.1-4.9l-0.3-1.7l-1.3-1c-1.7-2.6-3.7-4.3-3.7-4.3l-3.8,0.3l-3.8-0.3
				c0,0-1.9,1.7-3.7,4.3l-1.3,1l-0.3,1.7c-0.8,1.5-1.1,3.1-1.1,4.9c0,6,4.2,13.2,9.5,13.8c0.3,0,0.5,0.1,0.8,0.1l0,0l0,0
				c0.3,0,0.5,0,0.8-0.1C187,85,191.2,77.9,191.2,71.9z"/>
			<path class="st20" d="M185.4,83.9c-1.4,1.1-3.1,1.9-4.8,1.9c-1.4,0-2.8-0.8-4-1.8v1.9c1.1,1,2.6,1.8,4,1.8c1.7,0,3.3-0.8,4.8-1.9
				V83.9z"/>
			<path class="st19" d="M173.4,88.5l-4.5,1.6c-0.4,0.2-0.8,0.5-0.9,1l-1.1,7l12.5,2.6c1.1,0.3,2.5,0.3,3.7,0l12.5-2.6l-1.1-7
				c-0.1-0.4-0.4-0.9-0.9-1l-4.5-1.6H173.4"/>
			<path class="st28" d="M180.3,64.9c0,0,2.2,4.2,8.8,6.1s0.8-11.7-7.2-12.1c-7.9-0.6-11.1,1.2-11.2,4.5c-0.1,3.2-0.3,6-0.3,6v1.7
				c0,0,2-2.2,2.3-2.7c0,0,0.2,1.1-1.1,2.1c-0.6,0.4,7.1-1.1,9-5.6"/>
			<path class="st3" d="M194.6,91c-0.1-0.4-0.4-0.9-0.9-1l-4.5-1.6h-1c-1,2.2-3.4,4.5-4.7,5.2c0.3,0.7,0.4,1.3,0.6,2.3
				c0.3,1.1,0.5,2.7,0.7,4.3l10.9-2.3L194.6,91z"/>
			<path class="st3" d="M168.8,90.1c-0.4,0.2-0.8,0.5-0.9,1l-1.1,7l10.9,2.3c0.2-1.6,0.4-3.1,0.7-4.3c0.1-0.3,0.2-0.6,0.2-0.9
				c0.2-0.6,0.3-1,0.4-1.4c-1.2-0.7-3.8-3.1-4.7-5.2h-1L168.8,90.1z"/>
		</g>
		<g>
			<path class="st24" d="M199.2,90.2v2.2l-4.4,1.6c0,0,3.8,4.8,8.5,4.8c4.8,0,8.2-4.9,8.2-4.9l-3.3-1.6v-2.4H199L199.2,90.2
				L199.2,90.2z"/>
			<path class="st3" d="M208.4,92.3l10.9,4.5c0.6,0.2,1,0.7,1,1.1l1.4,9.1l-16.2,3.3c-1.6,0.3-3.2,0.3-4.8,0l-16.1-3.3l1.4-9.1
				c0.1-0.6,0.5-1,1-1.1l12.1-4.5c0,0-3.6,0.7,1.3,4.4c1.6,1.1,6.6,1,8-0.5C211.5,93.1,208.4,92.3,208.4,92.3z"/>
			<path class="st26" d="M199.3,90.3v1.4c0,0,1.7,2.2,4.5,2.2c2.7,0,4.5-2.4,4.5-2.4v-1.4h-9V90.3z"/>
			<path class="st24" d="M203.9,67.7c-8.5-0.2-10.1-1.7-9.9,13.1c0.1,7.4,5.1,12.1,9.9,12.1c4.9,0,9.9-4.8,9.9-12.1
				C214,65.9,212.4,67.6,203.9,67.7z"/>
			<path class="st27" d="M204,71c1.6,0,4-1.1,6.8-1s3,11.2,3,11.2s5-17.2-2.4-17.2c0,0-2.3-2.8-7.6-2.8c-13.3,0-12.5,13-9.9,20.1
				c0,0,0.2-11.1,3-11.2C199.9,69.9,202.4,71,204,71"/>
			<path class="st10" d="M204.7,97.6c1.1-0.4,4.9-2.4,4.5-5.3c1.1,1.2,2.1,5.2-1.2,8C207,99,205.5,97.9,204.7,97.6z"/>
			<path class="st10" d="M202.9,97.6c-1.1-0.4-4.9-2.4-4.5-5.3c-1.1,1.2-2.1,5.2,1.2,8C200.6,99,202,97.9,202.9,97.6z"/>
			<g>
				<path class="st0" d="M204.9,78.5c-0.2-0.2-0.4-0.2-1-0.2v-0.5c0.5,0,1.1,0,1.5,0.4L204.9,78.5z"/>
				<g>
					<path class="st0" d="M212.3,80.9h-5.7c-1.1,0-1.4-1.3-1.7-2.3c-0.2-0.3,0-0.7,0.3-1s1-0.6,1.4-0.6h5.7c0.5,0,1,0.1,1.1,0.3
						c0.3,0.3,0.5,0.7,0.4,1.1C213.8,80.1,213.2,80.9,212.3,80.9z M206.6,77.6c-0.4,0-0.8,0.2-1,0.3s-0.3,0.4-0.2,0.5
						c0.6,1.2,0.9,1.9,1.1,1.9h5.7c0.6,0,1-1,1-1.7c0-0.3-0.1-0.7-0.3-0.9c-0.2-0.2-0.4-0.2-0.8-0.2
						C212.3,77.6,206.6,77.6,206.6,77.6z"/>
					<path class="st0" d="M201.1,80.9h-5.7c-1,0-1.4-0.9-1.5-2.3c0-0.5,0.1-1,0.4-1.1c0.3-0.3,0.8-0.3,1.1-0.3h5.7
						c0.6,0,1.1,0.2,1.4,0.6c0.3,0.3,0.4,0.7,0.3,1C202.6,79.4,202.2,80.9,201.1,80.9z M195.5,77.6c-0.3,0-0.6,0.1-0.8,0.2
						c-0.2,0.2-0.3,0.4-0.3,0.9c0.1,1,0.3,1.7,1,1.7h5.7c0.4,0,0.7-0.6,1.1-1.9c0.1-0.2,0-0.3-0.2-0.5c-0.3-0.3-0.6-0.3-1-0.3
						C201.3,77.6,195.5,77.6,195.5,77.6z"/>
					<path class="st0" d="M202.9,78.5l-0.5-0.3c0.3-0.4,1-0.4,1.5-0.4v0.5C203.3,78.3,203,78.3,202.9,78.5z"/>
				</g>
			</g>
		</g>
	</g>
</g>
<g>
	<g>
		<polygon class="st29" points="162.1,282.8 153.9,282.8 147.5,295.7 151.9,295.7 162.1,287.5 		"/>
		<rect x="147.5" y="273.1" class="st12" width="14.4" height="14.4"/>
		<polygon class="st29" points="171.1,291 162.8,291 156.5,303.9 160.9,303.9 171.1,295.6 		"/>
		<rect x="156.5" y="281.2" class="st12" width="14.4" height="14.4"/>
	</g>
	<g>
		<g>
			<circle class="st12" cx="113.7" cy="287.6" r="17.2"/>
		</g>
		<g>
			<g>
				<g>
					<path class="st14" d="M113.7,298.5c-0.5,0-1-0.4-1-1v-2.3c0-0.5,0.4-1,1-1c0.5,0,1,0.4,1,1v2.3
						C114.5,298.2,114.2,298.5,113.7,298.5z"/>
				</g>
			</g>
			<g>
				<path class="st14" d="M113.7,292.3L113.7,292.3c-2.7,0-4.6-2.1-4.6-4.5v-6.7c0-2.6,2.1-4.5,4.5-4.5c2.7,0,4.6,2.1,4.6,4.5v6.7
					C118.3,290.3,116.3,292.3,113.7,292.3z M113.7,278c-1.7,0-3.1,1.3-3.1,3.1v6.7c0,1.7,1.3,3.1,3.1,3.1h0.1c1.7,0,3.1-1.3,3.1-3.1
					V281C116.7,279.4,115.4,278,113.7,278z"/>
			</g>
			<g>
				<g>
					<path class="st14" d="M113.7,296L113.7,296c-2.3,0-4.3-0.9-5.8-2.4s-2.4-3.5-2.4-5.7c0-0.5,0.4-1,1-1s1,0.4,1,1
						c0,1.7,0.7,3.3,1.8,4.5c1.1,1.1,2.8,1.8,4.5,1.8l0,0c1.7,0,3.3-0.7,4.5-1.8c1.1-1.1,1.8-2.8,1.8-4.5c0-0.5,0.4-1,1-1
						c0.5,0,1,0.4,1,1c0,2.2-0.9,4.2-2.4,5.7C117.9,295.1,115.9,296,113.7,296z"/>
				</g>
			</g>
		</g>
	</g>
	<g>
		<path class="st10" d="M188.7,288.4h-1v-9c0-2.7,0.6-5.8,5.2-5.8v1c-3.5,0-4.3,1.9-4.3,4.9L188.7,288.4L188.7,288.4z"/>
		<g>
			<path class="st10" d="M197.5,288.4h-1v-9c0-4.3-1.7-4.9-3.5-4.9v-1c1.9,0,4.5,0.7,4.5,5.8V288.4L197.5,288.4z"/>
		</g>
		<g>
			<path class="st10" d="M193.6,303.3c-3.2,0-5.8-2.7-5.8-5.8v-9h1v8.9c0,2.7,2.2,4.9,4.9,4.9s4.9-2.2,4.9-4.9v-18.8h1v18.8
				C199.5,300.6,196.8,303.3,193.6,303.3z"/>
		</g>
		<g>
			<path class="st10" d="M193.6,298c-2.2,0-3.8-1.7-3.8-3.8v-11.8h1v11.8c0,1.6,1.2,2.9,2.9,2.9c1.6,0,2.9-1.2,2.9-2.9v-8.1h1v8.1
				C197.5,296.3,195.8,298,193.6,298z"/>
		</g>
	</g>
	<g>
		<path class="st12" d="M71.3,273.1H49.5c-1.9,0-3.4,1.5-3.4,3.4v15.1c0,1.9,1.5,3.4,3.4,3.4h0.9v6.5l6.5-6.5h14.4
			c1.9,0,3.4-1.5,3.4-3.4v-15.1C74.8,274.6,73.1,273.1,71.3,273.1z"/>
		<path class="st30" d="M77.2,283.9H76v8.9c0,1.9-1.5,3.4-3.4,3.4H59.5v0.7c0,1.3,1.1,2.4,2.4,2.4h10l4.6,4.6v-4.6h0.6
			c1.3,0,2.4-1.1,2.4-2.4v-10.6C79.7,284.9,78.6,283.9,77.2,283.9z"/>
	</g>
</g>
<g>
	<g>
		<path class="st24" d="M84.1,153.6v2.1l-4.3,1.6c0,0,3.7,4.7,8.4,4.7s8.1-4.8,8.1-4.8l-3.3-1.5v-2.4h-9L84.1,153.6L84.1,153.6z"/>
		<path class="st3" d="M93.1,155.7l10.7,4.4c0.5,0.2,1,0.7,1,1.1l1.3,8.9l-15.9,3.2c-1.5,0.3-3.1,0.3-4.6,0l-15.9-3.2l1.3-8.9
			c0.1-0.6,0.5-1,1-1.1l12-4.4c0,0-3.5,0.7,1.3,4.4c1.6,1.1,6.5,1,7.9-0.5C96.1,156.5,93.1,155.7,93.1,155.7z"/>
		<path class="st26" d="M84.2,153.9v1.4c0,0,1.7,2.2,4.5,2.2s4.5-2.4,4.5-2.4v-1.4h-8.8L84.2,153.9z"/>
		<path class="st24" d="M88.7,131.7c-8.4-0.2-9.9-1.7-9.9,12.8c0.1,7.2,5,12,9.9,12c4.8,0,9.8-4.7,9.9-12
			C98.7,130,97.2,131.5,88.7,131.7z"/>
		<path class="st27" d="M88.8,135c1.5,0,3.9-1.1,6.7-1c2.8,0.1,2.9,10.9,2.9,10.9s4.9-16.9-2.3-16.9c0,0-2.2-2.7-7.4-2.7
			c-13,0-12.2,12.7-9.7,19.6c0,0,0.2-10.8,2.9-10.9C84.7,133.7,87.2,135,88.8,135"/>
		<path class="st14" d="M89.4,160.9c1.1-0.4,4.8-2.4,4.4-5.2c1.1,1.2,2,5.1-1.1,7.9C91.6,162.4,90.3,161.3,89.4,160.9z"/>
		<path class="st14" d="M87.8,160.9c-1.1-0.4-4.8-2.4-4.4-5.2c-1.1,1.2-2,5.1,1.1,7.9C85.5,162.4,86.8,161.3,87.8,160.9z"/>
		<g>
			<path class="st0" d="M89.6,142.2c-0.2-0.2-0.4-0.2-1-0.2v-0.5c0.5,0,1.1,0,1.4,0.4L89.6,142.2z"/>
			<g>
				<path class="st0" d="M97,144.6h-5.6c-1,0-1.4-1.3-1.7-2.2c-0.2-0.3,0-0.7,0.3-1s1-0.6,1.4-0.6H97c0.5,0,1,0.1,1.1,0.3
					c0.3,0.3,0.5,0.7,0.4,1.1C98.4,143.8,97.8,144.6,97,144.6z M91.3,141.3c-0.4,0-0.8,0.2-1,0.3c-0.2,0.2-0.3,0.4-0.2,0.5
					c0.6,1.2,0.9,1.8,1.1,1.8h5.6c0.6,0,1-1,1-1.7c0-0.3-0.1-0.7-0.3-0.8c-0.2-0.2-0.4-0.2-0.8-0.2C97,141.3,91.3,141.3,91.3,141.3z
					"/>
				<path class="st0" d="M86,144.6h-5.7c-1,0-1.4-0.9-1.5-2.2c0-0.5,0.1-1,0.4-1.1c0.3-0.3,0.7-0.3,1.1-0.3H86c0.6,0,1,0.2,1.4,0.6
					c0.3,0.3,0.4,0.7,0.3,1C87.3,143.2,87,144.6,86,144.6z M80.5,141.3c-0.3,0-0.6,0.1-0.8,0.2c-0.2,0.2-0.3,0.4-0.3,0.8
					c0.1,1,0.3,1.7,1,1.7H86c0.4,0,0.7-0.6,1.1-1.8c0.1-0.2,0-0.3-0.2-0.5c-0.3-0.3-0.6-0.3-1-0.3C86.2,141.3,80.5,141.3,80.5,141.3
					z"/>
				<path class="st0" d="M87.7,142.2l-0.5-0.3c0.3-0.4,1-0.4,1.4-0.4v0.6C88.1,142.1,87.9,142.1,87.7,142.2z"/>
			</g>
		</g>
	</g>
	<polygon class="st31" points="113.6,164.6 107.7,164.6 107.7,158.7 104.6,158.7 104.6,164.6 98.6,164.6 98.6,167.7 104.6,167.7 
		104.6,173.6 107.7,173.6 107.7,167.7 113.6,167.7 	"/>
	<g>
		<path class="st3" d="M139.8,157.9L134,160c-0.6,0.2-1,0.7-1,1.1l-1.3,9l16.1,3.3c1.6,0.3,3.2,0.3,4.7,0l16.1-3.3l-1.3-9
			c-0.1-0.6-0.5-1-1-1.1l-5.8-2.1"/>
		<path class="st24" d="M146.1,153.5v2.2l-4.4,1.6c0,0,3.8,4.8,8.5,4.8s8.1-4.8,8.1-4.8l-3.3-1.6v-2.4h-9L146.1,153.5L146.1,153.5z"
			/>
		<path class="st26" d="M146.1,153.6v1.4c0,0,1.7,2.2,4.5,2.2s4.5-2.4,4.5-2.4v-1.4h-8.9L146.1,153.6z"/>
		<path class="st24" d="M150.8,131.1c-8.5-0.2-10-1.7-9.9,13c0.1,7.3,5,12.1,9.9,12.1s9.9-4.7,9.9-12.1
			C160.9,129.4,159.4,131,150.8,131.1z"/>
		<path class="st27" d="M150.9,134.4c1.6,0,4-1.1,6.8-1s3,11.1,3,11.1s3.6-7.3,2.4-13.6c0,0-1.1-3.3-4.7-3.5c0,0-2.3-2.8-7.5-2.8
			s-7.3,4.5-13.8,2.3c0,0-0.7,2.3,2.4,4.4c0,0-1,6.4,1.7,13.4c0,0,0.2-11,3-11.1C146.9,133.3,149.4,134.4,150.9,134.4"/>
		<path class="st14" d="M139.5,157.5l2-0.9c0,0,3.8,5.1,8.5,5.1c4.8,0,8.3-5.1,8.3-5.1l2.2,1c0,0-3.9,6.5-10.6,6.5
			C143.4,164.1,139.5,157.5,139.5,157.5z"/>
		<polygon class="st31" points="176,164.1 170,164.1 170,158 166.9,158 166.9,164.1 160.9,164.1 160.9,167.1 166.9,167.1 
			166.9,173.1 170,173.1 170,167.1 176,167.1 		"/>
	</g>
</g>
<g>
	<polygon class="st6" points="129.2,342.9 125.3,339 111.4,353 105.1,346.7 101.3,350.6 111.4,360.7 115.3,356.7 115.3,356.7 	"/>
	<polygon class="st6" points="84.2,347.7 75.4,347.7 75.4,338.9 70.6,338.9 70.6,347.7 61.9,347.7 61.9,352.5 70.6,352.5 
		70.6,361.2 75.4,361.2 75.4,352.5 84.2,352.5 	"/>
	<g>
		<path class="st32" d="M183.8,358.7c0,0.4,0,0.9-0.1,1.1c-0.1,0.3-0.2,0.6-0.4,0.8c-0.2,0.2-0.4,0.3-0.8,0.4
			c-0.3,0.1-0.7,0.2-1.1,0.2c-0.4,0-0.9-0.1-1.1-0.2c-0.3-0.1-0.6-0.3-0.8-0.4c-0.2-0.2-0.3-0.4-0.4-0.8c-0.1-0.3-0.1-0.7-0.1-1.1
			c0-0.5,0-0.9,0.1-1.1c0.1-0.3,0.2-0.6,0.4-0.8c0.2-0.2,0.4-0.3,0.8-0.4c0.3-0.1,0.7-0.2,1.1-0.2c0.4,0,0.9,0.1,1.1,0.2
			c0.3,0.1,0.6,0.3,0.8,0.4c0.2,0.2,0.3,0.4,0.4,0.8C183.8,358,183.8,358.4,183.8,358.7z M183.4,354c0,0.1-0.1,0.3-0.1,0.3
			c-0.1,0.1-0.2,0.2-0.3,0.3c-0.2,0.1-0.3,0.1-0.6,0.2c-0.3,0-0.5,0.1-1,0.1c-0.3,0-0.7,0-1-0.1c-0.3,0-0.4-0.1-0.6-0.2
			c-0.2-0.1-0.3-0.2-0.3-0.3c-0.1-0.1-0.1-0.2-0.1-0.3l-0.4-14.6c0-0.2,0-0.3,0.1-0.4s0.2-0.2,0.3-0.3c0.2-0.1,0.4-0.2,0.7-0.2
			s0.7-0.1,1-0.1s0.9,0,1,0.1c0.3,0,0.5,0.1,0.7,0.2s0.3,0.2,0.3,0.3c0,0.1,0.1,0.3,0.1,0.4L183.4,354z"/>
	</g>
	<g>
		<g>
			<rect x="155.4" y="339.1" class="st33" width="5.1" height="21.6"/>
		</g>
		<g>
			<rect x="147.8" y="346.5" class="st33" width="5.1" height="14.2"/>
		</g>
		<g>
			<rect x="140.3" y="354.6" class="st33" width="5.1" height="6.2"/>
		</g>
	</g>
</g>
<g>
	<rect x="293.7" y="11.5" class="st34" width="0.5" height="438.7"/>
</g>
<g>
	<g>
		<g>
			<rect x="469.6" y="117.4" class="st34" width="0.4" height="33.2"/>
		</g>
		<g>
			<rect x="431.1" y="82.7" class="st35" width="7.6" height="0.4"/>
		</g>
		<g>
			<rect x="508" y="82.7" class="st35" width="7.6" height="0.4"/>
		</g>
		<g>
			<rect x="358.6" y="110" class="st34" width="0.4" height="7.6"/>
		</g>
		<g>
			<rect x="587.6" y="110" class="st34" width="0.4" height="7.6"/>
		</g>
		<g>
			<rect x="358.8" y="117.3" class="st34" width="229" height="0.4"/>
		</g>
		<g>
			<path class="st36" d="M532.6,226.3H400.2v-19.7c0-2.2,1.7-3.8,3.8-3.8h128.6c2.2,0,3.8,1.7,3.8,3.8v15.7
				C536.6,224.5,534.8,226.3,532.6,226.3z"/>
		</g>
		<g>
			<path class="st37" d="M532.6,223.2H400.2v-19.7c0-2.2,1.7-3.8,3.8-3.8h128.6c2.2,0,3.8,1.7,3.8,3.8v15.9
				C536.6,221.6,534.8,223.2,532.6,223.2z"/>
		</g>
		<g>
			<path class="st36" d="M532.6,184H400.2v-19.7c0-2.2,1.7-3.8,3.8-3.8h128.6c2.2,0,3.8,1.7,3.8,3.8v15.9
				C536.6,182.3,534.8,184,532.6,184z"/>
		</g>
		<g>
			<g>
				<path class="st14" d="M532.6,181H400.2v-19.8c0-2.2,1.7-3.8,3.8-3.8h128.6c2.2,0,3.8,1.7,3.8,3.8v15.9
					C536.6,179.3,534.8,181,532.6,181z"/>
			</g>
			<g>
				<path class="st36" d="M532.6,181.5H399.7v-20.2c0-2.4,1.8-4.3,4.3-4.3h128.6c2.4,0,4.3,1.8,4.3,4.3v15.9c0,1.1-0.4,2.3-1.2,3
					C534.9,181,533.7,181.5,532.6,181.5z M400.6,180.6h132.2c0.9,0,1.7-0.4,2.4-1c0.6-0.6,1-1.5,1-2.5v-15.9c0-1.9-1.5-3.5-3.5-3.5
					H404c-1.9,0-3.5,1.5-3.5,3.5L400.6,180.6L400.6,180.6z"/>
			</g>
		</g>
		<g>
			<path class="st14" d="M578.9,64.8h-57.2c-1.8,0-3.4,1.5-3.4,3.4V95c0,0.1,0,0.1,0,0.2l0,0v5.9l8.1-2.7H579c1.8,0,3.4-1.5,3.4-3.4
				V68C582.3,66.2,580.8,64.8,578.9,64.8z"/>
			<path class="st35" d="M517.9,101.7V68.1c0-2.1,1.7-3.7,3.7-3.7h57.2c2.1,0,3.7,1.6,3.8,3.7V95c0,2.1-1.7,3.7-3.7,3.7h-52.5
				L517.9,101.7z M521.6,65.2c-1.7,0-3,1.3-3,3v32.5l7.7-2.5h52.6c1.7,0,3-1.3,3-3V68c-0.1-1.6-1.4-2.9-3-2.9L521.6,65.2L521.6,65.2
				z"/>
		</g>
		<g>
			<path class="st14" d="M502,64.8h-57.3c-1.8,0-3.4,1.5-3.4,3.4V95c0,0.1,0,0.1,0,0.2l0,0v11.3l8.1-8.1H502c1.8,0,3.4-1.5,3.4-3.4
				V68C505.4,66.2,503.9,64.8,502,64.8z"/>
			<path class="st35" d="M441,107.4V68.1c0-2.1,1.7-3.7,3.7-3.7h57.2c2.1,0,3.7,1.6,3.8,3.7V95c0,2.1-1.7,3.7-3.7,3.7h-52.4
				L441,107.4z M444.7,65.2c-1.7,0-3,1.3-3,3v37.4l7.6-7.6H502c1.7,0,3-1.3,3-3V68c-0.1-1.6-1.4-2.9-3-2.9L444.7,65.2L444.7,65.2z"
				/>
		</g>
		<g>
			<g>
				<g>
					<path class="st31" d="M457.9,172.7c0,0.1,0,0.3,0,0.4s0,0.2-0.1,0.3c0,0.1-0.1,0.1-0.1,0.2c0,0.1-0.1,0.1-0.1,0.1
						c-0.1,0.1-0.2,0.1-0.4,0.2c-0.1,0.1-0.4,0.2-0.5,0.3c-0.2,0.1-0.5,0.1-0.7,0.2c-0.4,0.1-0.5,0.1-0.9,0.1
						c-0.5,0-1.1-0.1-1.6-0.4c-0.5-0.2-0.9-0.5-1.2-0.8c-0.4-0.4-0.5-0.8-0.8-1.4c-0.3-0.5-0.4-1.2-0.4-1.9s0.1-1.5,0.4-2
						c0.2-0.5,0.5-1.1,0.9-1.5s0.8-0.7,1.3-0.9c0.5-0.3,1-0.4,1.7-0.4c0.3,0,0.5,0,0.7,0.1s0.5,0.1,0.6,0.2c0.2,0.1,0.4,0.1,0.5,0.3
						c0.2,0.1,0.4,0.2,0.4,0.3c0.1,0.1,0.1,0.1,0.1,0.2c0,0.1,0.1,0.1,0.1,0.2c0,0.1,0,0.1,0.1,0.3c0,0.1,0,0.2,0,0.4
						c0,0.1,0,0.3,0,0.4c0,0.1,0,0.2-0.1,0.3c0,0.1-0.1,0.1-0.1,0.1c-0.1,0-0.1,0.1-0.1,0.1s-0.2-0.1-0.3-0.1
						c-0.1-0.1-0.3-0.2-0.4-0.4c-0.2-0.2-0.4-0.2-0.5-0.4c-0.3-0.1-0.5-0.1-0.8-0.1c-0.4,0-0.6,0.1-0.9,0.3
						c-0.4,0.1-0.5,0.4-0.7,0.6c-0.3,0.4-0.4,0.5-0.5,1c-0.2,0.4-0.2,0.8-0.2,1.3s0.1,1,0.2,1.3c0.1,0.4,0.3,0.7,0.5,0.9
						c0.2,0.3,0.5,0.4,0.7,0.5c0.4,0.1,0.5,0.2,0.9,0.2s0.5-0.1,0.8-0.1c0.3-0.1,0.4-0.2,0.5-0.3c0.2-0.1,0.4-0.2,0.4-0.3
						c0.1-0.1,0.2-0.1,0.3-0.1s0.1,0,0.1,0l0.1,0.1C457.8,172.4,457.9,172.5,457.9,172.7C457.9,172.5,457.9,172.6,457.9,172.7z"/>
				</g>
				<g>
					<path class="st31" d="M460.8,173.8C460.8,173.9,460.8,173.9,460.8,173.8c-0.2,0.2-0.2,0.2-0.2,0.2c-0.1,0-0.2,0.1-0.4,0.1
						c-0.1,0-0.3,0-0.4,0s-0.4,0-0.4,0s-0.2,0-0.4-0.1c-0.1,0-0.1-0.1-0.1-0.1c0-0.1-0.1-0.1-0.1-0.1V165c0-0.1,0-0.1,0.1-0.1
						c0-0.1,0.1-0.1,0.1-0.1c0.1,0,0.2-0.1,0.4-0.1c0.1,0,0.3,0,0.4,0s0.4,0,0.4,0s0.2,0.1,0.4,0.1c0.1,0,0.1,0.1,0.1,0.1
						c0,0.1,0.1,0.1,0.1,0.1V173.8L460.8,173.8z"/>
				</g>
				<g>
					<path class="st31" d="M464.2,165.8c0,0.4-0.1,0.5-0.3,0.7c-0.1,0.1-0.4,0.2-0.8,0.2c-0.5,0-0.6-0.1-0.8-0.2
						c-0.1-0.1-0.2-0.4-0.2-0.7c0-0.4,0.1-0.5,0.3-0.7c0.1-0.1,0.4-0.2,0.8-0.2c0.5,0,0.6,0.1,0.7,0.2
						C464.2,165.3,464.2,165.4,464.2,165.8z M464.2,173.8C464.2,173.9,464.2,173.9,464.2,173.8C464,174,464,174,464,174
						c-0.1,0-0.2,0.1-0.4,0.1c-0.1,0-0.3,0-0.4,0c-0.2,0-0.4,0-0.4,0c-0.1,0-0.2,0-0.4-0.1c-0.1,0-0.1-0.1-0.1-0.1
						c0-0.1-0.1-0.1-0.1-0.1v-6c0-0.1,0-0.1,0.1-0.1c0-0.1,0.1-0.1,0.1-0.1c0.1,0,0.2-0.1,0.4-0.1c0.1,0,0.3,0,0.4,0
						c0.2,0,0.4,0,0.4,0c0.1,0,0.2,0.1,0.4,0.1c0.1,0,0.1,0.1,0.1,0.1c0,0.1,0.1,0.1,0.1,0.1V173.8L464.2,173.8z"/>
				</g>
				<g>
					<path class="st31" d="M470.4,172.9c0,0.1,0,0.3,0,0.4c0,0.1,0,0.2,0,0.2c0,0.1,0,0.1-0.1,0.1c0,0.1-0.1,0.1-0.1,0.1
						c-0.1,0.1-0.2,0.1-0.4,0.2c-0.1,0.1-0.4,0.1-0.5,0.2s-0.4,0.1-0.5,0.1c-0.2,0.1-0.4,0.1-0.6,0.1c-0.5,0-0.9-0.1-1.3-0.3
						s-0.7-0.4-0.9-0.6c-0.2-0.4-0.4-0.6-0.5-1s-0.2-0.9-0.2-1.4c0-0.6,0.1-1.1,0.3-1.5c0.2-0.4,0.4-0.8,0.6-1.1
						c0.4-0.4,0.5-0.5,1-0.6c0.4-0.1,0.8-0.3,1.2-0.3c0.2,0,0.4,0,0.5,0.1c0.2,0.1,0.4,0.1,0.5,0.1c0.2,0.1,0.4,0.1,0.4,0.2
						s0.3,0.1,0.3,0.2c0.1,0.1,0.1,0.1,0.1,0.1c0,0.1,0.1,0.1,0.1,0.1c0,0.1,0,0.1,0,0.2s0,0.2,0,0.4c0,0.4,0,0.5-0.1,0.5
						s-0.1,0.2-0.2,0.2s-0.2-0.1-0.3-0.1s-0.2-0.1-0.4-0.3c-0.1-0.1-0.3-0.2-0.4-0.3c-0.2-0.1-0.4-0.1-0.5-0.1c-0.5,0-0.8,0.2-1,0.5
						c-0.3,0.4-0.4,0.9-0.4,1.5c0,0.4,0.1,0.6,0.1,0.9c0.1,0.3,0.2,0.5,0.4,0.6c0.1,0.2,0.4,0.4,0.5,0.4c0.2,0.1,0.4,0.1,0.6,0.1
						s0.5-0.1,0.6-0.1c0.2-0.1,0.4-0.2,0.5-0.3s0.3-0.2,0.4-0.3s0.2-0.1,0.3-0.1s0.1,0,0.1,0.1l0.1,0.1c0,0.1,0,0.1,0.1,0.3
						C470.3,172.6,470.4,172.7,470.4,172.9z"/>
				</g>
				<g>
					<path class="st31" d="M476.7,173.8c0,0.1,0,0.1-0.1,0.2s-0.1,0.1-0.3,0.1s-0.3,0-0.4,0c-0.3,0-0.4,0-0.5,0s-0.2-0.1-0.2-0.1
						c-0.1-0.1-0.1-0.1-0.1-0.2v-0.4c-0.3,0.4-0.5,0.5-0.9,0.6c-0.4,0.2-0.7,0.3-1,0.3c-0.4,0-0.6-0.1-0.9-0.1
						c-0.4-0.1-0.5-0.3-0.7-0.4c-0.2-0.2-0.4-0.4-0.5-0.6c-0.1-0.3-0.2-0.5-0.2-0.9s0.1-0.6,0.3-0.9c0.1-0.4,0.4-0.5,0.6-0.6
						c0.4-0.2,0.6-0.4,1-0.4s0.9-0.1,1.5-0.1h0.5V170c0-0.2,0-0.4-0.1-0.5s-0.1-0.4-0.2-0.4c-0.1-0.1-0.3-0.2-0.4-0.3
						s-0.4-0.1-0.5-0.1c-0.4,0-0.5,0.1-0.7,0.1c-0.3,0.1-0.4,0.1-0.5,0.3s-0.4,0.2-0.4,0.3c-0.1,0.1-0.3,0.1-0.4,0.1s-0.1,0-0.1-0.1
						c-0.1-0.1-0.1-0.1-0.1-0.1c0-0.1-0.1-0.1-0.1-0.3c0-0.1,0-0.2,0-0.4c0-0.1,0-0.3,0.1-0.4c0-0.1,0.1-0.2,0.1-0.3
						c0.1-0.1,0.2-0.1,0.4-0.3c0.2-0.1,0.4-0.2,0.5-0.3c0.3-0.1,0.5-0.1,0.7-0.2s0.5-0.1,0.8-0.1c0.5,0,0.9,0.1,1.2,0.1
						c0.4,0.1,0.6,0.3,0.8,0.4c0.2,0.2,0.4,0.5,0.5,0.7c0.1,0.4,0.2,0.7,0.2,1.1v4L476.7,173.8L476.7,173.8z M475,171.3h-0.6
						c-0.4,0-0.5,0-0.7,0.1s-0.4,0.1-0.5,0.2c-0.1,0.1-0.3,0.2-0.4,0.4c-0.1,0.1-0.1,0.3-0.1,0.4c0,0.3,0.1,0.5,0.3,0.5
						s0.4,0.3,0.7,0.3c0.3,0,0.5-0.1,0.7-0.2c0.2-0.1,0.4-0.4,0.6-0.5V171.3L475,171.3L475,171.3z"/>
				</g>
				<g>
					<path class="st31" d="M482.3,168.4c0,0.2,0,0.4,0,0.4s0,0.2-0.1,0.3c0,0.1-0.1,0.1-0.1,0.1c-0.1,0-0.1,0.1-0.1,0.1
						c-0.1,0-0.1,0-0.1,0c-0.1,0-0.1-0.1-0.2-0.1s-0.1-0.1-0.2-0.1s-0.1,0-0.3,0c-0.1,0-0.2,0-0.4,0.1c-0.2,0.1-0.2,0.1-0.4,0.2
						c-0.1,0.1-0.3,0.2-0.4,0.4c-0.1,0.1-0.3,0.4-0.4,0.5v3.7c0,0.1,0,0.1-0.1,0.1c-0.1,0.1-0.1,0.1-0.1,0.1s-0.2,0.1-0.4,0.1
						c-0.2,0-0.3,0-0.4,0c-0.2,0-0.4,0-0.4,0c-0.1,0-0.2,0-0.4-0.1c-0.1,0-0.1-0.1-0.1-0.1c0-0.1-0.1-0.1-0.1-0.1v-6
						c0-0.1,0-0.1,0.1-0.1c0.1-0.1,0.1-0.1,0.1-0.1s0.1-0.1,0.3-0.1c0.1,0,0.3,0,0.4,0c0.2,0,0.4,0,0.4,0c0.1,0,0.2,0,0.3,0.1
						c0.1,0,0.1,0.1,0.1,0.1c0,0.1,0.1,0.1,0.1,0.1v0.7c0.2-0.3,0.4-0.4,0.5-0.5c0.1-0.2,0.4-0.4,0.4-0.4c0.1-0.1,0.3-0.2,0.4-0.2
						c0.1-0.1,0.3-0.1,0.4-0.1s0.1,0,0.2,0s0.1,0,0.3,0.1c0.1,0,0.1,0.1,0.2,0.1s0.1,0.1,0.1,0.1l0.1,0.1c0,0,0,0.1,0.1,0.1
						c0,0.1,0,0.1,0,0.3C482.3,168.2,482.3,168.2,482.3,168.4z"/>
				</g>
			</g>
		</g>
		<g>
			<g>
				<g>
					<path class="st14" d="M454.4,214.2c0,0.1,0,0.3,0,0.4s0,0.2-0.1,0.3c0,0.1-0.1,0.1-0.1,0.2c0,0.1-0.1,0.1-0.1,0.1
						c-0.1,0.1-0.2,0.1-0.4,0.2c-0.1,0.1-0.4,0.2-0.5,0.3c-0.2,0.1-0.5,0.1-0.7,0.2c-0.4,0.1-0.5,0.1-0.9,0.1
						c-0.5,0-1.1-0.1-1.6-0.4c-0.5-0.2-0.9-0.5-1.2-0.8c-0.4-0.4-0.5-0.8-0.8-1.4c-0.3-0.5-0.4-1.2-0.4-1.9s0.1-1.5,0.4-2
						s0.5-1.1,0.9-1.5s0.8-0.7,1.3-0.9c0.5-0.3,1-0.4,1.7-0.4c0.3,0,0.5,0,0.7,0.1c0.3,0.1,0.5,0.1,0.6,0.2c0.2,0.1,0.4,0.1,0.5,0.3
						c0.2,0.1,0.4,0.2,0.4,0.3c0.1,0.1,0.1,0.1,0.1,0.2c0,0.1,0.1,0.1,0.1,0.2c0,0.1,0,0.1,0.1,0.3c0,0.1,0,0.2,0,0.4
						c0,0.1,0,0.3,0,0.4c0,0.1,0,0.2-0.1,0.3c0,0.1-0.1,0.1-0.1,0.1c-0.1,0-0.1,0.1-0.1,0.1s-0.2-0.1-0.3-0.1
						c-0.1-0.1-0.3-0.2-0.4-0.4c-0.2-0.2-0.4-0.2-0.5-0.4c-0.3-0.1-0.5-0.1-0.8-0.1c-0.4,0-0.6,0.1-0.9,0.3
						c-0.4,0.1-0.5,0.4-0.7,0.6c-0.2,0.4-0.4,0.5-0.5,1c-0.1,0.4-0.2,0.8-0.2,1.3s0.1,1,0.2,1.3c0.1,0.4,0.3,0.7,0.5,0.9
						c0.2,0.3,0.5,0.4,0.7,0.5c0.4,0.1,0.5,0.2,0.9,0.2s0.5-0.1,0.8-0.1c0.3-0.1,0.4-0.2,0.5-0.3c0.2-0.1,0.4-0.2,0.4-0.3
						c0.1-0.1,0.2-0.1,0.3-0.1s0.1,0,0.1,0l0.1,0.1C454.3,213.9,454.4,213.9,454.4,214.2C454.4,214,454.4,214.1,454.4,214.2z"/>
				</g>
				<g>
					<path class="st14" d="M457.2,215.4C457.2,215.5,457.2,215.5,457.2,215.4c-0.2,0.2-0.2,0.2-0.2,0.2s-0.2,0.1-0.4,0.1
						c-0.2,0-0.3,0-0.4,0c-0.2,0-0.4,0-0.4,0s-0.2,0-0.4-0.1c-0.1,0-0.1-0.1-0.1-0.1c0-0.1-0.1-0.1-0.1-0.1v-8.8
						c0-0.1,0-0.1,0.1-0.1c0-0.1,0.1-0.1,0.1-0.1c0.1,0,0.2-0.1,0.4-0.1c0.1,0,0.3,0,0.4,0c0.2,0,0.4,0,0.4,0s0.2,0.1,0.4,0.1
						c0.1,0,0.1,0.1,0.1,0.1l0.1,0.1V215.4L457.2,215.4z"/>
				</g>
				<g>
					<path class="st14" d="M460.8,207.4c0,0.4-0.1,0.5-0.3,0.7c-0.1,0.1-0.4,0.2-0.8,0.2c-0.5,0-0.6-0.1-0.8-0.2
						c-0.1-0.1-0.2-0.4-0.2-0.7c0-0.4,0.1-0.5,0.3-0.7c0.1-0.1,0.4-0.2,0.8-0.2c0.5,0,0.6,0.1,0.7,0.2
						C460.7,206.7,460.8,207,460.8,207.4z M460.7,215.4C460.7,215.5,460.7,215.5,460.7,215.4c-0.2,0.2-0.2,0.2-0.2,0.2
						c-0.1,0-0.2,0.1-0.4,0.1c-0.1,0-0.3,0-0.4,0c-0.2,0-0.4,0-0.4,0s-0.2,0-0.4-0.1c-0.1,0-0.1-0.1-0.1-0.1c0-0.1-0.1-0.1-0.1-0.1
						v-6c0-0.1,0-0.1,0.1-0.1c0-0.1,0.1-0.1,0.1-0.1c0.1,0,0.2-0.1,0.4-0.1c0.1,0,0.3,0,0.4,0c0.2,0,0.4,0,0.4,0s0.2,0.1,0.4,0.1
						c0.1,0,0.1,0.1,0.1,0.1l0.1,0.1V215.4L460.7,215.4z"/>
				</g>
				<g>
					<path class="st14" d="M466.9,214.5c0,0.1,0,0.3,0,0.4c0,0.1,0,0.2,0,0.2c0,0.1,0,0.1-0.1,0.1c0,0.1-0.1,0.1-0.1,0.1
						c-0.1,0.1-0.2,0.1-0.4,0.2c-0.1,0.1-0.4,0.1-0.5,0.2c-0.2,0.1-0.4,0.1-0.5,0.1c-0.2,0.1-0.4,0.1-0.6,0.1
						c-0.5,0-0.9-0.1-1.3-0.3s-0.7-0.4-0.9-0.6c-0.3-0.4-0.4-0.6-0.5-1s-0.2-0.9-0.2-1.4c0-0.6,0.1-1.1,0.3-1.5
						c0.2-0.4,0.4-0.8,0.6-1.1c0.4-0.4,0.5-0.5,1-0.6c0.4-0.1,0.8-0.3,1.2-0.3c0.2,0,0.4,0,0.5,0.1c0.2,0.1,0.4,0.1,0.5,0.1
						c0.2,0.1,0.4,0.1,0.4,0.2c0.1,0.1,0.3,0.1,0.3,0.2c0.1,0.1,0.1,0.1,0.1,0.1c0,0.1,0.1,0.1,0.1,0.1s0,0.1,0,0.2
						c0,0.1,0,0.2,0,0.4c0,0.4,0,0.5-0.1,0.5s-0.1,0.2-0.2,0.2s-0.2-0.1-0.3-0.1c-0.1-0.1-0.2-0.1-0.4-0.3c-0.1-0.1-0.3-0.2-0.4-0.3
						c-0.2-0.1-0.4-0.1-0.5-0.1c-0.5,0-0.8,0.2-1,0.5c-0.3,0.4-0.4,0.9-0.4,1.5c0,0.4,0.1,0.6,0.1,0.9c0.1,0.3,0.2,0.5,0.4,0.6
						c0.1,0.2,0.4,0.4,0.5,0.4s0.4,0.1,0.6,0.1s0.5-0.1,0.6-0.1c0.2-0.1,0.4-0.2,0.5-0.3s0.3-0.2,0.4-0.3s0.2-0.1,0.3-0.1
						s0.1,0,0.1,0.1l0.1,0.1c0,0.1,0,0.1,0.1,0.3C466.9,214.1,466.9,214.2,466.9,214.5z"/>
				</g>
				<g>
					<path class="st14" d="M473.2,215.5c0,0.1,0,0.1-0.1,0.2s-0.1,0.1-0.3,0.1c-0.1,0-0.3,0-0.4,0c-0.3,0-0.4,0-0.5,0
						s-0.2-0.1-0.2-0.1c-0.1-0.1-0.1-0.1-0.1-0.2V215c-0.3,0.4-0.5,0.5-0.9,0.6c-0.4,0.2-0.7,0.3-1,0.3s-0.6-0.1-0.9-0.1
						c-0.4-0.1-0.5-0.3-0.7-0.4c-0.2-0.2-0.4-0.4-0.5-0.6c-0.1-0.3-0.2-0.5-0.2-0.9s0.1-0.6,0.3-0.9c0.1-0.4,0.4-0.5,0.6-0.6
						c0.4-0.2,0.6-0.4,1-0.4s0.9-0.1,1.5-0.1h0.5v-0.4c0-0.2,0-0.4-0.1-0.5s-0.1-0.4-0.2-0.4c-0.1-0.1-0.3-0.2-0.4-0.3
						s-0.4-0.1-0.5-0.1c-0.4,0-0.5,0.1-0.7,0.1c-0.3,0.1-0.4,0.1-0.5,0.3c-0.2,0.1-0.4,0.2-0.4,0.3c-0.1,0.1-0.3,0.1-0.4,0.1
						s-0.1,0-0.1-0.1c-0.1-0.1-0.1-0.1-0.1-0.1c0-0.1-0.1-0.1-0.1-0.3c0-0.1,0-0.2,0-0.4s0-0.3,0.1-0.4c0-0.1,0.1-0.2,0.1-0.3
						c0.1-0.1,0.2-0.1,0.4-0.3c0.2-0.1,0.4-0.2,0.5-0.3c0.3-0.1,0.5-0.1,0.7-0.2c0.3-0.1,0.5-0.1,0.8-0.1c0.5,0,0.9,0.1,1.2,0.1
						c0.4,0.1,0.6,0.3,0.8,0.4c0.2,0.2,0.4,0.5,0.5,0.7c0.1,0.4,0.2,0.7,0.2,1.1v4L473.2,215.5L473.2,215.5z M471.5,212.8h-0.6
						c-0.4,0-0.5,0-0.7,0.1s-0.4,0.1-0.5,0.2c-0.1,0.1-0.3,0.2-0.4,0.4c-0.1,0.1-0.1,0.3-0.1,0.4c0,0.3,0.1,0.5,0.3,0.5
						s0.4,0.3,0.7,0.3c0.3,0,0.5-0.1,0.7-0.2c0.2-0.1,0.4-0.4,0.6-0.5V212.8L471.5,212.8L471.5,212.8z"/>
				</g>
				<g>
					<path class="st14" d="M480.5,215.4C480.5,215.5,480.5,215.5,480.5,215.4c-0.2,0.1-0.2,0.2-0.2,0.2s-0.1,0.1-0.3,0.1
						c-0.1,0-0.3,0-0.4,0c-0.2,0-0.4,0-0.4,0c-0.1,0-0.2,0-0.3-0.1c-0.1,0-0.1-0.1-0.1-0.1c0-0.1-0.1-0.1-0.1-0.1v-0.7
						c-0.4,0.4-0.6,0.5-1,0.8c-0.4,0.2-0.7,0.4-1.1,0.4c-0.5,0-0.9-0.1-1.1-0.4c-0.4-0.2-0.5-0.4-0.8-0.7c-0.3-0.4-0.4-0.6-0.5-1
						s-0.1-0.8-0.1-1.3s0.1-1,0.2-1.5c0.1-0.4,0.4-0.8,0.5-1.1c0.3-0.4,0.5-0.5,0.8-0.7c0.4-0.2,0.7-0.3,1.1-0.3s0.6,0.1,0.9,0.3
						c0.4,0.1,0.5,0.4,0.8,0.6v-3.3c0-0.1,0-0.1,0.1-0.1c0-0.1,0.1-0.1,0.1-0.1c0.1,0,0.2-0.1,0.4-0.1c0.1,0,0.3,0,0.4,0
						c0.2,0,0.4,0,0.4,0s0.2,0.1,0.3,0.1s0.1,0.1,0.1,0.1l0.1,0.1v8.7L480.5,215.4L480.5,215.4L480.5,215.4z M478.9,211.4
						c-0.3-0.4-0.5-0.5-0.7-0.7c-0.3-0.2-0.5-0.3-0.7-0.3s-0.4,0.1-0.5,0.2c-0.2,0.1-0.4,0.4-0.4,0.5c-0.1,0.2-0.2,0.4-0.3,0.6
						c-0.1,0.3-0.1,0.5-0.1,0.7c0,0.3,0,0.5,0.1,0.7c0.1,0.3,0.1,0.5,0.2,0.6c0.1,0.2,0.3,0.4,0.4,0.5s0.4,0.2,0.5,0.2
						s0.3,0,0.4-0.1s0.3-0.1,0.4-0.2c0.1-0.1,0.3-0.2,0.4-0.4c0.1-0.1,0.3-0.4,0.4-0.5L478.9,211.4L478.9,211.4z"/>
				</g>
				<g>
					<path class="st14" d="M488.3,212.3c0,0.5-0.1,1-0.3,1.5c-0.1,0.4-0.4,0.8-0.6,1.1c-0.4,0.4-0.6,0.5-1,0.7s-0.9,0.3-1.5,0.3
						c-0.5,0-1-0.1-1.4-0.3s-0.7-0.4-1-0.6c-0.3-0.4-0.5-0.6-0.5-1c-0.1-0.4-0.2-0.9-0.2-1.5c0-0.5,0.1-1,0.3-1.5
						c0.1-0.4,0.4-0.8,0.6-1.1c0.4-0.4,0.6-0.5,1-0.7s0.9-0.3,1.5-0.3c0.5,0,1,0.1,1.5,0.3c0.4,0.2,0.7,0.4,1,0.6
						c0.4,0.4,0.5,0.6,0.5,1C488.3,211.3,488.3,211.7,488.3,212.3z M486.5,212.4c0-0.4,0-0.5-0.1-0.8s-0.1-0.5-0.3-0.6
						c-0.1-0.2-0.4-0.4-0.5-0.5c-0.2-0.1-0.4-0.2-0.7-0.2c-0.3,0-0.5,0.1-0.7,0.1c-0.3,0.1-0.4,0.3-0.5,0.4
						c-0.1,0.2-0.3,0.4-0.4,0.6c-0.1,0.3-0.1,0.5-0.1,0.9s0,0.5,0.1,0.8s0.1,0.5,0.3,0.6c0.2,0.2,0.4,0.4,0.5,0.4s0.4,0.2,0.7,0.2
						c0.3,0,0.5-0.1,0.7-0.1c0.2-0.1,0.4-0.3,0.5-0.4c0.1-0.2,0.3-0.4,0.4-0.6C486.5,212.9,486.5,212.7,486.5,212.4z"/>
				</g>
			</g>
		</g>
		<g>
			<path class="st14" d="M419.7,64.8h-46.5c-4.8,0-8.7,3.9-8.7,8.7v16.1c0,4.8,3.9,8.7,8.7,8.7h0.4v8.1l8.2-8.2h38.1
				c4.8,0,8.7-3.9,8.7-8.7V73.4C428.5,68.7,424.6,64.8,419.7,64.8z"/>
			<path class="st35" d="M373.1,107.5v-8.6c-5-0.1-9.1-4.2-9.1-9.1V73.5c0-5.1,4.1-9.1,9.1-9.1h46.5c5.1,0,9.1,4.1,9.1,9.1v16.1
				c0,5.1-4.1,9.1-9.1,9.1h-37.9L373.1,107.5z M373.2,65.2c-4.6,0-8.4,3.7-8.4,8.4v16.1c0,4.6,3.7,8.4,8.4,8.4h0.7v7.6l7.6-7.6h38.2
				c4.6,0,8.4-3.7,8.4-8.4V73.4c0-4.5-3.7-8.4-8.4-8.4L373.2,65.2L373.2,65.2z"/>
		</g>
		<g>
			<path class="st36" d="M454.5,268.5h-20.9v-19.6c0-2.3,1.7-4,4-4h16.9c2.3,0,4,1.7,4,4v15.6C458.5,266.7,456.7,268.5,454.5,268.5z
				"/>
		</g>
		<g>
			<path class="st14" d="M454.5,265.5h-20.9v-19.6c0-2.3,1.7-4,4-4h16.9c2.3,0,4,1.7,4,4v15.6C458.5,263.7,456.7,265.5,454.5,265.5z
				"/>
			<path class="st36" d="M454.5,265.9h-21.3v-20c0-2.5,1.9-4.4,4.4-4.4h16.9c2.5,0,4.4,1.9,4.4,4.4v15.6
				C458.9,264,457,265.9,454.5,265.9z M434,265.1h20.6c2,0,3.6-1.6,3.6-3.6v-15.6c0-2-1.6-3.6-3.6-3.6h-16.9c-2,0-3.6,1.6-3.6,3.6
				v19.2H434z"/>
		</g>
		<g>
			<g>
				
					<rect x="442.4" y="252.1" transform="matrix(0.7071 -0.7071 0.7071 0.7071 -48.0048 390.675)" class="st6" width="10.4" height="2.3"/>
			</g>
			<g>
				
					<rect x="442.3" y="251.9" transform="matrix(0.7071 -0.7071 0.7071 0.7071 -50.2876 388.194)" class="st6" width="2.3" height="5.8"/>
			</g>
		</g>
		<g>
			<path class="st36" d="M502.4,268.5h-20.9v-19.6c0-2.3,1.7-4,4-4h16.9c2.3,0,4,1.7,4,4v15.6C506.4,266.7,504.5,268.5,502.4,268.5z
				"/>
		</g>
		<g>
			<path class="st37" d="M502.4,265.5h-20.9v-19.6c0-2.3,1.7-4,4-4h16.9c2.3,0,4,1.7,4,4v15.6C506.4,263.7,504.5,265.5,502.4,265.5z
				"/>
		</g>
		<g>
			<g>
				<g>
					<path class="st14" d="M495.4,259.7c0,0.4,0,0.5-0.1,0.7c-0.1,0.3-0.1,0.4-0.3,0.5c-0.2,0.2-0.4,0.3-0.5,0.4
						c-0.2,0.1-0.5,0.1-0.7,0.1c-0.4,0-0.5,0-0.7-0.1s-0.4-0.1-0.5-0.4c-0.1-0.1-0.2-0.4-0.3-0.5c-0.1-0.3-0.1-0.5-0.1-0.7
						c0-0.4,0-0.5,0.1-0.7s0.1-0.4,0.3-0.5c0.1-0.1,0.4-0.3,0.5-0.4c0.2-0.1,0.5-0.1,0.7-0.1c0.4,0,0.5,0,0.7,0.1
						c0.3,0.1,0.4,0.2,0.5,0.4c0.2,0.2,0.3,0.4,0.3,0.5S495.4,259.4,495.4,259.7z M495.1,256.6c0,0.1-0.1,0.1-0.1,0.2
						c-0.1,0.1-0.1,0.1-0.2,0.2s-0.3,0.1-0.4,0.1c-0.2,0-0.4,0.1-0.5,0.1c-0.3,0-0.4,0-0.5-0.1c-0.2,0-0.4-0.1-0.4-0.1
						c-0.1-0.1-0.2-0.1-0.2-0.2c-0.1-0.1-0.1-0.1-0.1-0.2l-0.4-9.8c0-0.1,0-0.2,0.1-0.3s0.1-0.1,0.3-0.2c0.1-0.1,0.4-0.1,0.5-0.1
						c0.2-0.1,0.5-0.1,0.7-0.1c0.4,0,0.5,0,0.7,0.1c0.2,0,0.4,0.1,0.5,0.1c0.1,0.1,0.2,0.1,0.3,0.2s0.1,0.2,0.1,0.3L495.1,256.6z"/>
				</g>
			</g>
		</g>
	</g>
	<g>
		<g>
			<path class="st38" d="M448.7,47c0,0.1,0,0.2,0,0.3s0,0.2,0,0.2c0,0.1,0,0.1-0.1,0.2l-0.1,0.1c-0.1,0.1-0.2,0.1-0.3,0.2
				c-0.2,0.1-0.3,0.2-0.5,0.2s-0.5,0.1-0.5,0.2c-0.3,0.1-0.5,0.1-0.7,0.1c-0.5,0-1-0.1-1.5-0.3s-0.7-0.5-1.1-0.7
				c-0.4-0.4-0.5-0.7-0.6-1.3c-0.2-0.5-0.3-1.1-0.3-1.6c0-0.6,0.1-1.3,0.3-1.7s0.5-0.9,0.7-1.3c0.4-0.4,0.6-0.5,1.2-0.7
				c0.5-0.2,0.9-0.3,1.5-0.3c0.3,0,0.5,0,0.5,0.1c0.2,0,0.5,0.1,0.5,0.2c0.2,0.1,0.4,0.1,0.5,0.2c0.2,0.1,0.3,0.2,0.3,0.2
				s0.1,0.1,0.1,0.2c0,0,0,0.1,0.1,0.2c0,0.1,0,0.1,0,0.2c0,0.1,0,0.2,0,0.3s0,0.3,0,0.4c0,0.1,0,0.2,0,0.2c0,0.1-0.1,0.1-0.1,0.1
				h-0.1c-0.1,0-0.2,0-0.3-0.1c-0.1-0.1-0.3-0.2-0.4-0.3c-0.2-0.1-0.4-0.2-0.5-0.3s-0.5-0.1-0.7-0.1c-0.4,0-0.5,0.1-0.8,0.2
				c-0.3,0.2-0.5,0.4-0.5,0.5c-0.2,0.3-0.4,0.5-0.5,0.8c-0.1,0.4-0.2,0.6-0.2,1.1s0.1,0.8,0.2,1.2s0.3,0.5,0.5,0.8s0.5,0.4,0.6,0.5
				c0.3,0.2,0.5,0.2,0.8,0.2s0.5,0,0.7-0.1c0.3-0.1,0.5-0.2,0.5-0.3c0.1-0.1,0.3-0.2,0.4-0.3s0.2-0.1,0.3-0.1h0.1l0.1,0.1
				c0,0.1,0,0.1,0,0.2C448.7,46.8,448.7,46.9,448.7,47z"/>
		</g>
		<g>
			<path class="st38" d="M455.1,45.3c0,0.5-0.1,0.8-0.2,1.3c-0.1,0.4-0.4,0.6-0.5,1c-0.3,0.4-0.5,0.5-0.9,0.6
				c-0.4,0.2-0.8,0.3-1.3,0.3s-0.9-0.1-1.3-0.2c-0.4-0.2-0.6-0.4-0.8-0.5c-0.2-0.3-0.5-0.5-0.5-0.9s-0.2-0.7-0.2-1.3
				c0-0.5,0.1-0.8,0.2-1.3s0.4-0.6,0.5-1c0.3-0.3,0.5-0.5,0.9-0.5c0.4-0.2,0.7-0.3,1.3-0.3c0.5,0,0.9,0.1,1.3,0.2
				c0.4,0.1,0.6,0.4,0.8,0.5c0.2,0.3,0.5,0.5,0.5,0.9C455.1,44.4,455.1,44.8,455.1,45.3z M453.5,45.4c0-0.3,0-0.5-0.1-0.7
				s-0.1-0.5-0.3-0.5c-0.2-0.2-0.3-0.3-0.5-0.5c-0.2-0.1-0.4-0.2-0.5-0.2s-0.5,0-0.5,0.1c-0.2,0.1-0.4,0.2-0.5,0.4s-0.2,0.4-0.3,0.5
				c-0.1,0.3-0.1,0.5-0.1,0.7s0,0.5,0.1,0.7s0.1,0.5,0.3,0.5c0.1,0.2,0.3,0.3,0.5,0.5c0.2,0.1,0.4,0.2,0.5,0.2s0.5,0,0.5-0.1
				c0.2-0.1,0.4-0.2,0.5-0.4s0.2-0.4,0.3-0.5C453.5,45.9,453.5,45.6,453.5,45.4z"/>
		</g>
		<g>
			<path class="st38" d="M461.3,47.9L461.3,47.9l-0.1,0.2c-0.1,0-0.2,0-0.3,0.1c-0.1,0-0.3,0-0.4,0c-0.2,0-0.3,0-0.4,0
				s-0.2,0-0.3-0.1c-0.1,0-0.1-0.1-0.1-0.1v-0.1v-3c0-0.3,0-0.5-0.1-0.5c0-0.2-0.1-0.3-0.2-0.5c-0.1-0.1-0.2-0.2-0.3-0.3
				c-0.1-0.1-0.3-0.1-0.5-0.1s-0.5,0.1-0.5,0.3c-0.2,0.2-0.5,0.4-0.5,0.5v3.5v0.1l-0.1,0.1c-0.1,0-0.2,0-0.3,0.1
				c-0.1,0.1-0.3,0-0.4,0c-0.2,0-0.3,0-0.4,0s-0.2,0-0.3-0.1c-0.1,0-0.1-0.1-0.1-0.1v-0.1v-5.4v-0.1l0.1-0.1c0.1,0,0.1,0,0.2-0.1
				c0.1,0,0.2,0,0.4,0s0.3,0,0.4,0s0.2,0,0.2,0.1c0.1,0,0.1,0.1,0.1,0.1v0.1V43c0.4-0.4,0.5-0.5,0.9-0.7s0.5-0.3,0.9-0.3
				s0.6,0.1,0.9,0.2c0.3,0.1,0.5,0.3,0.5,0.5c0.2,0.2,0.3,0.5,0.4,0.7c0.1,0.3,0.1,0.5,0.1,1v3.3l0,0L461.3,47.9L461.3,47.9z"/>
		</g>
		<g>
			<path class="st38" d="M466.9,47.1c0,0.1,0,0.2,0,0.3s0,0.2,0,0.2v0.1l-0.1,0.1c-0.1,0.1-0.2,0.1-0.3,0.2
				c-0.1,0.1-0.3,0.1-0.5,0.2c-0.2,0.1-0.4,0.1-0.5,0.1c-0.2,0-0.4,0.1-0.5,0.1c-0.5,0-0.7-0.1-1.1-0.2c-0.4-0.2-0.5-0.4-0.8-0.5
				c-0.3-0.3-0.5-0.5-0.5-0.9c-0.1-0.4-0.2-0.7-0.2-1.3c0-0.5,0.1-1,0.2-1.5c0.2-0.5,0.4-0.6,0.5-1c0.3-0.3,0.5-0.5,0.8-0.5
				c0.4-0.1,0.6-0.2,1.1-0.2c0.2,0,0.4,0,0.5,0s0.4,0.1,0.5,0.1c0.2,0.1,0.3,0.1,0.4,0.2c0.1,0.1,0.2,0.1,0.3,0.2s0.1,0.1,0.1,0.1
				s0,0.1,0.1,0.1c0,0.1,0,0.1,0,0.2c0,0.1,0,0.2,0,0.3c0,0.3,0,0.5-0.1,0.5c0,0.1-0.1,0.2-0.2,0.2s-0.2,0-0.3-0.1s-0.2-0.1-0.3-0.2
				c-0.1-0.1-0.3-0.2-0.4-0.2c-0.2-0.1-0.4-0.1-0.5-0.1c-0.5,0-0.6,0.2-0.9,0.5s-0.4,0.7-0.4,1.4c0,0.3,0,0.5,0.1,0.7
				s0.2,0.5,0.3,0.5c0.1,0.1,0.3,0.3,0.5,0.4c0.2,0.1,0.4,0.1,0.5,0.1c0.2,0,0.5,0,0.5-0.1s0.3-0.2,0.5-0.2c0.1-0.1,0.2-0.2,0.3-0.2
				c0.1-0.1,0.2-0.1,0.2-0.1h0.1l0.1,0.1c0,0,0,0.1,0,0.2C466.9,46.9,466.9,47,466.9,47.1z"/>
		</g>
		<g>
			<path class="st38" d="M472.9,45.2c0,0.2,0,0.4-0.1,0.5s-0.2,0.2-0.4,0.2H469c0,0.3,0,0.5,0.1,0.5c0.1,0.2,0.2,0.4,0.3,0.5
				c0.1,0.2,0.3,0.3,0.5,0.4s0.5,0.1,0.6,0.1c0.3,0,0.5,0,0.6-0.1c0.2-0.1,0.4-0.1,0.5-0.1c0.2,0,0.3-0.1,0.4-0.2
				c0.1,0,0.2-0.1,0.3-0.1h0.1c0,0,0.1,0,0.1,0.1c0,0,0,0.1,0,0.2c0,0.1,0,0.2,0,0.3s0,0.2,0,0.3s0,0.1,0,0.2c0,0.1,0,0.1,0,0.1
				s0,0.1-0.1,0.1c0,0-0.1,0.1-0.3,0.1c-0.1,0.1-0.3,0.1-0.5,0.2c-0.2,0.1-0.5,0.1-0.5,0.1c-0.2,0-0.5,0.1-0.7,0.1
				c-0.5,0-0.9-0.1-1.3-0.2c-0.4-0.1-0.6-0.4-0.9-0.5c-0.3-0.2-0.5-0.5-0.5-0.9c-0.1-0.4-0.2-0.8-0.2-1.4c0-0.5,0.1-0.9,0.2-1.3
				c0.1-0.5,0.4-0.6,0.5-1c0.3-0.3,0.5-0.5,0.8-0.5c0.4-0.2,0.7-0.3,1.2-0.3s0.8,0.1,1.2,0.2c0.4,0.1,0.5,0.4,0.7,0.5
				c0.2,0.3,0.4,0.5,0.5,0.8c0.1,0.4,0.2,0.6,0.2,1v0.4L472.9,45.2L472.9,45.2z M471.3,44.7c0-0.5-0.1-0.7-0.3-1
				c-0.2-0.3-0.5-0.4-0.8-0.4c-0.2,0-0.4,0-0.5,0.1c-0.2,0.1-0.3,0.2-0.4,0.3s-0.2,0.3-0.3,0.5c-0.1,0.2-0.1,0.4-0.1,0.5L471.3,44.7
				L471.3,44.7z"/>
		</g>
		<g>
			<path class="st38" d="M475.7,40.9c0,0.4-0.1,0.5-0.2,0.6c-0.1,0.2-0.4,0.2-0.6,0.2c-0.4,0-0.5-0.1-0.6-0.2
				c-0.1-0.1-0.2-0.4-0.2-0.5c0-0.4,0.1-0.5,0.2-0.6s0.4-0.2,0.6-0.2c0.4,0,0.5,0.1,0.6,0.2C475.6,40.4,475.7,40.6,475.7,40.9z
				 M475.5,47.9L475.5,47.9l-0.1,0.2c-0.1,0-0.2,0-0.3,0.1c-0.1,0.1-0.3,0-0.4,0c-0.2,0-0.3,0-0.4,0s-0.2,0-0.3-0.1
				c-0.1,0-0.1-0.1-0.1-0.1v-0.1v-5.4v-0.1l0.1-0.1c0.1,0,0.2,0,0.3-0.1s0.3,0,0.4,0c0.2,0,0.3,0,0.4,0s0.2,0,0.3,0.1
				c0.1,0,0.1,0.1,0.1,0.1v0.1V47.9z"/>
		</g>
		<g>
			<path class="st38" d="M480.2,47.5c0,0.2,0,0.4,0,0.5s-0.1,0.2-0.1,0.2s-0.1,0.1-0.2,0.1s-0.2,0.1-0.3,0.1s-0.2,0-0.4,0.1
				c-0.1,0-0.3,0-0.4,0c-0.4,0-0.5,0-0.7-0.1c-0.3-0.1-0.5-0.2-0.5-0.4c-0.2-0.2-0.3-0.4-0.4-0.5c-0.1-0.3-0.1-0.5-0.1-0.8V44h-0.6
				c-0.1,0-0.2-0.1-0.2-0.2s-0.1-0.3-0.1-0.5c0-0.1,0-0.3,0-0.4c0-0.1,0-0.2,0.1-0.2c0-0.1,0.1-0.1,0.1-0.1h0.1h0.6v-1.3v-0.1
				l0.1-0.1c0.1,0,0.2,0,0.3-0.1c0.1,0,0.3,0,0.4,0c0.2,0,0.3,0,0.4,0s0.2,0,0.3,0.1c0.1,0,0.1,0.1,0.1,0.1v0.1v1.2h1.2h0.1l0.1,0.1
				c0,0,0,0.1,0.1,0.2c0.1,0.1,0,0.2,0,0.4c0,0.3,0,0.4-0.1,0.5c0,0.1-0.1,0.2-0.2,0.2h-1.2v2.5c0,0.3,0.1,0.5,0.2,0.6
				c0.1,0.2,0.3,0.3,0.5,0.3c0.1,0,0.2,0,0.3,0s0.1,0,0.2-0.1c0.1,0,0.1,0,0.2-0.1h0.1h0.1c0,0,0,0.1,0.1,0.1c0,0.1,0,0.1,0,0.2
				C480.2,47.3,480.2,47.4,480.2,47.5z"/>
		</g>
		<g>
			<path class="st38" d="M486.5,45.3c0,0.5-0.1,0.8-0.2,1.3c-0.1,0.4-0.4,0.6-0.5,1c-0.3,0.4-0.5,0.5-0.9,0.6
				c-0.4,0.2-0.8,0.3-1.3,0.3s-0.9-0.1-1.3-0.2c-0.4-0.2-0.6-0.4-0.8-0.5c-0.2-0.3-0.5-0.5-0.5-0.9c-0.1-0.4-0.2-0.7-0.2-1.3
				c0-0.5,0.1-0.8,0.2-1.3s0.4-0.6,0.5-1c0.3-0.3,0.5-0.5,0.9-0.5c0.4-0.2,0.7-0.3,1.3-0.3c0.5,0,0.9,0.1,1.3,0.2
				c0.4,0.1,0.6,0.4,0.8,0.5c0.2,0.3,0.5,0.5,0.5,0.9C486.4,44.4,486.5,44.8,486.5,45.3z M485,45.4c0-0.3,0-0.5-0.1-0.7
				s-0.1-0.5-0.3-0.5c-0.2-0.2-0.3-0.3-0.5-0.5c-0.2-0.1-0.4-0.2-0.5-0.2c-0.3,0-0.5,0-0.5,0.1c-0.2,0.1-0.4,0.2-0.5,0.4
				s-0.2,0.4-0.3,0.5c-0.1,0.3-0.1,0.5-0.1,0.7s0,0.5,0.1,0.7s0.1,0.5,0.3,0.5c0.1,0.2,0.3,0.3,0.5,0.5c0.2,0.1,0.4,0.2,0.5,0.2
				c0.3,0,0.5,0,0.5-0.1c0.2-0.1,0.4-0.2,0.5-0.4s0.2-0.4,0.3-0.5C485,45.9,485,45.6,485,45.4z"/>
		</g>
		<g>
			<path class="st38" d="M489.6,43.5c0,0.2,0,0.4,0,0.5s-0.1,0.2-0.2,0.3s-0.2,0.1-0.3,0.2c-0.1,0-0.3,0.1-0.5,0.1s-0.4,0-0.5-0.1
				s-0.2-0.1-0.3-0.2c-0.1-0.1-0.1-0.2-0.2-0.3c0-0.1,0-0.3,0-0.5s0-0.4,0-0.5s0.1-0.3,0.2-0.3c0.1-0.1,0.2-0.1,0.3-0.2
				c0.1-0.1,0.3-0.1,0.5-0.1s0.4,0,0.5,0.1c0.1,0,0.2,0.1,0.3,0.2c0.1,0.1,0.1,0.2,0.2,0.3S489.6,43.3,489.6,43.5z M489.6,47.4
				c0,0.2,0,0.4,0,0.5s-0.1,0.2-0.2,0.3s-0.2,0.1-0.3,0.2c-0.1,0-0.3,0.1-0.5,0.1s-0.4,0-0.5-0.1c-0.1,0-0.2-0.1-0.3-0.2
				s-0.1-0.2-0.2-0.3c0-0.1,0-0.3,0-0.5s0-0.4,0-0.5s0.1-0.3,0.2-0.3c0.1-0.1,0.2-0.1,0.3-0.2c0.1-0.1,0.3-0.1,0.5-0.1
				s0.4,0,0.5,0.1c0.1,0,0.2,0.1,0.3,0.2c0.1,0.1,0.1,0.2,0.2,0.3S489.6,47.2,489.6,47.4z"/>
		</g>
	</g>
</g>
<g>
	<g>
		<path class="st36" d="M541.2,369.8H405.5V366h131.8C539.4,366,541.2,367.7,541.2,369.8L541.2,369.8z"/>
	</g>
	<g>
		<path class="st36" d="M541.2,420.8H405.5V417h131.8C539.4,416.9,541.2,418.6,541.2,420.8L541.2,420.8z"/>
	</g>
	<g>
		<path class="st32" d="M441,434.6c0,0.1,0,0.2,0,0.3c0,0.1,0,0.1,0,0.2c0,0,0,0.1-0.1,0.1h-0.1h-3.1c-0.1,0-0.2,0-0.3-0.1
			c-0.1-0.1-0.1-0.2-0.1-0.3v-6.3v-0.1c0,0,0.1,0,0.1-0.1c0,0,0.1,0,0.2,0s0.2,0,0.3,0c0.1,0,0.2,0,0.3,0c0.1,0,0.1,0,0.2,0
			c0,0,0.1,0,0.1,0.1s0,0.1,0,0.1v5.7h2.1h0.1c0,0,0,0,0.1,0.1s0,0.1,0,0.2C441,434.4,441,434.5,441,434.6z"/>
		<path class="st32" d="M446.2,432.5c0,0.2,0,0.3-0.1,0.3c-0.1,0.1-0.2,0.1-0.3,0.1h-2.9c0,0.2,0,0.4,0.1,0.5c0,0.2,0.1,0.3,0.2,0.4
			s0.2,0.2,0.4,0.2c0.2,0.1,0.3,0.1,0.6,0.1c0.2,0,0.4,0,0.6,0s0.3-0.1,0.4-0.1s0.2-0.1,0.3-0.1c0.1,0,0.1,0,0.2,0h0.1
			c0,0,0,0,0,0.1v0.1c0,0.1,0,0.1,0,0.2s0,0.1,0,0.2s0,0.1,0,0.1v0.1c0,0,0,0-0.1,0.1c0,0-0.1,0.1-0.2,0.1s-0.2,0.1-0.4,0.1
			c-0.1,0-0.3,0.1-0.5,0.1s-0.4,0-0.6,0c-0.4,0-0.7,0-1.1-0.1c-0.3-0.1-0.5-0.2-0.7-0.5c-0.2-0.2-0.3-0.5-0.4-0.9
			c-0.1-0.3-0.1-0.7-0.1-1.2c0-0.4,0.1-0.7,0.2-1.2c0.1-0.4,0.3-0.6,0.4-0.9c0.2-0.2,0.4-0.4,0.7-0.5c0.3-0.1,0.6-0.2,1-0.2
			s0.7,0.1,1,0.2s0.5,0.3,0.6,0.5s0.3,0.4,0.4,0.7c0.1,0.3,0.1,0.6,0.1,1L446.2,432.5L446.2,432.5z M444.9,432.1
			c0-0.4-0.1-0.6-0.2-0.9c-0.2-0.2-0.4-0.3-0.7-0.3c-0.2,0-0.3,0-0.4,0.1s-0.2,0.1-0.3,0.2c-0.1,0.1-0.1,0.2-0.2,0.4
			c0,0.1-0.1,0.3-0.1,0.4L444.9,432.1L444.9,432.1z"/>
		<path class="st32" d="M450.2,434.5c0,0.1,0,0.3,0,0.3c0,0.1,0,0.1-0.1,0.2l-0.1,0.1c-0.1,0-0.1,0-0.2,0.1c-0.1,0-0.2,0-0.3,0
			s-0.2,0-0.3,0c-0.2,0-0.5,0-0.6-0.1s-0.3-0.2-0.5-0.3c-0.1-0.1-0.2-0.3-0.3-0.5s-0.1-0.4-0.1-0.7v-2.5h-0.5c-0.1,0-0.1,0-0.1-0.1
			s0-0.2,0-0.4c0-0.1,0-0.2,0-0.2c0-0.1,0-0.1,0-0.2c0,0,0-0.1,0.1-0.1s0.1,0,0.1,0h0.5V429v-0.1c0,0,0.1,0,0.1-0.1s0.1,0,0.2,0
			s0.2,0,0.3,0s0.2,0,0.3,0s0.1,0,0.2,0c0,0,0.1,0,0.1,0.1v0.1v1.1h1.1h0.1c0,0,0,0,0.1,0.1s0,0.1,0,0.2s0,0.1,0,0.2
			c0,0.2,0,0.3,0,0.4s-0.1,0.1-0.1,0.1h-1.1v2.2c0,0.2,0,0.4,0.1,0.5s0.2,0.2,0.4,0.2c0.1,0,0.1,0,0.2,0s0.1,0,0.1,0h0.1h0.1
			c0,0,0,0,0.1,0c0,0,0,0,0,0.1v0.1C450.2,434.3,450.2,434.4,450.2,434.5z"/>
		<path class="st32" d="M453.2,428.2c0,0.1,0,0.2,0,0.4c0,0.1,0,0.2-0.1,0.3c0,0.1-0.1,0.2-0.1,0.3c0,0.1-0.1,0.2-0.2,0.3l-0.7,1.1
			c0,0,0,0.1-0.1,0.1c0,0-0.1,0-0.1,0.1h-0.1c-0.1,0-0.1,0-0.2,0s-0.2,0-0.2,0c-0.1,0-0.1,0-0.1,0s0,0,0-0.1l0,0l0.6-1.5v-0.9
			c0-0.1,0-0.2,0-0.3s0.1-0.1,0.1-0.2c0.1,0,0.1-0.1,0.2-0.1s0.2,0,0.3,0s0.2,0,0.3,0s0.2,0,0.2,0.1s0.1,0.1,0.1,0.2
			C453.2,428,453.2,428.1,453.2,428.2z"/>
		<path class="st32" d="M457.4,433.7c0,0.3,0,0.5-0.1,0.7s-0.2,0.4-0.4,0.5c-0.2,0.1-0.4,0.2-0.6,0.3c-0.2,0.1-0.5,0.1-0.9,0.1
			c-0.2,0-0.3,0-0.5,0s-0.3-0.1-0.4-0.1s-0.2-0.1-0.3-0.1c-0.1,0-0.1-0.1-0.2-0.1c0,0-0.1-0.1-0.1-0.2s0-0.2,0-0.3
			c0-0.1,0-0.2,0-0.2c0-0.1,0-0.1,0-0.1v-0.1c0,0,0,0,0.1,0c0,0,0.1,0,0.2,0.1c0.1,0,0.2,0.1,0.3,0.1c0.1,0,0.2,0.1,0.4,0.1
			c0.1,0,0.3,0.1,0.5,0.1c0.1,0,0.2,0,0.3,0c0.1,0,0.2-0.1,0.2-0.1s0.1-0.1,0.1-0.2s0-0.1,0-0.2s0-0.2-0.1-0.3
			c-0.1-0.1-0.1-0.1-0.2-0.2s-0.2-0.1-0.3-0.1c-0.1,0-0.3-0.1-0.4-0.2s-0.3-0.1-0.4-0.2s-0.2-0.2-0.3-0.3c-0.1-0.1-0.2-0.2-0.2-0.4
			c-0.1-0.1-0.1-0.3-0.1-0.5s0-0.4,0.1-0.6s0.2-0.3,0.4-0.5c0.2-0.1,0.3-0.2,0.6-0.3c0.2-0.1,0.5-0.1,0.9-0.1c0.1,0,0.3,0,0.4,0
			s0.2,0,0.4,0.1c0.1,0,0.2,0.1,0.3,0.1c0.1,0,0.1,0.1,0.2,0.1c0,0,0.1,0,0.1,0.1v0.1v0.1c0,0.1,0,0.1,0,0.2s0,0.2,0,0.2
			c0,0.1,0,0.1,0,0.1v0.1c0,0,0,0-0.1,0c0,0-0.1,0-0.1-0.1c-0.1,0-0.1-0.1-0.2-0.1s-0.2-0.1-0.3-0.1s-0.3-0.1-0.4-0.1s-0.2,0-0.3,0
			c-0.1,0-0.2,0.1-0.2,0.1s-0.1,0.1-0.1,0.2s0,0.1,0,0.2s0,0.2,0.1,0.3s0.1,0.1,0.2,0.2s0.2,0.1,0.3,0.1c0.1,0,0.3,0.1,0.4,0.2
			s0.3,0.1,0.4,0.2s0.2,0.2,0.3,0.3c0.1,0.1,0.2,0.2,0.2,0.4C457.3,433.2,457.4,433.5,457.4,433.7z"/>
		<path class="st32" d="M468.2,430.2v0.1c0,0,0,0.1-0.1,0.2l-1.3,4.3c0,0.1,0,0.1-0.1,0.1l-0.1,0.1c-0.1,0-0.1,0-0.2,0s-0.2,0-0.4,0
			c-0.2,0-0.3,0-0.4,0s-0.2,0-0.2,0c-0.1,0-0.1,0-0.1-0.1c0,0,0-0.1-0.1-0.1l-0.7-2.9l0,0l0,0l-0.7,2.9c0,0.1,0,0.1-0.1,0.1
			l-0.1,0.1c-0.1,0-0.1,0-0.2,0s-0.2,0-0.4,0c-0.2,0-0.3,0-0.4,0s-0.2,0-0.2,0c-0.1,0-0.1,0-0.1-0.1c0,0,0-0.1-0.1-0.1l-1.3-4.3
			c0-0.1,0-0.2-0.1-0.2c0-0.1,0-0.1,0-0.1v-0.1c0,0,0.1,0,0.1-0.1c0,0,0.1,0,0.2,0s0.2,0,0.3,0c0.1,0,0.2,0,0.3,0c0.1,0,0.1,0,0.2,0
			s0.1,0,0.1,0.1v0.1l1,3.4v0.1v-0.1l0.9-3.4v-0.1l0.1-0.1c0,0,0.1,0,0.2,0s0.2,0,0.3,0c0.1,0,0.2,0,0.3,0c0.1,0,0.1,0,0.2,0
			c0,0,0.1,0,0.1,0.1v0.1l1,3.5v0.1v-0.1l0.9-3.4v-0.1l0.1-0.1c0,0,0.1,0,0.2,0s0.2,0,0.3,0s0.2,0,0.3,0s0.1,0,0.2,0
			C468.1,430,468.1,430,468.2,430.2C468.2,430,468.2,430.2,468.2,430.2z"/>
		<path class="st32" d="M473.7,432.6c0,0.4,0,0.7-0.1,1.1c-0.1,0.3-0.2,0.6-0.5,0.9c-0.2,0.2-0.5,0.4-0.9,0.5
			c-0.3,0.1-0.7,0.2-1.2,0.2s-0.7-0.1-1.1-0.2c-0.3-0.1-0.5-0.3-0.7-0.5s-0.3-0.5-0.4-0.9c-0.1-0.3-0.1-0.7-0.1-1.1s0.1-0.7,0.2-1.1
			c0.1-0.3,0.3-0.6,0.5-0.9s0.5-0.4,0.9-0.5c0.3-0.1,0.7-0.2,1.2-0.2s0.7,0.1,1.1,0.2c0.3,0.1,0.5,0.3,0.7,0.5s0.3,0.5,0.4,0.9
			C473.7,431.7,473.7,432.2,473.7,432.6z M472.3,432.6c0-0.2,0-0.4-0.1-0.6c0-0.2-0.1-0.3-0.2-0.5c-0.1-0.1-0.2-0.2-0.3-0.3
			s-0.3-0.1-0.5-0.1s-0.3,0-0.5,0.1s-0.3,0.2-0.3,0.3c-0.1,0.1-0.2,0.3-0.2,0.5s-0.1,0.4-0.1,0.6s0,0.4,0.1,0.6
			c0,0.2,0.1,0.3,0.2,0.5s0.2,0.2,0.3,0.3c0.1,0.1,0.3,0.1,0.5,0.1s0.4,0,0.5-0.1s0.3-0.2,0.3-0.3c0.1-0.1,0.2-0.3,0.2-0.5
			C472.2,433,472.3,432.9,472.3,432.6z"/>
		<path class="st32" d="M478,430.7c0,0.1,0,0.2,0,0.3s0,0.1,0,0.2c0,0,0,0.1-0.1,0.1s0,0-0.1,0h-0.1h-0.1h-0.1c0,0-0.1,0-0.2,0
			s-0.1,0-0.2,0s-0.1,0.1-0.2,0.1c-0.1,0.1-0.2,0.1-0.2,0.2c-0.1,0.1-0.2,0.2-0.3,0.4v3v0.1c0,0-0.1,0-0.1,0.1s-0.1,0-0.2,0
			s-0.2,0-0.3,0c-0.1,0-0.2,0-0.3,0c-0.1,0-0.1,0-0.2,0s-0.1,0-0.1-0.1V435v-4.8v-0.1c0,0,0,0,0.1-0.1s0.1,0,0.2,0s0.2,0,0.3,0
			c0.1,0,0.2,0,0.3,0c0.1,0,0.1,0,0.2,0c0,0,0.1,0,0.1,0.1v0.1v0.6c0.1-0.2,0.2-0.3,0.3-0.4c0.1-0.1,0.2-0.2,0.3-0.3
			c0.1-0.1,0.2-0.1,0.3-0.1c0.1,0,0.2,0,0.3,0h0.1c0,0,0.1,0,0.2,0s0.1,0,0.1,0h0.1c0,0,0,0,0,0.1c0,0,0,0,0,0.1c0,0,0,0.1,0,0.2
			C478,430.4,478,430.6,478,430.7z"/>
		<path class="st32" d="M483.3,435C483.3,435.1,483.3,435.1,483.3,435c0,0.1-0.1,0.1-0.1,0.1s-0.1,0-0.2,0s-0.2,0-0.3,0
			c-0.1,0-0.2,0-0.3,0c-0.1,0-0.2,0-0.2,0c-0.1,0-0.1,0-0.1-0.1s-0.1-0.1-0.1-0.1l-1.6-2.5v2.5v0.1c0,0-0.1,0-0.1,0.1s-0.1,0-0.2,0
			s-0.2,0-0.3,0s-0.2,0-0.3,0s-0.1,0-0.2,0s-0.1,0-0.1-0.1v-0.2v-7v-0.1c0,0,0.1,0,0.1-0.1c0,0,0.1,0,0.2,0s0.2,0,0.3,0s0.2,0,0.3,0
			s0.1,0,0.2,0c0,0,0.1,0,0.1,0.1s0,0.1,0,0.1v4.2l1.4-1.9l0.1-0.1l0.1-0.1c0,0,0.1,0,0.2,0s0.2,0,0.3,0s0.2,0,0.3,0s0.2,0,0.2,0
			c0.1,0,0.1,0,0.1,0.1v0.1c0,0,0,0.1,0,0.2s-0.1,0.1-0.1,0.2l-1.4,1.6l1.6,2.5c0,0.1,0.1,0.1,0.1,0.2
			C483.3,435,483.3,435,483.3,435z"/>
		<path class="st32" d="M491.4,432.6c0,0.4,0,0.7-0.1,1.1c-0.1,0.3-0.2,0.6-0.5,0.9c-0.2,0.2-0.5,0.4-0.9,0.5
			c-0.3,0.1-0.7,0.2-1.2,0.2c-0.4,0-0.7-0.1-1.1-0.2c-0.3-0.1-0.5-0.3-0.7-0.5s-0.3-0.5-0.4-0.9c-0.1-0.3-0.1-0.7-0.1-1.1
			s0.1-0.7,0.2-1.1c0.1-0.3,0.3-0.6,0.5-0.9s0.5-0.4,0.9-0.5c0.3-0.1,0.7-0.2,1.2-0.2c0.4,0,0.7,0.1,1.1,0.2
			c0.3,0.1,0.5,0.3,0.7,0.5s0.3,0.5,0.4,0.9C491.3,431.7,491.4,432.2,491.4,432.6z M490.1,432.6c0-0.2,0-0.4-0.1-0.6
			c0-0.2-0.1-0.3-0.2-0.5c-0.1-0.1-0.2-0.2-0.3-0.3s-0.3-0.1-0.5-0.1s-0.3,0-0.5,0.1s-0.3,0.2-0.3,0.3c-0.1,0.1-0.2,0.3-0.2,0.5
			s-0.1,0.4-0.1,0.6s0,0.4,0.1,0.6c0,0.2,0.1,0.3,0.2,0.5s0.2,0.2,0.3,0.3c0.1,0.1,0.3,0.1,0.5,0.1s0.4,0,0.5-0.1s0.3-0.2,0.3-0.3
			c0.1-0.1,0.2-0.3,0.2-0.5S490.1,432.9,490.1,432.6z"/>
		<path class="st32" d="M497.1,435C497.1,435.1,497.1,435.1,497.1,435c0,0.1-0.1,0.1-0.1,0.1s-0.1,0-0.2,0s-0.2,0-0.3,0
			c-0.1,0-0.2,0-0.3,0c-0.1,0-0.1,0-0.2,0c0,0-0.1,0-0.1-0.1v-0.2v-2.7c0-0.2,0-0.4,0-0.5s-0.1-0.2-0.1-0.3
			c-0.1-0.1-0.1-0.2-0.2-0.2s-0.2-0.1-0.3-0.1c-0.2,0-0.3,0.1-0.5,0.2s-0.3,0.3-0.5,0.5v3.1v0.1c0,0-0.1,0-0.1,0.1s-0.1,0-0.2,0
			s-0.2,0-0.3,0s-0.2,0-0.3,0s-0.1,0-0.2,0s-0.1,0-0.1-0.1v-0.1V430v-0.1c0,0,0,0,0.1-0.1s0.1,0,0.2,0s0.2,0,0.3,0s0.2,0,0.3,0
			s0.1,0,0.2,0c0,0,0.1,0,0.1,0.1v0.1v0.5c0.2-0.3,0.5-0.5,0.7-0.6c0.3-0.1,0.5-0.2,0.9-0.2c0.3,0,0.6,0,0.9,0.1s0.4,0.2,0.5,0.4
			c0.1,0.2,0.2,0.4,0.3,0.6c0.1,0.2,0.1,0.5,0.1,0.9v3.1h-0.6L497.1,435L497.1,435z"/>
		<path class="st32" d="M502.4,428.6c0,0.3-0.1,0.4-0.2,0.5s-0.3,0.1-0.6,0.1c-0.3,0-0.5,0-0.6-0.1s-0.1-0.3-0.1-0.5
			c0-0.3,0.1-0.4,0.2-0.5s0.3-0.1,0.6-0.1s0.5,0,0.6,0.1C502.3,428.1,502.4,428.3,502.4,428.6z M502.3,435
			C502.3,435.1,502.3,435.1,502.3,435c0,0.1-0.1,0.1-0.1,0.1s-0.1,0-0.2,0s-0.2,0-0.3,0s-0.2,0-0.3,0c-0.1,0-0.1,0-0.2,0
			s-0.1,0-0.1-0.1v-0.2V430v-0.1c0,0,0.1,0,0.1-0.1c0,0,0.1,0,0.2,0s0.2,0,0.3,0s0.2,0,0.3,0s0.1,0,0.2,0c0,0,0.1,0,0.1,0.1v0.1V435
			z"/>
		<path class="st32" d="M506.5,434.5c0,0.1,0,0.3,0,0.3c0,0.1,0,0.1-0.1,0.2l-0.1,0.1c-0.1,0-0.1,0-0.2,0.1c-0.1,0-0.2,0-0.3,0
			s-0.2,0-0.3,0c-0.2,0-0.5,0-0.6-0.1s-0.3-0.2-0.5-0.3c-0.1-0.1-0.2-0.3-0.3-0.5s-0.1-0.4-0.1-0.7v-2.5h-0.5c-0.1,0-0.1,0-0.1-0.1
			s0-0.2,0-0.4c0-0.1,0-0.2,0-0.2c0-0.1,0-0.1,0-0.2c0,0,0-0.1,0.1-0.1s0.1,0,0.1,0h0.5V429v-0.1c0,0,0.1,0,0.1-0.1s0.1,0,0.2,0
			s0.2,0,0.3,0s0.2,0,0.3,0s0.1,0,0.2,0c0,0,0.1,0,0.1,0.1v0.1v1.1h1.1h0.1c0,0,0,0,0.1,0.1s0,0.1,0,0.2s0,0.1,0,0.2
			c0,0.2,0,0.3,0,0.4s-0.1,0.1-0.1,0.1h-1.1v2.2c0,0.2,0,0.4,0.1,0.5s0.2,0.2,0.4,0.2c0.1,0,0.1,0,0.2,0s0.1,0,0.1,0h0.1h0.1
			c0,0,0,0,0.1,0c0,0,0,0,0,0.1v0.1C506.5,434.3,506.5,434.4,506.5,434.5z"/>
		<path class="st32" d="M509.5,434.5c0,0.1,0,0.3,0,0.3c0,0.1-0.1,0.2-0.1,0.2c-0.1,0.1-0.1,0.1-0.2,0.1s-0.2,0-0.3,0s-0.2,0-0.3,0
			s-0.2-0.1-0.2-0.1c-0.1-0.1-0.1-0.1-0.1-0.2s0-0.2,0-0.3c0-0.1,0-0.3,0-0.3c0-0.1,0.1-0.2,0.1-0.2c0.1-0.1,0.1-0.1,0.2-0.1
			s0.2,0,0.3,0s0.2,0,0.3,0s0.2,0.1,0.2,0.1s0.1,0.1,0.1,0.2C509.5,434.2,509.5,434.3,509.5,434.5z M509.2,432.9
			C509.2,432.9,509.2,433,509.2,432.9c0,0.1-0.1,0.1-0.1,0.2s-0.1,0-0.2,0s-0.2,0-0.3,0c-0.1,0-0.2,0-0.3,0c-0.1,0-0.1,0-0.2,0
			s-0.1,0-0.1-0.1v-0.1l-0.1-4.9v-0.1l0.1-0.1c0.1,0,0.1,0,0.2,0s0.2,0,0.3,0s0.2,0,0.3,0s0.2,0,0.2,0c0.1,0,0.1,0,0.1,0.1
			s0,0.1,0,0.1L509.2,432.9z"/>
	</g>
	<g>
		<path class="st32" d="M450.7,420.8h-45.3V417h41.4C449,416.9,450.7,418.6,450.7,420.8L450.7,420.8z"/>
	</g>
	<g>
		<path class="st33" d="M495.9,369.8h-90.4V366h86.6C494.2,366,495.9,367.7,495.9,369.8L495.9,369.8z"/>
	</g>
	<g>
		<line class="st39" x1="405.5" y1="402.9" x2="405.5" y2="412.1"/>
		<rect x="405.3" y="402.9" class="st35" width="0.3" height="9.2"/>
	</g>
	<g>
		<line class="st39" x1="428.8" y1="407.6" x2="428.8" y2="412.1"/>
		<rect x="428.7" y="407.6" class="st35" width="0.3" height="4.7"/>
	</g>
	<g>
		<line class="st39" x1="450.7" y1="402.9" x2="450.7" y2="412.1"/>
		<rect x="450.6" y="402.9" class="st35" width="0.3" height="9.2"/>
	</g>
	<g>
		<line class="st39" x1="474" y1="407.6" x2="474" y2="412.1"/>
		<rect x="473.9" y="407.6" class="st35" width="0.3" height="4.7"/>
	</g>
	<g>
		<line class="st39" x1="495.9" y1="402.9" x2="495.9" y2="412.1"/>
		<rect x="495.8" y="402.9" class="st35" width="0.3" height="9.2"/>
	</g>
	<g>
		<line class="st39" x1="519.3" y1="407.6" x2="519.3" y2="412.1"/>
		<rect x="519.2" y="407.6" class="st35" width="0.3" height="4.7"/>
	</g>
	<g>
		<line class="st39" x1="541.2" y1="402.9" x2="541.2" y2="412.1"/>
		<rect x="541" y="402.9" class="st35" width="0.3" height="9.2"/>
	</g>
	<g>
		<path class="st33" d="M430.1,381.6v2.5v0.1c0,0-0.1,0-0.1,0.1s-0.1,0-0.2,0s-0.2,0-0.3,0s-0.2,0-0.3,0s-0.1,0-0.2,0
			s-0.1,0-0.1-0.1v-0.1v-2.5l-1.9-3.7c-0.1-0.1-0.1-0.2-0.1-0.3c0-0.1,0-0.1,0-0.2c0,0,0.1-0.1,0.2-0.1s0.2,0,0.4,0
			c0.2,0,0.3,0,0.4,0s0.2,0,0.2,0c0.1,0,0.1,0,0.1,0.1c0,0,0,0.1,0.1,0.1l0.7,1.7c0.1,0.2,0.1,0.3,0.2,0.5s0.1,0.3,0.2,0.5l0,0
			c0.1-0.2,0.1-0.4,0.2-0.5c0.1-0.2,0.1-0.3,0.2-0.5l0.7-1.7c0-0.1,0-0.1,0.1-0.1l0.1-0.1c0,0,0.1,0,0.2,0s0.2,0,0.3,0
			c0.2,0,0.3,0,0.4,0s0.2,0,0.2,0.1c0,0,0,0.1,0,0.2s-0.1,0.2-0.1,0.3L430.1,381.6z"/>
		<path class="st33" d="M437.2,381.6c0,0.4,0,0.7-0.1,1.1c-0.1,0.3-0.2,0.6-0.5,0.9c-0.2,0.2-0.5,0.4-0.9,0.5
			c-0.3,0.1-0.7,0.2-1.2,0.2c-0.4,0-0.7-0.1-1.1-0.2s-0.5-0.3-0.7-0.5s-0.3-0.5-0.4-0.9c-0.1-0.3-0.1-0.7-0.1-1.1s0.1-0.7,0.2-1.1
			c0.1-0.3,0.3-0.6,0.5-0.9c0.2-0.2,0.5-0.4,0.9-0.5c0.3-0.1,0.7-0.2,1.2-0.2s0.7,0.1,1.1,0.2c0.3,0.1,0.5,0.3,0.7,0.5
			s0.3,0.5,0.4,0.9C437.1,380.8,437.2,381.2,437.2,381.6z M435.8,381.7c0-0.2,0-0.4-0.1-0.6c0-0.2-0.1-0.3-0.2-0.5
			c-0.1-0.1-0.2-0.2-0.3-0.3c-0.1-0.1-0.3-0.1-0.5-0.1s-0.3,0-0.5,0.1s-0.3,0.2-0.3,0.3c-0.1,0.1-0.2,0.3-0.2,0.5s-0.1,0.4-0.1,0.6
			s0,0.4,0.1,0.6c0,0.2,0.1,0.3,0.2,0.5s0.2,0.2,0.3,0.3c0.1,0.1,0.3,0.1,0.5,0.1s0.4,0,0.5-0.1s0.3-0.2,0.3-0.3
			c0.1-0.1,0.2-0.3,0.2-0.5C435.7,382.1,435.8,381.9,435.8,381.7z"/>
		<path class="st33" d="M442.9,384L442.9,384c0,0.1-0.1,0.1-0.1,0.1s-0.1,0-0.2,0s-0.2,0-0.3,0c-0.1,0-0.2,0-0.3,0
			c-0.1,0-0.1,0-0.2,0c0,0-0.1,0-0.1-0.1v-0.1v-0.4c-0.2,0.3-0.5,0.5-0.7,0.6c-0.3,0.1-0.5,0.2-0.9,0.2c-0.3,0-0.6,0-0.9-0.1
			c-0.2-0.1-0.4-0.2-0.5-0.4c-0.1-0.2-0.2-0.4-0.3-0.6c-0.1-0.2-0.1-0.5-0.1-0.9v-3.1v-0.1c0,0,0.1,0,0.1-0.1c0,0,0.1,0,0.2,0
			s0.2,0,0.3,0s0.2,0,0.3,0s0.1,0,0.2,0s0.1,0,0.1,0.1v0.1v2.7c0,0.2,0,0.4,0,0.5s0.1,0.2,0.1,0.3c0.1,0.1,0.1,0.2,0.2,0.2
			s0.2,0.1,0.3,0.1c0.2,0,0.3-0.1,0.5-0.2s0.3-0.3,0.5-0.5v-3.1v-0.1c0,0,0.1,0,0.1-0.1s0.1,0,0.2,0s0.2,0,0.3,0c0.1,0,0.2,0,0.3,0
			c0.1,0,0.1,0,0.2,0s0.1,0,0.1,0.1v0.1v4.9h0.6V384z"/>
		<path class="st33" d="M446,377.2c0,0.1,0,0.2,0,0.4c0,0.1,0,0.2-0.1,0.3c0,0.1-0.1,0.2-0.1,0.3c0,0.1-0.1,0.2-0.2,0.3l-0.7,1.1
			c0,0,0,0.1-0.1,0.1c0,0-0.1,0-0.1,0.1h-0.1c-0.1,0-0.1,0-0.2,0s-0.2,0-0.2,0c-0.1,0-0.1,0-0.1,0s0,0,0-0.1v-0.1l0.6-1.5v-0.9
			c0-0.1,0-0.2,0-0.3c0-0.1,0.1-0.1,0.1-0.2c0.1,0,0.1-0.1,0.2-0.1s0.2,0,0.3,0s0.2,0,0.3,0s0.2,0,0.2,0.1s0.1,0.1,0.1,0.2
			C446,377,446,377.1,446,377.2z"/>
		<path class="st33" d="M449.8,379.8c0,0.1,0,0.2,0,0.3c0,0.1,0,0.1,0,0.2c0,0,0,0.1-0.1,0.1s0,0-0.1,0h-0.1h-0.1h-0.1
			c0,0-0.1,0-0.2,0s-0.1,0-0.2,0s-0.1,0.1-0.2,0.1c-0.1,0.1-0.2,0.1-0.2,0.2c-0.1,0.1-0.2,0.2-0.3,0.4v3v0.1c0,0-0.1,0-0.1,0.1
			s-0.1,0-0.2,0s-0.2,0-0.3,0c-0.1,0-0.2,0-0.3,0c-0.1,0-0.1,0-0.2,0s-0.1,0-0.1-0.1l0,0v-5.1V379c0,0,0,0,0.1-0.1s0.1,0,0.2,0
			s0.2,0,0.3,0c0.1,0,0.2,0,0.3,0c0.1,0,0.1,0,0.2,0c0,0,0.1,0,0.1,0.1v0.1v0.6c0.1-0.2,0.2-0.3,0.3-0.4c0.1-0.1,0.2-0.2,0.3-0.3
			c0.1-0.1,0.2-0.1,0.3-0.1c0.1,0,0.2,0,0.3,0h0.1c0,0,0.1,0,0.2,0s0.1,0,0.1,0h0.1c0,0,0,0,0,0.1c0,0,0,0,0,0.1c0,0,0,0.1,0,0.2
			C449.8,379.5,449.8,379.6,449.8,379.8z"/>
		<path class="st33" d="M455,381.5c0,0.2,0,0.3-0.1,0.3c-0.1,0.1-0.2,0.1-0.3,0.1h-2.9c0,0.2,0,0.4,0.1,0.5c0,0.2,0.1,0.3,0.2,0.4
			s0.2,0.2,0.4,0.2c0.2,0.1,0.3,0.1,0.6,0.1c0.2,0,0.4,0,0.6,0s0.3-0.1,0.4-0.1s0.2-0.1,0.3-0.1c0.1,0,0.1,0,0.2,0h0.1
			c0,0,0,0,0,0.1v0.1c0,0.1,0,0.1,0,0.2s0,0.1,0,0.2s0,0.1,0,0.1v0.1c0,0,0,0-0.1,0.1c0,0-0.1,0.1-0.2,0.1s-0.2,0.1-0.4,0.1
			c-0.1,0-0.3,0.1-0.5,0.1s-0.4,0-0.6,0c-0.4,0-0.7,0-1.1-0.1c-0.3-0.1-0.5-0.2-0.7-0.5c-0.2-0.2-0.3-0.5-0.4-0.9
			c-0.1-0.3-0.1-0.7-0.1-1.2c0-0.4,0.1-0.7,0.2-1.2c0.1-0.4,0.3-0.6,0.4-0.9c0.2-0.2,0.4-0.4,0.7-0.5c0.3-0.1,0.6-0.2,1-0.2
			s0.7,0.1,1,0.2s0.5,0.3,0.6,0.5s0.3,0.4,0.4,0.7c0.1,0.3,0.1,0.6,0.1,1L455,381.5L455,381.5z M453.8,381.2c0-0.4-0.1-0.6-0.2-0.9
			c-0.2-0.2-0.4-0.3-0.7-0.3c-0.2,0-0.3,0-0.4,0.1s-0.2,0.1-0.3,0.2s-0.1,0.2-0.2,0.4c0,0.1-0.1,0.3-0.1,0.4L453.8,381.2
			L453.8,381.2z"/>
		<path class="st33" d="M462.7,384v0.1c0,0-0.1,0-0.2,0.1s-0.2,0-0.3,0c-0.1,0-0.3,0-0.3,0c-0.1,0-0.1,0-0.1-0.1s0-0.1,0-0.1v-0.4
			c-0.2,0.2-0.4,0.3-0.6,0.5c-0.2,0.1-0.5,0.2-0.9,0.2c-0.2,0-0.5,0-0.6-0.1c-0.2-0.1-0.4-0.2-0.5-0.3c-0.1-0.1-0.3-0.3-0.3-0.4
			c-0.1-0.2-0.1-0.4-0.1-0.6c0-0.3,0.1-0.5,0.2-0.7s0.3-0.3,0.5-0.5s0.4-0.2,0.7-0.3c0.3-0.1,0.6-0.1,1.1-0.1h0.4V381
			c0-0.1,0-0.3,0-0.4s-0.1-0.2-0.1-0.3c-0.1-0.1-0.2-0.1-0.3-0.2c-0.1-0.1-0.2,0-0.4,0c-0.2,0-0.4,0-0.6,0.1c-0.2,0-0.3,0.1-0.4,0.2
			s-0.2,0.1-0.3,0.2c-0.1,0-0.2,0.1-0.2,0.1h-0.1l-0.1-0.1c0,0,0-0.1,0-0.2s0-0.1,0-0.2s0-0.2,0-0.2s0-0.1,0.1-0.2
			c0,0,0.1-0.1,0.2-0.2s0.3-0.1,0.4-0.2c0.2,0,0.3-0.1,0.5-0.1s0.4,0,0.6,0c0.3,0,0.6,0,1,0.1c0.2,0.1,0.4,0.2,0.6,0.3
			c0.2,0.1,0.3,0.3,0.3,0.5c0.1,0.2,0.1,0.5,0.1,0.9v3.2h-0.3L462.7,384L462.7,384z M461.5,382H461c-0.2,0-0.4,0-0.5,0
			s-0.3,0.1-0.3,0.1c-0.1,0.1-0.2,0.1-0.2,0.2s-0.1,0.2-0.1,0.3c0,0.2,0.1,0.3,0.2,0.4s0.3,0.2,0.5,0.2s0.3,0,0.5-0.1
			c0.1-0.1,0.3-0.2,0.4-0.4V382L461.5,382z"/>
		<path class="st33" d="M465.6,384C465.6,384,465.5,384,465.6,384c0,0.1-0.1,0.1-0.1,0.1s-0.1,0-0.2,0s-0.2,0-0.3,0s-0.2,0-0.3,0
			s-0.1,0-0.2,0s-0.1,0-0.1-0.1v-0.1V377v-0.1c0,0,0.1,0,0.1-0.1c0,0,0.1,0,0.2,0s0.2,0,0.3,0s0.2,0,0.3,0s0.1,0,0.2,0
			c0,0,0.1,0,0.1,0.1s0,0.1,0,0.1V384z"/>
		<path class="st33" d="M474.6,384L474.6,384c0,0.1-0.1,0.1-0.1,0.1s-0.1,0-0.2,0s-0.2,0-0.3,0c-0.1,0-0.2,0-0.3,0
			c-0.1,0-0.1,0-0.2,0s-0.1,0-0.1-0.1v-0.1v-2.7c0-0.1,0-0.3,0-0.4s-0.1-0.2-0.1-0.3c-0.1-0.1-0.1-0.2-0.2-0.2s-0.2-0.1-0.3-0.1
			c-0.1,0-0.3,0.1-0.5,0.2s-0.3,0.3-0.5,0.5v3.1v0.1c0,0-0.1,0-0.1,0.1s-0.1,0-0.2,0s-0.2,0-0.3,0s-0.2,0-0.3,0c-0.1,0-0.1,0-0.2,0
			s-0.1,0-0.1-0.1V384v-2.8c0-0.1,0-0.3,0-0.4s-0.1-0.2-0.1-0.3c-0.1-0.1-0.1-0.2-0.2-0.2s-0.2-0.1-0.3-0.1c-0.2,0-0.3,0.1-0.5,0.2
			s-0.3,0.3-0.5,0.5v3.1v0.1c0,0-0.1,0-0.1,0.1s-0.1,0-0.2,0s-0.2,0-0.3,0c-0.1,0-0.2,0-0.3,0c-0.1,0-0.1,0-0.2,0s-0.1,0-0.1-0.1
			V384v-4.9V379c0,0,0,0,0.1-0.1s0.1,0,0.2,0s0.2,0,0.3,0c0.1,0,0.2,0,0.3,0c0.1,0,0.1,0,0.2,0c0,0,0.1,0,0.1,0.1v0.1v0.5
			c0.2-0.3,0.5-0.5,0.7-0.6s0.5-0.2,0.9-0.2c0.2,0,0.3,0,0.5,0.1c0.1,0,0.3,0.1,0.4,0.2s0.2,0.2,0.3,0.3c0.1,0.1,0.2,0.2,0.2,0.3
			c0.1-0.1,0.3-0.3,0.4-0.4s0.3-0.2,0.4-0.3c0.1-0.1,0.2-0.1,0.4-0.1c0.2,0,0.3,0,0.4,0c0.3,0,0.5,0,0.7,0.1s0.4,0.2,0.5,0.4
			c0.1,0.2,0.2,0.4,0.3,0.6c0.1,0.2,0.1,0.5,0.1,0.7v3.1h-0.6L474.6,384L474.6,384z"/>
		<path class="st33" d="M480.7,381.6c0,0.4,0,0.7-0.1,1.1c-0.1,0.3-0.2,0.6-0.5,0.9c-0.2,0.2-0.5,0.4-0.9,0.5
			c-0.3,0.1-0.7,0.2-1.2,0.2c-0.4,0-0.7-0.1-1.1-0.2c-0.3-0.1-0.5-0.3-0.7-0.5s-0.3-0.5-0.4-0.9c-0.1-0.3-0.1-0.7-0.1-1.1
			s0.1-0.7,0.2-1.1c0.1-0.3,0.3-0.6,0.5-0.9c0.2-0.2,0.5-0.4,0.9-0.5s0.7-0.2,1.2-0.2c0.4,0,0.7,0.1,1.1,0.2
			c0.3,0.1,0.5,0.3,0.7,0.5s0.3,0.5,0.4,0.9C480.7,380.8,480.7,381.2,480.7,381.6z M479.3,381.7c0-0.2,0-0.4-0.1-0.6
			c0-0.2-0.1-0.3-0.2-0.5c-0.1-0.1-0.2-0.2-0.3-0.3c-0.1-0.1-0.3-0.1-0.5-0.1s-0.3,0-0.5,0.1s-0.3,0.2-0.3,0.3
			c-0.1,0.1-0.2,0.3-0.2,0.5s-0.1,0.4-0.1,0.6s0,0.4,0.1,0.6c0,0.2,0.1,0.3,0.2,0.5s0.2,0.2,0.3,0.3c0.1,0.1,0.3,0.1,0.5,0.1
			s0.4,0,0.5-0.1s0.3-0.2,0.3-0.3c0.1-0.1,0.2-0.3,0.2-0.5C479.2,382.1,479.3,381.9,479.3,381.7z"/>
		<path class="st33" d="M485.2,382.7c0,0.3,0,0.5-0.1,0.7s-0.2,0.4-0.4,0.5c-0.2,0.1-0.4,0.2-0.6,0.3c-0.2,0.1-0.5,0.1-0.9,0.1
			c-0.2,0-0.3,0-0.5,0s-0.3-0.1-0.4-0.1s-0.2-0.1-0.3-0.1c-0.1,0-0.1-0.1-0.2-0.1c0,0-0.1-0.1-0.1-0.2s0-0.2,0-0.3
			c0-0.1,0-0.2,0-0.2c0-0.1,0-0.1,0-0.1v-0.1c0,0,0,0,0.1,0c0,0,0.1,0,0.2,0.1c0.1,0,0.2,0.1,0.3,0.1c0.1,0,0.2,0.1,0.4,0.1
			c0.1,0,0.3,0.1,0.5,0.1c0.1,0,0.2,0,0.3,0c0.1,0,0.2-0.1,0.2-0.1s0.1-0.1,0.1-0.2s0-0.1,0-0.2s0-0.2-0.1-0.3
			c-0.1-0.1-0.1-0.1-0.2-0.2s-0.2-0.1-0.3-0.1c-0.1,0-0.3-0.1-0.4-0.2s-0.3-0.1-0.4-0.2s-0.2-0.2-0.3-0.3c-0.1-0.1-0.2-0.2-0.2-0.4
			c-0.1-0.1-0.1-0.3-0.1-0.5s0-0.4,0.1-0.6s0.2-0.3,0.4-0.5c0.2-0.1,0.3-0.2,0.6-0.3c0.2-0.1,0.5-0.1,0.9-0.1c0.1,0,0.3,0,0.4,0
			s0.2,0,0.4,0.1c0.1,0,0.2,0.1,0.3,0.1c0.1,0,0.1,0.1,0.2,0.1c0,0,0.1,0,0.1,0.1v0.1v0.1c0,0.1,0,0.1,0,0.2s0,0.2,0,0.2
			c0,0.1,0,0.1,0,0.1v0.1c0,0,0,0-0.1,0c0,0-0.1,0-0.1-0.1c-0.1,0-0.1-0.1-0.2-0.1s-0.2-0.1-0.3-0.1s-0.3-0.1-0.4-0.1s-0.2,0-0.3,0
			c-0.1,0-0.2,0.1-0.2,0.1s-0.1,0.1-0.1,0.2s0,0.1,0,0.2s0,0.2,0.1,0.3c0.1,0.1,0.1,0.1,0.2,0.2s0.2,0.1,0.3,0.1
			c0.1,0,0.3,0.1,0.4,0.2s0.3,0.1,0.4,0.2s0.2,0.2,0.3,0.3c0.1,0.1,0.2,0.2,0.2,0.4C485.1,382.2,485.2,382.4,485.2,382.7z"/>
		<path class="st33" d="M489.1,383.5c0,0.1,0,0.3,0,0.3c0,0.1,0,0.1-0.1,0.2l-0.1,0.2c-0.1,0-0.1,0-0.2,0.1c-0.1,0-0.2,0-0.3,0
			s-0.2,0-0.3,0c-0.2,0-0.5,0-0.6-0.1s-0.3-0.2-0.5-0.3c-0.1-0.1-0.2-0.3-0.3-0.5c-0.1-0.2-0.1-0.4-0.1-0.7v-2.5h-0.7
			c-0.1,0-0.1,0-0.1-0.1s0-0.2,0-0.4c0-0.1,0-0.2,0-0.2c0-0.1,0-0.1,0-0.2c0,0,0-0.1,0.1-0.1s0.1,0,0.1,0h0.5v-1.1V378
			c0,0,0.1,0,0.1-0.1s0.1,0,0.2,0s0.2,0,0.3,0c0.1,0,0.2,0,0.3,0c0.1,0,0.1,0,0.2,0c0,0,0.1,0,0.1,0.1v0.1v1.1h1.1h0.1
			c0,0,0,0,0.1,0.1s0,0.1,0,0.2s0,0.1,0,0.2c0,0.2,0,0.3,0,0.4s-0.1,0.1-0.1,0.1h-1v2.2c0,0.2,0,0.4,0.1,0.5s0.2,0.2,0.4,0.2
			c0.1,0,0.1,0,0.2,0s0.1,0,0.1,0h0.1h0.1c0,0,0,0,0.1,0c0,0,0,0,0,0.1v0.1C489.1,383.4,489.1,383.4,489.1,383.5z"/>
		<path class="st33" d="M495.4,383.5c0,0.1,0,0.3,0,0.3c0,0.1,0,0.1-0.1,0.2l-0.1,0.1c-0.1,0-0.1,0-0.2,0.1c-0.1,0-0.2,0-0.3,0
			c-0.1,0-0.2,0-0.3,0c-0.2,0-0.5,0-0.6-0.1s-0.3-0.2-0.5-0.3c-0.1-0.1-0.2-0.3-0.3-0.5c-0.1-0.2-0.1-0.4-0.1-0.7v-2.5h-0.5
			c-0.1,0-0.1,0-0.1-0.1s0-0.2,0-0.4c0-0.1,0-0.2,0-0.2c0-0.1,0-0.1,0-0.2c0,0,0-0.1,0.1-0.1s0.1,0,0.1,0h0.5V378v-0.1
			c0,0,0.1,0,0.1-0.1s0.1,0,0.2,0s0.2,0,0.3,0c0.1,0,0.2,0,0.3,0c0.1,0,0.1,0,0.2,0c0,0,0.1,0,0.1,0.1v0.1v1.1h1.1h0.1
			c0,0,0,0,0.1,0.1s0,0.1,0,0.2s0,0.1,0,0.2c0,0.2,0,0.3,0,0.4s-0.1,0.1-0.1,0.1h-1.1v2.2c0,0.2,0,0.4,0.1,0.5s0.2,0.2,0.4,0.2
			c0.1,0,0.1,0,0.2,0s0.1,0,0.1,0h0.1h0.1c0,0,0,0,0.1,0c0,0,0,0,0,0.1v0.1C495.4,383.4,495.4,383.4,495.4,383.5z"/>
		<path class="st33" d="M501,384L501,384c0,0.1-0.1,0.1-0.1,0.1s-0.1,0-0.2,0s-0.2,0-0.3,0c-0.1,0-0.2,0-0.3,0c-0.1,0-0.1,0-0.2,0
			c0,0-0.1,0-0.1-0.1v-0.1v-2.7c0-0.2,0-0.4,0-0.5s-0.1-0.2-0.1-0.3c-0.1-0.1-0.1-0.2-0.2-0.2s-0.2-0.1-0.3-0.1
			c-0.2,0-0.3,0.1-0.5,0.2s-0.3,0.3-0.5,0.5v3.1v0.1c0,0-0.1,0-0.1,0.1s-0.1,0-0.2,0s-0.2,0-0.3,0s-0.2,0-0.3,0s-0.1,0-0.2,0
			s-0.1,0-0.1-0.1v-0.1V377v-0.1c0,0,0.1,0,0.1-0.1c0,0,0.1,0,0.2,0s0.2,0,0.3,0s0.2,0,0.3,0s0.1,0,0.2,0c0,0,0.1,0,0.1,0.1
			s0,0.1,0,0.1v2.6c0.2-0.2,0.4-0.4,0.7-0.5s0.5-0.2,0.7-0.2c0.3,0,0.6,0,0.9,0.1c0.2,0.1,0.4,0.2,0.5,0.4c0.1,0.2,0.2,0.4,0.3,0.6
			c0.1,0.2,0.1,0.5,0.1,0.9v3.1H501L501,384z"/>
		<path class="st33" d="M506.8,381.5c0,0.2,0,0.3-0.1,0.3c-0.1,0.1-0.2,0.1-0.3,0.1h-2.9c0,0.2,0,0.4,0.1,0.5c0,0.2,0.1,0.3,0.2,0.4
			s0.2,0.2,0.4,0.2c0.2,0.1,0.3,0.1,0.6,0.1c0.2,0,0.4,0,0.6,0s0.3-0.1,0.4-0.1s0.2-0.1,0.3-0.1s0.1,0,0.2,0h0.1c0,0,0,0,0,0.1v0.1
			c0,0.1,0,0.1,0,0.2s0,0.1,0,0.2s0,0.1,0,0.1v0.1c0,0,0,0-0.1,0.1c0,0-0.1,0.1-0.2,0.1s-0.2,0.1-0.4,0.1c-0.1,0-0.3,0.1-0.5,0.1
			s-0.4,0-0.6,0c-0.4,0-0.7,0-1.1-0.1c-0.3-0.1-0.5-0.2-0.7-0.5c-0.2-0.2-0.3-0.5-0.4-0.9c-0.1-0.3-0.1-0.7-0.1-1.2
			c0-0.4,0.1-0.7,0.2-1.2c0.1-0.4,0.3-0.6,0.4-0.9c0.2-0.2,0.4-0.4,0.7-0.5c0.3-0.1,0.6-0.2,1-0.2s0.7,0.1,1,0.2s0.5,0.3,0.6,0.5
			s0.3,0.4,0.4,0.7c0.1,0.3,0.1,0.6,0.1,1L506.8,381.5L506.8,381.5z M505.5,381.2c0-0.4-0.1-0.6-0.2-0.9c-0.2-0.2-0.4-0.3-0.7-0.3
			c-0.2,0-0.3,0-0.4,0.1s-0.2,0.1-0.3,0.2c-0.1,0.1-0.1,0.2-0.2,0.4c0,0.1-0.1,0.3-0.1,0.4L505.5,381.2L505.5,381.2z"/>
		<path class="st33" d="M511.1,379.8c0,0.1,0,0.2,0,0.3c0,0.1,0,0.1,0,0.2c0,0,0,0.1-0.1,0.1s0,0-0.1,0h-0.1h-0.1h-0.1
			c0,0-0.1,0-0.2,0s-0.1,0-0.2,0s-0.1,0.1-0.2,0.1c-0.1,0.1-0.2,0.1-0.2,0.2c-0.1,0.1-0.2,0.2-0.3,0.4v3v0.1c0,0-0.1,0-0.1,0.1
			s-0.1,0-0.2,0s-0.2,0-0.3,0s-0.2,0-0.3,0s-0.1,0-0.2,0s-0.1,0-0.1-0.1l0,0v-5.1V379c0,0,0,0,0.1-0.1s0.1,0,0.2,0s0.2,0,0.3,0
			s0.2,0,0.3,0s0.1,0,0.2,0c0,0,0.1,0,0.1,0.1v0.1v0.6c0.1-0.2,0.2-0.3,0.3-0.4c0.1-0.1,0.2-0.2,0.3-0.3c0.1-0.1,0.2-0.1,0.3-0.1
			c0.1,0,0.2,0,0.3,0h0.1c0,0,0.1,0,0.2,0s0.1,0,0.1,0h0.1c0,0,0,0,0,0.1c0,0,0,0,0,0.1c0,0,0,0.1,0,0.2
			C511.1,379.5,511.1,379.6,511.1,379.8z"/>
		<path class="st33" d="M516.3,381.5c0,0.2,0,0.3-0.1,0.3c-0.1,0.1-0.2,0.1-0.3,0.1H513c0,0.2,0,0.4,0.1,0.5c0,0.2,0.1,0.3,0.2,0.4
			c0.1,0.1,0.2,0.2,0.4,0.2c0.2,0.1,0.3,0.1,0.6,0.1c0.2,0,0.4,0,0.6,0s0.3-0.1,0.4-0.1s0.2-0.1,0.3-0.1s0.1,0,0.2,0h0.1
			c0,0,0,0,0,0.1v0.1c0,0.1,0,0.1,0,0.2s0,0.1,0,0.2s0,0.1,0,0.1v0.1c0,0,0,0-0.1,0.1c0,0-0.1,0.1-0.2,0.1c-0.1,0-0.2,0.1-0.4,0.1
			c-0.1,0-0.3,0.1-0.5,0.1s-0.4,0-0.6,0c-0.4,0-0.7,0-1.1-0.1c-0.3-0.1-0.5-0.2-0.7-0.5c-0.2-0.2-0.3-0.5-0.4-0.9
			c-0.1-0.3-0.1-0.7-0.1-1.2c0-0.4,0.1-0.7,0.2-1.2c0.1-0.4,0.3-0.6,0.4-0.9c0.2-0.2,0.4-0.4,0.7-0.5s0.6-0.2,1-0.2s0.7,0.1,1,0.2
			s0.5,0.3,0.6,0.5s0.3,0.4,0.4,0.7c0.1,0.3,0.1,0.6,0.1,1L516.3,381.5L516.3,381.5z M515,381.2c0-0.4-0.1-0.6-0.2-0.9
			c-0.2-0.2-0.4-0.3-0.7-0.3c-0.2,0-0.3,0-0.4,0.1c-0.1,0.1-0.2,0.1-0.3,0.2s-0.1,0.2-0.2,0.4c0,0.1-0.1,0.3-0.1,0.4L515,381.2
			L515,381.2z"/>
		<path class="st33" d="M519.3,383.5c0,0.1,0,0.3,0,0.3c0,0.1-0.1,0.2-0.1,0.2c-0.1,0.1-0.1,0.1-0.2,0.1s-0.2,0-0.3,0s-0.2,0-0.3,0
			s-0.2-0.1-0.2-0.1c-0.1-0.1-0.1-0.1-0.1-0.2s0-0.2,0-0.3c0-0.1,0-0.3,0-0.3c0-0.1,0.1-0.2,0.1-0.2c0.1-0.1,0.1-0.1,0.2-0.1
			c0.1,0,0.2,0,0.3,0s0.2,0,0.3,0s0.2,0.1,0.2,0.1s0.1,0.1,0.1,0.2C519.3,383.2,519.3,383.4,519.3,383.5z M519.2,381.9
			C519.2,382,519.2,382,519.2,381.9c0,0.1-0.1,0.1-0.1,0.2s-0.1,0-0.2,0s-0.2,0-0.3,0s-0.2,0-0.3,0s-0.1,0-0.2,0s-0.1,0-0.1-0.1
			v-0.1l-0.1-4.9v-0.1l0.1-0.1c0.1,0,0.1,0,0.2,0s0.2,0,0.3,0s0.2,0,0.3,0s0.2,0,0.2,0c0.1,0,0.1,0,0.1,0.1s0,0.1,0,0.1L519.2,381.9
			z"/>
	</g>
	<g>
		<line class="st39" x1="406.2" y1="352" x2="406.2" y2="361.3"/>
		<rect x="406.1" y="352" class="st35" width="0.3" height="9.2"/>
	</g>
	<g>
		<line class="st39" x1="428.8" y1="356.6" x2="428.8" y2="361.3"/>
		<rect x="428.7" y="356.6" class="st35" width="0.3" height="4.7"/>
	</g>
	<g>
		<line class="st39" x1="450.7" y1="352" x2="450.7" y2="361.3"/>
		<rect x="450.6" y="352" class="st35" width="0.3" height="9.2"/>
	</g>
	<g>
		<line class="st39" x1="474" y1="356.6" x2="474" y2="361.3"/>
		<rect x="473.9" y="356.6" class="st35" width="0.3" height="4.7"/>
	</g>
	<g>
		<line class="st39" x1="495.9" y1="352" x2="495.9" y2="361.3"/>
		<rect x="495.8" y="352" class="st35" width="0.3" height="9.2"/>
	</g>
	<g>
		<line class="st39" x1="519.3" y1="356.6" x2="519.3" y2="361.3"/>
		<rect x="519.2" y="356.6" class="st35" width="0.3" height="4.7"/>
	</g>
	<g>
		<line class="st39" x1="541.2" y1="352" x2="541.2" y2="361.3"/>
		<rect x="541" y="352" class="st35" width="0.3" height="9.2"/>
	</g>
	<g>
		<path class="st40" d="M453,330.7v2.5v0.1c0,0-0.1,0-0.1,0.1s-0.1,0-0.2,0s-0.2,0-0.3,0c-0.1,0-0.2,0-0.3,0c-0.1,0-0.1,0-0.2,0
			s-0.1,0-0.1-0.1v-0.1v-2.5l-1.9-3.7c-0.1-0.1-0.1-0.2-0.1-0.3c0-0.1,0-0.1,0-0.2c0,0,0.1-0.1,0.2-0.1s0.2,0,0.4,0s0.3,0,0.4,0
			s0.2,0,0.2,0c0.1,0,0.1,0,0.1,0.1c0,0,0,0.1,0.1,0.1l0.7,1.7c0.1,0.2,0.1,0.3,0.2,0.5s0.1,0.3,0.2,0.5l0,0
			c0.1-0.2,0.1-0.4,0.2-0.5c0.1-0.2,0.1-0.3,0.2-0.5l0.7-1.7c0-0.1,0-0.1,0.1-0.1l0.1-0.1c0,0,0.1,0,0.2,0s0.2,0,0.3,0
			c0.2,0,0.3,0,0.4,0s0.2,0,0.2,0.1c0,0,0,0.1,0,0.2s-0.1,0.2-0.1,0.3L453,330.7z"/>
		<path class="st40" d="M460.3,330.7c0,0.4,0,0.7-0.1,1.1c-0.1,0.3-0.2,0.6-0.5,0.9c-0.2,0.2-0.5,0.4-0.9,0.5
			c-0.3,0.1-0.7,0.2-1.2,0.2s-0.7-0.1-1.1-0.2c-0.3-0.1-0.5-0.3-0.7-0.5s-0.3-0.5-0.4-0.9c-0.1-0.3-0.1-0.7-0.1-1.1s0.1-0.7,0.2-1.1
			c0.1-0.3,0.3-0.6,0.5-0.9c0.2-0.2,0.5-0.4,0.9-0.5c0.3-0.1,0.7-0.2,1.2-0.2s0.7,0.1,1.1,0.2c0.3,0.1,0.5,0.3,0.7,0.5
			s0.3,0.5,0.4,0.9C460.2,329.9,460.3,330.3,460.3,330.7z M458.9,330.8c0-0.2,0-0.4-0.1-0.6c0-0.2-0.1-0.3-0.2-0.5
			c-0.1-0.1-0.2-0.2-0.3-0.3c-0.1-0.1-0.3-0.1-0.5-0.1s-0.3,0-0.5,0.1s-0.3,0.2-0.3,0.3c-0.1,0.1-0.2,0.3-0.2,0.5s-0.1,0.4-0.1,0.6
			s0,0.4,0.1,0.6c0,0.2,0.1,0.3,0.2,0.5s0.2,0.2,0.3,0.3c0.1,0.1,0.3,0.1,0.5,0.1s0.4,0,0.5-0.1s0.3-0.2,0.3-0.3
			c0.1-0.1,0.2-0.3,0.2-0.5S458.9,331,458.9,330.8z"/>
		<path class="st40" d="M465.9,333.2C465.9,333.2,465.9,333.3,465.9,333.2c0,0.1-0.1,0.1-0.1,0.1s-0.1,0-0.2,0s-0.2,0-0.3,0
			s-0.2,0-0.3,0s-0.1,0-0.2,0c0,0-0.1,0-0.1-0.1v-0.1v-0.5c-0.2,0.3-0.5,0.5-0.7,0.6c-0.3,0.1-0.5,0.2-0.9,0.2s-0.6,0-0.9-0.1
			c-0.2-0.1-0.4-0.2-0.5-0.4c-0.1-0.2-0.2-0.4-0.3-0.6c-0.1-0.2-0.1-0.5-0.1-0.9v-2.9v-0.1c0,0,0.1,0,0.1-0.1c0,0,0.1,0,0.2,0
			s0.2,0,0.3,0c0.1,0,0.2,0,0.3,0c0.1,0,0.1,0,0.2,0s0.1,0,0.1,0.1v0.1v2.7c0,0.2,0,0.4,0,0.5s0.1,0.2,0.1,0.3
			c0.1,0.1,0.1,0.2,0.2,0.2s0.2,0.1,0.3,0.1c0.2,0,0.3-0.1,0.5-0.2s0.3-0.3,0.5-0.5v-3.1v-0.1c0,0,0.1,0,0.1-0.1s0.1,0,0.2,0
			s0.2,0,0.3,0s0.2,0,0.3,0s0.1,0,0.2,0s0.1,0,0.1,0.1v0.1v4.8L465.9,333.2L465.9,333.2z"/>
		<path class="st40" d="M473.7,333.2v0.1c0,0-0.1,0-0.2,0.1s-0.2,0-0.3,0s-0.3,0-0.3,0c-0.1,0-0.1,0-0.1-0.1s0-0.1,0-0.1v-0.4
			c-0.2,0.2-0.4,0.3-0.6,0.5c-0.2,0.1-0.5,0.2-0.9,0.2c-0.2,0-0.5,0-0.6-0.1c-0.2-0.1-0.4-0.2-0.5-0.3c-0.1-0.1-0.3-0.3-0.3-0.4
			c-0.1-0.2-0.1-0.4-0.1-0.6c0-0.3,0.1-0.5,0.2-0.7s0.3-0.3,0.5-0.5s0.4-0.2,0.7-0.3c0.3-0.1,0.6-0.1,1.1-0.1h0.4v-0.3
			c0-0.1,0-0.3,0-0.4s-0.1-0.2-0.1-0.3c-0.1-0.1-0.2-0.1-0.3-0.2c-0.1-0.1-0.2,0-0.4,0c-0.2,0-0.4,0-0.6,0.1c-0.2,0-0.3,0.1-0.4,0.2
			s-0.2,0.1-0.3,0.2c-0.1,0-0.2,0.1-0.2,0.1h-0.1l-0.1-0.1c0,0,0-0.1,0-0.2s0-0.1,0-0.2s0-0.2,0-0.2s0-0.1,0.1-0.2
			c0,0,0.1-0.1,0.2-0.2s0.3-0.1,0.4-0.2c0.2,0,0.3-0.1,0.5-0.1s0.4,0,0.6,0c0.3,0,0.6,0,1,0.1c0.2,0.1,0.4,0.2,0.6,0.3
			c0.2,0.1,0.3,0.3,0.3,0.5c0.1,0.2,0.1,0.5,0.1,0.9v3.2h-0.3L473.7,333.2L473.7,333.2z M472.4,331.1h-0.5c-0.2,0-0.4,0-0.5,0
			s-0.3,0.1-0.3,0.1c-0.1,0.1-0.2,0.1-0.2,0.2s-0.1,0.2-0.1,0.3c0,0.2,0.1,0.3,0.2,0.4s0.3,0.2,0.5,0.2s0.3,0,0.5-0.1
			c0.1-0.1,0.3-0.2,0.4-0.4V331.1L472.4,331.1z"/>
		<path class="st40" d="M478.7,332.4c0,0.1,0,0.2,0,0.2c0,0.1,0,0.1,0,0.1v0.1c0,0,0,0.1-0.1,0.1c0,0-0.1,0.1-0.2,0.1
			s-0.2,0.1-0.3,0.1c-0.1,0-0.3,0.1-0.4,0.1s-0.3,0-0.4,0c-0.3,0-0.6-0.1-1-0.2s-0.5-0.3-0.7-0.5s-0.3-0.5-0.4-0.9
			c-0.1-0.3-0.1-0.6-0.1-1.1c0-0.4,0.1-0.9,0.2-1.2c0.1-0.3,0.3-0.6,0.5-0.9s0.4-0.4,0.7-0.5c0.3-0.1,0.6-0.2,1-0.2
			c0.1,0,0.3,0,0.4,0s0.2,0.1,0.4,0.1c0.1,0,0.2,0.1,0.3,0.1s0.1,0.1,0.2,0.1s0.1,0.1,0.1,0.1v0.1v0.1c0,0,0,0.1,0,0.2
			c0,0.2,0,0.3,0,0.4s-0.1,0.1-0.1,0.1c-0.1,0-0.1,0-0.2-0.1c-0.1,0-0.1-0.1-0.2-0.2s-0.2-0.1-0.3-0.2c-0.1,0-0.3-0.1-0.4-0.1
			c-0.3,0-0.6,0.1-0.7,0.4c-0.2,0.2-0.3,0.6-0.3,1.2c0,0.2,0,0.4,0.1,0.6s0.1,0.3,0.2,0.5c0.1,0.1,0.2,0.2,0.3,0.3
			c0.1,0.1,0.3,0.1,0.4,0.1c0.2,0,0.3,0,0.4-0.1s0.2-0.1,0.3-0.2c0.1-0.1,0.2-0.1,0.2-0.2c0.1-0.1,0.1-0.1,0.2-0.1h0.1
			c0,0,0,0,0,0.1c0,0,0,0.1,0,0.2C479,331.5,478.7,332.3,478.7,332.4z"/>
		<path class="st40" d="M484.3,330.7c0,0.2,0,0.3-0.1,0.3c-0.1,0.1-0.2,0.1-0.3,0.1H481c0,0.2,0,0.4,0.1,0.5c0,0.2,0.1,0.3,0.2,0.4
			s0.2,0.2,0.4,0.2c0.2,0.1,0.3,0.1,0.6,0.1c0.2,0,0.4,0,0.6,0s0.3-0.1,0.4-0.1s0.2-0.1,0.3-0.1c0.1,0,0.1,0,0.2,0h0.1
			c0,0,0,0,0,0.1v0.1c0,0.1,0,0.1,0,0.2s0,0.1,0,0.2s0,0.1,0,0.1v0.1c0,0,0,0-0.1,0.1c0,0-0.1,0.1-0.2,0.1s-0.2,0.1-0.4,0.1
			c-0.1,0-0.3,0.1-0.5,0.1s-0.4,0-0.6,0c-0.4,0-0.7,0-1.1-0.1c-0.3-0.1-0.5-0.2-0.7-0.5c-0.2-0.2-0.3-0.5-0.4-0.9
			c-0.1-0.3-0.1-0.7-0.1-1.2c0-0.4,0.1-0.7,0.2-1.2c0.1-0.4,0.3-0.6,0.4-0.9c0.2-0.2,0.4-0.4,0.7-0.5c0.3-0.1,0.6-0.2,1-0.2
			s0.7,0.1,1,0.2s0.5,0.3,0.6,0.5s0.3,0.4,0.4,0.7c0.1,0.3,0.1,0.6,0.1,1L484.3,330.7L484.3,330.7z M483,330.3
			c0-0.4-0.1-0.6-0.2-0.9c-0.2-0.2-0.4-0.3-0.7-0.3c-0.2,0-0.3,0-0.4,0.1s-0.2,0.1-0.3,0.2c-0.1,0.1-0.1,0.2-0.2,0.4
			c0,0.1-0.1,0.3-0.1,0.4L483,330.3L483,330.3z"/>
		<path class="st40" d="M489.3,326.8c0,0.3-0.1,0.4-0.2,0.5s-0.3,0.1-0.6,0.1c-0.3,0-0.5,0-0.6-0.1s-0.1-0.3-0.1-0.5
			c0-0.3,0.1-0.4,0.2-0.5s0.3-0.1,0.6-0.1s0.5,0,0.6,0.1C489.2,326.4,489.3,326.5,489.3,326.8z M489.2,333.2
			C489.2,333.2,489.2,333.3,489.2,333.2c0,0.1-0.1,0.1-0.1,0.1s-0.1,0-0.2,0s-0.2,0-0.3,0s-0.2,0-0.3,0c-0.1,0-0.1,0-0.2,0
			s-0.1,0-0.1-0.1v-0.1v-4.7v-0.1c0,0,0.1,0,0.1-0.1c0,0,0.1,0,0.2,0s0.2,0,0.3,0s0.2,0,0.3,0s0.1,0,0.2,0c0,0,0.1,0,0.1,0.1v0.1
			V333.2z"/>
		<path class="st40" d="M493.5,332.7c0,0.1,0,0.3,0,0.3c0,0.1,0,0.1-0.1,0.2l-0.1,0.1c-0.1,0-0.1,0-0.2,0.1c-0.1,0-0.2,0-0.3,0
			s-0.2,0-0.3,0c-0.2,0-0.5,0-0.6-0.1s-0.3-0.2-0.5-0.3c-0.1-0.1-0.2-0.3-0.3-0.5s-0.1-0.4-0.1-0.7v-2.5h-0.5c-0.1,0-0.1,0-0.1-0.1
			s0-0.2,0-0.4c0-0.1,0-0.2,0-0.2c0-0.1,0-0.1,0-0.2c0,0,0-0.1,0.1-0.1s0.1,0,0.1,0h0.5v-1.1v-0.1c0,0,0.1,0,0.1-0.1s0.1,0,0.2,0
			s0.2,0,0.3,0s0.2,0,0.3,0s0.1,0,0.2,0c0,0,0.1,0,0.1,0.1v0.1v1.1h1.1h0.1c0,0,0,0,0.1,0.1s0,0.1,0,0.2s0,0.1,0,0.2
			c0,0.2,0,0.3,0,0.4s-0.1,0.1-0.1,0.1h-1.1v2.2c0,0.2,0,0.4,0.1,0.5s0.2,0.2,0.4,0.2c0.1,0,0.1,0,0.2,0s0.1,0,0.1,0h0.1h0.1
			c0,0,0,0,0.1,0c0,0,0,0,0,0.1v0.1C493.5,332.5,493.5,332.6,493.5,332.7z"/>
		<path class="st40" d="M496.2,332.6c0,0.1,0,0.3,0,0.3c0,0.1-0.1,0.2-0.1,0.2c-0.1,0.1-0.1,0.1-0.2,0.1s-0.2,0-0.3,0
			c-0.1,0-0.2,0-0.3,0c-0.1,0-0.2-0.1-0.2-0.1c-0.1-0.1-0.1-0.1-0.1-0.2s0-0.2,0-0.3s0-0.3,0-0.3c0-0.1,0.1-0.2,0.1-0.2
			c0.1-0.1,0.1-0.1,0.2-0.1s0.2,0,0.3,0c0.1,0,0.2,0,0.3,0c0.1,0,0.2,0.1,0.2,0.1s0.1,0.1,0.1,0.2S496.2,332.5,496.2,332.6z
			 M496.1,331.1L496.1,331.1c0,0.1-0.1,0.1-0.1,0.2s-0.1,0-0.2,0s-0.2,0-0.3,0s-0.2,0-0.3,0s-0.1,0-0.2,0s-0.1,0-0.1-0.1v-0.1v-4.9
			v-0.1l0.1-0.1c0.1,0,0.1,0,0.2,0s0.2,0,0.3,0s0.2,0,0.3,0s0.2,0,0.2,0c0.1,0,0.1,0,0.1,0.1s0,0.1,0,0.1V331.1z"/>
	</g>
	<g>
		<path class="st6" d="M541.2,319H405.5v-3.8h131.8C539.4,315.1,541.2,316.9,541.2,319L541.2,319z"/>
	</g>
	<g>
		<line class="st39" x1="405.5" y1="301.2" x2="405.5" y2="310.4"/>
		<rect x="405.3" y="301.2" class="st35" width="0.3" height="9.2"/>
	</g>
	<g>
		<line class="st39" x1="428.8" y1="305.7" x2="428.8" y2="310.4"/>
		<rect x="428.7" y="305.7" class="st35" width="0.3" height="4.7"/>
	</g>
	<g>
		<line class="st39" x1="450.7" y1="301.2" x2="450.7" y2="310.4"/>
		<rect x="450.6" y="301.2" class="st35" width="0.3" height="9.2"/>
	</g>
	<g>
		<line class="st39" x1="474" y1="305.7" x2="474" y2="310.4"/>
		<rect x="473.9" y="305.7" class="st35" width="0.3" height="4.7"/>
	</g>
	<g>
		<line class="st39" x1="495.9" y1="301.2" x2="495.9" y2="310.4"/>
		<rect x="495.8" y="301.2" class="st35" width="0.3" height="9.2"/>
	</g>
	<g>
		<line class="st39" x1="519.3" y1="305.7" x2="519.3" y2="310.4"/>
		<rect x="519.2" y="305.7" class="st35" width="0.3" height="4.7"/>
	</g>
	<g>
		<line class="st39" x1="541.2" y1="301.2" x2="541.2" y2="310.4"/>
		<rect x="541" y="301.2" class="st35" width="0.3" height="9.2"/>
	</g>
</g>
</svg>
