<?xml version="1.0" encoding="utf-8"?>
<!-- Generator: Adobe Illustrator 24.3.0, SVG Export Plug-In . SVG Version: 6.00 Build 0)  -->
<svg version="1.1" id="Camada_1" xmlns="http://www.w3.org/2000/svg" xmlns:xlink="http://www.w3.org/1999/xlink" x="0px" y="0px"
	 viewBox="0 0 739.1 397.1" style="enable-background:new 0 0 739.1 397.1;" xml:space="preserve">
<style type="text/css">
	.st0{fill:#E4EBF0;}
	.st1{fill-rule:evenodd;clip-rule:evenodd;fill:none;stroke:#D9D9D9;stroke-width:0.75;stroke-miterlimit:10;}
	.st2{fill:#B9C3C9;}
	.st3{opacity:0.44;fill:#E4EBF0;}
	.st4{fill:#FFAF82;}
	.st5{fill:#F88968;}
	.st6{fill:#1D3855;}
	.st7{fill:#050705;}
	.st8{fill:#2C2C2C;}
	.st9{fill:#23466E;}
	.st10{fill:#FFFFFF;}
	.st11{fill:#E2E2E2;}
	.st12{fill:#F0AA87;}
	.st13{fill:#FFDB8D;}
	.st14{opacity:0.58;fill:#DA7A5B;}
	.st15{opacity:0.35;fill:#BBA340;}
	.st16{fill:#CD7858;}
	.st17{fill:#413415;}
	.st18{fill:#911913;}
	.st19{fill:#EA5B67;}
	.st20{fill:#DA7A5B;}
	.st21{fill:#64423B;}
	.st22{fill:#432918;}
	.st23{opacity:0.5;}
	.st24{fill:#462A24;}
	.st25{opacity:0.5;fill:#64423B;}
	.st26{opacity:0.1;fill:#000100;}
	.st27{fill:#AA5551;}
	.st28{fill:#C07A61;}
	.st29{fill:#1F3865;}
	.st30{fill:#896449;}
	.st31{fill:#F2AB8F;}
	.st32{fill:#30323D;}
	.st33{fill:#1F2230;}
	.st34{fill:#727D83;}
	.st35{fill:#853F38;}
	.st36{fill-rule:evenodd;clip-rule:evenodd;fill:#FFC16B;}
	.st37{fill-rule:evenodd;clip-rule:evenodd;fill:#FFFFFF;}
	.st38{fill-rule:evenodd;clip-rule:evenodd;fill:#FCB054;}
	.st39{fill-rule:evenodd;clip-rule:evenodd;fill:#C07A61;}
	.st40{opacity:0.51;fill-rule:evenodd;clip-rule:evenodd;fill:#995C42;}
	.st41{fill-rule:evenodd;clip-rule:evenodd;fill:#FCB45E;}
	.st42{fill:#35252B;}
	.st43{fill:#402A2E;}
	.st44{fill:#995C42;}
	.st45{fill:#2B1A1E;}
	.st46{fill:none;stroke:#000000;stroke-width:0.4775;stroke-linecap:round;stroke-linejoin:round;stroke-miterlimit:10;}
	.st47{fill:#1A0806;}
	.st48{fill:#EF8274;}
	.st49{fill-rule:evenodd;clip-rule:evenodd;fill:#E4EBF0;}
	.st50{fill-rule:evenodd;clip-rule:evenodd;fill:#B9C2C8;}
	.st51{fill:#724941;}
	.st52{fill:#F8BD9B;}
	.st53{fill:#F4A288;}
	.st54{opacity:0.5;fill:#F4A288;}
	.st55{fill:#66362C;}
	.st56{fill:#5B3127;}
	.st57{fill:#FBCA8E;}
	.st58{fill:#F2F2F2;}
	.st59{fill:#E1E0E0;}
	.st60{fill:#2B1D1B;}
	.st61{fill:#F4A07A;}
	.st62{fill:#F08668;}
	.st63{fill:#1D1D1B;}
	.st64{opacity:0.5;fill:#853F38;}
	.st65{fill:#1B3A59;}
	.st66{fill:#0E2A3D;}
	.st67{fill:#FFF6A5;}
	.st68{fill:#362836;}
	.st69{fill:#180908;}
	.st70{fill:#9D3A2D;}
	.st71{fill:#EF806D;}
	.st72{fill:#DAE1E5;}
	.st73{opacity:0.37;}
	.st74{fill:none;stroke:#FFFFFF;stroke-width:0.5;stroke-miterlimit:10;}
	.st75{fill:none;stroke:#FFFFFF;stroke-width:0.5;stroke-miterlimit:10;stroke-dasharray:1.0199,1.0199;}
	.st76{fill:none;stroke:#FFFFFF;stroke-width:0.5;stroke-miterlimit:10;stroke-dasharray:1.0149,1.0149;}
	.st77{fill:none;stroke:#000000;stroke-width:0.5;stroke-linecap:round;stroke-linejoin:round;stroke-miterlimit:10;}
	.st78{fill:#FCB45E;}
	.st79{opacity:0.64;fill:#F2DF70;}
	.st80{opacity:0.26;}
	.st81{fill:#E5ECF0;}
	.st82{fill:#E0E0E0;}
	.st83{opacity:0.53;fill-rule:evenodd;clip-rule:evenodd;fill:#B9C3C9;}
	.st84{fill-rule:evenodd;clip-rule:evenodd;fill:#E5ECF0;}
	.st85{opacity:0.58;fill-rule:evenodd;clip-rule:evenodd;fill:#B9C3C9;}
</style>
<g>
	<path class="st0" d="M530.4,238.9h188.1c1.7,0,3.1-1.4,3.1-3.1v-0.7c0-1.7-1.4-3.1-3.1-3.1H530.4c-1.7,0-3.1,1.4-3.1,3.1v0.7
		C527.3,237.5,528.7,238.9,530.4,238.9z"/>
	<g>
		<path class="st0" d="M724.8,352.9L724.8,352.9c1.1-0.1,1.8-1,1.6-2l-17.1-115.4l-6.2,0.2l20.1,116
			C723.3,352.5,724,353,724.8,352.9z"/>
	</g>
	<g>
		<path class="st0" d="M522.3,352.9L522.3,352.9c-1.1-0.1-1.8-1-1.6-2l17.1-115.4l6.2,0.2l-20.1,116
			C523.8,352.5,523.1,353,522.3,352.9z"/>
	</g>
	<g>
		<path class="st0" d="M561.8,352.9L561.8,352.9c-1.1-0.1-1.8-1-1.6-2l17.1-115.4l6.2,0.2l-20.1,116
			C563.3,352.5,562.6,353,561.8,352.9z"/>
	</g>
</g>
<polyline class="st1" points="1.3,340.5 51.4,312.7 114,312.7 "/>
<path class="st1" d="M51.4,312.7c0-2.6,0-156.6,0-156.6"/>
<rect x="218.9" y="56.5" class="st2" width="305.9" height="173"/>
<rect x="223.2" y="60" class="st0" width="298.6" height="166.1"/>
<ellipse class="st3" cx="369.5" cy="358.9" rx="193.8" ry="23.5"/>
<g>
	<g>
		<g>
			<path class="st4" d="M417.1,230c0-0.3,0-0.6,0-0.9c0-0.1,0-0.1,0-0.2c0,0,0,0,0,0c0-0.5-0.1-1.1-0.1-1.7l0,0
				c-0.3-3.2-0.3-5.4-2.1-7.8c0,0-5.8-1.2-7-0.1c0,0-2.6,3.6-3.7,6c0,0-1.7,3-1.3,4.4c0.4,1.4,1.7,1.7,1.7,1.7s0,0.2-0.1,0.5
				c-0.1,0.7-0.3,2.1-0.4,2.5c-0.3,2.4,1.7,3.6,3-0.1c0,0.3-0.2,2.6,1.5,2.9c1.2,0.2,1.9-2.8,1.9-2.8s1,2.8,2.2,2.5
				c1.2-0.3,1.4-3.3,1.4-3.4c0.1,0.1,1,1.5,2.2,0.7C416.7,234,417.1,232.3,417.1,230z"/>
		</g>
	</g>
	<path class="st5" d="M417.1,230c0-0.3,0-0.6,0-0.9c-0.3-0.5-0.9-0.9-1.6-1c-1.5-0.1-1.7,1.6-1.7,1.6s-0.2-1.3-1.3-1.2
		c-1,0.1-1.4,1.1-1.4,1.1s-0.5-1.1-1.4-1c-0.9,0.1-1.8,2.4-1.8,2.4s0.8-1.4,1.6-1.7c0.7-0.3,1.6,0.5,1.3,2.1c0-0.2,0.3-1.8,1.4-2.1
		c1.1-0.4,1.6,2,1.6,2.2c0-0.1,0.2-2.7,1.3-2.8C416.1,228.7,416.7,229.4,417.1,230z"/>
	<path class="st5" d="M406.1,230.8c0,0,2.4-0.5,3.1-2.2c0.7-1.7-2-2.9-4.2-2.4c0,0,1.1-1,3-0.5c1.9,0.5,2.2,2.5,1.6,3.3
		C408.9,229.8,408.1,230.4,406.1,230.8z"/>
	<path class="st5" d="M409.4,227.9c0,0,2.9-1.1,2.6-5.6c0,0,2.1,3.7-2.3,6.3L409.4,227.9z"/>
</g>
<path class="st6" d="M413.4,177.1c3.6-30.7,10.5-43,10.5-43c6.3,25.7,1.4,39.7-0.7,46.4c-2.1,6.7-7.7,40.1-7.7,40.1
	c-1.6-1.1-5.5-2.1-7.4-1.3L413.4,177.1z"/>
<g>
	<path class="st7" d="M414.9,278.2l4.9,59.6h8.7c2-23.2,5.3-43.6,1.6-59.6c3.7-18.1,9.3-58.6,9.3-58.6c-6.6-3-20.1-6.3-20.1-6.3
		C415.7,233.5,414.9,278.2,414.9,278.2z"/>
</g>
<g>
	<path class="st8" d="M439.4,222.4c0,0-0.2,22.6,5.4,55.9c3.2,19.1,4.6,43.5,7.3,59.6h8.7l1.2-59.6c0,0,2-36.7-2.3-61.9L439.4,222.4
		z"/>
</g>
<g>
	<path class="st8" d="M458.5,210.1c0,0,2.9,10.4,2.9,19.7c0,0-14.4,6.3-32.8-0.7c-7.5-2.9-11.3-11.2-8.6-18.8c0-0.1,0.1-0.2,0.1-0.3
		C420.1,210.1,443.5,209.2,458.5,210.1z"/>
</g>
<g>
	<g>
		<g>
			<path class="st9" d="M414.9,216.2c3,1.4,6.1,2.6,9.4,3.7c0.9,0.3,1.7,0.5,2.6,0.8c4.6,1.2,9.4,2,14.3,2.1
				c8,0.1,16.1-1.7,23.6-6.3l-5.1-30.3l8.1-47.5c0.2-1-0.4-1.9-1.3-2.2l-11-3.8l-0.7-0.2l-1.2-0.4l-0.5-0.2l-1.1-0.4l-2.2-0.8
				l-13.3,1.8l-0.8,0.1l-1.4,0.2l-0.8,0.1l-9.5,1.3L414.9,216.2z"/>
		</g>
	</g>
</g>
<path class="st6" d="M466.5,136.3l-11-3.8l-0.7-0.2l-1.2-0.4l-0.5-0.2l-1.1-0.4l-2.2-0.8l-2.5,0.3l6.4,2.2c0.9,0.3,1.5,1.3,1.3,2.2
	l1,27.7l-4.1,50c-7.5,4.6-15.6,6.4-23.6,6.3c-2.2,0-4.4-0.2-6.6-0.5c0.9,0.3,1.8,0.6,2.7,0.9c0.9,0.3,1.7,0.5,2.6,0.8
	c4.6,1.2,9.4,2,14.3,2.1c8,0.1,16.1-1.7,23.6-6.3l-5.1-30.3l8.1-47.5C467.9,137.6,467.4,136.6,466.5,136.3z"/>
<path class="st10" d="M426.9,220.6c4.6,1.2,9.4,2,14.3,2.1c-0.2-1.4-0.4-2.8-0.5-4.2c-0.1-0.7-0.1-1.5-0.2-2.2
	c-0.1-1.5-0.2-2.9-0.2-4.5c0-0.7,0-1.5,0-2.2c0-1.5,0-2.9,0.1-4.5c0-0.7,0-1.4,0.1-2.2c0.1-1.5,0.1-2.9,0.3-4.4
	c0-0.7,0.1-1.4,0.2-2.2c0.1-1.5,0.3-2.9,0.4-4.4c0.1-0.7,0.2-1.4,0.2-2.2c0.2-1.5,0.3-2.9,0.5-4.4c0.1-0.7,0.2-1.4,0.3-2.2
	c0.2-1.5,0.4-2.9,0.6-4.4c0.1-0.7,0.2-1.4,0.3-2.2c0.2-1.5,0.5-3,0.7-4.4c0.1-0.7,0.3-1.5,0.4-2.2c0.3-1.5,0.5-3,0.8-4.4
	c0.1-0.7,0.3-1.5,0.4-2.2c0.3-1.5,0.6-3,0.9-4.4c0.2-0.7,0.3-1.5,0.5-2.2c0.3-1.5,0.7-3,1-4.4c0.2-0.7,0.3-1.5,0.5-2.2
	c0.4-1.5,0.7-3,1-4.5c0.2-0.7,0.4-1.5,0.5-2.2c0.4-1.6,0.8-3.1,1.1-4.5c0.2-0.8,0.4-1.5,0.6-2.2c0.5-1.9,1-3.6,1.4-5.1l-1.1-0.4
	l-2.2-0.8l-13.3,1.8l-0.8,0.1c-0.2,1.3-0.5,2.5-0.7,3.8c-0.1,0.7-0.3,1.4-0.4,2.1c-0.3,1.4-0.5,2.9-0.7,4.3
	c-0.1,0.7-0.2,1.4-0.4,2.2c-0.2,1.4-0.5,2.9-0.7,4.3c-0.1,0.7-0.2,1.4-0.3,2.2c-0.2,1.4-0.4,2.9-0.6,4.3c-0.1,0.7-0.2,1.4-0.3,2.2
	c-0.2,1.4-0.4,2.9-0.6,4.3c-0.1,0.7-0.2,1.4-0.3,2.2c-0.2,1.5-0.3,2.9-0.5,4.3c-0.1,0.7-0.2,1.5-0.2,2.2c-0.2,1.5-0.3,2.9-0.5,4.3
	c-0.1,0.7-0.2,1.5-0.2,2.2c-0.1,1.5-0.3,2.9-0.4,4.3c-0.1,0.7-0.1,1.5-0.2,2.2c-0.1,1.5-0.3,2.9-0.4,4.3c-0.1,0.7-0.1,1.5-0.2,2.2
	c-0.1,1.5-0.2,2.9-0.3,4.4c-0.1,0.7-0.1,1.5-0.1,2.2c-0.1,1.5-0.2,3-0.3,4.4c0,0.7-0.1,1.5-0.1,2.2c-0.1,1.5-0.1,3-0.2,4.4
	c0,0.8-0.1,1.5-0.1,2.2c-0.1,1.6-0.1,3.1-0.1,4.4c0,0.8,0,1.5,0,2.2C426.8,218.2,426.8,219.5,426.9,220.6z"/>
<g>
	<g>
		<path class="st11" d="M434.5,138.4c3.5,0.5,7.3,0.7,11.6,0.7c1.6,0,3.3,0,5-0.1c0.2-0.8,0.4-1.5,0.6-2.2
			c-6.4,0.3-11.9,0.1-16.8-0.5C434.8,137,434.6,137.7,434.5,138.4z"/>
	</g>
	<g>
		<path class="st11" d="M433.4,144.9c3.8,0.5,8.1,0.8,12.8,0.8c1,0,2.1,0,3.2,0c0.2-0.7,0.4-1.5,0.5-2.2c-6.2,0.2-11.5-0.1-16.2-0.7
			C433.6,143.4,433.5,144.2,433.4,144.9z"/>
	</g>
	<g>
		<path class="st11" d="M432.4,151.4c4.1,0.6,8.8,1,14,1c0.5,0,1,0,1.5,0c0.2-0.7,0.3-1.5,0.5-2.2c-5.9,0.1-11.1-0.2-15.7-0.9
			C432.6,149.9,432.5,150.6,432.4,151.4z"/>
	</g>
	<g>
		<path class="st11" d="M431.5,157.8c4.4,0.7,9.3,1.1,15,1.1c0.2-0.7,0.3-1.5,0.5-2.2c-5.7,0-10.7-0.3-15.1-1.1
			C431.7,156.4,431.6,157.1,431.5,157.8z"/>
	</g>
	<g>
		<path class="st11" d="M430.7,164.3c4.2,0.7,9,1.2,14.5,1.2c0.1-0.7,0.3-1.5,0.4-2.2c-5.5-0.1-10.4-0.5-14.6-1.2
			C430.9,162.9,430.8,163.6,430.7,164.3z"/>
	</g>
	<g>
		<path class="st11" d="M429.9,170.8c4.1,0.8,8.8,1.2,14,1.3c0.1-0.7,0.3-1.5,0.4-2.2c-5.3-0.1-10-0.5-14.1-1.3
			C430.1,169.4,430,170.1,429.9,170.8z"/>
	</g>
	<g>
		<path class="st11" d="M429.2,177.3c4,0.8,8.5,1.2,13.6,1.4c0.1-0.7,0.2-1.4,0.3-2.2c-5.2-0.2-9.7-0.6-13.7-1.4
			C429.4,175.9,429.3,176.6,429.2,177.3z"/>
	</g>
	<g>
		<path class="st11" d="M428.6,183.8c3.9,0.8,8.3,1.3,13.3,1.5c0.1-0.7,0.2-1.4,0.3-2.2c-5-0.2-9.5-0.7-13.4-1.5
			C428.8,182.4,428.7,183.1,428.6,183.8z"/>
	</g>
	<g>
		<path class="st11" d="M428.1,190.4c3.9,0.8,8.2,1.3,13.1,1.5c0.1-0.7,0.2-1.4,0.2-2.2c-4.9-0.2-9.3-0.8-13.1-1.6
			C428.2,188.9,428.1,189.6,428.1,190.4z"/>
	</g>
	<g>
		<path class="st11" d="M427.6,196.9c3.8,0.8,8.1,1.3,13,1.6c0-0.7,0.1-1.4,0.2-2.2c-4.9-0.3-9.2-0.8-13-1.6
			C427.7,195.5,427.7,196.2,427.6,196.9z"/>
	</g>
	<g>
		<path class="st11" d="M427.2,203.5c3.8,0.8,8.2,1.4,13,1.6c0-0.7,0-1.4,0.1-2.2c-4.9-0.3-9.2-0.8-13-1.7
			C427.3,202,427.3,202.8,427.2,203.5z"/>
	</g>
	<g>
		<path class="st11" d="M427,210.1c3.9,0.8,8.3,1.4,13.3,1.7c0-0.7,0-1.5,0-2.2c-4.9-0.3-9.3-0.9-13.2-1.7
			C427,208.6,427,209.4,427,210.1z"/>
	</g>
	<g>
		<path class="st11" d="M426.8,216.7c4,0.9,8.6,1.4,13.8,1.7c-0.1-0.7-0.1-1.5-0.2-2.2c-5.1-0.3-9.6-0.9-13.6-1.8
			C426.8,215.3,426.8,216,426.8,216.7z"/>
	</g>
</g>
<g>
	<path class="st4" d="M459,219.1c0,0-2.4,0.8-3.1,2.1c0,0,0,8.8,4.4,12.6c0,0,2.2-5.3,4.4-10.4L459,219.1z"/>
</g>
<path class="st9" d="M467.3,137.4c1.9,6.3,9.7,29.2,10.4,41.3c0,0,0,26.6-13,44.8l-5.8-4.4c0,0,7.3-26.4,7.3-36.8
	c0,0-7.4-19.2-8.6-26.7c0,0,3.7-14,8.2-17.8C466.8,137,467,136.3,467.3,137.4z"/>
<path class="st6" d="M467.3,137.4c-0.4-1.2-0.5-0.4-1.4,0.4c-1.4,1.2-2.7,3.3-3.8,5.7c3,9.3,8.3,26.6,8.9,36.6
	c0,0,2.4,24.4-7.7,42.2l1.5,1.2c13-18.2,13-44.8,13-44.8C477,166.7,469.3,143.7,467.3,137.4z"/>
<path class="st12" d="M437.1,134c0,0,4,3,14.6-1c1.4-7,3.8-25,3.8-25l-17.1,8.9L437.1,134z"/>
<path class="st13" d="M428.4,81.6c0,0-10.4,6.3-3.1,16.4c4.6,6.4,12.3-8.7,12.3-8.7S434.4,79,428.4,81.6z"/>
<path class="st14" d="M453.6,120.8c-0.7,3.2-5.4,8.1-16.2,8.6c0.6-4.7,2.5-11.3,2.5-11.3l15.3-7.4
	C455.3,110.7,454.4,115.8,453.6,120.8z"/>
<path class="st12" d="M425.6,89.4c0.7-2.4,2.7-4.3,5-5.8c7.9-4.9,18-3.8,24.5,2.8c2,2,3.4,4.3,3.6,6.8c0,0,0,10.8-5.5,24.3
	c-2.6,6.5-10,12-19.7,10c-13.5-3.9-9.2-18.9-9.1-23.8C424.4,96.4,425.6,89.4,425.6,89.4z"/>
<path class="st13" d="M460,87.5c-0.8-4.3-5.1-8.2-9.2-9c0,0.1-0.9,0.2-1.6,0.3c-2.8-1.8-6.1-2.9-9.2-3.2c-2.5-0.3-5-0.4-7.4-0.2
	c0.5,0.5,0.9,0.9,1.4,1.4c1.4,1.8,2.6,3.7,3.7,5.7c6.5,0.3,10.5-1.1,10.5-1.1c1.1,3.8,3.2,6.6,4.8,8.2c0.3,0.6,0.6,2.6-0.1,6.9
	c-0.3,1.9-2.4,6-2.8,8.6c-0.2,1,2.2,2.2,3,2.8l5.5,0.3C461.2,101.3,460.8,91.8,460,87.5z"/>
<path class="st15" d="M450.8,78.5c0,0.1-0.9,0.2-1.6,0.3c-2.8-1.8-6.1-2.9-9.2-3.2c-2.1-0.2-4.2-0.4-6.2-0.3c2.8,2,5.2,4.4,7.3,7.2
	c4.4-0.2,7-1.1,7-1.1c0.2,0.7,0.4,1.3,0.6,1.9c0.4-0.1,0.8-0.3,1.2-0.4c1.4-0.4,2.7-1.2,3.8-2.3c0,0,1.4-0.1,1.4-0.1
	C454.4,79.4,452.1,78.8,450.8,78.5z"/>
<path class="st13" d="M422.1,73.1c-0.4,3.8,6,2.9,14.8-0.8c8.6-3.6,12.1,0.8,13.4,3.6c-0.1-2.8-1.3-5.4-1.3-5.4
	c3.9,2.4,3.3,5.8,2.5,7.6c1.5-0.1,3.7,0,5.3,1.8c0,0-4.2-1.1-5.9,0c-0.2,0.2-0.9,0.4-1,0.4c-5,4.3-9.6,6.2-18.6,4.5
	c-5-0.9-6.6-1.7-8.7-4.5C420.2,77,422.1,73.1,422.1,73.1z"/>
<g>
	<path class="st16" d="M432.7,113.2c-0.5-0.1-1-0.2-1.4-0.4c-0.7-0.4-1.2-1-1.2-1.6c0-0.9,4-12.4,4-12.4c0-0.2,0.1-0.4,0.3-0.4
		c0.2,0,0.4,0.1,0.4,0.3c0,0.2-4,11.9-4,12.4c0,0.4,0.3,0.7,0.8,1c0.8,0.4,1.8,0.5,2.4,0.2c0.2-0.1,0.4,0,0.5,0.1
		c0.1,0.2,0,0.4-0.1,0.5C433.9,113.2,433.3,113.2,432.7,113.2z"/>
</g>
<ellipse transform="matrix(0.1127 -0.9936 0.9936 0.1127 291.2712 525.5925)" class="st17" cx="439.9" cy="99.7" rx="1.4" ry="1"/>
<ellipse transform="matrix(0.1127 -0.9936 0.9936 0.1127 283.1229 514.0817)" class="st17" cx="429.4" cy="98.5" rx="1.4" ry="1"/>
<path class="st13" d="M444.4,96.8c-0.2-0.7-0.6-1.4-1-2c-0.5-0.6-1.1-1.1-1.8-1.5c-0.7-0.4-1.5-0.8-2.3-0.7c-0.4,0-0.8,0.1-1.2,0.2
	c-0.4,0.1-0.7,0.3-1,0.5l0,0.1c0.4,0.1,0.8,0.1,1.1,0.2c0.2,0,0.3,0.1,0.5,0.1c0.2,0,0.3,0,0.5,0.1c0.2,0,0.3,0,0.5,0.1
	c0.2,0,0.3,0.1,0.5,0.1c0.2,0,0.3,0.1,0.5,0.1c0.2,0,0.3,0.1,0.5,0.1c0.6,0.2,1.2,0.6,1.7,1.1c0.5,0.5,1,1,1.3,1.7L444.4,96.8z"/>
<path class="st13" d="M424.9,94.7c0.5-0.5,1.1-1,1.7-1.3c0.6-0.3,1.3-0.6,1.9-0.7c0.2,0,0.3,0,0.5,0c0.2,0,0.3,0,0.5,0
	c0.2,0,0.3,0,0.5,0c0.2,0,0.3,0,0.5,0c0.2,0,0.3,0,0.5,0c0.2,0,0.3,0,0.5,0c0.4,0,0.7,0.1,1.1,0.1l0.1-0.1c-0.3-0.3-0.6-0.6-0.9-0.8
	c-0.3-0.2-0.7-0.4-1.1-0.5c-0.8-0.2-1.6-0.1-2.4,0.2c-0.8,0.2-1.5,0.6-2.1,1.1C425.7,93.4,425.1,94,424.9,94.7L424.9,94.7z"/>
<g>
	<path class="st18" d="M429.3,115.4c0,0,0,0.3,0.1,0.7c0.1,0.6,0.3,1.6,1,2.5c0.6,0.8,1.7,1.5,3.3,1.8c1.5,0.2,2.6,0,3.5-0.6
		c1.2-0.7,1.9-1.9,2.3-2.7c0.2-0.6,0.3-1,0.3-1C435.1,117.2,429.3,115.4,429.3,115.4z"/>
	<path class="st19" d="M430.4,118.5c0.6,0.8,1.7,1.5,3.3,1.8c1.5,0.2,2.6,0,3.5-0.6c-0.7-0.7-1.9-1.5-3.6-1.7
		C432.1,118,431.3,118.3,430.4,118.5z"/>
	<path class="st10" d="M429.3,115.4c0,0,0,0.3,0.1,0.7c3.8,2,8.4,1.3,10.1,1c0.2-0.6,0.3-1,0.3-1
		C435.1,117.2,429.3,115.4,429.3,115.4z"/>
</g>
<g>
	<path class="st12" d="M460.1,101c-2.3-3-7.4,2-7.4,2s-3.1,3.7,0.6,8.2c1.9,2.2,4,0.5,5.4-2.2C460.1,106.3,461.7,103.2,460.1,101z"
		/>
	<path class="st20" d="M456.9,109.4c-0.5,0.5-1.1,0.9-1.9,0.8c-0.3-0.1-0.6-0.5-0.5-0.8c0.2-0.7,2.3-1.9,1.8-3.7
		c-0.6-1.9,1.8-3.7,2.6-2.7C459.4,103.8,458.8,107.4,456.9,109.4z"/>
</g>
<path class="st21" d="M408.2,353.2c7.9-0.1,12.3-1,14-3.2c1.6-2.3,3.1-4.1,6-5.6c2.1-1.1,2.9-1.2,3.5-1.9c0.3-2.8-1-8-2.6-8.1
	l-0.1,0c0,0,0,2.6-3.3,2.9c0.1-2.1-3.4-2.4-5.6-2.4c-0.1,0-0.2,0-0.4,0c-0.4,0-1.2,0.2-1.7,1.1c-0.8,1.3-2.9,5.9-11.5,8.3
	c-4,0.8-6.7,3.8-6.5,7.3C399.9,351.6,400.2,353.3,408.2,353.2z"/>
<path class="st22" d="M428.1,344.4c-2.9,1.4-4.4,3.3-6,5.6c-1.6,2.3-6,3.1-14,3.2c-7.9,0.1-8.2-1.6-8.2-1.6c-0.3,1,0.3,3,5.4,3.2
	c6.2,0.2,14.2-0.5,15.8-2.7c1.6-2.3,3.9-4.8,5.7-5.9c1.8-1.1,4.9-2.1,4.7-3.3c0-0.1,0-0.2,0-0.3C431,343.2,430.2,343.4,428.1,344.4z
	"/>
<path class="st21" d="M406.2,345c0,0,0.5-0.3,1.4-0.6c0.4-0.2,0.9-0.3,1.5-0.4c0.3,0,0.6-0.1,0.9-0.1c0.3,0,0.6-0.1,0.9-0.1
	c0.3,0,0.6,0,0.9,0c0.3,0,0.6,0.1,0.9,0.1c0.3,0,0.6,0.1,0.8,0.2c0.3,0.1,0.5,0.1,0.7,0.2c0.2,0.1,0.4,0.2,0.6,0.2
	c0.2,0.1,0.3,0.2,0.4,0.2c0.2,0.1,0.4,0.2,0.4,0.2s-0.2,0-0.4-0.1c-0.1,0-0.3,0-0.5-0.1c-0.2,0-0.4,0-0.6-0.1
	c-0.2,0-0.5-0.1-0.7-0.1c-0.2,0-0.5,0-0.8-0.1c-0.1,0-0.3,0-0.4,0c-0.1,0-0.3,0-0.4,0c-0.3,0-0.6,0-0.9,0c-0.3,0-0.6,0-0.9,0
	c-0.3,0-0.6,0-0.8,0c-0.3,0-0.5,0-0.8,0.1c-0.3,0-0.5,0-0.7,0.1c-0.4,0-0.8,0.1-1.1,0.1C406.4,345,406.2,345,406.2,345z"/>
<g class="st23">
	<path class="st21" d="M428.9,334.4l-0.1,0.4c0,0,0.2,0.7-0.8,1.2c-1.1,0.6-1.4,1.2-2.4,1.3c0.1-2.1-3.4-2.4-5.6-2.4
		c-0.1,0-0.2,0-0.4,0c-0.4,0-1.1,0.2-1.6,0.9c0.9-0.2,2-0.1,3.3,0c2.3,0.2,3.4,1.6,2.5,4.4c-1,3.2-4.8,5-9.7,4.5
		c3.4,1,3.4,5.6-1.3,6.4c-4.1,0.7-12,0.5-12.3-2.5c-0.4,0.9-0.6,1.9-0.6,2.9c0,0,0.3,1.7,8.2,1.6c7.9-0.1,12.3-1,14-3.2
		c1.6-2.3,3.1-4.1,6-5.6c2.1-1.1,2.9-1.2,3.5-1.9C431.8,339.8,430.6,334.5,428.9,334.4z"/>
</g>
<path class="st22" d="M453.8,357.9c-5.9,0-7.7-3.9-8-4.8c0,1.3,0.7,2.5,2.4,3.8c3.4,2.7,8.1,2.3,12.1-0.1c2.1-1.5,3-2.4,3-3.8
	C461.3,354.9,458.2,357.6,453.8,357.9z"/>
<path class="st21" d="M463,351.7c-0.6-2.4-0.8-6.2-1-10c-0.2-3.4,0.6-6.2-1.2-6.6c-0.3-0.1-0.6,0.1-0.8,0.4c-0.2,0.3,0,1.1,0,1.1
	s-4.1-1.3-5.9-0.9c-1.9,0.4-2.2,1.2-2.2,0.5c0-0.7,0-1-0.2-0.9c-0.8,0.8-1.4,0.5-1.1,1.3c0.3,0.9,0,2.8-0.6,5.2
	c-0.6,2.5-1,3.9-2.8,7.1c-0.9,1.6-1.5,2.9-1.5,4.2c0.3,0.9,2.1,4.8,8,4.8c4.4-0.3,7.5-3.1,9.4-4.8
	C463.2,352.7,463.1,352.3,463,351.7z"/>
<path class="st24" d="M463,351.7c-0.6-2.4-0.8-6.2-1-10c-0.2-3.4,0.6-6.2-1.2-6.6c-0.1,0-0.2,0-0.3,0c0.2,1.2-0.4,3.1,0.1,5.2
	c2.6,10.9-3.8,16-8.2,16.2c-2.6,0-4.4-0.7-5.6-1.7c1.1,1.4,3.2,3.1,7,3.1c4.4-0.3,7.5-3.1,9.4-4.8
	C463.2,352.7,463.1,352.3,463,351.7z"/>
<path class="st21" d="M447.5,349.8c0,0,0.1-0.2,0.4-0.5c0.1-0.1,0.3-0.3,0.5-0.5c0.2-0.2,0.4-0.4,0.7-0.6c0.3-0.2,0.6-0.4,0.9-0.6
	c0.2-0.1,0.4-0.2,0.5-0.3c0.2-0.1,0.4-0.1,0.6-0.2c0.4-0.2,0.8-0.3,1.3-0.4c0.4-0.1,0.9-0.2,1.4-0.2l0.7,0c0.2,0,0.5,0,0.7,0
	c0.2,0,0.4,0,0.7,0.1c0.2,0,0.4,0,0.6,0.1c0.4,0.1,0.8,0.2,1.2,0.2c0.4,0.1,0.7,0.2,1,0.3c0.2,0.1,0.3,0.1,0.5,0.2
	c0.1,0.1,0.3,0.1,0.4,0.2c0.2,0.1,0.5,0.2,0.6,0.3c0.4,0.2,0.6,0.3,0.6,0.3s-0.2,0-0.6-0.1c-0.2,0-0.4-0.1-0.7-0.2
	c-0.1,0-0.3-0.1-0.4-0.1c-0.1,0-0.3-0.1-0.5-0.1c-0.3-0.1-0.7-0.1-1-0.2c-0.4,0-0.8-0.1-1.2-0.1c-0.4-0.1-0.8,0-1.2-0.1
	c-0.2,0-0.4,0-0.6,0l-0.6,0c-0.4,0-0.9,0.1-1.3,0.2c-0.4,0.1-0.8,0.1-1.2,0.3c-0.2,0.1-0.4,0.1-0.6,0.2c-0.2,0.1-0.4,0.1-0.5,0.2
	c-0.2,0.1-0.3,0.1-0.5,0.2c-0.2,0.1-0.3,0.1-0.5,0.2c-0.3,0.2-0.6,0.3-0.8,0.4c-0.2,0.1-0.4,0.3-0.6,0.4c-0.2,0.1-0.3,0.2-0.4,0.3
	C447.5,349.7,447.5,349.8,447.5,349.8z"/>
<path class="st25" d="M455,348.8c0,0-4.9,0.7-6.1,4.1c-0.7,1.9-2.4-2.7,1.4-4.1C454,347.4,456.8,348.3,455,348.8z"/>
<path class="st26" d="M463.1,355.4c0,2.4-12.7,4.3-28.4,4.3c-15.7,0-28.4-1.9-28.4-4.3c0-2.4,12.7-4.3,28.4-4.3
	C450.4,351.1,463.1,353.1,463.1,355.4z"/>
<path class="st27" d="M531.6,222c-3.3,6,0.2,4.2,0.2,4.2s30.4-29.1,20-32C545.8,192.5,535,216,531.6,222z"/>
<path class="st26" d="M354.8,347.6c0,2.4-12.7,4.3-28.4,4.3c-15.7,0-28.4-1.9-28.4-4.3c0-2.4,12.7-4.3,28.4-4.3
	C342.1,343.3,354.8,345.2,354.8,347.6z"/>
<path class="st28" d="M338.3,342.1c0.1,2.7,4,2.9,8.3,2.5c4.4-0.4,3.2,0.7,9.3,0.9c6.1,0.3,8.2-1.7,8.6-2.6c0.3-0.8-2.6-1.5-5.7-2.3
	c-0.4-0.1-0.8-0.2-1.2-0.3c-3.5-1-5.8-3.7-8.7-6.1c-2.8-2.3-7.8-14.2-7.8-14.2h-13.1c0,0,9.6,10.5,10.9,13.6c0.7,1.8,0.3,4-0.1,5.7
	C338.4,340.2,338.2,341.2,338.3,342.1z"/>
<path class="st29" d="M346.3,344.6c4.4-0.4,3.2,0.7,9.3,0.9c6.1,0.3,8.2-1.7,8.6-2.6c0.3-0.8-2.6-1.5-5.7-2.3l0,0.1c0,0-4,2-9,1.3
	c-4.1-0.5-8.2-2.3-11-2.7c-0.2,0.9-0.4,1.9-0.4,2.8C338.1,344.8,341.9,345,346.3,344.6z"/>
<path class="st26" d="M403.9,354.6c0,2.4-12.7,4.3-28.4,4.3c-15.7,0-28.4-1.9-28.4-4.3c0-2.4,12.7-4.3,28.4-4.3
	C391.2,350.3,403.9,352.2,403.9,354.6z"/>
<g>
	<path class="st30" d="M357.5,335.5c0,0-2.9,9.4-2.3,15.5c0,0,8.9,8.6,11.4,2.2l-0.8-16.4L357.5,335.5z"/>
	<path class="st31" d="M367,331.9c-3-0.2-6.1-0.5-9.1-1c-0.3,5.8-0.8,10.2-0.8,10.2s-0.1,5.4,1.5,6c3.8,3.3,7,0,7,0l0.2-10.3
		C365.8,336.8,366.3,334.9,367,331.9z"/>
	<path class="st31" d="M398.2,338.5c0,0-0.4-4.9-0.8-11.7c-1,1.6-2.8,2.7-4.8,3.1c-1.5,0.3-3,0.4-4.5,0.4c1.3,5.1,2.2,8.8,2.2,8.8
		l9.2,12h6.5L398.2,338.5z"/>
	<path class="st30" d="M390.3,338.4c0,0-2.8,2.6-1.8,6.5c0.9,3.9,2.5,9.9,2.5,9.9l1.2-0.1l-0.2-7.2c0,0,3,6.3,4.4,6.8
		c1.4,0.5,12.8,2.5,13.8,0c1-2.5-5.1-4.8-5.1-4.8s-2.9,1.7-5.9-0.5C396.1,346.6,390.3,338.4,390.3,338.4z"/>
</g>
<path class="st32" d="M397.2,209l-29.6,5.5c-3.1,3.9-12-13.7-12-1.6c0,9.7-2.8,28.2,6.4,56.8c0,0.1,2.8,13.1,2.8,13.2
	c0,0-6.9,18.8-5.9,34.1c0.5,7.1-2.9,7.6-2,14.8c5.3,2.9,9,2.4,11.9,2.1c0.3-7.6,6.5-37.4,8.4-49.5c1.7-7,2-25.3,1.1-43.6l2.3,0.3
	c1.1,12,3.5,42.7,4.5,45.6c-1.3,2.8-1.6,11.6-0.4,23.7c0.8,8.3,2.3,20.2,3.8,26.4c2.8,0.9,7.6,0.8,12.4-1.9
	c-0.8-11.1-3-42.3-2.8-48.8C398,286,401.7,240.1,397.2,209z"/>
<path class="st33" d="M362.1,319.4c-1.6-16.7,5.5-37.4,5.5-37.4c0-0.1-3.4-14.2-3.4-14.3c-9.2-26-8.8-44.6-8.6-56.1
	c0,0.4,0,0.8,0,1.3c0,9.7-2.8,28.2,6.4,56.8c0,0.1,2.8,13.1,2.8,13.2c0,0-6.9,18.8-5.9,34.1c0.5,7.1-2.9,7.6-2,14.8
	c1.2,0.7,2.3,1.1,3.4,1.5C359.9,327.6,362.8,326.3,362.1,319.4z"/>
<path class="st33" d="M367.6,214.5c-3.1,3.9-12-13.7-12-1.6c0,5.2-0.8,12.9-0.2,23.3c5-8.5,10.9-17.8,19.9-17.8
	c7.8,0,17.3,1.6,23.5,5.8c-0.3-5.3-0.8-10.4-1.5-15.2L367.6,214.5z"/>
<path class="st26" d="M283.6,352.9c0,2.4-12.7,4.3-28.4,4.3c-15.7,0-28.4-1.9-28.4-4.3c0-2.4,12.7-4.3,28.4-4.3
	C270.9,348.6,283.6,350.6,283.6,352.9z"/>
<path class="st34" d="M253.6,348.1c0.1-0.6-0.6-7.1,5.2-7c5.8,0.1,10.3,2.8,14.1,3.5c3.2,0.5,4.3,2.2,4.4,4.8c0,0.8-0.4,1.6-1.1,1.8
	c-1.9,0.7-6.5,1.9-14.4,1.2C252.7,351.5,253.3,350.3,253.6,348.1z"/>
<g>
	<g>
		<path class="st27" d="M480.5,218.7c-0.1,1,4.1,3.5,6,2c1.2-0.9,5.4-33.3,6.9-34.7c7-6.6,21.1,3.6,31.7,0.7
			c3.3-0.9,2.4-9.7,5.1-13.3c1.5-1.9,15.5,24.9,17.3,25.6c2,0.8,2-0.3,3.4-1.3c1.5-1,3.5-0.5,2.8-2.2c-8.8-22.3-14.4-31.2-17.4-34.9
			c-2.2-2.7-6.8-3.7-10.6-4.2c-5.5-0.7-6.3-1.4-5.6-9.3c0.3-3.1,0.5-5.6,0.7-7.7c0.4-3.8-3.7-6.4-7-4.4l-5,3c-1.7,1-2.6,2.9-2.2,4.8
			c0.4,2.1,0.4,5.3-1.6,9c-3.1,5.6-12.9-0.1-17.9,4.3c-0.9,0.8-1.3,1.9-1.5,3C481.4,180.4,482.4,196.2,480.5,218.7z"/>
		<path class="st35" d="M505.7,150.5c6.5,1.2,12.7-2,14.8-7.9c0.9-9.7,1.4-12.2,1.4-12.2l-16.3,9.7
			C505.6,140.1,508.3,144.4,505.7,150.5z"/>
	</g>
</g>
<g class="st23">
	<path class="st35" d="M499.2,155.1c0.1-0.2,0.2-0.3,0.2-0.5c-4.1,0.1-9.2-1.2-12.3,1.6c-0.5,0.4-0.8,0.9-1,1.4
		C491,157.3,496.9,159.3,499.2,155.1z"/>
	<path class="st35" d="M489.1,185.3c-1.2,1.1-5.6,26.1-7.4,34.9c1.4,0.9,3.5,1.5,4.7,0.6c1.1-0.9,4.7-28.1,6.5-33.7
		C490.9,187.2,490.6,183.9,489.1,185.3z"/>
	<path class="st35" d="M524.4,176.7c-1.9,2.5-2.1,7.5-3.1,10.6c1.3,0,2.5-0.2,3.7-0.5c1.8-0.5,2.3-3.3,2.9-6.4
		C526.2,177.8,524.8,176.2,524.4,176.7z"/>
	<path class="st35" d="M520.7,141c0-0.2,0-0.5,0.1-0.7C520.7,140.6,520.7,140.8,520.7,141z"/>
	<path class="st35" d="M553.7,195.7c-8.8-22.3-14.4-31.2-17.4-34.9c-2.2-2.7-6.8-3.7-10.6-4.2c-5.5-0.7-6.3-1.4-5.6-9.3
		c0.2-2,0.3-3.8,0.5-5.4c0,0.2,0,0.4-0.1,0.6c-1.1,3.1-3.3,5.4-6.1,6.8c0,0.4-0.1,0.7-0.1,1.1c-0.7,7.9,0.1,8.5,5.6,9.3
		c3.7,0.5,10.8-0.2,13,2.5c3,3.7,18.6,37.8,19.8,36.9C554.3,198.2,554.3,197.4,553.7,195.7z"/>
</g>
<path class="st36" d="M517.7,239.5l-45.7-4.1c-0.7-0.1-1.3-0.7-1.2-1.5l2.8-30.5c0.1-0.7,0.7-1.3,1.5-1.2l45.7,4.1
	c0.7,0.1,1.3,0.7,1.2,1.5l-2.8,30.5C519.1,239.1,518.5,239.6,517.7,239.5z"/>
<path class="st37" d="M518.8,239.5l-45.7-4.1c-0.7-0.1-1.3-0.7-1.2-1.5l2.8-30.5c0.1-0.7,0.7-1.3,1.5-1.2l45.7,4.1
	c0.7,0.1,1.3,0.7,1.2,1.5l-2.8,30.5C520.2,239.1,519.5,239.6,518.8,239.5z"/>
<path class="st38" d="M520,239.5l-45.7-4.1c-0.7-0.1-1.3-0.7-1.2-1.5l2.8-30.5c0.1-0.7,0.7-1.3,1.5-1.2l45.7,4.1
	c0.7,0.1,1.3,0.7,1.2,1.5l-2.8,30.5C521.4,239.1,520.7,239.6,520,239.5z"/>
<path class="st29" d="M301.3,342.4c0,0-0.1,0.1-0.1,0.3c-0.3,0.8-1,2.8-0.5,4.4c0.6,2,5.3,12.4,15.3,11c6.1-0.9-4.2-16.7-10.5-15.7
	c-5.1,0.8-4.2,0.1-4.2,0.1"/>
<path class="st28" d="M307.7,342.7c-0.2-0.3-0.6-2.5-0.4-3c1.4-5.6,3.4-21.1,3.4-21.1l-12.6,4c0,0,4,19.2,3.1,20.8
	c-0.2,0.5,1.3,11.3,11.6,8.2C316.8,350.4,308.7,344.1,307.7,342.7z"/>
<path class="st39" d="M326.1,148.6c2.2-0.2,4.9-5.7,12.9,11.9c5.6,12.3,6.6,27.6,6.7,44.1c0,3.8-5,16-8.8,15.1
	c-0.6-0.1-2.5-20-2.8-20.6c-3.7-7.4-12.4-35.2-11.5-39.1C324.3,153.1,323.9,148.8,326.1,148.6L326.1,148.6z"/>
<path class="st40" d="M336.5,211.8c0.2-2.1-0.2-4.3,0.4-6.4c4.2-13.6-7.5-56-7-56.9c-2.8-2.4-2.4-0.1-3.7,0
	c-2.2,0.2-1.8,4.5-3.4,11.5c-0.9,3.8,7.8,31.7,11.5,39.1c0.2,0.4,1,8.4,1.7,14.4C336.2,212.8,336.4,212.3,336.5,211.8z"/>
<path class="st36" d="M281.3,332.8c-0.1-1.1-1.5-56.3-3.5-69c-0.6-3.9,0.7-21.3,0.8-25.3c0.6-26.2,3.3-73.5-0.7-91.7
	c10.6-2.9,17.2-4,28.6-4.2c8.7-0.2,22.7,4.2,23.3,5.4c4,7.9,3.9,75.6,27.5,173.4C357.8,323.5,283.4,348.8,281.3,332.8z"/>
<path class="st41" d="M292.9,326.6c-0.1-1.1-1.5-56.3-3.5-69c-0.6-3.9,0.7-21.3,0.8-25.3c0.6-24.7,3-68.4-0.1-88.5
	c-3.8,0.7-7.7,1.6-12.3,2.9c4.1,18.2,1.4,65.6,0.7,91.7c-0.1,4-1.4,21.4-0.8,25.3c1.9,12.7,3.3,67.9,3.5,69c2.2,16,76.5-9.3,76-11.5
	c-0.1-0.3-0.2-0.7-0.2-1C336,327.6,294.5,338.5,292.9,326.6z"/>
<path class="st26" d="M527.8,363.2c0,2.4-12.7,4.3-28.4,4.3c-15.7,0-28.4-1.9-28.4-4.3c0-2.4,12.7-4.3,28.4-4.3
	C515,358.9,527.8,360.8,527.8,363.2z"/>
<path class="st39" d="M306.1,142.5c3.9-0.1,13,1.5,17.9,3c3.3,1,0.4,9.5-2,12.3c-4.1,4.6-15.5,3.5-24.8-2.8
	c-5.7-3.9-9.1-7.9-10.5-10.5C292.6,143.4,298.4,142.7,306.1,142.5L306.1,142.5z"/>
<ellipse transform="matrix(0.7071 -0.7071 0.7071 0.7071 20.2079 227.1732)" class="st42" cx="284.3" cy="89.2" rx="13.7" ry="13.7"/>
<path class="st43" d="M288.7,92.3c0,0-6.8,0.1-11.1,6.2c-4.2,6.1-1.6,22.8,9.2,26.2L288.7,92.3z"/>
<path class="st43" d="M280.5,92.4c-1.1-10.3,57.9-29.1,40.4,21.8C320.9,114.2,281.6,102.6,280.5,92.4z"/>
<path class="st43" d="M321.5,111.8c0.2,11.5-8.1,20.9-20,21.1c-11.9,0.2-21.7-9-21.9-20.5c-0.2-11.5,9.4-21,21.3-21.2
	C312.8,91.1,321.3,100.3,321.5,111.8z"/>
<polygon class="st28" points="297.4,109.1 292,144.3 306.1,148.1 311.4,143.8 309,112.5 "/>
<path class="st44" d="M295.7,130.5c1,2.2,6.9,9.6,10.3,11.1c1.8,0.8,4,0.4,5.2-1.2l0,0l-2.2-28l-8.5-2.5
	C300.5,110,293,124.7,295.7,130.5z"/>
<path class="st28" d="M297.4,93.5c3.8-1.1,7.8-1.4,11.7-0.6c5.2,1,12,4.2,13,13.8c1.6,15.9-3.3,27-11.1,30.7
	c-6,2.9-19.4-8.1-20.2-11.2l-3.1-8.5C287.6,117.6,279.3,98.7,297.4,93.5z"/>
<path class="st43" d="M290.6,122.3c0,0,10.1-18.5-1.6-24.4c0,0-5.4-3.6-7.3,6.3C278.7,120.2,290.6,122.3,290.6,122.3z"/>
<path class="st43" d="M288.7,98.8c0,0,3.2,7.9,19.1,0c8.8-4.3,14,3.8,14,3.8s-3.1-12.9-17.7-11.9C289.5,91.7,288.7,98.8,288.7,98.8z
	"/>
<ellipse class="st28" cx="289.7" cy="119.5" rx="4" ry="6.4"/>
<path class="st45" d="M306.4,125.1c-1.1-0.2-0.9,1-0.5,1.5c1.2,1.5,2.7,3.5,5,3.8c2.8,0.3,5.1-2.3,6-3.5c0.1-0.2,0.5-1,0.2-1
	C315.6,125.7,311.5,126,306.4,125.1z"/>
<path class="st43" d="M308.5,96.3c0,0-4.9,4.9-13,7.2c0,0,14.8-2.8,17.5-9.4C315.8,87.5,308.5,96.3,308.5,96.3z"/>
<path class="st43" d="M322.8,109.7c-0.4-0.6-1.9-2.6-4.5-2.5c-3.2,0.1-2.8,1.5-2.8,1.5s1.7-0.7,3.8-0.4c1.7,0.3,3.1,1.2,3.5,1.5
	C322.8,109.7,322.8,109.7,322.8,109.7z"/>
<path class="st43" d="M302.3,109.7c0,0,2-2.7,5.1-2.4c3.2,0.3,2.5,1.6,2.5,1.6s-1.6-0.8-3.7-0.6
	C304.2,108.5,302.3,109.7,302.3,109.7z"/>
<path class="st46" d="M315,113.8l1.4,4.2c0.5,1.4-0.4,2.9-1.9,3.1"/>
<ellipse class="st47" cx="306.2" cy="113.5" rx="1.3" ry="1.6"/>
<ellipse class="st47" cx="317.7" cy="113.5" rx="1.3" ry="1.6"/>
<path class="st48" d="M307.3,128.4c0.7-0.2,1.5-0.4,2.3-0.4c2,0,3.7,0.7,4.3,1.7c-0.9,0.5-1.9,0.9-3,0.7
	C309.4,130.2,308.3,129.4,307.3,128.4z"/>
<path class="st10" d="M305.7,125.2c0.1-0.1,0.4-0.2,0.7-0.2c3.5,0.6,6.6,0.7,8.6,0.7c-0.1,0.2-0.3,0.3-0.5,0.3
	c-1.8,0-7.5,0.1-8.6-0.6C305.8,125.4,305.7,125.3,305.7,125.2z"/>
<path class="st49" d="M336.3,187.4l-18.6,42c-0.3,0.7-1.1,1-1.8,0.7l-28-12.4c-0.7-0.3-1-1.1-0.7-1.8l18.6-42c0.3-0.7,1.1-1,1.8-0.7
	l28,12.4C336.3,185.9,336.6,186.7,336.3,187.4z"/>
<circle class="st50" cx="311.9" cy="201.6" r="2.5"/>
<g>
	<g>
		<path class="st28" d="M307.4,205.4l7.7-4.1c0.7-0.4,1.5-0.4,2.2-0.2l9.5,3.5c0,0-0.7,1.2-1.7,1.3c-1,0.1,2,1.1,2,1.1l1.4-0.7
			c0,0,1.3,1.1,0.4,2.1c-0.9,1-1.6,1.5-1.6,1.5l-0.7-0.4c0,0-0.3,1.1-1.6,1.6c0,0-1.1,1.4-3.2,2.2c-2.1,0.8-3.4,0.8-3.4,0.8
			l-10.2-3.6L307.4,205.4z"/>
	</g>
	<g>
		<g>
			<path class="st51" d="M317.3,203.7c0-0.1,1.8,0.1,3.9,0.8c2.1,0.6,3.7,1.4,3.7,1.5c0,0.1-1.7-0.5-3.8-1.2
				C319,204.2,317.3,203.8,317.3,203.7z"/>
		</g>
	</g>
	<g>
		<g>
			<path class="st51" d="M321.6,208.1c0-0.1,1.4,0.2,3,0.7c1.6,0.5,2.9,1,2.9,1c0,0.1-1.4-0.2-3-0.7
				C322.8,208.7,321.5,208.2,321.6,208.1z"/>
		</g>
	</g>
	<g>
		<g>
			<path class="st51" d="M320.2,210.1c0-0.1,1.1,0.3,2.4,0.5c1.3,0.3,2.4,0.4,2.4,0.5c0,0.1-1.1,0.2-2.5-0.1
				C321.2,210.7,320.2,210.2,320.2,210.1z"/>
		</g>
	</g>
	<g>
		<g>
			<path class="st51" d="M318.7,212c0-0.1,0.9,0.2,1.9,0.4c1,0.3,1.9,0.4,1.9,0.5c0,0.1-0.9,0.1-2-0.2
				C319.5,212.5,318.7,212.1,318.7,212z"/>
		</g>
	</g>
</g>
<path class="st39" d="M282.4,190c-0.2,1,26.5,14,27.1,14.8c2.7,3.7,3.9,6.6-1.2,6.1c-0.5,0-42.2-3.2-44.7-11.1
	c-0.6-1.9-0.1-8.6,0.1-10.5c2.3-16.7,8.6-42,14.7-42.7c4.9-0.5,12.6,8.5,8.5,23.2C286.9,169.8,284.8,180.3,282.4,190z"/>
<path class="st40" d="M268.8,200.7c-0.6-1.9-0.1-8.6,0.1-10.5c2.1-15.6,7.8-38.8,13.5-42.3c-1.3-1-2.7-1.4-4-1.3
	c-6.1,0.7-12.4,26-14.7,42.7c-0.3,1.9-0.7,8.6-0.1,10.5c1.3,4.1,13.1,6.9,24.2,8.7C278.5,206.8,269.8,204.2,268.8,200.7z"/>
<path class="st52" d="M264.7,286.7l-2.7,56l-0.2,0c-1.8,0.3-3.7,0.1-5.5-0.6l0,0c0,0-2.9-29.1-1.9-39.2c0.4-4.1-7-14.9-7-14.9
	l18-1.2"/>
<g class="st23">
	<polygon class="st53" points="264.7,286.7 264.7,287 265.4,286.9 	"/>
	<path class="st53" d="M260.4,342.1L260.4,342.1c0,0-2.9-29.1-1.9-39.2c0.4-4.1-7-14.9-7-14.9l13.2-0.9l0-0.3l-17.2,1.1
		c0,0,7.4,10.8,7,14.9c-1,10.1,1.9,39.2,1.9,39.2v0c1.7,0.7,3.6,0.9,5.5,0.6l0.2,0l0-0.1C261.4,342.5,260.9,342.3,260.4,342.1z"/>
</g>
<path class="st52" d="M233,289.2l-0.5,56.6l-5.5,1.1l-5.9-35.1c-0.4-2.1-0.5-4.3-0.6-6.5l-0.1-11.9l13.3-3.9"/>
<path class="st54" d="M226,308.6c-0.4-2.4-0.6-4.7-0.6-7.2l-0.1-9.5l-4.9,1.4l0.1,11.9c0,2.2,0.2,4.4,0.6,6.5l5.9,35.1l2.2-1.1
	L226,308.6z"/>
<path class="st32" d="M264.1,250.5L268,292c0,0-13,4.1-21.4,0l-4.1-9l-5.3,8.8c0,0-16.8,5.6-20.1-1.3v-45L264.1,250.5z"/>
<path class="st33" d="M267.6,287.5c-1.9,0-16.3,2.1-24.4-3c0,0.4,3.4,7.5,3.4,7.5c8.3,4.1,21.4,0,21.4,0L267.6,287.5z"/>
<path class="st33" d="M240.9,284.1c-0.1-0.1-0.1-0.1-0.1-0.2c-0.3,0-0.5,0-0.8,0c-9.4-0.3-16.5-8.6-15.2-17.9l2.8-19.3l-10.5-1.1v45
	c3.4,6.9,20.1,1.3,20.1,1.3l3.6-5.9C240.8,285.3,240.7,284.7,240.9,284.1z"/>
<path class="st52" d="M272.6,198.5c0,0-3.3,39-7.6,63.5c-0.5,2.9-4.6-10.9-4.6-10.9l2-36.3l-3.8-13l14.8-3"/>
<g>
	<g>
		<ellipse transform="matrix(0.1265 -0.992 0.992 0.1265 88.4911 374.4474)" class="st52" cx="256.9" cy="137" rx="5.3" ry="3.1"/>
	</g>
</g>
<g>
	<path class="st52" d="M247.9,152.8v7.1c0,1.6,1.1,3,2.7,3.4l1.8,0.4l0,0c-4.3,9.5-17.5,10.2-22.7,1.2l-0.6-1l2.3-0.8
		c1.4-0.5,1.1-3.1,1.1-4.5l1.9-17.7L247.9,152.8z"/>
</g>
<g class="st23">
	<path class="st53" d="M247.9,159.9v-4c-5.7,3.1-11.1,3-15.1-0.2l-0.1,0.8c0.1,1.1,0.3,2.7,0.5,3.2c3.4,2.8,9.2,4.5,14.3,2
		c0.2-0.1,0.5-0.2,0.7-0.4C248,160.9,247.9,160.4,247.9,159.9z"/>
</g>
<g>
	<path class="st52" d="M257.4,137.8c0,0-0.3,22.1-16.8,22.1s-16.8-22.1-16.8-22.1s0.4-23.6,16.8-23.6c5.9,0,10.7,0.1,13.2,4
		C258.2,125.1,257.4,137.8,257.4,137.8z"/>
</g>
<g>
	<path class="st55" d="M256.4,131.9c0.1,0,0.2-0.1,0.3-0.1c0.4-0.1,0.7-0.1,1.1,0c0,0,0.1,0,0.1,0c8.9-25.6-13.8-29.3-25.2-23.8
		c-9.1,4.4-4.6,8-5.9,8.9c-8.1,6-2.4,19.7-2.4,19.7c2.4-0.9,0.5-3.4,1.2-5.3c6.6-5.4,6-10.9,6-10.9c1-2.3,9.3,1.9,14.3,2.9
		c1.5,0.3,6,0,7.3-0.8c0.3-0.1,0.4-0.4,0.4-0.6C253.8,124.3,255.3,128.9,256.4,131.9z"/>
</g>
<path class="st56" d="M228.9,119.3c1.3-1-3.2-4.5,5.9-8.9c6.5-3.2,16.8-3.3,22.7,2.1c-5.2-7.7-17.4-8-24.8-4.5
	c-9.1,4.4-4.6,8-5.9,8.9c-8.1,6-2.5,19.9-2.5,19.9c0.6-0.2,0.4-0.6,0.6-1C223.9,131.3,223.3,123.4,228.9,119.3z"/>
<g>
	<g>
		
			<ellipse transform="matrix(0.9961 -8.790272e-02 8.790272e-02 0.9961 -11.0873 20.2535)" class="st52" cx="224.4" cy="136" rx="3.1" ry="5.3"/>
	</g>
</g>
<g>
	<path class="st53" d="M225.5,138.8l-0.2,1.1c0,0-3.1-2.8-2.3-5.4c0.6-2,1.5-1.3,1.9-0.9c0.1,0.1,0.2,0.3,0.2,0.4l0.2,0.8
		c0,0-1.3,0.3-1.3,1.1c0,0.6,0.8,1.7,1.2,2.3C225.5,138.4,225.5,138.6,225.5,138.8z"/>
</g>
<g>
	<ellipse class="st47" cx="238.1" cy="133.4" rx="1.2" ry="1.8"/>
</g>
<g>
	<path class="st47" d="M251.6,133.4c0,1-0.5,1.8-1.2,1.8c-0.6,0-1.2-0.8-1.2-1.8c0-1,0.5-1.8,1.2-1.8
		C251.1,131.6,251.6,132.4,251.6,133.4z"/>
</g>
<g>
	<path d="M243.5,142.5c-0.1,0-0.2-0.1-0.3-0.2c0-0.1,0.1-0.3,0.2-0.3l3.1-0.5c0.5-0.1,0.9-0.4,1.1-0.8c0.3-0.4,0.3-0.9,0.2-1.4
		l-2.1-6.1c0-0.1,0-0.3,0.2-0.3c0.1,0,0.3,0,0.3,0.2l2.1,6.1c0.2,0.6,0.1,1.3-0.2,1.8c-0.3,0.5-0.9,0.9-1.5,1L243.5,142.5
		C243.5,142.5,243.5,142.5,243.5,142.5z"/>
</g>
<g>
	<path class="st56" d="M233.8,130.9c0,0-0.1,0-0.1,0c-0.3-0.1-0.5-0.4-0.4-0.7c0-0.1,0.8-2.9,2.8-3.5c1.2-0.4,2.6,0.1,4,1.4
		c0.2,0.2,0.2,0.5,0.1,0.8c-0.2,0.2-0.5,0.2-0.8,0.1c-1.2-1-2.2-1.4-3-1.1c-1.5,0.5-2.1,2.7-2.1,2.8
		C234.3,130.8,234,130.9,233.8,130.9z"/>
</g>
<g>
	<path class="st56" d="M254.2,130.9c-0.2,0-0.5-0.2-0.5-0.4c0,0-0.6-2.3-2.1-2.8c-0.8-0.3-1.9,0.1-3,1.1c-0.2,0.2-0.6,0.2-0.8-0.1
		c-0.2-0.2-0.2-0.6,0.1-0.8c1.5-1.3,2.8-1.7,4-1.4c2.1,0.6,2.8,3.4,2.8,3.5c0.1,0.3-0.1,0.6-0.4,0.7
		C254.3,130.9,254.3,130.9,254.2,130.9z"/>
</g>
<g>
	<path class="st57" d="M241.2,231.6c-4.9,0-6.1-2.7-6.3-3.6c3.5-0.7,7-1,11.3-0.4C246.3,228.6,246,231.6,241.2,231.6z"/>
</g>
<g>
	<polygon class="st57" points="244.6,225.5 244.4,218.9 236.1,219.1 236.3,224.2 236.4,230.7 244.8,230.5 	"/>
</g>
<g>
	<path class="st10" d="M211.2,171.2c0,0,8.1-5.5,18.1-7.7c0.4-0.1,0.9-0.2,1.3-0.3c0.3,1.5,1.9,6,10.4,6c8.4,0,8.7-4.8,8.5-6.5
		c0.6,0.1,1.3,0.2,1.9,0.3c4.6,0.7,10.2,2.6,14.7,4.7c0,0-9.7,21.2-2.5,85.6c0,0-24.3,4.4-45.7-4c0,0,1.8-35.3-2.5-52.5
		C215.5,196.8,212.6,182,211.2,171.2z"/>
</g>
<path class="st58" d="M263.6,252.7c-2.8,0.1-6,0.2-9.4,0c-14.3-0.6-25.6-12.4-25.8-26.7c-0.1-10.6-0.8-22.7-2.8-30.8
	c0,0-1-5.2-2.1-11.6c-0.5,0-1,0-1.5,0c-3.2,0-6.3-0.5-9.1-1.4c1.3,7.7,2.6,14.5,2.6,14.5c4.2,17.1,2.5,52.5,2.5,52.5
	c21.5,8.4,45.7,4,45.7,4C263.7,253.1,263.7,252.9,263.6,252.7z"/>
<g>
	<path class="st18" d="M236.3,145c0,0,0.1,1.5,0.7,3.2c0.7,1.9,2,4.1,4.5,4.3c3.1,0.3,5.3-0.2,6.7-2.9c0.6-1.1,1-2.5,1.2-4.4
		c0,0-0.2,0.2-0.6,0.4c-1.1,0.6-3.5,1.6-6.5,1.1c-2.8-0.4-4.5-1-5.4-1.4C236.6,145.2,236.3,145,236.3,145z"/>
	<path class="st10" d="M237.1,147.2C237.1,147.2,237.1,147.2,237.1,147.2c0,0.2,0.1,0.3,0.1,0.3s0,0,0,0c0,0,0.4,0.7,2.1,1.3
		c0.5,0.2,1.2,0.4,2,0.5c1.4,0.2,2.6,0.2,3.7,0c1.7-0.3,2.8-0.8,2.9-0.8c0,0,0,0,0,0c0.1-0.1,0.1-0.2,0.2-0.4c0,0,0,0,0,0
		c0.3-0.7,0.6-1.8,0.7-2.5c-1.1,0.6-3.5,1.6-6.5,1.1c-2.8-0.4-4.5-1-5.4-1.4C236.9,146.1,237.1,146.8,237.1,147.2z"/>
	<path class="st10" d="M237.1,148.2c0.7,1.9,2,4.1,4.5,4.3c3.1,0.3,5.3-0.2,6.7-2.9c-0.1-0.4-0.2-0.7-0.2-0.9c0-0.1-0.1-0.2-0.1-0.2
		c0,0,0,0,0,0c-1.8,0.5-3.5,0.7-5,0.5c-1.6-0.1-3-0.5-4-0.8c-1.1-0.4-1.7-0.7-1.8-0.7c0,0,0,0,0,0l-0.1,0.3L237.1,148.2z"/>
	<path class="st59" d="M241.9,149.1c0,0,1.5,0.3,3.2,0.2c1,0,2.1-0.2,3-0.6c0-0.1-0.1-0.2-0.1-0.2c0.1-0.1,0.1-0.2,0.2-0.4
		c-0.1,0-1.8,0.7-5.2,0.9C242.6,149.1,242.3,149.1,241.9,149.1z"/>
	<path class="st59" d="M237.2,147.5l-0.1,0.3c0.6,0.6,1.5,0.9,2.2,1c0.9,0.2,2,0.2,2,0.2c-0.7-0.1-1.8-0.5-2.4-0.8
		c-1-0.5-1.8-1-1.8-1.1C237.2,147.4,237.2,147.5,237.2,147.5z"/>
</g>
<g>
	<path class="st52" d="M209.4,182.3l0.1-0.5C209.5,181,209.4,181.4,209.4,182.3z"/>
	<polygon class="st52" points="218,194.6 218,194.8 218.5,195.2 	"/>
	<path class="st52" d="M219.1,258.1c2.5-1.3,4.4-3,5.7-4.4l-11.1-39.9c0-0.9,0.1-1.8,0.3-2.6l3.9-16.4l-7.2-5.3
		c-1.5-1.1-1.5-5.3-1.4-7.2l-5.5,32c0,0.2,0,0.5,0,0.7l14.7,41.8C218.7,257.3,218.9,257.7,219.1,258.1z"/>
</g>
<path class="st54" d="M209.1,207.6l2.9-17.1l-1.3-1c-1.5-1.1-1.5-5.3-1.4-7.2l-5.5,32c0,0.2,0,0.5,0,0.7l14.7,41.8
	c0.1,0.5,0.2,0.9,0.5,1.3c1.3-0.7,2.4-1.4,3.3-2.2c0,0-8.1-23.3-12.2-35C208.8,216.7,208.4,212.1,209.1,207.6z"/>
<g>
	<path d="M218.3,258.6l-0.1-0.5c0,0,4.7-0.9,8.2-6.3l0.1,0.1C222.8,257.4,218.5,258.5,218.3,258.6z"/>
</g>
<g>
	<path class="st10" d="M200.6,198.5c2.5-5.4,8.1-24.5,10.3-26.7c3.9-3.8,17.7,5.4,18.1,10.3c0.6,7.2-7.1,23.7-7.1,23.7
		S203.4,203.3,200.6,198.5z"/>
</g>
<path class="st58" d="M208.5,189.1c2.4-6.9,5.2-15.4,6.8-18c-1.9-0.4-3.5-0.3-4.5,0.7c-2.2,2.2-7.8,21.2-10.3,26.7
	c2.9,4.8,21.3,7.4,21.3,7.4s0.3-0.7,0.9-2c-2.1-0.4-4.7-1-7.3-1.7C209.8,200.7,206.6,194.6,208.5,189.1z"/>
<g>
	<path class="st10" d="M266.3,167.5c0,0,4.3,6.9,9.3,32c-2.5,1.8-10.9,7.3-17.3,8.3c-0.7-2.4-2.9-8.1-3.2-9.9
		C255.2,197.9,255.3,177.9,266.3,167.5z"/>
</g>
<path class="st60" d="M397.3,93c1.4,23.8,3.5,46.8,3.5,53.5c0,5.7-3-8.8-8-7.6c-4.6,1.1-11.4-5.4-17.8-5c-6.4,0.4-7,27.2-11.5,26
	c-5-1.4-7.4-27.5-7.2-33.1c0.2-6.2-5.5-28.7,1.7-39.8c0.2-0.3,1.7-1.2,1.8-1.5c3.2-7,9.2-10.8,17.8-10.8
	C394.6,74.7,397.3,93,397.3,93z"/>
<path class="st52" d="M383,124.2c0,0,0.4,8,1.1,8.9c0.8,0.9,9.7,1.8,10.8,2.2c1.1,0.4-0.7,8.6-1.4,9.8c-0.7,1.3-7.6,7.6-7.6,7.6
	l-13.7,0.7c0,0-6.5,5-11.9-3.1c-5.3-8.1-5.1-7.6-4.8-9.1c0.3-1.5,3.1-6,3.5-6.8s10.4-0.8,10.7-1.3c0.3-0.5,1.1-8.1,1-8.7
	C370.7,123.8,383,124.2,383,124.2z"/>
<path class="st10" d="M405.6,144c-1.5-3.6-1.8-6.5-4.9-8c-2.7-1.3-5.6-0.8-5.6-0.8c0.9,8.6-25.8,23-34.2-1.7c0,0-12.7,2.9-13.2,12.6
	c-0.4,6.9-1.9,15.5-2.4,18.2c-0.4,2.6-1.4,19.4-1.4,19.4l10.4-4.6c0,0,5.5,13.3,0.3,37.6c-0.4,1.9,45.7-0.8,45.2-2.1
	c-3.8-9-3.7-40.7-3.7-40.7s3.7-5.4,3.4-9.7l0.1-1.1l2.4,13.6c0,0,5.2-1.8,10.8,3.2C412.5,179.9,407.1,147.6,405.6,144z"/>
<path class="st53" d="M370.4,129.1c0,0,2.1,3.2,5.6,2.8c4.9-0.5,7-3.7,7.3-4.3c0.2-0.6,0-4,0-4l-9.3,2l-3.2-0.7L370.4,129.1z"/>
<path class="st52" d="M343.8,182.8c0,0-0.5,6.2,1.6,6.6c2.2,0.4,36.2-0.7,40.4-3.8c4.2-3.1-1.6-10.2-1.6-10.2l-28.9,1.7l-7.7,2.7
	L343.8,182.8z"/>
<path class="st52" d="M391.1,175.6c-0.2-0.1-0.3-0.4-0.1-0.6c1.5-1.2,6.3-5.1,7.1-5.9c0.9-0.9,6.3-4,7.4-4.2c1.1-0.2,3.6,0.2,4.4,0
	c0.8-0.2,2-0.1,1.6,0.6s-5.4,1.2-6.2,1.2c-0.3,0-0.8,0.2-1.1,0.5c-0.3,0.2-0.1,0.6,0.2,0.6c1-0.1,2.7-0.1,3.5,0.1
	c1.2,0.3,5.1,2.2,6.2,2.3c1.1,0.1-0.9,2.1-5.5-0.2c-0.1,0-0.1,0-0.2,0c-0.7,0-5,0.3-5.7,0.5c-0.7,0.3-0.7,0.7,0.1,0.6
	c1-0.1,4.8-0.7,5.6-0.4s5,2,5.6,2.1s1,1.1,0.2,1.1c-0.7,0-5.3-0.8-6.6-1.5c-0.1,0-0.1-0.1-0.2,0c-0.6,0.1-3.6,0.2-4.8,0.5
	c-0.4,0.1,4.4,0.7,4.9,0.7s3.9,1.2,4,1.3s0.9,1.3-0.3,1c-1.1-0.2-7.9,0-8.5,0.1c0,0,0.2,1.2,0.2,1.3c-0.3,0.2-2.4,1.3-2.7,1.3
	c-0.3,0-1.8-0.2-2.1-0.2c0,0-0.1,0-0.1,0L391.1,175.6z"/>
<path class="st53" d="M382.8,185c-14.5-7-21.8-7.5-23.6-6.9c-1,0.3-4.5,0.4-7.7,0.4l-3.7,1.3l-1.8,1.4c3.3-0.1,10.2,0,11.6-0.5
	c1.8-0.6,8.7-0.1,22.6,6.5c2.1-0.4,3.8-0.8,4.9-1.2C384.3,185.7,383.5,185.3,382.8,185z"/>
<path class="st52" d="M401.4,177.2c0,0-22.1-5.7-30.8-5.8s-18.3-2.9-21.5-3s-7.7,0.6-8.3,0.9c-0.6,0.3,0.9,0.7,4.1,0.9
	c3.2,0.2,5,0.6,5,0.6l0.8,0.4c0,0-5.4,1.2-5.8,1.3c-0.4,0.2-4.9,4.1-5.4,4.7s0.6,0.6,0.6,0.6l5.6-3.3c0.5-0.3,1.1-0.4,1.6-0.4l0.7,0
	l-1.4,0.6c0,0-4.9,4-5.5,4.6c-0.7,0.7,0.1,1.5,0.6,1.1s6.3-3.6,6.3-3.6l2.1-0.4c0,0,0.4,0.4,0.3,0.5c-0.2,0.1-6.7,2.9-7,3.6
	c-0.2,0.7-0.3,0.6,1,0.5c1.4-0.1,6.5-1.4,7.7-1.7s8.8,0,10.2-0.4c1.4-0.4,7-0.1,18.1,5.3s28.6,8.1,30,6.7c1.4-1.4,3.6-9.2,2.9-11.2
	c-0.7-1.9-11.8-5.3-11.9-4C401.4,177.2,401.4,177.2,401.4,177.2z"/>
<g>
	<g>
		<g>
			<g>
				<path class="st61" d="M362.2,106.1c0,0-3.1-3-5.6-1.1c-2.9,2.3,0.1,10.8,5.3,9.9L362.2,106.1z"/>
			</g>
		</g>
	</g>
	<path class="st10" d="M360.6,114.6c0,0.8-0.7,1.5-1.5,1.5c-0.8,0-1.5-0.7-1.5-1.5c0-0.8,0.7-1.5,1.5-1.5
		C359.9,113.1,360.6,113.8,360.6,114.6z"/>
	<g>
		<path class="st62" d="M361.3,112.2c-0.4-1.3-1.6-3.9-4.6-5c0,0,3.1,3,3.4,5.3c0,0.3,0.3,0.5,0.6,0.5l0.1,0
			C361.2,112.9,361.5,112.5,361.3,112.2z"/>
	</g>
</g>
<g>
	<g>
		<g>
			<g>
				<path class="st61" d="M388.4,106.1c0,0,3.1-3,5.6-1.1c2.9,2.3-0.1,10.8-5.3,9.9L388.4,106.1z"/>
			</g>
		</g>
	</g>
	<path class="st10" d="M393.5,114.6c0,0.8-0.7,1.5-1.5,1.5c-0.8,0-1.5-0.7-1.5-1.5c0-0.8,0.7-1.5,1.5-1.5
		C392.8,113.1,393.5,113.8,393.5,114.6z"/>
	<g>
		<path class="st62" d="M389.2,112.2c0.4-1.3,1.6-3.9,4.6-5c0,0-3.1,3-3.4,5.3c0,0.3-0.3,0.5-0.6,0.5l-0.1,0
			C389.4,112.9,389.1,112.5,389.2,112.2z"/>
	</g>
</g>
<path class="st52" d="M392.7,102.5c0,0.5-0.1,1-0.1,1.5c-1.1,10.9-9.2,24.6-16.4,24.6c-8,0-16.3-12.9-17.8-23.5
	c-0.1-0.8-0.2-1.5-0.3-2.3c-1.1-10.1,6.7-18.9,16.8-19h0.9c7.5,0.1,13.8,5,16,11.7c0.3,0.8,0.5,1.6,0.6,2.5
	C392.8,99.4,392.8,100.9,392.7,102.5z"/>
<g>
	<path class="st62" d="M377.5,111.6h-1.5c-0.2,0-0.3-0.1-0.3-0.3c0-0.2,0.1-0.3,0.3-0.3h1.5c0,0,0,0,0.1,0c0,0,0,0,0-0.1l-1.3-4.3
		c0-0.2,0-0.3,0.2-0.4c0.2,0,0.3,0,0.4,0.2l1.3,4.3c0.1,0.2,0,0.4-0.1,0.6C377.9,111.5,377.7,111.6,377.5,111.6z"/>
</g>
<g>
	<path class="st18" d="M381.6,116.9c0,0.3,0,0.7-0.1,1c-0.2,1.1-0.7,2.1-1.4,2.8c-1,1.1-2.5,1.9-4.1,1.9c-1.6,0-3.1-0.7-4.2-1.8
		c-0.7-0.8-1.2-1.7-1.4-2.8c-0.1-0.3-0.1-0.7-0.1-1c0,0,0,0,0,0L381.6,116.9C381.6,116.8,381.6,116.9,381.6,116.9z"/>
	<path class="st10" d="M381.6,116.9c0,0.3,0,0.7-0.1,1l-11.1,0.1c-0.1-0.3-0.1-0.7-0.1-1c0,0,0,0,0,0L381.6,116.9
		C381.6,116.8,381.6,116.9,381.6,116.9z"/>
	<path class="st19" d="M380.2,120.7c-1,1.1-2.5,1.9-4.1,1.9c-1.6,0-3.1-0.7-4.2-1.8c1-1,2.5-1.6,4.1-1.7
		C377.7,119.2,379.2,119.8,380.2,120.7z"/>
</g>
<path class="st60" d="M391.6,98.1c-4.7-0.4-19-0.9-28-8.2c0,0,1.6,11.5-5,17.2c0,0-0.3-1.7-0.7-2.3c-0.1-0.8-0.6-0.6-0.7-1.4
	c-1.1-10.6,7.1-20,17.8-20.1h1c7.9,0.1,14.5,5.3,16.9,12.3c0.3,0.8,0.5,1.7,0.7,2.6C393.6,98.3,392.9,98.2,391.6,98.1z"/>
<ellipse class="st63" cx="369.8" cy="104.6" rx="1.2" ry="1.6"/>
<ellipse class="st63" cx="382.9" cy="104.6" rx="1.2" ry="1.6"/>
<g>
	<path class="st63" d="M365.3,103.5c0.1-1.4,0.6-2.8,1.7-3.8c0.5-0.5,1.3-1,2-1c0.8,0,1.5,0.2,2.1,0.7l0,0.1
		c-0.7,0.1-1.4,0.1-1.9,0.2c-0.6,0.1-1.1,0.2-1.6,0.6c-0.5,0.3-0.9,0.8-1.3,1.4C365.8,102.3,365.5,102.9,365.3,103.5L365.3,103.5z"
		/>
</g>
<g>
	<path class="st63" d="M387.3,103.6c-0.2-0.6-0.5-1.3-0.8-1.8c-0.3-0.6-0.8-1-1.3-1.4c-0.5-0.4-1.1-0.5-1.6-0.6
		c-0.6-0.2-1.2-0.1-1.9-0.2l0-0.1c0.6-0.4,1.3-0.7,2.1-0.7c0.8,0,1.5,0.4,2,1C386.8,100.8,387.3,102.2,387.3,103.6L387.3,103.6z"/>
</g>
<path class="st27" d="M509.1,250.8c0,0,3.5,39.4,3.5,41.7s1.4,60,0.5,61c0,0,4.1,3.1,6.8,2.5c0,0,0.6-10.7,2.1-13.2
	c1.5-2.5,8-29.3,5.3-43.5s3.6-46.4,3.6-46.4S513.6,244,509.1,250.8z"/>
<path class="st64" d="M530.9,252.8c0,0-1.8-0.9-4.5-2c-1.4,7.6-5.6,33.2-3.3,45.6c2.8,14.7-2.1,43.1-3.6,45.6s-2.5,13.7-2.5,13.7
	c-0.1,0-1.6-0.9-1.6-0.9c1.4,0.7,3.2,1.4,4.6,1.1c0,0,0.6-10.7,2.1-13.2s8-29.3,5.3-43.5S530.9,252.8,530.9,252.8z"/>
<path class="st27" d="M500.8,253.8c0,0-5.6,32.5-8.2,40c0,0-0.7,1.5,0.7,3.6c1.4,2.1,10.3,40.4,10.5,58.7c0,0-6.7,2.9-8.5-1
	c-1.8-3.9-10.8-38.6-18-57.2c0,0,1.7-45.1,4.2-49.7C484,243.7,502.2,246.1,500.8,253.8z"/>
<path class="st64" d="M493.3,297.4c-1.4-2.1-0.7-3.6-0.7-3.6c2.6-7.4,8.2-40,8.2-40c1-5.5-7.9-8.3-14-7.8c5.7,0.4,12.1,3.1,11.2,7.8
	c0,0-5.6,32.5-8.2,40c0,0-0.7,1.5,0.7,3.6c1.4,2.1,10.3,40.4,10.5,58.7c0,0-1.5,0.6-3.2,0.9c2.6,0.6,6-0.9,6-0.9
	C503.6,337.8,494.8,299.6,493.3,297.4z"/>
<path class="st65" d="M508.7,261.4l20.5,0.2c1.1,0,2.1-0.8,2.2-1.9c0.7-6.2,2.2-25.2-4.5-32.4c-9.1-9.9-25.4-6.4-25.4-6.4l-11.2,3.8
	l-2,0.5c-2.6,0.7-4,2.9-4.8,5.5c-2.4,8.1-6.2,25.7-6.1,27.2c0.1,2,22.7,4.9,23.6,3.8c0.8-1.1,3.4-8.7,3.4-8.7l1.9-0.2l1.4,7.6
	C507.7,261,508.2,261.4,508.7,261.4z"/>
<g>
	<path class="st66" d="M504.3,253.1l-5.8,0c0,0-2.5,7.6-3.3,8.7c3.1,0.3,5.5,0.3,5.7,0c0.2-0.3,0.5-0.9,0.8-1.7L504.3,253.1z"/>
	<path class="st66" d="M526.9,227.3c-6.3-6.9-16.1-7.3-21.5-6.9c5.1,0.4,11.3,2,15.7,6.9c6.7,7.3,5.2,26.3,4.5,32.4
		c-0.1,0.9-0.8,1.7-1.7,1.9l5.3,0.1c1.1,0,2.1-0.8,2.2-1.9C532.1,253.5,533.6,234.5,526.9,227.3z"/>
</g>
<path class="st67" d="M525,156.1c-0.7,3.9,0.1,20.6-15.7,21.2c-18.1,0.6-11.9-23-11.9-23h-1c0,0-7.1,20.4-8,24.9
	c-1.7,8.7,8,25.4-4.3,47.1c-3.7,6.5,46.5,7.5,45.3,2.7c-6.2-24.8-5.5-25.7-3.7-32.6c0.9-3.4,1.8-7.3,1.8-10.8c0-6-1.1-27.9-1.2-29.4
	C526.3,156.2,525.1,156.1,525,156.1z"/>
<path class="st68" d="M517.1,143.5c1.6,1.4,3.9,1.9,5.9,1.3c2-0.5,3.8-2.1,4.5-4c2.1,1.1,4.8,1.1,7,0.1c2.2-1,3.8-2.9,4.4-5.2
	c1.9-0.1,3.4-1.4,4.2-3c0.8-1.7,0.6-3.8-0.5-5.4c2.2-0.9,3.9-3.2,4.4-5.5c0.4-2.3-0.4-4.9-2.1-6.5c1.7-1.7,2.6-5.2,2.1-7.6
	c-0.5-2.4-2.4-4.4-4.7-5.1c0-1.2,0-2.9-0.2-4c-0.2-1.2-0.8-2.3-1.7-3.1c-1.6-1.4-4-1.4-6.2-1.3c-0.2-2.5-1-4.7-3.2-5.9
	c-2.3-1.2-5.1-1.1-7.3,0.1c-2.2-2-6.3-3.6-8.7-2c-2.2-1.4-5.6-2.2-8.1-1.4c-2.5,0.8-4.6,2.8-5.5,5.2c-2.7-0.5-5.6,0.4-7.7,2.1
	c-2.1,1.7-3.4,4.4-3.5,7.2c-2.6,2.5-3.4,7.5-1.6,10.6c-2.4,1.5-4.3,4.8-4.5,7.6c-0.2,2.8,0.9,5.7,3,7.6c-0.5,1.9,0.3,4.1,1.2,5.8
	c0.9,1.7,2.5,2.9,4.4,3.5c0.4,2.4,2.2,5.1,4.3,6.2c2.2,1.1,4.8,1.1,7,0c1.1,2.5,3.2,4.6,5.9,5.1
	C512.7,146.3,515.1,145.4,517.1,143.5z"/>
<path class="st27" d="M511.8,106.5c0,0-14-3.6-17.3,12.1c-3.3,15.8,0.5,27.8,9.8,29.4c10.5,1.8,18.4-6.7,20.2-19.5
	C525.7,119.7,526.3,107.7,511.8,106.5z"/>
<path class="st35" d="M502.5,122.4l-0.9,2.2c-0.3,0.7-0.6,1.5-0.9,2.2c-0.3,0.7-0.7,1.4-1.1,2.1c-0.2,0.3-0.4,0.7-0.7,0.9
	c-0.2,0.3-0.5,0.5-0.8,0.7l-0.4,0.2l0.3,0.3c0.5,0.4,1,0.8,1.5,1.2c0.3,0.2,0.5,0.3,0.8,0.5c0.3,0.1,0.6,0.3,0.9,0.3
	c-0.3-0.1-0.6-0.3-0.8-0.5c-0.3-0.2-0.5-0.4-0.7-0.6c-0.5-0.4-0.9-0.8-1.3-1.3l-0.1,0.4c0.5-0.2,0.8-0.5,1.1-0.8
	c0.3-0.3,0.5-0.7,0.7-1c0.4-0.7,0.8-1.4,1.1-2.2c0.3-0.8,0.6-1.5,0.8-2.3C502.1,124,502.3,123.2,502.5,122.4z"/>
<g>
	<path class="st27" d="M520,137.5c0,0,3.3-2.3,3.1-7.9c0,0,3.9-4.9,5.4-0.6C530.2,133.9,523.9,142.3,520,137.5z"/>
	<path class="st35" d="M522.7,137.6c0.3-0.1,0.6-0.3,0.9-0.5c0.3-0.2,0.6-0.4,0.8-0.7c0.2-0.3,0.4-0.6,0.4-1.1c0-0.4-0.3-0.8-0.6-1
		l0.1,0.2c0.1-0.9,0.2-1.7,0.4-2.6c0.2-0.8,0.3-1.7,0.7-2.4c0.1-0.2,0.2-0.3,0.3-0.4c0,0,0.1,0,0.1,0c0,0,0,0,0,0l0.1,0l0.1,0
		c0.4,0.1,0.7,0.4,1,0.7c0.2,0.3,0.4,0.7,0.4,1.1c0,0.4-0.1,0.8-0.3,1.3c0.3-0.4,0.5-0.8,0.5-1.2c0.1-0.5,0-1-0.3-1.4
		c-0.3-0.4-0.7-0.7-1.1-0.9l-0.2-0.1c-0.1,0-0.1,0-0.2-0.1c-0.2,0-0.4,0-0.5,0.1c-0.3,0.1-0.5,0.4-0.6,0.6c-0.3,0.4-0.4,0.9-0.5,1.3
		c-0.1,0.4-0.2,0.9-0.3,1.3c-0.2,0.9-0.2,1.8-0.3,2.7l0,0.2l0.1,0.1c0.2,0.2,0.4,0.4,0.5,0.6c0.1,0.2,0,0.5-0.2,0.8
		c-0.2,0.3-0.4,0.5-0.6,0.7C523.2,137.2,523,137.4,522.7,137.6z"/>
</g>
<path class="st69" d="M497,121.2c1.7-1,1.2-1.1,2.2,0.6c0.5,0.8,0-1.8-0.6-2S496.1,121.7,497,121.2z"/>
<path class="st69" d="M506.1,124.1c1.7-1,1.2-1.1,2.2,0.6c0.5,0.8,0-1.8-0.6-2S505.3,124.6,506.1,124.1z"/>
<path d="M512.8,124c0.2-0.7,0.2-1.5,0.1-2.3c-0.1-0.8-0.4-1.5-0.8-2.2c-0.5-0.7-1.1-1.2-1.9-1.4c-0.8-0.2-1.6-0.2-2.4,0l0,0.1
	c0.8,0.2,1.5,0.4,2.1,0.6c0.6,0.3,1.3,0.6,1.7,1.1c0.5,0.5,0.8,1.2,0.9,1.9C512.7,122.4,512.8,123.2,512.8,124L512.8,124z"/>
<path d="M495.9,118.2c0.3-0.5,0.7-1,1.1-1.4c0.4-0.4,1-0.7,1.5-0.9c0.6-0.2,1.1-0.1,1.7,0l0.2,0c0.1,0,0.1,0,0.2,0.1
	c0.1,0,0.3,0.1,0.4,0.1c0.3,0.1,0.6,0.2,0.9,0.2l0-0.1c-0.2-0.2-0.5-0.5-0.7-0.7c-0.3-0.2-0.6-0.4-0.9-0.4c-0.2,0-0.3-0.1-0.5-0.1
	c-0.2,0-0.4,0-0.5,0c-0.2,0-0.3,0.1-0.5,0.1c-0.2,0-0.3,0.1-0.5,0.2c-0.6,0.3-1.2,0.7-1.6,1.2C496.4,117,496,117.6,495.9,118.2
	L495.9,118.2z"/>
<path class="st70" d="M498.9,136.8c-4-1-0.1,6.5,4,6.2c4.1-0.3,6.5-3,7.2-6.7c0.3-1.6-1.1-0.8-1.1-0.8S502.5,137.7,498.9,136.8z"/>
<path class="st71" d="M504.2,139.9c1.5-0.1,3,0,4.1,0.4c-1.2,1.5-3,2.5-5.4,2.6c-1.2,0.1-2.5-0.6-3.5-1.5
	C500.5,140.7,502.2,140.1,504.2,139.9z"/>
<path class="st10" d="M499.6,136.9c3.7,0.5,9.4-1.5,9.4-1.5s0,0,0.1,0c0.1,0.5,0.2,1.3-0.2,1.5c-0.4,0.3-3.7,1.4-8.3,1.6
	c-0.4,0-0.7-0.3-0.8-0.7C499.8,137.6,499.7,137.2,499.6,136.9z"/>
<path class="st68" d="M528.1,123.4c0.2,0.9-0.1,2-0.7,2.7c-0.7,0.7-1.7,1.1-2.6,0.9c0.1,0.9,0.5,2,0.1,2.8c-0.3,0.8-1.2,1.5-2,1.3
	c-0.8-0.2-1.4-1.1-1.4-1.9c0-0.8,0.3-1.7,0.6-2.4c-1.1-1.6-1.6-3.4-0.9-5.2c-1.5,0-3.1-0.8-4.2-1.9c-1.1-1.1-1.7-2.6-1.7-4.2
	c-1.4,0.8-2.8,0.9-4.3,0.4c-1.5-0.5-2.8-1.6-3.5-3.1c-1,1.3-3.1,2.3-4.7,2.4c-1.6,0.1-3.3-0.5-4.4-1.6c-0.2,1.3-1.8,2-3.1,1.8
	c-1.3-0.2-2.4-1.3-2.8-2.5c-0.4-1.2-0.3-2.6,0-3.9c1.1-3.9,4.5-6.8,8.3-8.1c3.8-1.3,7.9-1.3,11.9-0.7c3.7,0.6,7.5,1.6,10.5,3.9
	c3.9,2.9,6.3,7.4,7.4,12.1c0.3,1.2,0.5,2.5,0.3,3.8C530.8,121.2,529.3,122.8,528.1,123.4z"/>
<path class="st72" d="M481.9,357.8c0,0,9.4-5.4,10.7-7c1.3-1.6,3.3,3,7.2,2.9c3.8-0.1,3.6-1.9,3.6-1.9s1.2-0.8,2.2,1.3v10.7
	l-27.8-0.9l2.3-3.9L481.9,357.8z"/>
<path class="st10" d="M484.9,361.9h20.7v1.9h-30.9c0,0,0.3-6.8,5-6.8C483.4,357,484.2,358.1,484.9,361.9z"/>
<path class="st72" d="M522,361.9v-10c0,0-0.7-0.7-1.5,0c-0.4,1-1.8,3.3-5,0.4s-5.3-0.8-6.2,0.8c-0.9,1.6-5.1,4.1-5.1,4.1l2.4,4.7
	l3.9,0.8l5.6,0.5L522,361.9z"/>
<path class="st10" d="M501.9,363.8H522v-1.9h-9.8c0,0-0.2-5.5-5.3-5.5C501.2,356.4,501.9,363.8,501.9,363.8z"/>
<path class="st44" d="M290.6,117.7c0,0-2.4,1.7-0.2,3c0.4,0.3,0,3.1-1,2.3c-1.1-0.8-2.9-4.9-0.6-6.8
	C290.9,114.4,291.3,117.6,290.6,117.7z"/>
<g class="st73">
	<g>
		<path class="st74" d="M479.7,255.9c0,0,0.2,0.1,0.5,0.2"/>
		<path class="st75" d="M481.1,256.4c2.8,0.9,9.4,2.6,17.6,2.4"/>
		<path class="st74" d="M499.2,258.8c0.2,0,0.3,0,0.5,0"/>
	</g>
</g>
<g class="st73">
	<g>
		<path class="st74" d="M509.3,258.8c0,0,0.2,0,0.5,0.1"/>
		<path class="st76" d="M510.8,258.9c2.9,0.3,9.8,0.7,17.7,0.1"/>
		<path class="st74" d="M529.1,259c0.2,0,0.3,0,0.5,0"/>
	</g>
</g>
<path class="st34" d="M238.8,352.1c0,3.4-4,3.5-8.9,3.5c-4.9,0-8.9-0.1-8.9-3.5c0-3.4,4-8.8,8.9-8.8
	C234.9,343.4,238.8,348.8,238.8,352.1z"/>
<path class="st7" d="M230,352.5c-3.9,0-7.2-0.1-8.8-1.3c-0.1,0.3-0.1,0.6-0.1,0.9c0,3.4,4,3.5,8.9,3.5c4.9,0,8.9-0.1,8.9-3.5
	c0-0.3,0-0.6-0.1-0.9C237.2,352.5,233.8,352.5,230,352.5z"/>
<path class="st7" d="M277.1,350.2c0.1-0.2,0.1-0.4,0.2-0.6c0-0.1,0-0.2,0-0.3c0-0.1,0-0.3,0-0.4c-0.2,0.1-0.3,0.2-0.5,0.3
	c-2.2,0.8-7.4,2.1-16.3,1.4c-3-0.3-5.2-0.6-6.9-1c0.1,1.4,1.4,2.3,8.3,2.9c3.9,0.4,7,0.2,9.4,0c2.3-0.3,3.9-0.8,4.9-1.1
	c0.3-0.1,0.5-0.3,0.7-0.5C276.9,350.5,277,350.4,277.1,350.2z"/>
<path class="st77" d="M265.2,342c0,0-1.6,0.8-1.8,2.6"/>
<path class="st77" d="M267.4,342.6c0,0-1.6,0.8-1.8,2.6"/>
<path class="st77" d="M269.6,343.2c0,0-1.6,0.8-1.8,2.6"/>
<path class="st77" d="M233,344.5c0,0-2.3-1.8-5.1-0.8"/>
<g>
	<g>
		<path class="st78" d="M321.8,171.5c0,0-2.1-3.7-4.2-4.9c-2.1-1.3-3.6-0.4-4.1,0.8c-0.9,2.2,0.1,6.5,6.5,6.9c0,0-1.3,1.3-1,2.4
			c0.3,1.4,2.8,1,3.4-2.2L321.8,171.5z"/>
		<path class="st78" d="M321.8,171.3c0,0,0.7-4.3,2.2-6.3c1.5-2.1,3.2-1.9,4-1c1.6,1.7,2,6.1-3.7,9.1c0,0,1.6,0.6,1.7,1.8
			c0.2,1.5-2.3,2.1-3.9-0.6L321.8,171.3z"/>
	</g>
</g>
<g>
	<g>
		<path class="st78" d="M313.9,309.6c0,0-1.4-4-3.3-5.6c-1.8-1.6-3.5-1-4.2,0c-1.3,2-1,6.4,5.1,7.9c0,0-1.5,1-1.4,2.2
			c0.1,1.5,2.6,1.4,3.8-1.6L313.9,309.6z"/>
		<path class="st78" d="M313.9,309.5c0,0,1.5-4.1,3.3-5.8c1.9-1.8,3.5-1.3,4.1-0.3c1.3,2,0.9,6.3-5.2,8.3c0,0,1.5,0.9,1.4,2.1
			c-0.1,1.5-2.6,1.6-3.7-1.3L313.9,309.5z"/>
	</g>
</g>
<g>
	<g>
		<path class="st78" d="M335.5,278.8c0,0-1.4-4-3.3-5.6c-1.8-1.6-3.5-1-4.2,0c-1.3,2-1,6.4,5.1,7.9c0,0-1.5,1-1.4,2.2
			c0.1,1.5,2.6,1.4,3.8-1.6L335.5,278.8z"/>
		<path class="st78" d="M335.5,278.7c0,0,1.5-4.1,3.3-5.8c1.9-1.8,3.5-1.3,4.1-0.3c1.3,2,0.9,6.3-5.2,8.3c0,0,1.5,0.9,1.4,2.1
			c-0.1,1.5-2.6,1.6-3.7-1.3L335.5,278.7z"/>
	</g>
</g>
<g>
	<g>
		<path class="st78" d="M302,239c0,0-1.4-4-3.3-5.6c-1.8-1.6-3.5-1-4.2,0c-1.3,2-1,6.4,5.1,7.9c0,0-1.5,1-1.4,2.2
			c0.1,1.5,2.6,1.4,3.8-1.6L302,239z"/>
		<path class="st78" d="M302.1,238.9c0,0,1.5-4.1,3.3-5.8c1.9-1.8,3.5-1.3,4.1-0.3c1.3,2,0.9,6.3-5.2,8.3c0,0,1.5,0.9,1.4,2.1
			c-0.1,1.5-2.6,1.6-3.7-1.3L302.1,238.9z"/>
	</g>
</g>
<g>
	<g>
		<path class="st78" d="M308.2,277c0,0-0.5-4.2-1.9-6.2c-1.4-2-3.2-1.8-4.1-0.9c-1.7,1.7-2.5,6,3.2,8.9c0,0-1.7,0.6-1.9,1.8
			c-0.3,1.4,2.2,2,4-0.7L308.2,277z"/>
		<path class="st78" d="M308.3,276.9c0,0,2.4-3.6,4.6-4.9s3.7-0.4,4.1,0.7c0.8,2.2-0.6,6.4-7,6.9c0,0,1.2,1.2,0.9,2.3
			c-0.4,1.4-2.9,1-3.3-2.1L308.3,276.9z"/>
	</g>
</g>
<path class="st78" d="M340.3,233.6c-1.7,1.9-2.9,5.4-2.9,5.4l0,2l0-1.8c0,0-1.4-4-3.3-5.6c-1.8-1.6-3.5-1-4.2,0
	c-1.3,2-1,6.4,5.1,7.9c0,0-1.5,1-1.4,2.2c0.1,1.5,2.6,1.4,3.8-1.6l0,0c1.1,2.8,3.6,2.7,3.7,1.2c0.1-1.2-1.4-2.1-1.4-2.1
	c0.6-0.2,1.2-0.4,1.7-0.7C341,238.2,340.7,235.9,340.3,233.6z"/>
<path class="st78" d="M287.8,260.2c-1.1-0.5-2.7-0.1-3.4,2.3c-0.7,2.5,0.1,6.7,0.1,6.7l1,1.7l-0.9-1.6c0,0-3.2-2.7-5.6-3.2
	c-0.3,0-0.5-0.1-0.7-0.1c0.2,1.8,0.4,4.1,0.6,6.7c1.3,0.4,2.9,0.4,5-0.2c0,0-0.8,1.6-0.1,2.6c0.8,1.2,3-0.1,2.4-3.3l0,0
	c2.4,1.9,4.4,0.5,3.8-0.8c-0.5-1-2.2-1.1-2.2-1.1C291.7,265.2,289.8,261.2,287.8,260.2z"/>
<path class="st78" d="M296,316.2c-0.6-1-2.3-1.5-4.1,0.3s-3.3,5.8-3.3,5.8l0,2l0-1.8c0,0-1.4-4-3.3-5.6c-0.6-0.5-1.2-0.8-1.8-0.9
	c0.1,2.9,0.2,5.6,0.3,8c0.7,0.4,1.5,0.7,2.4,0.9c0,0-1.5,1-1.4,2.2c0.1,1.5,2.6,1.4,3.8-1.6l0,0c1.1,2.8,3.6,2.7,3.7,1.2
	c0.1-1.2-1.4-2.1-1.4-2.1C296.9,322.5,297.3,318.1,296,316.2z"/>
<path class="st78" d="M293.2,190.8c0,0-1.3,1.3-1,2.4c0.3,1.4,2.8,1,3.4-2.2l0,0c0.6,1,1.4,1.5,2,1.7l1-2.4c-0.5-0.4-1-0.6-1-0.6
	c0.7-0.3,1.2-0.7,1.7-1.1l2.8-6.4c-0.2-0.7-0.5-1.2-0.9-1.6c-0.8-0.9-2.5-1.1-4,1c-1.5,2.1-2.2,6.3-2.2,6.3l0.3,1.9l-0.3-1.8
	c0,0-2.1-3.7-4.2-4.9c-2.1-1.3-3.6-0.4-4.1,0.8C285.8,186.2,286.9,190.4,293.2,190.8z"/>
<path class="st78" d="M353.8,306.3c-1.5,2-2.7,5.1-2.7,5.1l0,2l0-1.8c0,0-1.4-4-3.3-5.6c-1.8-1.6-3.5-1-4.2,0c-1.3,2-1,6.4,5.1,7.9
	c0,0-1.5,1-1.4,2.2c0.1,1.5,2.6,1.4,3.8-1.6l0,0c1.1,2.8,3.6,2.7,3.7,1.2c0.1-1.2-1.4-2.1-1.4-2.1c0.7-0.2,1.4-0.5,1.9-0.8
	C354.7,310.7,354.3,308.5,353.8,306.3z"/>
<path class="st58" d="M399.6,214.5c-0.6-1.4-1.1-3.2-1.5-5.5c-3.3,1.9-7.2,3.3-12,3.9c-13.9,1.7-27.9-1.7-29.5-19
	c-0.3,3.9-1.2,18-2.2,22.7C354,218.6,400.2,215.8,399.6,214.5z"/>
<path class="st79" d="M529.4,229.1c-6.2-24.8-5.5-25.7-3.7-32.6c0.9-3.4,1.8-7.3,1.8-10.8c0-0.7,0-1.5,0-2.5
	c-8.8,36.5-15.5,41.4-41.9,40.3c-0.5,0.9-0.9,1.8-1.5,2.8C480.4,232.8,530.6,233.9,529.4,229.1z"/>
<path class="st27" d="M532.3,225.2c0,0-6,5.4-4.6-4c0,0-7.3-1.4-0.7-2c0,0-7.2-2.7,0.5-1.4c0,0-5.7-6.2,2.7-0.1c0,0,1.7,1.4,1.3,5.6
	L532.3,225.2z"/>
<path class="st10" d="M335.3,169.8"/>
<g>
	<path class="st0" d="M352.6,25.9c0,9.4,7.6,17,16.9,17c9.4,0,16.9-7.6,16.9-17s-7.6-17-16.9-17C360.2,8.9,352.6,16.5,352.6,25.9z
		 M355.1,25c0.5-8,7.4-14.1,15.4-13.6c8,0.5,14.1,7.4,13.6,15.4s-7.4,14.1-15.4,13.6C360.6,39.9,354.6,33,355.1,25z"/>
	<g>
		<rect x="379.8" y="25.6" class="st0" width="5.3" height="0.4"/>
		<rect x="353.9" y="25.6" class="st0" width="5.3" height="0.4"/>
		<rect x="369.3" y="10.4" class="st0" width="0.4" height="5.4"/>
		<rect x="369.3" y="36.2" class="st0" width="0.4" height="5.4"/>
		<path class="st0" d="M369.1,25.9c0,0.2,0.2,0.4,0.4,0.4c0.2,0,0.4-0.2,0.4-0.4c0-0.2-0.2-0.4-0.4-0.4
			C369.3,25.4,369.1,25.6,369.1,25.9z"/>
		<g>
			<path class="st0" d="M369.5,26.1c0.1,0,0.1,0,0.1-0.1l8-8c0.1-0.1,0.1-0.2,0-0.3c-0.1-0.1-0.2-0.1-0.3,0l-8,8
				c-0.1,0.1-0.1,0.2,0,0.3C369.4,26.1,369.5,26.1,369.5,26.1z"/>
		</g>
		<g>
			<path class="st0" d="M367,33.9C367,33.9,367,33.9,367,33.9l2.6-7.9c0-0.1,0-0.2-0.1-0.2c-0.1,0-0.2,0-0.2,0.1l-2.6,7.8
				c0,0.1,0,0.2,0.1,0.2C366.9,34,366.9,34,367,33.9z"/>
		</g>
	</g>
</g>
<rect x="73.7" y="65.2" class="st0" width="130.3" height="87.2"/>
<g>
	<path class="st10" d="M178.7,94.8c0.8,0.5,2,0.8,2.2,1.5c0.4,1.1,0.2,2.4,0.1,3.6c0,0.3-0.2,0.8-0.5,0.9c-1.8,1.1-2,2.4-0.9,4.1
		c-0.6-0.6-1.1-1.3-1.8-1.8c-1-0.7-1.7-0.3-2.1,0.8c0.4,0.7,0.7,1.4,1.1,2.1c1.4,2.6,0.7,4.2-2.1,5c-2,0.5-2,0.6-0.9,2.4
		c0.2,0.4,0.1,1,0.1,1.6c-0.5-0.1-1,0-1.3-0.3c-1.3-1-2.5-2-3.6-3.1c-0.9-0.9-1.6-0.9-2.4-0.1c-1,1.2-1.9,2.4-2.9,3.8
		c-0.2-0.4-0.7-1.1-0.9-1.8c-0.7-2.5-2.3-3.6-4.9-3.7c-1.4-0.1-2.8-0.9-4.7-1.6c0.6,1,0.9,1.9,1.5,2.3c0.6,0.4,1.6,0.3,2.7,0.5
		c-1.1,2.2-2.9,2.7-4.6,3.3c-1.2-1.8-2.3-3.6-3.5-5.3c-0.3,0.1-0.5,0.3-0.8,0.4c0.7,1.4,1.2,2.9,2.1,4.1c0.8,1.2,1.7,2.8,3.8,2
		c0.1,0.1,0.1,0.3,0.2,0.4c-0.6,0.8-1,1.6-1.7,2.2c-1.5,1.3-2.9,2.6-2,4.9c0.1,0.4,0,1.2-0.2,1.3c-1.8,1-1.8,2.9-2.7,4.4
		c-1,1.6-1.7,2-4.2,2.1c-0.7-1.8-1.4-3.7-2-5.5c0-0.1-0.1-0.1,0-0.2c1-2.2,0.1-4-0.7-6.1c-0.5-1.5-1.6-2.6-3.2-2.2
		c-1.8,0.4-3.5,0.7-4.8-1.3c-1.1-1.7-1-4.3,0.5-5.8c0.4-0.4,0.8-0.9,1.2-1.5c1.1-2,4.5-2.3,6.2-0.9c0.9,0.7,2,2.2,3.6,0.8
		c0.3-0.3,1.2,0.3,1.8,0.3c0.9-0.1,2.1-0.1,2.7-0.7c0.8-0.8,0.3-1.7-0.9-1.8c-0.6-0.1-1.2-0.2-1.7-0.3c0-0.3,0-0.5-0.1-0.8
		c1-0.1,2-0.3,3-0.4c0.5-0.1,1-0.2,1.4-0.3c-0.2-0.4-0.4-0.8-0.6-1.3c-0.2-0.4-0.5-0.9-0.7-1.2c-2.9-0.4-3.4,2.3-4.8,3.5
		c-0.8-0.9-1.8-1.9-2.8-3c-0.2,0.1-0.3,0.2-0.5,0.3c0.1,0.4,0.2,0.8,0.2,1.2c-1.1-1.4-2.9-0.9-4.3,1.2c-0.3,0.4-1.1,0.6-1.6,0.8
		c-0.2-0.4-0.5-0.9-0.5-1.3c0-0.3,0.5-0.8,0.8-0.8c1.8,0.1,1.7-0.9,1.2-2.1c1.1-1,2.2-2,3.3-2.9c3.1,1.6,3.8-1.6,5.8-3.1
		c-2.5,0-3.4-0.8-1.3-3.2c-3.1,1-2.2,3.6-2.9,5.2c-0.8-0.6-1.5-1-2.1-1.5c-0.2,0.1-0.3,0.2-0.5,0.3c0.1-0.5-0.1-1.2,0.2-1.6
		c0.8-1.3,1.7-2.6,2.7-3.9c0.8-1,1.7-1.9,3.2-0.9c0.8,0.6,2,0.8,3,1.1c0,0.2-0.1,0.3-0.1,0.5c-0.5,0.1-1.1,0.1-1.9,0.3
		c0.6,0.7,1,1.2,1.4,1.7c0.4-0.4,0.8-0.8,1.2-1.2c2.1-1.6,4.2-2.8,6.9-2.6c-0.3-0.8-0.5-1.7-0.8-2.6c0.2-0.1,0.4-0.1,0.6-0.2
		c0.5,1.3,1,2.7,1.6,4.2c0.4-0.6,0.7-1.2,1.2-2c-0.4-0.2-0.8-0.5-1.6-0.9c0.6-0.6,1.1-1.1,1.7-1.8c0-0.1-0.2-0.4-0.3-0.4
		c0.2-0.8,0.2-1.4,0.5-1.9c0.2-0.5,0.6-0.9,1-1.3c0.3-0.3,1-0.4,1.1-0.7c0.5-1.5,1.7-0.7,2.6-0.9c0.1,0.8,0.3,1.5,0.4,2.3
		c0,0.2,0,0.4,0,0.7c1.7-0.5,3.3-0.9,4.9-1.3c0.3-0.1,0.8,0.2,1,0.5c0.4,0.4,0.6,1,1,1.7c1.2-1.3,1.9-2.1,2.6-2.8
		c0.2-0.2,0.6-0.2,0.8-0.2c1.6,0.2,3.3,0.4,4.9,0.6c0.6,0.1,1.2-0.1,1.8-0.2c0.6,0,1.2,0,1.8,0c0-0.3,0-0.7,0.1-1.2
		c1.8,0.2,3.6,0.4,5.5,0.6c0.1,0.2,0.2,0.7,0.3,1.2c-0.5,0.1-1,0.2-1.8,0.3c0.4,1.1,0.7,2.2,1.2,3.6c-0.6,0.7-1.6,1.6-2.3,2.6
		c-0.3,0.4-0.2,1.3-0.1,1.9c0.2,1.2,0.6,2.3,0.6,3.6c-2-1.2-1.5-2.9-1.3-4.6c0.1-0.8,0-1.6,0-3c-1.3,1.3-2.1,2.1-3.3,3.4
		C179.8,90.5,178.9,92.3,178.7,94.8z M155.4,105.9c-0.5-1.8-0.9-3.2-1.4-4.9c-0.5,0.2-1.5,0.6-1.5,0.8c0.2,1.2,0.5,2.4,1,3.5
		C153.7,105.6,154.6,105.6,155.4,105.9z"/>
	<path class="st10" d="M91,91.1c-0.3-0.7-1.2-1.8-1-2.6c0.2-0.8,1.6-1.2,2.6-1.9c-0.6-0.4-1-0.6-1.5-0.9c0-0.1,0-0.3,0-0.4
		c0.7,0,1.3,0,2.3,0c-0.9-2.1,0.4-2.9,1.9-3.2c0.7-0.1,1.7,0.1,2.3,0.4c1.1,0.6,2,1.6,3.1,2.3c0.3,0.2,0.7,0.1,1.1,0.1
		c1.9,0,3.5,0.5,4.5,2.4c0.2,0.5,1.1,0.8,1.7,1c0.8,0.2,1.7,0.1,2.5,0.3c1.5,0.4,2.3,0,2-1.7c0-0.2,0.1-0.5,0.3-0.9
		c0.3,1.2,0.5,2.2,0.8,3.5c1-0.8,2.1-1.2,1.2-2.6c-0.2-0.4,0.1-1.1,0.5-1.7c0,0.4,0,0.7-0.1,1.1c0.1,0.1,0.3,0.2,0.4,0.3
		c0.2-0.4,0.4-0.8,0.5-1.1c2.9,0.8,3.2,3.2,4.1,5.4c-0.4-0.1-0.8-0.1-1.2-0.2c-0.3,0.7-0.6,1.3-1,2.1c-0.6-0.7-1-1.2-1.2-1.4
		c0.4-0.8,1.1-1.6,1-2.3c-0.1-0.9-0.7-2.1-2.3-1.5c-0.2,1.4-1.1,2-2.5,2.6c-1.2,0.5-2.2,1.8-3.1,2.9c-0.3,0.4-0.3,1.4-0.1,1.8
		c1,1.3,2.2,2.5,3.6,3.9c0.7-1.9,1.5-3.8,2.4-6.2c0.6,1,1.1,1.8,1.7,2.7c0.2,0,0.7,0.1,1,0.1c0.6,1.1,1.1,2,1.8,3.3
		c-1.4,0.3-2.7,0.7-4.1,1c0.5,0.7,0.8,1.2,1.2,1.8c-2.6,0.6-6.5,5-6.6,7.2c-1-1.2-2.7-1.6-4.5-0.6c-0.7,0.5-1.3,1.8-1.4,2.7
		c-0.1,1.7,1.4,2.1,3.2,0.9c0,0.5-0.1,0.9-0.1,1.1c0.6,0.6,1.1,1,1.6,1.4c-0.1,0.1-0.2,0.1-0.3,0.2c-1.5-0.6-3-1.1-4.5-1.7
		c-1-0.4-1.8-0.8-2.3-2.1c-0.6-1.5-1.8-2.9-3-4.1c-1.8-1.9-2.1-4.3-0.6-7.3c0.2-0.4,0.2-1,0.1-1.5c-0.3-1.5-0.7-2.9-1.2-4.4
		c-0.6-1.8-1.9-3.1-3.6-3.6C93.5,89.7,92.4,90.6,91,91.1z M110.4,99.4c-0.5,0.4-1,0.7-1.5,1c2.2,0.3-0.1,2.1,1.1,2.7
		c0.3-0.4,0.6-0.8,1-1.4c0.1,0.8,0.2,1.2,0.3,1.9c0.8-0.4,1.6-0.7,2.3-1.1C112.5,101.3,111.4,100.3,110.4,99.4z"/>
	<path class="st10" d="M115.3,139.7c-0.1-1.4-0.3-2.7-0.3-4.1c-0.1-3.2-0.1-6.5-0.3-9.7c0-0.6-0.7-1.1-1.2-1.6
		c-1.2-1.3-2.6-2.6-2.4-4.5c0.2-1.3,0.7-2.7,1.3-3.9c0.2-0.3,1.2-0.3,1.7-0.4c2.4-0.7,4.7,0.8,5.9,2.1c1.4,1.6,2.9,2,4.6,2.7
		c1.1,0.4,1.9,1.1,0.7,2.3c-0.3,0.4-0.6,0.9-0.6,1.4c-0.1,1.4-0.5,2.4-1.9,3c-0.5,0.2-0.8,0.8-1.1,1.2c-1.2,1.6-2.5,3.1-3.6,4.8
		c-0.7,1-1.1,2.3-1.4,3.5c-0.3,1-0.2,2.2-0.3,3.3C116,139.7,115.7,139.7,115.3,139.7z"/>
	<path class="st10" d="M124.6,94.2c-0.8-0.4-1.7-2.6-1-3.7c0.4-0.7,0.8-1.1,0.6-2.1c-0.3-1.2-0.2-2.5-0.3-3.7c0-0.3-0.2-0.6-0.4-0.8
		c-0.7-0.7-1.3-1.4-1.9-1.9c1.5-1.2,2.5-2.2,3.7-3.1c0.2-0.2,0.6-0.5,0.7-0.4c2,1.2,3.1-0.6,4.7-1.1c0.6-0.2,1.5,0.5,2.7,1
		c-1.1,0.2-1.7,0.4-2.3,0.5c0,0.1,0,0.3,0,0.4c1.1,0.4,2.2,0.7,3.1,1c-0.4,1.6-0.9,3.6-1.6,5.5c-0.4,1.3-0.9,2.7-1.6,3.9
		c-0.4,0.6-1.5,0.5-2.1,1C127.3,91.8,126.1,92.9,124.6,94.2z"/>
	<path class="st10" d="M176.1,131.9c0-1.1,0-1.8-0.1-2.6c-0.2-1.6,0.1-2.6,1.9-3.1c1.4-0.5,2.7-1.6,4-2.4c0.4-0.2,0.8-0.4,1-0.5
		c0.8,0.9,1.4,1.6,2.2,2.6c0.4-1,0.6-1.5,0.9-2.1c0.9,1.6,1.9,3.1,2.6,4.8c0.3,0.7-0.3,1.8-0.6,2.6c-0.2,0.5-0.7,1-0.9,1.5
		c-0.5,0.9-0.9,1.5-2.1,1.5c-1.3,0-1.2-1-1.6-1.7c-0.7-1.5-2.5-2.2-4.2-1.6C178.2,131.2,177.2,131.5,176.1,131.9z"/>
	<path class="st10" d="M117.9,80.5c1.1-0.6,2.3-1.3,3.6-2c-0.4-0.1-0.7-0.1-1-0.3c-0.3-0.2-0.6-0.5-0.9-0.8c0.3-0.2,0.6-0.5,0.9-0.6
		c1.7-0.6,3.3-1.1,4.9,0.7c-0.6,0.4-1.3,0.8-1.8,1.3c-1.4,1-2.7,2-4.2,3c-0.5,0.3-1.2,0.5-1.6,0.7C117.8,81.6,117.9,81,117.9,80.5
		L117.9,80.5z"/>
	<path class="st10" d="M107.8,83.2c-0.5,0.2-1,0.4-1.6,0.7c-0.1-0.1-0.2-0.2-0.3-0.3c0.6-0.5,1.1-1,1.7-1.3c0.1-0.1,0.7,0.8,1.1,1.3
		c0.4,0.5,0.9,1.1,1.2,1.7c0.3,0.5,0.3,1.1,0.6,1.9c-1.4-0.3-2.4-0.5-3.4-0.7c0-0.1,0-0.3,0-0.4c0.3,0,0.7-0.1,0.9-0.1
		C108,85,107.9,84.1,107.8,83.2z"/>
	<path class="st10" d="M177.7,116.6c-0.3,1.2-0.3,2-0.7,2.7c-0.1,0.3-0.9,0.2-1.5,0.2c0.1-0.4,0-1,0.2-1.2
		C176.1,117.8,176.7,117.4,177.7,116.6z"/>
	<path class="st10" d="M184.2,119.7c0.9,0.3,1.9,0.7,3,1c-1.9,2.1-2.2,0-3.1-0.5C184.1,120.1,184.2,119.9,184.2,119.7z"/>
	<path class="st10" d="M152.2,126.9c0.4-1,0.9-2.1,1.3-3.1c0.2,0.1,0.5,0.2,0.7,0.3c-0.4,1.1-0.8,2.1-1.2,3.2
		C152.8,127.2,152.5,127.1,152.2,126.9z"/>
	<path class="st10" d="M118,80.4c-1.1-1-0.4-1.8,0.3-2.7C119.3,78.9,118.3,79.6,118,80.4C117.9,80.5,118,80.4,118,80.4z"/>
	<path class="st10" d="M152.3,84.1c-0.3,1.2-0.6,2.5-0.8,3.5C150.8,86.8,151.1,85.3,152.3,84.1z"/>
	<path class="st10" d="M155.4,105.9c-0.9-0.2-1.7-0.2-1.9-0.6c-0.5-1.1-0.8-2.3-1-3.5c0-0.2,1-0.6,1.5-0.8
		C154.5,102.7,154.9,104.1,155.4,105.9z"/>
	<path class="st10" d="M110.4,99.4c1,0.9,2.1,1.9,3.3,3.1c-0.8,0.4-1.5,0.7-2.3,1.1c-0.1-0.6-0.2-1.1-0.3-1.9c-0.4,0.6-0.7,1-1,1.4
		c-1.2-0.6,1.1-2.5-1.1-2.7C109.4,100.1,109.9,99.7,110.4,99.4z"/>
</g>
<g class="st80">
	<g>
		<g>
			<g>
				<g>
					<g>
						<g>
							<g>
								
									<rect x="610" y="157.5" transform="matrix(0.9678 -0.2519 0.2519 0.9678 -21.8195 161.6901)" class="st2" width="21.4" height="17.1"/>
							</g>
						</g>
					</g>
				</g>
			</g>
		</g>
	</g>
	<g>
		<g>
			<g>
				<g>
					
						<rect x="610.7" y="158.6" transform="matrix(0.9678 -0.2519 0.2519 0.9678 -21.8207 161.6835)" class="st81" width="19.9" height="14.9"/>
				</g>
			</g>
		</g>
	</g>
	<g>
		<g>
			<g>
				<g>
					<polygon class="st34" points="612.9,175.8 617.3,165.1 622.9,169.6 625,165.9 632.1,170.8 					"/>
				</g>
			</g>
		</g>
	</g>
	<g>
		<g>
			<g>
				<g>
					<g>
						<g>
							<path class="st82" d="M622.9,162.4c0.2,0.8-0.3,1.7-1.1,1.9c-0.8,0.2-1.7-0.3-1.9-1.1c-0.2-0.8,0.3-1.7,1.1-1.9
								C621.9,161.1,622.7,161.6,622.9,162.4z"/>
						</g>
					</g>
				</g>
			</g>
		</g>
	</g>
	<g>
		<g>
			<g>
				<g>
					<g>
						<g>
							<g>
								<g>
									
										<rect x="619.3" y="141.9" transform="matrix(0.9975 -7.031225e-02 7.031225e-02 0.9975 -9.3133 45.0642)" class="st2" width="32.3" height="25.8"/>
								</g>
							</g>
						</g>
					</g>
				</g>
			</g>
		</g>
	</g>
	<g>
		<g>
			<g>
				<g>
					<g>
						
							<rect x="620.4" y="143.5" transform="matrix(0.9975 -7.031183e-02 7.031183e-02 0.9975 -9.3134 45.0625)" class="st81" width="30" height="22.6"/>
					</g>
				</g>
			</g>
		</g>
	</g>
	<g>
		<g>
			<g>
				<g>
					<g>
						<polygon class="st34" points="621.3,167.1 630.7,152.4 637.8,160.7 641.9,155.7 651.2,165 						"/>
					</g>
				</g>
			</g>
		</g>
	</g>
	<g>
		<g>
			<g>
				<g>
					<g>
						<g>
							<g>
								<path class="st34" d="M639.8,150c0.1,1.3-0.9,2.4-2.2,2.5c-1.3,0.1-2.4-0.9-2.5-2.2c-0.1-1.3,0.9-2.4,2.2-2.5
									C638.6,147.8,639.8,148.7,639.8,150z"/>
							</g>
						</g>
					</g>
				</g>
			</g>
		</g>
	</g>
</g>
<g class="st80">
	<g>
		<g>
			<g>
				<g>
					<g>
						<g>
							<g>
								
									<rect x="558.4" y="79.9" transform="matrix(0.2175 -0.976 0.976 0.2175 355.1936 624.2409)" class="st2" width="17.1" height="21.4"/>
							</g>
						</g>
					</g>
				</g>
			</g>
		</g>
	</g>
	<g>
		<g>
			<g>
				<g>
					
						<rect x="559.5" y="80.6" transform="matrix(0.2176 -0.976 0.976 0.2176 355.1832 624.2241)" class="st81" width="14.9" height="19.9"/>
				</g>
			</g>
		</g>
	</g>
	<g>
		<g>
			<g>
				<g>
					<polygon class="st34" points="555.6,95.7 564.4,88.2 567.3,94.8 570.9,92.4 575,100 					"/>
				</g>
			</g>
		</g>
	</g>
	<g>
		<g>
			<g>
				<g>
					<g>
						<g>
							<path class="st82" d="M570.6,88.4c-0.2,0.8-1,1.4-1.9,1.2c-0.8-0.2-1.4-1-1.2-1.9c0.2-0.8,1-1.4,1.9-1.2
								C570.3,86.7,570.8,87.5,570.6,88.4z"/>
						</g>
					</g>
				</g>
			</g>
		</g>
	</g>
	<g>
		<g>
			<g>
				<g>
					<g>
						<g>
							<g>
								<g>
									
										<rect x="572.3" y="71.2" transform="matrix(0.3927 -0.9197 0.9197 0.3927 275.1116 591.2747)" class="st2" width="25.8" height="32.3"/>
								</g>
							</g>
						</g>
					</g>
				</g>
			</g>
		</g>
	</g>
	<g>
		<g>
			<g>
				<g>
					<g>
						
							<rect x="573.9" y="72.3" transform="matrix(0.3927 -0.9197 0.9197 0.3927 275.1073 591.2516)" class="st81" width="22.6" height="30"/>
					</g>
				</g>
			</g>
		</g>
	</g>
	<g>
		<g>
			<g>
				<g>
					<g>
						<polygon class="st34" points="567,91.8 582.1,83 584.7,93.6 590.6,91.1 594.6,103.6 						"/>
					</g>
				</g>
			</g>
		</g>
	</g>
	<g>
		<g>
			<g>
				<g>
					<g>
						<g>
							<g>
								<path class="st34" d="M591.3,85.1c-0.5,1.2-1.9,1.8-3.1,1.2c-1.2-0.5-1.8-1.9-1.2-3.1c0.5-1.2,1.9-1.8,3.1-1.2
									C591.3,82.5,591.8,83.9,591.3,85.1z"/>
							</g>
						</g>
					</g>
				</g>
			</g>
		</g>
	</g>
</g>
<g>
	<path class="st83" d="M144.1,302.2h27.2v29.9c0,1.6-0.6,3.1-1.7,4.2c-1.1,1.1-2.5,1.7-4,1.7c-4.6,0-11.2,0-15.8,0
		c-1.5,0-3-0.6-4-1.7c-1.1-1.1-1.7-2.6-1.7-4.2C144.1,321.9,144.1,302.2,144.1,302.2z"/>
	<path class="st83" d="M156.7,300.4c1.8-4.3,17.2-23.4,2.1-42c-5.4-6.6-18.3-1.6-17.2,5.8c0.9,5.9,3.9,12,10.9,27.1
		C153.7,293.9,156.7,300.4,156.7,300.4z"/>
	<path class="st83" d="M151.5,261.1l0,0.2c4.5,7,6.1,15.8,6.2,24.3c0.1,6-0.2,12-2,17.7c-0.1,0.4-0.2,0.7-0.4,1.1l0.2,0.4l0.4-0.2
		c0-0.1,0-0.1,0-0.1c1-2.7,1.4-5.7,1.8-8.7c1-9.1,0.6-18.6-2.4-27.1c-0.9-2.6-2.1-5.2-3.6-7.5C151.7,261.1,151.6,261.1,151.5,261.1z
		"/>
	<path class="st83" d="M158.7,264.7c0.2,2.3-1.3,4.6-2.6,6.5l0,0.1c-2.8-2.6-5.8-5.1-9.4-6.3l-0.1,0.1c0,0,0.1,0.1,0.2,0.2
		c3.4,1.3,6.3,3.8,9,6.3c0.5,0.4,0.5,0.2,0.5,0.2c1.5-2.1,2.9-4.5,2.7-6.8C158.9,264.7,158.9,264.5,158.7,264.7z"/>
	<path class="st83" d="M161.5,273.5c-0.4,2.6-2,4.9-3.7,6.9c0,0-0.5-0.6-1.1-1.3c-1.5-1.6-3.2-3-5.1-3.9l-0.1,0l0,0.1
		c2.3,1.2,4.3,3.2,6,5.3c0,0,0.1,0.1,0.1,0.1c0.1,0.1-0.1,0.1,0.2,0.1c0.1,0,0.2-0.1,0.2-0.2c1.8-2,3.4-4.3,3.7-7.1
		C161.7,273.6,161.7,273.4,161.5,273.5z"/>
	<path class="st83" d="M161.2,285c0,0.7-0.5,1.4-0.9,2.1c-0.7,1.2-1.5,2.3-2.4,3.4c0,0-0.3-0.5-0.6-0.9c-1-1.5-2.3-2.6-3.8-3.5
		l-0.1,0c0,0,0.7,0.5,1.4,1c1.2,1,2.2,2.2,2.9,3.6c0.3,0.5,0.3,0.1,0.5-0.1c1.3-1.7,2.7-3.3,3.1-5.4c0-0.1,0-0.3,0-0.4
		C161.3,285,161.3,284.8,161.2,285z"/>
	<path class="st84" d="M157.4,303.9c0.9-4.6-1.1-29.5,21.4-35.6c8-2.2,15.9,9.7,10.8,15c-4,4.3-9.8,7.4-23.8,15.6
		C163.4,300.4,157.4,303.9,157.4,303.9z"/>
	<path class="st85" d="M183.3,274.9l-0.1,0.2c-7.6,3-13.7,9.3-18.5,16.1c-3.4,4.8-6.4,10-8.1,15.6c-0.1,0.4-0.2,0.7-0.3,1.1
		l-0.3,0.2l-0.2-0.3c0-0.1,0-0.1,0-0.1c0.7-2.9,2-5.5,3.3-8.1c4.2-8.1,9.8-15.5,16.9-20.7c2.2-1.6,4.6-3,7.1-4
		C183.2,274.8,183.3,274.9,183.3,274.9z"/>
	<path class="st85" d="M175.5,273.5c-1.4,1.8-1.5,4.5-1.4,6.9l0,0.1c3.7-0.4,7.5-0.7,11.2,0.5l0.1,0.1c0,0-0.1,0.1-0.3,0
		c-3.5-1-7.3-0.7-10.8-0.3c-0.6,0.1-0.5-0.2-0.5-0.2c-0.1-2.6,0.1-5.4,1.6-7.2C175.3,273.4,175.5,273.2,175.5,273.5z"/>
	<path class="st85" d="M168.3,279.1c-1.1,2.4-1.1,5.3-0.7,7.9c0,0,0.8-0.2,1.6-0.4c2.1-0.4,4.2-0.6,6.3-0.2l0.1,0.1l-0.1,0.1
		c-2.6-0.4-5.3,0-7.8,0.7c0,0-0.1,0-0.1,0c-0.1,0,0,0.1-0.2,0c-0.1-0.1-0.1-0.2-0.1-0.3c-0.3-2.7-0.4-5.6,0.9-8
		C168.1,279,168.2,278.8,168.3,279.1z"/>
	<path class="st85" d="M162.3,288.7c-0.4,0.6-0.4,1.4-0.5,2.2c-0.1,1.4,0,2.8,0,4.2c0,0,0.5-0.3,1-0.4c1.6-0.6,3.3-0.8,5-0.6
		l0.1,0.1c0,0-0.9,0-1.7,0c-1.5,0.1-3,0.5-4.4,1.2c-0.5,0.2-0.3-0.1-0.3-0.4c-0.1-2.1-0.4-4.3,0.4-6.3c0.1-0.1,0.1-0.2,0.2-0.4
		C162.1,288.6,162.2,288.4,162.3,288.7z"/>
	<path class="st84" d="M158.2,303.4c-0.8-4.6,1.6-29.4-20.8-36c-8-2.3-16,9.4-11.1,14.8c3.9,4.4,9.7,7.6,23.5,16
		C152.2,299.7,158.2,303.4,158.2,303.4z"/>
	<path class="st85" d="M132.8,273.8l0.1,0.2c7.5,3.2,13.5,9.5,18.2,16.5c3.3,4.9,6.3,10.1,7.9,15.8c0.1,0.4,0.2,0.7,0.3,1.1l0.3,0.2
		l0.2-0.3c0-0.1,0-0.1,0-0.1c-0.6-2.9-1.9-5.6-3.2-8.2c-4-8.1-9.5-15.7-16.5-21c-2.2-1.6-4.5-3.1-7-4.1
		C132.9,273.8,132.8,273.8,132.8,273.8z"/>
	<path class="st85" d="M140.6,272.6c1.4,1.8,1.4,4.5,1.3,6.9l0,0.1c-3.7-0.5-7.5-0.9-11.2,0.3l-0.1,0.1c0,0,0.1,0.1,0.3,0
		c3.5-1,7.3-0.6,10.8-0.1c0.6,0.1,0.5-0.1,0.5-0.1c0.1-2.6,0-5.4-1.4-7.2C140.8,272.5,140.7,272.3,140.6,272.6z"/>
	<path class="st85" d="M147.7,278.3c1.1,2.4,1,5.3,0.6,7.9c0,0-0.8-0.2-1.6-0.4c-2.1-0.5-4.2-0.6-6.3-0.3l-0.1,0.1l0.1,0.1
		c2.6-0.4,5.3,0.1,7.8,0.8c0,0,0.1,0,0.1,0c0.1,0,0,0.1,0.2,0c0.1-0.1,0.1-0.2,0.1-0.3c0.4-2.7,0.5-5.6-0.7-8
		C147.9,278.2,147.8,278,147.7,278.3z"/>
	<path class="st85" d="M153.6,288c0.4,0.6,0.4,1.5,0.4,2.3c0.1,1.4,0,2.8-0.1,4.2c0,0-0.5-0.3-1-0.4c-1.6-0.6-3.3-0.8-5-0.7
		l-0.1,0.1c0,0,0.9,0,1.7,0.1c1.5,0.1,3,0.6,4.4,1.3c0.5,0.3,0.3-0.1,0.3-0.4c0.1-2.1,0.5-4.3-0.3-6.3c0-0.1-0.1-0.2-0.2-0.4
		C153.8,287.9,153.7,287.7,153.6,288z"/>
	<path class="st84" d="M171.3,332c-0.8,0.1-1.6,0.1-2.4,0.1c-12.5,0-22.6-9.7-22.6-21.6c0-2.9,0.6-5.7,1.7-8.2h23.2V332z"/>
</g>
</svg>
