<?xml version="1.0" encoding="utf-8"?>
<!-- Generator: Adobe Illustrator 24.3.0, SVG Export Plug-In . SVG Version: 6.00 Build 0)  -->
<svg version="1.1" id="Camada_1" xmlns="http://www.w3.org/2000/svg" xmlns:xlink="http://www.w3.org/1999/xlink" x="0px" y="0px"
	 viewBox="0 0 104.48 147.06" style="enable-background:new 0 0 104.48 147.06;" xml:space="preserve">
<style type="text/css">
	.st0{fill:#148260;}
</style>
<g>
	<path class="st0" d="M92.44,117.32l-67.06,7.05c-3.25,0.34-5.9-2.02-5.9-5.28V20.2l85-8.93v92.75
		C104.48,110.66,99.08,116.62,92.44,117.32z M25.77,25.82v92.61l66.68-7.39c3.17-0.33,5.75-3.19,5.75-6.36V18.21L25.77,25.82z"/>
</g>
<g>
	<path class="st0" d="M19.01,23.07"/>
</g>
<path class="st0" d="M73.16,1.8L4.46,9.02c-1.75,0.18-3.18,1.76-3.18,3.51v99.36c0,2.04,1.09,3.85,2.86,4.73l58.78,28.49v-25.46
	l-6.28,0.66v14.48L7.56,111.24V19.83l13.02,6.48l3.24-5.71l-12.13-6.04l61.47-6.46V1.8z"/>
<g>
	<path class="st0" d="M29.82,122.72l27.99-2.7l-0.55,9.68c0,0,1.66,6.92,0.55,6.89C56.71,136.58,29.82,122.72,29.82,122.72z"/>
</g>
<polygon class="st0" points="52.45,79.6 47.35,75.04 82.69,35.98 87.79,40.54 "/>
<polygon class="st0" points="33.43,62.58 38.52,56.95 57.54,73.97 52.45,79.6 "/>
<polygon class="st0" points="78.58,57.69 83.67,62.24 61.02,87.27 55.93,82.71 "/>
<polygon class="st0" points="75.81,77.9 80.91,82.45 69.6,94.95 64.51,90.39 "/>
<polygon class="st0" points="75.2,9.52 75.15,9.51 13.19,16.08 14.68,16.97 77.08,10.28 "/>
<polygon class="st0" points="80.14,11.51 16.17,18.3 17.66,19.19 82.05,12.28 "/>
<g>
</g>
<g>
</g>
<g>
</g>
<g>
</g>
<g>
</g>
<g>
</g>
</svg>
