<?xml version="1.0" encoding="utf-8"?>
<!-- Generator: Adobe Illustrator 24.3.0, SVG Export Plug-In . SVG Version: 6.00 Build 0)  -->
<svg version="1.1" id="Camada_1" xmlns="http://www.w3.org/2000/svg" xmlns:xlink="http://www.w3.org/1999/xlink" x="0px" y="0px"
	 viewBox="0 0 500 500" style="enable-background:new 0 0 500 500;" xml:space="preserve">
<style type="text/css">
	.st0{fill:#66A577;}
	.st1{fill:#727D83;}
	.st2{fill:#050705;}
	.st3{fill:none;stroke:#000000;stroke-width:0.5;stroke-linecap:round;stroke-linejoin:round;stroke-miterlimit:10;}
	.st4{fill:#1F3865;}
	.st5{fill:#C07A61;}
	.st6{fill:#DDF2EC;}
	.st7{fill:#B9C2C8;}
	.st8{fill:#F3F3F3;}
	.st9{fill:#1CAE81;}
	.st10{fill:#E5ECF0;}
	.st11{fill-rule:evenodd;clip-rule:evenodd;fill:#C07A61;}
	.st12{fill-rule:evenodd;clip-rule:evenodd;fill:#FFC16B;}
	.st13{fill-rule:evenodd;clip-rule:evenodd;fill:#FCB45E;}
	.st14{fill-rule:evenodd;clip-rule:evenodd;fill:#995C42;}
	.st15{fill-rule:evenodd;clip-rule:evenodd;fill:#3E3B3A;}
	.st16{fill:#35252B;}
	.st17{fill:#402A2E;}
	.st18{opacity:0.61;fill:#995C42;}
	.st19{fill:none;stroke:#000000;stroke-width:0.4775;stroke-linecap:round;stroke-linejoin:round;stroke-miterlimit:10;}
	.st20{opacity:0.61;fill-rule:evenodd;clip-rule:evenodd;fill:#995C42;}
	.st21{fill:#FFFFFF;stroke:#DDF2EC;stroke-width:2;stroke-miterlimit:10;}
	.st22{fill:#F8BD9B;}
	.st23{opacity:0.46;fill:#F4A288;}
	.st24{fill:#44241A;}
	.st25{fill:#552E23;}
	.st26{fill-rule:evenodd;clip-rule:evenodd;fill:#C3E0D6;}
	.st27{fill:#1A0806;}
	.st28{fill:none;stroke:#000000;stroke-linecap:round;stroke-linejoin:round;stroke-miterlimit:10;}
	.st29{fill:#FFFFFF;}
	.st30{fill:#263239;}
	.st31{opacity:0.3;}
	.st32{opacity:0.39;}
	.st33{fill:#F4A288;}
	.st34{fill:#EC9A6E;}
	.st35{opacity:0.46;}
	.st36{fill:none;stroke:#000000;stroke-width:2;stroke-linecap:round;stroke-linejoin:round;stroke-miterlimit:10;}
	.st37{fill:none;stroke:#F4A389;stroke-width:2;stroke-linecap:round;stroke-linejoin:round;stroke-miterlimit:10;}
	.st38{fill:#128260;}
	.st39{fill:#21AC80;}
	.st40{clip-path:url(#SVGID_4_);fill-rule:evenodd;clip-rule:evenodd;fill:#C3E0D6;}
	.st41{fill:#B9C3C9;}
	.st42{fill:#5B3127;}
	.st43{opacity:0.2;fill:#B9C2C8;}
	.st44{fill:#CECDCE;}
	.st45{fill:#869095;}
	.st46{fill:#868686;}
	.st47{fill:#D2D2D2;}
	.st48{opacity:0.6;fill:#995C42;}
	.st49{fill:#FFC16B;}
	.st50{fill:#FCB45E;}
	.st51{fill:#2B1C1F;}
	.st52{opacity:0.26;fill:#2CBA8D;}
	.st53{fill:#E5F2EE;}
	.st54{fill:#FABE6D;}
	.st55{fill:#FCCE8C;}
	.st56{fill:#E4EBF0;}
	.st57{fill:none;stroke:#D1D1D1;stroke-width:0.5;stroke-miterlimit:10;}
	.st58{fill:#3BB18A;}
	
		.st59{opacity:0.43;fill:none;stroke:#1C3C6A;stroke-width:0.4775;stroke-linecap:round;stroke-linejoin:round;stroke-miterlimit:10;}
	.st60{fill:#DFDFDF;}
	.st61{opacity:0.6;fill-rule:evenodd;clip-rule:evenodd;fill:#995C42;}
	.st62{fill:#2B1A1E;}
	.st63{fill:#995C42;}
	.st64{opacity:0.58;fill:#995C42;}
	.st65{fill:#EF8274;}
	.st66{opacity:0.53;fill-rule:evenodd;clip-rule:evenodd;fill:#B9C3C9;}
	.st67{fill:#F8BC9E;}
	.st68{fill:#22264F;}
	.st69{fill:#26316A;}
	.st70{fill:#DFDBEF;}
	.st71{fill-rule:evenodd;clip-rule:evenodd;fill:#66A577;}
	.st72{fill-rule:evenodd;clip-rule:evenodd;fill:#4D8254;}
	.st73{fill-rule:evenodd;clip-rule:evenodd;fill:#6DB985;}
	.st74{fill-rule:evenodd;clip-rule:evenodd;fill:#90D2EB;}
	.st75{clip-path:url(#SVGID_10_);fill-rule:evenodd;clip-rule:evenodd;fill:#9ED7F0;}
	.st76{opacity:0.26;}
	.st77{fill:#E0E0E0;}
	.st78{fill:#30323D;}
	.st79{fill:#6DB985;}
	.st80{fill:none;stroke:#254559;stroke-width:0.4775;stroke-linecap:round;stroke-linejoin:round;stroke-miterlimit:10;}
	.st81{fill:#D9E9E0;}
	.st82{fill:#74B28D;}
	.st83{fill:#EAF4ED;}
	.st84{opacity:8.000000e-02;}
	.st85{opacity:0.4;}
	.st86{fill:#FFFFFF;stroke:#263239;stroke-width:0.5;stroke-miterlimit:10;}
	.st87{opacity:0.59;fill-rule:evenodd;clip-rule:evenodd;fill:#995C42;}
	.st88{fill:#724941;}
	.st89{fill-rule:evenodd;clip-rule:evenodd;fill:#D2D2D2;}
	.st90{fill-rule:evenodd;clip-rule:evenodd;fill:#777778;}
	.st91{opacity:0.17;fill:#3D3548;}
	.st92{fill:#D88774;}
	.st93{clip-path:url(#SVGID_12_);}
	.st94{fill:none;stroke:#B7B6B6;stroke-miterlimit:10;}
	.st95{fill:#F9BD6D;}
	.st96{fill:#148260;}
	.st97{fill:#FFFFFF;stroke:#B9C2C8;stroke-miterlimit:10;}
	.st98{fill:#FFFFFF;stroke:#E4EBF0;stroke-miterlimit:10;}
	.st99{fill:#0D8260;}
	.st100{fill:#FFFFFF;stroke:#B9C2C8;stroke-width:0.25;stroke-miterlimit:10;}
	.st101{fill:#727D82;}
	.st102{fill:#FFFFFF;stroke:#E4EBF0;stroke-width:0.5;stroke-miterlimit:10;}
	.st103{fill:#3DB18A;}
	.st104{fill-rule:evenodd;clip-rule:evenodd;fill:#E5ECF0;}
	.st105{opacity:0.58;fill-rule:evenodd;clip-rule:evenodd;fill:#B9C3C9;}
	.st106{fill-rule:evenodd;clip-rule:evenodd;fill:#FFFFFF;}
	.st107{fill-rule:evenodd;clip-rule:evenodd;fill:#1CAE81;}
	.st108{fill-rule:evenodd;clip-rule:evenodd;fill:#148260;}
</style>
<path class="st6" d="M495.2,360.1c0-109.3-174.9-29.9-241.8-192.4C211.8,66.7,50.7,262.2,99.3,360.1
	C168.6,499.8,495.2,389.2,495.2,360.1z"/>
<path class="st7" d="M121.8,396.9h328.8V204.3c0-2.5-2-4.5-4.5-4.5H121.8V396.9z"/>
<rect x="126.7" y="205" transform="matrix(-1 -4.491664e-11 4.491664e-11 -1 572.4832 596.6901)" class="st8" width="319" height="186.6"/>
<g>
	<g>
		<path class="st60" d="M196.4,298.9c-2.3,2.2-4.4,4.1-6.2,5.7c-0.7,0.6-1.5,1.2-2.1,1.7c-1.2,0.9-2.8,0-2.8-1.4l0,0
			c0-0.5,0.2-1,0.6-1.2c3.3-2.5,6.2-5,8.8-7.5c2.7-2.6,4.2-4.2,4.4-4.7l2.9-7.1h4.3l-4.1,11c3.5-4.4,6.5-7.6,9-9.4
			c2.5-1.8,4.9-2.7,7.3-2.7c2.3,0,4.3,0.9,5.8,2.6c1.5,1.7,2.3,3.9,2.3,6.6c0,4-1.2,8.2-3.7,12.4c-2.5,4.3-5.9,8.3-10.4,12
			c2.5-0.1,5.4-1.1,8.7-3c3.3-1.9,8.3-5.5,14.9-10.9v4.2c-5.7,4.8-10.5,8-14.2,9.8c-3.8,1.8-7.6,2.7-11.5,2.7c-0.2,0-0.4,0-0.7-0.1
			c-0.3,0-0.6-0.1-0.7-0.1c-1.6,0.7-2.9,1.2-4.1,1.6s-2.2,0.5-3.1,0.5c-1.5,0-2.8-0.4-3.9-1.1c-1.1-0.7-1.6-1.5-1.6-2.4
			c0-0.6,0.3-1.2,0.8-1.6c0.5-0.4,1.2-0.7,1.9-0.7c0.7,0,1.7,0.1,3.1,0.4c1.4,0.2,2.3,0.4,3,0.4c1.7,0,3.4-0.6,5.1-1.8
			c1.7-1.2,3.5-3,5.3-5.3c2.2-2.9,3.9-5.9,5.2-9.1c1.3-3.2,1.9-6,1.9-8.4c0-1.3-0.4-2.4-1.2-3.3c-0.8-0.9-1.8-1.4-3-1.4
			c-1.7,0-3.4,0.6-5.2,1.8c-1.8,1.2-3.9,3.2-6.3,6c-3,3.4-5.5,7-7.7,10.8c-2.2,3.7-4,7.7-5.4,11.8c-0.6,1.8-1.5,5.1-2.6,9.8
			c-1.1,4.7-2.2,9.9-3.4,15.5l-0.1,0.6c-1,5.3-2.3,7.9-3.9,7.9c-0.5,0-1-0.3-1.3-0.8c-0.4-0.5-0.5-1.2-0.5-1.9
			c0-1.1,0.5-3.8,1.5-8.1c1-4.4,2.3-9.4,3.9-15.2c1.7-6.3,3.3-11.5,4.8-15.6C193.3,305.7,194.9,302,196.4,298.9z"/>
		<path class="st60" d="M254,313.2c-0.1,0.3-0.3,0.7-0.4,1c-0.1,0.3-0.2,0.6-0.2,0.7c0,0.2,0.1,0.5,0.2,0.6c0.1,0.2,0.3,0.3,0.4,0.3
			c0.5,0,2.4-1.1,5.5-3.4s7.3-5.4,12.4-9.5v4.2l-2.4,1.8c-11.2,8.7-18,13-20.3,13c-0.6,0-1.1-0.3-1.4-0.8c-0.4-0.5-0.6-1.2-0.6-2.1
			c0-0.4,0.1-0.9,0.3-1.5c0.2-0.6,0.5-1.4,0.9-2.2l8.8-19.5c0.3-0.6,0.6-1.4,1.1-2.4c0.9-1.9,1.4-3.1,1.4-3.5c0-0.9-1.5-1.4-4.4-1.7
			c-1.5-0.1-2.6-0.2-3.5-0.3c-2.1,4.1-4.5,7.9-7.4,11.2c-2.9,3.4-6.2,6.4-9.9,9.1v-4.2c2.9-2,5.5-4.5,8-7.5c2.4-3,4.5-6.2,6.1-9.8
			c-0.7-0.4-1.2-0.9-1.4-1.4c-0.3-0.5-0.4-1.2-0.4-2c0-1.3,0.3-2.4,1-3.2c0.7-0.8,1.5-1.2,2.6-1.2c0.9,0,1.6,0.3,2.2,0.9
			c0.6,0.6,0.9,1.4,0.9,2.3c0,0.4,0,0.8-0.1,1.2c-0.1,0.4-0.2,0.8-0.3,1.2c0.8,0,1.7,0,2.6-0.1c0.3,0,0.4-0.1,0.5-0.1
			c2.9,0,4.9,0.4,6.1,1.1c1.2,0.8,1.8,2,1.8,3.7c0,0.6-0.2,1.4-0.5,2.3c-0.3,0.9-1,2.6-2.1,5.1L254,313.2z"/>
		<path class="st60" d="M308.4,302.5v4.1c-2.8,2.2-5.1,3.8-7,4.7c-1.8,0.9-3.5,1.3-5,1.3c-0.3,0-0.8,0-1.5-0.1
			c-0.3,0-0.5-0.1-0.7-0.1c-2.7,3.1-5.2,5.4-7.6,6.9c-2.4,1.5-4.6,2.3-6.8,2.3c-2.9,0-5.2-1.1-6.9-3.3c-1.7-2.2-2.6-5.1-2.6-8.9
			c0-4.3,1.1-8.5,3.4-12.5c2.2-4,5.4-7.5,9.4-10.4c1.8-1.3,3.7-2.4,5.9-3.3c2.1-0.9,3.6-1.3,4.6-1.3c0.4,0,0.7,0.2,1,0.5
			c0.3,0.3,0.4,0.7,0.4,1.2c0,0.8-1.1,1.7-3.2,2.6c-2.1,0.9-3.9,1.8-5.2,2.7c-3.4,2.3-6.3,5.3-8.5,9.2c-2.2,3.9-3.3,7.5-3.3,11.1
			c0,2.3,0.6,4.3,1.8,5.9c1.2,1.6,2.6,2.4,4.2,2.4c1.5,0,3.1-0.6,4.9-1.9c1.7-1.2,3.7-3.2,6-5.8c-0.8-1.4-1.5-2.7-1.9-4.1
			c-0.4-1.3-0.6-2.7-0.6-4.1c0-3.6,1-6.8,3-9.8c2-3,4.1-4.5,6.1-4.5c1.3,0,2.3,0.6,3.1,1.7c0.8,1.1,1.2,2.5,1.2,4.2
			c0,2-0.5,4.4-1.6,7.2c-1,2.7-2.5,5.5-4.3,8.1h0.2c1.2,0,2.6-0.4,4.2-1.3C302.8,306.7,305.2,305,308.4,302.5z M294,306.7
			c1.6-2.8,2.7-5.2,3.6-7.4c0.8-2.1,1.2-3.8,1.2-5c0-0.5-0.2-1-0.5-1.4c-0.3-0.4-0.7-0.6-1.1-0.6c-1,0-1.9,1-2.9,3.1
			c-1,2-1.5,4.2-1.5,6.5c0,0.8,0.1,1.6,0.3,2.4C293.3,305,293.6,305.8,294,306.7z"/>
		<path class="st60" d="M336.8,313.2c-0.2,0.4-0.3,0.7-0.4,0.9c-0.1,0.3-0.1,0.5-0.1,0.6c0,0.2,0.1,0.5,0.2,0.6
			c0.1,0.2,0.3,0.3,0.4,0.3c0.5,0,2.2-1.1,5.2-3.2c2.9-2.1,7.2-5.3,12.7-9.7v4.2c-7.1,5.6-12.3,9.5-15.6,11.6
			c-3.3,2.1-5.6,3.2-7.1,3.2c-0.6,0-1.1-0.3-1.4-0.8c-0.4-0.5-0.6-1.2-0.6-2.1c0-0.4,0.1-0.9,0.3-1.6c0.2-0.7,0.5-1.4,0.9-2.2
			l9.4-20.1c-7.8,8.2-14.6,14.7-20.5,19.5c-5.8,4.8-9.8,7.2-11.8,7.2c-0.7,0-1.3-0.2-1.7-0.7c-0.4-0.5-0.6-1.2-0.6-2.2
			c0-0.5,0.1-1.1,0.3-1.8c0.2-0.7,0.5-1.3,0.8-2l6.2-12.3c-1.2,1.1-2.3,2-3.5,3c-1.2,0.9-2.3,1.7-3.5,2.4V304c2.7-2,5.1-4,7.2-6
			c2.1-2,3.3-3.5,3.7-4.3l3.9-7.9c0.4-0.9,1.4-1.5,2.4-1.5h0c1.3,0,2.2,1.4,1.6,2.6l-11.7,24.6c-0.2,0.4-0.3,0.8-0.4,1
			c-0.1,0.3-0.1,0.5-0.1,0.7c0,0.5,0.1,0.9,0.2,1.1c0.1,0.2,0.3,0.4,0.5,0.4c1.3,0,5.2-3,11.8-9c6.3-5.7,12.8-12.6,19.5-20.4
			c0.5-0.6,1.2-0.9,2-0.9h0.4c1.4,0,2.2,1.4,1.7,2.6L336.8,313.2z"/>
		<path class="st60" d="M402.2,305.2v0.6c0,0.8-0.4,1.5-1,2l-1.9,1.4c-10.7,8.2-17.1,12.4-19.3,12.4c-1.5,0-2.7-0.6-3.4-1.8
			c-0.8-1.2-1.1-3.1-1.1-5.5v-1c-2.9,2.9-5.5,5-7.7,6.3c-2.2,1.3-4.2,2-6,2c-2.8,0-5-1.1-6.6-3.3c-1.6-2.2-2.4-5.3-2.4-9.1
			c0-7.2,2.8-13.4,8.5-18.7c5.7-5.3,12.4-8,20.4-8h0.2c3.7-11.2,7.5-20.2,11.2-27c3.7-6.8,6.7-10.2,8.8-10.2c0.7,0,1.2,0.4,1.6,1.3
			c0.4,0.9,0.5,2.1,0.5,3.7c0,2.7-0.6,6.4-1.9,11.1c-1.3,4.7-3.1,10.1-5.4,16.1c-2.4,6.2-5.1,11.9-7.9,17.2c-2.8,5.2-5.7,9.9-8.8,14
			c-0.1,0.7-0.2,1.4-0.3,2.1c-0.1,0.7-0.1,1.3-0.1,2c0,1.3,0.2,2.3,0.7,3.2c0.4,0.8,1,1.2,1.6,1.2c1.6,0,7.1-3.7,16.4-11l2.2-1.7
			C401.1,303.8,402.2,304.3,402.2,305.2z M376.2,306.7c0.3-2.5,0.7-5.3,1.4-8.3c0.7-3.1,1.7-7,3-11.9h-0.2c-6.1,0-11.5,2.3-16.2,7
			c-4.8,4.6-7.1,9.8-7.1,15.3c0,2.6,0.5,4.7,1.6,6.3c1,1.6,2.4,2.4,4,2.4c1.4,0,3.2-0.8,5.3-2.5
			C370.1,313.2,372.9,310.4,376.2,306.7z M381.2,300.1c5.4-8.8,9.7-17.7,13-26.6c3.3-9,5.1-16.1,5.2-21.3c-3.4,4.8-6.8,11.4-10,19.8
			C386.2,280.5,383.5,289.9,381.2,300.1z"/>
	</g>
</g>
<g>
	<g>
		<path class="st8" d="M262.6,144.3c0,16.7,13.6,30.3,30.3,30.3c16.7,0,30.3-13.6,30.3-30.3S309.6,114,292.9,114
			C276.2,114,262.6,127.6,262.6,144.3z M267,142.7c0.9-14.3,13.2-25.2,27.5-24.3c14.3,0.9,25.1,13.2,24.2,27.5
			c-0.9,14.3-13.2,25.2-27.5,24.3C277,169.3,266.1,157,267,142.7z"/>
		<g>
			<rect x="311.2" y="143.8" class="st8" width="9.6" height="0.7"/>
			<rect x="264.9" y="143.8" class="st8" width="9.6" height="0.7"/>
			<rect x="292.5" y="116.6" class="st8" width="0.7" height="9.6"/>
			<rect x="292.5" y="162.8" class="st8" width="0.7" height="9.6"/>
			<path class="st8" d="M292.1,144.3c0,0.4,0.4,0.8,0.8,0.8c0.4,0,0.8-0.4,0.8-0.8c0-0.4-0.4-0.8-0.8-0.8
				C292.4,143.5,292.1,143.9,292.1,144.3z"/>
			<g>
				<path class="st8" d="M292.9,144.7c0.1,0,0.2,0,0.2-0.1l14.2-14.2c0.1-0.1,0.1-0.4,0-0.5c-0.1-0.1-0.4-0.1-0.5,0l-14.2,14.2
					c-0.1,0.1-0.1,0.4,0,0.5C292.7,144.6,292.8,144.7,292.9,144.7z"/>
			</g>
			<g>
				<path class="st8" d="M288.3,158.7c0.1,0,0.1-0.1,0.1-0.1l4.6-13.9c0-0.1,0-0.3-0.2-0.3c-0.1,0-0.3,0-0.3,0.2l-4.6,13.9
					c0,0.1,0,0.3,0.2,0.3C288.2,158.8,288.2,158.8,288.3,158.7z"/>
			</g>
		</g>
	</g>
</g>
<path class="st11" d="M217.9,429.3c1.1,5.7,25.3,18.6,29.5-7.6c3.9-24.4-34.4-72.5-34.4-72.5l-10.1,3.8L217.9,429.3z"/>
<path class="st11" d="M269,330.5c-4.5-0.3-10-11.6-26.4,24.3C226.2,390.7,214,403,214,403c6.1,0,22.4,18,26.9,27.4
	c0.6,1.3,2.5,1.4,3.1,0.1c7.5-15,33.7-68.6,31.9-76.4C272.6,339.7,273.4,330.8,269,330.5L269,330.5z"/>
<path class="st12" d="M348.2,420c2-0.3,4-0.5,6.1-0.7c0.6-26.2,3.8-50.2,13.3-92.5c-21.6-6-35.1-8.2-58.4-8.7
	c-17.8-0.4-46.4,8.6-47.6,11c-8.1,16.1-12.7,49.8-17,99.2c-0.4,4.5,3.8,5.9,8.1,7.5C282.8,446.8,337.3,421.5,348.2,420z"/>
<path class="st13" d="M347.3,321.8c18.7,117.6-71.1,102.4-102,98.7c-0.2,2.5-0.5,5.1-0.7,7.7c-0.4,4.5,3.8,5.9,8.1,7.5
	c30.2,11,84.7-14.3,95.6-15.7c2-0.3,4-0.5,6.1-0.7c0.6-26.2,3.8-50.2,13.3-92.5C360.1,324.7,353.5,323.1,347.3,321.8z"/>
<path class="st11" d="M309.9,318.1c-8-0.2-18.2,1.5-27.1,3.7c-3.8,6-8.3,15.2-6.1,22.6c3.8,12,32.4,12.3,51.4-0.7
	c11.7-8,17.9-16.4,21-21.7C336.8,319.5,325.6,318.4,309.9,318.1L309.9,318.1z"/>
<path class="st11" d="M358.3,415.2c0.5,2,2.4,3.4,4.5,3.2c10.4-1,20.9-1.7,31.3-2.6c1.3-0.1,2.6-0.3,3.8-0.4c0.4,0,0.6,0,0.7,0
	c0.1-0.1,0.3-0.1,0.4-0.1c0,0,0.1,0,0.1,0c-3.7-33.6-19.6-87.3-32.8-88.7c-10-1.1-25.8,17.4-17.3,47.4
	C349.1,373.9,353.4,395.3,358.3,415.2z"/>
<path class="st61" d="M353.9,397.2c1.4,6,2.9,12.6,4.5,19c0.4,1.5,1.8,2.5,3.3,2.3c4.3-0.4,8.5-0.8,12.8-1.1
	c1.1-0.3,2.2-0.4,3.2-0.4h0c-3.9-3.8-7.5-8.6-11-15.1c-4.5-8.3-7.7-15.7-9.9-22.4c-3.9-12.4-4.3-22.7-2.7-32.6
	c1.3-7.8,2.8-13.6,3.9-17.4c-8.2,6.8-15.3,23-9.3,44.2C348.9,373.6,351,384.1,353.9,397.2z"/>
<ellipse transform="matrix(0.7071 -0.7071 0.7071 0.7071 -43.9973 311.7965)" class="st16" cx="354.4" cy="209" rx="28" ry="28"/>
<path class="st17" d="M345.4,215.3c0,0,14,0.2,22.6,12.6c8.7,12.4,3.2,46.6-18.8,53.6L345.4,215.3z"/>
<path class="st17" d="M362.1,215.5c2.3-21-118.4-59.4-82.6,44.6C279.5,260.1,359.9,236.5,362.1,215.5z"/>
<path class="st17" d="M278.4,255.3c-0.3,23.5,16.5,42.8,40.9,43.2c24.4,0.3,44.4-18.5,44.7-42c0.3-23.5-19.1-42.9-43.5-43.3
	C296.1,212.9,278.7,231.7,278.4,255.3z"/>
<polygon class="st5" points="327.5,249.7 338.6,321.6 310,329.4 298.9,320.7 304,256.7 "/>
<path class="st48" d="M331.2,293.6c-2,4.4-14.2,19.6-21,22.8c-3.7,1.7-8.1,0.7-10.7-2.4l0,0l4.5-57.3l17.4-5.1
	C321.3,251.6,336.7,281.7,331.2,293.6z"/>
<path class="st5" d="M327.7,217.8c-7.7-2.2-16-2.8-23.9-1.3c-10.7,2.1-24.5,8.6-26.5,28.1c-3.3,32.5,6.8,55.1,22.7,62.7
	c12.3,5.8,39.7-16.6,41.2-22.8l6.3-17.3C347.6,267.2,364.7,228.5,327.7,217.8z"/>
<path class="st17" d="M341.6,276.7c0,0-20.7-37.8,3.2-49.9c0,0,11-7.4,14.9,13C366,272.5,341.6,276.7,341.6,276.7z"/>
<path class="st17" d="M345.4,228.6c0,0-6.5,16.1-39.2,0c-17.9-8.9-28.6,7.8-28.6,7.8s6.4-26.3,36.3-24.3
	C343.7,214.2,345.4,228.6,345.4,228.6z"/>
<ellipse class="st5" cx="343.3" cy="270.9" rx="8.2" ry="13.2"/>
<path class="st62" d="M307.1,282.4c2.1-0.4,1.7,1.9,1,2.8c-2.3,2.7-5,6.5-9.3,7c-5.2,0.6-9.4-4.2-11.1-6.4c-0.3-0.4-0.8-1.8-0.4-1.9
	C290.1,283.5,297.7,284.1,307.1,282.4z"/>
<path class="st17" d="M305,223.5c0,0,9.9,10.1,26.6,14.6c0,0-30.2-5.8-35.9-19.3C290.1,205.5,305,223.5,305,223.5z"/>
<path class="st17" d="M275.7,250.9c0.8-1.3,3.8-5.3,9.3-5.2c6.5,0.1,5.6,3,5.6,3s-3.5-1.5-7.7-0.8c-3.4,0.5-6.3,2.5-7.2,3.2
	C275.7,251,275.7,250.9,275.7,250.9z"/>
<path class="st17" d="M317.5,251c0,0-4-5.5-10.5-5c-6.5,0.5-5.1,3.3-5.1,3.3s3.3-1.7,7.5-1.3C313.7,248.5,317.5,251,317.5,251z"/>
<path class="st19" d="M291.7,259.4l-2.9,8.5c-1,2.8,0.9,5.9,3.8,6.3"/>
<path class="st61" d="M244.7,430.1l-0.1-0.6c-0.2,0-0.3,0.2-0.5,0.2c-4.9-1-10.6-2.8-14.1-6.6c-2.1-2.4-4.6-9-7.1-17.2
	c-5.9-19.5-17.1-52.8-17.4-53c-0.1-0.1-0.2-0.2-0.3-0.3c0,0,0,0,0,0c-1.2,0.5-1.9,1.8-1.6,3c2.5,11.5,12.7,63.3,12.7,63.3l2.2,11.4
	c0.1,0.6,11.6,14.3,24.9,2.2c0.5-0.4,1.2-0.9,1.6-1.5C244.9,430.6,244.7,430.3,244.7,430.1z"/>
<path class="st21" d="M24.6,260.8h213.2c10.3,0,18.7-8.4,18.7-18.7V114.8c0-10.3-8.4-18.7-18.7-18.7H87c-17.6,0-31.3,0-46,0H24.6
	c-10.3,0-18.7,8.4-18.7,18.7v127.3C5.9,252.4,14.2,260.8,24.6,260.8z"/>
<polygon class="st21" points="256.5,268.8 227.9,268.8 256.5,298.5 "/>
<ellipse class="st27" cx="306" cy="258.7" rx="2.8" ry="3.3"/>
<ellipse class="st27" cx="282.6" cy="258.7" rx="2.8" ry="3.3"/>
<path class="st5" d="M214.2,350.7c0,0-2.4-7.4-2.3-11.8c0.1-4.4-8.2-11.2-11.1-14.2s-6.7-12.3-8.3-12.1s-2.6,4.6,0,11.7
	c2.6,7.1-8.1,0-8.1,0s-15.2-7.8-16-7.5c-2.4,0.8,2.3,5.8,4.9,6.6s-10.2-4.8-11.5-4c-1.4,0.7-1,2.4,2.7,5
	c2.4,1.7,18.5,11.2,18.5,11.2l-8.2,0.4c0,0,25.5,5.4,29.3,21.4C204.1,357.5,216.3,354.5,214.2,350.7z"/>
<path class="st5" d="M204.4,357.8c0,0-4.7-9.2-8.8-11.4c-3.3-1.8-27.9-13.3-36.9-17.5c-1.5-0.7-1.3-2.9,0.2-3.3
	c0.6-0.2,1.3-0.3,2-0.3c2.6,0.1,21.5,10.1,23.2,10.1c11.4-0.4,24.9,15.6,25.2,21.9C209.6,363.6,204.4,357.8,204.4,357.8z"/>
<path class="st63" d="M174,323l15,7.2C189,330.2,177.4,327,174,323z"/>
<path class="st64" d="M204.6,358.6c0,0-5.3-10.4-9-12.2c-3.7-1.8-16.8-8.1-16.8-8.1s25.4,3.9,29.8,23.4"/>
<g>
	<path class="st38" d="M95.3,165.2c0,0.5,0,0.8-0.1,1.1c0,0.3-0.1,0.5-0.2,0.7s-0.2,0.3-0.3,0.3c-0.1,0-0.2,0.1-0.3,0.1
		c-0.4,0-1-0.1-1.7-0.4c-0.7-0.2-1.4-0.6-2.3-1c-0.8-0.4-1.6-1-2.5-1.6s-1.6-1.4-2.3-2.2c-0.6,0.3-1.3,0.5-2.2,0.7
		c-0.9,0.2-1.8,0.3-2.8,0.3c-2,0-3.7-0.3-5.1-0.8s-2.7-1.3-3.7-2.3s-1.7-2.4-2.2-4s-0.7-3.6-0.7-5.8c0-2,0.3-3.9,0.8-5.5
		c0.5-1.6,1.3-3,2.3-4.2c1-1.1,2.3-2,3.8-2.6c1.5-0.6,3.3-0.9,5.3-0.9c1.9,0,3.6,0.3,5,0.8c1.5,0.5,2.7,1.3,3.7,2.3s1.8,2.4,2.3,4
		c0.5,1.6,0.8,3.5,0.8,5.7c0,1.1-0.1,2.2-0.2,3.2c-0.1,1-0.4,1.9-0.7,2.8c-0.3,0.8-0.6,1.6-1.1,2.3c-0.4,0.7-0.9,1.3-1.4,1.9
		c0.8,0.7,1.5,1.2,2.1,1.6s1.1,0.6,1.6,0.8c0.4,0.2,0.8,0.3,1,0.4s0.5,0.2,0.6,0.3c0.1,0.1,0.2,0.4,0.3,0.7
		C95.2,164.1,95.3,164.6,95.3,165.2z M87.5,150.1c0-1.3-0.1-2.5-0.3-3.6c-0.2-1.1-0.6-2-1.1-2.8c-0.5-0.8-1.2-1.4-2-1.8
		c-0.8-0.4-1.9-0.6-3.1-0.6c-1.3,0-2.3,0.2-3.2,0.7c-0.8,0.5-1.5,1.1-2.1,1.9c-0.5,0.8-0.9,1.7-1.1,2.8s-0.3,2.2-0.3,3.3
		c0,1.4,0.1,2.6,0.3,3.8c0.2,1.1,0.6,2.1,1.1,2.8c0.5,0.8,1.2,1.4,2,1.8c0.8,0.4,1.9,0.6,3.1,0.6c1.3,0,2.3-0.2,3.2-0.7
		c0.8-0.5,1.5-1.1,2.1-1.9c0.5-0.8,0.9-1.8,1.1-2.8S87.5,151.3,87.5,150.1z"/>
	<path class="st38" d="M113.8,162.1c0,0.1,0,0.2-0.1,0.3c-0.1,0.1-0.2,0.2-0.3,0.2c-0.2,0.1-0.4,0.1-0.6,0.1c-0.3,0-0.6,0-1,0
		c-0.4,0-0.8,0-1,0c-0.3,0-0.5-0.1-0.6-0.1s-0.3-0.1-0.3-0.2c-0.1-0.1-0.1-0.2-0.1-0.3v-2c-1,1-1.9,1.8-2.9,2.3s-2,0.8-3.1,0.8
		c-1.2,0-2.2-0.2-3-0.6c-0.8-0.4-1.5-0.9-2-1.6c-0.5-0.7-0.9-1.5-1.1-2.4s-0.3-2-0.3-3.3v-10.7c0-0.1,0-0.2,0.1-0.3
		c0.1-0.1,0.2-0.2,0.4-0.2c0.2-0.1,0.4-0.1,0.8-0.1c0.3,0,0.7,0,1.2,0c0.5,0,0.9,0,1.2,0s0.6,0.1,0.8,0.1c0.2,0.1,0.3,0.1,0.4,0.2
		s0.1,0.2,0.1,0.3v9.8c0,0.9,0.1,1.6,0.2,2.1s0.3,0.9,0.5,1.2c0.2,0.3,0.5,0.6,0.9,0.8s0.8,0.3,1.3,0.3c0.6,0,1.3-0.2,1.9-0.7
		c0.6-0.5,1.3-1.1,2-2v-11.6c0-0.1,0-0.2,0.1-0.3c0.1-0.1,0.2-0.2,0.4-0.2c0.2-0.1,0.4-0.1,0.8-0.1s0.7,0,1.2,0c0.5,0,0.9,0,1.2,0
		s0.6,0.1,0.7,0.1c0.2,0.1,0.3,0.1,0.4,0.2s0.1,0.2,0.1,0.3V162.1z"/>
	<path class="st38" d="M134.8,152.9c0,0.6-0.1,1-0.4,1.3c-0.3,0.3-0.6,0.4-1.1,0.4h-10.6c0,0.7,0.1,1.4,0.3,2s0.5,1.1,0.8,1.5
		c0.4,0.4,0.9,0.7,1.5,1s1.3,0.3,2.2,0.3c0.9,0,1.6-0.1,2.3-0.2c0.7-0.1,1.2-0.3,1.7-0.4c0.5-0.1,0.9-0.3,1.2-0.4s0.6-0.2,0.8-0.2
		c0.1,0,0.2,0,0.3,0.1s0.1,0.1,0.2,0.2c0.1,0.1,0.1,0.3,0.1,0.5s0,0.5,0,0.8c0,0.3,0,0.5,0,0.7c0,0.2,0,0.4-0.1,0.5
		c0,0.1-0.1,0.3-0.1,0.4c-0.1,0.1-0.1,0.2-0.2,0.3c-0.1,0.1-0.3,0.2-0.7,0.4c-0.4,0.2-0.9,0.3-1.4,0.5s-1.3,0.3-2,0.4
		c-0.8,0.1-1.6,0.2-2.4,0.2c-1.5,0-2.9-0.2-4.1-0.6c-1.2-0.4-2.1-1-2.9-1.8s-1.4-1.8-1.7-3c-0.4-1.2-0.6-2.6-0.6-4.3
		c0-1.5,0.2-2.9,0.6-4.2c0.4-1.2,1-2.3,1.8-3.2c0.8-0.9,1.7-1.5,2.8-2c1.1-0.5,2.3-0.7,3.7-0.7c1.5,0,2.7,0.2,3.7,0.6s1.9,1,2.5,1.8
		s1.2,1.7,1.5,2.7s0.5,2.2,0.5,3.4V152.9z M130.1,151.5c0-1.4-0.2-2.5-0.8-3.3c-0.6-0.8-1.5-1.2-2.7-1.2c-0.6,0-1.2,0.1-1.6,0.4
		c-0.5,0.2-0.8,0.5-1.2,0.9c-0.3,0.4-0.5,0.9-0.7,1.4c-0.2,0.5-0.3,1.1-0.3,1.7H130.1z"/>
	<path class="st38" d="M158.2,160.4c0,0.6,0,1-0.1,1.3c-0.1,0.3-0.2,0.5-0.3,0.6s-0.3,0.2-0.5,0.3c-0.2,0.1-0.5,0.2-0.8,0.3
		c-0.3,0.1-0.6,0.1-1,0.2c-0.4,0-0.7,0.1-1.1,0.1c-1,0-1.8-0.1-2.5-0.4c-0.7-0.2-1.3-0.6-1.8-1.1s-0.8-1.2-1-1.9
		c-0.2-0.8-0.3-1.7-0.3-2.8V148h-2.1c-0.2,0-0.4-0.2-0.6-0.5c-0.1-0.3-0.2-0.8-0.2-1.5c0-0.4,0-0.7,0-1c0-0.3,0.1-0.5,0.1-0.6
		c0.1-0.1,0.1-0.3,0.2-0.3s0.2-0.1,0.3-0.1h2.1v-3.9c0-0.1,0-0.2,0.1-0.4c0.1-0.1,0.2-0.2,0.4-0.3c0.2-0.1,0.4-0.1,0.8-0.2
		c0.3,0,0.7,0,1.2,0c0.5,0,0.9,0,1.2,0c0.3,0,0.6,0.1,0.8,0.2c0.2,0.1,0.3,0.2,0.4,0.3s0.1,0.2,0.1,0.4v3.9h3.8c0.1,0,0.2,0,0.3,0.1
		s0.2,0.2,0.2,0.3c0.1,0.1,0.1,0.4,0.1,0.6c0,0.3,0,0.6,0,1c0,0.7-0.1,1.2-0.2,1.5c-0.1,0.3-0.3,0.5-0.6,0.5h-3.8v8.2
		c0,1,0.1,1.7,0.4,2.1c0.3,0.5,0.8,0.7,1.6,0.7c0.3,0,0.5,0,0.7-0.1c0.2,0,0.4-0.1,0.6-0.2c0.2-0.1,0.3-0.1,0.4-0.2
		c0.1,0,0.2-0.1,0.3-0.1c0.1,0,0.2,0,0.2,0.1c0.1,0,0.1,0.1,0.2,0.3s0.1,0.3,0.1,0.6C158.2,159.7,158.2,160,158.2,160.4z"/>
	<path class="st38" d="M176.2,162.2c0,0.2-0.1,0.3-0.2,0.4c-0.1,0.1-0.3,0.2-0.6,0.2c-0.3,0-0.7,0.1-1.2,0.1c-0.6,0-1,0-1.3-0.1
		c-0.3,0-0.5-0.1-0.6-0.2c-0.1-0.1-0.2-0.2-0.2-0.4v-1.4c-0.7,0.8-1.5,1.4-2.5,1.8s-1.9,0.6-3.1,0.6c-0.9,0-1.8-0.1-2.5-0.4
		c-0.8-0.2-1.4-0.6-2-1.1s-1-1.1-1.3-1.8s-0.5-1.5-0.5-2.5c0-1,0.2-1.9,0.6-2.6c0.4-0.7,1-1.4,1.8-1.9c0.8-0.5,1.8-0.8,2.9-1.1
		s2.5-0.4,4.1-0.4h1.7v-1.1c0-0.5-0.1-1-0.2-1.4c-0.1-0.4-0.3-0.8-0.5-1s-0.6-0.5-1-0.6c-0.4-0.1-0.9-0.2-1.6-0.2
		c-0.8,0-1.6,0.1-2.2,0.3s-1.2,0.4-1.7,0.6c-0.5,0.2-0.9,0.4-1.2,0.6s-0.6,0.3-0.8,0.3c-0.1,0-0.3,0-0.4-0.1
		c-0.1-0.1-0.2-0.2-0.3-0.4c-0.1-0.2-0.1-0.4-0.2-0.6s-0.1-0.5-0.1-0.8c0-0.4,0-0.7,0.1-1c0.1-0.2,0.2-0.4,0.4-0.6
		c0.2-0.2,0.5-0.4,1-0.6c0.5-0.2,1-0.4,1.6-0.6c0.6-0.2,1.3-0.4,2-0.5s1.5-0.2,2.2-0.2c1.4,0,2.5,0.1,3.5,0.4c1,0.3,1.8,0.7,2.4,1.2
		s1.1,1.3,1.4,2.1c0.3,0.9,0.4,1.9,0.4,3.1V162.2z M171.4,154.7h-1.9c-0.8,0-1.5,0.1-2,0.2c-0.6,0.1-1,0.3-1.4,0.5s-0.6,0.5-0.8,0.8
		c-0.2,0.3-0.2,0.7-0.2,1.1c0,0.7,0.2,1.3,0.7,1.7c0.5,0.4,1.1,0.6,1.9,0.6c0.7,0,1.3-0.2,1.9-0.5c0.6-0.4,1.2-0.9,1.8-1.5V154.7z"
		/>
	<path class="st38" d="M186.1,162.1c0,0.1,0,0.2-0.1,0.3s-0.2,0.2-0.4,0.2c-0.2,0.1-0.4,0.1-0.8,0.1s-0.7,0-1.2,0
		c-0.5,0-0.9,0-1.2,0s-0.6-0.1-0.8-0.1c-0.2-0.1-0.3-0.1-0.4-0.2s-0.1-0.2-0.1-0.3v-25.7c0-0.1,0-0.2,0.1-0.4s0.2-0.2,0.4-0.3
		c0.2-0.1,0.4-0.1,0.8-0.2s0.7-0.1,1.2-0.1c0.5,0,0.9,0,1.2,0.1s0.6,0.1,0.8,0.2c0.2,0.1,0.3,0.2,0.4,0.3s0.1,0.2,0.1,0.4V162.1z"/>
	<path class="st38" d="M39.6,192.2c0,1.5-0.2,2.9-0.5,4.2s-0.8,2.3-1.5,3.2c-0.6,0.9-1.4,1.5-2.4,2c-1,0.5-2,0.7-3.3,0.7
		c-0.5,0-1,0-1.4-0.1c-0.4-0.1-0.8-0.2-1.2-0.4c-0.4-0.2-0.8-0.5-1.2-0.8s-0.8-0.7-1.2-1.1v8.2c0,0.1,0,0.2-0.1,0.4
		s-0.2,0.2-0.4,0.3c-0.2,0.1-0.4,0.1-0.8,0.2S25,209,24.6,209c-0.5,0-0.9,0-1.2-0.1s-0.6-0.1-0.8-0.2c-0.2-0.1-0.3-0.2-0.4-0.3
		s-0.1-0.2-0.1-0.4v-24.3c0-0.1,0-0.2,0.1-0.3c0.1-0.1,0.2-0.2,0.3-0.2c0.2-0.1,0.4-0.1,0.6-0.1c0.3,0,0.6,0,1,0c0.4,0,0.7,0,1,0
		c0.3,0,0.5,0.1,0.6,0.1c0.2,0.1,0.3,0.1,0.3,0.2c0.1,0.1,0.1,0.2,0.1,0.3v2.1c0.5-0.5,1-1,1.5-1.4s1-0.7,1.5-1s1-0.5,1.6-0.6
		c0.5-0.1,1.1-0.2,1.7-0.2c1.3,0,2.4,0.3,3.3,0.8s1.6,1.2,2.2,2.1s1,1.9,1.2,3C39.5,189.7,39.6,190.9,39.6,192.2z M34.5,192.6
		c0-0.7-0.1-1.5-0.2-2.1c-0.1-0.7-0.3-1.3-0.6-1.8c-0.3-0.5-0.6-1-1.1-1.3c-0.4-0.3-1-0.5-1.6-0.5c-0.3,0-0.6,0-1,0.1
		c-0.3,0.1-0.6,0.3-1,0.5s-0.7,0.5-1,0.9s-0.7,0.8-1.1,1.3v5.7c0.7,0.9,1.3,1.5,2,2s1.3,0.7,2,0.7c0.6,0,1.2-0.2,1.6-0.5
		s0.8-0.8,1.1-1.3c0.3-0.5,0.5-1.1,0.6-1.8S34.5,193.3,34.5,192.6z"/>
	<path class="st38" d="M54.8,185.4c0,0.5,0,0.9,0,1.2c0,0.3-0.1,0.5-0.1,0.7c-0.1,0.2-0.1,0.3-0.2,0.4c-0.1,0.1-0.2,0.1-0.3,0.1
		c-0.1,0-0.2,0-0.4-0.1c-0.1,0-0.3-0.1-0.4-0.1c-0.2-0.1-0.3-0.1-0.5-0.1s-0.4-0.1-0.6-0.1c-0.3,0-0.5,0.1-0.8,0.2s-0.6,0.3-0.8,0.5
		s-0.6,0.5-0.9,0.9c-0.3,0.4-0.7,0.9-1,1.4v10.9c0,0.1,0,0.2-0.1,0.3s-0.2,0.2-0.4,0.2c-0.2,0.1-0.4,0.1-0.8,0.1s-0.7,0-1.2,0
		c-0.5,0-0.9,0-1.2,0s-0.6-0.1-0.8-0.1c-0.2-0.1-0.3-0.1-0.4-0.2s-0.1-0.2-0.1-0.3v-17.4c0-0.1,0-0.2,0.1-0.3
		c0.1-0.1,0.2-0.2,0.4-0.2c0.2-0.1,0.4-0.1,0.7-0.1c0.3,0,0.6,0,1,0c0.4,0,0.8,0,1,0s0.5,0.1,0.6,0.1c0.1,0.1,0.3,0.1,0.3,0.2
		c0.1,0.1,0.1,0.2,0.1,0.3v2.2c0.5-0.7,0.9-1.2,1.3-1.6c0.4-0.4,0.8-0.8,1.2-1c0.4-0.2,0.7-0.4,1.1-0.5c0.4-0.1,0.7-0.1,1.1-0.1
		c0.2,0,0.4,0,0.5,0s0.4,0.1,0.6,0.1c0.2,0,0.4,0.1,0.5,0.2s0.3,0.1,0.3,0.2c0.1,0.1,0.1,0.1,0.2,0.2c0,0.1,0.1,0.2,0.1,0.3
		c0,0.1,0,0.3,0.1,0.6C54.8,184.6,54.8,184.9,54.8,185.4z"/>
	<path class="st38" d="M71.8,201.3c0,0.2-0.1,0.3-0.2,0.4c-0.1,0.1-0.3,0.2-0.6,0.2c-0.3,0-0.7,0.1-1.2,0.1c-0.6,0-1,0-1.3-0.1
		c-0.3,0-0.5-0.1-0.6-0.2c-0.1-0.1-0.2-0.2-0.2-0.4v-1.4c-0.7,0.8-1.5,1.4-2.5,1.8s-1.9,0.6-3.1,0.6c-0.9,0-1.8-0.1-2.5-0.4
		c-0.8-0.2-1.4-0.6-2-1.1s-1-1.1-1.3-1.8s-0.5-1.5-0.5-2.5c0-1,0.2-1.9,0.6-2.6c0.4-0.7,1-1.4,1.8-1.9c0.8-0.5,1.8-0.8,2.9-1.1
		s2.5-0.4,4.1-0.4h1.7v-1.1c0-0.5-0.1-1-0.2-1.4c-0.1-0.4-0.3-0.8-0.5-1s-0.6-0.5-1-0.6c-0.4-0.1-0.9-0.2-1.6-0.2
		c-0.8,0-1.6,0.1-2.2,0.3s-1.2,0.4-1.7,0.6c-0.5,0.2-0.9,0.4-1.2,0.6s-0.6,0.3-0.8,0.3c-0.1,0-0.3,0-0.4-0.1
		c-0.1-0.1-0.2-0.2-0.3-0.4c-0.1-0.2-0.1-0.4-0.2-0.6s-0.1-0.5-0.1-0.8c0-0.4,0-0.7,0.1-1c0.1-0.2,0.2-0.4,0.4-0.6
		c0.2-0.2,0.5-0.4,1-0.6c0.5-0.2,1-0.4,1.6-0.6c0.6-0.2,1.3-0.4,2-0.5s1.5-0.2,2.2-0.2c1.4,0,2.5,0.1,3.5,0.4c1,0.3,1.8,0.7,2.4,1.2
		s1.1,1.3,1.4,2.1c0.3,0.9,0.4,1.9,0.4,3.1V201.3z M66.9,193.8h-1.9c-0.8,0-1.5,0.1-2,0.2c-0.6,0.1-1,0.3-1.4,0.5s-0.6,0.5-0.8,0.8
		c-0.2,0.3-0.2,0.7-0.2,1.1c0,0.7,0.2,1.3,0.7,1.7c0.5,0.4,1.1,0.6,1.9,0.6c0.7,0,1.3-0.2,1.9-0.5c0.6-0.4,1.2-0.9,1.8-1.5V193.8z"
		/>
	<path class="st38" d="M93.3,183.1c0.5,0,0.9,0.1,1.1,0.4s0.3,0.6,0.3,1v16.7c0,0.1,0,0.2-0.1,0.3s-0.2,0.2-0.4,0.2
		c-0.2,0.1-0.4,0.1-0.8,0.1c-0.3,0-0.7,0-1.2,0c-0.5,0-0.9,0-1.2,0c-0.3,0-0.6-0.1-0.8-0.1c-0.2-0.1-0.3-0.1-0.4-0.2
		s-0.1-0.2-0.1-0.3v-14.1H82v8.2c0,1,0.1,1.7,0.4,2.1c0.3,0.5,0.8,0.7,1.6,0.7c0.3,0,0.5,0,0.7-0.1c0.2,0,0.4-0.1,0.6-0.2
		c0.2-0.1,0.3-0.1,0.4-0.2c0.1,0,0.2-0.1,0.3-0.1c0.1,0,0.2,0,0.2,0.1c0.1,0,0.1,0.1,0.2,0.3s0.1,0.3,0.1,0.6c0,0.2,0,0.5,0,0.9
		c0,0.6,0,1-0.1,1.3c-0.1,0.3-0.2,0.5-0.3,0.6s-0.3,0.3-0.5,0.4s-0.5,0.2-0.8,0.3c-0.3,0.1-0.6,0.1-1,0.2c-0.4,0-0.7,0.1-1.1,0.1
		c-1,0-1.8-0.1-2.5-0.4c-0.7-0.2-1.3-0.6-1.8-1.1s-0.8-1.2-1-1.9c-0.2-0.8-0.3-1.7-0.3-2.8v-8.9H75c-0.2,0-0.4-0.2-0.6-0.5
		c-0.1-0.3-0.2-0.8-0.2-1.5c0-0.4,0-0.7,0-1c0-0.3,0.1-0.5,0.1-0.6c0.1-0.1,0.1-0.3,0.2-0.3s0.2-0.1,0.3-0.1h2.1v-3.9
		c0-0.1,0-0.2,0.1-0.4c0.1-0.1,0.2-0.2,0.4-0.3c0.2-0.1,0.4-0.1,0.8-0.2c0.3,0,0.7,0,1.2,0c0.5,0,0.9,0,1.2,0c0.3,0,0.6,0.1,0.8,0.2
		c0.2,0.1,0.3,0.2,0.4,0.3s0.1,0.2,0.1,0.4v3.9H93.3z M95.2,177.9c0,1-0.2,1.7-0.6,2.1c-0.4,0.4-1.2,0.6-2.2,0.6
		c-1.1,0-1.9-0.2-2.2-0.5c-0.4-0.4-0.6-1-0.6-2c0-1,0.2-1.7,0.6-2.1c0.4-0.4,1.1-0.6,2.3-0.6c1.1,0,1.8,0.2,2.2,0.6
		S95.2,176.9,95.2,177.9z"/>
	<path class="st38" d="M112.9,198.4c0,0.3,0,0.6,0,0.8s0,0.4-0.1,0.6c0,0.2-0.1,0.3-0.1,0.4c0,0.1-0.1,0.2-0.3,0.4s-0.4,0.3-0.8,0.5
		c-0.4,0.2-0.8,0.4-1.3,0.6c-0.5,0.2-1,0.3-1.6,0.4s-1.1,0.2-1.7,0.2c-1.3,0-2.5-0.2-3.6-0.6s-1.9-1-2.6-1.8s-1.2-1.8-1.6-3
		c-0.4-1.2-0.5-2.5-0.5-4c0-1.7,0.2-3.3,0.7-4.5c0.4-1.3,1-2.3,1.8-3.2s1.7-1.5,2.8-1.9c1.1-0.4,2.2-0.6,3.5-0.6c0.5,0,1,0,1.5,0.1
		c0.5,0.1,1,0.2,1.4,0.4c0.4,0.2,0.8,0.3,1.2,0.5c0.3,0.2,0.6,0.4,0.7,0.5c0.1,0.1,0.2,0.3,0.3,0.4s0.1,0.2,0.1,0.4
		c0,0.2,0.1,0.3,0.1,0.6s0,0.5,0,0.8c0,0.8-0.1,1.3-0.2,1.6c-0.1,0.3-0.3,0.5-0.5,0.5c-0.2,0-0.5-0.1-0.7-0.3
		c-0.2-0.2-0.5-0.4-0.9-0.6c-0.3-0.2-0.7-0.4-1.2-0.6s-1-0.3-1.7-0.3c-1.3,0-2.3,0.5-2.9,1.5c-0.7,1-1,2.4-1,4.3
		c0,0.9,0.1,1.8,0.3,2.5c0.2,0.7,0.4,1.3,0.8,1.8s0.7,0.8,1.3,1.1c0.5,0.2,1.1,0.4,1.7,0.4c0.7,0,1.3-0.1,1.7-0.3s0.9-0.4,1.3-0.7
		c0.4-0.2,0.7-0.5,0.9-0.7c0.2-0.2,0.5-0.3,0.6-0.3c0.1,0,0.2,0,0.3,0.1s0.1,0.2,0.2,0.4c0,0.2,0.1,0.4,0.1,0.7
		C112.9,197.6,112.9,198,112.9,198.4z"/>
	<path class="st38" d="M131.1,201.3c0,0.2-0.1,0.3-0.2,0.4c-0.1,0.1-0.3,0.2-0.6,0.2c-0.3,0-0.7,0.1-1.2,0.1c-0.6,0-1,0-1.3-0.1
		c-0.3,0-0.5-0.1-0.6-0.2c-0.1-0.1-0.2-0.2-0.2-0.4v-1.4c-0.7,0.8-1.5,1.4-2.5,1.8s-1.9,0.6-3.1,0.6c-0.9,0-1.8-0.1-2.5-0.4
		c-0.8-0.2-1.4-0.6-2-1.1s-1-1.1-1.3-1.8s-0.5-1.5-0.5-2.5c0-1,0.2-1.9,0.6-2.6c0.4-0.7,1-1.4,1.8-1.9c0.8-0.5,1.8-0.8,2.9-1.1
		s2.5-0.4,4.1-0.4h1.7v-1.1c0-0.5-0.1-1-0.2-1.4c-0.1-0.4-0.3-0.8-0.5-1s-0.6-0.5-1-0.6c-0.4-0.1-0.9-0.2-1.6-0.2
		c-0.8,0-1.6,0.1-2.2,0.3s-1.2,0.4-1.7,0.6c-0.5,0.2-0.9,0.4-1.2,0.6s-0.6,0.3-0.8,0.3c-0.1,0-0.3,0-0.4-0.1
		c-0.1-0.1-0.2-0.2-0.3-0.4c-0.1-0.2-0.1-0.4-0.2-0.6s-0.1-0.5-0.1-0.8c0-0.4,0-0.7,0.1-1c0.1-0.2,0.2-0.4,0.4-0.6
		c0.2-0.2,0.5-0.4,1-0.6c0.5-0.2,1-0.4,1.6-0.6c0.6-0.2,1.3-0.4,2-0.5s1.5-0.2,2.2-0.2c1.4,0,2.5,0.1,3.5,0.4c1,0.3,1.8,0.7,2.4,1.2
		s1.1,1.3,1.4,2.1c0.3,0.9,0.4,1.9,0.4,3.1V201.3z M126.2,193.8h-1.9c-0.8,0-1.5,0.1-2,0.2c-0.6,0.1-1,0.3-1.4,0.5s-0.6,0.5-0.8,0.8
		c-0.2,0.3-0.2,0.7-0.2,1.1c0,0.7,0.2,1.3,0.7,1.7c0.5,0.4,1.1,0.6,1.9,0.6c0.7,0,1.3-0.2,1.9-0.5c0.6-0.4,1.2-0.9,1.8-1.5V193.8z"
		/>
	<path class="st38" d="M147.1,185.4c0,0.5,0,0.9,0,1.2c0,0.3-0.1,0.5-0.1,0.7c-0.1,0.2-0.1,0.3-0.2,0.4c-0.1,0.1-0.2,0.1-0.3,0.1
		c-0.1,0-0.2,0-0.4-0.1c-0.1,0-0.3-0.1-0.4-0.1c-0.2-0.1-0.3-0.1-0.5-0.1s-0.4-0.1-0.6-0.1c-0.3,0-0.5,0.1-0.8,0.2s-0.6,0.3-0.8,0.5
		s-0.6,0.5-0.9,0.9c-0.3,0.4-0.7,0.9-1,1.4v10.9c0,0.1,0,0.2-0.1,0.3s-0.2,0.2-0.4,0.2c-0.2,0.1-0.4,0.1-0.8,0.1s-0.7,0-1.2,0
		c-0.5,0-0.9,0-1.2,0s-0.6-0.1-0.8-0.1c-0.2-0.1-0.3-0.1-0.4-0.2s-0.1-0.2-0.1-0.3v-17.4c0-0.1,0-0.2,0.1-0.3
		c0.1-0.1,0.2-0.2,0.4-0.2c0.2-0.1,0.4-0.1,0.7-0.1c0.3,0,0.6,0,1,0c0.4,0,0.8,0,1,0s0.5,0.1,0.6,0.1c0.1,0.1,0.3,0.1,0.3,0.2
		c0.1,0.1,0.1,0.2,0.1,0.3v2.2c0.5-0.7,0.9-1.2,1.3-1.6c0.4-0.4,0.8-0.8,1.2-1c0.4-0.2,0.7-0.4,1.1-0.5c0.4-0.1,0.7-0.1,1.1-0.1
		c0.2,0,0.4,0,0.5,0s0.4,0.1,0.6,0.1c0.2,0,0.4,0.1,0.5,0.2s0.3,0.1,0.3,0.2c0.1,0.1,0.1,0.1,0.2,0.2c0,0.1,0.1,0.2,0.1,0.3
		c0,0.1,0,0.3,0.1,0.6C147.1,184.6,147.1,184.9,147.1,185.4z"/>
	<path class="st38" d="M177.9,201.2c0,0.1,0,0.2-0.1,0.3s-0.2,0.2-0.4,0.2c-0.2,0.1-0.4,0.1-0.7,0.1s-0.7,0-1.2,0
		c-0.5,0-0.9,0-1.2,0s-0.6-0.1-0.8-0.1c-0.2-0.1-0.3-0.1-0.4-0.2c-0.1-0.1-0.1-0.2-0.1-0.3v-10.3c0-0.6-0.1-1.1-0.2-1.6
		c-0.1-0.5-0.3-0.9-0.5-1.2c-0.2-0.3-0.5-0.6-0.9-0.8c-0.3-0.2-0.8-0.3-1.2-0.3c-0.6,0-1.2,0.2-1.8,0.7c-0.6,0.5-1.3,1.1-2,2v11.6
		c0,0.1,0,0.2-0.1,0.3s-0.2,0.2-0.4,0.2c-0.2,0.1-0.4,0.1-0.8,0.1s-0.7,0-1.2,0c-0.5,0-0.9,0-1.2,0s-0.6-0.1-0.8-0.1
		c-0.2-0.1-0.3-0.1-0.4-0.2s-0.1-0.2-0.1-0.3v-10.3c0-0.6-0.1-1.1-0.2-1.6c-0.1-0.5-0.3-0.9-0.5-1.2c-0.2-0.3-0.5-0.6-0.9-0.8
		s-0.8-0.3-1.2-0.3c-0.6,0-1.2,0.2-1.8,0.7c-0.6,0.5-1.2,1.1-1.9,2v11.6c0,0.1,0,0.2-0.1,0.3s-0.2,0.2-0.4,0.2
		c-0.2,0.1-0.4,0.1-0.8,0.1s-0.7,0-1.2,0c-0.5,0-0.9,0-1.2,0s-0.6-0.1-0.8-0.1c-0.2-0.1-0.3-0.1-0.4-0.2s-0.1-0.2-0.1-0.3v-17.4
		c0-0.1,0-0.2,0.1-0.3c0.1-0.1,0.2-0.2,0.4-0.2c0.2-0.1,0.4-0.1,0.7-0.1c0.3,0,0.6,0,1,0c0.4,0,0.8,0,1,0s0.5,0.1,0.6,0.1
		c0.1,0.1,0.3,0.1,0.3,0.2c0.1,0.1,0.1,0.2,0.1,0.3v2c1-1,1.9-1.8,2.9-2.3s2-0.8,3-0.8c0.7,0,1.4,0.1,1.9,0.2
		c0.6,0.1,1.1,0.4,1.5,0.6s0.8,0.6,1.2,1c0.3,0.4,0.6,0.8,0.8,1.3c0.5-0.6,1-1,1.5-1.4c0.5-0.4,1-0.7,1.5-1s1-0.4,1.5-0.6
		s1-0.2,1.5-0.2c1.2,0,2.1,0.2,2.9,0.6c0.8,0.4,1.4,0.9,1.9,1.6s0.8,1.5,1,2.4c0.2,0.9,0.3,1.8,0.3,2.9V201.2z"/>
	<path class="st38" d="M200.3,192.3c0,1.5-0.2,2.8-0.6,4.1s-1,2.3-1.8,3.2c-0.8,0.9-1.8,1.6-3,2.1c-1.2,0.5-2.6,0.7-4.2,0.7
		c-1.5,0-2.9-0.2-4-0.6c-1.1-0.4-2.1-1.1-2.9-1.9c-0.8-0.8-1.3-1.8-1.7-3c-0.4-1.2-0.5-2.6-0.5-4.1c0-1.5,0.2-2.8,0.6-4.1
		c0.4-1.2,1-2.3,1.8-3.2c0.8-0.9,1.8-1.6,3-2s2.6-0.7,4.2-0.7c1.6,0,2.9,0.2,4.1,0.6c1.1,0.4,2.1,1,2.8,1.9c0.7,0.8,1.3,1.8,1.7,3
		C200.1,189.4,200.3,190.8,200.3,192.3z M195.3,192.5c0-0.9-0.1-1.7-0.2-2.4s-0.4-1.4-0.7-1.9c-0.3-0.5-0.8-1-1.3-1.3
		c-0.5-0.3-1.2-0.4-2-0.4c-0.7,0-1.4,0.1-1.9,0.4s-1,0.7-1.3,1.2s-0.6,1.1-0.8,1.9s-0.3,1.5-0.3,2.5c0,0.9,0.1,1.7,0.2,2.4
		c0.1,0.7,0.4,1.4,0.7,1.9c0.3,0.5,0.8,0.9,1.3,1.2s1.2,0.4,2,0.4c0.7,0,1.4-0.1,1.9-0.4s1-0.7,1.3-1.2s0.6-1.1,0.8-1.8
		C195.2,194.3,195.3,193.4,195.3,192.5z"/>
	<path class="st38" d="M216.5,196.3c0,1-0.2,1.9-0.6,2.6s-0.9,1.4-1.6,1.9c-0.7,0.5-1.5,0.9-2.4,1.1c-0.9,0.3-1.9,0.4-3,0.4
		c-0.7,0-1.3,0-1.9-0.1c-0.6-0.1-1.1-0.2-1.6-0.4s-0.9-0.3-1.2-0.5s-0.5-0.3-0.7-0.4c-0.1-0.1-0.3-0.4-0.3-0.6s-0.1-0.7-0.1-1.3
		c0-0.4,0-0.7,0-0.9c0-0.2,0.1-0.4,0.1-0.5c0.1-0.1,0.1-0.2,0.2-0.3s0.2-0.1,0.3-0.1c0.1,0,0.4,0.1,0.6,0.2c0.3,0.2,0.6,0.3,1,0.5
		c0.4,0.2,0.9,0.4,1.5,0.5c0.6,0.2,1.2,0.3,1.9,0.3c0.4,0,0.8,0,1.2-0.1c0.3-0.1,0.6-0.2,0.9-0.4s0.4-0.4,0.6-0.6
		c0.1-0.3,0.2-0.6,0.2-0.9c0-0.4-0.1-0.7-0.4-1c-0.2-0.3-0.6-0.5-1-0.7c-0.4-0.2-0.8-0.4-1.3-0.6c-0.5-0.2-1-0.4-1.5-0.6
		s-1-0.5-1.5-0.8c-0.5-0.3-1-0.6-1.3-1.1c-0.4-0.4-0.7-0.9-1-1.5c-0.2-0.6-0.4-1.3-0.4-2.1c0-0.8,0.2-1.6,0.5-2.3
		c0.3-0.7,0.8-1.3,1.4-1.8c0.6-0.5,1.4-0.9,2.2-1.2s1.9-0.4,3-0.4c0.5,0,1.1,0,1.6,0.1c0.5,0.1,1,0.2,1.4,0.3
		c0.4,0.1,0.8,0.2,1.1,0.4c0.3,0.1,0.5,0.3,0.6,0.4c0.1,0.1,0.2,0.2,0.3,0.3c0.1,0.1,0.1,0.2,0.1,0.4c0,0.1,0,0.3,0.1,0.5
		s0,0.5,0,0.8c0,0.4,0,0.6,0,0.9s-0.1,0.4-0.1,0.5c0,0.1-0.1,0.2-0.2,0.3s-0.2,0.1-0.3,0.1c-0.1,0-0.3-0.1-0.5-0.2
		c-0.2-0.1-0.6-0.3-0.9-0.4s-0.8-0.3-1.3-0.4s-1-0.2-1.7-0.2c-0.4,0-0.8,0-1.2,0.1c-0.3,0.1-0.6,0.2-0.8,0.4
		c-0.2,0.2-0.4,0.4-0.5,0.6c-0.1,0.2-0.2,0.5-0.2,0.7c0,0.4,0.1,0.7,0.4,1c0.2,0.3,0.6,0.5,1,0.7c0.4,0.2,0.9,0.4,1.4,0.6
		c0.5,0.2,1,0.4,1.6,0.6s1,0.5,1.6,0.8c0.5,0.3,1,0.6,1.4,1.1c0.4,0.4,0.7,0.9,1,1.5C216.4,194.8,216.5,195.5,216.5,196.3z"/>
	<path class="st38" d="M234.6,182.6c0,1.1-0.2,2-0.5,2.9c-0.3,0.9-0.7,1.6-1.3,2.2c-0.6,0.6-1.2,1.1-2,1.5c-0.8,0.4-1.6,0.6-2.6,0.7
		l-0.2,3.8c0,0.2-0.2,0.4-0.6,0.5c-0.4,0.1-0.9,0.2-1.6,0.2c-0.4,0-0.8,0-1.1,0s-0.5-0.1-0.7-0.1c-0.2-0.1-0.3-0.1-0.4-0.2
		s-0.1-0.2-0.1-0.4l-0.2-4.6c0-0.4,0-0.8,0.1-1c0.1-0.3,0.1-0.5,0.3-0.6s0.3-0.3,0.5-0.3c0.2-0.1,0.5-0.1,0.7-0.1h0.3
		c0.7,0,1.3-0.1,1.8-0.3c0.5-0.2,0.9-0.5,1.2-0.9c0.3-0.4,0.6-0.8,0.7-1.3c0.1-0.5,0.2-1,0.2-1.6c0-0.6-0.1-1.2-0.3-1.7
		s-0.4-1-0.8-1.3c-0.4-0.4-0.8-0.7-1.3-0.9c-0.5-0.2-1.2-0.3-1.9-0.3c-0.7,0-1.3,0.1-1.8,0.2s-0.9,0.3-1.3,0.4
		c-0.4,0.2-0.7,0.3-0.9,0.4c-0.2,0.1-0.4,0.2-0.6,0.2c-0.1,0-0.2,0-0.3-0.1s-0.1-0.2-0.2-0.3c-0.1-0.2-0.1-0.4-0.1-0.7
		c0-0.3,0-0.7,0-1.1c0-0.5,0-0.8,0.1-1s0.1-0.4,0.3-0.5c0.1-0.1,0.4-0.3,0.7-0.5c0.4-0.2,0.8-0.3,1.3-0.5s1.1-0.3,1.7-0.4
		s1.3-0.2,2-0.2c1.5,0,2.9,0.2,3.9,0.6s2,1,2.7,1.7c0.7,0.7,1.2,1.5,1.5,2.5C234.5,180.6,234.6,181.5,234.6,182.6z M228.8,199.3
		c0,0.5,0,1-0.1,1.3c-0.1,0.4-0.2,0.7-0.4,0.9s-0.5,0.4-0.9,0.5c-0.4,0.1-0.8,0.1-1.3,0.1c-0.5,0-1,0-1.3-0.1s-0.6-0.3-0.8-0.5
		s-0.4-0.5-0.4-0.9c-0.1-0.4-0.1-0.8-0.1-1.3c0-0.5,0-1,0.1-1.4c0.1-0.4,0.2-0.7,0.4-0.9s0.5-0.4,0.8-0.5s0.8-0.1,1.3-0.1
		c0.5,0,1,0,1.3,0.1c0.4,0.1,0.6,0.3,0.9,0.5s0.4,0.5,0.4,0.9C228.8,198.3,228.8,198.8,228.8,199.3z"/>
</g>
<path class="st65" d="M305.3,288.4c-1.3-0.4-2.7-0.7-4.3-0.7c-3.7,0-6.8,1.3-7.8,3.1c1.7,1,3.6,1.6,5.6,1.4
	C301.5,291.9,303.6,290.3,305.3,288.4z"/>
<path class="st29" d="M308.4,282.7c-0.2-0.3-0.6-0.4-1.3-0.3c-6.5,1.2-12.1,1.3-15.9,1.4c0.2,0.3,0.5,0.6,0.9,0.6
	c3.4,0,13.8,0.1,16-1.1C308.2,283.1,308.3,282.9,308.4,282.7z"/>
<path class="st50" d="M287.2,414.4c-0.3-1.8-2.4-3.6-6.2-2.2c-3.8,1.4-8.5,6.4-8.5,6.4l-1.3,2.8l1.1-2.7c0,0,0.5-6.7-1.2-10.2
	c-1.7-3.5-4.5-3.7-6.1-2.6c-3.2,2.1-5.5,8.7,2.5,14.8c0,0-2.8,0.5-3.5,2.2c-0.8,2.2,2.9,3.7,6.5,0.1l0-0.1c-0.2,4.8,3.5,6.2,4.5,4.1
	c0.8-1.6-0.7-3.9-0.7-3.9C284.4,424.1,287.8,418,287.2,414.4z"/>
<path class="st50" d="M323.2,388.1c0-1.9-1.7-4-5.7-3.2c-4,0.7-9.5,4.9-9.5,4.9l-1.8,2.6l1.6-2.4c0,0,1.6-6.5,0.5-10.3
	c-1-3.7-3.8-4.4-5.6-3.6c-3.5,1.6-6.9,7.7,0,15c0,0-2.9,0-3.8,1.6c-1.2,2,2.2,4.2,6.4,1.2l0-0.1c-1,4.7,2.4,6.7,3.8,4.8
	c1.1-1.5-0.1-3.9-0.1-3.9C318.9,397.3,323.2,391.8,323.2,388.1z"/>
<path class="st50" d="M274.3,364.7c-0.9-1.6-3.5-2.6-6.6,0c-3.1,2.6-5.9,8.9-5.9,8.9l-0.3,3.1l0.2-2.9c0,0-1.8-6.4-4.5-9.2
	c-1.9-1.9-3.7-2.1-5.1-1.6c-0.5,3-1,6.2-1.5,9.5c1.3,1.9,3.5,3.7,7.2,4.8c0,0-2.5,1.4-2.5,3.3c0,2.3,4,2.6,6.1-2.1l0-0.1
	c1.4,4.6,5.4,4.6,5.7,2.3c0.2-1.8-2-3.4-2-3.4C275,374.8,276.1,367.9,274.3,364.7z"/>
<path class="st50" d="M343.4,341.3c-1.3-1.4-4-1.7-6.4,1.6c-2.4,3.3-3.5,10-3.5,10l0.5,3.1l-0.5-2.9c0,0-3.3-5.8-6.6-7.8
	c-0.2-0.1-0.4-0.2-0.6-0.3c-1.8,1.2-4,2.5-6.4,3.4c-0.3,3.7,2.2,8.6,10.7,9.1c0,0-2.1,2-1.7,3.8c0.5,2.3,4.5,1.5,5.4-3.5l0-0.1
	c2.5,4.1,6.3,3.2,6.1,0.9c-0.2-1.8-2.8-2.8-2.8-2.8C346.5,351,345.9,344,343.4,341.3z"/>
<path class="st63" d="M341.7,266.9c0,0,4.7,3.4,0.5,6c-0.9,0.5-0.1,6.2,2.1,4.7c2.1-1.6,5.7-9.6,1.3-13.5
	C341.3,260.4,340.5,266.7,341.7,266.9z"/>
</svg>
