<?xml version="1.0" encoding="utf-8"?>
<!-- Generator: Adobe Illustrator 24.3.0, SVG Export Plug-In . SVG Version: 6.00 Build 0)  -->
<svg version="1.1" id="Camada_1" xmlns="http://www.w3.org/2000/svg" xmlns:xlink="http://www.w3.org/1999/xlink" x="0px" y="0px"
	 viewBox="0 0 883.9 484.9" style="enable-background:new 0 0 883.9 484.9;" xml:space="preserve">
<style type="text/css">
	.st0{fill:#404040;}
	.st1{fill:#128260;stroke:#F9BE6D;stroke-width:3;stroke-miterlimit:10;}
	.st2{fill:#106449;}
	.st3{fill:#E4EBF0;}
	.st4{fill:#FCCE8C;}
	.st5{fill:#7F5018;}
	.st6{fill:#21AC80;}
	.st7{fill:#FABE6D;}
	.st8{fill:#E84B4D;}
	.st9{fill:none;stroke:#D9D9D9;stroke-width:2;stroke-miterlimit:10;}
	.st10{fill:#B9C2C8;}
	.st11{fill:#704E43;}
	.st12{fill:#3BB18A;}
	.st13{fill:#727D82;}
	.st14{fill:#FFFFFF;}
	.st15{fill:#F6C3AC;}
	.st16{fill:#EA6F42;}
	.st17{fill:#DB9880;}
	.st18{fill:#ED8045;}
	.st19{fill:#AD5E4E;}
	.st20{fill:#9B4E41;}
	.st21{fill:#372736;}
	.st22{fill:#F5B12D;}
	.st23{fill:#A66B23;}
	.st24{fill:#F6BFA3;}
	.st25{fill:#F8B134;}
	.st26{fill:#E29F81;}
	.st27{fill:#44261B;}
	.st28{fill:#250D09;}
	.st29{fill:#128260;}
	.st30{fill:#DDF2EC;}
	.st31{fill:#148260;}
	.st32{fill:#FF4848;}
	.st33{fill:#FFCF8C;}
	.st34{fill:#D9D9D9;}
	.st35{fill:#B9C3C9;}
	.st36{fill:#E5ECF0;}
	.st37{fill:#1CAE81;}
	.st38{fill:#727D83;}
	.st39{fill:none;}
	.st40{fill:#2CBA8D;}
	.st41{opacity:0.48;}
</style>
<g>
	<g>
		<g>
			<g>
				<path class="st0" d="M41,404.3c0-3.1,7.6-5.4,17-5.4s17,2.4,17,5.4v1.1c0,0.7,0.7,1.1,1.2,0.7l6.5-3.1c0.4-0.3,0.4-1-0.1-1.1
					L59,392.6c-0.7-0.3-1.3-0.3-2,0l-23.8,9.3c-0.5,0.2-0.5,0.9-0.1,1.1l6.5,3.1c0.6,0.4,1.2,0,1.2-0.7L41,404.3L41,404.3z"/>
			</g>
			<g>
				<g>
					<path class="st0" d="M58,400.5c-8.4,0-15.2,2.1-15.2,4.8v9.3c0,2.7,6.8,4.8,15.2,4.8s15.2-2.1,15.2-4.8v-9.3
						C73,402.7,66.4,400.5,58,400.5z M58,418.6c-7.4,0-13.5-1.9-13.5-4.3c0-2.4,6.1-4.3,13.5-4.3s13.5,1.9,13.5,4.3
						C71.5,416.7,65.4,418.6,58,418.6z"/>
				</g>
			</g>
			<rect x="75.9" y="405.6" class="st0" width="1.1" height="8.8"/>
			<rect x="74.6" y="414.1" class="st0" width="3.5" height="1.1"/>
			<rect x="76.1" y="413.1" class="st0" width="0.6" height="3.5"/>
			<path class="st0" d="M75.9,414.8l-1.2,1.2l0.5,0.5l1.2-1.2C76.3,415,76.1,414.8,75.9,414.8z"/>
			<path class="st0" d="M76.4,415.1l1.2,1.2l0.5-0.5l-1.2-1.2C76.7,414.8,76.6,415,76.4,415.1z"/>
		</g>
	</g>
	<g>
		<path class="st0" d="M126.3,399.5c-3-4.9-9.3-3.5-10-3.1c-0.8,0.3-2,0.5-2,0.5s-1.2-0.1-2-0.5c-0.8-0.3-7.1-1.6-10,3.1
			c-3,4.9-1,12,2.7,15.8c3.7,3.8,6.8,3.5,9.3,3.1c2.5,0.5,5.7,0.9,9.3-3.1C127.2,411.5,129.2,404.3,126.3,399.5z"/>
		<path class="st0" d="M122.7,388L122.7,388c-6.9-1.8-6.3,5.2-6.3,5.2l0,0C116.5,393.2,123.2,395.3,122.7,388z"/>
		<path class="st0" d="M114.5,395.1c0,0,0.2-3.2-3.8-4.1c0,0-0.6-0.7,0-1.7c0.6-1.1,5.2,0,3.9,5.8L114.5,395.1z"/>
	</g>
</g>
<g>
	<g>
		<rect x="159.9" y="172.6" class="st1" width="42.1" height="26.6"/>
		<g>
			<polygon class="st2" points="163.4,200.7 160.8,200.7 160.8,173.7 200.5,173.7 200.5,175.9 163.4,175.9 			"/>
		</g>
		<rect x="186.9" y="195.6" class="st3" width="9.3" height="1.3"/>
		<polygon class="st4" points="160.8,173.7 158.8,171.7 158.8,199.4 160.5,197.6 160.9,197.2 		"/>
		<path class="st5" d="M204.7,201.7h-47.6l0,0c0-2.7,2.1-4.8,4.8-4.8H200C202.5,197,204.7,199.1,204.7,201.7L204.7,201.7z"/>
	</g>
	<g>
		<rect x="247.4" y="172.6" class="st6" width="6" height="25.6"/>
		<rect x="238.4" y="181.3" class="st7" width="6" height="16.7"/>
		<rect x="229.5" y="190.9" class="st8" width="6" height="7.2"/>
		<polyline class="st9" points="226.3,170.9 226.3,201 257.8,201 		"/>
	</g>
	<g>
		<g>
			<path class="st7" d="M275.3,201.8L275.3,201.8c-1-1-1-2.4,0-3.3l9.9-9.9l3.3,3.3l-9.9,9.9C277.7,202.8,276.1,202.8,275.3,201.8z"
				/>
			<path class="st4" d="M276.1,200l10.2-10.2l-1.1-1.1L275,198.9c-0.8,0.8-0.8,1.9,0,2.7l0.7,0.7c0.1,0.1,0.2,0.2,0.3,0.2
				C275.4,201.6,275.4,200.7,276.1,200z"/>
			
				<rect x="286.4" y="187.8" transform="matrix(0.7071 -0.7071 0.7071 0.7071 -49.635 258.8784)" class="st3" width="2.6" height="3.2"/>
		</g>
		<g>
			<path class="st10" d="M295.9,191.3c-6,0-10.9-4.9-10.9-10.9c0-6,4.9-10.9,10.9-10.9s10.9,4.9,10.9,10.9
				C306.6,186.5,301.8,191.3,295.9,191.3z M295.9,172c-4.7,0-8.6,3.8-8.6,8.6s3.8,8.6,8.6,8.6s8.6-3.8,8.6-8.6S300.6,172,295.9,172z
				"/>
		</g>
		<g>
			<path class="st10" d="M299.9,175.7c-1.1-1.1-2.6-1.5-4-1.5s-3,0.6-4,1.4l-0.5-0.5c1.2-1.1,2.9-1.6,4.4-1.6c1.6,0,3.2,0.7,4.5,1.6
				L299.9,175.7z"/>
		</g>
	</g>
	<g>
		<path class="st11" d="M132.8,180.1l-6.3-1.8v-11.9c0-0.1,0.1-0.3,0.3-0.3h5.8c0.1,0,0.3,0.1,0.3,0.3
			C132.8,166.2,132.8,180.1,132.8,180.1z"/>
		<path class="st11" d="M137.5,183.5l-20.5-18.5l0,0l0,0l0,0l0,0l-20.5,18.5c-0.5,0.4-0.5,1.1-0.1,1.4l1.3,1.5
			c0.4,0.5,1.1,0.5,1.4,0.1l17.7-16l17.7,16c0.5,0.4,1.1,0.4,1.4-0.1l1.3-1.5C138,184.6,138,183.9,137.5,183.5z"/>
		<path class="st4" d="M117.1,173.7l-15.8,13.9v12.6c0,0.6,0.5,1.1,1.1,1.1h11.5v-9.4c0-0.7,0.6-1.2,1.2-1.2h3.9
			c0.7,0,1.2,0.6,1.2,1.2v9.4h11.5c0.6,0,1.1-0.5,1.1-1.1v-12.6L117.1,173.7z"/>
	</g>
	<g>
		<rect x="56.1" y="160.1" class="st12" width="6.3" height="4.9"/>
		<rect x="54.4" y="160.1" class="st13" width="1.9" height="8.4"/>
		<path class="st7" d="M35.9,179.8l11.9-2.8v22.1H35v-18.3C35,180.4,35.4,179.9,35.9,179.8z"/>
		<path class="st7" d="M75,179.8L63.1,177v22.1H76v-18.3C75.9,180.4,75.5,179.9,75,179.8z"/>
		<path class="st4" d="M64,199.2h-17v-26c0-0.7,0.4-1.2,0.9-1.5l6.7-4.2c0.7-0.4,1.3-0.4,1.9,0l6.7,4.2c0.6,0.4,0.9,1,0.9,1.5
			C64,173.2,64,199.2,64,199.2z"/>
		<rect x="33.8" y="199.2" class="st11" width="43.2" height="1.9"/>
		<rect x="52.3" y="187.3" class="st11" width="6.2" height="11.8"/>
		<rect x="38.7" y="187.3" class="st11" width="5.4" height="5.4"/>
		<rect x="66.8" y="187.3" class="st11" width="5.4" height="5.4"/>
		<circle class="st14" cx="55.4" cy="177.9" r="3.9"/>
	</g>
</g>
<g>
	<path class="st15" d="M142.9,106.4l-7.6-4.1v-1.6h-6.4c0,0,0,1.6,0,1.7c-10.8,5.1-9.3,1.9-13.6,13.5l16.1,4.7
		c1.7-0.5,14.1-3.8,15.5-4.3C146.2,115.2,144.3,106.6,142.9,106.4z"/>
	<path class="st16" d="M143.6,70.4c0.1,6.7-10.5,6.7-10.4,0C133.1,63.7,143.7,63.7,143.6,70.4z"/>
	<path class="st17" d="M129,100.4v1.1c1.2,1.9,5.2,1.8,6.3-0.2v-1.1h-6.3L129,100.4z"/>
	<path class="st15" d="M142.7,90c0-4.7-1.3-9-2.5-13.5c-4.2-0.6-12.8-0.6-17,0c-1.1,4.5-2.5,8.8-2.5,13.5c0,1.3,5.4,11.4,10.9,11.9
		l0,0c0.1,0,0.2,0,0.4,0l0,0C137.3,101.7,142.7,91.5,142.7,90z"/>
	<path class="st18" d="M120.4,89.4c-9.2-23,30.8-30.6,22.3,1.1l-3.4-4.8c0,0-12.5-2.3-15.2-7.9c0,0-3.8,7.3-3.6,12.8"/>
	<path class="st3" d="M146.8,116.2l-2.9-8.7c-0.3-1.1-2.9-1.9-3.7-2.6c-5.3,10.1-11.9,9.8-17.3,0c-1,0.6-4.3,1.4-4.4,2.6
		c-0.1,0.2-3.3,8.3-3.3,8.3l16.1,4.7C133.1,120.1,145.5,116.6,146.8,116.2z"/>
</g>
<path class="st3" d="M144.4,112.7c-11.4,3.8-7.1,2.4-9.7,14.6c21.7,5,22.1,5,43.9,0c-2.7-12.2,1.6-10.9-9.7-14.6"/>
<path class="st19" d="M151.9,107.4v2.6l-5.2,1.9c5.2,7.1,14.8,7.6,19.8-0.1l-3.9-1.8v-2.9h-10.9L151.9,107.4L151.9,107.4z"/>
<path class="st20" d="M152,108v1.7c2.3,3.4,8.8,3.2,10.9-0.3v-1.7h-10.7L152,108z"/>
<path class="st19" d="M166.6,81c-2-0.5-5.9-0.2-9.1,0v-0.3c-3.6-0.1-6.7-0.2-9.1,0.3c-1.3,5.1-3.1,9.9-2.7,15.2
	c2.6,8,6,14.2,11.7,14.2c5.7,0.2,10.3-7.2,11.7-15.3C169.7,90.2,167.8,85.6,166.6,81z"/>
<path class="st21" d="M157.5,84.6c1.9,0,4.8-1.3,8.2-1.2c3.4,0.1,3.5,13.3,3.5,13.3c7.9-28-31.3-30.9-23.4,0c0,0,0.2-13.2,3.5-13.3
	C152.7,83.2,155.6,84.6,157.5,84.6"/>
<path class="st10" d="M144.2,112.4l2.4-1.1c5.1,7.3,14.7,7.6,19.7,0l2.6,1.1C163.1,122.2,149.8,122,144.2,112.4z"/>
<g>
	<g>
		<path class="st22" d="M37.9,90c0,0-0.7,14.4,2.3,17.6l2.2-1c0,0-2.9-9.7-1.9-13.3C41.4,90,37.9,90,37.9,90z"/>
		<path class="st23" d="M39.9,90c0,0-1.1,14.4,3.8,17.6l3.8-1c0,0-4.8-9.7-3.2-13.3C45.9,90,39.9,90,39.9,90z"/>
		<path class="st23" d="M57.5,111c0,0,7.1-15.3,1.3-21.2l-5.7-1c0,0,3.1,13.1-0.5,16.2C49,108.2,57.5,111,57.5,111z"/>
		<rect x="44.5" y="98.3" class="st24" width="10.1" height="8.4"/>
		<path class="st24" d="M38.4,90.8c0,0,4.3,11.9,10.8,11.9S60.8,94.2,60.8,87c0-7.2-7.3-13.6-7.3-13.6L46.1,74l-6.9,5.5l-0.8,5.2
			C38.4,84.7,38.4,90.8,38.4,90.8z"/>
		<path class="st24" d="M38.6,91.5c0,0-1.6-1.7-1.9-3.5c-0.3-1.7,0.9-2.3,1.4-1.6c0.8,0.7,1.1,4.4,1.1,4.6
			C39.1,91.2,38.6,91.5,38.6,91.5z"/>
		<path class="st25" d="M57.1,72.5c-9.6-5.2-13.5,0.4-13.5,0.4s-7.5,4.1-5.4,13.3v0.5l2-3.8c0,0,4.2,1,9.4,1.1l0.5-4.2l0.7,4.2
			c1.3,0,2.8-0.1,4.2-0.3l0.4-3.1l0.5,3c1.2-0.2,2.3-0.4,3.4-0.8c0,0-1,29-0.7,30.1c0.4,1.1,0.7,2.2,0.7,2.2s3.6,0.1,3.5-4.6
			C62.9,105.7,66.8,77.6,57.1,72.5z"/>
		<path class="st26" d="M54.6,100.4c-1.6,1.3-3.5,2.2-5.5,2.2c-1.6,0-3.2-0.9-4.6-2.1v2.2c1.3,1.2,3,2.1,4.6,2.1
			c2,0,3.8-0.9,5.5-2.2V100.4z"/>
		<path class="st24" d="M40.9,106.1l-5.2,1.8c-0.5,0.2-0.9,0.6-1,1.1l-1.3,8l14.3,3c1.3,0.3,2.9,0.3,4.2,0l14.3-3l-1.3-8
			c-0.1-0.5-0.5-1-1-1.1l-5.2-1.8"/>
		<path class="st3" d="M61.5,116.5c-0.3-3-0.1-8.6,0-9.5l-2.1-0.8c0,0,0,0-0.1,0c-0.8,0.7-9.3,11-9.3,11s-8.5-10.3-9.3-11
			c0,0,0,0-0.1,0l-2,0.7c0.1,1.1,0.3,6.7,0,9.5c-0.1,0.8,0.4,1.3,1.2,1.7l8.1,1.6c1.3,0.3,2.9,0.3,4.2,0l8.2-1.6
			C61,117.7,61.5,117.2,61.5,116.5z"/>
	</g>
	<g>
		<path class="st3" d="M62.7,113.1l-6.7,2.4c-0.7,0.2-1.1,0.8-1.1,1.3l-1.6,10.4l18.5,3.8c1.8,0.4,3.7,0.4,5.5,0l18.6-3.8l-1.6-10.4
			c-0.1-0.7-0.6-1.2-1.1-1.3l-6.7-2.4"/>
		<path class="st24" d="M70.1,108v2.5l-5,1.8c0,0,4.3,5.5,9.8,5.5c5.5,0,9.4-5.6,9.4-5.6l-3.8-1.8v-2.8H70.1V108z"/>
		<path class="st26" d="M70.1,108.2v1.6c0,0,2,2.5,5.2,2.5c3.2,0,5.2-2.8,5.2-2.8v-1.6H70.3L70.1,108.2z"/>
		<path class="st24" d="M75.4,82.2c-9.8-0.2-11.6-1.9-11.4,15c0.1,8.5,5.8,13.9,11.4,13.9c5.7,0,11.4-5.5,11.4-13.9
			C87.1,80.2,85.3,82.1,75.4,82.2z"/>
		<path class="st27" d="M75.6,86c1.8,0,4.6-1.3,7.8-1.2c3.2,0.1,3.4,12.8,3.4,12.8S91,89.3,89.5,82c0,0-1.3-3.8-5.4-4
			c0,0-2.6-3.2-8.7-3.2c-6.1,0-8.4,5.2-15.9,2.6c0,0-0.9,2.7,2.7,5c0,0-1.1,7.3,2,15.5c0,0,0.2-12.7,3.4-12.8
			C71,84.8,73.8,86,75.6,86"/>
		<path class="st10" d="M62.4,112.6l2.3-1c0,0,4.3,5.9,9.9,5.9c5.6,0,9.6-5.9,9.6-5.9l2.5,1.1c0,0-4.6,7.5-12.2,7.5
			C66.9,120.2,62.4,112.6,62.4,112.6z"/>
	</g>
</g>
<g>
	<g>
		<path class="st28" d="M213.4,68.4c-13.3-5.4-19.4,7.1-14.7,17.2c1.9,4.2,2.1,7,1.9,9.6c-0.2,2.8-0.3,5.6,3.4,6.2
			c0.6,0.1,1.6,1.1,2.4,1.9c1.3,1.3,4.4,0.3,4.4,0.3s1.1-2.4,2.7-5.9c1.5,3.4,2.7,5.9,2.7,5.9s3.1,1.1,4.4-0.3
			c0.8-0.8,1.8-1.8,2.4-1.9c3.7-0.5,3.6-3.4,3.4-6.2c-0.2-2.8,0-5.4,1.9-9.6C232.8,75.4,226.6,62.9,213.4,68.4z"/>
		<rect x="208.3" y="98.3" class="st19" width="10.1" height="8.4"/>
		<path class="st19" d="M225,87.1c0-1.9-0.6-3.8-1.3-5.6l-0.3-1.9l-1.5-1.2c-2-3-4.2-4.9-4.2-4.9l-4.3,0.3l-4.3-0.3
			c0,0-2.2,1.9-4.2,4.9l-1.5,1.2l-0.3,1.9c-0.9,1.7-1.3,3.6-1.3,5.6c0,6.9,4.8,15.1,10.9,15.8c0.3,0,0.6,0.1,0.9,0.1l0,0l0,0
			c0.3,0,0.6,0,0.9-0.1C220.2,102.1,225,93.9,225,87.1z"/>
		<path class="st20" d="M218.4,100.8c-1.6,1.3-3.5,2.2-5.5,2.2c-1.6,0-3.2-0.9-4.6-2.1v2.2c1.3,1.2,3,2.1,4.6,2.1
			c2,0,3.8-0.9,5.5-2.2V100.8z"/>
		<path class="st19" d="M204.6,106.1l-5.2,1.8c-0.5,0.2-0.9,0.6-1,1.1l-1.3,8l14.3,3c1.3,0.3,2.9,0.3,4.2,0l14.3-3l-1.3-8
			c-0.1-0.5-0.5-1-1-1.1l-5.2-1.8H204.6"/>
		<path class="st28" d="M212.5,79c0,0,2.5,4.8,10.1,7c7.6,2.2,0.9-13.4-8.3-13.9c-9.1-0.7-12.7,1.4-12.8,5.2
			c-0.1,3.7-0.3,6.9-0.3,6.9v2c0,0,2.3-2.5,2.6-3.1c0,0,0.2,1.3-1.3,2.4c-0.7,0.5,8.1-1.3,10.3-6.4"/>
		<path class="st3" d="M228.9,109c-0.1-0.5-0.5-1-1-1.1l-5.2-1.8h-1.2c-1.1,2.5-3.9,5.2-5.4,6c0.3,0.8,0.5,1.5,0.7,2.6
			c0.3,1.3,0.6,3.1,0.8,4.9l12.5-2.6L228.9,109z"/>
		<path class="st3" d="M199.4,107.9c-0.5,0.2-0.9,0.6-1,1.1l-1.3,8l12.5,2.6c0.2-1.8,0.5-3.5,0.8-4.9c0.1-0.4,0.2-0.7,0.2-1
			c0.2-0.7,0.3-1.2,0.5-1.6c-1.4-0.8-4.3-3.5-5.4-6h-1.2L199.4,107.9z"/>
	</g>
	<g>
		<path class="st24" d="M234.2,108v2.5l-5,1.8c0,0,4.3,5.5,9.8,5.5c5.5,0,9.4-5.6,9.4-5.6l-3.8-1.8v-2.8h-10.5L234.2,108L234.2,108z
			"/>
		<path class="st3" d="M244.8,110.4l12.5,5.2c0.7,0.2,1.1,0.8,1.1,1.3l1.6,10.4l-18.6,3.8c-1.8,0.4-3.7,0.4-5.5,0l-18.5-3.8
			l1.6-10.4c0.1-0.7,0.6-1.2,1.1-1.3l13.9-5.2c0,0-4.1,0.8,1.5,5.1c1.8,1.3,7.6,1.2,9.2-0.6C248.3,111.3,244.8,110.4,244.8,110.4z"
			/>
		<path class="st26" d="M234.3,108.2v1.6c0,0,2,2.5,5.2,2.5c3.1,0,5.2-2.8,5.2-2.8v-1.6h-10.3L234.3,108.2z"/>
		<path class="st24" d="M239.6,82.2c-9.8-0.2-11.6-1.9-11.4,15c0.1,8.5,5.8,13.9,11.4,13.9s11.4-5.5,11.4-13.9
			C251.2,80.2,249.4,82.1,239.6,82.2z"/>
		<path class="st27" d="M239.7,86c1.8,0,4.6-1.3,7.8-1.2c3.2,0.1,3.4,12.8,3.4,12.8s5.7-19.7-2.7-19.7c0,0-2.6-3.2-8.7-3.2
			c-15.2,0-14.3,14.9-11.3,23c0,0,0.2-12.7,3.4-12.8C235,84.8,237.9,86,239.7,86"/>
		<path class="st10" d="M240.5,116.5c1.3-0.5,5.6-2.7,5.2-6.1c1.3,1.4,2.4,6-1.4,9.2C243.1,118.1,241.4,116.9,240.5,116.5z"/>
		<path class="st10" d="M238.5,116.5c-1.3-0.5-5.6-2.7-5.2-6.1c-1.3,1.4-2.4,6,1.4,9.2C235.8,118.1,237.4,116.9,238.5,116.5z"/>
		<g>
			<path class="st0" d="M240.8,94.6c-0.2-0.2-0.5-0.2-1.1-0.2v-0.6c0.6,0,1.3,0,1.7,0.5L240.8,94.6z"/>
			<g>
				<path class="st0" d="M249.2,97.4h-6.5c-1.3,0-1.6-1.5-2-2.6c-0.2-0.4,0-0.8,0.3-1.1c0.4-0.4,1.1-0.7,1.6-0.7h6.5
					c0.6,0,1.1,0.1,1.3,0.4c0.4,0.3,0.6,0.8,0.5,1.3C250.9,96.4,250.3,97.4,249.2,97.4z M242.7,93.6c-0.5,0-0.9,0.2-1.1,0.4
					c-0.2,0.2-0.3,0.5-0.2,0.6c0.7,1.4,1,2.2,1.3,2.2h6.5c0.7,0,1.1-1.1,1.1-2c0-0.4-0.1-0.8-0.3-1c-0.2-0.2-0.5-0.2-0.9-0.2
					C249.2,93.6,242.7,93.6,242.7,93.6z"/>
				<path class="st0" d="M236.4,97.4h-6.5c-1.1,0-1.6-1-1.7-2.6c0-0.6,0.1-1.1,0.5-1.3c0.3-0.3,0.9-0.4,1.3-0.4h6.5
					c0.7,0,1.3,0.2,1.6,0.7c0.4,0.4,0.5,0.8,0.3,1.1C238.1,95.7,237.7,97.4,236.4,97.4z M230,93.6c-0.4,0-0.7,0.1-0.9,0.2
					c-0.2,0.2-0.3,0.5-0.3,1c0.1,1.1,0.4,2,1.1,2h6.5c0.5,0,0.8-0.7,1.3-2.2c0.1-0.2,0-0.4-0.2-0.6c-0.3-0.3-0.7-0.4-1.1-0.4
					C236.6,93.6,230,93.6,230,93.6z"/>
				<path class="st0" d="M238.4,94.6l-0.6-0.3c0.4-0.5,1.1-0.5,1.7-0.5v0.6C238.9,94.4,238.6,94.4,238.4,94.6z"/>
			</g>
		</g>
	</g>
</g>
<g>
	<g>
		<polygon class="st29" points="166.9,257.7 157.5,257.7 150.2,272.4 155.2,272.4 166.9,263 		"/>
		<rect x="150.2" y="246.5" class="st12" width="16.5" height="16.5"/>
		<polygon class="st29" points="177.2,267.1 167.7,267.1 160.5,281.8 165.5,281.8 177.2,272.3 		"/>
		<rect x="160.5" y="255.8" class="st12" width="16.5" height="16.5"/>
	</g>
	<g>
		<g>
			<circle class="st12" cx="111.4" cy="263.1" r="19.7"/>
		</g>
		<g>
			<g>
				<g>
					<path class="st14" d="M111.4,275.7c-0.6,0-1.1-0.5-1.1-1.1V272c0-0.6,0.5-1.1,1.1-1.1c0.6,0,1.1,0.5,1.1,1.1v2.6
						C112.3,275.3,112,275.7,111.4,275.7z"/>
				</g>
			</g>
			<g>
				<path class="st14" d="M111.4,268.6L111.4,268.6c-3.1,0-5.3-2.4-5.3-5.2v-7.7c0-3,2.4-5.2,5.2-5.2c3.1,0,5.3,2.4,5.3,5.2v7.7
					C116.7,266.3,114.4,268.6,111.4,268.6z M111.4,252.1c-2,0-3.6,1.5-3.6,3.5v7.7c0,1.9,1.5,3.5,3.5,3.5h0.1c1.9,0,3.5-1.5,3.5-3.5
					v-7.7C114.8,253.7,113.3,252.1,111.4,252.1z"/>
			</g>
			<g>
				<g>
					<path class="st14" d="M111.4,272.8L111.4,272.8c-2.6,0-4.9-1-6.6-2.7c-1.7-1.7-2.7-4-2.7-6.5c0-0.6,0.5-1.1,1.1-1.1
						c0.6,0,1.1,0.5,1.1,1.1c0,1.9,0.8,3.8,2.1,5.2c1.3,1.3,3.2,2.1,5.2,2.1l0,0c1.9,0,3.8-0.8,5.2-2.1c1.3-1.3,2.1-3.2,2.1-5.2
						c0-0.6,0.5-1.1,1.1-1.1s1.1,0.5,1.1,1.1c0,2.5-1,4.8-2.7,6.5C116.2,271.8,113.9,272.8,111.4,272.8z"/>
				</g>
			</g>
		</g>
	</g>
	<g>
		<path class="st10" d="M197.4,264.1h-1.2v-10.3c0-3.1,0.7-6.7,6-6.7v1.2c-4,0-4.9,2.2-4.9,5.6L197.4,264.1L197.4,264.1z"/>
		<g>
			<path class="st10" d="M207.5,264.1h-1.2v-10.3c0-4.9-1.9-5.6-4-5.6v-1.2c2.2,0,5.2,0.8,5.2,6.7V264.1L207.5,264.1z"/>
		</g>
		<g>
			<path class="st10" d="M203,281.2c-3.7,0-6.7-3.1-6.7-6.7v-10.3h1.2v10.2c0,3.1,2.5,5.6,5.6,5.6c3.1,0,5.6-2.5,5.6-5.6v-21.6h1.2
				v21.6C209.8,278.1,206.7,281.2,203,281.2z"/>
		</g>
		<g>
			<path class="st10" d="M203,275.1c-2.5,0-4.4-2-4.4-4.4v-13.5h1.2v13.5c0,1.8,1.4,3.3,3.3,3.3c1.8,0,3.3-1.4,3.3-3.3v-9.3h1.2v9.3
				C207.5,273.1,205.5,275.1,203,275.1z"/>
		</g>
	</g>
	<g>
		<path class="st12" d="M62.8,246.5h-25c-2.2,0-3.9,1.7-3.9,3.9v17.3c0,2.2,1.7,3.9,3.9,3.9h1v7.5l7.5-7.5h16.5
			c2.2,0,3.9-1.7,3.9-3.9v-17.3C66.8,248.2,64.9,246.5,62.8,246.5z"/>
		<path class="st30" d="M69.6,258.9h-1.4v10.2c0,2.2-1.7,3.9-3.9,3.9H49.3v0.8c0,1.5,1.3,2.8,2.8,2.8h11.5l5.3,5.3v-5.3h0.7
			c1.5,0,2.8-1.3,2.8-2.8v-12.1C72.4,260.1,71.2,258.9,69.6,258.9z"/>
	</g>
</g>
<g>
	<path class="st24" d="M298.3,108.2v2.4l-4.9,1.8c0,0,4.2,5.4,9.6,5.4s9.3-5.5,9.3-5.5l-3.8-1.7v-2.7h-10.3V108.2z"/>
	<path class="st3" d="M308.6,110.6l12.3,5.1c0.6,0.2,1.1,0.8,1.1,1.3l1.5,10.2l-18.2,3.7c-1.7,0.4-3.6,0.4-5.3,0l-18.2-3.7l1.5-10.2
		c0.1-0.7,0.6-1.1,1.1-1.3l13.7-5c0,0-4,0.8,1.5,5c1.8,1.3,7.5,1.2,9-0.6C312,111.5,308.6,110.6,308.6,110.6z"/>
	<path class="st26" d="M298.4,108.5v1.6c0,0,2,2.5,5.2,2.5c3.2,0,5.2-2.8,5.2-2.8v-1.6h-10.1L298.4,108.5z"/>
	<path class="st24" d="M303.5,83c-9.6-0.2-11.4-1.9-11.3,14.7c0.1,8.3,5.7,13.7,11.3,13.7c5.5,0,11.2-5.4,11.3-13.7
		C315,81.1,313.3,82.8,303.5,83z"/>
	<path class="st27" d="M303.7,86.8c1.7,0,4.5-1.3,7.7-1.2s3.3,12.5,3.3,12.5s5.6-19.4-2.6-19.4c0,0-2.5-3.1-8.5-3.1
		c-14.9,0-14,14.6-11.1,22.5c0,0,0.2-12.4,3.3-12.5C299,85.4,301.8,86.8,303.7,86.8"/>
	<path class="st14" d="M304.3,116.5c1.3-0.5,5.5-2.7,5.1-6c1.3,1.4,2.3,5.9-1.3,9C306.9,118.2,305.4,117,304.3,116.5z"/>
	<path class="st14" d="M302.5,116.5c-1.3-0.5-5.5-2.7-5.1-6c-1.3,1.4-2.3,5.9,1.3,9C299.9,118.2,301.4,117,302.5,116.5z"/>
	<g>
		<path class="st0" d="M304.6,95.1c-0.2-0.2-0.5-0.2-1.1-0.2v-0.6c0.6,0,1.3,0,1.6,0.5L304.6,95.1z"/>
		<g>
			<path class="st0" d="M313.1,97.8h-6.4c-1.2,0-1.6-1.5-2-2.5c-0.2-0.4,0-0.8,0.3-1.1c0.4-0.4,1.1-0.7,1.6-0.7h6.4
				c0.6,0,1.1,0.1,1.3,0.4c0.4,0.3,0.6,0.8,0.5,1.3C314.7,96.9,314,97.8,313.1,97.8z M306.5,94.1c-0.5,0-0.9,0.2-1.1,0.4
				c-0.2,0.2-0.3,0.5-0.2,0.6c0.7,1.4,1,2.1,1.3,2.1h6.4c0.7,0,1.1-1.1,1.1-2c0-0.4-0.1-0.8-0.3-0.9c-0.2-0.2-0.5-0.2-0.9-0.2
				C313.1,94.1,306.5,94.1,306.5,94.1z"/>
			<path class="st0" d="M300.5,97.8H294c-1.1,0-1.6-1-1.7-2.5c0-0.6,0.1-1.1,0.5-1.3c0.3-0.3,0.8-0.4,1.3-0.4h6.4
				c0.7,0,1.2,0.2,1.6,0.7c0.4,0.4,0.5,0.8,0.3,1.1C302,96.2,301.6,97.8,300.5,97.8z M294.1,94.1c-0.4,0-0.7,0.1-0.9,0.2
				c-0.2,0.2-0.3,0.5-0.3,0.9c0.1,1.1,0.4,2,1.1,2h6.4c0.5,0,0.8-0.7,1.3-2.1c0.1-0.2,0-0.4-0.2-0.6c-0.3-0.3-0.7-0.4-1.1-0.4
				C300.7,94.1,294.1,94.1,294.1,94.1z"/>
			<path class="st0" d="M302.4,95.1l-0.6-0.3c0.4-0.5,1.1-0.5,1.6-0.5V95C302.9,95,302.6,95,302.4,95.1z"/>
		</g>
	</g>
</g>
<polygon class="st31" points="332.1,120.8 325.3,120.8 325.3,114 321.8,114 321.8,120.8 314.9,120.8 314.9,124.3 321.8,124.3 
	321.8,131.1 325.3,131.1 325.3,124.3 332.1,124.3 "/>
<g>
	<path class="st3" d="M362.1,113.1l-6.6,2.4c-0.7,0.2-1.1,0.8-1.1,1.3l-1.5,10.3l18.4,3.8c1.8,0.4,3.7,0.4,5.4,0l18.4-3.8l-1.5-10.3
		c-0.1-0.7-0.6-1.2-1.1-1.3l-6.6-2.4"/>
	<path class="st24" d="M369.4,108v2.5l-5,1.8c0,0,4.3,5.5,9.7,5.5c5.4,0,9.3-5.5,9.3-5.5l-3.8-1.8v-2.8h-10.3V108L369.4,108z"/>
	<path class="st26" d="M369.4,108.2v1.6c0,0,2,2.5,5.2,2.5s5.2-2.8,5.2-2.8v-1.6h-10.2L369.4,108.2z"/>
	<path class="st24" d="M374.7,82.4c-9.8-0.2-11.5-1.9-11.4,14.9c0.1,8.4,5.7,13.9,11.4,13.9c5.6,0,11.4-5.4,11.4-13.9
		C386.3,80.4,384.6,82.2,374.7,82.4z"/>
	<path class="st27" d="M374.8,86.2c1.8,0,4.6-1.3,7.8-1.2c3.2,0.1,3.4,12.7,3.4,12.7s4.1-8.4,2.8-15.6c0,0-1.3-3.8-5.4-4
		c0,0-2.6-3.2-8.6-3.2c-6,0-8.4,5.2-15.8,2.6c0,0-0.8,2.6,2.7,5c0,0-1.1,7.3,2,15.4c0,0,0.2-12.6,3.4-12.7
		C370.3,84.9,373.1,86.2,374.8,86.2"/>
	<path class="st14" d="M361.8,112.6l2.3-1c0,0,4.3,5.9,9.8,5.9s9.5-5.9,9.5-5.9l2.5,1.1c0,0-4.5,7.4-12.1,7.4
		C366.2,120.2,361.8,112.6,361.8,112.6z"/>
	<polygon class="st31" points="403.6,120.2 396.7,120.2 396.7,113.2 393.2,113.2 393.2,120.2 386.3,120.2 386.3,123.6 393.2,123.6 
		393.2,130.5 396.7,130.5 396.7,123.6 403.6,123.6 	"/>
</g>
<g>
	<polygon class="st6" points="110,326.6 105.5,322.1 89.6,338.1 82.4,330.9 78,335.4 89.6,347 94.1,342.4 94.1,342.4 	"/>
	<polygon class="st6" points="58.4,332 48.4,332 48.4,322 42.8,322 42.8,332 32.9,332 32.9,337.5 42.8,337.5 42.8,347.5 48.4,347.5 
		48.4,337.5 58.4,337.5 	"/>
	<g>
		<path class="st32" d="M172.6,344.7c0,0.5,0,1-0.1,1.3c-0.1,0.4-0.2,0.7-0.5,0.9c-0.2,0.2-0.5,0.4-0.9,0.5s-0.8,0.2-1.3,0.2
			c-0.5,0-1-0.1-1.3-0.2c-0.4-0.1-0.7-0.3-0.9-0.5c-0.2-0.2-0.4-0.5-0.5-0.9c-0.1-0.4-0.1-0.8-0.1-1.3c0-0.6,0-1,0.1-1.3
			c0.1-0.4,0.2-0.7,0.5-0.9c0.2-0.2,0.5-0.4,0.9-0.5c0.4-0.1,0.8-0.2,1.3-0.2c0.5,0,1,0.1,1.3,0.2c0.4,0.1,0.7,0.3,0.9,0.5
			c0.2,0.2,0.4,0.5,0.5,0.9C172.6,343.8,172.6,344.3,172.6,344.7z M172.1,339.3c0,0.1-0.1,0.3-0.1,0.4c-0.1,0.1-0.2,0.2-0.4,0.3
			c-0.2,0.1-0.4,0.1-0.7,0.2c-0.3,0-0.6,0.1-1.1,0.1c-0.4,0-0.8,0-1.1-0.1c-0.3,0-0.5-0.1-0.7-0.2c-0.2-0.1-0.3-0.2-0.4-0.3
			c-0.1-0.1-0.1-0.2-0.1-0.4l-0.5-16.7c0-0.2,0-0.3,0.1-0.5c0.1-0.1,0.2-0.2,0.4-0.3c0.2-0.1,0.5-0.2,0.8-0.2c0.4,0,0.8-0.1,1.2-0.1
			s1,0,1.2,0.1c0.3,0,0.6,0.1,0.8,0.2c0.2,0.1,0.4,0.2,0.4,0.3s0.1,0.3,0.1,0.5L172.1,339.3z"/>
	</g>
	<g>
		<g>
			<rect x="140.1" y="322.2" class="st33" width="5.8" height="24.8"/>
		</g>
		<g>
			<rect x="131.4" y="330.7" class="st33" width="5.8" height="16.3"/>
		</g>
		<g>
			<rect x="122.7" y="339.9" class="st33" width="5.8" height="7.1"/>
		</g>
	</g>
</g>
<g>
	<rect x="441.7" y="30.8" class="st34" width="0.5" height="438.7"/>
</g>
<g>
	<g>
		<rect x="654" y="118.7" class="st34" width="0.4" height="36.5"/>
	</g>
	<g>
		<rect x="611.7" y="80.5" class="st35" width="8.4" height="0.4"/>
	</g>
	<g>
		<rect x="696.2" y="80.5" class="st35" width="8.4" height="0.4"/>
	</g>
	<g>
		<rect x="532" y="110.5" class="st34" width="0.4" height="8.3"/>
	</g>
	<g>
		<rect x="783.7" y="110.5" class="st34" width="0.4" height="8.3"/>
	</g>
	<g>
		<rect x="532.2" y="118.6" class="st34" width="251.7" height="0.4"/>
	</g>
	<g>
		<path class="st36" d="M723.3,238.4H577.7v-21.7c0-2.4,1.9-4.2,4.2-4.2h141.4c2.4,0,4.2,1.9,4.2,4.2V234
			C727.6,236.4,725.7,238.4,723.3,238.4z"/>
	</g>
	<g>
		<path class="st37" d="M723.3,235H577.7v-21.7c0-2.4,1.9-4.2,4.2-4.2h141.4c2.4,0,4.2,1.9,4.2,4.2v17.5
			C727.6,233.2,725.7,235,723.3,235z"/>
	</g>
	<g>
		<path class="st36" d="M723.3,191.9H577.7v-21.7c0-2.4,1.9-4.2,4.2-4.2h141.4c2.4,0,4.2,1.9,4.2,4.2v17.5
			C727.6,190,725.7,191.9,723.3,191.9z"/>
	</g>
	<g>
		<g>
			<path class="st14" d="M723.3,188.6H577.7v-21.8c0-2.4,1.9-4.2,4.2-4.2h141.4c2.4,0,4.2,1.9,4.2,4.2v17.5
				C727.6,186.7,725.7,188.6,723.3,188.6z"/>
		</g>
		<g>
			<path class="st36" d="M723.3,189.1H577.2v-22.2c0-2.6,2-4.7,4.7-4.7h141.4c2.6,0,4.7,2,4.7,4.7v17.5c0,1.2-0.4,2.5-1.3,3.3
				C725.8,188.6,724.5,189.1,723.3,189.1z M578.1,188.2h145.3c1,0,1.9-0.4,2.6-1.1c0.7-0.7,1.1-1.7,1.1-2.7v-17.5
				c0-2.1-1.7-3.8-3.8-3.8H581.9c-2.1,0-3.8,1.7-3.8,3.8V188.2z"/>
		</g>
	</g>
	<g>
		<path class="st14" d="M774.2,60.8h-62.9c-2,0-3.7,1.6-3.7,3.7v29.6c0,0.1,0,0.1,0,0.2l0,0v6.5l8.9-3h57.8c2,0,3.7-1.6,3.7-3.7
			V64.4C777.9,62.4,776.2,60.8,774.2,60.8z"/>
		<path class="st35" d="M707.1,101.4V64.5c0-2.3,1.9-4.1,4.1-4.1h62.9c2.3,0,4.1,1.8,4.2,4.1v29.6c0,2.3-1.9,4.1-4.1,4.1h-57.7
			L707.1,101.4z M711.2,61.3c-1.9,0-3.3,1.4-3.3,3.3v35.7l8.5-2.8h57.8c1.9,0,3.3-1.4,3.3-3.3V64.4c-0.1-1.8-1.5-3.2-3.3-3.2H711.2z
			"/>
	</g>
	<g>
		<path class="st14" d="M689.6,60.8h-63c-2,0-3.7,1.6-3.7,3.7v29.6c0,0.1,0,0.1,0,0.2l0,0v12.4l8.9-8.9h57.8c2,0,3.7-1.6,3.7-3.7
			V64.4C693.3,62.4,691.7,60.8,689.6,60.8z"/>
		<path class="st35" d="M622.5,107.7V64.5c0-2.3,1.9-4.1,4.1-4.1h62.9c2.3,0,4.1,1.8,4.2,4.1v29.6c0,2.3-1.9,4.1-4.1,4.1h-57.6
			L622.5,107.7z M626.6,61.3c-1.9,0-3.3,1.4-3.3,3.3v41.1l8.3-8.3h58c1.9,0,3.3-1.4,3.3-3.3V64.4c-0.1-1.8-1.5-3.2-3.3-3.2H626.6z"
			/>
	</g>
	<g>
		<g>
			<g>
				<path class="st31" d="M641.1,179.5c0,0.1,0,0.3,0,0.4s0,0.2-0.1,0.3c0,0.1-0.1,0.1-0.1,0.2c0,0.1-0.1,0.1-0.1,0.1
					c-0.1,0.1-0.2,0.1-0.4,0.2c-0.1,0.1-0.4,0.2-0.5,0.3c-0.2,0.1-0.5,0.1-0.8,0.2c-0.4,0.1-0.6,0.1-1,0.1c-0.6,0-1.2-0.1-1.8-0.4
					c-0.5-0.2-1-0.5-1.3-0.9c-0.4-0.4-0.6-0.9-0.9-1.5c-0.3-0.6-0.4-1.3-0.4-2.1s0.1-1.6,0.4-2.2c0.2-0.6,0.5-1.2,1-1.6
					c0.4-0.4,0.9-0.8,1.4-1c0.5-0.3,1.1-0.4,1.9-0.4c0.3,0,0.5,0,0.8,0.1s0.5,0.1,0.7,0.2c0.2,0.1,0.4,0.1,0.5,0.3
					c0.2,0.1,0.4,0.2,0.4,0.3c0.1,0.1,0.1,0.1,0.1,0.2c0,0.1,0.1,0.1,0.1,0.2c0,0.1,0,0.1,0.1,0.3c0,0.1,0,0.2,0,0.4
					c0,0.1,0,0.3,0,0.4c0,0.1,0,0.2-0.1,0.3c0,0.1-0.1,0.1-0.1,0.1c-0.1,0-0.1,0.1-0.1,0.1s-0.2-0.1-0.3-0.1
					c-0.1-0.1-0.3-0.2-0.4-0.4c-0.2-0.2-0.4-0.2-0.6-0.4c-0.3-0.1-0.5-0.1-0.9-0.1c-0.4,0-0.7,0.1-1,0.3c-0.4,0.1-0.5,0.4-0.8,0.7
					c-0.3,0.4-0.4,0.6-0.5,1.1c-0.2,0.4-0.2,0.9-0.2,1.4s0.1,1.1,0.2,1.4c0.1,0.4,0.3,0.8,0.5,1c0.2,0.3,0.5,0.4,0.8,0.6
					c0.4,0.1,0.6,0.2,1,0.2c0.4,0,0.6-0.1,0.9-0.1c0.3-0.1,0.4-0.2,0.6-0.3c0.2-0.1,0.4-0.2,0.4-0.3c0.1-0.1,0.2-0.1,0.3-0.1
					c0.1,0,0.1,0,0.1,0l0.1,0.1c0,0,0.1,0.1,0.1,0.3C641.1,179.2,641.1,179.4,641.1,179.5z"/>
			</g>
			<g>
				<path class="st31" d="M644.3,180.7C644.3,180.8,644.3,180.8,644.3,180.7c-0.2,0.2-0.2,0.2-0.2,0.2c-0.1,0-0.2,0.1-0.4,0.1
					c-0.1,0-0.3,0-0.4,0s-0.4,0-0.4,0s-0.2,0-0.4-0.1c-0.1,0-0.1-0.1-0.1-0.1c0-0.1-0.1-0.1-0.1-0.1V171c0-0.1,0-0.1,0.1-0.1
					c0-0.1,0.1-0.1,0.1-0.1c0.1,0,0.2-0.1,0.4-0.1c0.1,0,0.3,0,0.4,0s0.4,0,0.4,0s0.2,0.1,0.4,0.1c0.1,0,0.1,0.1,0.1,0.1
					c0,0.1,0.1,0.1,0.1,0.1V180.7z"/>
			</g>
			<g>
				<path class="st31" d="M648.1,171.9c0,0.4-0.1,0.6-0.3,0.8c-0.1,0.1-0.4,0.2-0.9,0.2s-0.7-0.1-0.9-0.2c-0.1-0.1-0.2-0.4-0.2-0.8
					s0.1-0.6,0.3-0.8c0.1-0.1,0.4-0.2,0.9-0.2s0.7,0.1,0.8,0.2C648.1,171.3,648.1,171.5,648.1,171.9z M648,180.7
					C648,180.8,648,180.8,648,180.7c-0.2,0.2-0.2,0.2-0.2,0.2c-0.1,0-0.2,0.1-0.4,0.1c-0.1,0-0.3,0-0.4,0c-0.2,0-0.4,0-0.4,0
					c-0.1,0-0.2,0-0.4-0.1c-0.1,0-0.1-0.1-0.1-0.1c0-0.1-0.1-0.1-0.1-0.1v-6.6c0-0.1,0-0.1,0.1-0.1c0-0.1,0.1-0.1,0.1-0.1
					c0.1,0,0.2-0.1,0.4-0.1c0.1,0,0.3,0,0.4,0c0.2,0,0.4,0,0.4,0c0.1,0,0.2,0.1,0.4,0.1c0.1,0,0.1,0.1,0.1,0.1
					c0,0.1,0.1,0.1,0.1,0.1V180.7z"/>
			</g>
			<g>
				<path class="st31" d="M654.9,179.7c0,0.1,0,0.3,0,0.4c0,0.1,0,0.2,0,0.2c0,0.1,0,0.1-0.1,0.1c0,0.1-0.1,0.1-0.1,0.1
					c-0.1,0.1-0.2,0.1-0.4,0.2c-0.1,0.1-0.4,0.1-0.5,0.2s-0.4,0.1-0.6,0.1c-0.2,0.1-0.4,0.1-0.7,0.1c-0.5,0-1-0.1-1.4-0.3
					c-0.4-0.2-0.8-0.4-1-0.7c-0.2-0.4-0.4-0.7-0.6-1.1c-0.1-0.4-0.2-1-0.2-1.5c0-0.7,0.1-1.2,0.3-1.7c0.2-0.4,0.4-0.9,0.7-1.2
					c0.4-0.4,0.6-0.5,1.1-0.7c0.4-0.1,0.9-0.3,1.3-0.3c0.2,0,0.4,0,0.5,0.1c0.2,0.1,0.4,0.1,0.5,0.1c0.2,0.1,0.4,0.1,0.4,0.2
					s0.3,0.1,0.3,0.2c0.1,0.1,0.1,0.1,0.1,0.1c0,0.1,0.1,0.1,0.1,0.1c0,0.1,0,0.1,0,0.2c0,0.1,0,0.2,0,0.4c0,0.4,0,0.5-0.1,0.6
					c-0.1,0.1-0.1,0.2-0.2,0.2c-0.1,0-0.2-0.1-0.3-0.1c-0.1,0-0.2-0.1-0.4-0.3c-0.1-0.1-0.3-0.2-0.4-0.3c-0.2-0.1-0.4-0.1-0.6-0.1
					c-0.5,0-0.9,0.2-1.1,0.5c-0.3,0.4-0.4,1-0.4,1.6c0,0.4,0.1,0.7,0.1,1c0.1,0.3,0.2,0.5,0.4,0.7c0.1,0.2,0.4,0.4,0.5,0.4
					c0.2,0.1,0.4,0.1,0.7,0.1c0.3,0,0.5-0.1,0.7-0.1c0.2-0.1,0.4-0.2,0.5-0.3c0.1-0.1,0.3-0.2,0.4-0.3c0.1-0.1,0.2-0.1,0.3-0.1
					s0.1,0,0.1,0.1l0.1,0.1c0,0.1,0,0.1,0.1,0.3C654.8,179.4,654.9,179.5,654.9,179.7z"/>
			</g>
			<g>
				<path class="st31" d="M661.8,180.7c0,0.1,0,0.1-0.1,0.2c-0.1,0.1-0.1,0.1-0.3,0.1c-0.2,0-0.3,0-0.4,0c-0.3,0-0.4,0-0.5,0
					c-0.1,0-0.2-0.1-0.2-0.1c-0.1-0.1-0.1-0.1-0.1-0.2v-0.4c-0.3,0.4-0.5,0.5-1,0.7c-0.4,0.2-0.8,0.3-1.1,0.3c-0.4,0-0.7-0.1-1-0.1
					c-0.4-0.1-0.5-0.3-0.8-0.4c-0.2-0.2-0.4-0.4-0.5-0.7c-0.1-0.3-0.2-0.5-0.2-1c0-0.4,0.1-0.7,0.3-1c0.1-0.4,0.4-0.5,0.7-0.7
					c0.4-0.2,0.7-0.4,1.1-0.4s1-0.1,1.6-0.1h0.6v-0.4c0-0.2,0-0.4-0.1-0.5c-0.1-0.1-0.1-0.4-0.2-0.4c-0.1-0.1-0.3-0.2-0.4-0.3
					c-0.1-0.1-0.4-0.1-0.6-0.1c-0.4,0-0.5,0.1-0.8,0.1c-0.3,0.1-0.4,0.1-0.6,0.3s-0.4,0.2-0.4,0.3c-0.1,0.1-0.3,0.1-0.4,0.1
					c-0.1,0-0.1,0-0.1-0.1c-0.1-0.1-0.1-0.1-0.1-0.1c0-0.1-0.1-0.1-0.1-0.3c0-0.1,0-0.2,0-0.4c0-0.1,0-0.3,0.1-0.4
					c0-0.1,0.1-0.2,0.1-0.3c0.1-0.1,0.2-0.1,0.4-0.3c0.2-0.1,0.4-0.2,0.6-0.3c0.3-0.1,0.5-0.1,0.8-0.2c0.3-0.1,0.5-0.1,0.9-0.1
					c0.5,0,1,0.1,1.3,0.1c0.4,0.1,0.7,0.3,0.9,0.4c0.2,0.2,0.4,0.5,0.5,0.8c0.1,0.4,0.2,0.8,0.2,1.2v4.4L661.8,180.7L661.8,180.7z
					 M659.9,177.9h-0.7c-0.4,0-0.5,0-0.8,0.1c-0.2,0.1-0.4,0.1-0.5,0.2c-0.1,0.1-0.3,0.2-0.4,0.4c-0.1,0.1-0.1,0.3-0.1,0.4
					c0,0.3,0.1,0.5,0.3,0.6s0.4,0.3,0.8,0.3c0.3,0,0.5-0.1,0.8-0.2c0.2-0.1,0.4-0.4,0.7-0.5L659.9,177.9L659.9,177.9L659.9,177.9z"
					/>
			</g>
			<g>
				<path class="st31" d="M667.9,174.7c0,0.2,0,0.4,0,0.4s0,0.2-0.1,0.3c0,0.1-0.1,0.1-0.1,0.1c-0.1,0-0.1,0.1-0.1,0.1
					c-0.1,0-0.1,0-0.1,0c-0.1,0-0.1-0.1-0.2-0.1c-0.1,0-0.1-0.1-0.2-0.1c-0.1,0-0.1,0-0.3,0c-0.1,0-0.2,0-0.4,0.1
					c-0.2,0.1-0.2,0.1-0.4,0.2c-0.1,0.1-0.3,0.2-0.4,0.4c-0.1,0.1-0.3,0.4-0.4,0.5v4.1c0,0.1,0,0.1-0.1,0.1
					c-0.1,0.1-0.1,0.1-0.1,0.1s-0.2,0.1-0.4,0.1c-0.2,0-0.3,0-0.4,0c-0.2,0-0.4,0-0.4,0c-0.1,0-0.2,0-0.4-0.1
					c-0.1,0-0.1-0.1-0.1-0.1c0-0.1-0.1-0.1-0.1-0.1v-6.6c0-0.1,0-0.1,0.1-0.1c0.1-0.1,0.1-0.1,0.1-0.1s0.1-0.1,0.3-0.1
					c0.1,0,0.3,0,0.4,0c0.2,0,0.4,0,0.4,0c0.1,0,0.2,0,0.3,0.1c0.1,0,0.1,0.1,0.1,0.1c0,0.1,0.1,0.1,0.1,0.1v0.8
					c0.2-0.3,0.4-0.4,0.5-0.6c0.1-0.2,0.4-0.4,0.4-0.4c0.1-0.1,0.3-0.2,0.4-0.2c0.1-0.1,0.3-0.1,0.4-0.1c0.1,0,0.1,0,0.2,0
					c0.1,0,0.1,0,0.3,0.1c0.1,0,0.1,0.1,0.2,0.1c0.1,0,0.1,0.1,0.1,0.1l0.1,0.1c0,0,0,0.1,0.1,0.1c0,0.1,0,0.1,0,0.3
					C667.9,174.5,667.9,174.5,667.9,174.7z"/>
			</g>
		</g>
	</g>
	<g>
		<g>
			<g>
				<path class="st14" d="M637.3,225.1c0,0.1,0,0.3,0,0.4c0,0.1,0,0.2-0.1,0.3c0,0.1-0.1,0.1-0.1,0.2c0,0.1-0.1,0.1-0.1,0.1
					c-0.1,0.1-0.2,0.1-0.4,0.2c-0.1,0.1-0.4,0.2-0.5,0.3c-0.2,0.1-0.5,0.1-0.8,0.2c-0.4,0.1-0.6,0.1-1,0.1c-0.6,0-1.2-0.1-1.8-0.4
					c-0.5-0.2-1-0.5-1.3-0.9c-0.4-0.4-0.6-0.9-0.9-1.5c-0.3-0.6-0.4-1.3-0.4-2.1s0.1-1.6,0.4-2.2c0.3-0.6,0.5-1.2,1-1.6
					c0.4-0.4,0.9-0.8,1.4-1c0.5-0.3,1.1-0.4,1.9-0.4c0.3,0,0.5,0,0.8,0.1s0.5,0.1,0.7,0.2c0.2,0.1,0.4,0.1,0.5,0.3
					c0.2,0.1,0.4,0.2,0.4,0.3c0.1,0.1,0.1,0.1,0.1,0.2c0,0.1,0.1,0.1,0.1,0.2c0,0.1,0,0.1,0.1,0.3c0,0.1,0,0.2,0,0.4
					c0,0.1,0,0.3,0,0.4c0,0.1,0,0.2-0.1,0.3c0,0.1-0.1,0.1-0.1,0.1c-0.1,0-0.1,0.1-0.1,0.1s-0.2-0.1-0.3-0.1
					c-0.1-0.1-0.3-0.2-0.4-0.4c-0.2-0.2-0.4-0.2-0.6-0.4c-0.3-0.1-0.5-0.1-0.9-0.1c-0.4,0-0.7,0.1-1,0.3c-0.4,0.1-0.5,0.4-0.8,0.7
					c-0.2,0.4-0.4,0.6-0.5,1.1c-0.1,0.4-0.2,0.9-0.2,1.4s0.1,1.1,0.2,1.4c0.1,0.4,0.3,0.8,0.5,1c0.2,0.3,0.5,0.4,0.8,0.6
					c0.4,0.1,0.6,0.2,1,0.2s0.6-0.1,0.9-0.1c0.3-0.1,0.4-0.2,0.6-0.3s0.4-0.2,0.4-0.3c0.1-0.1,0.2-0.1,0.3-0.1c0.1,0,0.1,0,0.1,0
					l0.1,0.1c0,0.1,0.1,0.1,0.1,0.3C637.3,224.9,637.3,225,637.3,225.1z"/>
			</g>
			<g>
				<path class="st14" d="M640.4,226.4C640.4,226.5,640.4,226.5,640.4,226.4c-0.2,0.2-0.2,0.2-0.2,0.2s-0.2,0.1-0.4,0.1
					c-0.2,0-0.3,0-0.4,0c-0.2,0-0.4,0-0.4,0s-0.2,0-0.4-0.1c-0.1,0-0.1-0.1-0.1-0.1c0-0.1-0.1-0.1-0.1-0.1v-9.7c0-0.1,0-0.1,0.1-0.1
					c0-0.1,0.1-0.1,0.1-0.1c0.1,0,0.2-0.1,0.4-0.1c0.1,0,0.3,0,0.4,0c0.2,0,0.4,0,0.4,0s0.2,0.1,0.4,0.1c0.1,0,0.1,0.1,0.1,0.1
					l0.1,0.1V226.4z"/>
			</g>
			<g>
				<path class="st14" d="M644.3,217.6c0,0.4-0.1,0.6-0.3,0.8c-0.1,0.1-0.4,0.2-0.9,0.2s-0.7-0.1-0.9-0.2c-0.1-0.1-0.2-0.4-0.2-0.8
					c0-0.4,0.1-0.6,0.3-0.8c0.1-0.1,0.4-0.2,0.9-0.2s0.7,0.1,0.8,0.2C644.2,216.9,644.3,217.2,644.3,217.6z M644.2,226.4
					C644.2,226.5,644.2,226.5,644.2,226.4c-0.2,0.2-0.2,0.2-0.2,0.2c-0.1,0-0.2,0.1-0.4,0.1c-0.1,0-0.3,0-0.4,0c-0.2,0-0.4,0-0.4,0
					s-0.2,0-0.4-0.1c-0.1,0-0.1-0.1-0.1-0.1c0-0.1-0.1-0.1-0.1-0.1v-6.6c0-0.1,0-0.1,0.1-0.1c0-0.1,0.1-0.1,0.1-0.1
					c0.1,0,0.2-0.1,0.4-0.1c0.1,0,0.3,0,0.4,0c0.2,0,0.4,0,0.4,0s0.2,0.1,0.4,0.1c0.1,0,0.1,0.1,0.1,0.1l0.1,0.1V226.4z"/>
			</g>
			<g>
				<path class="st14" d="M651,225.4c0,0.1,0,0.3,0,0.4c0,0.1,0,0.2,0,0.2c0,0.1,0,0.1-0.1,0.1c0,0.1-0.1,0.1-0.1,0.1
					c-0.1,0.1-0.2,0.1-0.4,0.2c-0.1,0.1-0.4,0.1-0.5,0.2c-0.2,0.1-0.4,0.1-0.6,0.1c-0.2,0.1-0.4,0.1-0.7,0.1c-0.5,0-1-0.1-1.4-0.3
					c-0.4-0.2-0.8-0.4-1-0.7c-0.3-0.4-0.4-0.7-0.6-1.1c-0.1-0.4-0.2-1-0.2-1.5c0-0.7,0.1-1.2,0.3-1.7c0.2-0.4,0.4-0.9,0.7-1.2
					c0.4-0.4,0.6-0.5,1.1-0.7c0.4-0.1,0.9-0.3,1.3-0.3c0.2,0,0.4,0,0.5,0.1c0.2,0.1,0.4,0.1,0.5,0.1c0.2,0.1,0.4,0.1,0.4,0.2
					c0.1,0.1,0.3,0.1,0.3,0.2c0.1,0.1,0.1,0.1,0.1,0.1c0,0.1,0.1,0.1,0.1,0.1s0,0.1,0,0.2c0,0.1,0,0.2,0,0.4c0,0.4,0,0.5-0.1,0.6
					c-0.1,0.1-0.1,0.2-0.2,0.2s-0.2-0.1-0.3-0.1c-0.1-0.1-0.2-0.1-0.4-0.3c-0.1-0.1-0.3-0.2-0.4-0.3c-0.2-0.1-0.4-0.1-0.6-0.1
					c-0.5,0-0.9,0.2-1.1,0.5c-0.3,0.4-0.4,1-0.4,1.6c0,0.4,0.1,0.7,0.1,1c0.1,0.3,0.2,0.5,0.4,0.7c0.1,0.2,0.4,0.4,0.5,0.4
					s0.4,0.1,0.7,0.1c0.3,0,0.5-0.1,0.7-0.1c0.2-0.1,0.4-0.2,0.5-0.3c0.1-0.1,0.3-0.2,0.4-0.3c0.1-0.1,0.2-0.1,0.3-0.1
					s0.1,0,0.1,0.1l0.1,0.1c0,0.1,0,0.1,0.1,0.3C651,225,651,225.1,651,225.4z"/>
			</g>
			<g>
				<path class="st14" d="M657.9,226.5c0,0.1,0,0.1-0.1,0.2s-0.1,0.1-0.3,0.1c-0.1,0-0.3,0-0.4,0c-0.3,0-0.4,0-0.5,0
					c-0.1,0-0.2-0.1-0.2-0.1c-0.1-0.1-0.1-0.1-0.1-0.2v-0.5c-0.3,0.4-0.5,0.5-1,0.7c-0.4,0.2-0.8,0.3-1.1,0.3s-0.7-0.1-1-0.1
					c-0.4-0.1-0.5-0.3-0.8-0.4c-0.2-0.2-0.4-0.4-0.5-0.7c-0.1-0.3-0.2-0.5-0.2-1c0-0.4,0.1-0.7,0.3-1c0.1-0.4,0.4-0.5,0.7-0.7
					c0.4-0.2,0.7-0.4,1.1-0.4s1-0.1,1.6-0.1h0.6v-0.4c0-0.2,0-0.4-0.1-0.5c-0.1-0.1-0.1-0.4-0.2-0.4c-0.1-0.1-0.3-0.2-0.4-0.3
					c-0.1-0.1-0.4-0.1-0.6-0.1c-0.4,0-0.5,0.1-0.8,0.1c-0.3,0.1-0.4,0.1-0.6,0.3c-0.2,0.1-0.4,0.2-0.4,0.3c-0.1,0.1-0.3,0.1-0.4,0.1
					s-0.1,0-0.1-0.1c-0.1-0.1-0.1-0.1-0.1-0.1c0-0.1-0.1-0.1-0.1-0.3c0-0.1,0-0.2,0-0.4s0-0.3,0.1-0.4c0-0.1,0.1-0.2,0.1-0.3
					c0.1-0.1,0.2-0.1,0.4-0.3c0.2-0.1,0.4-0.2,0.6-0.3c0.3-0.1,0.5-0.1,0.8-0.2c0.3-0.1,0.5-0.1,0.9-0.1c0.5,0,1,0.1,1.3,0.1
					c0.4,0.1,0.7,0.3,0.9,0.4c0.2,0.2,0.4,0.5,0.5,0.8c0.1,0.4,0.2,0.8,0.2,1.2v4.4L657.9,226.5L657.9,226.5z M656.1,223.6h-0.7
					c-0.4,0-0.5,0-0.8,0.1c-0.2,0.1-0.4,0.1-0.5,0.2c-0.1,0.1-0.3,0.2-0.4,0.4c-0.1,0.1-0.1,0.3-0.1,0.4c0,0.3,0.1,0.5,0.3,0.6
					c0.2,0.1,0.4,0.3,0.8,0.3c0.3,0,0.5-0.1,0.8-0.2c0.2-0.1,0.4-0.4,0.7-0.5L656.1,223.6L656.1,223.6L656.1,223.6z"/>
			</g>
			<g>
				<path class="st14" d="M666,226.4C666,226.5,666,226.5,666,226.4c-0.2,0.1-0.2,0.2-0.2,0.2s-0.1,0.1-0.3,0.1c-0.1,0-0.3,0-0.4,0
					c-0.2,0-0.4,0-0.4,0c-0.1,0-0.2,0-0.3-0.1c-0.1,0-0.1-0.1-0.1-0.1c0-0.1-0.1-0.1-0.1-0.1v-0.8c-0.4,0.4-0.7,0.6-1.1,0.9
					c-0.4,0.2-0.8,0.4-1.2,0.4c-0.5,0-1-0.1-1.2-0.4c-0.4-0.2-0.6-0.4-0.9-0.8c-0.3-0.4-0.4-0.7-0.5-1.1c-0.1-0.4-0.1-0.9-0.1-1.4
					s0.1-1.1,0.2-1.6c0.1-0.4,0.4-0.9,0.5-1.2c0.3-0.4,0.5-0.5,0.9-0.8c0.4-0.2,0.8-0.3,1.2-0.3c0.4,0,0.7,0.1,1,0.3
					c0.4,0.1,0.6,0.4,0.9,0.7v-3.6c0-0.1,0-0.1,0.1-0.1c0-0.1,0.1-0.1,0.1-0.1c0.1,0,0.2-0.1,0.4-0.1c0.1,0,0.3,0,0.4,0
					c0.2,0,0.4,0,0.4,0s0.2,0.1,0.3,0.1c0.1,0,0.1,0.1,0.1,0.1l0.1,0.1v9.6h0.1V226.4z M664.2,222c-0.3-0.4-0.5-0.5-0.8-0.8
					c-0.3-0.2-0.5-0.3-0.8-0.3c-0.3,0-0.4,0.1-0.6,0.2c-0.2,0.1-0.4,0.4-0.4,0.5c-0.1,0.2-0.2,0.4-0.3,0.7s-0.1,0.5-0.1,0.8
					s0,0.5,0.1,0.8s0.1,0.5,0.2,0.7c0.1,0.2,0.3,0.4,0.4,0.5c0.1,0.1,0.4,0.2,0.6,0.2c0.1,0,0.3,0,0.4-0.1c0.1-0.1,0.3-0.1,0.4-0.2
					c0.1-0.1,0.3-0.2,0.4-0.4c0.1-0.1,0.3-0.4,0.4-0.5L664.2,222L664.2,222z"/>
			</g>
			<g>
				<path class="st14" d="M674.6,223c0,0.5-0.1,1.1-0.3,1.6c-0.1,0.4-0.4,0.9-0.7,1.2c-0.4,0.4-0.7,0.5-1.1,0.8
					c-0.4,0.2-1,0.3-1.6,0.3c-0.6,0-1.1-0.1-1.5-0.3c-0.4-0.2-0.8-0.4-1.1-0.7c-0.3-0.4-0.5-0.7-0.6-1.1s-0.2-1-0.2-1.6
					c0-0.5,0.1-1.1,0.3-1.6c0.1-0.4,0.4-0.9,0.7-1.2c0.4-0.4,0.7-0.5,1.1-0.8c0.4-0.2,1-0.3,1.6-0.3c0.5,0,1.1,0.1,1.6,0.3
					c0.4,0.2,0.8,0.4,1.1,0.7c0.4,0.4,0.5,0.7,0.6,1.1C674.6,221.9,674.6,222.4,674.6,223z M672.6,223.1c0-0.4,0-0.6-0.1-0.9
					c-0.1-0.3-0.1-0.5-0.3-0.7c-0.1-0.2-0.4-0.4-0.5-0.5c-0.2-0.1-0.4-0.2-0.8-0.2c-0.3,0-0.5,0.1-0.8,0.1c-0.3,0.1-0.4,0.3-0.5,0.4
					c-0.1,0.2-0.3,0.4-0.4,0.7c-0.1,0.3-0.1,0.5-0.1,1c0,0.4,0,0.6,0.1,0.9c0.1,0.3,0.1,0.5,0.3,0.7s0.4,0.4,0.5,0.4
					s0.4,0.2,0.8,0.2c0.3,0,0.5-0.1,0.8-0.1c0.2-0.1,0.4-0.3,0.5-0.4c0.1-0.2,0.3-0.4,0.4-0.7C672.6,223.7,672.6,223.5,672.6,223.1z
					"/>
			</g>
		</g>
	</g>
	<g>
		<path class="st14" d="M599.1,60.8H548c-5.3,0-9.6,4.3-9.6,9.6v17.7c0,5.3,4.3,9.6,9.6,9.6h0.4v8.9l9-9h41.9c5.3,0,9.6-4.3,9.6-9.6
			V70.3C608.8,65.1,604.5,60.8,599.1,60.8z"/>
		<path class="st35" d="M547.9,107.8v-9.5c-5.5-0.1-10-4.6-10-10V70.4c0-5.6,4.5-10,10-10h51.1c5.6,0,10,4.5,10,10v17.7
			c0,5.6-4.5,10-10,10h-41.7L547.9,107.8z M548,61.3c-5.1,0-9.2,4.1-9.2,9.2v17.7c0,5.1,4.1,9.2,9.2,9.2h0.8v8.3l8.4-8.4h42
			c5.1,0,9.2-4.1,9.2-9.2V70.3c0-5-4.1-9.2-9.2-9.2L548,61.3L548,61.3z"/>
	</g>
	<g>
		<path class="st36" d="M637.4,284.8h-23v-21.6c0-2.5,1.9-4.4,4.4-4.4h18.6c2.5,0,4.4,1.9,4.4,4.4v17.1
			C641.8,282.8,639.8,284.8,637.4,284.8z"/>
	</g>
	<g>
		<path class="st14" d="M637.4,281.5h-23v-21.6c0-2.5,1.9-4.4,4.4-4.4h18.6c2.5,0,4.4,1.9,4.4,4.4v17.2
			C641.8,279.5,639.8,281.5,637.4,281.5z"/>
		<path class="st36" d="M637.4,281.9h-23.4v-22c0-2.7,2.1-4.8,4.8-4.8h18.6c2.7,0,4.8,2.1,4.8,4.8v17.2
			C642.2,279.8,640.1,281.9,637.4,281.9z M614.8,281h22.6c2.2,0,4-1.8,4-4v-17.2c0-2.2-1.8-4-4-4h-18.6c-2.2,0-4,1.8-4,4V281z"/>
	</g>
	<g>
		<g>
			
				<rect x="624.1" y="266.8" transform="matrix(0.7071 -0.7071 0.7071 0.7071 -5.0283 523.8499)" class="st6" width="11.4" height="2.5"/>
		</g>
		<g>
			
				<rect x="624" y="266.5" transform="matrix(0.7071 -0.7071 0.7071 0.7071 -7.5786 521.1324)" class="st6" width="2.5" height="6.4"/>
		</g>
	</g>
	<g>
		<path class="st36" d="M690,284.8h-23v-21.6c0-2.5,1.9-4.4,4.4-4.4H690c2.5,0,4.4,1.9,4.4,4.4v17.1
			C694.4,282.8,692.4,284.8,690,284.8z"/>
	</g>
	<g>
		<path class="st37" d="M690,281.5h-23v-21.6c0-2.5,1.9-4.4,4.4-4.4H690c2.5,0,4.4,1.9,4.4,4.4v17.2
			C694.4,279.5,692.4,281.5,690,281.5z"/>
	</g>
	<g>
		<g>
			<g>
				<path class="st14" d="M682.3,275.1c0,0.4,0,0.6-0.1,0.8c-0.1,0.3-0.1,0.4-0.3,0.5c-0.2,0.2-0.4,0.3-0.5,0.4
					c-0.2,0.1-0.5,0.1-0.8,0.1c-0.4,0-0.5,0-0.8-0.1c-0.2-0.1-0.4-0.1-0.5-0.4c-0.1-0.1-0.2-0.4-0.3-0.5c-0.1-0.3-0.1-0.5-0.1-0.8
					c0-0.4,0-0.6,0.1-0.8s0.1-0.4,0.3-0.5c0.1-0.1,0.4-0.3,0.5-0.4c0.2-0.1,0.5-0.1,0.8-0.1c0.4,0,0.5,0,0.8,0.1
					c0.3,0.1,0.4,0.2,0.5,0.4c0.2,0.2,0.3,0.4,0.3,0.5C682.2,274.5,682.3,274.8,682.3,275.1z M682,271.7c0,0.1-0.1,0.1-0.1,0.2
					c-0.1,0.1-0.1,0.1-0.2,0.2c-0.1,0.1-0.3,0.1-0.4,0.1c-0.2,0-0.4,0.1-0.6,0.1c-0.3,0-0.4,0-0.6-0.1c-0.2,0-0.4-0.1-0.4-0.1
					c-0.1-0.1-0.2-0.1-0.2-0.2c-0.1-0.1-0.1-0.1-0.1-0.2l-0.4-10.8c0-0.1,0-0.2,0.1-0.3c0.1-0.1,0.1-0.1,0.3-0.2
					c0.1-0.1,0.4-0.1,0.5-0.1c0.2-0.1,0.5-0.1,0.8-0.1c0.4,0,0.5,0,0.8,0.1c0.2,0,0.4,0.1,0.5,0.1c0.1,0.1,0.2,0.1,0.3,0.2
					s0.1,0.2,0.1,0.3L682,271.7z"/>
			</g>
		</g>
	</g>
</g>
<g>
	<g>
		<path class="st38" d="M631,41.3c0,0.1,0,0.2,0,0.3s0,0.2,0,0.2c0,0.1,0,0.1-0.1,0.2l-0.1,0.1c-0.1,0.1-0.2,0.1-0.3,0.2
			c-0.2,0.1-0.3,0.2-0.5,0.2s-0.5,0.1-0.6,0.2c-0.3,0.1-0.5,0.1-0.8,0.1c-0.5,0-1.1-0.1-1.6-0.3s-0.8-0.5-1.2-0.8
			c-0.4-0.4-0.5-0.8-0.7-1.4c-0.2-0.5-0.3-1.2-0.3-1.8c0-0.7,0.1-1.4,0.3-1.9s0.5-1,0.8-1.4c0.4-0.4,0.7-0.6,1.3-0.8
			c0.5-0.2,1-0.3,1.6-0.3c0.3,0,0.5,0,0.6,0.1c0.2,0,0.5,0.1,0.6,0.2c0.2,0.1,0.4,0.1,0.5,0.2c0.2,0.1,0.3,0.2,0.3,0.2
			s0.1,0.1,0.1,0.2c0,0,0,0.1,0.1,0.2c0,0.1,0,0.1,0,0.2s0,0.2,0,0.3s0,0.3,0,0.4c0,0.1,0,0.2,0,0.2c0,0.1-0.1,0.1-0.1,0.1h-0.1
			c-0.1,0-0.2,0-0.3-0.1s-0.3-0.2-0.4-0.3c-0.2-0.1-0.4-0.2-0.5-0.3s-0.5-0.1-0.8-0.1c-0.4,0-0.6,0.1-0.9,0.2
			c-0.3,0.2-0.5,0.4-0.6,0.5c-0.2,0.3-0.4,0.5-0.5,0.9s-0.2,0.7-0.2,1.2s0.1,0.9,0.2,1.3s0.3,0.6,0.5,0.9c0.2,0.3,0.5,0.4,0.7,0.5
			c0.3,0.2,0.5,0.2,0.9,0.2c0.3,0,0.5,0,0.8-0.1s0.5-0.2,0.5-0.3c0.1-0.1,0.3-0.2,0.4-0.3s0.2-0.1,0.3-0.1h0.1l0.1,0.1
			c0,0.1,0,0.1,0,0.2C631,41.1,631,41.2,631,41.3z"/>
	</g>
	<g>
		<path class="st38" d="M638,39.4c0,0.5-0.1,0.9-0.2,1.4c-0.1,0.4-0.4,0.7-0.6,1.1c-0.3,0.4-0.6,0.5-1,0.7s-0.9,0.3-1.4,0.3
			s-1-0.1-1.4-0.2c-0.4-0.2-0.7-0.4-0.9-0.6c-0.2-0.3-0.5-0.6-0.5-1s-0.2-0.8-0.2-1.4c0-0.5,0.1-0.9,0.2-1.4
			c0.1-0.5,0.4-0.7,0.6-1.1c0.3-0.3,0.6-0.5,1-0.6c0.4-0.2,0.8-0.3,1.4-0.3c0.5,0,1,0.1,1.4,0.2c0.4,0.1,0.7,0.4,0.9,0.6
			c0.2,0.3,0.5,0.6,0.5,1C638,38.4,638,38.9,638,39.4z M636.3,39.5c0-0.3,0-0.5-0.1-0.8s-0.1-0.5-0.3-0.6c-0.2-0.2-0.3-0.3-0.5-0.5
			c-0.2-0.1-0.4-0.2-0.6-0.2s-0.5,0-0.6,0.1c-0.2,0.1-0.4,0.2-0.5,0.4s-0.2,0.4-0.3,0.6c-0.1,0.3-0.1,0.5-0.1,0.8s0,0.5,0.1,0.8
			s0.1,0.5,0.3,0.6c0.1,0.2,0.3,0.3,0.5,0.5c0.2,0.1,0.4,0.2,0.6,0.2s0.5,0,0.6-0.1c0.2-0.1,0.4-0.2,0.5-0.4s0.2-0.4,0.3-0.6
			C636.3,40.1,636.3,39.8,636.3,39.5z"/>
	</g>
	<g>
		<path class="st38" d="M644.9,42.3L644.9,42.3l-0.1,0.2c-0.1,0-0.2,0-0.3,0.1c-0.1,0-0.3,0-0.4,0c-0.2,0-0.3,0-0.4,0
			c-0.1,0-0.2,0-0.3-0.1c-0.1,0-0.1-0.1-0.1-0.1v-0.1V39c0-0.3,0-0.5-0.1-0.6c0-0.2-0.1-0.3-0.2-0.5c-0.1-0.1-0.2-0.2-0.3-0.3
			s-0.3-0.1-0.5-0.1s-0.5,0.1-0.6,0.3c-0.2,0.2-0.5,0.4-0.6,0.6v3.8v0.1l-0.1,0.1c-0.1,0-0.2,0-0.3,0.1s-0.3,0-0.4,0
			c-0.2,0-0.3,0-0.4,0c-0.1,0-0.2,0-0.3-0.1c-0.1,0-0.1-0.1-0.1-0.1v-0.1v-5.9v-0.1l0.1-0.1c0.1,0,0.1,0,0.2-0.1c0.1,0,0.2,0,0.4,0
			s0.3,0,0.4,0c0.1,0,0.2,0,0.2,0.1c0.1,0,0.1,0.1,0.1,0.1v0.1V37c0.4-0.4,0.6-0.6,1-0.8s0.6-0.3,1-0.3s0.7,0.1,1,0.2
			s0.5,0.3,0.6,0.5c0.2,0.2,0.3,0.5,0.4,0.8c0.1,0.3,0.1,0.6,0.1,1.1v3.6h0V42.3z"/>
	</g>
	<g>
		<path class="st38" d="M651,41.4c0,0.1,0,0.2,0,0.3s0,0.2,0,0.2V42l-0.1,0.1c-0.1,0.1-0.2,0.1-0.3,0.2c-0.1,0.1-0.3,0.1-0.5,0.2
			c-0.2,0.1-0.4,0.1-0.5,0.1c-0.2,0-0.4,0.1-0.5,0.1c-0.5,0-0.8-0.1-1.2-0.2c-0.4-0.2-0.6-0.4-0.9-0.6c-0.3-0.3-0.5-0.6-0.5-1
			c-0.1-0.4-0.2-0.8-0.2-1.4c0-0.5,0.1-1.1,0.2-1.6c0.2-0.5,0.4-0.7,0.6-1.1c0.3-0.3,0.5-0.5,0.9-0.6s0.7-0.2,1.2-0.2
			c0.2,0,0.4,0,0.5,0s0.4,0.1,0.5,0.1c0.2,0.1,0.3,0.1,0.4,0.2c0.1,0.1,0.2,0.1,0.3,0.2c0.1,0.1,0.1,0.1,0.1,0.1s0,0.1,0.1,0.1
			c0,0.1,0,0.1,0,0.2c0,0.1,0,0.2,0,0.3c0,0.3,0,0.5-0.1,0.5c0,0.1-0.1,0.2-0.2,0.2c-0.1,0-0.2,0-0.3-0.1s-0.2-0.1-0.3-0.2
			c-0.1-0.1-0.3-0.2-0.4-0.2c-0.2-0.1-0.4-0.1-0.5-0.1c-0.5,0-0.7,0.2-1,0.5s-0.4,0.8-0.4,1.5c0,0.3,0,0.5,0.1,0.8s0.2,0.5,0.3,0.6
			s0.3,0.3,0.5,0.4c0.2,0.1,0.4,0.1,0.5,0.1c0.2,0,0.5,0,0.5-0.1s0.3-0.2,0.5-0.2c0.1-0.1,0.2-0.2,0.3-0.2c0.1-0.1,0.2-0.1,0.2-0.1
			h0.1l0.1,0.1c0,0,0,0.1,0,0.2C651,41.2,651,41.3,651,41.4z"/>
	</g>
	<g>
		<path class="st38" d="M657.6,39.3c0,0.2,0,0.4-0.1,0.5s-0.2,0.2-0.4,0.2h-3.7c0,0.3,0,0.5,0.1,0.6c0.1,0.2,0.2,0.4,0.3,0.5
			c0.1,0.2,0.3,0.3,0.5,0.4c0.2,0.1,0.5,0.1,0.7,0.1c0.3,0,0.5,0,0.7-0.1s0.4-0.1,0.5-0.1c0.2,0,0.3-0.1,0.4-0.2
			c0.1,0,0.2-0.1,0.3-0.1h0.1c0,0,0.1,0,0.1,0.1c0,0,0,0.1,0,0.2c0,0.1,0,0.2,0,0.3s0,0.2,0,0.3s0,0.1,0,0.2c0,0.1,0,0.1,0,0.1
			s0,0.1-0.1,0.1c0,0-0.1,0.1-0.3,0.1c-0.1,0.1-0.3,0.1-0.5,0.2c-0.2,0.1-0.5,0.1-0.6,0.1c-0.2,0-0.5,0.1-0.8,0.1
			c-0.5,0-1-0.1-1.4-0.2c-0.4-0.1-0.7-0.4-1-0.6s-0.5-0.6-0.5-1c-0.1-0.4-0.2-0.9-0.2-1.5c0-0.5,0.1-1,0.2-1.4
			c0.1-0.5,0.4-0.7,0.5-1.1c0.3-0.3,0.5-0.5,0.9-0.6c0.4-0.2,0.8-0.3,1.3-0.3s0.9,0.1,1.3,0.2c0.4,0.1,0.6,0.4,0.8,0.6
			c0.2,0.3,0.4,0.5,0.5,0.9s0.2,0.7,0.2,1.1v0.4L657.6,39.3L657.6,39.3z M655.9,38.8c0-0.5-0.1-0.8-0.3-1.1s-0.5-0.4-0.9-0.4
			c-0.2,0-0.4,0-0.5,0.1c-0.2,0.1-0.3,0.2-0.4,0.3c-0.1,0.1-0.2,0.3-0.3,0.5s-0.1,0.4-0.1,0.5L655.9,38.8L655.9,38.8z"/>
	</g>
	<g>
		<path class="st38" d="M660.7,34.6c0,0.4-0.1,0.5-0.2,0.7c-0.1,0.2-0.4,0.2-0.7,0.2c-0.4,0-0.6-0.1-0.7-0.2
			c-0.1-0.1-0.2-0.4-0.2-0.6c0-0.4,0.1-0.5,0.2-0.7c0.1-0.1,0.4-0.2,0.7-0.2c0.4,0,0.6,0.1,0.7,0.2C660.6,34,660.7,34.3,660.7,34.6z
			 M660.5,42.3L660.5,42.3l-0.1,0.2c-0.1,0-0.2,0-0.3,0.1s-0.3,0-0.4,0c-0.2,0-0.3,0-0.4,0s-0.2,0-0.3-0.1c-0.1,0-0.1-0.1-0.1-0.1
			v-0.1v-5.9v-0.1l0.1-0.1c0.1,0,0.2,0,0.3-0.1s0.3,0,0.4,0c0.2,0,0.3,0,0.4,0c0.1,0,0.2,0,0.3,0.1c0.1,0,0.1,0.1,0.1,0.1v0.1V42.3z
			"/>
	</g>
	<g>
		<path class="st38" d="M665.6,41.8c0,0.2,0,0.4,0,0.5s-0.1,0.2-0.1,0.2s-0.1,0.1-0.2,0.1s-0.2,0.1-0.3,0.1s-0.2,0-0.4,0.1
			c-0.1,0-0.3,0-0.4,0c-0.4,0-0.6,0-0.8-0.1c-0.3-0.1-0.5-0.2-0.6-0.4c-0.2-0.2-0.3-0.4-0.4-0.6c-0.1-0.3-0.1-0.5-0.1-0.9v-3h-0.7
			c-0.1,0-0.2-0.1-0.2-0.2c0-0.1-0.1-0.3-0.1-0.5c0-0.1,0-0.3,0-0.4c0-0.1,0-0.2,0.1-0.2c0-0.1,0.1-0.1,0.1-0.1h0.1h0.7V35v-0.1
			l0.1-0.1c0.1,0,0.2,0,0.3-0.1c0.1,0,0.3,0,0.4,0c0.2,0,0.3,0,0.4,0c0.1,0,0.2,0,0.3,0.1c0.1,0,0.1,0.1,0.1,0.1V35v1.3h1.3h0.1
			l0.1,0.1c0,0,0,0.1,0.1,0.2c0.1,0.1,0,0.2,0,0.4c0,0.3,0,0.4-0.1,0.5c0,0.1-0.1,0.2-0.2,0.2h-1.3v2.7c0,0.3,0.1,0.5,0.2,0.7
			c0.1,0.2,0.3,0.3,0.5,0.3c0.1,0,0.2,0,0.3,0s0.1,0,0.2-0.1c0.1,0,0.1,0,0.2-0.1h0.1h0.1c0,0,0,0.1,0.1,0.1c0,0.1,0,0.1,0,0.2
			C665.6,41.6,665.6,41.7,665.6,41.8z"/>
	</g>
	<g>
		<path class="st38" d="M672.6,39.4c0,0.5-0.1,0.9-0.2,1.4c-0.1,0.4-0.4,0.7-0.6,1.1c-0.3,0.4-0.6,0.5-1,0.7s-0.9,0.3-1.4,0.3
			s-1-0.1-1.4-0.2c-0.4-0.2-0.7-0.4-0.9-0.6c-0.2-0.3-0.5-0.6-0.5-1c-0.1-0.4-0.2-0.8-0.2-1.4c0-0.5,0.1-0.9,0.2-1.4
			c0.1-0.5,0.4-0.7,0.6-1.1c0.3-0.3,0.6-0.5,1-0.6c0.4-0.2,0.8-0.3,1.4-0.3s1,0.1,1.4,0.2c0.4,0.1,0.7,0.4,0.9,0.6
			c0.2,0.3,0.5,0.6,0.5,1C672.5,38.4,672.6,38.9,672.6,39.4z M670.9,39.5c0-0.3,0-0.5-0.1-0.8s-0.1-0.5-0.3-0.6
			c-0.2-0.2-0.3-0.3-0.5-0.5c-0.2-0.1-0.4-0.2-0.6-0.2c-0.3,0-0.5,0-0.6,0.1c-0.2,0.1-0.4,0.2-0.5,0.4s-0.2,0.4-0.3,0.6
			c-0.1,0.3-0.1,0.5-0.1,0.8s0,0.5,0.1,0.8s0.1,0.5,0.3,0.6c0.1,0.2,0.3,0.3,0.5,0.5c0.2,0.1,0.4,0.2,0.6,0.2c0.3,0,0.5,0,0.6-0.1
			c0.2-0.1,0.4-0.2,0.5-0.4s0.2-0.4,0.3-0.6C670.9,40.1,670.9,39.8,670.9,39.5z"/>
	</g>
	<g>
		<path class="st38" d="M676,37.4c0,0.2,0,0.4,0,0.5s-0.1,0.2-0.2,0.3c-0.1,0.1-0.2,0.1-0.3,0.2c-0.1,0-0.3,0.1-0.5,0.1
			s-0.4,0-0.5-0.1s-0.2-0.1-0.3-0.2c-0.1-0.1-0.1-0.2-0.2-0.3c0-0.1,0-0.3,0-0.5s0-0.4,0-0.5s0.1-0.3,0.2-0.3
			c0.1-0.1,0.2-0.1,0.3-0.2c0.1-0.1,0.3-0.1,0.5-0.1s0.4,0,0.5,0.1c0.1,0,0.2,0.1,0.3,0.2c0.1,0.1,0.1,0.2,0.2,0.3
			C676.1,37,676,37.2,676,37.4z M676,41.7c0,0.2,0,0.4,0,0.5s-0.1,0.2-0.2,0.3c-0.1,0.1-0.2,0.1-0.3,0.2c-0.1,0-0.3,0.1-0.5,0.1
			s-0.4,0-0.5-0.1c-0.1,0-0.2-0.1-0.3-0.2c-0.1-0.1-0.1-0.2-0.2-0.3c0-0.1,0-0.3,0-0.5s0-0.4,0-0.5s0.1-0.3,0.2-0.3
			c0.1-0.1,0.2-0.1,0.3-0.2c0.1-0.1,0.3-0.1,0.5-0.1s0.4,0,0.5,0.1c0.1,0,0.2,0.1,0.3,0.2c0.1,0.1,0.1,0.2,0.2,0.3
			C676.1,41.3,676,41.5,676,41.7z"/>
	</g>
</g>
<g>
	<g>
		<path class="st36" d="M615.7,379.7H481.5v-3.8h130.3C613.9,376,615.7,377.7,615.7,379.7L615.7,379.7z"/>
	</g>
	<g>
		<path class="st36" d="M615.7,430.2H481.5v-3.8h130.3C613.9,426.3,615.7,428,615.7,430.2L615.7,430.2z"/>
	</g>
	<g>
		<g>
			<g>
				<path class="st14" d="M810,379.9H667.8c-1.9,0-3.4-1.5-3.4-3.4v-20.5c0-1.9,1.5-3.4,3.4-3.4H810c1.9,0,3.4,1.5,3.4,3.4v20.5
					C813.4,378.4,811.9,379.9,810,379.9z"/>
			</g>
		</g>
		<g>
			<g>
				<path class="st36" d="M810,380.3H667.8c-2.1,0-3.8-1.7-3.8-3.8v-20.5c0-2.1,1.7-3.8,3.8-3.8H810c2.1,0,3.8,1.7,3.8,3.8v20.5
					C813.8,378.6,812.1,380.3,810,380.3z M667.8,352.9c-1.6,0-3,1.3-3,3v20.5c0,1.6,1.3,3,3,3H810c1.6,0,3-1.3,3-3v-20.5
					c0-1.6-1.3-3-3-3H667.8z"/>
			</g>
		</g>
	</g>
	<g>
		<g>
			<g>
				<path class="st14" d="M810,433.7H667.8c-1.9,0-3.4-1.5-3.4-3.4v-20.5c0-1.9,1.5-3.4,3.4-3.4H810c1.9,0,3.4,1.5,3.4,3.4v20.5
					C813.4,432.2,811.9,433.7,810,433.7z"/>
			</g>
		</g>
		<g>
			<g>
				<path class="st36" d="M810,434.2H667.8c-2.1,0-3.8-1.7-3.8-3.8v-20.5c0-2.1,1.7-3.8,3.8-3.8H810c2.1,0,3.8,1.7,3.8,3.8v20.5
					C813.8,432.4,812.1,434.2,810,434.2z M667.8,406.8c-1.6,0-3,1.3-3,3v20.5c0,1.6,1.3,3,3,3H810c1.6,0,3-1.3,3-3v-20.5
					c0-1.6-1.3-3-3-3H667.8z"/>
			</g>
		</g>
	</g>
	<g>
		<g>
			<circle class="st12" cx="834.9" cy="419.9" r="16.6"/>
		</g>
	</g>
	<g>
		<g>
			<g>
				<g>
					<path class="st14" d="M834.9,431c-0.4,0-0.9-0.3-0.9-0.9V428c0-0.4,0.3-0.9,0.9-0.9s0.9,0.3,0.9,0.9v2.1
						C835.7,430.6,835.3,431,834.9,431z"/>
				</g>
			</g>
		</g>
		<g>
			<g>
				<path class="st14" d="M835,425L835,425c-2.5,0-4.5-1.9-4.5-4.4v-6.4c0-2.5,1.9-4.4,4.4-4.4s4.5,1.9,4.5,4.4v6.4
					C839.3,423.1,837.3,425,835,425z M835,411.3c-1.7,0-3,1.3-3,2.9v6.4c0,1.6,1.3,2.9,2.9,2.9h0.1c1.6,0,2.9-1.3,2.9-2.9v-6.4
					C837.8,412.6,836.5,411.3,835,411.3z"/>
			</g>
		</g>
		<g>
			<g>
				<g>
					<path class="st14" d="M835,428.6L835,428.6c-2.1,0-4.1-0.7-5.6-2.2s-2.2-3.4-2.2-5.4c0-0.4,0.3-0.9,0.9-0.9s0.9,0.3,0.9,0.9
						c0,1.6,0.6,3.1,1.8,4.3c1.2,1.2,2.7,1.8,4.3,1.8h0.1c1.6,0,3.1-0.6,4.3-1.8c1.2-1.2,1.8-2.7,1.8-4.3c0-0.4,0.3-0.9,0.9-0.9
						s0.9,0.3,0.9,0.9c0,2-0.7,4-2.2,5.4C838.9,427.8,837,428.6,835,428.6z"/>
				</g>
			</g>
		</g>
	</g>
	<g>
		<path class="st31" d="M730.1,340.1c0,0.5-0.1,1-0.2,1.4c-0.1,0.4-0.3,0.7-0.6,1.1c-0.2,0.3-0.5,0.6-0.9,0.9
			c-0.3,0.2-0.7,0.4-1.2,0.5c-0.4,0.1-0.9,0.2-1.4,0.3c-0.4,0.1-1,0.1-1.6,0.1h-3.8c-0.2,0-0.4-0.1-0.6-0.2
			c-0.2-0.1-0.2-0.4-0.2-0.7v-12.8c0-0.3,0.1-0.5,0.2-0.7c0.1-0.2,0.4-0.2,0.6-0.2h3.6c0.9,0,1.7,0.1,2.2,0.2
			c0.6,0.1,1.2,0.4,1.6,0.6c0.4,0.3,0.7,0.6,1,1.2c0.2,0.4,0.3,1.1,0.3,1.6c0,0.3,0,0.6-0.1,1c-0.1,0.3-0.2,0.6-0.4,0.9
			c-0.2,0.2-0.4,0.5-0.6,0.6c-0.2,0.2-0.5,0.3-0.9,0.4c0.4,0.1,0.7,0.2,1.2,0.4c0.3,0.2,0.6,0.4,1,0.7c0.2,0.3,0.4,0.6,0.6,1.1
			C730,339.2,730.1,339.7,730.1,340.1z M726.2,334c0-0.3,0-0.5-0.1-0.7c-0.1-0.2-0.2-0.4-0.4-0.5c-0.2-0.1-0.4-0.3-0.6-0.3
			c-0.3-0.1-0.6-0.1-1.1-0.1h-1.5v3.8h1.7c0.4,0,0.7,0,1.1-0.1c0.2-0.1,0.4-0.2,0.6-0.4c0.2-0.2,0.3-0.4,0.4-0.6
			C726.1,334.5,726.2,334.2,726.2,334z M727,340.2c0-0.3-0.1-0.6-0.2-1c-0.1-0.3-0.3-0.5-0.5-0.6c-0.2-0.2-0.5-0.3-0.9-0.4
			s-0.7-0.1-1.3-0.1h-1.8v4.2h2.1c0.4,0,0.7,0,1.1-0.1c0.3-0.1,0.5-0.2,0.7-0.4c0.2-0.2,0.3-0.4,0.5-0.6
			C726.9,340.9,727,340.5,727,340.2z"/>
		<path class="st31" d="M741.8,344.2c0,0.1,0,0.1-0.1,0.2c0,0.1-0.1,0.1-0.2,0.1c-0.1,0-0.2,0.1-0.3,0.1c-0.1,0-0.3,0-0.5,0
			c-0.2,0-0.4,0-0.6,0s-0.3,0-0.3-0.1c-0.1,0-0.1-0.1-0.2-0.1c0-0.1-0.1-0.1-0.1-0.2V343c-0.5,0.6-1.2,1.1-1.7,1.4
			c-0.5,0.3-1.2,0.4-1.8,0.4c-0.7,0-1.3-0.1-1.7-0.3c-0.4-0.2-0.9-0.5-1.2-1c-0.3-0.4-0.5-0.9-0.6-1.4c-0.1-0.5-0.2-1.2-0.2-1.9V334
			c0-0.1,0-0.1,0.1-0.2c0-0.1,0.1-0.1,0.2-0.1s0.2-0.1,0.4-0.1c0.2,0,0.4,0,0.6,0c0.3,0,0.5,0,0.6,0c0.1,0,0.3,0,0.4,0.1
			c0.1,0.1,0.2,0.1,0.2,0.1c0,0.1,0.1,0.1,0.1,0.2v5.7c0,0.5,0,1,0.1,1.2c0.1,0.3,0.2,0.5,0.3,0.7c0.1,0.2,0.3,0.3,0.5,0.4
			c0.2,0.1,0.4,0.2,0.7,0.2c0.3,0,0.7-0.1,1.1-0.4c0.3-0.2,0.7-0.6,1.2-1.2v-6.7c0-0.1,0-0.1,0.1-0.2c0-0.1,0.1-0.1,0.2-0.1
			c0.1,0,0.2-0.1,0.4-0.1s0.4,0,0.6,0c0.3,0,0.5,0,0.6,0c0.1,0,0.3,0,0.4,0.1c0.1,0,0.2,0.1,0.2,0.1c0,0.1,0.1,0.1,0.1,0.2v10.3
			H741.8z"/>
		<path class="st31" d="M751.8,341.3c0,0.5-0.1,1.1-0.3,1.5c-0.2,0.4-0.5,0.9-1,1.1c-0.4,0.3-0.9,0.5-1.4,0.6s-1.1,0.2-1.7,0.2
			c-0.4,0-0.7,0-1.1-0.1s-0.6-0.1-1-0.2c-0.3-0.1-0.5-0.2-0.6-0.2c-0.2-0.1-0.3-0.2-0.4-0.2c-0.1-0.1-0.1-0.2-0.2-0.4
			c0-0.2-0.1-0.4-0.1-0.7c0-0.2,0-0.4,0-0.5s0-0.2,0.1-0.3c0.1-0.1,0.1-0.1,0.1-0.1s0.1,0,0.2,0c0.1,0,0.2,0,0.3,0.1
			c0.2,0.1,0.3,0.2,0.6,0.3c0.2,0.1,0.5,0.2,0.9,0.3c0.3,0.1,0.6,0.1,1.1,0.1c0.2,0,0.5,0,0.6-0.1c0.2,0,0.3-0.1,0.5-0.2
			c0.2-0.1,0.2-0.2,0.3-0.3c0.1-0.1,0.1-0.3,0.1-0.5c0-0.2-0.1-0.4-0.2-0.5c-0.1-0.1-0.3-0.3-0.5-0.4c-0.2-0.1-0.5-0.2-0.7-0.3
			c-0.3-0.1-0.6-0.2-0.9-0.3c-0.3-0.1-0.6-0.3-0.9-0.4c-0.3-0.2-0.5-0.3-0.7-0.6c-0.2-0.2-0.4-0.5-0.5-0.9c-0.1-0.3-0.2-0.7-0.2-1.2
			c0-0.5,0.1-1,0.3-1.3c0.2-0.3,0.4-0.7,0.9-1.1c0.3-0.3,0.7-0.5,1.3-0.6c0.5-0.1,1.1-0.2,1.7-0.2c0.3,0,0.6,0,1,0.1
			c0.3,0,0.5,0.1,0.9,0.2c0.2,0.1,0.4,0.1,0.6,0.2c0.2,0.1,0.3,0.1,0.3,0.2s0.1,0.1,0.1,0.2s0,0.1,0.1,0.2c0,0.1,0,0.2,0,0.3
			c0,0.1,0,0.2,0,0.4c0,0.2,0,0.3,0,0.5c0,0.2,0,0.2-0.1,0.3c0,0.1-0.1,0.1-0.1,0.1H751c-0.1,0-0.2,0-0.3-0.1
			c-0.1-0.1-0.3-0.2-0.5-0.2c-0.2-0.1-0.4-0.2-0.7-0.2c-0.3-0.1-0.6-0.1-1-0.1c-0.2,0-0.4,0-0.6,0.1c-0.2,0-0.3,0.1-0.4,0.2
			c-0.1,0.1-0.2,0.2-0.3,0.3c-0.1,0.1-0.1,0.3-0.1,0.4c0,0.2,0.1,0.4,0.2,0.6c0.1,0.1,0.3,0.3,0.5,0.4s0.5,0.2,0.7,0.3
			c0.3,0.1,0.6,0.2,0.9,0.3c0.3,0.1,0.6,0.3,0.9,0.4c0.2,0.1,0.5,0.3,0.7,0.6c0.2,0.2,0.4,0.5,0.5,0.9
			C751.8,340.4,751.8,340.9,751.8,341.3z"/>
		<path class="st31" d="M761.6,342.6c0,0.2,0,0.3,0,0.5c0,0.1,0,0.2,0,0.3s0,0.2-0.1,0.2c0,0.1-0.1,0.1-0.2,0.2
			c-0.1,0.1-0.2,0.2-0.4,0.3c-0.2,0.1-0.4,0.2-0.7,0.3c-0.3,0.1-0.5,0.2-1,0.2c-0.3,0.1-0.6,0.1-1,0.1c-0.7,0-1.5-0.1-2-0.3
			c-0.6-0.2-1.1-0.6-1.5-1.1c-0.4-0.4-0.7-1.1-1-1.7c-0.2-0.6-0.3-1.5-0.3-2.3c0-1,0.1-1.9,0.4-2.7c0.2-0.7,0.6-1.4,1.1-1.8
			c0.4-0.5,1-0.9,1.6-1.1c0.6-0.2,1.3-0.3,2-0.3c0.3,0,0.6,0,0.9,0.1c0.3,0,0.5,0.1,0.9,0.2c0.2,0.1,0.4,0.2,0.6,0.3
			c0.2,0.1,0.3,0.2,0.4,0.3c0.1,0.1,0.1,0.1,0.2,0.2c0,0.1,0.1,0.1,0.1,0.2c0,0.1,0,0.2,0,0.3c0,0.1,0,0.3,0,0.5c0,0.4,0,0.7-0.1,1
			c-0.1,0.2-0.2,0.3-0.3,0.3c-0.1,0-0.2,0-0.4-0.1c-0.1-0.1-0.3-0.2-0.5-0.3c-0.2-0.1-0.4-0.2-0.7-0.3c-0.3-0.1-0.6-0.1-1-0.1
			c-0.7,0-1.3,0.3-1.7,0.9c-0.4,0.5-0.6,1.4-0.6,2.5c0,0.5,0,1.1,0.1,1.4c0.1,0.3,0.2,0.7,0.4,1.1c0.2,0.3,0.4,0.5,0.7,0.6
			c0.3,0.1,0.6,0.2,1,0.2c0.4,0,0.7-0.1,1-0.2c0.2-0.1,0.5-0.2,0.7-0.4c0.2-0.1,0.4-0.3,0.5-0.4s0.2-0.2,0.3-0.2
			c0.1,0,0.1,0,0.2,0.1c0,0,0.1,0.1,0.1,0.2c0,0.1,0,0.2,0.1,0.4C761.6,342.2,761.6,342.3,761.6,342.6z"/>
		<path class="st31" d="M772.2,344.2c0,0.1,0,0.2-0.1,0.2c-0.1,0.1-0.2,0.1-0.3,0.1c-0.2,0-0.4,0-0.7,0s-0.5,0-0.7,0
			s-0.2-0.1-0.3-0.1c-0.1-0.1-0.1-0.1-0.1-0.2v-0.9c-0.4,0.4-0.9,0.7-1.4,1.1c-0.5,0.2-1.2,0.4-1.8,0.4c-0.5,0-1.1-0.1-1.5-0.2
			c-0.4-0.1-0.9-0.3-1.2-0.6c-0.3-0.3-0.5-0.6-0.7-1.1c-0.2-0.4-0.3-0.9-0.3-1.4c0-0.6,0.1-1.1,0.3-1.5c0.2-0.4,0.5-0.7,1.1-1.1
			c0.4-0.3,1.1-0.5,1.7-0.6c0.6-0.1,1.5-0.2,2.3-0.2h1v-0.6c0-0.3,0-0.6-0.1-0.9c-0.1-0.2-0.2-0.4-0.3-0.6c-0.1-0.2-0.3-0.3-0.6-0.3
			c-0.2-0.1-0.5-0.1-1-0.1s-0.9,0-1.3,0.1c-0.3,0.1-0.7,0.2-1,0.3s-0.5,0.2-0.7,0.3c-0.2,0.1-0.3,0.1-0.4,0.1c-0.1,0-0.1,0-0.2-0.1
			c-0.1,0-0.1-0.1-0.1-0.2s-0.1-0.2-0.1-0.3c0-0.1,0-0.3,0-0.4c0-0.2,0-0.4,0.1-0.5c0.1-0.1,0.1-0.2,0.2-0.3
			c0.1-0.1,0.3-0.2,0.5-0.3c0.2-0.1,0.5-0.2,1-0.3c0.3-0.1,0.7-0.2,1.2-0.3c0.4-0.1,0.9-0.1,1.3-0.1c0.7,0,1.5,0.1,2,0.2
			s1.1,0.4,1.4,0.7c0.3,0.3,0.6,0.7,0.7,1.3c0.1,0.5,0.2,1.1,0.2,1.8v6.7H772.2z M769.3,339.9h-1.1c-0.4,0-0.9,0-1.2,0.1
			c-0.3,0.1-0.6,0.2-0.7,0.3c-0.2,0.1-0.3,0.3-0.4,0.5c-0.1,0.2-0.1,0.4-0.1,0.6c0,0.4,0.1,0.7,0.4,1c0.3,0.2,0.6,0.3,1.1,0.3
			c0.4,0,0.7-0.1,1.1-0.3c0.3-0.2,0.6-0.5,1.1-0.9v-1.7H769.3z"/>
		<path class="st31" d="M781.4,335c0,0.3,0,0.5,0,0.6c0,0.2,0,0.3-0.1,0.4c-0.1,0.1-0.1,0.2-0.1,0.2s-0.1,0.1-0.2,0.1
			c-0.1,0-0.1,0-0.2,0c-0.1,0-0.1-0.1-0.2-0.1s-0.2-0.1-0.3-0.1c-0.1,0-0.2,0-0.4,0c-0.1,0-0.3,0-0.4,0.1c-0.1,0.1-0.3,0.2-0.5,0.3
			c-0.2,0.1-0.3,0.3-0.5,0.5c-0.2,0.2-0.4,0.5-0.6,0.9v6.3c0,0.1,0,0.1-0.1,0.2c0,0.1-0.1,0.1-0.2,0.1s-0.2,0.1-0.4,0.1
			s-0.4,0-0.6,0s-0.5,0-0.6,0c-0.2,0-0.3,0-0.4-0.1c-0.1,0-0.2-0.1-0.2-0.1c0-0.1-0.1-0.1-0.1-0.2v-10.1c0-0.1,0-0.1,0.1-0.2
			c0-0.1,0.1-0.1,0.2-0.1c0.1,0,0.2-0.1,0.4-0.1c0.1,0,0.3,0,0.5,0s0.4,0,0.6,0s0.3,0,0.3,0.1c0.1,0,0.1,0.1,0.2,0.1
			c0,0.1,0.1,0.1,0.1,0.2v1.3c0.2-0.4,0.5-0.6,0.7-1c0.2-0.2,0.4-0.4,0.6-0.5s0.4-0.2,0.6-0.3c0.2-0.1,0.4-0.1,0.6-0.1
			c0.1,0,0.2,0,0.3,0c0.1,0,0.2,0,0.3,0.1c0.1,0,0.2,0.1,0.3,0.1c0.1,0,0.1,0.1,0.2,0.1l0.1,0.1c0,0,0,0.1,0,0.2c0,0.1,0,0.2,0,0.3
			S781.4,334.8,781.4,335z"/>
	</g>
	<g>
		<g>
			<g>
				<g>
					<path class="st7" d="M695.2,344.3l-0.1-0.1c-0.5-0.5-0.5-1.3,0-1.8l5.9-5.9l1.9,1.9l-5.9,5.9
						C696.5,344.8,695.7,344.8,695.2,344.3z"/>
				</g>
			</g>
			<g>
				<g>
					<path class="st4" d="M695.7,343.1l6-6l-0.6-0.6l-6,6c-0.4,0.4-0.4,1.2,0,1.6l0.3,0.3c0,0,0.1,0.1,0.2,0.1
						C695.2,344.2,695.2,343.5,695.7,343.1z"/>
				</g>
			</g>
			<g>
				<g>
					
						<rect x="701.7" y="335.9" transform="matrix(0.7071 -0.7071 0.7071 0.7071 -32.4842 595.3795)" class="st3" width="1.5" height="1.9"/>
				</g>
			</g>
		</g>
		<g>
			<g>
				<path class="st10" d="M707.2,338.1c-3.5,0-6.3-2.8-6.3-6.3s2.8-6.3,6.3-6.3c3.5,0,6.3,2.8,6.3,6.3
					C713.5,335.2,710.6,338.1,707.2,338.1z M707.2,326.8c-2.8,0-5,2.2-5,5s2.2,5,5,5s5-2.2,5-5C712.1,329,709.9,326.8,707.2,326.8z"
					/>
			</g>
		</g>
		<g>
			<g>
				<path class="st10" d="M709.6,328.9c-0.6-0.5-1.5-0.9-2.3-0.9c-0.9,0-1.7,0.3-2.3,0.9l-0.2-0.3c0.7-0.6,1.6-1,2.6-1
					s1.9,0.3,2.6,1L709.6,328.9z"/>
			</g>
		</g>
	</g>
	<g>
		<path class="st32" d="M516.6,443.8c0,0.1,0,0.2,0,0.3c0,0.1,0,0.1,0,0.2c0,0,0,0.1-0.1,0.1h-0.1h-3.1c-0.1,0-0.2,0-0.3-0.1
			c-0.1-0.1-0.1-0.2-0.1-0.3v-6.2v-0.1c0,0,0.1,0,0.1-0.1c0,0,0.1,0,0.2,0s0.2,0,0.3,0s0.2,0,0.3,0s0.1,0,0.2,0c0,0,0.1,0,0.1,0.1
			s0,0.1,0,0.1v5.6h2.1h0.1c0,0,0,0,0.1,0.1c0.1,0.1,0,0.1,0,0.2C516.6,443.6,516.6,443.7,516.6,443.8z"/>
		<path class="st32" d="M521.8,441.7c0,0.2,0,0.3-0.1,0.3c-0.1,0.1-0.2,0.1-0.3,0.1h-2.9c0,0.2,0,0.4,0.1,0.5c0,0.2,0.1,0.3,0.2,0.4
			c0.1,0.1,0.2,0.2,0.4,0.2c0.2,0.1,0.3,0.1,0.6,0.1c0.2,0,0.4,0,0.6,0s0.3-0.1,0.4-0.1s0.2-0.1,0.3-0.1s0.1,0,0.2,0h0.1
			c0,0,0,0,0,0.1v0.1c0,0.1,0,0.1,0,0.2c0,0.1,0,0.1,0,0.2s0,0.1,0,0.1v0.1c0,0,0,0-0.1,0.1c0,0-0.1,0.1-0.2,0.1
			c-0.1,0-0.2,0.1-0.4,0.1c-0.1,0-0.3,0.1-0.5,0.1s-0.4,0-0.6,0c-0.4,0-0.7,0-1.1-0.1c-0.3-0.1-0.5-0.2-0.7-0.5
			c-0.2-0.2-0.3-0.5-0.4-0.9c-0.1-0.3-0.1-0.7-0.1-1.2c0-0.4,0.1-0.7,0.2-1.2c0.1-0.4,0.3-0.6,0.4-0.9c0.2-0.2,0.4-0.4,0.7-0.5
			c0.3-0.1,0.6-0.2,1-0.2c0.4,0,0.7,0.1,1,0.2c0.3,0.1,0.5,0.3,0.6,0.5c0.1,0.2,0.3,0.4,0.4,0.7s0.1,0.6,0.1,1L521.8,441.7
			L521.8,441.7z M520.5,441.3c0-0.4-0.1-0.6-0.2-0.9c-0.2-0.2-0.4-0.3-0.7-0.3c-0.2,0-0.3,0-0.4,0.1c-0.1,0.1-0.2,0.1-0.3,0.2
			c-0.1,0.1-0.1,0.2-0.2,0.4c0,0.1-0.1,0.3-0.1,0.4L520.5,441.3L520.5,441.3z"/>
		<path class="st32" d="M525.7,443.7c0,0.1,0,0.3,0,0.3c0,0.1,0,0.1-0.1,0.2l-0.1,0.1c-0.1,0-0.1,0-0.2,0.1c-0.1,0-0.2,0-0.3,0
			c-0.1,0-0.2,0-0.3,0c-0.2,0-0.5,0-0.6-0.1c-0.1-0.1-0.3-0.2-0.5-0.3c-0.1-0.1-0.2-0.3-0.3-0.5c-0.1-0.2-0.1-0.4-0.1-0.7v-2.5h-0.5
			c-0.1,0-0.1,0-0.1-0.1s0-0.2,0-0.4c0-0.1,0-0.2,0-0.2c0-0.1,0-0.1,0-0.2c0,0,0-0.1,0.1-0.1c0.1,0,0.1,0,0.1,0h0.5v-1.1v-0.1
			c0,0,0.1,0,0.1-0.1c0-0.1,0.1,0,0.2,0s0.2,0,0.3,0c0.1,0,0.2,0,0.3,0c0.1,0,0.1,0,0.2,0c0,0,0.1,0,0.1,0.1v0.1v1.1h1.1h0.1
			c0,0,0,0,0.1,0.1c0.1,0.1,0,0.1,0,0.2s0,0.1,0,0.2c0,0.2,0,0.3,0,0.4s-0.1,0.1-0.1,0.1h-1.1v2.2c0,0.2,0,0.4,0.1,0.5
			c0.1,0.1,0.2,0.2,0.4,0.2c0.1,0,0.1,0,0.2,0s0.1,0,0.1,0h0.1h0.1c0,0,0,0,0.1,0c0,0,0,0,0,0.1v0.1
			C525.7,443.5,525.7,443.6,525.7,443.7z"/>
		<path class="st32" d="M528.7,437.5c0,0.1,0,0.2,0,0.4c0,0.1,0,0.2-0.1,0.3c0,0.1-0.1,0.2-0.1,0.3c0,0.1-0.1,0.2-0.2,0.3l-0.7,1.1
			c0,0,0,0.1-0.1,0.1c0,0-0.1,0-0.1,0.1h-0.1c-0.1,0-0.1,0-0.2,0c-0.1,0-0.2,0-0.2,0c-0.1,0-0.1,0-0.1,0s0,0,0-0.1V440l0.6-1.5v-0.9
			c0-0.1,0-0.2,0-0.3s0.1-0.1,0.1-0.2c0.1,0,0.1-0.1,0.2-0.1c0.1,0,0.2,0,0.3,0c0.1,0,0.2,0,0.3,0s0.2,0,0.2,0.1s0.1,0.1,0.1,0.2
			C528.7,437.3,528.7,437.4,528.7,437.5z"/>
		<path class="st32" d="M532.8,442.9c0,0.3,0,0.5-0.1,0.7c-0.1,0.2-0.2,0.4-0.4,0.5c-0.2,0.1-0.4,0.2-0.6,0.3s-0.5,0.1-0.9,0.1
			c-0.2,0-0.3,0-0.5,0c-0.2,0-0.3-0.1-0.4-0.1c-0.1,0-0.2-0.1-0.3-0.1c-0.1,0-0.1-0.1-0.2-0.1c0,0-0.1-0.1-0.1-0.2s0-0.2,0-0.3
			c0-0.1,0-0.2,0-0.2c0-0.1,0-0.1,0-0.1v-0.1c0,0,0,0,0.1,0c0,0,0.1,0,0.2,0.1c0.1,0,0.2,0.1,0.3,0.1c0.1,0,0.2,0.1,0.4,0.1
			c0.1,0,0.3,0.1,0.5,0.1c0.1,0,0.2,0,0.3,0s0.2-0.1,0.2-0.1s0.1-0.1,0.1-0.2s0-0.1,0-0.2s0-0.2-0.1-0.3c-0.1-0.1-0.1-0.1-0.2-0.2
			c-0.1-0.1-0.2-0.1-0.3-0.1c-0.1,0-0.3-0.1-0.4-0.2c-0.1-0.1-0.3-0.1-0.4-0.2s-0.2-0.2-0.3-0.3c-0.1-0.1-0.2-0.2-0.2-0.4
			c-0.1-0.1-0.1-0.3-0.1-0.5c0-0.2,0-0.4,0.1-0.6c0.1-0.2,0.2-0.3,0.4-0.5c0.2-0.1,0.3-0.2,0.6-0.3c0.2-0.1,0.5-0.1,0.9-0.1
			c0.1,0,0.3,0,0.4,0s0.2,0,0.4,0.1c0.1,0,0.2,0.1,0.3,0.1c0.1,0,0.1,0.1,0.2,0.1c0,0,0.1,0,0.1,0.1v0.1v0.1c0,0.1,0,0.1,0,0.2
			c0,0.1,0,0.2,0,0.2c0,0.1,0,0.1,0,0.1v0.1c0,0,0,0-0.1,0c0,0-0.1,0-0.1-0.1c-0.1,0-0.1-0.1-0.2-0.1c-0.1,0-0.2-0.1-0.3-0.1
			c-0.1,0-0.3-0.1-0.4-0.1s-0.2,0-0.3,0c-0.1,0-0.2,0.1-0.2,0.1s-0.1,0.1-0.1,0.2s0,0.1,0,0.2c0,0.1,0,0.2,0.1,0.3
			c0.1,0.1,0.1,0.1,0.2,0.2c0.1,0.1,0.2,0.1,0.3,0.1c0.1,0,0.3,0.1,0.4,0.2c0.1,0.1,0.3,0.1,0.4,0.2c0.1,0.1,0.2,0.2,0.3,0.3
			c0.1,0.1,0.2,0.2,0.2,0.4C532.7,442.4,532.8,442.7,532.8,442.9z"/>
		<path class="st32" d="M543.5,439.5v0.1c0,0,0,0.1-0.1,0.2l-1.3,4.3c0,0.1,0,0.1-0.1,0.1l-0.1,0.1c-0.1,0-0.1,0-0.2,0s-0.2,0-0.4,0
			s-0.3,0-0.4,0c-0.1,0-0.2,0-0.2,0c-0.1,0-0.1,0-0.1-0.1c0,0,0-0.1-0.1-0.1l-0.7-2.9l0,0l0,0l-0.7,2.9c0,0.1,0,0.1-0.1,0.1
			l-0.1,0.1c-0.1,0-0.1,0-0.2,0c-0.1,0-0.2,0-0.4,0c-0.2,0-0.3,0-0.4,0c-0.1,0-0.2,0-0.2,0c-0.1,0-0.1,0-0.1-0.1c0,0,0-0.1-0.1-0.1
			l-1.3-4.3c0-0.1,0-0.2-0.1-0.2c0-0.1,0-0.1,0-0.1v-0.1c0,0,0.1,0,0.1-0.1c0,0,0.1,0,0.2,0c0.1,0,0.2,0,0.3,0c0.1,0,0.2,0,0.3,0
			c0.1,0,0.1,0,0.2,0c0.1,0,0.1,0,0.1,0.1v0.1l1,3.4v0.1v-0.1l0.9-3.4v-0.1l0.1-0.1c0,0,0.1,0,0.2,0c0.1,0,0.2,0,0.3,0
			c0.1,0,0.2,0,0.3,0c0.1,0,0.1,0,0.2,0c0,0,0.1,0,0.1,0.1v0.1l1,3.5v0.1V443l0.9-3.4v-0.1l0.1-0.1c0,0,0.1,0,0.2,0s0.2,0,0.3,0
			c0.1,0,0.2,0,0.3,0c0.1,0,0.1,0,0.2,0C543.4,439.3,543.4,439.3,543.5,439.5C543.5,439.3,543.5,439.5,543.5,439.5z"/>
		<path class="st32" d="M549,441.8c0,0.4,0,0.7-0.1,1.1c-0.1,0.3-0.2,0.6-0.5,0.9c-0.2,0.2-0.5,0.4-0.9,0.5
			c-0.3,0.1-0.7,0.2-1.2,0.2s-0.7-0.1-1.1-0.2c-0.3-0.1-0.5-0.3-0.7-0.5c-0.2-0.2-0.3-0.5-0.4-0.9c-0.1-0.3-0.1-0.7-0.1-1.1
			c0-0.4,0.1-0.7,0.2-1.1c0.1-0.3,0.3-0.6,0.5-0.9s0.5-0.4,0.9-0.5c0.3-0.1,0.7-0.2,1.2-0.2s0.7,0.1,1.1,0.2
			c0.3,0.1,0.5,0.3,0.7,0.5c0.2,0.2,0.3,0.5,0.4,0.9C549,440.9,549,441.4,549,441.8z M547.6,441.8c0-0.2,0-0.4-0.1-0.6
			c0-0.2-0.1-0.3-0.2-0.5c-0.1-0.1-0.2-0.2-0.3-0.3c-0.1-0.1-0.3-0.1-0.5-0.1s-0.3,0-0.5,0.1s-0.3,0.2-0.3,0.3
			c-0.1,0.1-0.2,0.3-0.2,0.5s-0.1,0.4-0.1,0.6s0,0.4,0.1,0.6c0,0.2,0.1,0.3,0.2,0.5c0.1,0.2,0.2,0.2,0.3,0.3
			c0.1,0.1,0.3,0.1,0.5,0.1s0.4,0,0.5-0.1c0.1-0.1,0.3-0.2,0.3-0.3c0.1-0.1,0.2-0.3,0.2-0.5S547.6,442.1,547.6,441.8z"/>
		<path class="st32" d="M553.2,439.9c0,0.1,0,0.2,0,0.3c0,0.1,0,0.1,0,0.2c0,0,0,0.1-0.1,0.1c-0.1,0,0,0-0.1,0h-0.1h-0.1h-0.1
			c0,0-0.1,0-0.2,0c-0.1,0-0.1,0-0.2,0s-0.1,0.1-0.2,0.1c-0.1,0.1-0.2,0.1-0.2,0.2c-0.1,0.1-0.2,0.2-0.3,0.4v3v0.1
			c0,0-0.1,0-0.1,0.1s-0.1,0-0.2,0c-0.1,0-0.2,0-0.3,0c-0.1,0-0.2,0-0.3,0c-0.1,0-0.1,0-0.2,0c-0.1,0-0.1,0-0.1-0.1v-0.1v-4.7v-0.1
			c0,0,0,0,0.1-0.1c0.1-0.1,0.1,0,0.2,0c0.1,0,0.2,0,0.3,0c0.1,0,0.2,0,0.3,0c0.1,0,0.1,0,0.2,0c0,0,0.1,0,0.1,0.1v0.1v0.6
			c0.1-0.2,0.2-0.3,0.3-0.4c0.1-0.1,0.2-0.2,0.3-0.3c0.1-0.1,0.2-0.1,0.3-0.1c0.1,0,0.2,0,0.3,0h0.1c0,0,0.1,0,0.2,0
			c0.1,0,0.1,0,0.1,0h0.1c0,0,0,0,0,0.1c0,0,0,0,0,0.1c0,0,0,0.1,0,0.2C553.2,439.7,553.2,439.8,553.2,439.9z"/>
		<path class="st32" d="M558.4,444.2C558.4,444.3,558.4,444.3,558.4,444.2c0,0.1-0.1,0.1-0.1,0.1s-0.1,0-0.2,0s-0.2,0-0.3,0
			c-0.1,0-0.2,0-0.3,0c-0.1,0-0.2,0-0.2,0c-0.1,0-0.1,0-0.1-0.1c0-0.1-0.1-0.1-0.1-0.1l-1.6-2.5v2.5v0.1c0,0-0.1,0-0.1,0.1
			c0,0.1-0.1,0-0.2,0s-0.2,0-0.3,0c-0.1,0-0.2,0-0.3,0c-0.1,0-0.1,0-0.2,0s-0.1,0-0.1-0.1V444v-6.9V437c0,0,0.1,0,0.1-0.1
			c0,0,0.1,0,0.2,0s0.2,0,0.3,0c0.1,0,0.2,0,0.3,0c0.1,0,0.1,0,0.2,0c0,0,0.1,0,0.1,0.1s0,0.1,0,0.1v4.2l1.4-1.9l0.1-0.1l0.1-0.1
			c0,0,0.1,0,0.2,0c0.1,0,0.2,0,0.3,0c0.1,0,0.2,0,0.3,0c0.1,0,0.2,0,0.2,0c0.1,0,0.1,0,0.1,0.1v0.1c0,0,0,0.1,0,0.2
			s-0.1,0.1-0.1,0.2l-1.4,1.6l1.6,2.5c0,0.1,0.1,0.1,0.1,0.2C558.4,444.2,558.4,444.2,558.4,444.2z"/>
		<path class="st32" d="M566.5,441.8c0,0.4,0,0.7-0.1,1.1c-0.1,0.3-0.2,0.6-0.5,0.9c-0.2,0.2-0.5,0.4-0.9,0.5
			c-0.3,0.1-0.7,0.2-1.2,0.2c-0.4,0-0.7-0.1-1.1-0.2c-0.3-0.1-0.5-0.3-0.7-0.5c-0.2-0.2-0.3-0.5-0.4-0.9c-0.1-0.3-0.1-0.7-0.1-1.1
			c0-0.4,0.1-0.7,0.2-1.1c0.1-0.3,0.3-0.6,0.5-0.9s0.5-0.4,0.9-0.5c0.3-0.1,0.7-0.2,1.2-0.2c0.4,0,0.7,0.1,1.1,0.2
			c0.3,0.1,0.5,0.3,0.7,0.5c0.2,0.2,0.3,0.5,0.4,0.9C566.4,440.9,566.5,441.4,566.5,441.8z M565.2,441.8c0-0.2,0-0.4-0.1-0.6
			c0-0.2-0.1-0.3-0.2-0.5c-0.1-0.1-0.2-0.2-0.3-0.3c-0.1-0.1-0.3-0.1-0.5-0.1s-0.3,0-0.5,0.1c-0.2,0.1-0.3,0.2-0.3,0.3
			c-0.1,0.1-0.2,0.3-0.2,0.5s-0.1,0.4-0.1,0.6s0,0.4,0.1,0.6c0,0.2,0.1,0.3,0.2,0.5c0.1,0.2,0.2,0.2,0.3,0.3
			c0.1,0.1,0.3,0.1,0.5,0.1s0.4,0,0.5-0.1c0.1-0.1,0.3-0.2,0.3-0.3c0.1-0.1,0.2-0.3,0.2-0.5S565.2,442.1,565.2,441.8z"/>
		<path class="st32" d="M572.1,444.2C572.1,444.3,572.1,444.3,572.1,444.2c0,0.1-0.1,0.1-0.1,0.1s-0.1,0-0.2,0c-0.1,0-0.2,0-0.3,0
			c-0.1,0-0.2,0-0.3,0c-0.1,0-0.1,0-0.2,0c0,0-0.1,0-0.1-0.1V444v-2.7c0-0.2,0-0.4,0-0.5s-0.1-0.2-0.1-0.3c-0.1-0.1-0.1-0.2-0.2-0.2
			c-0.1,0-0.2-0.1-0.3-0.1c-0.2,0-0.3,0.1-0.5,0.2s-0.3,0.3-0.5,0.5v3.1v0.1c0,0-0.1,0-0.1,0.1c0,0.1-0.1,0-0.2,0
			c-0.1,0-0.2,0-0.3,0c-0.1,0-0.2,0-0.3,0c-0.1,0-0.1,0-0.2,0c-0.1,0-0.1,0-0.1-0.1V444v-4.7v-0.1c0,0,0,0,0.1-0.1
			c0.1-0.1,0.1,0,0.2,0c0.1,0,0.2,0,0.3,0c0.1,0,0.2,0,0.3,0c0.1,0,0.1,0,0.2,0c0,0,0.1,0,0.1,0.1v0.1v0.5c0.2-0.3,0.5-0.5,0.7-0.6
			c0.3-0.1,0.5-0.2,0.9-0.2c0.3,0,0.6,0,0.9,0.1s0.4,0.2,0.5,0.4c0.1,0.2,0.2,0.4,0.3,0.6c0.1,0.2,0.1,0.5,0.1,0.9v3.1H572.1z"/>
		<path class="st32" d="M577.3,437.9c0,0.3-0.1,0.4-0.2,0.5c-0.1,0.1-0.3,0.1-0.6,0.1c-0.3,0-0.5,0-0.6-0.1
			c-0.1-0.1-0.1-0.3-0.1-0.5c0-0.3,0.1-0.4,0.2-0.5c0.1-0.1,0.3-0.1,0.6-0.1c0.3,0,0.5,0,0.6,0.1
			C577.2,437.4,577.3,437.6,577.3,437.9z M577.2,444.2C577.2,444.3,577.2,444.3,577.2,444.2c0,0.1-0.1,0.1-0.1,0.1s-0.1,0-0.2,0
			c-0.1,0-0.2,0-0.3,0c-0.1,0-0.2,0-0.3,0c-0.1,0-0.1,0-0.2,0c-0.1,0-0.1,0-0.1-0.1V444v-4.7v-0.1c0,0,0.1,0,0.1-0.1
			c0,0,0.1,0,0.2,0c0.1,0,0.2,0,0.3,0c0.1,0,0.2,0,0.3,0s0.1,0,0.2,0c0,0,0.1,0,0.1,0.1v0.1V444.2z"/>
		<path class="st32" d="M581.4,443.7c0,0.1,0,0.3,0,0.3c0,0.1,0,0.1-0.1,0.2l-0.1,0.1c-0.1,0-0.1,0-0.2,0.1c-0.1,0-0.2,0-0.3,0
			c-0.1,0-0.2,0-0.3,0c-0.2,0-0.5,0-0.6-0.1s-0.3-0.2-0.5-0.3c-0.1-0.1-0.2-0.3-0.3-0.5c-0.1-0.2-0.1-0.4-0.1-0.7v-2.5h-0.5
			c-0.1,0-0.1,0-0.1-0.1s0-0.2,0-0.4c0-0.1,0-0.2,0-0.2c0-0.1,0-0.1,0-0.2c0,0,0-0.1,0.1-0.1s0.1,0,0.1,0h0.5v-1.1v-0.1
			c0,0,0.1,0,0.1-0.1c0-0.1,0.1,0,0.2,0c0.1,0,0.2,0,0.3,0c0.1,0,0.2,0,0.3,0c0.1,0,0.1,0,0.2,0c0,0,0.1,0,0.1,0.1v0.1v1.1h1.1h0.1
			c0,0,0,0,0.1,0.1c0.1,0.1,0,0.1,0,0.2s0,0.1,0,0.2c0,0.2,0,0.3,0,0.4s-0.1,0.1-0.1,0.1h-1.1v2.2c0,0.2,0,0.4,0.1,0.5
			c0.1,0.1,0.2,0.2,0.4,0.2c0.1,0,0.1,0,0.2,0c0.1,0,0.1,0,0.1,0h0.1h0.1c0,0,0,0,0.1,0c0,0,0,0,0,0.1v0.1
			C581.4,443.5,581.4,443.6,581.4,443.7z"/>
		<path class="st32" d="M584.3,443.7c0,0.1,0,0.3,0,0.3c0,0.1-0.1,0.2-0.1,0.2c-0.1,0.1-0.1,0.1-0.2,0.1s-0.2,0-0.3,0
			c-0.1,0-0.2,0-0.3,0c-0.1,0-0.2-0.1-0.2-0.1c-0.1-0.1-0.1-0.1-0.1-0.2s0-0.2,0-0.3c0-0.1,0-0.3,0-0.3c0-0.1,0.1-0.2,0.1-0.2
			c0.1-0.1,0.1-0.1,0.2-0.1c0.1,0,0.2,0,0.3,0c0.1,0,0.2,0,0.3,0c0.1,0,0.2,0.1,0.2,0.1s0.1,0.1,0.1,0.2
			C584.3,443.4,584.3,443.5,584.3,443.7z M584.1,442.1C584.1,442.1,584.1,442.2,584.1,442.1c0,0.1-0.1,0.1-0.1,0.2s-0.1,0-0.2,0
			s-0.2,0-0.3,0c-0.1,0-0.2,0-0.3,0c-0.1,0-0.1,0-0.2,0c-0.1,0-0.1,0-0.1-0.1v-0.1l-0.1-4.8v-0.1l0.1-0.1c0.1,0,0.1,0,0.2,0
			c0.1,0,0.2,0,0.3,0c0.1,0,0.2,0,0.3,0c0.1,0,0.2,0,0.2,0c0.1,0,0.1,0,0.1,0.1c0,0.1,0,0.1,0,0.1L584.1,442.1z"/>
	</g>
	<g>
		<path class="st32" d="M526.2,430.2h-44.8v-3.8h40.9C524.5,426.3,526.2,428,526.2,430.2L526.2,430.2z"/>
	</g>
	<g>
		<path class="st33" d="M570.9,379.7h-89.4v-3.8h85.6C569.2,376,570.9,377.7,570.9,379.7L570.9,379.7z"/>
	</g>
	<g>
		<line class="st39" x1="481.5" y1="412.5" x2="481.5" y2="421.6"/>
		<rect x="481.3" y="412.5" class="st35" width="0.3" height="9.1"/>
	</g>
	<g>
		<line class="st39" x1="504.6" y1="417.1" x2="504.6" y2="421.6"/>
		<rect x="504.5" y="417.1" class="st35" width="0.3" height="4.6"/>
	</g>
	<g>
		<line class="st39" x1="526.2" y1="412.5" x2="526.2" y2="421.6"/>
		<rect x="526.1" y="412.5" class="st35" width="0.3" height="9.1"/>
	</g>
	<g>
		<line class="st39" x1="549.2" y1="417.1" x2="549.2" y2="421.6"/>
		<rect x="549.1" y="417.1" class="st35" width="0.3" height="4.6"/>
	</g>
	<g>
		<line class="st39" x1="570.9" y1="412.5" x2="570.9" y2="421.6"/>
		<rect x="570.8" y="412.5" class="st35" width="0.3" height="9.1"/>
	</g>
	<g>
		<line class="st39" x1="594" y1="417.1" x2="594" y2="421.6"/>
		<rect x="593.9" y="417.1" class="st35" width="0.3" height="4.6"/>
	</g>
	<g>
		<line class="st39" x1="615.7" y1="412.5" x2="615.7" y2="421.6"/>
		<rect x="615.5" y="412.5" class="st35" width="0.3" height="9.1"/>
	</g>
	<g>
		<path class="st33" d="M505.8,391.4v2.5v0.1c0,0-0.1,0-0.1,0.1c0,0.1-0.1,0-0.2,0c-0.1,0-0.2,0-0.3,0c-0.1,0-0.2,0-0.3,0
			c-0.1,0-0.1,0-0.2,0c-0.1,0-0.1,0-0.1-0.1v-0.1v-2.5l-1.9-3.7c-0.1-0.1-0.1-0.2-0.1-0.3c0-0.1,0-0.1,0-0.2c0,0,0.1-0.1,0.2-0.1
			s0.2,0,0.4,0c0.2,0,0.3,0,0.4,0s0.2,0,0.2,0c0.1,0,0.1,0,0.1,0.1c0,0,0,0.1,0.1,0.1l0.7,1.7c0.1,0.2,0.1,0.3,0.2,0.5
			s0.1,0.3,0.2,0.5l0,0c0.1-0.2,0.1-0.4,0.2-0.5c0.1-0.2,0.1-0.3,0.2-0.5l0.7-1.7c0-0.1,0-0.1,0.1-0.1l0.1-0.1c0,0,0.1,0,0.2,0
			s0.2,0,0.3,0c0.2,0,0.3,0,0.4,0s0.2,0,0.2,0.1c0,0,0,0.1,0,0.2s-0.1,0.2-0.1,0.3L505.8,391.4z"/>
		<path class="st33" d="M512.9,391.4c0,0.4,0,0.7-0.1,1.1c-0.1,0.3-0.2,0.6-0.5,0.9c-0.2,0.2-0.5,0.4-0.9,0.5
			c-0.3,0.1-0.7,0.2-1.2,0.2c-0.4,0-0.7-0.1-1.1-0.2s-0.5-0.3-0.7-0.5c-0.2-0.2-0.3-0.5-0.4-0.9c-0.1-0.3-0.1-0.7-0.1-1.1
			c0-0.4,0.1-0.7,0.2-1.1c0.1-0.3,0.3-0.6,0.5-0.9c0.2-0.2,0.5-0.4,0.9-0.5c0.3-0.1,0.7-0.2,1.2-0.2s0.7,0.1,1.1,0.2
			c0.3,0.1,0.5,0.3,0.7,0.5s0.3,0.5,0.4,0.9C512.8,390.6,512.9,391,512.9,391.4z M511.5,391.5c0-0.2,0-0.4-0.1-0.6
			c0-0.2-0.1-0.3-0.2-0.5c-0.1-0.1-0.2-0.2-0.3-0.3c-0.1-0.1-0.3-0.1-0.5-0.1c-0.2,0-0.3,0-0.5,0.1c-0.2,0.1-0.3,0.2-0.3,0.3
			c-0.1,0.1-0.2,0.3-0.2,0.5c0,0.2-0.1,0.4-0.1,0.6c0,0.2,0,0.4,0.1,0.6c0,0.2,0.1,0.3,0.2,0.5c0.1,0.2,0.2,0.2,0.3,0.3
			c0.1,0.1,0.3,0.1,0.5,0.1c0.2,0,0.4,0,0.5-0.1s0.3-0.2,0.3-0.3c0.1-0.1,0.2-0.3,0.2-0.5C511.4,391.9,511.5,391.7,511.5,391.5z"/>
		<path class="st33" d="M518.5,393.8L518.5,393.8c0,0.1-0.1,0.1-0.1,0.1s-0.1,0-0.2,0c-0.1,0-0.2,0-0.3,0c-0.1,0-0.2,0-0.3,0
			c-0.1,0-0.1,0-0.2,0c0,0-0.1,0-0.1-0.1v-0.1v-0.4c-0.2,0.3-0.5,0.5-0.7,0.6c-0.3,0.1-0.5,0.2-0.9,0.2c-0.3,0-0.6,0-0.9-0.1
			c-0.2-0.1-0.4-0.2-0.5-0.4s-0.2-0.4-0.3-0.6c-0.1-0.2-0.1-0.5-0.1-0.9V389v-0.1c0,0,0.1,0,0.1-0.1c0,0,0.1,0,0.2,0
			c0.1,0,0.2,0,0.3,0c0.1,0,0.2,0,0.3,0s0.1,0,0.2,0s0.1,0,0.1,0.1v0.1v2.7c0,0.2,0,0.4,0,0.5s0.1,0.2,0.1,0.3
			c0.1,0.1,0.1,0.2,0.2,0.2s0.2,0.1,0.3,0.1c0.2,0,0.3-0.1,0.5-0.2c0.2-0.1,0.3-0.3,0.5-0.5V389v-0.1c0,0,0.1,0,0.1-0.1s0.1,0,0.2,0
			c0.1,0,0.2,0,0.3,0c0.1,0,0.2,0,0.3,0c0.1,0,0.1,0,0.2,0c0.1,0,0.1,0,0.1,0.1v0.1v4.8H518.5z"/>
		<path class="st33" d="M521.6,387.1c0,0.1,0,0.2,0,0.4c0,0.1,0,0.2-0.1,0.3c0,0.1-0.1,0.2-0.1,0.3c0,0.1-0.1,0.2-0.2,0.3l-0.7,1.1
			c0,0,0,0.1-0.1,0.1c0,0-0.1,0-0.1,0.1h-0.1c-0.1,0-0.1,0-0.2,0s-0.2,0-0.2,0c-0.1,0-0.1,0-0.1,0s0,0,0-0.1v-0.1l0.6-1.5v-0.9
			c0-0.1,0-0.2,0-0.3s0.1-0.1,0.1-0.2c0.1,0,0.1-0.1,0.2-0.1c0.1,0,0.2,0,0.3,0c0.1,0,0.2,0,0.3,0c0.1,0,0.2,0,0.2,0.1
			s0.1,0.1,0.1,0.2C521.6,386.9,521.6,387,521.6,387.1z"/>
		<path class="st33" d="M525.3,389.6c0,0.1,0,0.2,0,0.3c0,0.1,0,0.1,0,0.2c0,0,0,0.1-0.1,0.1c-0.1,0,0,0-0.1,0H525h-0.1h-0.1
			c0,0-0.1,0-0.2,0c-0.1,0-0.1,0-0.2,0c-0.1,0-0.1,0.1-0.2,0.1c-0.1,0.1-0.2,0.1-0.2,0.2c-0.1,0.1-0.2,0.2-0.3,0.4v3v0.1
			c0,0-0.1,0-0.1,0.1c0,0.1-0.1,0-0.2,0c-0.1,0-0.2,0-0.3,0c-0.1,0-0.2,0-0.3,0c-0.1,0-0.1,0-0.2,0c-0.1,0-0.1,0-0.1-0.1V394V389
			v-0.1c0,0,0,0,0.1-0.1c0.1-0.1,0.1,0,0.2,0c0.1,0,0.2,0,0.3,0c0.1,0,0.2,0,0.3,0s0.1,0,0.2,0c0,0,0.1,0,0.1,0.1v0.1v0.6
			c0.1-0.2,0.2-0.3,0.3-0.4c0.1-0.1,0.2-0.2,0.3-0.3c0.1-0.1,0.2-0.1,0.3-0.1c0.1,0,0.2,0,0.3,0h0.1c0,0,0.1,0,0.2,0
			c0.1,0,0.1,0,0.1,0h0.1c0,0,0,0,0,0.1c0,0,0,0,0,0.1c0,0,0,0.1,0,0.2C525.3,389.3,525.3,389.4,525.3,389.6z"/>
		<path class="st33" d="M530.5,391.3c0,0.2,0,0.3-0.1,0.3c-0.1,0.1-0.2,0.1-0.3,0.1h-2.9c0,0.2,0,0.4,0.1,0.5c0,0.2,0.1,0.3,0.2,0.4
			c0.1,0.1,0.2,0.2,0.4,0.2c0.2,0.1,0.3,0.1,0.6,0.1c0.2,0,0.4,0,0.6,0s0.3-0.1,0.4-0.1c0.1,0,0.2-0.1,0.3-0.1c0.1,0,0.1,0,0.2,0
			h0.1c0,0,0,0,0,0.1v0.1c0,0.1,0,0.1,0,0.2s0,0.1,0,0.2c0,0.1,0,0.1,0,0.1v0.1c0,0,0,0-0.1,0.1c0,0-0.1,0.1-0.2,0.1
			c-0.1,0-0.2,0.1-0.4,0.1c-0.1,0-0.3,0.1-0.5,0.1s-0.4,0-0.6,0c-0.4,0-0.7,0-1.1-0.1c-0.3-0.1-0.5-0.2-0.7-0.5
			c-0.2-0.2-0.3-0.5-0.4-0.9c-0.1-0.3-0.1-0.7-0.1-1.2c0-0.4,0.1-0.7,0.2-1.2c0.1-0.4,0.3-0.6,0.4-0.9c0.2-0.2,0.4-0.4,0.7-0.5
			c0.3-0.1,0.6-0.2,1-0.2c0.4,0,0.7,0.1,1,0.2c0.3,0.1,0.5,0.3,0.6,0.5c0.1,0.2,0.3,0.4,0.4,0.7c0.1,0.3,0.1,0.6,0.1,1L530.5,391.3
			L530.5,391.3z M529.3,391c0-0.4-0.1-0.6-0.2-0.9c-0.2-0.2-0.4-0.3-0.7-0.3c-0.2,0-0.3,0-0.4,0.1c-0.1,0.1-0.2,0.1-0.3,0.2
			c-0.1,0.1-0.1,0.2-0.2,0.4c0,0.1-0.1,0.3-0.1,0.4L529.3,391L529.3,391z"/>
		<path class="st33" d="M538.1,393.8v0.1c0,0-0.1,0-0.2,0.1c-0.1,0.1-0.2,0-0.3,0c-0.1,0-0.3,0-0.3,0c-0.1,0-0.1,0-0.1-0.1
			s0-0.1,0-0.1v-0.4c-0.2,0.2-0.4,0.3-0.6,0.5c-0.2,0.1-0.5,0.2-0.9,0.2c-0.2,0-0.5,0-0.6-0.1c-0.2-0.1-0.4-0.2-0.5-0.3
			c-0.1-0.1-0.3-0.3-0.3-0.4c-0.1-0.2-0.1-0.4-0.1-0.6c0-0.3,0.1-0.5,0.2-0.7c0.1-0.2,0.3-0.3,0.5-0.5c0.2-0.2,0.4-0.2,0.7-0.3
			c0.3-0.1,0.6-0.1,1.1-0.1h0.4v-0.3c0-0.1,0-0.3,0-0.4s-0.1-0.2-0.1-0.3c-0.1-0.1-0.2-0.1-0.3-0.2c-0.1-0.1-0.2,0-0.4,0
			s-0.4,0-0.6,0.1c-0.2,0-0.3,0.1-0.4,0.2c-0.1,0.1-0.2,0.1-0.3,0.2c-0.1,0-0.2,0.1-0.2,0.1h-0.1l-0.1-0.1c0,0,0-0.1,0-0.2
			s0-0.1,0-0.2c0-0.1,0-0.2,0-0.2s0-0.1,0.1-0.2c0,0,0.1-0.1,0.2-0.2c0.1-0.1,0.3-0.1,0.4-0.2c0.2,0,0.3-0.1,0.5-0.1s0.4,0,0.6,0
			c0.3,0,0.6,0,1,0.1c0.2,0.1,0.4,0.2,0.6,0.3c0.2,0.1,0.3,0.3,0.3,0.5c0.1,0.2,0.1,0.5,0.1,0.9v3.2H538.1z M536.9,391.8h-0.5
			c-0.2,0-0.4,0-0.5,0c-0.1,0-0.3,0.1-0.3,0.1c-0.1,0.1-0.2,0.1-0.2,0.2s-0.1,0.2-0.1,0.3c0,0.2,0.1,0.3,0.2,0.4s0.3,0.2,0.5,0.2
			s0.3,0,0.5-0.1c0.1-0.1,0.3-0.2,0.4-0.4L536.9,391.8L536.9,391.8z"/>
		<path class="st33" d="M540.9,393.8C540.9,393.8,540.8,393.8,540.9,393.8c0,0.1-0.1,0.1-0.1,0.1s-0.1,0-0.2,0c-0.1,0-0.2,0-0.3,0
			c-0.1,0-0.2,0-0.3,0c-0.1,0-0.1,0-0.2,0c-0.1,0-0.1,0-0.1-0.1v-0.1v-6.8v-0.1c0,0,0.1,0,0.1-0.1c0,0,0.1,0,0.2,0
			c0.1,0,0.2,0,0.3,0c0.1,0,0.2,0,0.3,0c0.1,0,0.1,0,0.2,0c0,0,0.1,0,0.1,0.1s0,0.1,0,0.1V393.8z"/>
		<path class="st33" d="M549.8,393.8L549.8,393.8c0,0.1-0.1,0.1-0.1,0.1s-0.1,0-0.2,0c-0.1,0-0.2,0-0.3,0c-0.1,0-0.2,0-0.3,0
			c-0.1,0-0.1,0-0.2,0c-0.1,0-0.1,0-0.1-0.1v-0.1V391c0-0.1,0-0.3,0-0.4c0-0.1-0.1-0.2-0.1-0.3c-0.1-0.1-0.1-0.2-0.2-0.2
			c-0.1,0-0.2-0.1-0.3-0.1c-0.1,0-0.3,0.1-0.5,0.2c-0.2,0.1-0.3,0.3-0.5,0.5v3.1v0.1c0,0-0.1,0-0.1,0.1s-0.1,0-0.2,0
			c-0.1,0-0.2,0-0.3,0c-0.1,0-0.2,0-0.3,0c-0.1,0-0.1,0-0.2,0c-0.1,0-0.1,0-0.1-0.1v-0.1V391c0-0.1,0-0.3,0-0.4
			c0-0.1-0.1-0.2-0.1-0.3c-0.1-0.1-0.1-0.2-0.2-0.2c-0.1,0-0.2-0.1-0.3-0.1c-0.2,0-0.3,0.1-0.5,0.2c-0.2,0.1-0.3,0.3-0.5,0.5v3.1
			v0.1c0,0-0.1,0-0.1,0.1s-0.1,0-0.2,0c-0.1,0-0.2,0-0.3,0c-0.1,0-0.2,0-0.3,0c-0.1,0-0.1,0-0.2,0c-0.1,0-0.1,0-0.1-0.1v-0.1V389
			v-0.1c0,0,0,0,0.1-0.1c0.1-0.1,0.1,0,0.2,0c0.1,0,0.2,0,0.3,0c0.1,0,0.2,0,0.3,0c0.1,0,0.1,0,0.2,0c0,0,0.1,0,0.1,0.1v0.1v0.5
			c0.2-0.3,0.5-0.5,0.7-0.6s0.5-0.2,0.9-0.2c0.2,0,0.3,0,0.5,0.1c0.1,0,0.3,0.1,0.4,0.2c0.1,0.1,0.2,0.2,0.3,0.3
			c0.1,0.1,0.2,0.2,0.2,0.3c0.1-0.1,0.3-0.3,0.4-0.4c0.1-0.1,0.3-0.2,0.4-0.3c0.1-0.1,0.2-0.1,0.4-0.1c0.2,0,0.3,0,0.4,0
			c0.3,0,0.5,0,0.7,0.1s0.4,0.2,0.5,0.4c0.1,0.2,0.2,0.4,0.3,0.6c0.1,0.2,0.1,0.5,0.1,0.7v3.1H549.8z"/>
		<path class="st33" d="M555.9,391.4c0,0.4,0,0.7-0.1,1.1c-0.1,0.3-0.2,0.6-0.5,0.9c-0.2,0.2-0.5,0.4-0.9,0.5
			c-0.3,0.1-0.7,0.2-1.2,0.2c-0.4,0-0.7-0.1-1.1-0.2c-0.3-0.1-0.5-0.3-0.7-0.5c-0.2-0.2-0.3-0.5-0.4-0.9c-0.1-0.3-0.1-0.7-0.1-1.1
			c0-0.4,0.1-0.7,0.2-1.1c0.1-0.3,0.3-0.6,0.5-0.9c0.2-0.2,0.5-0.4,0.9-0.5s0.7-0.2,1.2-0.2c0.4,0,0.7,0.1,1.1,0.2
			c0.3,0.1,0.5,0.3,0.7,0.5s0.3,0.5,0.4,0.9C555.9,390.6,555.9,391,555.9,391.4z M554.5,391.5c0-0.2,0-0.4-0.1-0.6
			c0-0.2-0.1-0.3-0.2-0.5c-0.1-0.1-0.2-0.2-0.3-0.3c-0.1-0.1-0.3-0.1-0.5-0.1s-0.3,0-0.5,0.1c-0.2,0.1-0.3,0.2-0.3,0.3
			c-0.1,0.1-0.2,0.3-0.2,0.5c0,0.2-0.1,0.4-0.1,0.6c0,0.2,0,0.4,0.1,0.6c0,0.2,0.1,0.3,0.2,0.5c0.1,0.2,0.2,0.2,0.3,0.3
			c0.1,0.1,0.3,0.1,0.5,0.1s0.4,0,0.5-0.1c0.1-0.1,0.3-0.2,0.3-0.3c0.1-0.1,0.2-0.3,0.2-0.5C554.4,391.9,554.5,391.7,554.5,391.5z"
			/>
		<path class="st33" d="M560.3,392.5c0,0.3,0,0.5-0.1,0.7c-0.1,0.2-0.2,0.4-0.4,0.5s-0.4,0.2-0.6,0.3c-0.2,0.1-0.5,0.1-0.9,0.1
			c-0.2,0-0.3,0-0.5,0s-0.3-0.1-0.4-0.1s-0.2-0.1-0.3-0.1c-0.1,0-0.1-0.1-0.2-0.1c0,0-0.1-0.1-0.1-0.2s0-0.2,0-0.3
			c0-0.1,0-0.2,0-0.2c0-0.1,0-0.1,0-0.1v-0.1c0,0,0,0,0.1,0c0,0,0.1,0,0.2,0.1c0.1,0,0.2,0.1,0.3,0.1c0.1,0,0.2,0.1,0.4,0.1
			c0.1,0,0.3,0.1,0.5,0.1c0.1,0,0.2,0,0.3,0c0.1,0,0.2-0.1,0.2-0.1s0.1-0.1,0.1-0.2s0-0.1,0-0.2c0-0.1,0-0.2-0.1-0.3
			c-0.1-0.1-0.1-0.1-0.2-0.2c-0.1-0.1-0.2-0.1-0.3-0.1c-0.1,0-0.3-0.1-0.4-0.2c-0.1-0.1-0.3-0.1-0.4-0.2c-0.1-0.1-0.2-0.2-0.3-0.3
			c-0.1-0.1-0.2-0.2-0.2-0.4c-0.1-0.1-0.1-0.3-0.1-0.5s0-0.4,0.1-0.6c0.1-0.2,0.2-0.3,0.4-0.5c0.2-0.1,0.3-0.2,0.6-0.3
			c0.2-0.1,0.5-0.1,0.9-0.1c0.1,0,0.3,0,0.4,0c0.1,0,0.2,0,0.4,0.1c0.1,0,0.2,0.1,0.3,0.1s0.1,0.1,0.2,0.1c0,0,0.1,0,0.1,0.1v0.1
			v0.1c0,0.1,0,0.1,0,0.2s0,0.2,0,0.2c0,0.1,0,0.1,0,0.1v0.1c0,0,0,0-0.1,0c0,0-0.1,0-0.1-0.1c-0.1,0-0.1-0.1-0.2-0.1
			c-0.1,0-0.2-0.1-0.3-0.1c-0.1,0-0.3-0.1-0.4-0.1c-0.1,0-0.2,0-0.3,0c-0.1,0-0.2,0.1-0.2,0.1s-0.1,0.1-0.1,0.2s0,0.1,0,0.2
			s0,0.2,0.1,0.3c0.1,0.1,0.1,0.1,0.2,0.2c0.1,0.1,0.2,0.1,0.3,0.1c0.1,0,0.3,0.1,0.4,0.2c0.1,0.1,0.3,0.1,0.4,0.2
			c0.1,0.1,0.2,0.2,0.3,0.3c0.1,0.1,0.2,0.2,0.2,0.4C560.2,392,560.3,392.2,560.3,392.5z"/>
		<path class="st33" d="M564.2,393.3c0,0.1,0,0.3,0,0.3c0,0.1,0,0.1-0.1,0.2L564,394c-0.1,0-0.1,0-0.2,0.1c-0.1,0-0.2,0-0.3,0
			c-0.1,0-0.2,0-0.3,0c-0.2,0-0.5,0-0.6-0.1c-0.1-0.1-0.3-0.2-0.5-0.3c-0.1-0.1-0.2-0.3-0.3-0.5c-0.1-0.2-0.1-0.4-0.1-0.7v-2.5H561
			c-0.1,0-0.1,0-0.1-0.1c0-0.1,0-0.2,0-0.4c0-0.1,0-0.2,0-0.2c0-0.1,0-0.1,0-0.2c0,0,0-0.1,0.1-0.1c0.1,0,0.1,0,0.1,0h0.5v-1.1v-0.1
			c0,0,0.1,0,0.1-0.1s0.1,0,0.2,0s0.2,0,0.3,0c0.1,0,0.2,0,0.3,0c0.1,0,0.1,0,0.2,0c0,0,0.1,0,0.1,0.1v0.1v1.1h1.1h0.1
			c0,0,0,0,0.1,0.1c0.1,0.1,0,0.1,0,0.2c0,0.1,0,0.1,0,0.2c0,0.2,0,0.3,0,0.4c0,0.1-0.1,0.1-0.1,0.1H563v2.2c0,0.2,0,0.4,0.1,0.5
			c0.1,0.1,0.2,0.2,0.4,0.2c0.1,0,0.1,0,0.2,0c0.1,0,0.1,0,0.1,0h0.1h0.1c0,0,0,0,0.1,0c0,0,0,0,0,0.1v0.1
			C564.2,393.2,564.2,393.2,564.2,393.3z"/>
		<path class="st33" d="M570.4,393.3c0,0.1,0,0.3,0,0.3c0,0.1,0,0.1-0.1,0.2l-0.1,0.1c-0.1,0-0.1,0-0.2,0.1c-0.1,0-0.2,0-0.3,0
			c-0.1,0-0.2,0-0.3,0c-0.2,0-0.5,0-0.6-0.1c-0.1-0.1-0.3-0.2-0.5-0.3c-0.1-0.1-0.2-0.3-0.3-0.5c-0.1-0.2-0.1-0.4-0.1-0.7v-2.5h-0.5
			c-0.1,0-0.1,0-0.1-0.1c0-0.1,0-0.2,0-0.4c0-0.1,0-0.2,0-0.2c0-0.1,0-0.1,0-0.2c0,0,0-0.1,0.1-0.1c0.1,0,0.1,0,0.1,0h0.5v-1.1v-0.1
			c0,0,0.1,0,0.1-0.1s0.1,0,0.2,0c0.1,0,0.2,0,0.3,0c0.1,0,0.2,0,0.3,0c0.1,0,0.1,0,0.2,0c0,0,0.1,0,0.1,0.1v0.1v1.1h1.1h0.1
			c0,0,0,0,0.1,0.1c0.1,0.1,0,0.1,0,0.2c0,0.1,0,0.1,0,0.2c0,0.2,0,0.3,0,0.4c0,0.1-0.1,0.1-0.1,0.1h-1.1v2.2c0,0.2,0,0.4,0.1,0.5
			c0.1,0.1,0.2,0.2,0.4,0.2c0.1,0,0.1,0,0.2,0c0.1,0,0.1,0,0.1,0h0.1h0.1c0,0,0,0,0.1,0c0,0,0,0,0,0.1v0.1
			C570.4,393.2,570.4,393.2,570.4,393.3z"/>
		<path class="st33" d="M575.9,393.8L575.9,393.8c0,0.1-0.1,0.1-0.1,0.1s-0.1,0-0.2,0c-0.1,0-0.2,0-0.3,0c-0.1,0-0.2,0-0.3,0
			c-0.1,0-0.1,0-0.2,0c0,0-0.1,0-0.1-0.1v-0.1v-2.7c0-0.2,0-0.4,0-0.5c0-0.1-0.1-0.2-0.1-0.3c-0.1-0.1-0.1-0.2-0.2-0.2
			c-0.1,0-0.2-0.1-0.3-0.1c-0.2,0-0.3,0.1-0.5,0.2c-0.2,0.1-0.3,0.3-0.5,0.5v3.1v0.1c0,0-0.1,0-0.1,0.1s-0.1,0-0.2,0
			c-0.1,0-0.2,0-0.3,0c-0.1,0-0.2,0-0.3,0c-0.1,0-0.1,0-0.2,0c-0.1,0-0.1,0-0.1-0.1v-0.1v-6.8v-0.1c0,0,0.1,0,0.1-0.1
			c0,0,0.1,0,0.2,0c0.1,0,0.2,0,0.3,0c0.1,0,0.2,0,0.3,0s0.1,0,0.2,0c0,0,0.1,0,0.1,0.1s0,0.1,0,0.1v2.6c0.2-0.2,0.4-0.4,0.7-0.5
			c0.3-0.1,0.5-0.2,0.7-0.2c0.3,0,0.6,0,0.9,0.1c0.2,0.1,0.4,0.2,0.5,0.4c0.1,0.2,0.2,0.4,0.3,0.6c0.1,0.2,0.1,0.5,0.1,0.9v3.1
			H575.9z"/>
		<path class="st33" d="M581.7,391.3c0,0.2,0,0.3-0.1,0.3c-0.1,0.1-0.2,0.1-0.3,0.1h-2.9c0,0.2,0,0.4,0.1,0.5c0,0.2,0.1,0.3,0.2,0.4
			c0.1,0.1,0.2,0.2,0.4,0.2c0.2,0.1,0.3,0.1,0.6,0.1c0.2,0,0.4,0,0.6,0s0.3-0.1,0.4-0.1s0.2-0.1,0.3-0.1c0.1,0,0.1,0,0.2,0h0.1
			c0,0,0,0,0,0.1v0.1c0,0.1,0,0.1,0,0.2s0,0.1,0,0.2c0,0.1,0,0.1,0,0.1v0.1c0,0,0,0-0.1,0.1c0,0-0.1,0.1-0.2,0.1
			c-0.1,0-0.2,0.1-0.4,0.1c-0.1,0-0.3,0.1-0.5,0.1s-0.4,0-0.6,0c-0.4,0-0.7,0-1.1-0.1c-0.3-0.1-0.5-0.2-0.7-0.5
			c-0.2-0.2-0.3-0.5-0.4-0.9c-0.1-0.3-0.1-0.7-0.1-1.2c0-0.4,0.1-0.7,0.2-1.2c0.1-0.4,0.3-0.6,0.4-0.9c0.2-0.2,0.4-0.4,0.7-0.5
			s0.6-0.2,1-0.2c0.4,0,0.7,0.1,1,0.2c0.3,0.1,0.5,0.3,0.6,0.5s0.3,0.4,0.4,0.7c0.1,0.3,0.1,0.6,0.1,1L581.7,391.3L581.7,391.3z
			 M580.4,391c0-0.4-0.1-0.6-0.2-0.9c-0.2-0.2-0.4-0.3-0.7-0.3c-0.2,0-0.3,0-0.4,0.1c-0.1,0.1-0.2,0.1-0.3,0.2
			c-0.1,0.1-0.1,0.2-0.2,0.4c0,0.1-0.1,0.3-0.1,0.4L580.4,391L580.4,391z"/>
		<path class="st33" d="M585.9,389.6c0,0.1,0,0.2,0,0.3c0,0.1,0,0.1,0,0.2c0,0,0,0.1-0.1,0.1c-0.1,0,0,0-0.1,0h-0.1h-0.1h-0.1
			c0,0-0.1,0-0.2,0c-0.1,0-0.1,0-0.2,0c-0.1,0-0.1,0.1-0.2,0.1c-0.1,0.1-0.2,0.1-0.2,0.2c-0.1,0.1-0.2,0.2-0.3,0.4v3v0.1
			c0,0-0.1,0-0.1,0.1c0,0.1-0.1,0-0.2,0c-0.1,0-0.2,0-0.3,0c-0.1,0-0.2,0-0.3,0s-0.1,0-0.2,0c-0.1,0-0.1,0-0.1-0.1V394V389v-0.1
			c0,0,0,0,0.1-0.1c0.1-0.1,0.1,0,0.2,0c0.1,0,0.2,0,0.3,0c0.1,0,0.2,0,0.3,0c0.1,0,0.1,0,0.2,0c0,0,0.1,0,0.1,0.1v0.1v0.6
			c0.1-0.2,0.2-0.3,0.3-0.4c0.1-0.1,0.2-0.2,0.3-0.3c0.1-0.1,0.2-0.1,0.3-0.1c0.1,0,0.2,0,0.3,0h0.1c0,0,0.1,0,0.2,0
			c0.1,0,0.1,0,0.1,0h0.1c0,0,0,0,0,0.1c0,0,0,0,0,0.1c0,0,0,0.1,0,0.2C585.9,389.3,585.9,389.4,585.9,389.6z"/>
		<path class="st33" d="M591.1,391.3c0,0.2,0,0.3-0.1,0.3c-0.1,0.1-0.2,0.1-0.3,0.1h-2.9c0,0.2,0,0.4,0.1,0.5c0,0.2,0.1,0.3,0.2,0.4
			c0.1,0.1,0.2,0.2,0.4,0.2c0.2,0.1,0.3,0.1,0.6,0.1c0.2,0,0.4,0,0.6,0c0.2,0,0.3-0.1,0.4-0.1c0.1,0,0.2-0.1,0.3-0.1
			c0.1,0,0.1,0,0.2,0h0.1c0,0,0,0,0,0.1v0.1c0,0.1,0,0.1,0,0.2s0,0.1,0,0.2c0,0.1,0,0.1,0,0.1v0.1c0,0,0,0-0.1,0.1
			c0,0-0.1,0.1-0.2,0.1s-0.2,0.1-0.4,0.1c-0.1,0-0.3,0.1-0.5,0.1c-0.2,0-0.4,0-0.6,0c-0.4,0-0.7,0-1.1-0.1c-0.3-0.1-0.5-0.2-0.7-0.5
			c-0.2-0.2-0.3-0.5-0.4-0.9c-0.1-0.3-0.1-0.7-0.1-1.2c0-0.4,0.1-0.7,0.2-1.2c0.1-0.4,0.3-0.6,0.4-0.9c0.2-0.2,0.4-0.4,0.7-0.5
			s0.6-0.2,1-0.2c0.4,0,0.7,0.1,1,0.2c0.3,0.1,0.5,0.3,0.6,0.5c0.1,0.2,0.3,0.4,0.4,0.7c0.1,0.3,0.1,0.6,0.1,1L591.1,391.3
			L591.1,391.3z M589.8,391c0-0.4-0.1-0.6-0.2-0.9c-0.2-0.2-0.4-0.3-0.7-0.3c-0.2,0-0.3,0-0.4,0.1c-0.1,0.1-0.2,0.1-0.3,0.2
			c-0.1,0.1-0.1,0.2-0.2,0.4c0,0.1-0.1,0.3-0.1,0.4L589.8,391L589.8,391z"/>
		<path class="st33" d="M594,393.3c0,0.1,0,0.3,0,0.3c0,0.1-0.1,0.2-0.1,0.2c-0.1,0.1-0.1,0.1-0.2,0.1c-0.1,0-0.2,0-0.3,0
			c-0.1,0-0.2,0-0.3,0c-0.1,0-0.2-0.1-0.2-0.1c-0.1-0.1-0.1-0.1-0.1-0.2s0-0.2,0-0.3c0-0.1,0-0.3,0-0.3c0-0.1,0.1-0.2,0.1-0.2
			c0.1-0.1,0.1-0.1,0.2-0.1c0.1,0,0.2,0,0.3,0c0.1,0,0.2,0,0.3,0c0.1,0,0.2,0.1,0.2,0.1s0.1,0.1,0.1,0.2
			C594,393,594,393.2,594,393.3z M593.9,391.7C593.9,391.8,593.9,391.8,593.9,391.7c0,0.1-0.1,0.1-0.1,0.2c0,0.1-0.1,0-0.2,0
			s-0.2,0-0.3,0s-0.2,0-0.3,0c-0.1,0-0.1,0-0.2,0c-0.1,0-0.1,0-0.1-0.1v-0.1l-0.1-4.8v-0.1l0.1-0.1c0.1,0,0.1,0,0.2,0
			c0.1,0,0.2,0,0.3,0c0.1,0,0.2,0,0.3,0c0.1,0,0.2,0,0.2,0c0.1,0,0.1,0,0.1,0.1s0,0.1,0,0.1L593.9,391.7z"/>
	</g>
	<g>
		<line class="st39" x1="482.2" y1="362.1" x2="482.2" y2="371.3"/>
		<rect x="482.1" y="362.1" class="st35" width="0.3" height="9.1"/>
	</g>
	<g>
		<line class="st39" x1="504.6" y1="366.7" x2="504.6" y2="371.3"/>
		<rect x="504.5" y="366.7" class="st35" width="0.3" height="4.6"/>
	</g>
	<g>
		<line class="st39" x1="526.2" y1="362.1" x2="526.2" y2="371.3"/>
		<rect x="526.1" y="362.1" class="st35" width="0.3" height="9.1"/>
	</g>
	<g>
		<line class="st39" x1="549.2" y1="366.7" x2="549.2" y2="371.3"/>
		<rect x="549.1" y="366.7" class="st35" width="0.3" height="4.6"/>
	</g>
	<g>
		<line class="st39" x1="570.9" y1="362.1" x2="570.9" y2="371.3"/>
		<rect x="570.8" y="362.1" class="st35" width="0.3" height="9.1"/>
	</g>
	<g>
		<line class="st39" x1="594" y1="366.7" x2="594" y2="371.3"/>
		<rect x="593.9" y="366.7" class="st35" width="0.3" height="4.6"/>
	</g>
	<g>
		<line class="st39" x1="615.7" y1="362.1" x2="615.7" y2="371.3"/>
		<rect x="615.5" y="362.1" class="st35" width="0.3" height="9.1"/>
	</g>
	<g>
		<path class="st40" d="M528.5,341.1v2.5v0.1c0,0-0.1,0-0.1,0.1s-0.1,0-0.2,0c-0.1,0-0.2,0-0.3,0c-0.1,0-0.2,0-0.3,0s-0.1,0-0.2,0
			s-0.1,0-0.1-0.1v-0.1v-2.5l-1.9-3.7c-0.1-0.1-0.1-0.2-0.1-0.3c0-0.1,0-0.1,0-0.2c0,0,0.1-0.1,0.2-0.1c0.1,0,0.2,0,0.4,0
			s0.3,0,0.4,0s0.2,0,0.2,0c0.1,0,0.1,0,0.1,0.1c0,0,0,0.1,0.1,0.1l0.7,1.7c0.1,0.2,0.1,0.3,0.2,0.5c0.1,0.2,0.1,0.3,0.2,0.5l0,0
			c0.1-0.2,0.1-0.4,0.2-0.5c0.1-0.2,0.1-0.3,0.2-0.5l0.7-1.7c0-0.1,0-0.1,0.1-0.1l0.1-0.1c0,0,0.1,0,0.2,0s0.2,0,0.3,0
			c0.2,0,0.3,0,0.4,0c0.1,0,0.2,0,0.2,0.1c0,0,0,0.1,0,0.2c0,0.1-0.1,0.2-0.1,0.3L528.5,341.1z"/>
		<path class="st40" d="M535.7,341.1c0,0.4,0,0.7-0.1,1.1c-0.1,0.3-0.2,0.6-0.5,0.9c-0.2,0.2-0.5,0.4-0.9,0.5
			c-0.3,0.1-0.7,0.2-1.2,0.2s-0.7-0.1-1.1-0.2c-0.3-0.1-0.5-0.3-0.7-0.5c-0.2-0.2-0.3-0.5-0.4-0.9c-0.1-0.3-0.1-0.7-0.1-1.1
			c0-0.4,0.1-0.7,0.2-1.1c0.1-0.3,0.3-0.6,0.5-0.9c0.2-0.2,0.5-0.4,0.9-0.5c0.3-0.1,0.7-0.2,1.2-0.2s0.7,0.1,1.1,0.2
			c0.3,0.1,0.5,0.3,0.7,0.5c0.2,0.2,0.3,0.5,0.4,0.9C535.6,340.3,535.7,340.7,535.7,341.1z M534.3,341.2c0-0.2,0-0.4-0.1-0.6
			c0-0.2-0.1-0.3-0.2-0.5c-0.1-0.1-0.2-0.2-0.3-0.3c-0.1-0.1-0.3-0.1-0.5-0.1s-0.3,0-0.5,0.1c-0.2,0.1-0.3,0.2-0.3,0.3
			c-0.1,0.1-0.2,0.3-0.2,0.5c0,0.2-0.1,0.4-0.1,0.6c0,0.2,0,0.4,0.1,0.6c0,0.2,0.1,0.3,0.2,0.5c0.1,0.2,0.2,0.2,0.3,0.3
			c0.1,0.1,0.3,0.1,0.5,0.1s0.4,0,0.5-0.1c0.1-0.1,0.3-0.2,0.3-0.3c0.1-0.1,0.2-0.3,0.2-0.5C534.2,341.6,534.3,341.4,534.3,341.2z"
			/>
		<path class="st40" d="M541.2,343.5C541.2,343.5,541.2,343.6,541.2,343.5c0,0.1-0.1,0.1-0.1,0.1s-0.1,0-0.2,0c-0.1,0-0.2,0-0.3,0
			c-0.1,0-0.2,0-0.3,0c-0.1,0-0.1,0-0.2,0c0,0-0.1,0-0.1-0.1v-0.1v-0.5c-0.2,0.3-0.5,0.5-0.7,0.6c-0.3,0.1-0.5,0.2-0.9,0.2
			s-0.6,0-0.9-0.1c-0.2-0.1-0.4-0.2-0.5-0.4c-0.1-0.2-0.2-0.4-0.3-0.6c-0.1-0.2-0.1-0.5-0.1-0.9v-2.9v-0.1c0,0,0.1,0,0.1-0.1
			c0,0,0.1,0,0.2,0s0.2,0,0.3,0c0.1,0,0.2,0,0.3,0c0.1,0,0.1,0,0.2,0c0.1,0,0.1,0,0.1,0.1v0.1v2.7c0,0.2,0,0.4,0,0.5
			s0.1,0.2,0.1,0.3c0.1,0.1,0.1,0.2,0.2,0.2c0.1,0,0.2,0.1,0.3,0.1c0.2,0,0.3-0.1,0.5-0.2c0.2-0.1,0.3-0.3,0.5-0.5v-3.1v-0.1
			c0,0,0.1,0,0.1-0.1s0.1,0,0.2,0s0.2,0,0.3,0c0.1,0,0.2,0,0.3,0c0.1,0,0.1,0,0.2,0c0.1,0,0.1,0,0.1,0.1v0.1v4.7H541.2z"/>
		<path class="st40" d="M549,343.5v0.1c0,0-0.1,0-0.2,0.1c-0.1,0.1-0.2,0-0.3,0c-0.1,0-0.3,0-0.3,0c-0.1,0-0.1,0-0.1-0.1
			s0-0.1,0-0.1v-0.4c-0.2,0.2-0.4,0.3-0.6,0.5c-0.2,0.1-0.5,0.2-0.9,0.2c-0.2,0-0.5,0-0.6-0.1c-0.2-0.1-0.4-0.2-0.5-0.3
			c-0.1-0.1-0.3-0.3-0.3-0.4c-0.1-0.2-0.1-0.4-0.1-0.6c0-0.3,0.1-0.5,0.2-0.7s0.3-0.3,0.5-0.5c0.2-0.2,0.4-0.2,0.7-0.3
			c0.3-0.1,0.6-0.1,1.1-0.1h0.4v-0.3c0-0.1,0-0.3,0-0.4s-0.1-0.2-0.1-0.3c-0.1-0.1-0.2-0.1-0.3-0.2c-0.1-0.1-0.2,0-0.4,0
			c-0.2,0-0.4,0-0.6,0.1c-0.2,0-0.3,0.1-0.4,0.2c-0.1,0.1-0.2,0.1-0.3,0.2c-0.1,0-0.2,0.1-0.2,0.1h-0.1l-0.1-0.1c0,0,0-0.1,0-0.2
			c0-0.1,0-0.1,0-0.2s0-0.2,0-0.2s0-0.1,0.1-0.2c0,0,0.1-0.1,0.2-0.2c0.1-0.1,0.3-0.1,0.4-0.2c0.2,0,0.3-0.1,0.5-0.1s0.4,0,0.6,0
			c0.3,0,0.6,0,1,0.1c0.2,0.1,0.4,0.2,0.6,0.3c0.2,0.1,0.3,0.3,0.3,0.5c0.1,0.2,0.1,0.5,0.1,0.9v3.2H549z M547.7,341.5h-0.5
			c-0.2,0-0.4,0-0.5,0s-0.3,0.1-0.3,0.1c-0.1,0.1-0.2,0.1-0.2,0.2c0,0.1-0.1,0.2-0.1,0.3c0,0.2,0.1,0.3,0.2,0.4
			c0.1,0.1,0.3,0.2,0.5,0.2c0.2,0,0.3,0,0.5-0.1c0.1-0.1,0.3-0.2,0.4-0.4L547.7,341.5L547.7,341.5z"/>
		<path class="st40" d="M553.9,342.8c0,0.1,0,0.2,0,0.2c0,0.1,0,0.1,0,0.1v0.1c0,0,0,0.1-0.1,0.1c0,0-0.1,0.1-0.2,0.1
			c-0.1,0-0.2,0.1-0.3,0.1c-0.1,0-0.3,0.1-0.4,0.1c-0.1,0-0.3,0-0.4,0c-0.3,0-0.6-0.1-1-0.2s-0.5-0.3-0.7-0.5s-0.3-0.5-0.4-0.9
			c-0.1-0.3-0.1-0.6-0.1-1.1c0-0.4,0.1-0.9,0.2-1.2c0.1-0.3,0.3-0.6,0.5-0.9s0.4-0.4,0.7-0.5s0.6-0.2,1-0.2c0.1,0,0.3,0,0.4,0
			c0.1,0,0.2,0.1,0.4,0.1c0.1,0,0.2,0.1,0.3,0.1c0.1,0,0.1,0.1,0.2,0.1c0.1,0,0.1,0.1,0.1,0.1v0.1v0.1c0,0,0,0.1,0,0.2
			c0,0.2,0,0.3,0,0.4s-0.1,0.1-0.1,0.1c-0.1,0-0.1,0-0.2-0.1c-0.1,0-0.1-0.1-0.2-0.2c-0.1-0.1-0.2-0.1-0.3-0.2
			c-0.1,0-0.3-0.1-0.4-0.1c-0.3,0-0.6,0.1-0.7,0.4c-0.2,0.2-0.3,0.6-0.3,1.2c0,0.2,0,0.4,0.1,0.6c0.1,0.2,0.1,0.3,0.2,0.5
			c0.1,0.1,0.2,0.2,0.3,0.3s0.3,0.1,0.4,0.1c0.2,0,0.3,0,0.4-0.1c0.1-0.1,0.2-0.1,0.3-0.2c0.1-0.1,0.2-0.1,0.2-0.2
			c0.1-0.1,0.1-0.1,0.2-0.1h0.1c0,0,0,0,0,0.1c0,0,0,0.1,0,0.2C554.2,341.9,553.9,342.7,553.9,342.8z"/>
		<path class="st40" d="M559.4,341.1c0,0.2,0,0.3-0.1,0.3c-0.1,0.1-0.2,0.1-0.3,0.1h-2.9c0,0.2,0,0.4,0.1,0.5c0,0.2,0.1,0.3,0.2,0.4
			s0.2,0.2,0.4,0.2c0.2,0.1,0.3,0.1,0.6,0.1c0.2,0,0.4,0,0.6,0s0.3-0.1,0.4-0.1c0.1,0,0.2-0.1,0.3-0.1c0.1,0,0.1,0,0.2,0h0.1
			c0,0,0,0,0,0.1v0.1c0,0.1,0,0.1,0,0.2s0,0.1,0,0.2c0,0.1,0,0.1,0,0.1v0.1c0,0,0,0-0.1,0.1c0,0-0.1,0.1-0.2,0.1s-0.2,0.1-0.4,0.1
			c-0.1,0-0.3,0.1-0.5,0.1c-0.2,0-0.4,0-0.6,0c-0.4,0-0.7,0-1.1-0.1c-0.3-0.1-0.5-0.2-0.7-0.5c-0.2-0.2-0.3-0.5-0.4-0.9
			c-0.1-0.3-0.1-0.7-0.1-1.2c0-0.4,0.1-0.7,0.2-1.2c0.1-0.4,0.3-0.6,0.4-0.9c0.2-0.2,0.4-0.4,0.7-0.5s0.6-0.2,1-0.2
			c0.4,0,0.7,0.1,1,0.2c0.3,0.1,0.5,0.3,0.6,0.5c0.1,0.2,0.3,0.4,0.4,0.7c0.1,0.3,0.1,0.6,0.1,1L559.4,341.1L559.4,341.1z
			 M558.1,340.7c0-0.4-0.1-0.6-0.2-0.9c-0.2-0.2-0.4-0.3-0.7-0.3c-0.2,0-0.3,0-0.4,0.1c-0.1,0.1-0.2,0.1-0.3,0.2
			c-0.1,0.1-0.1,0.2-0.2,0.4c0,0.1-0.1,0.3-0.1,0.4L558.1,340.7L558.1,340.7z"/>
		<path class="st40" d="M564.4,337.2c0,0.3-0.1,0.4-0.2,0.5c-0.1,0.1-0.3,0.1-0.6,0.1s-0.5,0-0.6-0.1c-0.1-0.1-0.1-0.3-0.1-0.5
			c0-0.3,0.1-0.4,0.2-0.5s0.3-0.1,0.6-0.1c0.3,0,0.5,0,0.6,0.1C564.3,336.8,564.4,336.9,564.4,337.2z M564.3,343.5
			C564.3,343.5,564.3,343.6,564.3,343.5c0,0.1-0.1,0.1-0.1,0.1s-0.1,0-0.2,0c-0.1,0-0.2,0-0.3,0c-0.1,0-0.2,0-0.3,0
			c-0.1,0-0.1,0-0.2,0c-0.1,0-0.1,0-0.1-0.1v-0.1v-4.6v-0.1c0,0,0.1,0,0.1-0.1c0,0,0.1,0,0.2,0c0.1,0,0.2,0,0.3,0c0.1,0,0.2,0,0.3,0
			c0.1,0,0.1,0,0.2,0c0,0,0.1,0,0.1,0.1v0.1V343.5z"/>
		<path class="st40" d="M568.5,343.1c0,0.1,0,0.3,0,0.3c0,0.1,0,0.1-0.1,0.2l-0.1,0.1c-0.1,0-0.1,0-0.2,0.1c-0.1,0-0.2,0-0.3,0
			c-0.1,0-0.2,0-0.3,0c-0.2,0-0.5,0-0.6-0.1c-0.1-0.1-0.3-0.2-0.5-0.3c-0.1-0.1-0.2-0.3-0.3-0.5c-0.1-0.2-0.1-0.4-0.1-0.7v-2.5h-0.5
			c-0.1,0-0.1,0-0.1-0.1s0-0.2,0-0.4c0-0.1,0-0.2,0-0.2c0-0.1,0-0.1,0-0.2c0,0,0-0.1,0.1-0.1c0.1,0,0.1,0,0.1,0h0.5v-1.1v-0.1
			c0,0,0.1,0,0.1-0.1s0.1,0,0.2,0s0.2,0,0.3,0c0.1,0,0.2,0,0.3,0c0.1,0,0.1,0,0.2,0c0,0,0.1,0,0.1,0.1v0.1v1.1h1.1h0.1
			c0,0,0,0,0.1,0.1c0.1,0.1,0,0.1,0,0.2s0,0.1,0,0.2c0,0.2,0,0.3,0,0.4s-0.1,0.1-0.1,0.1h-1.1v2.2c0,0.2,0,0.4,0.1,0.5
			c0.1,0.1,0.2,0.2,0.4,0.2c0.1,0,0.1,0,0.2,0c0.1,0,0.1,0,0.1,0h0.1h0.1c0,0,0,0,0.1,0c0,0,0,0,0,0.1v0.1
			C568.5,342.9,568.5,343,568.5,343.1z"/>
		<path class="st40" d="M571.2,343c0,0.1,0,0.3,0,0.3c0,0.1-0.1,0.2-0.1,0.2c-0.1,0.1-0.1,0.1-0.2,0.1c-0.1,0-0.2,0-0.3,0
			s-0.2,0-0.3,0c-0.1,0-0.2-0.1-0.2-0.1c-0.1-0.1-0.1-0.1-0.1-0.2c0-0.1,0-0.2,0-0.3c0-0.1,0-0.3,0-0.3c0-0.1,0.1-0.2,0.1-0.2
			c0.1-0.1,0.1-0.1,0.2-0.1c0.1,0,0.2,0,0.3,0s0.2,0,0.3,0c0.1,0,0.2,0.1,0.2,0.1s0.1,0.1,0.1,0.2
			C571.2,342.8,571.2,342.9,571.2,343z M571.1,341.5L571.1,341.5c0,0.1-0.1,0.1-0.1,0.2s-0.1,0-0.2,0c-0.1,0-0.2,0-0.3,0
			c-0.1,0-0.2,0-0.3,0c-0.1,0-0.1,0-0.2,0c-0.1,0-0.1,0-0.1-0.1v-0.1l0-4.8v-0.1l0.1-0.1c0.1,0,0.1,0,0.2,0c0.1,0,0.2,0,0.3,0
			c0.1,0,0.2,0,0.3,0c0.1,0,0.2,0,0.2,0c0.1,0,0.1,0,0.1,0.1s0,0.1,0,0.1L571.1,341.5z"/>
	</g>
	<g>
		<path class="st6" d="M615.7,329.5H481.5v-3.8h130.3C613.9,325.7,615.7,327.4,615.7,329.5L615.7,329.5z"/>
	</g>
	<g>
		<line class="st39" x1="481.5" y1="311.9" x2="481.5" y2="321"/>
		<rect x="481.3" y="311.9" class="st35" width="0.3" height="9.1"/>
	</g>
	<g>
		<line class="st39" x1="504.6" y1="316.4" x2="504.6" y2="321"/>
		<rect x="504.5" y="316.4" class="st35" width="0.3" height="4.6"/>
	</g>
	<g>
		<line class="st39" x1="526.2" y1="311.9" x2="526.2" y2="321"/>
		<rect x="526.1" y="311.9" class="st35" width="0.3" height="9.1"/>
	</g>
	<g>
		<line class="st39" x1="549.2" y1="316.4" x2="549.2" y2="321"/>
		<rect x="549.1" y="316.4" class="st35" width="0.3" height="4.6"/>
	</g>
	<g>
		<line class="st39" x1="570.9" y1="311.9" x2="570.9" y2="321"/>
		<rect x="570.8" y="311.9" class="st35" width="0.3" height="9.1"/>
	</g>
	<g>
		<line class="st39" x1="594" y1="316.4" x2="594" y2="321"/>
		<rect x="593.9" y="316.4" class="st35" width="0.3" height="4.6"/>
	</g>
	<g>
		<line class="st39" x1="615.7" y1="311.9" x2="615.7" y2="321"/>
		<rect x="615.5" y="311.9" class="st35" width="0.3" height="9.1"/>
	</g>
	<g class="st41">
		<g>
			<path class="st0" d="M676.8,360.2l-1.2,1.6l0,0l1.9-0.2v0.9l-1.9-0.2l0,0l1.3,1.5l-0.9,0.4l-0.7-1.8l0,0l-0.9,1.8l-0.7-0.4
				l1.2-1.6l0,0l-1.9,0.2v-0.9l1.9,0.2l0,0l-1.2-1.6l0.7-0.4l0.7,1.8l0,0l0.7-1.8L676.8,360.2z"/>
			<path class="st0" d="M682.1,360.2l-1.2,1.6l0,0l1.9-0.2v0.9l-1.9-0.2l0,0l1.3,1.5l-0.9,0.4l-0.7-1.8l0,0l-0.9,1.8l-0.7-0.4
				l1.2-1.6l0,0l-1.9,0.2v-0.9l1.9,0.2l0,0l-1.2-1.6l0.7-0.4l0.7,1.8l0,0l0.7-1.8L682.1,360.2z"/>
			<path class="st0" d="M687.5,360.2l-1.2,1.6l0,0l1.9-0.2v0.9l-1.9-0.2l0,0l1.3,1.5l-0.9,0.4l-0.7-1.8l0,0l-0.9,1.8l-0.7-0.4
				l1.2-1.6l0,0l-1.9,0.2v-0.9l1.9,0.2l0,0l-1.2-1.6l0.7-0.4l0.7,1.8l0,0l0.7-1.8L687.5,360.2z"/>
			<path class="st0" d="M692.7,360.2l-1.2,1.6l0,0l1.9-0.2v0.9l-1.9-0.2l0,0l1.3,1.5l-0.9,0.4l-0.7-1.8l0,0l-0.9,1.8l-0.7-0.4
				l1.2-1.6l0,0l-1.9,0.2v-0.9l1.9,0.2l0,0l-1.2-1.6l0.7-0.4l0.7,1.8l0,0l0.7-1.8L692.7,360.2z"/>
			<path class="st0" d="M698,360.2l-1.2,1.6l0,0l1.9-0.2v0.9l-1.9-0.2l0,0l1.3,1.5l-0.9,0.4l-0.7-1.8l0,0l-0.9,1.8l-0.7-0.4l1.2-1.6
				l0,0l-1.9,0.2v-0.9l1.9,0.2l0,0l-1.2-1.6l0.7-0.4l0.7,1.8l0,0l0.7-1.8L698,360.2z"/>
			<path class="st0" d="M703.4,360.2l-1.2,1.6l0,0l1.9-0.2v0.9l-1.9-0.2l0,0l1.3,1.5l-0.9,0.4l-0.7-1.8l0,0l-0.9,1.8l-0.7-0.4
				l1.2-1.6l0,0l-1.9,0.2v-0.9l1.9,0.2l0,0l-1.2-1.6l0.7-0.4l0.7,1.8l0,0l0.7-1.8L703.4,360.2z"/>
			<path class="st0" d="M708.7,360.2l-1.2,1.6l0,0l1.9-0.2v0.9l-1.9-0.2l0,0l1.3,1.5l-0.9,0.4l-0.7-1.8l0,0l-0.9,1.8l-0.7-0.4
				l1.2-1.6l0,0l-1.9,0.2v-0.9l1.9,0.2l0,0l-1.2-1.6l0.7-0.4l0.7,1.8l0,0l0.7-1.8L708.7,360.2z"/>
			<path class="st0" d="M714,360.2l-1.2,1.6l0,0l1.9-0.2v0.9l-1.9-0.2l0,0l1.3,1.5l-0.9,0.4l-0.7-1.8l0,0l-0.9,1.8l-0.7-0.4l1.2-1.6
				l0,0l-1.9,0.2v-0.9l1.9,0.2l0,0l-1.2-1.6l0.7-0.4l0.7,1.8l0,0l0.7-1.8L714,360.2z"/>
			<path class="st0" d="M719.3,360.2l-1.2,1.6l0,0l1.9-0.2v0.9l-1.9-0.2l0,0l1.3,1.5l-0.9,0.4l-0.7-1.8l0,0l-0.9,1.8l-0.7-0.4
				l1.2-1.6l0,0l-1.9,0.2v-0.9l1.9,0.2l0,0l-1.2-1.6l0.7-0.4l0.7,1.8l0,0l0.7-1.8L719.3,360.2z"/>
			<path class="st0" d="M724.6,360.2l-1.2,1.6l0,0l1.9-0.2v0.9l-1.9-0.2l0,0l1.3,1.5l-0.9,0.4l-0.7-1.8l0,0l-0.9,1.8l-0.7-0.4
				l1.2-1.6l0,0l-1.9,0.2v-0.9l1.9,0.2l0,0l-1.2-1.6l0.7-0.4l0.7,1.8l0,0l0.7-1.8L724.6,360.2z"/>
		</g>
	</g>
</g>
</svg>
